<svg width="20" height="20" fill="none" xmlns="http://www.w3.org/2000/svg"><g clip-path="url(#a)"><path d="M0 10c0 5.523 4.477 10 10 10s10-4.477 10-10S15.523 0 10 0 0 4.477 0 10Z" fill="#000"/><path d="M10.028 12.64v.297l-.56-.336.56.04Z" fill="#7D7C7C"/><path d="M10.027 12.64v-.52l-.347.017.347.504Z" fill="#3C3B3B"/><path d="m10.028 12.64-.56-.04.212-.463.348.504Z" fill="#2E2E2E"/><path d="m9.198 12.08.27.52.212-.463-.482-.057Z" fill="#020002"/><path d="m9.198 12.08.27.52-.408-.025.138-.495Z" fill="#020002"/><path d="m9.198 12.08-.363.04.224.455.14-.495Z" fill="#020202"/><path d="m8.651 12.575.184-.456.224.456h-.408Z" fill="#020002"/><path d="m8.652 12.575.184-.456-.55.102.366.354Z" fill="#000202"/><path d="m9.332 12.87.135-.27.56.337-.695-.066Z" fill="#C7C7C7"/><path d="m9.54 13.35.487.043v-.456l-.488.414Z" fill="#1C1C1D"/><path d="m9.332 12.87.135-.27-.407-.025.272.296Z" fill="#929293"/><path d="m9.333 12.87-.466.038.193-.333.273.296Z" fill="#D3D4D4"/><path d="m8.651 12.575.216.333.192-.333h-.408Z" fill="#8C8C8C"/><path d="m8.652 12.575.215.333-.287.083.072-.416Z" fill="#CACACB"/><path d="m8.652 12.575-.554.117.482.3.072-.417Z" fill="#7D7D7D"/><path d="m8.167 13.06-.07-.368.483.3-.413.069Z" fill="#0A080A"/><path d="m8.167 13.06-.07-.368-.217.32.287.049Z" fill="#252526"/><path d="m8.167 13.06-.162.422-.125-.47.287.049Z" fill="#141415"/><path d="m10.046 13.727-.507-.376-.15.3.657.076Z" fill="#979798"/><path d="m10.046 13.727-.507-.376.488.042.019.334Z" fill="#979798"/><path d="m9.042 13.28.497.07-.15.3-.347-.37Z" fill="#868686"/><path d="m9.043 13.28-.274-.06.245.344.376.087-.347-.37Z" fill="#C5C5C6"/><path d="m8.403 13.28.249-.123.116.063.246.344-.246-.047-.365-.236Z" fill="#BDBEBE"/><path d="M10.027 13.393v-.456l.178.013.24.374-.418.069Z" fill="#949495"/><path d="m11.113 13.234.251-.07v-.16l-1.159-.054.24.374.668-.09Z" fill="#F6F7F8"/><path d="m10.416 12.624-.389.017v-.522l.36.341.029.164Z" fill="#949495"/><path d="m10.416 12.624.353-.076-.028-.429-.353.341.028.164Z" fill="#D1D1D2"/><path d="m10.027 12.12.36.34.354-.34h-.714Z" fill="#F7F9F9"/><path d="m10.027 12.12.69-.409.024.408h-.714Z" fill="#F1F1F2"/><path d="m10.027 12.12.69-.409-.034-.14-.656.548Z" fill="#C6C6C8"/><path d="m11.075 12.12-.305.428-.029-.429h.335Z" fill="#D9DADA"/><path d="m11.075 12.12-.305.428.33-.013-.024-.416Z" fill="#BCBDBD"/><path d="m11.075 12.12.284.04-.259.375-.025-.416Z" fill="#C3C3C4"/><path d="m11.434 12.548-.074-.388-.26.375.334.013Z" fill="#7C7C7C"/><path d="m11.433 12.548-.074-.388.528.116-.454.272Z" fill="#C1C1C2"/><path d="m11.434 12.548.547.11-.094-.382-.453.272Z" fill="#5B5A59"/><path d="m12.269 12.5-.289.159-.093-.383" fill="#414141"/><path d="m12.269 12.5.143-.492-.525.268" fill="#595959"/><path d="m11.887 12.276.526-.268-.595-.07.07.338Z" fill="#EAEBEB"/><path d="m11.888 12.276-.07-.338-.483-.054.025.276.528.116Z" fill="#B9B9B8"/><path d="m11.075 12.12-.039-.312.299.076.024.276-.284-.04Z" fill="#DBDBDC"/><path d="m11.075 12.12-.04-.312-.317-.097.023.408h.334Z" fill="#E7E8E8"/><path d="m10.684 11.57.177-.04.572-.161-.397.439-.318-.097-.034-.14Z" fill="#E5E6E6"/><path d="m11.433 11.369-.397.439.299.076.098-.515Z" fill="#E9EAEB"/><path d="m11.434 11.369.385.57-.484-.055.099-.515Z" fill="#A3A3A3"/><path d="m11.434 11.369.384.57.412-.71-.796.14Z" fill="#333"/><path d="m12.413 12.008-.595-.07.412-.71.183.78Z" fill="#1D1D1D"/><path d="M11.076 11.026s.026.223-.056.31c-.083.087-.158.172-.159.193 0 .02.572-.16.572-.16l-.357-.343Z" fill="#FDFDFD"/><path d="m11.433 11.369-.358-.343.455-.156-.097.499Z" fill="#848485"/><path d="m11.434 11.369.796-.14-.7-.36-.096.5Z" fill="#2F2E2F"/><path d="m11.956 10.676.274.552-.7-.358.426-.194Z" fill="#3F3E3E"/><path d="m11.956 10.676.274.552-.058-.807-.216.255Z" fill="#222"/><path d="m11.956 10.676-.226-.402.442.147-.216.255Z" fill="#666565"/><path d="m11.956 10.676-.225-.402-.2.596.425-.194Z" fill="#6C6C6D"/><path d="m11.335 10.367.396-.093-.2.596-.196-.503Z" fill="#626262"/><path d="m11.334 10.367-.425.222.62.28-.195-.502Z" fill="#696867"/><path d="m11.334 10.367-.425.222.138-.616.287.394Z" fill="#F7F8F8"/><path d="m11.335 10.367.396-.093-.684-.3.288.393Z" fill="#F5F6F6"/><path d="m10.964 9.607.767.667-.684-.3-.083-.367Z" fill="#E3E3E4"/><path d="m11.22 9.83.51.444.15-.487-.66.042Z" fill="#A9A9A9"/><path d="m12.172 10.421-.442-.147.15-.487.292.634Z" fill="#C4C4C5"/><path d="m12.172 10.421.138-.675-.43.041.292.634Z" fill="#353433"/><path d="m12.173 10.421.138-.675.468.98-.606-.305Z" fill="#2E2E2E"/><path d="m11.55 9.05-.202.339.532.398.05-.522-.38-.215Z" fill="#050506"/><path d="m11.93 9.265.38.48-.43.042.05-.522Z" fill="#31302F"/><path d="m11.93 9.265.38.48.193-.37-.572-.11Z" fill="#323233"/><path d="m11.93 9.265.408-.126.165.235-.572-.109Z" fill="#4A4A4A"/><path d="m12.643 9.045-.305.094.165.235.407.078-.267-.407Z" fill="#8A8A8B"/><path d="m12.643 9.045.206-.096h.396l-.336.503-.266-.407Z" fill="#858484"/><path d="m13.03 10.194-.72-.448.193-.372.527.82Z" fill="#939394"/><path d="m13.03 10.194-.12-.742-.407-.078.527.82Z" fill="#969697"/><path d="m13.725 9.553-.24.803-.102-.663.342-.14Z" fill="#313132"/><path d="m13.03 10.194.455.162-.103-.663-.353.501Z" fill="#5B5B5A"/><path d="m13.029 10.194-.12-.742.473.241-.353.501Z" fill="#BFBFC0"/><path d="m13.245 8.949.48.604-.342.14-.138-.744Z" fill="#ABABAC"/><path d="m13.872 9.067-.022.583-.125-.097-.05-.54.197.054Z" fill="#2A2A2B"/><path d="m13.872 9.067-.022.583.022.23.19-.375-.19-.438Z" fill="#171517"/><path d="m13.871 9.067-.024-.611-.27.22.098.336.196.055Z" fill="#343335"/><path d="m13.245 8.949.48.604-.05-.54-.43-.064Z" fill="#858585"/><path d="m13.245 8.949.332-.272.099.335-.43-.063Z" fill="#202021"/><path d="m13.245 8.949.331-.272-.363-.046.032.318Z" fill="#020002"/><path d="m13.245 8.949-.286-.16.254-.158.032.318Z" fill="#020002"/><path d="m13.245 8.949-.286-.16-.11.16h.396Z" fill="#020002"/><path d="m13.03 10.194-.72-.448.469.98.25-.532Z" fill="#131014"/><path d="m11.22 9.83.127-.441.533.398-.66.042Z" fill="#CFD0D0"/><path d="m11.55 9.05-.203.339-.527-.42.515-.218.215.299Z" fill="#050506"/><path d="m11.22 9.83.127-.441-.527-.42.144.638.256.222Z" fill="#454444"/><path d="m10.47 8.591.35.378.227 1.004-.576-1.382Z" fill="#505050"/><path d="m10.663 9.638.182.485.202-.15-.384-.335Z" fill="#595959"/><path d="m10.663 9.638-.068-.373.452.708-.384-.335Z" fill="#8F8F8F"/><path d="m10.47 8.591.125.674.452.708-.576-1.382Z" fill="#B4B3B3"/><path d="m10.91 10.59.165.436.455-.156-.62-.28Z" fill="#979797"/><path d="m10.733 10.56.343.466-.3-.133-.043-.334Z" fill="#F3F4F5"/><path d="m10.845 10.354-.112.205-.29-.249.402-.187v.23Z" fill="#727271"/><path d="m10.845 10.354.065.235.137-.616-.202.15v.23Z" fill="#272727"/><path d="m10.663 9.638-.149-.373-.07-.387.027-.287.192 1.047Z" fill="#706F70"/><path d="m10.408 9.814.035.496.402-.187-.437-.309Z" fill="#FCFCFC"/><path d="m10.408 9.814.035.496-.433-.263.398-.233Z" fill="#FEFEFF"/><path d="m10.02 10.572.423-.262-.433-.263.01.525Z" fill="#FBFBFC"/><path d="m10.02 10.572.423-.262.027.436-.45-.174Z" fill="#FDFDFD"/><path d="m10.733 10.56-.29-.25.028.436.262-.187Z" fill="#8D8C8C"/><path d="m10.733 10.56.044.333-.306-.147.262-.187Z" fill="#7E7D7E"/><path d="m10.47 11.098.307-.205-.306-.147v.352Z" fill="#020002"/><path d="m10.47 11.098-.45-.146.45-.206v.352Z" fill="#2B2A2B"/><path d="M10.02 10.572v.38l.45-.206-.45-.174Z" fill="#FDFDFD"/><path d="M10.02 10.572v.38l-.412-.127.412-.253Z" fill="#4B4A4A"/><path d="m9.625 11.162.395-.21-.412-.127.017.337Z" fill="#1B1A1B"/><path d="m10.02 10.572-.412-.205v.458l.412-.253Z" fill="#4E4E4D"/><path d="m10.02 10.572-.412-.205.402-.32.01.525Z" fill="#949495"/><path d="m9.625 9.85-.017.517.402-.32-.385-.198Z" fill="#888"/><path d="m9.625 9.85.369-.323.016.52-.385-.198Z" fill="#B0B0B1"/><path d="m9.625 9.85.369-.323-.347-.163-.022.485Z" fill="#ACACAD"/><path d="m9.95 9.05.043.477-.347-.163.304-.314Z" fill="#ACACAD"/><path d="m9.95 9.05-.278-.212-.026.526.304-.314Z" fill="#AFB0B1"/><path d="m9.95 9.05.044.477.336-.236-.38-.241Z" fill="#FBFBFD"/><path d="m9.95 9.05.277-.212.103.453-.38-.241Z" fill="#F9FAFA"/><path d="m9.95 9.05.277-.212-.277-.206v.418Z" fill="#FAFBFC"/><path d="m9.95 9.05-.277-.212.277-.206v.418Z" fill="#C4C4C5"/><path d="m10.408 9.814.255-.176.181.485-.436-.309Z" fill="#FCFDFE"/><path d="m10.408 9.814.254-.176-.333-.347" fill="#F7F9FA"/><path d="m10.514 9.265.148.373-.333-.347" fill="#D6D7D7"/><path d="m10.408 9.814-.415-.287.336-.236" fill="#FCFDFE"/><path d="m10.408 9.814-.415-.287.017.52" fill="#FDFDFD"/><path d="m9.609 10.825-.383.23.399.107-.016-.337ZM10.02 10.952l-.395.21.414.17-.018-.38Z" fill="#434243"/><path d="m9.225 11.055-.242.087.376.356.054-.13-.188-.313Z" fill="#CECECF"/><path d="m8.983 11.142.376.356s-.082.079-.237-.06c-.155-.138-.133-.269-.139-.296ZM9.413 11.369s.194-.126.378.031c.029.03.248-.068.248-.068l-.414-.17-.4-.107" fill="#C3C4C5"/><path d="M9.604 8.305s.093.309.068.533l-.305-.225.237-.308Z" fill="#020303"/><path d="M9.604 8.305s.093.309.068.533l.278-.206v-.264l-.346-.063Z" fill="#212121"/><path d="m9.605 8.305-.252-.018.015.326.237-.308Z" fill="#575657"/><path d="m9.605 8.305-.252-.018.067-.219.185.237Z" fill="#818181"/><path d="m8.995 8.17.358.117.067-.219-.425.102Z" fill="#A9A9AA"/><path d="m8.995 8.17-.302-.48.727.378-.425.102Z" fill="#A2A2A2"/><path d="m8.995 8.17-.302-.48-.471.14.773.34Z" fill="#828283"/><path d="m7.597 7.93.277-.37.347.27-.624.1Z" fill="#222"/><path d="m7.597 7.93-.131-.413-.314.386.445.026Z" fill="#282728"/><path d="m7.597 7.93-.17.247-.275-.274.445.026Z" fill="#1E1E1F"/><path d="m6.928 8.187.498-.01-.274-.274-.224.284Z" fill="#404040"/><path d="m6.928 8.187.159.4-.2.066.04-.466Z" fill="#535353"/><path d="m7.597 7.93-.17.247.482-.055-.312-.193Z" fill="#3D3D3D"/><path d="m8.176 8.287-.318.077-.431-.187.482-.055.267.165Z" fill="#656565"/><path d="m7.668 8.45.19-.086-.431-.187-.206.19.447.083Z" fill="#A3A3A3"/><path d="m7.668 8.45-.303.138h-.278l.134-.22.447.082Z" fill="#7B7A7A"/><path d="m7.426 8.177-.498.01.159.4.133-.22.206-.19Z" fill="#797978"/><path d="m7.597 7.93.312.192.312-.291-.624.098Z" fill="#2C2C2D"/><path d="m9.368 8.613-1.459-.491.312-.291 1.147.782Z" fill="#242425"/><path d="m9.368 8.613-1.459-.491.267.165 1.192.326Z" fill="#323131"/><path d="m8.995 8.17.373.443-1.146-.782.773.339Z" fill="#494949"/><path d="m8.995 8.17.358.117.015.326-.373-.443Z" fill="#737273"/><path d="m7.377 8.686-.175.155.265.118.062-.198-.152-.075Z" fill="gray"/><path d="m7.949 8.84-.018.21-.463-.091.062-.198.419.08Z" fill="#C7C7C7"/><path d="m7.949 8.84-.018.21.36.015-.126-.207-.216-.017Z" fill="#646465"/><path d="m7.858 9.476.073-.426.36.015.206.223-.639.188Z" fill="#020002"/><path d="m7.858 9.476.073-.426.36.015.206.223-.639.188Z" fill="#020002"/><path d="m7.859 9.476.072-.426-.463-.091-.153.374.544.143Z" fill="#020002"/><path d="m7.859 9.476-.093.798-.45-.94.543.142Z" fill="#020002"/><path d="m8.45 8.856.33.245-.489-.036-.126-.207.285-.002Z" fill="#1F1E1F"/><path d="m8.176 7.217.618-.444.262.625-.88-.18Z" fill="#1B1B1C"/><path d="m10.01 7.594-1.215-.821.262.625.953.196Z" fill="#343435"/><path d="m8.176 7.217.618-.444-.573-.367-.045.811Z" fill="#262626"/><path d="m8.718 5.971.077.802-.573-.367.496-.435Z" fill="#1C1C1C"/><path d="m8.718 5.971-.64-1.06.143 1.495.497-.435Z" fill="#0B0A0B"/><path d="m7.743 5.916.335-1.005.143 1.495-.478-.49Z" fill="#030305"/><path d="m7.743 5.916.335-1.005-.318-.366-.017 1.371Z" fill="#000202"/><path d="m8.718 5.971.076.802 1.156-.9-1.232.098Z" fill="#484848"/><path d="m8.718 5.971 1.206-1.616.026 1.519-1.232.097Z" fill="#545454"/><path d="m8.718 5.971 1.206-1.616-1.308.131.102 1.485Z" fill="#777677"/><path d="m8.718 5.971-.386-1.23.284-.255.102 1.485Z" fill="#6C6B6C"/><path d="m8.718 5.971-.386-1.23-.254.17.64 1.06Z" fill="#2D2D2D"/><path d="m8.577 3.915 1.348.44-1.309.131-.039-.571Z" fill="#999"/><path d="m8.577 3.915 1.348.44L9.88 3.04l-1.304.875Z" fill="#A7A7A7"/><path d="m8.577 3.915-.401.38.44.191-.04-.571Z" fill="#6D6C6D"/><path d="m8.577 3.915-.401.38-.797-.268 1.198-.112Z" fill="#3F3F40"/><path d="m8.577 3.915.039-.757-1.237.87 1.198-.113Z" fill="#6E6D6D"/><path d="m8.577 3.915.04-.757L9.88 3.04l-1.304.875Z" fill="#B6B6B7"/><path d="m8.176 2.79.44.368-1.237.87.797-1.238Z" fill="#828181"/><path d="m8.176 2.79.44.368.2-.62-.64.252Z" fill="#D9DADA"/><path d="m9.88 3.04-1.264.118.2-.62 1.064.502Z" fill="#FBFBFC"/><path d="m9.88 3.04.044-.845-1.109.342 1.065.503ZM9.934 2l-.01.195-1.109.342L9.935 2Z" fill="#FBFBFC"/><path d="m9.935 2-1.278.268.159.27 1.119-.539ZM8.463 2.469l.194-.2.158.268-.352-.068Z" fill="#FBFBFC"/><path d="m8.463 2.469-.287.321.64-.253-.353-.068Z" fill="#E9EAEA"/><path d="m8.657 2.268-.481.522.063-.364.418-.158Z" fill="#EFF1F1"/><path d="m8.176 2.79-.865.456.068.781.797-1.237Z" fill="#515050"/><path d="m6.837 4.003.474-.757.068.781-.542-.024Z" fill="#222122"/><path d="m7.76 4.545.416-.25-.283-.094-.514-.174.381.518Z" fill="#2D2D2D"/><path d="m8.332 4.74-.156-.444.44.19-.284.255Z" fill="#646465"/><path d="m8.332 4.74-.156-.444-.415.249.317.366.254-.17Z" fill="#0D0B0E"/><path d="m10.01 7.594-1.215-.821 1.155-.9.06 1.72Z" fill="#424242"/><path d="m10.01 7.594.945-.934-1.005-.786.06 1.72Z" fill="#696969"/><path d="m11.263 5.971-.308.69-1.005-.787 1.313.097Z" fill="#D7D7D8"/><path d="M11.263 5.971 9.925 4.355l.025 1.519 1.313.097Z" fill="#D7D8D9"/><path d="M11.263 5.971 9.925 4.355l1.23.6.108 1.016Z" fill="#D7D7D8"/><path d="m11.175 4.06-1.25.295 1.23.6.02-.895Z" fill="#D6D6D6"/><path d="m11.175 4.06-1.25.295L9.88 3.04l1.294 1.02Z" fill="#DCDDDD"/><path d="m11.175 4.06-.05-.902-1.244-.118 1.294 1.02Z" fill="#F7F9FA"/><path d="m11.016 2.53.11.628L9.88 3.04l1.135-.51Z" fill="#fff"/><path d="m11.017 2.53.109.628.368-.223-.477-.406Z" fill="#FCFDFF"/><path d="m11.017 2.53.693.274-.216.13-.477-.405Z" fill="#FDFDFD"/><path d="m11.017 2.53.693.274-.312-.474-.381.2ZM11.016 2.53l-1.091-.335-.044.845 1.135-.51Z" fill="#fff"/><path d="m11.017 2.53-1.092-.335.01-.196 1.082.53Z" fill="#FAFBFC"/><path d="m11.016 2.53.175-.298-1.256-.233 1.081.53Z" fill="#fff"/><path d="m11.017 2.53.174-.298.207.098-.381.2Z" fill="#F9FAFA"/><path d="m11.175 4.06-.05-.902 1.223.78-1.173.122Z" fill="#FEFEFE"/><path d="m11.71 2.804-.585.354 1.223.78-.639-1.134Z" fill="#F6F8F9"/><path d="m11.71 2.804.804.432-.166.702-.638-1.134Z" fill="#FEFEFE"/><path d="m13.19 4.448-.676-1.212-.166.702.841.51Z" fill="#FAFCFD"/><path d="m13.19 4.448-.676-1.212.828.824-.153.388Z" fill="#F9FBFC"/><path d="m13.19 4.448.367.508-.215-.896-.152.388Z" fill="#E9EAEB"/><path d="m13.19 4.448.367.508-.121.342-.246-.85Z" fill="#B9B9B8"/><path d="m13.19 4.448-.16.85h.406l-.247-.85Z" fill="#7F7E7F"/><path d="m13.4 5.921-.37-.623h.406l-.037.623Z" fill="#545454"/><path d="m13.4 5.921-.37-.623-.212.594.582.03Z" fill="#676666"/><path d="m13.4 5.921-.29.448-.292-.477.582.03Z" fill="#7B7A7A"/><path d="m13.4 5.921-.292.448.348.457-.057-.905Z" fill="#737273"/><path d="m13.179 6.897-.07-.528.347.457-.277.071Z" fill="#6A6A6A"/><path d="m12.514 5.874.595.495-.291-.477-.304-.018Z" fill="#787878"/><path d="m12.514 5.874.595.495-.248.476-.347-.971Z" fill="#DFDFE0"/><path d="m12.514 5.874-.754.543 1.101.428-.347-.971Z" fill="#E7E7E8"/><path d="m12.514 5.874-.755.543-.496-.446 1.25-.097Z" fill="#E0E0E0"/><path d="m11.341 7.223.418-.806-.496-.446.078 1.252Z" fill="#D9DADA"/><path d="m11.341 7.223-.386-.563.308-.689.078 1.252Z" fill="#D2D2D2"/><path d="m11.342 7.223-.386-.563-.155.753.54-.19Z" fill="#4D4D4D"/><path d="m10.01 7.594.945-.934-.155.753-.79.18Z" fill="#333"/><path d="m13.232 7.273-.123-.904-.248.476.371.428Z" fill="#B9B9B8"/><path d="m13.232 7.273-.185.237-.186-.665.371.428Z" fill="#EEE"/><path d="m12.178 7.388.868.122-.185-.665-.683.543Z" fill="#DDDDDE"/><path d="m12.178 7.388-.418-.97 1.101.427-.683.543Z" fill="#E3E4E4"/><path d="m12.178 7.388-.418-.97-.418.805.836.165Z" fill="#C0C0C1"/><path d="m12.514 5.874.053-.322.462-.254-.211.594-.304-.018Z" fill="#4B4A4A"/><path d="m13.786 5.818-.23-.862-.12.342.35.52Z" fill="#757475"/><path d="m13.786 5.818-.387.103.037-.623.35.52Z" fill="#3F3F3F"/><path d="m13.786 5.818-.387.103.27.845.117-.948Z" fill="#353535"/><path d="m13.786 5.818.111.762-.227.186.116-.948Z" fill="#232224"/><path d="m13.786 7.388.111-.808-.227.186.116.622Z" fill="#1C1C1C"/><path d="m13.787 7.388-.252.122-.078-.684.213-.06.117.622Z" fill="#0F0F10"/><path d="M13.265 7.51h.27l-.079-.684-.275.071.084.613Z" fill="#2D2C2C"/><path d="m13.786 7.388.111-.808.201.517-.312.29Z" fill="#060608"/><path d="m14.097 6.514-.2.066.2.517v-.583Z" fill="#222122"/><path d="m13.786 5.818.111.762.078-.896-.189.134Z" fill="#302F30"/><path d="m14.097 6.514-.2.066.078-.896h.094l.028.83Z" fill="#141013"/><path d="M13.456 6.826 13.4 5.92l.27.845-.213.06Z" fill="#1E1E1F"/><path d="m13.557 4.956-.214-.896.382.896h-.168Z" fill="#D9DADA"/><path d="m13.557 4.956.229.862.189-.134-.251-.728h-.167Z" fill="#494848"/><path d="m13.743 4.55.327 1.134h-.095l-.25-.728.018-.407Z" fill="#000203"/><path d="m12.95 3.401-.436-.165.828.824-.105-.412-.287-.247Z" fill="#F9FBFC"/><path d="m13.848 8.456.049-.564.2-.795v-.583l-.028-.83-.327-1.135" stroke="gray" stroke-width=".006" stroke-miterlimit="10"/><path d="m13.743 4.55-.018.406-.382-.896-.106-.412.506.901Z" fill="#C3C4C6"/><path d="M13.19 4.448h-1.053l.21-.51.842.51Z" fill="#D2D3D2"/><path d="M12.611 4.448h-.474l.892.85-.418-.85Z" fill="#909091"/><path d="m12.566 5.552-.43-1.104.893.85-.463.254Z" fill="#7F7F80"/><path d="m12.566 5.552-.43-1.104-.873 1.523 1.303-.419Z" fill="#D7D7D8"/><path d="m12.566 5.552-.052.322-1.251.097 1.303-.419Z" fill="#CFCFD0"/><path d="M12.611 4.448h.579l-.16.85-.419-.85Z" fill="#CBCBCB"/><path d="m11.71 2.804.804.432-1.116-.906.312.474Z" fill="#EAEAEB"/><path d="m11.93 2.583.584.653-1.116-.906.533.253Z" fill="#fff"/><path d="m11.93 2.583.584.653-.117-.432-.466-.221Z" fill="#FEFFFF"/><path d="m12.95 3.401-.436-.165-.117-.432.553.597Z" fill="#DEDEDF"/><path d="m11.175 4.06.961.388.211-.51-1.172.122Z" fill="#F9FAFA"/><path d="m11.176 4.06.961.388-.982.508.02-.896Z" fill="#E4E5E5"/><path d="m11.263 5.971.874-1.523-.982.508.108 1.015Z" fill="#E3E3E3"/><path d="m8.24 2.426-.93.82.866-.456.063-.364Z" fill="#565556"/><path d="m7.204 3.04.107.206.928-.82s-.746.394-1.035.614Z" fill="#363636"/><path d="M6.714 3.54s.32-.382.49-.5l.107.206-.597.294ZM6.282 4.26l-.394 1.014.359-.31.035-.705Z" fill="#232223"/><path d="m6.18 5.47-.292-.196.359-.31-.067.505Z" fill="#1A1A1B"/><path d="m6.18 5.47-.292-.196-.053.382.346-.187Z" fill="#282728"/><path d="m6.18 5.47-.265.73-.08-.544.346-.187Z" fill="#29292A"/><path d="m6.18 5.47-.266.73.235-.075.031-.656Z" fill="#1A1819"/><path d="m5.99 6.66-.076-.46.235-.075-.16.535Z" fill="#646364"/><path d="m5.99 6.66.425.026-.266-.56-.16.534Z" fill="#2C2C2D"/><path d="m5.99 6.66.425.026-.35.375-.076-.4Z" fill="#020202"/><path d="M5.835 5.656s-.096.773-.014 1.405l.094-.86-.08-.545Z" fill="#A4A4A5"/><path d="m5.821 7.06.144 1.026.025-1.426-.169.4Z" fill="#A4A4A5"/><path d="m6.25 8.04-.286.046.025-1.426.262 1.38Z" fill="#B0B0B1"/><path d="m6.251 8.04.108.351.257-.323-.365-.028Z" fill="#090608"/><path d="m6.251 8.04.209-.54.156.568-.365-.028Z" fill="#1A1A1A"/><path d="m6.25 8.04.21-.54-.395-.44.186.98Z" fill="#1E1E1F"/><path d="M6.612 7.146 6.46 7.5l-.395-.438.547.085Z" fill="#0F0F10"/><path d="m6.612 7.146-.197-.46-.35.375.547.085Z" fill="#000002"/><path d="m6.25 8.04-.286.046.025.82.262-.866Z" fill="#A7A7A7"/><path d="m6.25 8.04.109.351-.37.514.262-.865Z" fill="#515051"/><path d="M6.359 9.26v-.869l-.37.514.37.356Z" fill="#585758"/><path d="m6.359 9.26-.252.787-.118-1.142.37.356Z" fill="#5D5C5C"/><path d="m5.93 9.217.178.83-.118-1.142-.06.312Z" fill="#747474"/><path d="M5.93 9.217 5.796 8.6l.193.305-.06.312Z" fill="#383737"/><path d="m6.206 9.74-.099.307.252.173-.153-.48Z" fill="#292829"/><path d="m6.206 9.74.404.262-.25.218-.154-.48Z" fill="#020002"/><path d="m6.747 10.87-.137-.868-.25.218.387.65Z" fill="#1B1B1C"/><path d="m6.206 9.74.404.262-.25-.741-.154.48Z" fill="#262626"/><path d="m6.174 10.392-.067-.345.252.173-.185.172Z" fill="#CACACA"/><path d="m6.175 10.392.687 1.345-.503-1.517-.184.172Z" fill="#B3B3B4"/><path d="m6.36 10.886-.467-.246-.084.267c.088.11.442 0 .442 0" fill="#242425"/><path d="M6.251 10.907s-.354.11-.442 0c0 0 .091.253.494.184l-.052-.184Z" fill="#828282"/><path d="m6.175 10.392.687 1.345-.538-.11-.15-1.235Z" fill="#BFBFC0"/><path d="m6.557 12.575.304-.838-.538-.11.234.948Z" fill="#B7B7B7"/><path d="m6.558 12.575.304-.838.04.73-.344.108Z" fill="#2E2E2E"/><path d="m7.283 11.965-.422-.228.04.73.382-.502Z" fill="#0D0B0D"/><path d="m7.283 11.965-.421-.228-.115-.867.536 1.095Z" fill="#141013"/><path d="m6.36 10.22.502 1.517-.115-.867-.388-.65Z" fill="#000202"/><path d="m7.283 11.965-.02-1.14-.516.045.536 1.095Z" fill="#1B1A1D"/><path d="m7.283 11.965-.02-1.14.448 1.194-.428-.054Z" fill="#171719"/><path d="m7.88 11.026-.617-.201.448 1.194.169-.993Z" fill="#19191A"/><path d="m7.283 11.965.081 1.316-.462-.813.381-.503Z" fill="#131012"/><path d="m7.283 11.965.08 1.316.153-.24.195-1.023-.428-.053Z" fill="#202021"/><path d="m7.88 13.012-.364.028.195-1.021.169.993Z" fill="#020203"/><path d="m7.88 13.012-.364.028.489.442-.125-.47ZM7.805 13.701l-.29-.66.49.441-.2.22Z" fill="#020203"/><path d="m7.806 13.701.292.249-.093-.468-.2.22Z" fill="#030303"/><path d="m8.403 13.829-.306.12-.092-.467.398.347Z" fill="#020202"/><path d="m8.404 13.829-.306.12.359.519-.053-.64Z" fill="#141315"/><path d="m8.403 13.829.284.221-.23.418-.054-.64Z" fill="#020002"/><path d="m7.806 13.701-.29-.66-.152.24.442.42Z" fill="#1A1A1A"/><path d="m7.88 13.012.217-.994H7.71l.169.994Z" fill="#020203"/><path d="m7.88 13.012.217-.994v.674l-.217.32Z" fill="#020002"/><path d="M8.098 12.692v-.674l.188.203-.188.471Z" fill="#020203"/><path d="m8.098 12.692.554-.117-.366-.354-.188.471Z" fill="#1A1A1B"/><path d="m6.558 12.575.284.562.06-.67-.344.108Z" fill="#D9D9DA"/><path d="m7.364 13.28-.523-.143.06-.67.463.814Z" fill="#5F5E5E"/><path d="m8.029 14.24-.223-.539.292.249-.069.29Z" fill="#333231"/><path d="m8.028 14.24.428.228-.36-.518-.068.29Z" fill="#313132"/><path d="m8.028 14.24.428.228-.032.206-.396-.435Z" fill="#454546"/><path d="m8.829 14.85-.372-.382-.032.206.404.175Z" fill="#4C4C4D"/><path d="m8.829 14.85-.372-.382.41.028-.038.353Z" fill="#575656"/><path d="m8.828 14.85.36-.07-.321-.284-.039.353Z" fill="#302F30"/><path d="m8.828 14.85.36-.07-.058.314-.302-.245Z" fill="#807F80"/><path d="m9.118 15.218-.088.117-.615-.486.01-.175.693.544Z" fill="#A5A5A6"/><path d="m8.828 14.85-.024.171.314.197.012-.124-.302-.245Z" fill="#DEDFE0"/><path d="m8.828 14.85-.024.171-.389-.172.01-.175.403.175Z" fill="#9C9C9D"/><path d="m9.642 15.034-.454-.255.454-.105v.36Z" fill="#171617"/><path d="m9.643 15.034-.455-.255-.057.315.512-.06Z" fill="#7D7D7D"/><path d="M9.643 15.034v.208l-.512-.148.512-.06Z" fill="#919192"/><path d="m9.643 15.034.367-.148v.292l-.367-.144Z" fill="#6D6D6E"/><path d="M9.643 15.034v.208l.367-.064-.367-.144Z" fill="#BABABB"/><path d="m10.01 15.39-.367-.148.367-.064v.213Z" fill="#A4A4A4"/><path d="m10.01 15.39-.367-.148-.512-.148.88.357v-.06Z" fill="#ABABAB"/><path d="m10.01 15.576-.892-.358.012-.124.88.357v.125Z" fill="#B8B8B8"/><path d="m10.01 15.576-.891-.358-.089.117.98.387v-.146Z" fill="#9B9B9B"/><path d="m9.177 15.722.195-.252-.342-.135-.104.135.25.252Z" fill="#4B4A4A"/><path d="m9.177 15.722.195-.252.638.252v.177l-.307.038-.526-.215Z" fill="#737373"/><path d="m5.821 7.06.094-.86.075.46-.169.4Z" fill="#C5C6C7"/><path d="M10.027 13.845v.24l-.424-.074.212-.166h.213Z" fill="#3F3E3E"/><path d="m9.603 14.011-.017.374.442-.3-.425-.074Z" fill="#565656"/><path d="m10.028 14.426-.442-.041.442-.3v.341Z" fill="#676666"/><path d="m10.027 14.426.68-.08-.68-.26v.34Z" fill="#CCC"/><path d="m10.027 13.845.68.501-.68-.26v-.24Z" fill="#E6E6E6"/><path d="m10.027 13.845.68.501.2-.645-.88.144Z" fill="#F2F2F2"/><path d="m11.117 14.368-.41-.022.201-.645.209.667Z" fill="#E6E6E6"/><path d="m10.393 14.727-.366-.3.34-.04.025.34Z" fill="#1E1F1F"/><path d="m10.393 14.727.314-.38-.34.04.026.34Z" fill="#2A2929"/><path d="m10.393 14.727.313-.38.167.48-.48-.1Z" fill="#030305"/><path d="m11.117 14.368-.41-.022.166.48.244-.458Z" fill="#1D1D1D"/><path d="m11.116 14.368.243-.418-.45-.249.207.667Z" fill="#C1C1C1"/><path d="m11.304 13.552.055.398-.45-.249.395-.15Z" fill="#DCDDDD"/><path d="m11.305 13.552.055.398.216-.223-.271-.175Z" fill="#fff"/><path d="m11.822 14.18-.463-.23.217-.223.246.453Z" fill="#616161"/><path d="m11.822 14.18.327-.307-.574-.146.247.453Z" fill="#3D3C3C"/><path d="m11.98 13.393.17.48-.575-.146.405-.334Z" fill="#282828"/><path d="m11.822 14.18-.361.482-.02-.385.381-.097Z" fill="#272727"/><path d="m11.822 14.18-.463-.23.081.327.382-.097Z" fill="#636262"/><path d="m11.116 14.368.243-.418.081.327-.324.091Z" fill="#505050"/><path d="m11.116 14.368.344.294-.02-.385-.324.091Z" fill="#1B1A1B"/><path d="m10.31 8.259-.083.58-.277-.207v-.264l.36-.11Z" fill="#BEBEBF"/><path d="m10.31 8.259-.083.58.216.039.027-.287-.16-.332Z" fill="#666"/><path d="m10.33 9.291-.103-.453.216.04.071.387-.184.026Z" fill="#D2D2D3"/><path d="m10.31 8.259.204-.191-.504-.474-.06.774.36-.11Z" fill="#020002"/><path d="m10.514 8.068-.504-.474.79-.181-.286.655Z" fill="#020002"/><path d="m7.858 9.476.507.437.132-.625-.639.188Z" fill="#363637"/><path d="m7.859 9.476.506.437-.143.339-.456.022.093-.798Z" fill="#0D0D0E"/><path d="m8.854 9.85-.49.063.49-.495v.431Z" fill="#131314"/><path d="m8.854 9.85-.489.063-.143.339.632-.403Z" fill="#333"/><path d="m8.854 9.418-.49.495.133-.625.283-.187.074.317Z" fill="#232223"/><path d="m8.291 9.065.49.036-.284.187-.206-.223Z" fill="#040002"/><path d="M8.403 13.28v.549l.365-.312-.365-.236Z" fill="#1D1C1E"/><path d="M8.403 13.28v.211l-.398-.009.398-.201Z" fill="#9D9D9D"/><path d="m8.403 13.28-.236-.22-.162.422.398-.201Z" fill="#0A0A0B"/><path d="m8.403 13.28-.236-.22.413-.069-.177.29Z" fill="#020002"/><path d="M8.403 13.829v-.338l-.398-.009.398.347Z" fill="#131314"/><path d="m7.364 13.28.442.421h-.38l-.062-.42Z" fill="#8C8C8D"/><path d="m8.029 14.24-.224-.539h-.38l.604.538Z" fill="#B0B0B0"/><path d="m10.01 15.899-.307.038.307.45v-.488Z" fill="#1D1C1D"/><path d="m9.148 16.1.555-.163.307.45-.862-.287Z" fill="#2C2C2D"/><path d="M9.996 16.77v.292l-.656-.08.656-.211Z" fill="#131313"/><path d="m9.996 16.77-.624-.322-.032.534.656-.211Z" fill="#0D0D0E"/><path d="m9.996 16.77-.625-.322.639-.061-.014.384Z" fill="#131313"/><path d="m9.148 16.1.223.348.639-.061-.862-.287Z" fill="#1C1C1D"/><path d="m9.149 16.1.223.348-.764-.455.054-.116.487.223Z" fill="#343435"/><path d="m8.946 16.483.426-.035-.764-.455.338.49Z" fill="#131313"/><path d="m9.148 16.1.555-.163-.527-.215-.028.378Z" fill="#363636"/><path d="m9.148 16.1-.32-.414.348.036-.028.378Z" fill="#1A1A1A"/><path d="m9.149 16.1-.32-.414-.167.19.487.224Z" fill="#2E2E2E"/><path d="m8.925 15.47-.097.216.348.036-.25-.252Z" fill="#323232"/><path d="m6.266 15.765.361.034.102-.778-.463.744Z" fill="#2E2E2F"/><path d="m6.903 15.529-.275.27.102-.778.173.508Z" fill="#29292A"/><path d="m6.902 15.529-.06-.964-.113.456.173.508Z" fill="#41403F"/><path d="m6.902 15.529-.061-.964.261.022-.2.942Z" fill="#585757"/><path d="m13.287 15.778-.21-.154-.09-1.426.3 1.58Z" fill="#333"/><path d="m13.287 15.778.161-.387-.462-1.193.3 1.58Z" fill="#2E2D2E"/><path d="m13.287 15.778.162-.387.206.364-.368.023Z" fill="#323233"/><path d="M5.809 10.907s-.107-.157-.116-.313c-.009-.156-.017-.158-.032-.202a3.691 3.691 0 0 1-.04-.14l.052-.019s.075.326.124.355c.05.029.096.052.096.052l-.084.267Z" fill="#6C6C6C"/><path d="m5.344 8.546-.118-.068c-.002.075.029.321.06.547l.084-.04c-.018-.227-.026-.44-.026-.44Z" fill="#8B8B8B"/><path d="M5.423 9.418a3.793 3.793 0 0 1-.053-.432l-.084.04c.024.168.048.325.06.392.03.158.275.834.275.834l.051-.019s-.193-.55-.25-.815h.001Z" fill="#6C6C6C"/><path d="M5.226 8.478s.046-.357.125-.3c.079.056.287.24.446.422l.029.136-.482-.185-.118-.073Z" fill="#878686"/><path d="M6.359 9.293a.032.032 0 1 0 0-.064.032.032 0 0 0 0 .064ZM14.323 8.358l.27-.174s-.226-.23-.455.014l.185.16Z" fill="#fff"/><path d="m14.138 8.198-.29.258.008.22.467-.318s.015-.287-.185-.16Z" fill="#949495"/><path d="m13.871 9.88-.023.387.301-.097-.086-.665-.192.376Z" fill="#F7F8F8"/><path d="m14.323 9.627-.174.543-.086-.665.26.122Z" fill="#909091"/><path d="m14.323 9.627.097-.446-.357.324.26.122Z" fill="#1D1C1E"/><path d="m14.323 9.627.097-.446.188.042-.099.49-.186-.086Z" fill="#B3B3B3"/><path d="m14.323 9.627-.174.543.098.084.263-.54-.187-.087Z" fill="#EBEBEB"/><path d="m14.104 10.758.046-.588.098.084-.144.504Z" fill="#CFCFD0"/><path d="m14.103 10.758.046-.588-.301.097.255.491Z" fill="#5D5C5C"/><path d="m14.104 10.758-.124.18-.165-.262.033-.409.256.491Z" fill="#6E6E6E"/><path d="m13.871 11.01.109-.072-.165-.262-.06.334h.116Z" fill="#303030"/><path d="m6.612 7.146.449.353M6.612 7.146l.542-.397" stroke="#333" stroke-width=".012" stroke-miterlimit="10"/><path d="m6.648 6.66.61-.474" stroke="#999" stroke-width=".012" stroke-miterlimit="10"/><path d="m6.648 6.66-.036.486" stroke="gray" stroke-width=".012" stroke-miterlimit="10"/><path d="m6.25 8.04-.185-.98" stroke="#333" stroke-width=".012" stroke-miterlimit="10"/><path d="m6.46 7.5-.395-.44M6.415 6.686l-.35.375" stroke="#4D4D4D" stroke-width=".012" stroke-miterlimit="10"/><path d="m6.065 7.06.547.086" stroke="#666" stroke-width=".012" stroke-miterlimit="10"/><path d="m6.415 6.686.197.46" stroke="gray" stroke-width=".012" stroke-miterlimit="10"/><path d="M6.415 6.686 6.51 6.2" stroke="#4D4D4D" stroke-width=".012" stroke-miterlimit="10"/><path d="m6.648 6.66-.137-.46M6.87 5.971l-.36.23" stroke="gray" stroke-width=".012" stroke-miterlimit="10"/><path d="m6.68 5.575-.17.626" stroke="#4D4D4D" stroke-width=".012" stroke-miterlimit="10"/><path d="m6.68 5.575-.53.55M6.479 5.306l-.33.82M6.48 5.306l-.3.163M6.479 5.306l.36-.282M6.479 5.306l.15-.647" stroke="gray" stroke-width=".012" stroke-miterlimit="10"/><path d="m6.247 4.964.383-.305" stroke="#4D4D4D" stroke-width=".012" stroke-miterlimit="10"/><path d="m7.045 4.5-.415.16M7.045 4.5l.334-.473M7.045 4.5l-.208-.497M6.598 4.06l.239-.057M6.598 4.06l.116-.52" stroke="gray" stroke-width=".012" stroke-miterlimit="10"/><path d="m6.282 4.26.432-.72" stroke="#4D4D4D" stroke-width=".012" stroke-miterlimit="10"/><path d="m7.744 5.916-.486.27" stroke="gray" stroke-width=".012" stroke-miterlimit="10"/><path d="m7.29 5.387-.032.799" stroke="#4D4D4D" stroke-width=".012" stroke-miterlimit="10"/><path d="m7.743 5.916-.59.833" stroke="gray" stroke-width=".012" stroke-miterlimit="10"/><path d="M7.743 5.916 7.49 7.114" stroke="#B3B3B3" stroke-width=".012" stroke-miterlimit="10"/><path d="m7.466 7.517.023-.403M7.874 7.56l-.385-.446" stroke="gray" stroke-width=".012" stroke-miterlimit="10"/><path d="m7.466 7.517.408.043" stroke="#333" stroke-width=".012" stroke-miterlimit="10"/><path d="m8.177 7.217-.302.343M8.176 7.217l.045.614M7.743 5.916l.478.49M7.743 5.916l.017-1.371" stroke="gray" stroke-width=".012" stroke-miterlimit="10"/><path d="m8.078 4.911.143 1.495M8.078 4.911l.64 1.06M9.924 4.355 8.718 5.97" stroke="#4D4D4D" stroke-width=".012" stroke-miterlimit="10"/><path d="m8.332 4.74.386 1.231" stroke="#666" stroke-width=".012" stroke-miterlimit="10"/><path d="m8.078 4.911-.317-.366" stroke="gray" stroke-width=".012" stroke-miterlimit="10"/><path d="m7.06 7.5.093-.75M7.765 10.274l-.502.55M7.711 12.018l-.448-1.193" stroke="#333" stroke-width=".012" stroke-miterlimit="10"/><path d="m7.711 12.018-.428-.053" stroke="#4D4D4D" stroke-width=".012" stroke-miterlimit="10"/><path d="M7.71 12.018h.387M8.286 12.22l-.188-.202M7.88 13.012l.217-.994M7.71 12.018l.17.994M7.88 11.026l.217.992M7.88 11.026l.576.912M8.364 11.043l.092.896M8.364 11.043l.521.79M7.283 11.965l.08 1.316M7.283 11.965l-.38.503M7.283 11.965l-.536-1.095M7.283 11.965l-.02-1.14M7.087 10.12l.176.705M7.087 10.12l.678.154M8.222 10.252l-.456.022M8.222 10.252l.632-.403" stroke="#333" stroke-width=".012" stroke-miterlimit="10"/><path d="m8.222 10.252.143.79" stroke="#4D4D4D" stroke-width=".012" stroke-miterlimit="10"/><path d="m8.918 10.453.066.689" stroke="gray" stroke-width=".012" stroke-miterlimit="10"/><path d="m9.436 9.4.096-.421" stroke="#4D4D4D" stroke-width=".012" stroke-miterlimit="10"/><path d="m9.436 9.4-.069.45M9.231 10.22l.137-.37M9.231 10.22l.378.158" stroke="gray" stroke-width=".012" stroke-miterlimit="10"/><path d="m10.02 10.572-.412.253" stroke="#1A1A1A" stroke-width=".012" stroke-miterlimit="10"/><path d="m9.95 9.05-.277-.212M9.95 9.05l-.304.314M9.993 9.527l-.347-.163M9.18 9.217l-.326.201M9.18 9.217l-.005.632" stroke="#333" stroke-width=".012" stroke-miterlimit="10"/><path d="M9.367 9.85h-.192M9.367 9.85h.258" stroke="#4D4D4D" stroke-width=".012" stroke-miterlimit="10"/><path d="m9.994 9.527-.369.322M10.01 10.047l-.385-.198M10.01 10.047l-.402.32" stroke="#333" stroke-width=".012" stroke-miterlimit="10"/><path d="m10.02 10.572.45.175" stroke="#999" stroke-width=".012" stroke-miterlimit="10"/><path d="m10.733 10.56-.262.186" stroke="#333" stroke-width=".012" stroke-miterlimit="10"/><path d="m10.845 10.123-.402.187" stroke="#4D4D4D" stroke-width=".012" stroke-miterlimit="10"/><path d="m10.733 10.56-.29-.25" stroke="#333" stroke-width=".012" stroke-miterlimit="10"/><path d="m10.02 10.572.423-.262" stroke="#CCC" stroke-width=".012" stroke-miterlimit="10"/><path d="m9.993 9.527.415.287" stroke="#999" stroke-width=".012" stroke-miterlimit="10"/><path d="m10.663 9.638-.255.176M10.662 9.638l-.333-.347" stroke="#666" stroke-width=".012" stroke-miterlimit="10"/><path d="m10.33 9.291.078.523M10.33 9.291l-.337.236M10.33 9.291l-.38-.241M10.33 9.291l-.103-.453M10.33 9.291l.184-.026M10.227 8.838l-.277.212M10.443 10.31l-.035-.496" stroke="#999" stroke-width=".012" stroke-miterlimit="10"/><path d="m10.845 10.123-.437-.309" stroke="#666" stroke-width=".012" stroke-miterlimit="10"/><path d="m10.01 10.047.398-.233M10.01 10.047l.433.263" stroke="#999" stroke-width=".012" stroke-miterlimit="10"/><path d="m10.02 10.572-.412-.205" stroke="#333" stroke-width=".012" stroke-miterlimit="10"/><path d="m9.263 10.726.345-.348" stroke="gray" stroke-width=".012" stroke-miterlimit="10"/><path d="m9.263 10.726-.037.329" stroke="#666" stroke-width=".012" stroke-miterlimit="10"/><path d="m9.263 10.726-.28.416" stroke="#4D4D4D" stroke-width=".012" stroke-miterlimit="10"/><path d="m9.263 10.726-.032-.506M7.858 9.476l.507.437M8.497 9.288l-.133.625M8.854 9.418l-.49.495M8.222 10.252l.632-.403M8.222 10.252l.143-.339M8.854 9.85l-.49.063M8.854 9.85l.327-.633M8.854 9.85h.32M8.918 10.453l.257-.604M8.918 10.453l.313-.233" stroke="gray" stroke-width=".012" stroke-miterlimit="10"/><path d="m8.917 10.453-.553.59M8.917 10.453l-.063-.604M6.61 10.002l.137.868M7.087 10.12l-.477-.118M7.087 10.12l-.407-.955M7.087 10.12l.228-.786M6.791 7.93l-.175.138M6.791 7.93 6.46 7.5M6.791 7.93l.27-.43M6.791 7.93l.361-.027M6.36 8.391l.257-.323M6.791 7.93l.137.257" stroke="#333" stroke-width=".012" stroke-miterlimit="10"/><path d="m8.176 7.217.516.472M9.057 7.398l-.364.291M9.057 7.398l.363.67M10.01 7.594l-.59.474" stroke="gray" stroke-width=".012" stroke-miterlimit="10"/><path d="m10.01 7.594-1.215-.821" stroke="#666" stroke-width=".012" stroke-miterlimit="10"/><path d="m10.01 7.594.945-.934" stroke="#999" stroke-width=".012" stroke-miterlimit="10"/><path d="m10.01 7.594-.06-1.72" stroke="gray" stroke-width=".012" stroke-miterlimit="10"/><path d="m9.95 5.874-1.155.899M8.718 5.971l.076.802" stroke="#999" stroke-width=".012" stroke-miterlimit="10"/><path d="m8.222 6.406.573.367M8.221 6.406l-.045.811M8.222 6.406l.496-.435M10.01 7.593l-.06.775" stroke="gray" stroke-width=".012" stroke-miterlimit="10"/><path d="m10.01 7.594.504.474M10.31 8.259l.204-.191M10.8 7.413l-.285.655" stroke="#333" stroke-width=".012" stroke-miterlimit="10"/><path d="m11.047 7.79-.532.278M11.015 8.122l-.5-.054" stroke="gray" stroke-width=".012" stroke-miterlimit="10"/><path d="m11.726 7.929.886-.082" stroke="#4D4D4D" stroke-width=".012" stroke-miterlimit="10"/><path d="m11.015 8.122.71-.193M11.263 8.324l.462-.395M11.263 8.324l-.248-.202" stroke="gray" stroke-width=".012" stroke-miterlimit="10"/><path d="m11.263 8.324-.308.187" stroke="#666" stroke-width=".012" stroke-miterlimit="10"/><path d="m10.878 8.528.137-.406" stroke="#4D4D4D" stroke-width=".012" stroke-miterlimit="10"/><path d="m10.606 8.325.409-.203" stroke="#666" stroke-width=".012" stroke-miterlimit="10"/><path d="m11.047 7.79.679.139M12.178 7.388l-.452.54" stroke="gray" stroke-width=".012" stroke-miterlimit="10"/><path d="m12.178 7.388.434.46M13.047 7.51l-.435.337" stroke="#333" stroke-width=".012" stroke-miterlimit="10"/><path d="m11.047 7.79-.246-.377" stroke="gray" stroke-width=".012" stroke-miterlimit="10"/><path d="m10.956 6.66-.155.753M10.955 6.66l.308-.689M11.341 7.223l-.078-1.252" stroke="#333" stroke-width=".012" stroke-miterlimit="10"/><path d="m9.925 4.355 1.338 1.616" stroke="#666" stroke-width=".012" stroke-miterlimit="10"/><path d="m9.925 4.355 1.23.6M11.155 4.956l.108 1.015M11.155 4.956l.02-.896M12.136 4.448l-.961-.388" stroke="#333" stroke-width=".012" stroke-miterlimit="10"/><path d="m12.137 4.448-.874 1.523" stroke="#666" stroke-width=".012" stroke-miterlimit="10"/><path d="m12.566 5.552-1.303.42M12.514 5.874l-1.251.097M12.514 5.874l-.754.543M12.514 5.874l.347.971M13.11 6.369l-.249.476M13.108 6.369l.348.457M13.108 6.369l.123.904M13.108 6.369l.296-.448" stroke="#333" stroke-width=".012" stroke-miterlimit="10"/><path d="m13.786 5.818-.382.103M13.435 5.298l.35.52M13.67 6.766l.116-.948M13.67 6.766l-.266-.845" stroke="#1A1A1A" stroke-width=".012" stroke-miterlimit="10"/><path d="m12.514 5.874.89.047M11.76 6.417l1.101.428M12.178 7.388l.683-.543M13.047 7.51l-.186-.665M13.232 7.273l-.37-.428M12.137 4.448l-.982.508M12.347 3.938l-1.172.122M11.125 3.158l.05.902M11.126 3.158 9.88 3.04M11.175 4.06 9.881 3.04M11.126 3.158l-.11-.629M9.88 3.04l1.136-.51M9.925 2.195l1.091.334M9.935 2l1.081.53M11.191 2.232l-.174.297M11.398 2.33l-.381.2M11.71 2.804l-.693-.275M11.71 2.804l.804.432" stroke="#333" stroke-width=".012" stroke-miterlimit="10"/><path d="m11.398 2.33 1.116.906" stroke="#4D4D4D" stroke-width=".012" stroke-miterlimit="10"/><path d="m12.396 2.804.118.432M12.95 3.401l-.436-.165" stroke="#666" stroke-width=".012" stroke-miterlimit="10"/><path d="m11.398 2.33.312.474M11.125 3.158l.584-.354M9.88 3.04l-1.065-.503M8.616 3.158l.2-.62M8.176 2.79l-.797 1.237M8.176 2.79l-.865.456M8.577 3.915l-1.198.112" stroke="#333" stroke-width=".012" stroke-miterlimit="10"/><path d="m8.616 3.158-1.237.87" stroke="#4D4D4D" stroke-width=".012" stroke-miterlimit="10"/><path d="m8.176 2.79.64-.253" stroke="#333" stroke-width=".012" stroke-miterlimit="10"/><path d="m8.176 2.79.44.368M9.88 3.04l-1.264.118" stroke="#4D4D4D" stroke-width=".012" stroke-miterlimit="10"/><path d="m9.88 3.04-1.303.875" stroke="#666" stroke-width=".012" stroke-miterlimit="10"/><path d="m9.88 3.04.045 1.315" stroke="gray" stroke-width=".012" stroke-miterlimit="10"/><path d="m8.577 3.915 1.348.44" stroke="#B3B3B3" stroke-width=".012" stroke-miterlimit="10"/><path d="m8.24 2.426.575.111" stroke="#4D4D4D" stroke-width=".012" stroke-miterlimit="10"/><path d="m8.657 2.268.159.27M9.934 2l-1.119.537M9.924 2.195l-1.109.342M9.925 2.195l-.044.845M12.348 3.938l-1.223-.78M12.348 3.938l.166-.702M13.19 4.448l-.676-1.212M13.19 4.448l-.842-.51M12.137 4.448l.21-.51M12.137 4.448h1.052" stroke="#333" stroke-width=".012" stroke-miterlimit="10"/><path d="m12.611 4.448.418.85" stroke="#4D4D4D" stroke-width=".012" stroke-miterlimit="10"/><path d="m12.137 4.448.892.85" stroke="#1A1A1A" stroke-width=".012" stroke-miterlimit="10"/><path d="m12.566 5.552.463-.254M12.818 5.892l.212-.594M12.818 5.892l.291.477" stroke="#333" stroke-width=".012" stroke-miterlimit="10"/><path d="m13.4 5.921-.37-.623M13.03 5.298h.406M13.4 5.921l.036-.623" stroke="#1A1A1A" stroke-width=".012" stroke-miterlimit="10"/><path d="m13.19 4.448.246.85M13.19 4.448l.367.508" stroke="#666" stroke-width=".012" stroke-miterlimit="10"/><path d="m13.19 4.448-.16.85M13.19 4.448l.152-.388" stroke="#333" stroke-width=".012" stroke-miterlimit="10"/><path d="m12.514 3.236.828.824M13.557 4.956l-.214-.896M13.725 4.956l-.382-.896M13.237 3.648l.106.412" stroke="#4D4D4D" stroke-width=".012" stroke-miterlimit="10"/><path d="m9.925 4.355 1.25-.295M11.76 6.417l-.497-.446M9.95 5.874l1.313.097M11.76 6.417l-.418.806M11.76 6.417l.418.97" stroke="#333" stroke-width=".012" stroke-miterlimit="10"/><path d="m11.047 7.79.294-.567M11.726 7.929l-.384-.706" stroke="gray" stroke-width=".012" stroke-miterlimit="10"/><path d="M12.395 8.761c-.224.037-.439.03-.61.011l-.025.067s.202.012.475-.004l.16-.074Z" fill="#4A4948"/><path d="M12.514 8.838s-.119.229-.204.229" stroke="#4D4D4D" stroke-width=".007" stroke-miterlimit="10"/><path d="m8.835 12.12-.184.455M8.836 12.12l-.55.1M8.098 12.692l.188-.471M8.098 12.692l.07.369" stroke="#333" stroke-width=".012" stroke-miterlimit="10"/><path d="m8.58 12.991-.413.07" stroke="#4D4D4D" stroke-width=".012" stroke-miterlimit="10"/><path d="m8.58 12.991-.482-.299" stroke="#B3B3B3" stroke-width=".012" stroke-miterlimit="10"/><path d="m8.005 13.482.162-.421M7.88 13.012l.287.049" stroke="#4D4D4D" stroke-width=".012" stroke-miterlimit="10"/><path d="m7.88 13.012.125.47M8.403 13.829l-.398-.347" stroke="#333" stroke-width=".012" stroke-miterlimit="10"/><path d="m8.403 13.829.284.221M8.457 14.468l.23-.418M8.867 14.496l-.18-.446" stroke="#666" stroke-width=".012" stroke-miterlimit="10"/><path d="m8.867 14.496.08-.485" stroke="#333" stroke-width=".012" stroke-miterlimit="10"/><path d="m9.187 14.468-.24-.457" stroke="#4D4D4D" stroke-width=".012" stroke-miterlimit="10"/><path d="m9.188 14.468-.32.028M9.188 14.468v.311M9.642 14.674l-.454.105M9.642 14.674l-.454-.206M9.208 13.972l-.02.496" stroke="#666" stroke-width=".012" stroke-miterlimit="10"/><path d="m9.586 14.385-.399.083" stroke="#333" stroke-width=".012" stroke-miterlimit="10"/><path d="m9.208 13.972.378.413" stroke="#666" stroke-width=".012" stroke-miterlimit="10"/><path d="m10.028 14.086-.442.299" stroke="gray" stroke-width=".012" stroke-miterlimit="10"/><path d="m9.642 14.674-.056-.29M9.643 14.674l.385-.248M9.643 14.674l.367.212M10.027 14.426l-.017.46M10.393 14.727l-.383.159M10.393 14.727l-.366-.3M10.393 14.727l-.026-.34M10.393 14.727l.313-.38M10.393 14.727l.48.1M10.419 15.127l.454-.3M10.941 15.074l-.068-.248M11.179 14.727l-.306.1M11.179 14.727l-.063-.359M11.179 14.727l.281-.065M11.475 14.777l-.015-.115M11.476 14.777l-.283.123M11.476 14.777l.396-.39M12.218 14.012l-.346.374M11.822 14.18l.05.206M11.179 14.727l.014.173M10.873 14.826l.32.074M10.418 15.127l-.025-.4M10.419 15.127l-.41.051" stroke="#666" stroke-width=".012" stroke-miterlimit="10"/><path d="m10.707 14.346.166.48M11.116 14.368l-.243.458" stroke="#333" stroke-width=".012" stroke-miterlimit="10"/><path d="m8.868 14.496-.411-.028" stroke="#666" stroke-width=".012" stroke-miterlimit="10"/><path d="m8.457 14.468-.054-.64M8.404 13.829l-.306.12M8.005 13.482l.092.468" stroke="#333" stroke-width=".012" stroke-miterlimit="10"/><path d="m7.711 12.018-.195 1.022M7.88 13.012l-.364.028" stroke="#4D4D4D" stroke-width=".012" stroke-miterlimit="10"/><path d="m8.835 12.12.224.455M9.226 12.08l-.166.495" stroke="#333" stroke-width=".012" stroke-miterlimit="10"/><path d="M9.924 4.386a.032.032 0 1 0 0-.063.032.032 0 0 0 0 .063Z" fill="#fff"/><path d="M9.88 3.054a.013.013 0 1 0 0-.027.013.013 0 0 0 0 .027Z" fill="#333"/><path d="M6.066 7.093a.032.032 0 1 0 0-.064.032.032 0 0 0 0 .064ZM6.46 7.531a.032.032 0 1 0 0-.064.032.032 0 0 0 0 .064ZM6.612 7.168a.022.022 0 1 0 0-.044.022.022 0 0 0 0 .044ZM7.154 6.781a.032.032 0 1 0 0-.063.032.032 0 0 0 0 .063ZM7.257 6.218a.032.032 0 1 0 0-.064.032.032 0 0 0 0 .064ZM6.87 6.003a.032.032 0 1 0 0-.063.032.032 0 0 0 0 .063ZM11.046 7.82a.032.032 0 1 0 0-.063.032.032 0 0 0 0 .064ZM10.514 8.09a.022.022 0 1 0 0-.044.022.022 0 0 0 0 .044ZM10.01 7.625a.032.032 0 1 0 0-.063.032.032 0 0 0 0 .063ZM9.056 7.42a.022.022 0 1 0 0-.044.022.022 0 0 0 0 .044ZM8.693 7.72a.032.032 0 1 0 0-.063.032.032 0 0 0 0 .064ZM8.176 7.25a.032.032 0 1 0 0-.065.032.032 0 0 0 0 .064ZM8.221 6.438a.032.032 0 1 0 0-.064.032.032 0 0 0 0 .064ZM7.744 5.948a.032.032 0 1 0 0-.064.032.032 0 0 0 0 .064ZM7.29 5.419a.032.032 0 1 0 0-.064.032.032 0 0 0 0 .064ZM6.48 5.338a.032.032 0 1 0 0-.064.032.032 0 0 0 0 .064ZM6.68 5.597a.022.022 0 1 0 0-.044.022.022 0 0 0 0 .044ZM6.838 5.056a.032.032 0 1 0 0-.063.032.032 0 0 0 0 .063ZM6.63 4.691a.032.032 0 1 0 0-.064.032.032 0 0 0 0 .064ZM7.046 4.533a.032.032 0 1 0 0-.064.032.032 0 0 0 0 .064ZM6.247 4.996a.032.032 0 1 0 0-.064.032.032 0 0 0 0 .064ZM6.18 5.491a.022.022 0 1 0 0-.044.022.022 0 0 0 0 .044ZM6.15 6.148a.022.022 0 1 0 0-.045.022.022 0 0 0 0 .045ZM6.51 6.233a.032.032 0 1 0 0-.064.032.032 0 0 0 0 .064ZM6.648 6.683a.022.022 0 1 0 0-.045.022.022 0 0 0 0 .045ZM7.49 7.146a.032.032 0 1 0 0-.064.032.032 0 0 0 0 .064ZM6.598 4.092a.032.032 0 1 0 0-.064.032.032 0 0 0 0 .064ZM7.38 4.05a.022.022 0 1 0 0-.045.022.022 0 0 0 0 .044ZM7.76 4.567a.022.022 0 1 0 0-.044.022.022 0 0 0 0 .044ZM8.577 3.937a.022.022 0 1 0 0-.044.022.022 0 0 0 0 .044ZM8.177 4.318a.022.022 0 1 0 0-.044.022.022 0 0 0 0 .044ZM8.616 4.509a.022.022 0 1 0 0-.045.022.022 0 0 0 0 .045ZM8.947 14.034a.022.022 0 1 0 0-.045.022.022 0 0 0 0 .044ZM9.208 13.994a.022.022 0 1 0 0-.044.022.022 0 0 0 0 .044ZM8.687 14.082a.032.032 0 1 0 0-.063.032.032 0 0 0 0 .063ZM8.403 13.85a.022.022 0 1 0 0-.044.022.022 0 0 0 0 .045ZM8.457 14.5a.032.032 0 1 0 0-.064.032.032 0 0 0 0 .064ZM12.771 15.543a.022.022 0 1 0 0-.045.022.022 0 0 0 0 .045ZM14.754 16.616a.022.022 0 1 0 0-.045.022.022 0 0 0 0 .045ZM13.709 17.282c.012 0 .022-.01.022-.022a.022.022 0 0 0-.044 0c0 .012.01.022.022.022ZM8.005 13.504a.022.022 0 1 0 0-.044.022.022 0 0 0 0 .044ZM8.58 13.014a.022.022 0 1 0 0-.045.022.022 0 0 0 0 .045Z" fill="#fff"/><path d="m10.027 12.937.389-.313" stroke="#B3B3B3" stroke-width=".012" stroke-miterlimit="10"/><path d="m10.741 12.87-.325-.246" stroke="#CCC" stroke-width=".012" stroke-miterlimit="10"/><path d="m10.74 12.87-.713.067M10.445 13.324l-.398.403M10.622 13.633l-.575.094M10.621 13.633l.334-.139M10.444 13.324l.177.309M10.795 13.272l-.174.361M10.795 13.272l.16.222M11.076 13.24l-.12.254M11.075 13.24l.203.084M11.364 13.165l-.086.16M11.588 13.304l-.31.02M10.955 13.494l.324-.17M10.741 12.87l.029-.322M10.741 12.87l.36-.335M11.169 12.87l-.068-.335M11.169 12.87l.265-.322M11.169 12.87l.486.112M11.434 12.548l.221.434M11.981 12.659l-.326.323M12.162 13.004l-.507-.022M12.161 13.004l-.18-.345M12.161 13.004l.108-.503M12.161 13.004l.524-.288M12.286 13.272l.4-.556" stroke="#666" stroke-width=".012" stroke-miterlimit="10"/><path d="m13.517 12.254-.412-.025M12.685 12.716l.14-.487M12.622 13.45l.895-1.196" stroke="#333" stroke-width=".012" stroke-miterlimit="10"/><path d="m12.622 13.45.064-.734M13.105 12.229l-.42.487M13.105 12.229l.22-.708M12.825 12.229l.5-.708M12.685 11.552l.64-.031M12.825 12.229l-.14-.677M12.412 12.008l.273-.456M12.23 11.228l.455.324" stroke="#666" stroke-width=".012" stroke-miterlimit="10"/><path d="m10.91 10.59.62.28" stroke="#1A1A1A" stroke-width=".012" stroke-miterlimit="10"/><path d="m11.075 11.026.455-.156" stroke="#333" stroke-width=".012" stroke-miterlimit="10"/><path d="m11.335 10.367-.288-.394M11.73 10.274l-.683-.3" stroke="#CCC" stroke-width=".012" stroke-miterlimit="10"/><path d="m11.335 10.367.195.503" stroke="#1A1A1A" stroke-width=".012" stroke-miterlimit="10"/><path d="m10.91 10.59.424-.223M11.731 10.274l-.396.093" stroke="#999" stroke-width=".012" stroke-miterlimit="10"/><path d="m11.731 10.274-.2.596" stroke="#333" stroke-width=".012" stroke-miterlimit="10"/><path d="m11.956 10.676-.426.194M11.434 11.369l.096-.5M12.23 11.228l-.7-.358" stroke="#1A1A1A" stroke-width=".012" stroke-miterlimit="10"/><path d="m11.335 11.884.099-.515M11.036 11.808l.397-.44M11.036 11.808l-.318-.097M11.036 11.808l.299.076" stroke="#999" stroke-width=".012" stroke-miterlimit="10"/><path d="m11.036 11.808.04.311" stroke="gray" stroke-width=".012" stroke-miterlimit="10"/><path d="m10.77 12.548.306-.429M11.1 12.535l-.025-.416" stroke="#999" stroke-width=".012" stroke-miterlimit="10"/><path d="M10.741 12.12h.335M11.36 12.16l-.285-.04M11.36 12.16l.527.116" stroke="#B3B3B3" stroke-width=".012" stroke-miterlimit="10"/><path d="m11.819 11.938-.484-.054" stroke="#999" stroke-width=".012" stroke-miterlimit="10"/><path d="m11.36 12.16-.025-.276" stroke="gray" stroke-width=".012" stroke-miterlimit="10"/><path d="m11.818 11.938.412-.71" stroke="#1A1A1A" stroke-width=".012" stroke-miterlimit="10"/><path d="m10.684 11.57.034.141M10.861 11.53l.572-.161M12.23 11.228l-.796.14" stroke="#999" stroke-width=".012" stroke-miterlimit="10"/><path d="m12.23 11.228.548-.502M12.685 11.552l.093-.826M13.265 10.84l-.487-.114M12.685 11.552l.58-.713M13.655 10.825l-.39.014M13.485 10.356l-.22.483M13.485 10.356l.17.469M13.739 10.324l-.084.5M13.738 10.324l-.013-.771M13.029 10.194l-.12-.742M13.03 10.194l-.527-.82M13.03 10.194l.235.645M13.655 10.825l-.33.696M13.756 11.01l-.1-.185M13.756 11.01l-.24 1.244" stroke="#666" stroke-width=".012" stroke-miterlimit="10"/><path d="m12.685 12.716.321.22" stroke="#1A1A1A" stroke-width=".012" stroke-miterlimit="10"/><path d="m13.04 13.186-.034-.25" stroke="#333" stroke-width=".012" stroke-miterlimit="10"/><path d="m13.041 13.186.475-.932M13.041 13.186l-.823.826M12.896 13.332l.09.866M12.832 14.863l.155-.665M12.832 14.863l.245.76M12.832 14.863l-.06.657M13.077 15.624l-.306-.104M12.803 16.1l-.032-.58M13.077 15.624l-.274.476M13.287 15.778l-.484.322M12.891 17.013l-.088-.913M12.892 17.013l.817.247" stroke="#666" stroke-width=".012" stroke-miterlimit="10"/><path d="m12.892 17.013.185.57" stroke="#4D4D4D" stroke-width=".012" stroke-miterlimit="10"/><path d="m13.655 15.755.405.513M13.493 16.164l.566.104" stroke="#666" stroke-width=".012" stroke-miterlimit="10"/><path d="m13.493 16.164-.312.479" stroke="#333" stroke-width=".012" stroke-miterlimit="10"/><path d="m14.754 16.594-.694-.326M12.53 15.11l.241.41M12.184 15.602l.587-.082M12.184 15.602l-.632.584M11.594 15.842l-.042.344M11.594 15.842l.59-.503M12.184 15.602l-.036.53M12.803 16.1l-.655.032M12.803 16.1l-.623.479" stroke="#666" stroke-width=".012" stroke-miterlimit="10"/><path d="m11.583 16.715.596-.136" stroke="#B3B3B3" stroke-width=".012" stroke-miterlimit="10"/><path d="m12.115 17.022.064-.443M12.115 17.022l.688-.922" stroke="#666" stroke-width=".012" stroke-miterlimit="10"/><path d="m12.115 17.022-.532-.307" stroke="#E6E6E6" stroke-width=".012" stroke-miterlimit="10"/><path d="m12.116 17.022.081.562" stroke="#4D4D4D" stroke-width=".012" stroke-miterlimit="10"/><path d="m12.115 17.022-1.169.958" stroke="#333" stroke-width=".012" stroke-miterlimit="10"/><path d="m10.572 17.013-.576-.242M10.572 17.013l-.032-.543M10.969 16.483l-.429-.013M10.969 16.483l-.397.53M11.583 16.715l-1.01.298" stroke="#666" stroke-width=".012" stroke-miterlimit="10"/><path d="m11.583 16.715-.614-.232" stroke="#999" stroke-width=".012" stroke-miterlimit="10"/><path d="m11.584 16.715-.032-.53M10.969 16.483l.582-.297M10.01 16.387l.53.083M10.01 16.387l.47-.394M10.907 15.498l-.428.495" stroke="#666" stroke-width=".012" stroke-miterlimit="10"/><path d="m10.907 15.498.062.985" stroke="#333" stroke-width=".012" stroke-miterlimit="10"/><path d="m10.48 15.993.489.49M9.996 16.77l.544-.3" stroke="#666" stroke-width=".012" stroke-miterlimit="10"/><path d="m10.572 17.013-.576.049" stroke="#4D4D4D" stroke-width=".012" stroke-miterlimit="10"/><path d="m10.572 17.013-.213.723" stroke="#333" stroke-width=".012" stroke-miterlimit="10"/><path d="m10.572 17.013.375.967M12.148 16.132l.031.447M12.147 16.132l-.564.583M11.552 16.186l.596-.054M12.529 15.11l-.345.492M12.529 15.11l-.345.23M12.529 15.11l-.052-.353M12.732 14.146l-.255.611M12.731 14.146l.255.052M12.731 14.146l.164-.814M12.356 14.172l.54-.84M12.356 14.172l-.311.41M11.63 15.053l.415-.472M11.63 15.053l-.723.445M11.551 16.186l-.644-.688M12.832 14.863l-.303.247M12.15 13.873l.068.139M12.622 13.45l-.473.423M12.161 13.004l.124.268M12.162 13.004l-.573.3M11.981 13.393l-.392-.089M11.575 13.727l.013-.423M11.305 13.552l.284-.248M11.98 13.393l.306-.12M12.15 13.873l.136-.6M11.655 12.982l-.066.322M11.364 13.004l.225.3M10.741 12.87h.428" stroke="#666" stroke-width=".012" stroke-miterlimit="10"/><path d="M11.655 13.004a.022.022 0 1 0 0-.045.022.022 0 0 0 0 .045ZM13.325 11.543a.022.022 0 1 0 0-.045.022.022 0 0 0 0 .045ZM11.433 11.39a.022.022 0 1 0 0-.044.022.022 0 0 0 0 .045ZM11.981 13.415a.022.022 0 1 0 0-.044.022.022 0 0 0 0 .044ZM12.27 12.533a.032.032 0 1 0-.001-.064.032.032 0 0 0 0 .064ZM12.162 13.036a.032.032 0 1 0 0-.064.032.032 0 0 0 0 .064ZM11.588 13.336a.032.032 0 1 0 0-.064.032.032 0 0 0 0 .064ZM12.685 12.747a.032.032 0 1 0 0-.063.032.032 0 0 0 0 .063ZM12.286 13.295a.022.022 0 1 0 0-.045.022.022 0 1 0 0 .045ZM12.622 13.482a.032.032 0 1 0 0-.064.032.032 0 0 0 0 .064ZM12.685 11.584a.032.032 0 1 0 0-.064.032.032 0 0 0 0 .064ZM12.413 12.04a.032.032 0 1 0 0-.064.032.032 0 0 0 0 .063ZM12.23 11.26a.032.032 0 1 0 0-.064.032.032 0 0 0 0 .064ZM11.533 10.903a.032.032 0 1 0 0-.064.032.032 0 0 0 0 .064ZM11.731 10.306a.032.032 0 1 0 0-.064.032.032 0 0 0 0 .064ZM13.265 10.871a.032.032 0 1 0 0-.064.032.032 0 0 0 0 .064Z" fill="#fff"/><path d="m7.102 16.074-.081.94M7.103 16.074l.694.962M7.72 16.59l.077.446" stroke="#666" stroke-width=".012" stroke-miterlimit="10"/><path d="m7.766 17.59.031-.554" stroke="#4D4D4D" stroke-width=".012" stroke-miterlimit="10"/><path d="m8.99 18-1.193-.964" stroke="#333" stroke-width=".012" stroke-miterlimit="10"/><path d="m8.99 18 .35-1.018M9.637 17.822l-.297-.84" stroke="#666" stroke-width=".012" stroke-miterlimit="10"/><path d="m9.996 17.062-.656-.08M8.33 16.704l1.01.277" stroke="#999" stroke-width=".012" stroke-miterlimit="10"/><path d="m8.329 16.704-.532.332" stroke="#E6E6E6" stroke-width=".012" stroke-miterlimit="10"/><path d="m7.72 16.59.609.114" stroke="#666" stroke-width=".012" stroke-miterlimit="10"/><path d="m7.72 16.59.609.114" stroke="#999" stroke-width=".012" stroke-miterlimit="10"/><path d="m7.72 16.59.045-.447M7.72 16.59l-.617-.516M7.103 16.074l-.2-.545M7.41 15.124l.81.563M8.115 15.326l.106.36M8.115 15.326l.179-.273M8.115 15.326l-.126-.108M7.821 15.41l.169-.192M7.905 14.848l.085.37M7.905 14.848l.123-.158M7.905 14.848l-.826-1.31M7.727 14.976l-.648-1.437M7.82 15.41l-.122.141M7.41 15.124l.289.427M7.41 15.124l-.207.405M7.103 14.587l.064.207M7.231 14.011l.052.371M7.232 14.011l-.236-.73M8.293 15.053l-1.297-1.772M7.231 14.011l.266.7M7.41 15.124l.088-.414M7.41 15.124l-.243-.33M7.203 15.529l-.036-.735M7.203 15.529h-.3M7.203 15.529l-.1.545" stroke="#666" stroke-width=".012" stroke-miterlimit="10"/><path d="m5.847 16.26-.409.198" stroke="#4D4D4D" stroke-width=".012" stroke-miterlimit="10"/><path d="m5.847 16.26.554-.085M6.266 15.765l.134.41M6.627 15.799l-.227.376M7.203 15.529l.496.022M7.765 16.143l-.562-.614M7.765 16.143l-.067-.592" stroke="#666" stroke-width=".012" stroke-miterlimit="10"/><path d="m8.393 16.175-.064.53" stroke="#999" stroke-width=".012" stroke-miterlimit="10"/><path d="m8.393 16.175.552.308" stroke="#666" stroke-width=".012" stroke-miterlimit="10"/><path d="m8.33 16.704.615-.22M9.996 16.77l-.625-.322M9.34 16.982l.656-.211M9.34 16.982l.032-.534" stroke="#999" stroke-width=".012" stroke-miterlimit="10"/><path d="m9.34 16.982-.395-.499M9.371 16.448l-.426.035M8.393 16.175l-.627-.032M8.393 16.175l-.695-.624M8.22 15.687l-.522-.136M8.22 15.687l.388.306" stroke="#666" stroke-width=".012" stroke-miterlimit="10"/><path d="m7.766 16.143.564.561" stroke="#999" stroke-width=".012" stroke-miterlimit="10"/><path d="M8.329 16.736a.032.032 0 1 0 0-.063.032.032 0 0 0 0 .063ZM7.765 16.175a.032.032 0 1 0 0-.064.032.032 0 0 0 0 .064ZM11.584 16.747a.032.032 0 1 0 0-.064.032.032 0 0 0 0 .064ZM12.147 16.164a.032.032 0 1 0 0-.064.032.032 0 0 0 0 .064ZM12.803 16.132a.032.032 0 1 0 0-.064.032.032 0 0 0 0 .064ZM12.891 17.045a.032.032 0 1 0 0-.064.032.032 0 0 0 0 .064ZM13.493 16.186a.022.022 0 1 0 0-.044.022.022 0 0 0 0 .044ZM14.06 16.3a.032.032 0 1 0 0-.063.032.032 0 0 0 0 .063ZM12.116 17.044a.022.022 0 0 0 0-.044.022.022 0 0 0 0 .044ZM10.572 17.045a.032.032 0 1 0 0-.063.032.032 0 0 0 0 .063ZM9.996 16.793a.022.022 0 0 0 0-.045.022.022 0 0 0 0 .045ZM10.54 16.492a.022.022 0 1 0 0-.044.022.022 0 1 0 0 .044ZM10.01 16.41a.022.022 0 1 0 0-.045.022.022 0 0 0 0 .044ZM10.969 16.506a.022.022 0 1 0 0-.045.022.022 0 0 0 0 .045ZM11.552 16.208a.022.022 0 1 0 0-.044.022.022 0 0 0 0 .044ZM8.22 15.709a.022.022 0 1 0 0-.045.022.022 0 0 0 0 .045ZM7.699 15.573a.022.022 0 1 0 0-.044.022.022 0 0 0 0 .044ZM8.393 16.197a.022.022 0 1 0 0-.044.022.022 0 0 0 0 .044ZM8.946 16.515a.032.032 0 1 0 0-.064.032.032 0 0 0 0 .064ZM7.797 17.067a.032.032 0 1 0 0-.063.032.032 0 0 0 0 .063ZM7.021 17.036a.022.022 0 1 0 0-.045.022.022 0 0 0 0 .045ZM7.103 16.106a.032.032 0 1 0 0-.064.032.032 0 0 0 0 .064ZM7.203 15.55a.022.022 0 1 0 0-.043.022.022 0 0 0 0 .044ZM6.4 16.197a.022.022 0 1 0 0-.044.022.022 0 0 0 0 .044ZM5.846 16.282a.022.022 0 1 0 0-.044.022.022 0 0 0 0 .044Z" fill="#fff"/><path d="m7.645 14.165-.362.217M7.283 14.382l-.116.412M7.497 14.71l.295-.342M8.488 15.48l-.279-.298M8.488 15.48l-.195-.427" stroke="#666" stroke-width=".012" stroke-miterlimit="10"/><path d="m8.293 15.053.333.189M8.488 15.48l.34.207M8.488 15.48l.12.513" stroke="#4D4D4D" stroke-width=".012" stroke-miterlimit="10"/><path d="m8.488 15.48.138-.238M8.829 15.687l-.202-.445M8.926 15.47l-.299-.228M8.363 14.959l.264.283M8.363 14.959l-.958-1.208" stroke="#666" stroke-width=".012" stroke-miterlimit="10"/><path d="M7.765 10.306a.032.032 0 1 0 0-.064.032.032 0 0 0 0 .064ZM7.263 10.857a.032.032 0 1 0 0-.064.032.032 0 0 0 0 .064Z" fill="#fff"/><path d="m7.087 10.12-.34.75" stroke="#333" stroke-width=".012" stroke-miterlimit="10"/><path d="M7.88 11.058a.032.032 0 1 0 0-.064.032.032 0 0 0 0 .064ZM8.365 11.075a.032.032 0 1 0 0-.064.032.032 0 0 0 0 .064ZM8.221 10.284a.032.032 0 1 0 0-.064.032.032 0 0 0 0 .063ZM8.918 10.485a.032.032 0 1 0 0-.064.032.032 0 0 0 0 .064ZM8.854 9.881a.032.032 0 1 0 0-.064.032.032 0 0 0 0 .064ZM8.365 9.945a.032.032 0 1 0 0-.064.032.032 0 0 0 0 .064ZM9.231 10.252a.032.032 0 1 0 0-.064.032.032 0 0 0 0 .064ZM9.609 10.4a.032.032 0 1 0 0-.065.032.032 0 0 0 0 .064ZM13.404 5.953a.032.032 0 1 0 0-.064.032.032 0 0 0 0 .064ZM12.514 5.896a.022.022 0 1 0 0-.044.022.022 0 0 0 0 .044ZM13.232 7.305a.032.032 0 1 0 0-.064.032.032 0 0 0 0 .064ZM13.109 6.4a.032.032 0 1 0 0-.063.032.032 0 0 0 0 .063Z" fill="#fff"/><path d="m11.341 8.444-.078-.12" stroke="gray" stroke-width=".012" stroke-miterlimit="10"/><path d="M11.581 8.384s.431-.116.831.034" stroke="gray" stroke-width=".007" stroke-miterlimit="10"/><path d="m11.55 9.05.3.017M11.55 9.05l.38.215" stroke="#4D4D4D" stroke-width=".012" stroke-miterlimit="10"/><path d="m12.31 9.746-.38-.48" stroke="gray" stroke-width=".012" stroke-miterlimit="10"/><path d="m11.55 9.05-.202.339" stroke="#666" stroke-width=".012" stroke-miterlimit="10"/><path d="M11.85 9.067h.46M11.335 8.751l.215.299" stroke="#4D4D4D" stroke-width=".012" stroke-miterlimit="10"/><path d="M11.93 9.297a.032.032 0 1 0 0-.063.032.032 0 0 0 0 .063Z" fill="#fff"/><path d="m11.76 8.838.09.229M12.095 8.844l-.245.223M12.095 8.844l.215.223" stroke="#4D4D4D" stroke-width=".012" stroke-miterlimit="10"/><path d="m13.786 7.388.22.073M13.786 7.388l-.116-.622M13.786 7.388l-.252.122M13.457 6.826l.078.684M13.457 6.826l.213-.06M13.576 7.96l.32-.068M13.213 8.63l.363-.67" stroke="gray" stroke-width=".012" stroke-miterlimit="10"/><path d="m13.213 8.63-.105-.408M12.959 8.79l-.165-.199" stroke="#4D4D4D" stroke-width=".012" stroke-miterlimit="10"/><path d="M13.576 7.96v.717M13.376 8.33l.2.347M13.377 8.33l-.111-.82" stroke="gray" stroke-width=".012" stroke-miterlimit="10"/><path d="m13.102 7.859.163-.35" stroke="#4D4D4D" stroke-width=".012" stroke-miterlimit="10"/><path d="m13.376 8.33.158-.82M13.786 7.388l-.21.572" stroke="gray" stroke-width=".012" stroke-miterlimit="10"/><path d="m7.727 14.976.178-.128M7.905 14.848l.304.334M7.727 14.976l.263.242M7.727 14.976l-.23-.266M7.283 14.382l.215.328M7.283 14.382l-.27-.9" stroke="#666" stroke-width=".012" stroke-miterlimit="10"/><path d="m6.996 13.28-.155 1.285.261.022-.106-1.306Z" fill="#8F8F90"/><path d="M12.31 9.777a.032.032 0 1 0 0-.063.032.032 0 0 0 0 .063ZM13.029 10.226a.032.032 0 1 0 0-.064.032.032 0 0 0 0 .064ZM12.779 10.758a.032.032 0 1 0 0-.064.032.032 0 0 0 0 .064ZM13.485 10.387a.032.032 0 1 0 0-.064.032.032 0 0 0 0 .064ZM13.67 6.798a.032.032 0 1 0 0-.064.032.032 0 0 0 0 .064ZM9.95 5.906a.032.032 0 1 0 0-.064.032.032 0 0 0 0 .064ZM8.854 9.44a.022.022 0 1 0 0-.044.022.022 0 0 0 0 .045ZM8.886 11.855a.022.022 0 1 0 0-.044.022.022 0 0 0 0 .044ZM7.514 13.062a.022.022 0 1 0 0-.044.022.022 0 0 0 0 .044ZM8.169 13.086a.022.022 0 1 0 0-.044.022.022 0 0 0 0 .044ZM8.497 9.31a.022.022 0 1 0 0-.044.022.022 0 0 0 0 .045ZM7.858 9.498a.022.022 0 1 0 0-.044.022.022 0 0 0 0 .044ZM8.836 12.151a.032.032 0 1 0 0-.064.032.032 0 0 0 0 .064ZM9.225 12.112a.032.032 0 1 0 0-.063.032.032 0 0 0 0 .063ZM8.097 12.05a.032.032 0 1 0 0-.063.032.032 0 0 0 0 .063ZM8.457 11.97a.032.032 0 1 0 0-.063.032.032 0 0 0 0 .063ZM7.712 12.05a.032.032 0 1 0 0-.063.032.032 0 0 0 0 .063ZM7.283 11.996a.032.032 0 1 0 0-.063.032.032 0 0 0 0 .063ZM6.747 10.902a.032.032 0 1 0 0-.064.032.032 0 0 0 0 .064ZM7.087 10.152a.032.032 0 1 0 0-.064.032.032 0 0 0 0 .064ZM6.61 10.034a.032.032 0 1 0 0-.063.032.032 0 0 0 0 .063ZM6.68 9.196a.032.032 0 1 0 0-.063.032.032 0 0 0 0 .063ZM7.315 9.365a.032.032 0 1 0 0-.064.032.032 0 0 0 0 .064ZM9.368 9.881a.032.032 0 1 0 0-.064.032.032 0 0 0 0 .064Z" fill="#fff"/><path d="m10.82 8.97.528.419" stroke="#999" stroke-width=".012" stroke-miterlimit="10"/><path d="m10.82 8.97.144.637" stroke="#1A1A1A" stroke-width=".012" stroke-miterlimit="10"/><path d="m11.22 9.83.127-.441M11.22 9.83l.66-.043" stroke="#F2F2F2" stroke-width=".012" stroke-miterlimit="10"/><path d="M11.877 9.816a.032.032 0 1 0 0-.064.032.032 0 0 0 0 .064ZM9.625 9.881a.032.032 0 1 0 0-.064.032.032 0 0 0 0 .064ZM9.64 9.39a.032.032 0 1 0 0-.065.032.032 0 0 0 0 .064Z" fill="#fff"/><path d="M7.57 8.568s.251.193.725.185" stroke="gray" stroke-width=".009" stroke-miterlimit="10"/><path d="M5.48 8.979s.272-.327.45.238" stroke="#4D4D4D" stroke-width=".009" stroke-miterlimit="10"/><path d="m10.91 10.59.166.436-.343-.467.111-.205.066.235Z" fill="#E9E9EA"/><path d="m10.733 10.56.343.466" stroke="#999" stroke-width=".012" stroke-miterlimit="10"/><path d="m10.908 15.498-.49-.371M11.494 14.886l1.402-1.554M11.494 14.886l-.553.188M10.419 15.127l.522-.053" stroke="#4D4D4D" stroke-width=".012" stroke-miterlimit="10"/><path d="m11.476 14.777.018.109.137.167-.038.789" stroke="#4D4D4D" stroke-width=".009" stroke-miterlimit="10"/><path d="m11.494 14.886-.587.612M12.478 14.757l-1.205 1.126" stroke="#4D4D4D" stroke-width=".012" stroke-miterlimit="10"/><path d="m11.92 15.034.79-1.161.185-.54" stroke="#4D4D4D" stroke-width=".009" stroke-miterlimit="10"/><path d="m11.82 14.838.1.196.264.305M11.872 14.386l.367.594" stroke="#4D4D4D" stroke-width=".012" stroke-miterlimit="10"/><path d="m11.92 15.034-.804.68" stroke="#666" stroke-width=".012" stroke-miterlimit="10"/><path d="m10.01 15.45.897.048" stroke="#4D4D4D" stroke-width=".012" stroke-miterlimit="10"/><path d="m10.01 15.722.897-.224M11.273 15.883l-.793.11" stroke="#333" stroke-width=".012" stroke-miterlimit="10"/><path d="m11.116 15.715-.636.278M10.01 15.899l.47.094" stroke="#4D4D4D" stroke-width=".012" stroke-miterlimit="10"/><path d="M10.48 16.015a.022.022 0 1 0 0-.045.022.022 0 0 0 0 .045ZM7.167 14.816a.022.022 0 1 0 0-.044.022.022 0 0 0 0 .044Z" fill="#fff"/><path d="m7.364 13.28-.523-.143.584.564-.061-.42Z" fill="#A7A7A7"/><path d="m8.028 14.24-1.187-1.103 1.574 1.712.01-.175-.397-.435Z" fill="#C7C7C8"/><path d="M6.617 8.1a.032.032 0 1 0 0-.064.032.032 0 0 0 0 .064ZM6.359 8.423a.032.032 0 1 0 0-.063.032.032 0 0 0 0 .063ZM6.792 7.961a.032.032 0 1 0 0-.064.032.032 0 0 0 0 .064ZM7.152 7.935a.032.032 0 1 0 0-.064.032.032 0 0 0 0 .064ZM6.928 8.219a.032.032 0 1 0 0-.064.032.032 0 0 0 0 .064ZM7.061 7.531a.032.032 0 1 0 0-.064.032.032 0 0 0 0 .064ZM8.795 6.805a.032.032 0 1 0 0-.064.032.032 0 0 0 0 .064ZM8.717 6.003a.032.032 0 1 0 0-.063.032.032 0 0 0 0 .063ZM9.34 17.013a.032.032 0 1 0 0-.063.032.032 0 0 0 0 .063ZM9.372 16.47a.022.022 0 1 0 0-.045.022.022 0 0 0 0 .045ZM9.148 16.122a.022.022 0 1 0 0-.044.022.022 0 0 0 0 .044Z" fill="#fff"/><path d="m10.01 15.178.662.142.822-.434M12.53 15.11l.457-.912" stroke="#333" stroke-width=".012" stroke-miterlimit="10"/><path d="m12.477 14.757.233-.884M12.24 14.98l.29.13M12.102 14.767l.376-.01M12.987 14.198l-.51.56" stroke="#4D4D4D" stroke-width=".012" stroke-miterlimit="10"/><path d="M7.311 3.268a.022.022 0 1 0 0-.045.022.022 0 0 0 0 .045Z" fill="#fff"/><path d="m13.245 8.949.48.604" stroke="#333" stroke-width=".012" stroke-miterlimit="10"/><path d="m12.91 9.452-.267-.407" stroke="#4D4D4D" stroke-width=".012" stroke-miterlimit="10"/><path d="m12.91 9.452.472.241M13.245 8.949l.138.744" stroke="#333" stroke-width=".012" stroke-miterlimit="10"/><path d="m12.502 9.374-.164-.235M12.503 9.374l.407.078M13.245 8.949l-.336.503" stroke="#4D4D4D" stroke-width=".012" stroke-miterlimit="10"/></g><defs><clipPath id="a"><path fill="#fff" d="M0 0h20v20H0z"/></clipPath></defs></svg>