<svg xmlns="http://www.w3.org/2000/svg" width="20" height="20" fill="none"><path d="M20 10c0-5.523-4.477-10-10-10S0 4.477 0 10s4.477 10 10 10 10-4.477 10-10Z" fill="url(#a)"/><path d="M16.8 6.878c-.042.245-.09.364-.148.501a2.888 2.888 0 0 0-.196.654 4.948 4.948 0 0 0-.05.32v.01a1.73 1.73 0 0 1-.086.399 2.016 2.016 0 0 1-.308.608c-.149.198-.398.529-.731.568a.299.299 0 0 1-.114-.007c-.944-.482-1.756-.839-2.037-.919-.327-.092-.285-.805-.248-1.433.017-.281.032-.547.02-.774-.047-.793-.187-1.662-.878-2.085-.413-.253-.945-.327-1.453-.328.094-.045.2-.106.314-.173l.003-.002c.3-.173.671-.388 1.04-.426.121-.012.24-.026.357-.039.744-.084 1.387-.157 2.066.076.307.105.938.457 1.1.784.115.23.309.41.695.77.2.186.333.295.43.374l.004.004c.137.112.163.135.204.218.125.255.08.525.016.9ZM13.345 10.133a.089.089 0 0 1 .043.133c-.098.152-.21.356-.344.603-.065.121-.126.235-.178.325-.183.314-.198.578-.21.79-.012.223-.023.325-.156.413-.11.074-.222.098-1 .216a.865.865 0 0 0-.248.07l-.026.012c-.054.022-.107-.024-.104-.083.005-.108.009-.242.01-.407v-.034a4.442 4.442 0 0 0-.009-.375c-.01-.199-.011-.283.042-.369.065-.104.115-.136.199-.19.116-.072.275-.173.511-.497.126-.172.154-.265.171-.346.008-.033.01-.046.107-.119.102-.077.413-.313.811-.246.106.018.239.056.38.104ZM10.27 13.725a.08.08 0 0 1-.065.034c-.082.003-.139-.017-.177-.062-.08-.098-.069-.294-.05-.409l.329-.087c.025.174.037.427-.037.524ZM10.297 12.539a1.317 1.317 0 0 0-.012.158l.002.063c0 .054.002.14-.005.178a.786.786 0 0 1-.306.035c-.001-.033 0-.083.002-.116l.002-.076V12.7c0-.063-.001-.167.015-.198.03-.004.062-.01.096-.019a.713.713 0 0 1 .213-.025c0 .022-.004.055-.007.08ZM9.688 13.624c-.016.169-.068.377-.226.409-.071.014-.106-.007-.127-.027-.107-.1-.124-.398-.11-.612.072.001.165-.015.276-.036a6.51 6.51 0 0 0 .187-.04c.006.078.01.191 0 .306ZM9.614 13.02l-.357.124a8.51 8.51 0 0 0 .05-.463c.007-.09.032-.119.039-.125.002-.002.007-.006.02-.006h.006l.008.001.225-.012c.01.106.01.339.009.48ZM9.037 12.908c-.02.054-.044.206-.059.313l-.447-.014c.025-.138.06-.279.099-.391.039-.112.08-.195.119-.219a.195.195 0 0 1 .204.019c.098.084.125.18.084.292ZM8.87 14.276c-.035.047-.073.071-.12.076-.05.006-.087-.005-.117-.033-.14-.13-.13-.554-.124-.758.185-.043.385-.079.48-.084.014.17.018.612-.119.799ZM8.287 13.195c-.022.059-.043.114-.059.162-.052.017-.21.002-.373-.034l.111-.703c.184-.048.396-.064.448-.01.067.072-.069.432-.127.585ZM8.085 14.383c-.087.107-.217.157-.398.155-.126-.002-.17-.05-.193-.085-.1-.16-.002-.535.096-.776l.606.037c.006.042.011.093.013.15.007.17-.014.383-.124.52Z" fill="#fff"/><path d="M13.087 9.28c-.545-.155-.498-.952-.453-1.722.016-.273.031-.53.019-.74-.042-.722-.163-1.507-.743-1.862-.623-.381-1.644-.295-2.273-.214h-.002c-.231.07-.447.115-.614.106-.371-.019-.66-.175-.915-.312-.198-.108-.372-.2-.535-.2h-.026c-.488.031-.712.15-.916.332-.051.046-.114.177-.318.766-.104.298-.123.461-.142.62-.017.144-.035.293-.112.515-.053.154-.093.286-.131.413-.101.339-.18.605-.42.922-.028.038-.063.093-.104.156-.054.086-.121.192-.21.315-.063.087-.206.412-.198.51.011.158.063.256.121.37.058.113.125.24.137.416l.002.028c.021.28-.019.42-.55.894-.339.303-.58.596-.742.81-.015.02.004.048.028.046a.39.39 0 0 1 .107.001.566.566 0 0 1 .343.162c.016.017.04.021.062.013a.565.565 0 0 1 .272-.022c.108.01.217.042.291.109.028.025.067.039.104.031a.428.428 0 0 1 .41.115c.04.04.108.049.158.02a.372.372 0 0 1 .064-.028.545.545 0 0 1 .355.023c.055.02.113.038.163.07a.467.467 0 0 1 .17.22c.028.067.12.09.179.048.07-.051.128-.058.187-.032a.164.164 0 0 1 .058.042c.042.049.11.097.172.082a.81.81 0 0 1 .54.069c.056.03.113.076.154.145l.005-.03a.037.037 0 0 1 .025-.03l.038-.012c.088-.028.539-.158.714.027.007.007.02.008.028 0a.246.246 0 0 1 .055-.048.397.397 0 0 1 .44.038c.026.022.069.014.089-.014a.23.23 0 0 1 .21-.1l.246-.013a3.556 3.556 0 0 0 .33-.032c.027-.004.057-.01.09-.017.12-.026.255-.056.367-.004.107.05.094.172.08.28-.004.044-.01.09-.01.133l.002.061c.002.093.004.18-.015.245l.012.052c.011.05.065.079.11.051a.84.84 0 0 0 .196-.155.422.422 0 0 0 .024-.087c.015-.092.032-.278.034-.658v-.04a4.4 4.4 0 0 0-.007-.354c-.01-.206-.019-.368.083-.532.1-.16.196-.221.289-.28.108-.067.23-.144.434-.425.1-.139.113-.194.123-.239.022-.104.057-.167.212-.285.126-.095.51-.386 1.029-.299.17.029.445.12.717.227l.03.01.013.007c.235.094.464.198.615.283.044.025.098.01.13-.028a.548.548 0 0 1 .152-.124c.022-.013.038-.023.054-.037.051-.043.051-.134-.009-.165a9.345 9.345 0 0 0-1.627-.644Zm-5.193.167c-.169.738-1.311 1.549-1.83 1.549h-.011a.256.256 0 0 1-.059-.01.88.88 0 0 1-.34-.204.463.463 0 0 1-.139-.231l-.01-.045a.765.765 0 0 1 .048-.538l.042-.096.012-.029a6.053 6.053 0 0 0 .083-.208c.031-.089.035-.122.04-.156.003-.027.007-.06.018-.107.033-.138.05-.256.064-.36.027-.188.05-.35.151-.499a.411.411 0 0 1 .08-.09l.024-.017a.49.49 0 0 1 .171-.077.916.916 0 0 1 .33-.01c.138.01.265.037.379.068a2.41 2.41 0 0 1 .312.111l.054.023.06.028.018.008a1.237 1.237 0 0 1 .286.182.704.704 0 0 1 .216.708Zm.53-2.796-.023.134c-.05.301-.169.714-.602.82-.418.103-.517.125-.814.138h-.02c-.218 0-.635-.136-.71-.476-.047-.22.05-.378.21-.64l.085-.143c.21-.354.293-.61.36-.816.064-.201.118-.367.257-.505a.77.77 0 0 1 .32-.191c.096-.031.2-.047.305-.047.203 0 .405.058.549.174.065.052.157.156.21.462.028.158-.019.449-.127 1.09Zm3.095.858c-.149.256-.23.397-.36.503-.256.21-.554.264-.8.264-.177 0-.327-.028-.415-.044-.255-.046-.728-.132-.885-.506a.402.402 0 0 1-.031-.18c0-.058 0-.157-.028-.392L9 7.138a1.137 1.137 0 0 1 .004-.381l.003-.019c.09-.453.114-.522.134-.561a.182.182 0 0 1 .326.159 5.337 5.337 0 0 0-.103.473l-.004.018a.784.784 0 0 0 0 .27l.002.015c.03.256.03.371.03.434v.03l.003.01a.332.332 0 0 0 .152.15c.06.034.124-.025.111-.093-.075-.393-.067-.844.082-1.125.05-.096.143-.252.23-.398l.001-.002h.001l.027-.045.021-.036a18.037 18.037 0 0 1 .124-.203l.017-.027.007-.011.003-.005a.256.256 0 0 1 .008-.012l.01-.017.002-.003v-.001l.065-.091c.047-.066-.008-.15-.082-.117a1.153 1.153 0 0 0-.231.138.181.181 0 0 1-.255-.03.182.182 0 0 1 .03-.255c.093-.073.588-.435 1.181-.265.427.122.651.448.736.57.068.1.276.403.27.826-.005.322-.14.554-.385.975Z" fill="#fff"/><path d="m7.667 5.299-.105.263c-.091.23-.195.49-.245.583-.085.163-.152.265-.205.348-.061.095-.11.17-.147.275a1.172 1.172 0 0 0-.034.61c-.113-.012-.3-.09-.32-.189-.016-.073.03-.153.164-.374l.088-.146c.23-.389.324-.678.393-.89.074-.23.109-.327.227-.407a.478.478 0 0 1 .184-.073ZM7.442 13.457a3.435 3.435 0 0 1-.38.612c-.081-.219-.222-.72-.185-1.122a.782.782 0 0 1 .11-.365c.04-.06.147-.097.27-.097.09 0 .187.02.272.065.046.024.107.073.114.215.009.192-.083.45-.201.692Z" fill="#fff"/><path d="M14.339 10.575c.01.008.016.02.01.031-.037.076-.082.129-.136.191-.064.077-.137.163-.206.299-.097.191-.128.366-.144.814-.02.526 0 .822.016 1.037.014.208.023.334-.014.537-.075.41-.25.68-.472 1.024-.277.429-.564.872-1.04 1.014-.044.013-.045.013-.169.014-.108 0-.287 0-.627.012-.621.023-.933.034-1.199.085-.28.055-.425.114-.567.171-.127.052-.248.1-.48.148-.137.028-.343.059-1.045.06-.73 0-1.17.001-1.751-.065-.798-.091-1.199-.137-1.465-.279-.627-.334-.892-.936-1.33-1.933a.282.282 0 0 0-.003-.006c-.005-.012.01-.024.022-.017a.351.351 0 0 0 .27.04l.003-.001a.014.014 0 0 1 .02.007.322.322 0 0 0 .147.185c.074.039.159.042.242.04.085 0 .171-.005.256-.016.045-.004.091.018.109.06.077.189.174.325.319.345a.215.215 0 0 0 .03.003c.03 0 .07-.007.127-.04.07-.042.176-.016.229.045a.696.696 0 0 0 .095.089c.15.153.513.226.817.226.167 0 .316-.021.403-.064.126-.061.126-.155.12-.192a6.153 6.153 0 0 1-.029-.202c-.001-.008.011-.011.014-.004.019.04.04.09.1.1l.022.001c.085 0 .217.028.24.11.012.041.028.08.05.116.051.08.155.177.36.18H7.7c.236 0 .418-.077.541-.23a.607.607 0 0 0 .023-.03c.045-.062.176-.065.232-.013a.334.334 0 0 0 .275.086.371.371 0 0 0 .266-.163.726.726 0 0 0 .101-.222c.007-.024.04-.032.06-.014a.32.32 0 0 0 .221.085.405.405 0 0 0 .083-.008c.205-.042.307-.211.355-.403.002-.007.011-.008.016-.003a.387.387 0 0 0 .315.136h.026a.282.282 0 0 0 .216-.113.6.6 0 0 0 .097-.325.121.121 0 0 1 .073-.103c.173-.076.378-.23.44-.335v-.002a.13.13 0 0 1 .086-.067.991.991 0 0 0 .24-.073.593.593 0 0 1 .178-.05c.79-.12.943-.147 1.114-.261.255-.17.268-.405.28-.632.011-.191.024-.41.173-.665.054-.093.116-.209.183-.332.113-.21.27-.504.386-.664a.096.096 0 0 1 .116-.03c.268.113.494.227.543.266Z" fill="#fff"/><path d="M6.677 12.922a5.3 5.3 0 0 0-.006 1.112c.013.134.03.273.052.413-.038.02-.15.05-.348.046-.285-.005-.563-.077-.646-.167l-.013-.012c-.07-.056-.115-.092-.122-.192-.002-.034.013-.067.044-.114.017-.027.04-.057.067-.095.048-.064.107-.145.168-.248a5.175 5.175 0 0 1 .354-.541c.05-.07.11-.153.2-.289.066-.101.122-.18.167-.243a1.51 1.51 0 0 1 .158-.19 3.022 3.022 0 0 1-.025.174c-.015.093-.034.208-.05.346ZM6.546 8.681l-.005.008c-.037.051-.08.11-.13.222a1.347 1.347 0 0 0-.141.611c-.001.073-.002.13-.022.197a1.565 1.565 0 0 1-.061.153c-.08.184-.185.425-.138.749-.065-.032-.164-.103-.178-.141a1.376 1.376 0 0 0-.011-.053c-.023-.1-.038-.166.027-.314.169-.39.19-.483.202-.589a.58.58 0 0 1 .013-.07c.035-.154.054-.285.07-.391.022-.16.037-.267.092-.347.02-.03.075-.045.155-.045.032 0 .067.003.106.008l.01.001.011.001ZM6.324 12.526a1.044 1.044 0 0 0-.06-.275l-.014-.031c-.006-.012-.014-.022-.02-.033v-.001l-.001-.001-.011-.012a.261.261 0 0 0-.032-.027l-.02-.011a.082.082 0 0 0-.013-.005l-.003-.002h-.003l-.002-.002-.005-.002c-.054-.02-.11-.041-.167-.05h-.004l-.02-.002H5.91l-.004.001h-.003c-.013.005-.027.008-.04.012l-.017.009-.014.008-.002.002-.02.019a.26.26 0 0 0-.013.016l-.002.002-.004.007a13.064 13.064 0 0 1-.376.556l-.082.12-.014.02.098.019c.073.013.145.026.22.036a2.727 2.727 0 0 0 .484.027l.137-.201c.03-.048.06-.092.088-.132a.155.155 0 0 1-.023-.067ZM5.78 13.157c-.013.117-.145.422-.35.712-.172.243-.277.302-.298.303-.083-.01-.165-.216-.23-.42-.026-.083-.05-.165-.069-.234a1.644 1.644 0 0 1-.045-.494c.174.097.478.123.906.124h.002l.084.009ZM5.476 12.188l-.006.01-.222.323-.114.166c-.02.03-.049.064-.073.1-.06-.014-.122-.028-.182-.045a1.555 1.555 0 0 1-.173-.06.12.12 0 0 0-.033-.042l.001-.001.052-.107c.033-.065.066-.13.103-.192a.872.872 0 0 1 .272-.312.328.328 0 0 1 .139-.053l.06.001h.007l.008.003.04.011a.256.256 0 0 1 .012.007c.011.007.023.013.033.021-.017-.013.024.03.024.026a.289.289 0 0 1 .052.144ZM4.894 11.88c-.136.113-.235.262-.318.417-.046.086-.088.173-.131.26a.488.488 0 0 1-.014.027 1.332 1.332 0 0 1-.305-.11c.04-.077.09-.151.136-.223.065-.102.136-.202.213-.295.028-.036.059-.075.1-.099.041-.024.091-.018.139-.016.05.003.104.005.152.024.01.004.02.01.028.016ZM4.678 13.707a.102.102 0 0 0-.018.019l-.012.003a2.317 2.317 0 0 1-.29.012c-.036-.001-.069-.007-.083-.03-.024-.035-.031-.097-.04-.145a2.36 2.36 0 0 1-.017-.709c.121.044.246.077.374.098-.027.212.02.523.047.619l.039.133ZM4.287 11.804a3.644 3.644 0 0 0-.293.418c-.036.059-.076.12-.105.183a.456.456 0 0 1-.122-.054 1.166 1.166 0 0 1-.091-.063l-.04-.032-.01-.007c.01-.027.028-.058.038-.08a2.01 2.01 0 0 1 .243-.398c.024-.03.046-.068.082-.078a.255.255 0 0 1 .104 0c.08.015.142.05.194.11ZM3.459 12.379c.001-.007.01-.008.014-.002.028.039.067.073.108.105l.056.042a.009.009 0 0 1 .003.009 2.46 2.46 0 0 0-.074.558c0 .01-.015.012-.018.002-.053-.224-.123-.582-.09-.714ZM3.985 12.777a2.705 2.705 0 0 0 0 .75.158.158 0 0 0-.059-.002h-.012l-.01-.002c-.022-.005-.024-.008-.041-.019a.22.22 0 0 1-.064-.07.543.543 0 0 1-.056-.25 2.198 2.198 0 0 1 .039-.495l.088.037.116.05v.001Z" fill="#fff"/><mask id="c" style="mask-type:alpha" maskUnits="userSpaceOnUse" x="0" y="0" width="20" height="20"><path d="M20 10c0-5.523-4.477-10-10-10S0 4.477 0 10s4.477 10 10 10 10-4.477 10-10Z" fill="url(#b)"/></mask><g opacity=".8" mask="url(#c)"><g opacity=".8" stroke-width=".1" stroke-miterlimit="10"><path d="M8.23 21.176a25.75 25.75 0 0 1-2.01-.092l-.161-.012-.16-.023c-.07-.01-.166-.02-.258-.03-.561-.06-1.604-.174-2.755-.715l-.179-.084-.167-.094C.328 18.886-.5 17.02-.946 16.016l-.096-.213a8.864 8.864 0 0 1-.488-1.256l-.026-.085-.023-.082c-.321-1.142-.402-2.127-.255-3.102.147-.979.51-1.869 1.14-2.801l.326-.533c.067-.108.113-.227.139-.35C.02 6.36.585 5.485.862 5.068a7.783 7.783 0 0 1 .376-1.483l.026-.072.028-.071.021-.063a6.643 6.643 0 0 1 1.166-2.178l.281-.34.286-.259A6.641 6.641 0 0 1 5.612-.846a7.243 7.243 0 0 1 1.635-.29l.053-.003.08-.004a6.129 6.129 0 0 1 1.317.08c.213.036.432.01.631-.072a7.213 7.213 0 0 1 1.847-.496l.135-.018a15.675 15.675 0 0 1 1.858-.12c1.088 0 2.025.141 2.864.431l.071.025.07.026c1.85.7 2.792 1.676 3.47 2.538l.032.041.093.083a6.45 6.45 0 0 1 1.537 1.728l.126.208.106.218c.906 1.848.618 3.554.51 4.195l-.006.034a7.347 7.347 0 0 1-.37 1.386 7.074 7.074 0 0 1-.305 1.272 7.382 7.382 0 0 1-1.05 2.054 7.353 7.353 0 0 1-.886 1.034.72.72 0 0 0-.212.417 7.747 7.747 0 0 1-1.19 3.099l-.769 1.103c-.925 1.153-2.022 1.913-3.35 2.321l-.322.101-.348.06c-.398.07-.8.106-1.204.105-.056 0-.112 0-.174-.002h-.018l-.069.005-.073.002h-.002c-.154.005-.307.03-.454.075-.858.262-1.829.386-3.016.386Z" stroke="url(#d)"/><path d="M8.23 20.418c-.702 0-1.376-.045-1.941-.09l-.134-.01-.134-.018c-.084-.012-.186-.023-.285-.034-.544-.06-1.455-.158-2.471-.635l-.15-.07-.138-.078C1.024 18.388.302 16.762-.13 15.79l-.104-.232a8.17 8.17 0 0 1-.444-1.144l-.023-.07-.02-.07c-.285-1.014-.359-1.88-.231-2.726.127-.845.448-1.627 1.008-2.45l.418-.683c.074-.121.125-.255.15-.395.208-1.16.757-1.983 1.006-2.358l.031-.047.012-.019a.807.807 0 0 0 .015-.034l.045-.143c.065-.476.18-.944.345-1.396l.022-.06.024-.062c.008-.019.015-.04.036-.103.119-.358.366-1.1 1.012-1.897l.234-.283.238-.216A5.758 5.758 0 0 1 5.87.147c.469-.14.952-.225 1.44-.254l.045-.003.067-.003c.082-.004.163-.006.243-.006.35 0 .7-.101 1.043-.03.265.054.54.025.787-.085.462-.203 1.085-.285 1.797-.374l.13-.017a14.198 14.198 0 0 1 1.746-.114c.987 0 1.828.125 2.57.382l.06.02.058.023c1.64.62 2.451 1.45 3.083 2.254l.085.106.015.014.12.106.015.017a5.54 5.54 0 0 1 1.366 1.521l.105.174.09.181c.778 1.59.534 3.035.43 3.653l-.006.033a6.468 6.468 0 0 1-.36 1.311 6.169 6.169 0 0 1-.28 1.21 6.528 6.528 0 0 1-.93 1.819 6.345 6.345 0 0 1-.94 1.061.886.886 0 0 0-.29.568c-.017.16-.04.317-.069.47a6.879 6.879 0 0 1-1.03 2.515l-.623.904c-.827 1.063-1.807 1.758-2.994 2.124l-.268.084-.29.05a5.977 5.977 0 0 1-1.051.091l-.16-.001h-.049l-.034.001-.061.004-.062.002-.124.005a1.791 1.791 0 0 0-.48.084c-.791.252-1.704.371-2.834.371Z" stroke="url(#e)"/><path d="M8.23 19.524c-.671 0-1.323-.044-1.872-.086l-.107-.009-.107-.014c-.097-.014-.206-.026-.31-.037-.521-.057-1.307-.142-2.189-.556l-.12-.056-.111-.062c-1.694-.95-2.315-2.35-2.727-3.276l-.112-.252a7.223 7.223 0 0 1-.4-1.032l-.017-.056-.016-.055c-.25-.889-.316-1.636-.209-2.351.11-.725.394-1.4.896-2.127l.06-.087.064-.082.118-.154.252-.461c.083-.15.138-.315.165-.485.16-1.035.659-1.783.889-2.128l.001-.002.039-.059.05-.078c.018-.042.044-.098.066-.157l.078-.246c.055-.44.16-.874.312-1.292l.017-.048.02-.05c.015-.04.027-.076.05-.146.11-.33.315-.945.858-1.616l.188-.227.19-.171a4.874 4.874 0 0 1 1.883-1.063c.406-.12.824-.194 1.247-.218l.036-.003.054-.002a4.314 4.314 0 0 1 1.278.132c.305.077.627.043.909-.096a5.616 5.616 0 0 1 1.883-.554c.088-.01.228-.027.397-.045.296-.028.75-.062 1.237-.062.886 0 1.632.109 2.28.333l.047.017.047.017c1.506.57 2.18 1.315 2.695 1.97.113.144.13.166.208.235l.096.085.037.039c.248.192.755.587 1.199 1.318l.084.139.071.145c.652 1.33.45 2.533.352 3.11l-.006.033c-.07.423-.187.837-.352 1.234l-.004.037c-.043.38-.127.753-.25 1.115a5.667 5.667 0 0 1-.808 1.581 5.32 5.32 0 0 1-1.047 1.117.854.854 0 0 0-.323.628c-.01.239-.038.476-.082.711-.202 1.09-.678 1.845-.92 2.222l-.483.713c-.727.97-1.589 1.599-2.63 1.918l-.215.067-.231.04a5.098 5.098 0 0 1-.898.078l-.146-.001h-.063c-.009 0-.035 0-.09.003l-.049.003-.296.011a1.811 1.811 0 0 0-.511.092c-.724.244-1.578.359-2.653.359Z" stroke="url(#f)"/><path d="M8.23 18.63c-.641 0-1.272-.042-1.803-.084l-.08-.006-.08-.01c-.11-.016-.226-.029-.338-.04-.489-.054-1.158-.127-1.905-.477l-.089-.042-.083-.047c-1.434-.805-1.962-1.992-2.347-2.86l-.123-.273a6.338 6.338 0 0 1-.355-.916l-.013-.042-.012-.042c-.42-1.49-.261-2.535.562-3.728L1.61 10l.049-.063c.054-.07.105-.137.156-.2.076-.1.153-.202.237-.306a.832.832 0 0 0 .124-.215l.095-.242c.04-.102.065-.21.074-.32.082-.956.547-1.653.777-1.998l.002-.002.05-.077.054-.086.017-.022a4.1 4.1 0 0 0 .134-.309c.027-.087.069-.222.11-.344 0-.005 0-.01.002-.015.044-.4.136-.794.274-1.173l.014-.036.014-.037c.025-.064.043-.117.067-.19.098-.296.263-.79.704-1.334l.14-.171.142-.128c1.041-.945 2.206-1.026 2.595-1.052l.027-.002.041-.002a3.411 3.411 0 0 1 1.503.271.553.553 0 0 0 .472-.022h.002c.396-.23 1.121-.646 2.046-.757l.116-.016a13.08 13.08 0 0 1 1.522-.099c.785 0 1.435.093 1.987.284l.036.013.035.013c1.29.488 1.848 1.1 2.307 1.685.124.156.179.23.317.351l.072.064.058.06.045.035c.218.17.625.485.987 1.079l.063.104.053.108c.525 1.073.361 2.046.273 2.57l-.005.03c-.063.38-.17.752-.322 1.106l-.013.03-.006.03c-.007.036-.011.065-.016.101l-.005.041c-.036.321-.107.637-.21.942a4.8 4.8 0 0 1-.687 1.345c-.295.419-.626.76-.997 1.03a1.3 1.3 0 0 0-.534 1.033 4.411 4.411 0 0 1-.074.75c-.17.923-.565 1.548-.81 1.929l-.35.525c-.628.877-1.368 1.437-2.26 1.71l-.046.015a1.78 1.78 0 0 1-.231.055l-.057.01a4.215 4.215 0 0 1-.745.065l-.131-.001H11.825c-.017 0-.063 0-.146.005l-.037.002-.036.001-.4.016a1.788 1.788 0 0 0-.533.104c-.641.23-1.426.338-2.444.338Z" stroke="url(#g)"/></g><g opacity=".8" stroke-width=".1" stroke-miterlimit="10"><path d="M8.23 17.736c-.61 0-1.219-.041-1.734-.081l-.053-.004-.054-.008c-.123-.017-.245-.03-.364-.043-.45-.049-1.009-.11-1.62-.397l-.06-.028-.056-.03c-1.175-.66-1.614-1.648-1.967-2.443-.043-.098-.09-.199-.134-.297a5.436 5.436 0 0 1-.309-.801l-.009-.028-.008-.027c-.346-1.23-.232-2.01.437-2.978l.03-.043.033-.042.162-.212c.175-.228.343-.449.594-.717a.348.348 0 0 0 .093-.215l.019-.29-.008-.094.004-.098c.026-.793.424-1.39.638-1.71l.065-.1.036-.058.033-.044c.04-.065.145-.287.224-.5.027-.09.08-.26.126-.395a.625.625 0 0 0 .027-.146c.036-.335.113-.664.23-.98l.008-.025.01-.024a4.42 4.42 0 0 0 .082-.234c.084-.253.211-.635.55-1.053l.094-.114.093-.084c.73-.662 1.524-.788 2.06-.824l.019-.001h.027l.116-.003c.458 0 1.006.22 1.293.353a.574.574 0 0 0 .441.015 4.26 4.26 0 0 0 .522-.23c.366-.212.973-.562 1.727-.65l.11-.015c.075-.01.195-.022.343-.038.257-.024.65-.054 1.067-.054.684 0 1.238.077 1.695.235l.023.008.023.009c1.078.407 1.507.876 1.92 1.401.134.17.229.29.426.467l.048.042.044.045c.04.04.084.076.13.11.185.143.495.383.77.836l.042.069.036.073c.399.813.27 1.572.194 2.026l-.005.03c-.051.314-.14.62-.266.91v.003a.882.882 0 0 0-.071.237c-.01.057-.018.103-.024.154l-.006.042c-.028.261-.085.519-.17.768a3.885 3.885 0 0 1-.565 1.109c-.365.52-.786.885-1.293 1.117a.734.734 0 0 0-.43.637 1.407 1.407 0 0 0 0 .126c.024.391.052.834-.035 1.29-.14.755-.459 1.263-.7 1.635 0 0-1.101 1.534-2.105 1.84l-.108.034-.116.02a3.321 3.321 0 0 1-.59.052l-.118-.001h-.092c-.04 0-.103 0-.203.007l-.024.001h-.025c-.383.014-.746.027-.847.047a.623.623 0 0 0-.156.046c-.568.248-1.312.365-2.34.365Z" stroke="url(#h)"/><path d="M8.23 16.842c-.58 0-1.167-.04-1.664-.078l-.027-.002-.027-.004a13.323 13.323 0 0 0-.39-.047c-.423-.046-.861-.093-1.338-.317l-.03-.014-.028-.016c-.916-.514-1.257-1.281-1.587-2.025l-.145-.323a4.539 4.539 0 0 1-.262-.682l-.005-.014-.004-.014c-.275-.978-.205-1.478.313-2.227l.015-.023.016-.02.17-.22c.248-.327.463-.61.946-1.054l.001-.002a.254.254 0 0 0 .064-.268l-.087-.248a1.803 1.803 0 0 1-.037-.237v-.003l-.005-.067.002-.049c.017-.538.3-.963.488-1.244l.079-.12.018-.029.02-.027c.1-.134.26-.505.346-.735.022-.07.08-.261.127-.399.034-.104.056-.21.065-.32.028-.269.09-.533.184-.787l.005-.012.004-.013c.042-.106.07-.193.099-.278.075-.225.16-.48.395-.77L6 4.095l.046-.042c.518-.47 1.086-.565 1.524-.594h.024l.073-.002c.426 0 .754.175.97.29l.051.028.008.004c.06.032.112.06.16.084.135.068.29.083.435.045a5.59 5.59 0 0 0 1.072-.427l.006-.004c.328-.19.821-.476 1.4-.54l.104-.014c.067-.008.179-.022.315-.034.238-.023.601-.05.982-.05.583 0 1.042.06 1.403.185l.012.005.012.004c.865.327 1.18.67 1.532 1.118.143.182.278.354.535.582l.024.022.022.023c.07.07.144.134.223.192.154.12.365.282.554.594l.021.035.018.036c.272.555.182 1.092.115 1.484l-.005.031c-.04.247-.11.488-.21.718-.059.132-.1.27-.124.413a3.399 3.399 0 0 0-.033.207l-.005.043a2.754 2.754 0 0 1-.13.595c-.1.313-.25.607-.445.871-.328.472-.692.763-1.176.917a1.057 1.057 0 0 0-.565.428l-.039.059-.042.048c-.123.14-.088.682-.067 1.006.022.355.046.722-.02 1.068-.11.591-.363.99-.59 1.34 0 0-.84 1.215-1.6 1.446l-.056.017-.058.01a2.43 2.43 0 0 1-.438.038h-.209c-.051 0-.134 0-.26.009h-.024c-.51.019-.816.03-.986.063a1.51 1.51 0 0 0-.333.099c-.455.202-1.09.296-1.995.296Z" stroke="url(#i)"/></g></g><defs><linearGradient id="d" x1=".778" y1="1.052" x2="18.32" y2="19.735" gradientUnits="userSpaceOnUse"><stop offset=".206" stop-color="#89D0FF"/><stop offset=".398" stop-color="#EBBF9A"/><stop offset=".602" stop-color="#EB80E7"/><stop offset=".841" stop-color="#A281FF"/></linearGradient><linearGradient id="e" x1=".778" y1="1.052" x2="18.32" y2="19.735" gradientUnits="userSpaceOnUse"><stop offset=".206" stop-color="#89D0FF"/><stop offset=".398" stop-color="#EBBF9A"/><stop offset=".602" stop-color="#EB80E7"/><stop offset=".841" stop-color="#A281FF"/></linearGradient><linearGradient id="f" x1=".778" y1="1.052" x2="18.32" y2="19.735" gradientUnits="userSpaceOnUse"><stop offset=".206" stop-color="#89D0FF"/><stop offset=".398" stop-color="#EBBF9A"/><stop offset=".602" stop-color="#EB80E7"/><stop offset=".841" stop-color="#A281FF"/></linearGradient><linearGradient id="g" x1=".778" y1="1.052" x2="18.32" y2="19.735" gradientUnits="userSpaceOnUse"><stop offset=".206" stop-color="#89D0FF"/><stop offset=".398" stop-color="#EBBF9A"/><stop offset=".602" stop-color="#EB80E7"/><stop offset=".841" stop-color="#A281FF"/></linearGradient><linearGradient id="h" x1="2.565" y1="2.84" x2="16.524" y2="17.939" gradientUnits="userSpaceOnUse"><stop offset=".206" stop-color="#89D0FF"/><stop offset=".398" stop-color="#EBBF9A"/><stop offset=".602" stop-color="#A280EB"/><stop offset=".841" stop-color="#A281FF"/></linearGradient><linearGradient id="i" x1="2.565" y1="2.84" x2="16.524" y2="17.939" gradientUnits="userSpaceOnUse"><stop offset=".206" stop-color="#89D0FF"/><stop offset=".398" stop-color="#EBBF9A"/><stop offset=".602" stop-color="#A280EB"/><stop offset=".841" stop-color="#A281FF"/></linearGradient><radialGradient id="a" cx="0" cy="0" r="1" gradientUnits="userSpaceOnUse" gradientTransform="rotate(90 -.524 10.524) scale(11.2348)"><stop offset=".167" stop-color="#073183"/><stop offset="1" stop-color="#0054F9"/></radialGradient><radialGradient id="b" cx="0" cy="0" r="1" gradientUnits="userSpaceOnUse" gradientTransform="rotate(90 -.524 10.524) scale(11.2348)"><stop offset=".167" stop-color="#073183"/><stop offset="1" stop-color="#0054F9"/></radialGradient></defs></svg>