<svg xmlns="http://www.w3.org/2000/svg" width="20" height="20" fill="none"><circle cx="10" cy="10" r="10" fill="#000"/><path fill="#fff" d="M14.336 7.35h-1.41a.571.571 0 0 1-.428-.195l-.572-.645a.45.45 0 0 0-.672 0l-.49.553a.844.844 0 0 1-.632.287H2.419A7.992 7.992 0 0 0 2 9.323h7.281a.466.466 0 0 0 .337-.145l.68-.708a.45.45 0 0 1 .324-.137h.026a.458.458 0 0 1 .337.15l.572.645a.57.57 0 0 0 .43.195h5.94a7.877 7.877 0 0 0-.42-1.973h-3.17Zm-7.932 6.122a.471.471 0 0 0 .338-.145l.677-.708a.457.457 0 0 1 .324-.137h.029a.46.46 0 0 1 .337.15l.569.645a.577.577 0 0 0 .43.195h8.052c.307-.63.528-1.3.659-1.989h-7.732a.573.573 0 0 1-.427-.192l-.571-.645a.45.45 0 0 0-.521-.113.44.44 0 0 0-.151.113l-.49.553a.848.848 0 0 1-.635.284H2.108c.129.691.35 1.362.656 1.994l3.64-.005Zm5.714-8.28a.471.471 0 0 0 .34-.144l.677-.706a.448.448 0 0 1 .324-.14h.029a.44.44 0 0 1 .335.153l.571.645a.581.581 0 0 0 .43.193h1.53a7.993 7.993 0 0 0-12.781 0h8.545ZM9.041 15.449H6.947a.567.567 0 0 1-.427-.195l-.569-.646a.453.453 0 0 0-.674 0l-.493.564a.84.84 0 0 1-.632.287h-.031a7.988 7.988 0 0 0 11.688 0l-6.768-.01Z"/></svg>