<svg xmlns="http://www.w3.org/2000/svg" width="20" height="20" fill="none"><path fill="#2D374B" d="m12.16 9.163 1.47-2.492 3.958 6.166.002 1.183-.013-8.142a.613.613 0 0 0-.284-.489l-7.127-4.1a.628.628 0 0 0-.608.04l-.025.016-6.918 4.009-.027.012a.611.611 0 0 0-.357.52l.01 6.636 3.687-5.715c.465-.758 1.476-1.002 2.415-.989l1.102.029L2.952 16.26l.765.44 6.571-10.843 2.905-.01-6.554 11.116 2.731 1.572.327.188c.14.056.297.06.44.009l7.227-4.188-1.382.8-3.821-6.18Zm.561 8.071-2.759-4.33 1.684-2.857 3.623 5.71-2.548 1.477Z"/><path fill="#28A0F0" d="m9.962 12.904 2.759 4.33 2.548-1.477-3.623-5.71-1.684 2.857Zm7.628 1.116-.002-1.183-3.958-6.166-1.47 2.492 3.822 6.181 1.382-.8a.613.613 0 0 0 .226-.447v-.077Z"/><path fill="#fff" d="m1 15.136 1.952 1.125L9.446 5.847 8.344 5.82c-.94-.014-1.95.23-2.415.988L2.24 12.523 1 14.429v.708Zm12.193-9.289-2.904.01-6.571 10.844 2.296 1.323.625-1.06 6.554-11.117Z"/><path fill="#96BEDC" d="M18.814 5.832a1.85 1.85 0 0 0-.869-1.487L10.726.193a1.878 1.878 0 0 0-1.657 0c-.06.03-7.022 4.068-7.022 4.068a1.855 1.855 0 0 0-.822.777 1.83 1.83 0 0 0-.224.79v8.6l1.24-1.906-.01-6.635a.616.616 0 0 1 .256-.461c.032-.024 7.113-4.122 7.136-4.133a.628.628 0 0 1 .544-.003l7.127 4.1a.613.613 0 0 1 .284.488v8.22a.6.6 0 0 1-.213.446l-1.383.8-.712.414-2.549 1.477-2.584 1.498a.627.627 0 0 1-.44-.009l-3.058-1.758-.624 1.059 2.748 1.582.238.135c.103.057.173.096.198.108a1.837 1.837 0 0 0 1.402.023l7.506-4.347a1.834 1.834 0 0 0 .708-1.382V5.832Z"/></svg>