<svg xmlns="http://www.w3.org/2000/svg" width="20" height="20" fill="none"><rect width="20" height="20" fill="#fff" rx="10"/><path fill="#17181D" fill-rule="evenodd" d="m10.087 6.97-3.202 7.26c-.105.232-.16.42-.393.42l-2.115.002c-.303 0-.47-.083-.323-.422l5.17-11.887C9.332 2.145 9.397 2 9.63 2h.915c.233 0 .299.145.404.343L16.12 14.23c.147.338-.02.422-.323.422l-2.115-.001c-.232 0-.287-.189-.393-.422l-3.201-7.26Z" clip-rule="evenodd"/><path fill="#32FEFF" fill-rule="evenodd" d="m10.091 18-2.114-4.23h4.158L10.091 18Z" clip-rule="evenodd"/></svg>