<svg xmlns="http://www.w3.org/2000/svg" viewBox="0 0 20 20"><defs><linearGradient id="a" x1=".3" y1="9.93" x2="19.81" y2="9.93" gradientUnits="userSpaceOnUse"><stop offset="0" stop-color="#32c54e"/><stop offset=".36" stop-color="#7cdd51"/><stop offset=".52" stop-color="#a0e952"/><stop offset="1" stop-color="#ffff65"/></linearGradient></defs><g data-name="Layer 3"><path d="m1.79 17.69 16.38-.29c2.11 0 2.14-1.84 1.36-2.86l-8.9-11.38a1.55 1.55 0 0 0-2.56.13l-7.7 11.9a1.69 1.69 0 0 0 1.42 2.5Z"/><path d="M1.59 17.54 18 17.25a1.55 1.55 0 0 0 1.21-2.49l-9-11.84a1.55 1.55 0 0 0-2.56.14L.23 15.19a1.55 1.55 0 0 0 1.36 2.35Z" style="fill:url(#a)"/></g></svg>