<svg version="1.1" id="Layer_1" xmlns="http://www.w3.org/2000/svg" x="0" y="0" viewBox="0 0 116.2 139.2" style="enable-background:new 0 0 116.2 139.2" xml:space="preserve"><style>.st1{fill:#311f1b}.st2{fill:#f6a32b}.st3{fill:#fff}.st4{fill:#ddd}.st5{fill:#ef8105}.st6{fill:#ef8005}.st7{fill:#c65017}.st9{fill:#de6c0f}.st12{fill:#b11922}.st18{fill:#dadada}.st21{fill:#fffffd}</style><path class="st1" d="M28 93.3c.2-3.8 1.1-7.1 3.5-9.8.9-1.1.4-2.7-.7-3.3-7.1-4-12-9.6-13.5-17.8-1.1-6-.4-11.8 1.3-17.6.4-1.3.4-2.4.2-3.8-2.2-8.7-2.2-17.6.7-26.4 2.2-6.4 5.6-7.8 11.8-4.9 3.5 1.6 6.7 3.8 9.6 6.4.9.7 1.5.9 2.5.4C54.5 12 65.8 12 77 16.7c.9.4 1.5.2 2.2-.4 2.7-2.4 5.8-4.5 9.1-6.2 1.5-.7 2.9-1.3 4.5-1.6 2.7-.5 4.9.5 6.4 2.9 1.8 3.1 2.7 6.7 3.3 10.2 1.1 7.1.7 14-1.1 20.7-.2.7 0 1.1.2 1.8 1.6 5.1 2.5 10.4 2 15.8-.9 9.3-5.8 16-13.8 20.4-1.3.7-1.6 2.4-.7 3.3 3.3 3.8 3.8 8.5 3.3 13.3 0 .5-.4.9.4 1.5 4.2 2.5 5.3 6.7 5.1 11.3-.2 2.9-1.1 5.6-2.4 8.4-1.6 3.5-4.4 5.1-8.2 5.3h-2.9c-2.2 0-4.4.2-6.4 1.3-2.7 1.6-6 1.3-9.1.5-.2 0-.4-.2-.5-.2-2-2.2-4.5-1.6-7.1-1.6h-3.8c-1.6 0-3.1.4-4.7 1.3-3.6 2-7.6 1.6-11.3-.5-.7-.5-1.6-.7-2.5-.7h-5.6c-3.6-.2-6.5-1.8-8.2-5.3-1.1-2.4-2-4.9-2.2-7.6-.2-1.1-.5-1.6-1.3-2.2-9.5-6.2-12.2-18.5-6.2-27.8.2-.2.4-.4.4-.5.4-.5.9-.9 1.6-.7.7.2.9.7 1.1 1.5.5 3.8 2.2 7.3 5.1 10 1 .6 2.5 1.7 4.3 2.4z"/><path class="st2" d="M19.7 60.7c-.7-5.1-.2-10 1.3-14.7 2.7-9.3 8-16.7 15.6-22.5 1.1-.9 1.3-1.6.4-2.7-1.3-2-3.1-3.6-4.5-5.3.7-.7 1.3-.2 1.8.2 2.2 1.3 4 2.7 5.8 4.4 1.3.7 2.2.9 3.5.4 8-3.6 16.4-4.2 25.1-2.5 2.9.5 5.6 1.6 8.4 2.7.9.4 1.6.4 2.5-.4 1.8-1.6 3.8-3.1 5.8-4.4.7-.5 1.5-1.1 2.4-.5-1.5 1.6-3.1 3.1-4.4 4.9s-1.3 2.2.5 3.5c10.2 8 15.8 18.5 16.9 31.6.2 1.8.2 3.6-.2 5.3-1.5 2.7-4 3.5-6.7 3.6-4 .4-7.6-1.1-10.9-3.6-2.9-2.4-5.6-4.9-8.4-7.6-1.6-1.6-3.6-3.3-5.5-4.5-5.5-3.8-12.5-4-18.2.2-2.7 2-5.1 4.2-7.5 6.5-1.8 1.6-3.5 3.6-5.5 5.1-3.5 2.5-7.1 4.4-11.3 4-2.6-.4-5.1-1.1-6.9-3.7z"/><path class="st3" d="M19.7 60.7c1.6 1.1 3.3 2.4 5.3 2.7 5.1.9 9.3-.7 12.9-3.8 3.3-2.7 6.4-5.8 9.5-8.7 2.5-2.4 5.3-4.4 8.5-5.3 5.5-1.5 10.4 0 14.7 3.5 3.8 3.1 7.3 6.7 11.1 10.2 3.8 3.5 8.2 5.5 13.6 4.4 2-.4 3.6-1.6 5.1-2.9 0 .9-.4 2-.5 2.9-1.1 1.6-2 3.5-3.3 4.9-3.3 3.5-7.5 5.8-11.8 7.6-5.3 1.8-10.8 2.9-16.2 3.3-8.4.7-16.9.5-25.1-1.3-6.9-1.5-13.3-3.8-18.5-8.9-1.8-1.8-3.5-3.6-4.5-6-.5-.7-.7-1.6-.8-2.6z"/><path class="st4" d="M20.4 63.5c1.5 1.1 2.4 2.9 3.6 4.4 2.5 2.7 5.5 4.7 8.5 6.4 6.4 3.1 13.1 4.4 20.2 4.9 8.9.7 17.8.4 26.4-1.8 6.4-1.6 12.4-4.4 17.1-9.3.9-1.1 1.8-2.2 2.5-3.5.2-.4.4-.9 1.1-.9-1.5 6-5.1 10.2-10.2 13.5-5.6 3.5-12 5.1-18.7 6-10 1.3-20 .9-29.8-1.6-6.2-1.6-12-4.4-16.4-9.3-2.1-2.8-3.8-5.6-4.3-8.8z"/><path class="st2" d="M67.8 119.3c-.4-1.3-.2-2.7-.2-4.2V106c0-.4.2-.4.4-.2.4.4.2.9.4 1.5 3.5-3.5 7.3-6.5 10.4-10.5 1.8-2.4 3.5-4.7 3.6-7.8 0-.2.2-.5.2-.7.7-.4 1.3-.5 2-.9.9 0 .9.9 1.1 1.5.7 2.5.5 4.9.2 7.5-.5 4.5-2.2 8.5-4 12.7-1.1 2.7-2.4 5.3-4 7.6-.4.5-.7 1.3-1.3 1.6-.2.2-.5.2-.7.2-2.4-.4-4.7 0-7.1.9-.4.1-.6.1-1-.1zM52.4 108.9c0 3.5.2 6.9 0 10.4-.4.2-.7.2-1.1 0-2.2-.9-4.5-1.1-6.9-.7-.5.2-.9.2-1.5-.2-.2-.9-.7-1.8-1.1-2.5-3.1-5.6-5.6-11.3-7.1-17.6-.7-2.9-.9-6-.4-8.9.2-.7.4-1.6 1.1-2 .7.4 1.3.5 2 .9.4.4.5.7.5 1.3.2 2.5 1.5 4.5 2.9 6.5 2.9 3.8 6.5 7.1 10 10.5.7.5 1.4 1.2 1.6 2.3z"/><path class="st4" d="M55.3 114.6v-8.4c0-1.3-.5-2-1.8-1.8-.5-.4-.7-1.1-.9-1.6-1.1-3.5-2.9-6.7-5.1-9.6-.5-.9-1.3-1.6-2.4-2-.4-.2-.7-.2-.7-.9 2.9.4 5.8 1.1 8.7 1.3 1.1 0 .7.5.4 1.3-1.1 2.9-.5 5.5 1.6 7.6 2 2 5.1 2.5 7.8 1.5 3.3-1.5 5.1-5.3 3.8-8.9-.5-1.5 0-1.5 1.1-1.5 2.2-.2 4.4-.5 6.7-.9.2.5-.2.7-.4 1.1-2.9 3.5-5.3 7.5-6.4 11.8-.2.4-.2.7-.5.9-1.6-.2-2 .2-2 1.8 0 2.7 0 5.5-.2 8.2-2.1 2.4-7.9 2.2-9.7.1z"/><path class="st3" d="M44.4 90.4c3.5 1.3 4.7 4.4 6.4 7.3 1.3 2 2.2 4.4 2.5 6.7-1.1.5-.9 1.6-.9 2.5v2c-3.8-4.4-8.5-8-12-12.9-1.6-2.4-3.1-4.7-2.9-7.8 2.3.7 4.5 1.5 6.9 2.2zM66.9 104.6c.4-3.3 2-6 3.6-8.7 1.1-1.8 2.4-3.6 3.8-5.1 2.7-.7 5.6-1.5 8.2-2.4.5 2.2-.4 4-1.5 5.8-2.4 4-5.6 7.1-8.9 10.4-1.5 1.5-2.9 2.7-4.2 4.4-.5-.9 0-1.8-.4-2.7.2-.8 0-1.4-.6-1.7z"/><path class="st5" d="M76.4 118c3.8-6.4 7.1-12.9 8.5-20.2.7-3.5 1.1-7.1-.4-10.5.2-.2.5-.4.7-.5 2.2-1.1 2.2-1.1 3.1 1.1 1.5 3.6 1.3 7.5.4 11.3-1.6 6.7-4.5 12.9-8.2 18.7-.4.5-.7.9-1.1 1.5-1.2-.1-2.3-.1-3-1.4zM35.5 87.3c-2 5.5-.5 10.7 1.1 15.8 1.6 4.7 3.6 9.5 6.5 13.6.4.5.4.9-.2 1.5-.4.9-1.1 1.5-2.2 1.3-2.9-3.3-4.5-7.1-6.2-11.1-2-4.4-3.5-8.7-3.8-13.6-.2-2.5.2-4.9 1.3-7.3.9-1.8.9-1.8 2.5-.7.4.1.6.3 1 .5z"/><path class="st6" d="M82.4 120.4c3.8-6 6.5-12.2 8.5-18.7.4-1.1.7-.7 1.3-.2 2.2 2.4 2.7 5.1 2.5 8.2-.2 2.4-.9 4.7-2 6.9s-2.7 3.5-5.1 3.8c-1.6.2-3.2 0-5.2 0zM34.9 120.4c-4.9 0-6.7-1.3-8.4-6-1.1-3.1-1.8-6.4-.5-9.6.4-1.3 1.1-2.4 2-3.3.5-.5.9-.9 1.1.2 1.8 6.4 4.5 12.2 8 17.8.4.7.4.9-.5.9h-1.7z"/><path class="st7" d="M96.8 33.8c-2.7-4-5.6-7.6-9.3-10.7-2-1.6-2-1.8-.2-3.8 2-2.2 4.4-4.4 6.9-5.8.5.4.7.9.9 1.5 1.3 3.3 1.8 6.7 2 10.4.2 1.8.4 3.6.2 5.5.4 1.1.4 2.2-.5 2.9zM25.8 13.6c3.1 1.8 5.8 4.2 8 7.1.4.5.5.9 0 1.5-4.2 3.3-7.5 7.3-10.4 11.6-.7-.4-.9-1.1-.9-1.8-.2-5.5.4-10.7 1.8-16 .3-.9.4-1.8 1.5-2.4z"/><path d="M87.7 15.1c-2.4.7-4.4 2.4-6.2 4-2 1.8-3.6 2.7-6.5 1.3-6-2.9-12.5-3.3-19.1-2.7-4.7.4-9.3 1.6-13.5 3.8-.5.4-.9.2-1.5-.2-2.4-1.8-4.5-3.8-7.1-5.5-.5-.4-.9-.5-1.5-.5-1.6-1.3-3.1-2.5-4.9-3.8 1.6 0 2.9.9 4.4 1.6 2.9 1.6 5.6 3.8 8.2 6 .9.9 1.6 1.1 2.9.5 11.3-5.1 22.7-5.1 34 0 1.1.5 1.8.4 2.7-.4 3.5-3.1 6.7-5.6 10.9-7.5.5-.2.9-.4 1.5-.5.2 0 .2 0 .5.2-1.7 1.3-3.2 2.6-4.8 3.7z" style="fill:#fccb5f"/><path class="st6" d="M15.5 86.9c0-.9.5-1.8.9-2.9 1.3 3.3 2.9 6 5.3 8.2 1.6 1.6 3.5 2.9 5.6 3.8 1.5.7 1.5 1.5.2 2.4-1.5.9-2.4 2.2-3.3 3.6-.7.2-1.3-.4-1.6-.7-3.5-2.9-5.8-6.4-6.7-10.7-.6-1.3-.6-2.6-.4-3.7z"/><path class="st9" d="M25.8 13.6c-2.4 5.8-2.9 12-2.7 18.2 0 .7.2 1.3.4 2-.7 1.5-1.5 2.9-2.4 4.5-.7-1.3-.7-2.7-.7-4-.5-6-.4-11.8 1.5-17.6.2-.7.5-1.5.7-2.2.9-2.5.9-2.5 3.2-.9zM96.8 33.8c.7-5.5 0-10.7-1.1-16.2-.4-1.5-1.1-2.7-1.3-4.2l.2-.2c2-1.3 2-1.3 2.9.9 1.8 4.2 2.4 8.7 2.5 13.3.2 3.3-.2 6.4-.5 9.5 0 .4-.2.7-.4 1.3-.7-1.5-1.4-2.9-2.3-4.4z"/><path d="M55.3 114.6c3.1 1.6 6.2 1.6 9.5 0 0 1.6.2 3.1.2 4.7 0 .9-.2 1.1-.9 1.1h-8c-.7 0-1.1-.2-.9-.9.1-1.7.1-3.3.1-4.9z" style="fill:#ee8007"/><path class="st4" d="M15.5 86.9c.5 6.4 3.2 11.5 8.5 15.1-.4.9-.7 1.8-.9 2.9-.2.7-.4.9-.9.4-5.6-4.2-8.7-11.6-6.7-18.4z"/><path d="M58.7 99.7c-2.5-1.1-3.6-3.6-2.5-5.8 1.1-2.4 3.6-3.1 6.2-1.8 2.2 2.5.3 7.7-3.7 7.6z" style="fill:#f8e035"/><path class="st12" d="M34.6 83.3c-.2-1.1.2-1.3 1.1-.9 5.8 2.2 12 3.3 18.2 3.6 1.8 0 2 .2 1.8 2.4-.2 1.6-1.3.7-2 .9-.2 0-.5-.2-.7-.2.2-.4.4-.4.7-.5-6.6-.8-13.1-2-19.1-5.3zM66.9 88.9c-2.4.5-2.5.4-2.5-1.8 0-1.1.5-1.3 1.5-1.3 4.7-.2 9.5-.9 14-2.2 1.6-.4 3.1-.9 4.7-1.5.5-.2 1.1-.4.9.5-.9 1.3-2.5 1.8-3.8 2.4-4.7 1.8-9.6 2.7-14.5 3.3-.2 0-.5-.2-.4.2-.1.2.1.4.1.4z"/><path d="M44 118c2.9-.5 5.6-.4 8.4 1.3 0 1.6-.5 2.9-2.2 3.3-1.6.2-3.3.2-4.9 0 0-.7.7-.7 1.1-.7-.7-.7-1.5-1.3-2-2-.4-.6-.7-1.2-.4-1.9z" style="fill:#fdfdfb"/><path d="M67.8 119.3c2.5-1.6 5.3-1.8 8.2-1.3.7.5.2.9 0 1.5-.7 1.1-1.6 2.2-2.7 2.9-.9.7-2 .2-3.1.2-1.6-.4-2.4-1.3-2.4-3.3z" style="fill:#fffdfc"/><path d="M66.9 88.9c-.7-.2-2 .4-2-.4 0-.9 1.3-.4 1.8-.5 4.7-.5 9.5-1.5 14-2.9 1.6-.5 3.1-1.5 4.7-2.2.2.9-.5 1.1-1.3 1.5-4.5 2.4-9.5 3.5-14.4 4.2-.8.1-1.9.3-2.8.3z" style="fill:#d11f2a"/><path d="M34.6 83.3c.5-.4.9 0 1.5.4 5.1 2.5 10.5 3.8 16.2 4.2.9 0 1.8.2 2.7.4.4 0 .7 0 .5.5 0 .4-.4.4-.7.4h-1.6c-6.2-.5-12-1.8-17.5-4.7-.6-.5-1.1-.7-1.1-1.2z" style="fill:#d51f29"/><path d="M70 122.6c3.1.4 4.2-2.2 5.8-4v-.5h.5c.9.4 2 .7 2.9 1.5-2.1 3.3-5.5 3.5-9.2 3z" style="fill:#dadad9"/><path class="st18" d="M44 118c.5 1.8 2.2 2.5 3.3 4-.5.5-1.6-.2-2.2.5-2-.2-3.3-1.5-4.5-3.1.7-.4 1.5-.9 2.2-1.3.5.1.9.1 1.2-.1z"/><path d="M58.7 99.7c3.8-1.6 4.4-2.7 3.5-7.8 2 1.5 2.7 3.5 1.8 5.5-.9 1.9-2.7 2.8-5.3 2.3z" style="fill:#faf9f7"/><path d="M60.2 88.6c-.9 0-1.8.5-1.8-1.1 0-1.5.7-1.3 1.6-1.3.9 0 1.8-.4 1.8 1.3 0 1.6-1.1.9-1.6 1.1z" style="fill:#c4c4c3"/><path class="st18" d="M45.3 122.6c1.6-.2 3.3 0 4.9 0-1.6.3-3.3.3-4.9 0z"/><path class="st1" d="M32.7 46.7c0-3.3 2.4-5.8 5.6-6 3.3-.2 6.2 2 6.5 5.3.2 2-.4 3.5-2.2 4.2-2.2 1.1-4.7 1.5-7.1.9-1.8-.5-2.8-2-2.8-4.4zM82.2 51.3c-1.1-.2-2.4-.2-3.6-.7-2.9-1.1-4-3.3-2.9-6.2.9-2.7 4-4.4 6.9-3.8 2.9.5 5.1 3.3 4.9 6.2 0 3-1.8 4.5-5.3 4.5z"/><path class="st21" d="M48 34.4c0 2.2-1.8 3.6-4.4 3.5-.2 0-.4 0-.5-.2-2.7-.4-4.2-1.6-4-3.6.2-2.2 2.7-4.2 5.3-4 2 .1 3.6 1.9 3.6 4.3zM72.2 34.4c0-2.4 1.8-4 3.8-4.2 2.5 0 5.1 2 5.1 4.2 0 1.1-.4 2-1.3 2.5-1.8 1.3-4 1.3-6 .5-1.1-.7-1.6-1.7-1.6-3z"/><path class="st1" d="M53.1 51.5c2-3.1 5.3-3.1 8.4-2.9.7 0 1.5.2 2.2.5 2.7.9 3.5 2 3.5 4.9-.2 2.4-1.6 3.6-3.3 4.7-1.3.7-1.3.7-.2 2 2.4 1.3 3.6 1.1 5.3-.9.5-.7.9-1.5 1.5-2.4.5-.9 1.1-.9 1.8-.5s.9 1.1.5 1.8c-.9 2-2 3.6-4 4.7-.5.4-.9.7-1.1 1.5-.4 2.5-1.5 4.7-3.3 6.4-2.7 2.7-6.4 2.7-9.1.2-1.8-1.8-2.9-4-3.3-6.5-.2-.7-.4-1.3-1.1-1.8-1.8-1.1-2.7-2.7-3.6-4.5-.4-.7-.2-1.5.5-1.8s1.5-.2 1.8.7c.4.9.9 1.6 1.5 2.4 1.8 2 3.6 2 5.6.4.7-.9 0-1.1-.5-1.6-2.5-1.9-3.8-4.1-3.1-7.3z"/><path d="M53.1 51.5c-.4 4.2 2 6.2 5.5 7.6-.5.5-.9.9-1.6 1.1-4.3-2.2-4.8-4.7-3.9-8.7z" style="fill:#cccdce"/><path d="M63.7 60.6c-.7-.2-1.3-.7-2.2-1.5 3.1-.7 4.7-2.7 5.8-5.3.7 1.3.2 2.4-.5 3.5s-1.6 1.8-2.7 2.5c-.4.2-.8.2-.4.8z" style="fill:#cdcfcf"/><path d="M39.7 42.7c1.1.2 1.8.5 1.8 1.8 0 1.1-.7 2-1.8 2s-2-.9-2-2 .7-1.8 2-1.8z" style="fill:#faf9f9"/><path d="M82.6 44.9c-.2.9-.7 1.6-1.8 1.6s-2-.9-2-2 .7-1.8 1.8-2c1.1.1 2 1 2 2.4z" style="fill:#f8f8f8"/><path d="M60 53.5c-1.1 0-2.2 0-3.3-.4-1.5-.7-1.5-1.8-.2-2.7 1.5-.9 5.5-.9 6.9.2 1.1.7 1.1 1.8-.2 2.4-.8.7-1.9.7-3.2.5z" style="fill:#5b3d38"/><path d="M63.3 68.2c-1.6 2.9-4.7 2.9-6.5 0 .2-.5.5-.7.9-.9 1.8-.7 4.5-.2 5.6.9z" style="fill:#ef857f"/><path d="M63.3 68.2c-2.2-.7-4.4-.9-6.5 0-.7-.5-.9-1.1.2-1.3 2.2-.7 4.4-.7 6.5 0 1.1.4.2.9-.2 1.3z" style="fill:#f5ada6"/></svg>