<svg width="20" height="20" fill="none" xmlns="http://www.w3.org/2000/svg"><circle cx="10" cy="10" r="10" fill="#030507"/><path d="m10.1 2.09.07.05a.013.013 0 0 0 .013.002l.087-.03a9.721 9.721 0 0 1-.029.3 3.63 3.63 0 0 0 .04 1.141.007.007 0 0 1-.006.005l-.005-.001-.126-.082a.009.009 0 0 0-.009 0 .01.01 0 0 0-.003.002.01.01 0 0 0-.002.005l-.003.102a.01.01 0 0 1-.001.005.01.01 0 0 1-.005.003h-.005a1.254 1.254 0 0 0-.33-.267.02.02 0 0 0-.026.007.019.019 0 0 0-.002.01.497.497 0 0 1-.07.252.008.008 0 0 1-.01-.003.555.555 0 0 0-.117-.156.012.012 0 0 0-.015.007.726.726 0 0 1-.215.276c-.077.06-.196.114-.288.19a.246.246 0 0 1-.067.031c-.317.11-.622.258-.916.442.029-.076.076-.176.141-.3.31-.593.691-1.117 1.142-1.574.002-.003.002-.005 0-.006a.007.007 0 0 0-.005-.001c.012-.002.02-.007.023-.015a6.53 6.53 0 0 1 .585-.45.013.013 0 0 1 .013-.001l.142.056Zm.098.208c-.094.048-.104.27-.108.376a1.82 1.82 0 0 0 .106.681h.003l.003-.001a4.248 4.248 0 0 1 .007-1.052.008.008 0 0 0-.002-.003.008.008 0 0 0-.009 0Zm-.2.076a.028.028 0 0 0 .007-.02.028.028 0 0 0-.01-.02v-.001a.029.029 0 0 0-.041.002l-.135.149a.029.029 0 0 0 .002.04l.001.001a.029.029 0 0 0 .04-.002l.136-.149Zm-.315.275a7.635 7.635 0 0 0-.71 1.067.025.025 0 0 0-.003.012c0 .013.006.022.016.027a.03.03 0 0 0 .04-.013c.21-.376.448-.732.715-1.07.028-.037-.027-.068-.049-.036a.453.453 0 0 1-.009.013Zm-.718 1.204a.028.028 0 0 0-.011-.038l-.003-.001a.028.028 0 0 0-.037.01l-.029.052a.027.027 0 0 0 .011.038l.003.001a.028.028 0 0 0 .038-.01l.028-.052ZM8.183 8.281c.04.37.21.845.57 1.015a.014.014 0 0 0 .015-.023 1.243 1.243 0 0 1-.277-.367.6.6 0 0 1-.044-.246c.002-.027.017-.048.045-.062a.02.02 0 0 1 .013-.002.183.183 0 0 1 .107.06c.074.084.15.166.228.245l.05.042c.137.163.296.303.474.418.372.24.887.335 1.29.128.17-.087.33-.244.385-.431a.015.015 0 0 1 .008-.01l.063-.03c.006-.001.008 0 .009.006.032.39-.22.66-.545.825a.012.012 0 0 0-.005.005.013.013 0 0 0 .004.018c.074.045.294-.052.36-.097.005-.003.008-.001.008.004.043 1.133.468 2.262 1.058 3.234.531.875 1.237 1.65 2.185 2.057.12.052.235.09.343.117.027.06.039.117.033.168l-.028.102a.016.016 0 0 1-.003.006.016.016 0 0 1-.005.005l-.047.022c-.05-.006-.098.006-.142.011a5.559 5.559 0 0 1-2.901-.405c-1.09-.463-2.018-1.269-2.688-2.24a.01.01 0 0 0-.004-.003.012.012 0 0 0-.006 0l-.005.001a.01.01 0 0 0-.003.004l-.221.448a2.494 2.494 0 0 1-.017-.198c0-.245.162-.378.356-.497.007-.004.006-.006-.002-.006a.485.485 0 0 0-.205.053c-.004.002-.006 0-.007-.003-.012-.07.12-.184.146-.225.114-.18-.165-.271-.277-.32a.013.013 0 0 1-.008-.01c-.03-.133-.082-.421-.256-.441-.047-.006-.104.015-.153.03a8.4 8.4 0 0 1-.352-.927.624.624 0 0 1-.022-.079.37.37 0 0 0 .114.034c.238.035.229-.32.215-.465a2.23 2.23 0 0 0-.28-.882c-.092-.165-.222-.34-.39-.406A11.273 11.273 0 0 1 7.32 7.84a.012.012 0 0 1 .007-.007h.005a.546.546 0 0 0 .294-.067.015.015 0 0 1 .02.005 1.233 1.233 0 0 0 .523.475.018.018 0 0 1 .003.006l.01.03Zm.283 2.587a.034.034 0 0 0 .036-.004.025.025 0 0 0 .009-.028 9.664 9.664 0 0 1-.503-2.324 41.951 41.951 0 0 1-.028-.316.025.025 0 0 0-.026-.013c-.02.003-.03.016-.028.037.053.907.23 1.786.532 2.64a.016.016 0 0 0 .008.008Zm-.699-1.786c-.045-.043-.128-.105-.196-.11h-.006a.012.012 0 0 0-.005.006c-.006.013-.003.026.01.04.207.196.35.493.445.753.011.03.017.03.017-.003-.002-.257-.079-.506-.265-.686Zm3.226.344a.049.049 0 0 0-.03-.045.048.048 0 0 0-.052.01.048.048 0 0 0-.015.035.048.048 0 0 0 .097 0Zm-1.267.19c.064.093.254.14.364.162.236.046.484.015.673-.133.033-.025.117-.113.068-.153a.025.025 0 0 0-.03-.002 1.204 1.204 0 0 1-1.072.118l-.003.001a.005.005 0 0 0 0 .006Zm1.07.956a.062.062 0 0 0 .032-.01.097.097 0 0 0 .028-.03.152.152 0 0 0 .019-.043.195.195 0 0 0-.02-.145c-.016-.025-.038-.039-.061-.039a.063.063 0 0 0-.033.01.096.096 0 0 0-.028.03.152.152 0 0 0-.019.043.2.2 0 0 0-.006.051c0 .035.01.07.026.094.016.025.038.039.061.039Zm1.43 3.216a3.552 3.552 0 0 0 .808.649c.002 0 .003 0 .003-.002a.005.005 0 0 0 .001-.003l-.001-.003c-.545-.513-1.04-1.141-1.37-1.814-.287-.584-.55-1.2-.72-1.829-.007-.023-.018-.038-.033-.046a.027.027 0 0 0-.01-.003c-.004 0-.007 0-.01.002a.024.024 0 0 0-.015.014.522.522 0 0 0-.036.183c-.005.252.032.497.11.736.252.769.719 1.52 1.272 2.116ZM8.58 11.033a.026.026 0 0 0-.014-.015.026.026 0 0 0-.01-.002c-.003 0-.007 0-.01.002l-.005.002a.026.026 0 0 0-.015.014.027.027 0 0 0 0 .02l.036.098a.027.027 0 0 0 .014.015.028.028 0 0 0 .02 0l.006-.002a.026.026 0 0 0 .015-.014.026.026 0 0 0 0-.02l-.037-.098Zm.036.256c.732 1.896 2.218 3.287 4.19 3.822.004.002.009.001.013-.001.013-.008.019-.019.017-.034a.026.026 0 0 0-.02-.022c-1.97-.552-3.403-1.894-4.146-3.79a.01.01 0 0 0-.01-.008H8.64a.024.024 0 0 0-.023.033Zm.009 1.522a.357.357 0 0 0-.096.298 1.103 1.103 0 0 1 .339-.395.007.007 0 0 0-.003-.007.332.332 0 0 0-.24.104Zm2.982 2.036c.005.11.196.152.17.018a.01.01 0 0 0-.008-.008.386.386 0 0 1-.106-.04c-.025-.012-.057-.004-.056.03Zm.116.266c.001.06.11.062.146.065.095.007.113.068.188.088.054.014.196.024.225-.04.019-.038-.009-.058-.046-.06-.115-.006-.167-.145-.299-.151-.043-.002-.088.037-.123.06a.013.013 0 0 1-.005.002l-.063.009a.027.027 0 0 0-.023.027Zm1.306.055c.373.092.757.148 1.154.167a.016.016 0 0 0 .011-.004c.013-.011.016-.025.008-.043a.014.014 0 0 0-.011-.008 6.42 6.42 0 0 1-1.14-.166c-.047-.011-.062.044-.022.054Zm-.551.002c0 .12.2.164.17.027a.01.01 0 0 0-.008-.008c-.042-.007-.126-.06-.156-.032a.016.016 0 0 0-.005.006.017.017 0 0 0-.001.007Zm1.89.136a.026.026 0 0 0-.026-.026h-.053c-.004 0-.007 0-.01.002a.024.024 0 0 0-.009.005.024.024 0 0 0-.006.009.025.025 0 0 0-.002.01v.005c0 .007.003.014.008.019a.026.026 0 0 0 .018.008h.054a.027.027 0 0 0 .018-.008.026.026 0 0 0 .008-.018v-.006Z" fill="#FFEC00"/><path fill-rule="evenodd" clip-rule="evenodd" d="m14.977 8.387-.02.187-.002.02c-.005.035-.01.069-.024.098a.192.192 0 0 1-.198.117 7.48 7.48 0 0 1-.799-.092l-.002.002v.005l.045.078a.016.016 0 0 0 .01.008c.17.045.228.183.182.35a.012.012 0 0 0 .003.013c.102.12.076.227-.004.352a.011.011 0 0 0 0 .012c.07.144-.053.238-.175.332l-.058.045a.014.014 0 0 0-.005.011l-.286.541v.002c-.042.152-.094.301-.16.448-.051.118-.12.227-.263.224-.026 0-.078-.01-.156-.026-.005-.001-.009 0-.01.005a2.356 2.356 0 0 1-.49.782c-.016.016-.022.04-.027.064a.213.213 0 0 1-.013.038c-.037.08-.104.112-.199.092-.004 0-.008 0-.011.004-.118.124-.243.208-.404.099-.033-.022-.064-.054-.095-.085a3.107 3.107 0 0 0-.018-.018c-.022-.022-.047-.037-.073-.053a.61.61 0 0 1-.05-.031h-.003l-.002.003v.002c.438.992 1.066 1.953 1.972 2.579l.3.184h.002c.175.1.358.178.55.239a.02.02 0 0 0 .013 0 6.97 6.97 0 0 0 .186-.076c.056-.024.097-.009.134.04l.166.225c.04.054.031.111-.008.161a.005.005 0 0 0 0 .003v.004l.003.001h.004l-.673.442c-.597.189-1.24.239-1.863.205a5.892 5.892 0 0 1-.408-.034l-.002.002v.003a.396.396 0 0 1-.013.062c-.1.363-.18.73-.236 1.103a6.046 6.046 0 0 0-.044.386v.002l.001.002.002.001h.002a8.11 8.11 0 0 0 .644-.038c.052-.005.098-.016.143-.027.097-.022.186-.043.303 0a.018.018 0 0 0 .018-.004c.206-.187.445-.238.706-.112h.004a.41.41 0 0 1 .496.083c.16.167.25.432.272.657.001.007.005.011.013.012l.01.001c.11.01.301.029.39.088a.023.023 0 0 1 .01.02.024.024 0 0 1-.011.02.322.322 0 0 1-.101.04 3.037 3.037 0 0 1-.353.053.017.017 0 0 0-.011.006c-.079.092-.227.117-.34.118a.014.014 0 0 0-.012.005c-.147.18-.578.13-.781.088a.019.019 0 0 0-.013.002.903.903 0 0 1-.546.08c-.192-.029-.383-.071-.573-.113a7.12 7.12 0 0 0-1.116-.174 5.142 5.142 0 0 1-.406-.053.553.553 0 0 1-.158-.052.023.023 0 0 1-.01-.03.023.023 0 0 1 .007-.009c.077-.057.277-.078.38-.088l.01-.001c.005 0 .007-.003.007-.008a.727.727 0 0 1 .33-.622.015.015 0 0 0 .006-.01.41.41 0 0 0 .001-.068c-.01-.13-.028-.262-.046-.394l-.026-.203c-.028-.229-.023-.387.084-.575a.018.018 0 0 0 0-.019 2.577 2.577 0 0 1-.21-.364l-.053-.104a.05.05 0 0 0-.031-.026 7.27 7.27 0 0 1-1.506-.634 1.323 1.323 0 0 1-.627 1.132l.003.009c.108.199.115.361.083.598-.029.216-.055.427-.073.646 0 .004.001.008.005.01.196.147.359.366.335.625 0 .005.001.008.006.008l.02.002c.116.014.26.03.36.082a.022.022 0 0 1 .011.016.023.023 0 0 1-.005.02c-.026.028-.088.041-.155.054a7.268 7.268 0 0 1-.614.076c-.13.012-.255.024-.368.04-.206.028-.428.078-.649.128-.086.02-.173.04-.257.057-.245.053-.532.082-.74-.047a.016.016 0 0 0-.011-.002c-.185.042-.375.05-.57.024a.344.344 0 0 1-.22-.113.015.015 0 0 0-.011-.005c-.11.004-.248-.02-.324-.103a.017.017 0 0 0-.012-.006 3.04 3.04 0 0 1-.383-.057.338.338 0 0 1-.104-.041.022.022 0 0 1-.001-.037.186.186 0 0 1 .054-.025c.124-.035.25-.057.378-.068.005 0 .008-.003.008-.007.022-.212.092-.405.21-.58.12-.18.348-.264.543-.153a.014.014 0 0 0 .013 0 .583.583 0 0 1 .691.105l.015.012a.01.01 0 0 0 .012.002.378.378 0 0 1 .26-.018.83.83 0 0 0 .145.036c.227.024.458.04.692.046.011 0 .016-.005.015-.015a8.818 8.818 0 0 0-.293-1.51.285.285 0 0 1 .008-.148c.143-.547.283-1.095.42-1.643a.012.012 0 0 0-.004-.012 7.092 7.092 0 0 1-.807-1.04 1.525 1.525 0 0 0-.183-.22l-.062-.065a.156.156 0 0 0-.053-.038 31.27 31.27 0 0 1-.523-.235 1.214 1.214 0 0 1-.194-.11c-.102-.073-.106-.166-.107-.286a.014.014 0 0 0-.006-.012c-.347-.257-.625-.67-.66-1.107-.002-.034-.012-.06-.022-.086a.368.368 0 0 1-.02-.061c-.024-.13.02-.23.135-.297a.24.24 0 0 0 .05-.042c.171-.18.352-.353.543-.518a.03.03 0 0 0 .01-.026 9.397 9.397 0 0 1 .117-2.804.01.01 0 0 0-.004-.011c-.22-.144-.33-.316-.341-.582-.022-.522.247-1.367.917-1.334a.018.018 0 0 0 .017-.011c.595-1.364 1.591-2.54 2.799-3.403a.014.014 0 0 0 .006-.011l.017-.408c.004-.08.027-.128.108-.14.188-.028.328-.046.42-.052.023-.002.046.008.07.031.09.09.179.179.267.27.07.07.066.103.021.184l-.196.349a.207.207 0 0 0-.025.073 4.508 4.508 0 0 0-.033 1.06c.01.115.044.366.122.437a.803.803 0 0 1 .08.084.023.023 0 0 0 .012.007c.383.118.735.288 1.057.513.176.122.298.255.387.45a4.272 4.272 0 0 1 .237.656.009.009 0 0 0 .006.001c.106-.008.215.016.272.11.16.265-.038.765-.153 1.023a.503.503 0 0 0 .017.343c.045.099.079.201.1.308.001.005.004.006.008.004.077-.043.165-.016.243.008l.017.005h.003a.006.006 0 0 0 .002 0l.002-.003v-.003a.27.27 0 0 1 .002-.142c.123-.4.247-.799.372-1.198l.01-.034c.031-.102.05-.162.152-.196a.017.017 0 0 0 .01-.009.18.18 0 0 1 .123-.1.01.01 0 0 0 .005-.002.01.01 0 0 0 .002-.005l.392-1.433a.017.017 0 0 0-.001-.012c-.035-.077.01-.21.043-.304l.015-.048c.052-.162.2-.112.332-.069l.007.002c.12.04.112.141.084.25a1.493 1.493 0 0 0-.013.052c-.017.079-.037.17-.1.215a.02.02 0 0 0-.007.012l-.39 1.427a.01.01 0 0 0 .004.01.164.164 0 0 1 .06.149c0 .004 0 .008.003.011.043.05.058.103.045.16l-.298 1.331c-.02.083-.043.134-.117.167a.013.013 0 0 0-.008.01.226.226 0 0 1-.058.126.01.01 0 0 0-.001.011l.02.04a.012.012 0 0 0 .007.007 26.905 26.905 0 0 1 .192.05c.09.024.143.038.184.12a.014.014 0 0 0 .01.009c.29.054.582.097.875.13.239.026.22.178.199.355a6.085 6.085 0 0 0-.006.05M9.958 2.035l.142.056-.106-.119a.017.017 0 0 1-.004-.012l.016-.38c0-.006.003-.007.008-.003l.187.137a.017.017 0 0 0 .01.003l.202-.01.004-.001a.006.006 0 0 0 .002-.004l-.001-.004a.007.007 0 0 0-.004-.003l-.18-.036a.029.029 0 0 1-.013-.006l-.154-.129v-.004h.002l.205-.03c.014-.001.024.008.034.017l.005.006a1.1 1.1 0 0 1 .137.146.069.069 0 0 1 .02.025.02.02 0 0 1 .017.017c.001.006 0 .012-.005.02a10.84 10.84 0 0 0-.213.391 9.721 9.721 0 0 1-.029.301 3.626 3.626 0 0 0 .04 1.141.007.007 0 0 1-.006.005l-.004-.001-.127-.082a.009.009 0 0 0-.009 0 .009.009 0 0 0-.003.002.01.01 0 0 0-.001.005l-.004.102-.001.005a.009.009 0 0 1-.014 0 1.255 1.255 0 0 0-.326-.264.02.02 0 0 0-.019 0 .019.019 0 0 0-.01.017.497.497 0 0 1-.069.252.007.007 0 0 1-.007 0 .555.555 0 0 0-.12-.16.013.013 0 0 0-.011.003.726.726 0 0 1-.218.28c-.035.028-.078.053-.124.08a1.278 1.278 0 0 0-.164.11.245.245 0 0 1-.068.032c-.316.11-.622.258-.916.442a1.755 1.755 0 0 0-.372.298.783.783 0 0 0-.157.282 2.854 2.854 0 0 0-.125.608.01.01 0 0 1-.01.004 1.133 1.133 0 0 0-.239-.139c-.003-.002-.005-.005-.003-.01.064-.155.135-.307.213-.456A8.11 8.11 0 0 1 9.338 2.5c.01-.002.018-.007.022-.015a6.53 6.53 0 0 1 .585-.45.013.013 0 0 1 .013-.001Zm-.49 1.849c.2-.06.3-.183.374-.365-.002-.01-.002-.017 0-.022.002-.005.005-.006.01-.003a.808.808 0 0 1 .348.48c.047-.034.046-.196.045-.269V3.69a.022.022 0 0 1-.005-.017c0-.005.003-.006.008-.003.155.12.292.25.37.435l.003.003.005.002h.004a.008.008 0 0 0 .003-.004.156.156 0 0 0 .025-.104v-.004l.002-.002.003-.002h.004c.326.114.637.26.918.459a.877.877 0 0 1 .326.377.004.004 0 0 1-.005.003l-.002-.001a1.184 1.184 0 0 0-.336-.286c-.24-.139-.512-.04-.758.05l-.13.047a.496.496 0 0 1-.338.009 11.376 11.376 0 0 1-.143-.043c-.396-.123-.87-.269-1.23-.031a.272.272 0 0 0-.031.025.22.22 0 0 1-.044.033 1.887 1.887 0 0 0-.598 1.037c-.06.287-.067.7.149.932.138.15.399.23.597.259a.004.004 0 0 1 .004.003.004.004 0 0 1-.002.004 2.814 2.814 0 0 0-.23.147.145.145 0 0 1-.054.023.742.742 0 0 0-.164.063c-.175.088-.05.284.024.398l.012.018a.477.477 0 0 1 .044.092c.133.364.483.692.813.893.29.17.604.275.942.312.321.035.619.024.921-.1h.002l.001.001v.002a1.681 1.681 0 0 1-.316.2c-.21.102-.453.103-.677.065a.416.416 0 0 1-.099-.006 5.408 5.408 0 0 1-1.436-.495c-.396-.2-1.09-.584-1.011-1.117.018-.127.06-.408-.035-.508-.005-.006-.008-.005-.009.003l-.026.232c-.017.273-.15.55-.483.444-.12-.038-.167-.132-.218-.233l-.027-.054c-.02-.038-.06-.073-.098-.075-.247-.014-.565-.138-.645-.393a.784.784 0 0 1-.024-.255c.015-.404.248-1.13.8-1.006.33.074.532.43.641.72a.011.011 0 0 0 .02.002c.027-.044-.026-.21-.043-.26a1.027 1.027 0 0 0-.16-.31.017.017 0 0 1-.003-.012c.02-.263.066-.535.17-.767.077-.169.26-.304.432-.414.243-.155.51-.29.804-.404a.115.115 0 0 1 .034-.01l.01-.003c.004-.002.007 0 .009.004.005.016.006.03.007.045.003.027.005.052.032.073a1.24 1.24 0 0 0 .042-.105c.036-.097.127-.15.231-.21l.003-.002a.803.803 0 0 0 .285-.254.01.01 0 0 1 .014.006l.027.071a.01.01 0 0 1-.003.012c-.055.06-.116.112-.183.158-.011.008-.01.015.001.021.011.006.027.006.048 0Zm4.72.146-.121-.033a.014.014 0 0 1-.009-.007.016.016 0 0 1-.002-.005v-.006l.054-.194c.003-.01.009-.02.017-.026a.03.03 0 0 1 .026-.005l.084.023a.029.029 0 0 1 .011.006.034.034 0 0 1 .009.012c.002.004.003.01.003.015 0 .005 0 .01-.002.016l-.053.194a.014.014 0 0 1-.017.01Zm-.482 1.605-.037-.007c-.008-.001-.01-.006-.01-.014a90.429 90.429 0 0 1 .278-1.023c.017-.06.035-.13.053-.202.028-.105.056-.216.087-.318a.01.01 0 0 1 .002-.004.01.01 0 0 1 .008-.004h.005l.04.015a.01.01 0 0 1 .005.004 75.849 75.849 0 0 1-.406 1.513.24.24 0 0 1-.013.034c-.003.005-.007.007-.012.006Zm-5.344.594a1.671 1.671 0 0 1 .208-1.059c.122-.216.344-.498.581-.59.302-.116.7.009 1.028.112l.098.03c.15.047.255.054.399.008.048-.015.097-.033.146-.05a1.98 1.98 0 0 1 .46-.121c.338-.031.672.434.793.697.026.058.05.13.072.217l.008.032c.038.146.061.238.012.372a7.622 7.622 0 0 0-.14.417.296.296 0 0 0 .032.247c.075.126.148.253.218.38.005.009.003.01-.005.006a1.11 1.11 0 0 0-.52-.17l-.002.003v.003l.004.003c.204.069.44.164.569.329.091.117.072.249.016.388a2.902 2.902 0 0 1-.434.697 1.456 1.456 0 0 1-.852.543 1.095 1.095 0 0 1-.16.023c-.814.056-1.614-.288-2.054-.985a.006.006 0 0 1 0-.007.006.006 0 0 1 .008-.001c.034.021.19.1.224.075l.002-.002v-.001a.004.004 0 0 0 0-.002L9.07 7.82c-.17-.111-.438-.353-.479-.557-.03-.159.353-.16.525-.16l.07-.001a.008.008 0 0 0 .007-.007.008.008 0 0 0-.004-.008.735.735 0 0 0-.216-.06c-.012 0-.013-.005-.003-.012.15-.098.31-.173.48-.224a3.36 3.36 0 0 1 .387-.093.006.006 0 0 0 0-.008.006.006 0 0 0-.004-.002c-.2-.028-.446.039-.631.112a1.37 1.37 0 0 1-.605-.179c-.142-.09-.21-.229-.236-.393Zm3.878-.242a.55.55 0 0 1 .109-.165.304.304 0 0 1 .13-.094v-.004s0-.002-.002-.003h-.003a.234.234 0 0 0-.166.064c-.004.004-.006.003-.005-.002a.699.699 0 0 0-.028-.215V5.56a.01.01 0 0 1 .006-.004c.14-.052.258-.01.266.152 0 .008 0 .014.003.017.008.253-.087.53-.192.755a.505.505 0 0 0-.032.3l-.002.002h-.003l-.001-.002-.08-.134a.018.018 0 0 1-.003-.013c.008-.08.03-.165.048-.238a2.04 2.04 0 0 0 .023-.099.632.632 0 0 0-.116.255c-.001.005-.003.006-.006.002a.51.51 0 0 1-.06-.113c-.032-.1.052-.233.135-.284a.01.01 0 0 0 .003-.005.01.01 0 0 0 0-.006.01.01 0 0 0-.004-.005.01.01 0 0 0-.006-.001l-.068.012c-.003 0-.005 0-.003-.004l.057-.16Zm1.17-.142c-.002-.005-.001-.01.003-.014a.05.05 0 0 1 .01-.036.012.012 0 0 1 .005-.004h.007l.375.089c.016.004.023.014.02.03l-.303 1.348v.002l-.002.003-.001.002a.013.013 0 0 1-.013.003l-.45-.12a.151.151 0 0 1-.042-.017c-.009-.005-.012-.013-.009-.023a342.703 342.703 0 0 0 .386-1.243c.002-.007.003-.012.014-.02ZM7.11 9.464l-.206.168-.41.347a.007.007 0 0 1-.01-.001 8.996 8.996 0 0 1 .127-2.736l.003-.003a.009.009 0 0 1 .006 0c.022.004.044.01.066.016.035.01.07.019.105.023.038.006.077.012.115.02a.014.014 0 0 1 .01.008l.057.116a.424.424 0 0 0 .36.25c.144.011.253-.005.354-.108a.008.008 0 0 1 .012 0 .008.008 0 0 1 .002.004c.052.265.243.488.455.645.025.018.028.04.026.068.04.37.21.845.57 1.015a.014.014 0 0 0 .015-.023 1.243 1.243 0 0 1-.278-.367 1.448 1.448 0 0 1-.146-.557.003.003 0 0 1 .002 0l.081.048c.047.028.094.056.138.087a.034.034 0 0 1 .01.012c.08.142.172.276.276.401l.039.046c.137.163.295.303.474.418.371.24.886.335 1.29.128.17-.087.33-.244.385-.431a.014.014 0 0 1 .008-.01l.063-.03c.005-.001.008 0 .008.006.033.39-.219.66-.544.825a.013.013 0 0 0-.007.011c0 .003 0 .005.002.007a.012.012 0 0 0 .004.005c.074.045.294-.052.36-.097.005-.003.007-.001.008.004.043 1.133.468 2.262 1.058 3.234.53.875 1.237 1.65 2.185 2.057.12.052.235.09.342.117a.622.622 0 0 0 .177-.057.01.01 0 0 1 .005.004l.095.133v.003a.01.01 0 0 1 0 .008l-.079.168a.013.013 0 0 1-.012.007h-.098a.01.01 0 0 1-.006-.002.011.011 0 0 1-.004-.004l-.045-.092-.027.102a.016.016 0 0 1-.009.01l-.046.023a4.457 4.457 0 0 1-1.527.278 4.933 4.933 0 0 1-.499-.011 7.18 7.18 0 0 1-3.102-.94c-.005-.003-.006-.007-.003-.011l.007-.014a.01.01 0 0 1 .006-.005.01.01 0 0 1 .008 0c.1.046.315.106.334-.065-.014-.264-.433-.627-.622-.766a2.37 2.37 0 0 0-.452-.26c-.086-.038-.275-.098-.358-.045-.107.07-.013.232.043.302.01.013.013.04.001.05-.005.004-.01.003-.014-.001a6.64 6.64 0 0 1-.579-.72c-.005-.008-.003-.01.005-.007.188.06.539.152.667-.064l.018-.077c.002-.007.004-.007.006 0a.536.536 0 0 0 .09.172 2.485 2.485 0 0 1-.016-.198c0-.245.162-.378.356-.497.007-.004.006-.006-.002-.006a.484.484 0 0 0-.205.053c-.004.002-.006 0-.007-.003-.009-.05.057-.124.105-.176a.467.467 0 0 0 .041-.05c.103-.162-.116-.252-.241-.305a1.52 1.52 0 0 1-.036-.015.013.013 0 0 1-.008-.009 6.001 6.001 0 0 1-.006-.027c-.032-.142-.088-.395-.25-.414-.042-.005-.09.01-.135.024a4.54 4.54 0 0 0-.567.259.014.014 0 0 1-.018-.005 50.71 50.71 0 0 1-.301-.506.16.16 0 0 0-.125-.077.436.436 0 0 0-.288.063.01.01 0 0 1-.005 0 .011.011 0 0 1-.007-.008 7.065 7.065 0 0 1-.172-.636.02.02 0 0 1 .009-.021l.442-.298.281-.192H7.36l.001.002v.001c.082.164.19.322.349.418a.37.37 0 0 0 .114.034c.238.035.228-.32.215-.465a2.23 2.23 0 0 0-.28-.882c-.092-.165-.222-.34-.39-.406-.276-.066-.266.28-.25.447a.17.17 0 0 1-.002.041.017.017 0 0 1-.006.011Zm6.29-2.14h.001c.009-.001.016.002.021.01a.014.014 0 0 1 .002.012l-.025.09c-.002.008-.007.011-.015.01l-.307-.086c-.006-.002-.009-.006-.007-.013l.026-.085c.003-.012.011-.017.023-.015.1.017.194.042.28.077Zm-.742.036c0 .004.001.001.002-.008.004-.021.025-.024.062-.009l.301.084c.004 0 .009 0 .014.002a.016.016 0 0 1 .01.007c.005.01.003.021-.006.034a.019.019 0 0 1-.022.007l-.306-.086c-.015-.004-.025.001-.03.016l-.392 1.066c-.002.004 0 .008.005.01l.152.071c.004.002.006.005.005.01l-.014.046c-.002.01-.008.012-.017.008l-.182-.084a.014.014 0 0 0-.016.003.013.013 0 0 0-.003.004l-.07.157a.013.013 0 0 0 .003.015l.19.162a.014.014 0 0 1 .006.015l-.008.03a.011.011 0 0 1-.018.006l-.231-.202a.013.013 0 0 1-.004-.006V8.71l.362-.859.173-.422c.002-.006.005-.01.008-.013a.116.116 0 0 1 .026-.056Zm.634.146v.003l-.01.034a.009.009 0 0 1-.01.006l-.148-.04a.009.009 0 0 1-.006-.005.01.01 0 0 1 0-.003v-.003l.009-.034c0-.003.002-.004.004-.006a.009.009 0 0 1 .007 0l.147.04.002.001.001.001a.01.01 0 0 1 .004.006Zm-.136.887-.113-.125a.009.009 0 0 0-.004-.003h-.004a.008.008 0 0 0-.003.002.007.007 0 0 0-.003.004l-.306.976a.013.013 0 0 1-.014.01.012.012 0 0 1-.005-.003l-.306-.208a.02.02 0 0 1-.008-.022l.47-1.488a.025.025 0 0 1 .03-.017l.46.133a.026.026 0 0 1 .017.032l-.194.705a.01.01 0 0 1-.002.005.01.01 0 0 1-.015 0Zm.428.06-.224-.056a.01.01 0 0 0-.01.003.102.102 0 0 1-.104.031c-.003 0-.003-.001-.003-.003l.177-.648.003-.006a.018.018 0 0 1 .018-.006l.311.083a.016.016 0 0 1 .012.019l-.128.552a.041.041 0 0 1-.02.026.043.043 0 0 1-.032.005Zm1.124.129a8.307 8.307 0 0 1-.98-.13c-.013-.002-.017-.009-.014-.02l.093-.418a.288.288 0 0 1 .018-.054c.002-.004.005-.006.009-.005.328.06.657.11.989.146a.029.029 0 0 1 .025.032l-.046.413c-.005.045-.045.04-.079.037a.454.454 0 0 0-.015-.001Zm-2.745.327a7.971 7.971 0 0 1 .22.197l.002.007c0 .045.019.079.059.1a.011.011 0 0 1 .004.005v.006l-.03.194a.087.087 0 0 1-.008.023l-.561 1.208-.002.002-.001.001a.007.007 0 0 1-.004.001l-.004-.001a.643.643 0 0 1-.18-.49c-.039-.208-.106-.401-.262-.551-.003-.004-.004-.008-.002-.012a.94.94 0 0 0 .115-.546l.001-.01a3.436 3.436 0 0 0 .758-.729l.002.002v.003c-.048.11-.095.22-.14.332-.044.104-.055.182.033.258Zm.9.155.2-.64c0-.001 0-.002.002-.003a.008.008 0 0 1 .012 0l.12.13a.013.013 0 0 1 .003.006v.006c-.03.205-.153.328-.284.461a7.313 7.313 0 0 0-.047.046h-.004v-.001l-.002-.002v-.003Zm.232-.12.035-.035a.71.71 0 0 0 .153-.379.027.027 0 0 1 .012-.02.027.027 0 0 1 .024-.002c.076.029.121.149.117.225-.003.076-.022.187-.112.2a.009.009 0 0 0-.005.002.009.009 0 0 0-.003.006v.01c-.002.096-.004.197-.045.285-.002.004 0 .007.003.01a.54.54 0 0 1 .202.527l.004.002h.004a.596.596 0 0 0 .09-.16h.003l.002.002c.053.07.108.138.166.205.018.02.015.029.008.049l-.002.006a.536.536 0 0 1-.32.345.014.014 0 0 0-.003.006v.008a.013.013 0 0 0 .005.005.152.152 0 0 0 .072.028c.005 0 .006.003.005.008-.05.207-.122.401-.214.584-.017.033-.044.04-.081.035a.778.778 0 0 1-.385-.162.711.711 0 0 1-.284-.437c-.007-.047.009-.072.046-.102.078-.064.144-.133.21-.201.04-.041.079-.082.12-.12.004-.005.007-.004.009.001.02.059.069.164.126.193.007.004.01.002.008-.006a6.057 6.057 0 0 0-.222-.766c-.027-.072.162-.261.252-.352Zm.398-.38c.135-.105.237.231.037.252-.018.002-.026-.006-.024-.024a.471.471 0 0 0-.02-.204.02.02 0 0 1 .007-.024Zm-3.093.892a1.18 1.18 0 0 1-.584-.02c-.438-.13-.794-.456-1.041-.843V8.59a.004.004 0 0 1 .004-.003c.221.11.45.207.684.291.45.162.947.283 1.422.216.005 0 .007.001.005.006-.076.18-.31.316-.49.355Zm3.119-.446c.045-.068.097-.132.154-.192.072-.073.181-.094.178.045-.004.123-.177.277-.282.338-.008.006-.02.008-.038.006a.065.065 0 0 1-.034-.014c-.067-.054-.033-.105.008-.163l.014-.02Zm-.134.232-.013-.014a.015.015 0 0 1-.004-.012.916.916 0 0 0 .004-.036c.005-.07.014-.183.058-.21.014-.01.034-.038.057-.087a.011.011 0 0 1 .006-.006.012.012 0 0 1 .008 0l.015.003c.006.001.007.004.004.009-.035.049-.069.1-.101.151-.067.109-.012.168.072.232a.017.017 0 0 1 .006.012l.023.128v.003l-.002.001h-.004a.43.43 0 0 1-.043-.063l-.018-.028c-.027-.038-.05-.062-.068-.083Zm.196.03a.755.755 0 0 0 .316-.32c.016-.034.034-.044.07-.037.095.018.09.125.046.192a.84.84 0 0 1-.344.307c-.087.024-.102-.07-.095-.13 0-.005.003-.009.007-.011Zm-1.145-.012.005-.045a.044.044 0 0 1 .007-.033c.003-.005.007-.006.011-.002l.122.086a.01.01 0 0 1 .003.012l-.072.146c-.002.004-.006.006-.01.005a.158.158 0 0 1-.078-.037l.003-.065a.084.084 0 0 1 .009-.067ZM6.53 11.691a1.294 1.294 0 0 0-.136.257l-.023.054a.009.009 0 0 1-.002.003.008.008 0 0 1-.004.002.01.01 0 0 1-.004 0 .01.01 0 0 1-.004-.001c-.307-.234-.569-.616-.574-1.008a.192.192 0 0 0-.024-.075c-.021-.046-.042-.089.017-.119a.228.228 0 0 0 .062-.044c.1-.11.182-.193.244-.25a19.97 19.97 0 0 1 1.057-.915c.006-.004.01-.003.012.003a.14.14 0 0 0 .078.077.017.017 0 0 0 .02-.006.863.863 0 0 1 .226-.474.01.01 0 0 1 .012 0 .168.168 0 0 1 .027.027c.09.113.161.227.213.344.105.215.168.441.187.679a.652.652 0 0 1-.016.32c-.02.063-.1.032-.136.01a.843.843 0 0 1-.298-.373c-.005-.01-.002-.019.008-.025.106-.06.204.02.256.104a.041.041 0 0 0 .018.015h.006v-.002l.002-.001v-.003c-.019-.123-.11-.268-.247-.245a.542.542 0 0 0-.17.086c-.109.072-.216.144-.323.217-.254.171-.507.343-.77.498-.05.03-.11.053-.147-.001-.018-.005-.029-.018-.035-.04a.012.012 0 0 0-.01-.01c-.004 0-.006.001-.008.003a.012.012 0 0 0-.005.006c-.008.028-.002.06.021.096.05.047.117.066.2.056.02-.002.024.017.028.033l.001.007c.06.23.14.452.244.666.005.01.004.02-.003.03Zm7.177-2.218c.057-.029.115-.066.173-.111l.148-.15a.01.01 0 0 1 .012-.002c.072.033.065.093.028.151a.513.513 0 0 1-.247.198c-.066.012-.106-.013-.12-.076 0-.004.002-.007.006-.01Zm-1.627 2.288-.64-.24a.008.008 0 0 1-.003-.002l-.002-.003v-.003a.01.01 0 0 1 0-.004l.944-2.034c.003-.006.008-.008.014-.005l.077.033a.012.012 0 0 1 .008.01.277.277 0 0 1 0 .051c-.092.875-.152 1.428-.177 1.66a.286.286 0 0 1-.02.07l-.184.46a.013.013 0 0 1-.007.007.013.013 0 0 1-.01 0Zm1.57-2.221c.015.025.03.053.058.069.102.059.215-.014.295-.075.005-.003.01-.003.013.002l.017.025c.004.005.003.01-.001.013l-.227.19a.009.009 0 0 1-.006.003.009.009 0 0 1-.005-.003l-.218-.279c-.007-.009-.005-.012.006-.01.035.005.051.034.068.065Zm-.979-.035.003.001c.017.012.03.022.037.042.023.072.045.144.066.217.002.005 0 .01-.003.013l-.173.188a.007.007 0 0 1-.012-.006l.04-.352a.246.246 0 0 1 .026-.08.908.908 0 0 0 .014-.023h.002Zm-1.342 1.768a5.689 5.689 0 0 1-.224-.972 3.443 3.443 0 0 1-.045-.614.006.006 0 0 1 .005-.003h.003c.108.05.223.336.223.46 0 .005-.002.009-.007.011a.194.194 0 0 0-.07.06c-.012.015-.008.025.01.029l.034.006c.042.008.069.012.09.072.076.206.158.409.247.61a.062.062 0 0 1 0 .052l-.126.266-.07.15a.01.01 0 0 1-.007.005.009.009 0 0 1-.009-.004c-.024-.037-.036-.073-.05-.114 0-.004-.002-.01-.004-.014Zm1.151.398-.057-.21a2.128 2.128 0 0 0-.01-.035.52.52 0 0 1-.035-.183 7.03 7.03 0 0 1 .043-.399c0-.003.002-.007.005-.01l.177-.173c.004-.003.007-.003.01 0l.018.017a1.159 1.159 0 0 0 .294.233.492.492 0 0 1-.02.07c-.094.242-.233.505-.416.692l-.002.002h-.003l-.003-.002-.001-.002Zm-.1.203-.204-.075a.006.006 0 0 1-.004-.003v-.005c.041-.123.088-.244.142-.362.005-.012.01-.012.017-.001a.21.21 0 0 1 .018.048l.058.223a.257.257 0 0 1-.015.17c-.002.006-.006.008-.012.005Zm-5.936.369a.807.807 0 0 1 .12-.419c.083-.15.315-.418.528-.359a.056.056 0 0 1 .03.025 316.409 316.409 0 0 0 .296.499.398.398 0 0 0-.074.14.015.015 0 0 0 .013.02c.003 0 .006 0 .008-.002l.185-.094c.215-.11.44-.226.653-.287.088-.025.154.224.164.28.001.005 0 .007-.006.007h-.018c-.06-.002-.206-.005-.246.028-.005.004-.005.007.001.01.021.011.043.02.065.026.159.041.389.107.518.209a.032.032 0 0 1 .006.044c-.02.025-.04.048-.06.07-.07.079-.132.148-.097.282.001.006 0 .01-.004.014a.416.416 0 0 0-.118.205.02.02 0 0 1-.007.01.23.23 0 0 0-.1.175c-.035.193-.421.084-.538.043-.109-.038-.22-.151-.3-.234a8.11 8.11 0 0 1-.358-.405c-.004-.004-.008-.004-.012 0a.1.1 0 0 0-.028.064c0 .006-.003.008-.009.005l-.063-.027a4.25 4.25 0 0 1-.518-.251c-.021-.013-.032-.039-.031-.078Zm5.204-.557c.184.061.366.126.55.206.006.003.007.006.005.011a.247.247 0 0 1-.115.104.017.017 0 0 1-.013 0 .182.182 0 0 1-.09-.063.41.41 0 0 0-.134-.11 1.366 1.366 0 0 1-.208-.144v-.002l.002-.001.003-.001ZM8.2 17.483l.07-.188-.043.076-.002.002h-.003l-.003-.001v-.003a9.66 9.66 0 0 0-.233-1.244c0-.005 0-.008.005-.01a.22.22 0 0 0 .072-.067.011.011 0 0 0-.001-.015.011.011 0 0 0-.005-.003l-.007-.002c-.072-.023-.138-.044-.111-.144.143-.519.273-1.042.402-1.565l.136-.544c.001-.005.004-.006.009-.005.129.045.255.105.377.182.177.111.333.242.471.393l.086.093a.02.02 0 0 1 .003.024c-.26.443-.507.892-.741 1.348-.098.19-.172.307-.342.402a.01.01 0 0 0-.004.005.01.01 0 0 0 .002.012.011.011 0 0 0 .005.003.328.328 0 0 0 .146.007c.005-.001.009 0 .012.005.091.145.11.268.089.444l-.07.563a.156.156 0 0 1-.02.065.45.45 0 0 0 .082.22c.004.006.002.008-.004.007-.07-.015-.112-.104-.134-.164a.025.025 0 0 0-.014-.014c-.022-.008-.032.006-.035.025a.267.267 0 0 1-.08.167c-.004.004-.006.003-.005-.003v-.012c.004-.032.01-.097-.018-.104a.016.016 0 0 0-.013.003l-.072.047c-.008.006-.01.004-.007-.005Zm3.03.064c.075-.089.137-.168.153-.293l-.066.122c-.006.011-.01.01-.011-.002-.023-.22-.05-.44-.08-.663-.024-.18-.011-.309.083-.456.002-.003.005-.005.01-.004.051.004.102 0 .152-.013.022-.006.023-.014.004-.026a.62.62 0 0 0-.037-.02c-.024-.014-.049-.027-.069-.045-.14-.126-.22-.294-.299-.461l-.01-.024a.008.008 0 0 1 .005-.011h.004l.495.115.262.043.004.002h.002a.014.014 0 0 1 .004.006c.039.084.043.193-.081.2a.015.015 0 0 0-.012.024l.06.094a.013.013 0 0 1 .002.01c-.098.38-.171.764-.22 1.154l-.016.087.028.11v.005a.006.006 0 0 1-.006.004l-.003-.001-.068-.048a.023.023 0 0 0-.011-.004c-.005 0-.009.001-.012.003a.022.022 0 0 0-.012.02l.001.096v.003l-.003.002h-.005c-.042-.03-.05-.057-.061-.095l-.012-.035a.026.026 0 0 0-.008-.01.025.025 0 0 0-.012-.006c-.005 0-.01 0-.013.003a.024.024 0 0 0-.01.009.299.299 0 0 1-.126.116h-.002a.007.007 0 0 1-.004-.003.007.007 0 0 1-.001-.004l.001-.004Zm-5.26.59c.02-.19.088-.36.203-.51.128-.175.314-.243.514-.13a.781.781 0 0 1 .138.116c.003.003.003.006 0 .009a.894.894 0 0 0-.239.535l.01.145c0 .003 0 .006-.002.009a.013.013 0 0 1-.008.005 1.27 1.27 0 0 1-.488.02c-.119-.021-.141-.088-.129-.2Zm2.304-.537c.067.03.128-.085.146-.138l.002-.012a.007.007 0 0 1 .002-.004.007.007 0 0 1 .004-.002l.004.001.003.004c.022.06.06.102.114.127.036.017.06.03.068.036.122.088.241.257.233.413-.003.05-.032.07-.078.075a.84.84 0 0 1-.158.037 4.306 4.306 0 0 0-.448.053c-.31.06-.502.1-.578.12-.185.05-.774.19-.889-.022a.2.2 0 0 1-.018-.104.719.719 0 0 1 .197-.473c.26-.3.559.09.7.277a.007.007 0 0 0 .009.002.008.008 0 0 0 .005-.008.458.458 0 0 0-.158-.314.007.007 0 0 1 .003-.008 1.071 1.071 0 0 1 1.039.118.256.256 0 0 0-.223-.16c-.006-.002-.01-.005-.01-.01l-.009-.084a.01.01 0 0 1 .006-.01l.027-.018h.006a.006.006 0 0 1 .003.006l-.01.085a.012.012 0 0 0 .008.013Zm4.948.697a.827.827 0 0 0-.037-.351.94.94 0 0 0-.191-.323c-.003-.003-.003-.006 0-.01.15-.156.338-.227.532-.09.167.117.33.502.3.7-.008.063-.038.09-.101.1-.166.03-.331.025-.496-.017-.005-.001-.007-.004-.007-.01Zm-7.57-.125c-.058-.07.038-.353.076-.433.038-.093.11-.22.207-.26a.175.175 0 0 1 .2.033c.003.003.003.006 0 .01a1.16 1.16 0 0 0-.258.568l-.003.107a.015.015 0 0 1-.003.01.015.015 0 0 1-.01.004c-.053.007-.174.006-.21-.039Zm8.292.021a1.368 1.368 0 0 0-.037-.245 1.375 1.375 0 0 0-.223-.43.014.014 0 0 1 .007-.015c.124-.077.247.002.31.115a.98.98 0 0 1 .157.462l-.007.084a.013.013 0 0 1-.008.01.36.36 0 0 1-.187.032c-.008 0-.012-.005-.012-.013Zm-2.609-.654.018-.014a.048.048 0 0 1 .019-.024c.005-.004.008-.003.01.003a.171.171 0 0 0 .112.12c.005.002.006.004 0 .007a.49.49 0 0 0-.137.11.09.09 0 0 0-.015.038v.002l.003.002h.006a.683.683 0 0 1 .172-.057c.077-.012.125-.018.146-.02.293-.009.514-.02.664-.032.006 0 .007.002.003.006a.513.513 0 0 0-.13.306.011.011 0 0 0 .005.004c.002.001.005.002.007.001a.01.01 0 0 0 .005-.003c.022-.023.047-.05.073-.08.162-.183.4-.452.63-.192a.769.769 0 0 1 .193.502c-.018.255-.54.164-.69.13-.242-.056-.483-.107-.725-.154a5.655 5.655 0 0 0-.406-.057l-.166-.02h-.001c-.05-.007-.164-.022-.166-.088-.005-.162.13-.38.286-.439.037-.014.058-.03.084-.051Zm.193.066.001-.003.001-.003v-.002l-.009-.077v-.003l.003-.003a.006.006 0 0 1 .003-.001h.004l.024.015a.012.012 0 0 1 .007.012l-.006.06a.016.016 0 0 1-.013.014c-.003.001-.006 0-.009-.001a.013.013 0 0 1-.006-.008Z" fill="#030304"/><path d="m9.995 2.334-.001-.001a.029.029 0 0 0-.04.002l-.135.149c-.011.011-.01.03.002.04v.001c.013.01.03.01.041-.002l.135-.149a.029.029 0 0 0-.002-.04ZM9.692 2.636c.021-.032.077 0 .048.036a8.03 8.03 0 0 0-.715 1.07.03.03 0 0 1-.04.013c-.01-.005-.015-.014-.015-.027 0-.004 0-.008.003-.012a7.635 7.635 0 0 1 .719-1.08ZM8.953 3.815l-.003-.001a.028.028 0 0 0-.037.01l-.029.052a.027.027 0 0 0 .011.038l.003.001c.014.007.03.003.038-.01l.028-.052a.028.028 0 0 0-.011-.038ZM9.822 5.161c-.235-.01-.455.03-.66.118-.107.05-.201.115-.281.193a.022.022 0 0 1-.012.006c-.054.009-.076-.028-.064-.078.101-.396.536-.624.92-.61.111.005.201.038.27.1.063.057.046.2.013.266a.028.028 0 0 1-.03.017l-.156-.012ZM11.73 5.322a1.284 1.284 0 0 0-.567.087l-.153.057a.01.01 0 0 1-.012-.003c-.078-.078-.114-.202-.024-.288a.534.534 0 0 1 .264-.137c.31-.064.646.015.833.287.035.05-.005.096-.061.072a.982.982 0 0 0-.28-.075ZM11.635 5.67a.555.555 0 0 1 .3.255h.005l.001-.003a.208.208 0 0 0 .003-.125.003.003 0 0 1 .004-.001l.001.001c.035.05.06.18-.002.221a.028.028 0 0 1-.023.004.028.028 0 0 1-.017-.015c-.12-.251-.377-.379-.635-.226a.665.665 0 0 0-.237.25c-.08-.015-.077-.15-.061-.208a.326.326 0 0 1 .065-.107c.01-.01.011-.01.006.003a.298.298 0 0 0-.018.193c.002.007.005.008.009.002.144-.193.354-.307.599-.244ZM6.514 6.772a.491.491 0 0 1 .047-.283.004.004 0 0 1 .005.001v.003c0 .07-.008.15 0 .21.046.302.303.271.53.27.079 0 .112.016.13.093.021.086.056.335.157.35.074.011.103-.04.114-.106a.453.453 0 0 0-.028-.252c-.03-.088-.094-.151-.152-.22-.145-.168.14-.41-.029-.63-.143-.188-.358-.017-.41.142l-.032.085c0 .003-.002.004-.005.004-.004 0-.007-.003-.007-.007-.005-.214.192-.477.43-.346.02.011.027.006.017-.016a.669.669 0 0 0-.222-.287.266.266 0 0 0-.173-.053c-.32.003-.425.374-.455.626 0 .002 0 .003-.002.004a.006.006 0 0 1-.007 0 .006.006 0 0 1-.002-.004c-.029-.281.098-.684.438-.696.33-.012.536.371.567.647.013.116-.046.284-.079.405-.016.06.106.164.13.2a.543.543 0 0 1 .078.467c-.02.075-.099.12-.175.114-.104-.008-.155-.107-.173-.2a4.789 4.789 0 0 0-.05-.22.038.038 0 0 0-.036-.03c-.105-.003-.198.012-.316-.007-.158-.026-.254-.114-.29-.264ZM9.97 5.747a.721.721 0 0 1 .259.223.007.007 0 0 0 .007-.002.236.236 0 0 0-.017-.152c-.003-.008-.002-.009.004-.002a.205.205 0 0 1 .038.233c-.01.025-.038.036-.057.012a3.638 3.638 0 0 0-.063-.08c-.242-.299-.664-.287-.923-.015a.943.943 0 0 0-.194.3c-.004.011-.016.017-.034.017-.048-.013-.071-.106-.074-.148a.416.416 0 0 1 .107-.303h.001v.002a.418.418 0 0 0-.033.317c.003.006.005.006.008 0 .189-.37.565-.573.97-.402ZM13.447 5.861l-.014-.028.003-.004c.002-.003.005-.003.009-.003l.356.085c.006.002.008.006.006.011l-.005.013c-.002.005-.005.007-.01.006l-.345-.08Z" fill="#030304"/><path d="m11.708 5.948-.002-.002V5.94l.003-.001c.071-.014.16.022.187.097v.003a.005.005 0 0 1-.005.003h-.003a.64.64 0 0 0-.18-.094ZM11.048 6.061c-.002-.008-.003-.013-.001-.016a.264.264 0 0 1 .162-.104.006.006 0 0 1 .008.009.007.007 0 0 1-.003.003l-.166.108ZM13.438 5.978l.318.076c.004 0 .006.003.006.007.001.017-.005.024-.02.021a5.214 5.214 0 0 1-.311-.075l.007-.029ZM10.035 5.995v-.002c.006-.007.02-.008.038-.003a.225.225 0 0 1 .062.031l.002.001a.265.265 0 0 1 .052.048c.006.007.01.014.011.02.002.007.002.012 0 .015h-.002v.001l-.163-.11ZM9.037 6.31a.248.248 0 0 1 .191-.168l.002.002a.004.004 0 0 1-.002.006.953.953 0 0 0-.184.167.006.006 0 0 1-.007-.008ZM8.685 6.184v-.001c.079-.045.176 0 .209.08.003.006.001.008-.005.003a.491.491 0 0 0-.204-.082ZM13.387 6.162l.329.078c.003 0 .006.002.008.005a.014.014 0 0 1 0 .017.015.015 0 0 1-.007.006.033.033 0 0 1-.018 0l-.307-.07c-.005-.001-.008-.003-.009-.006a.051.051 0 0 1-.003-.012.027.027 0 0 0 .007-.018ZM10.925 6.273h-.127c-.178.004-.594.027-.688.22-.073.152.14.267.266.304.01.003.01.005-.001.006a.145.145 0 0 1-.054-.005 1.968 1.968 0 0 1-.131-.05c-.134-.062-.2-.212-.103-.34a.387.387 0 0 1 .124-.105c.264-.129.604-.135.89-.1.163.021.481.109.49.322.004.12-.107.213-.213.249h-.001V6.77c.067-.04.138-.102.16-.177.08-.264-.465-.32-.612-.32ZM8.76 6.263c.064 0 .12.017.17.051.007.004.006.006-.001.006l-.113-.007c-.116.001-.164.035-.242.115-.005.006-.007.005-.005-.003.022-.1.086-.154.191-.162ZM13.33 6.345l.338.081.004.002a.009.009 0 0 1 .003.006l-.001.004-.006.011c-.003.006-.007.008-.013.006l-.318-.074a.011.011 0 0 1-.009-.008.038.038 0 0 1 .002-.023v-.005Z" fill="#030304"/><path d="M10.49 6.428a.52.52 0 0 1 .202.083c.094.063.26.195.351.116.08-.07.29-.271.391-.175.032.03.026.076.003.111-.056.088-.14.11-.238.128-.003 0-.004 0-.003-.004a.01.01 0 0 1 .007-.006.307.307 0 0 0 .086-.034c.04-.02.116-.083.115-.135 0-.003 0-.007-.002-.01a.024.024 0 0 0-.028-.013c-.1.026-.162.098-.234.163-.135.152-.31.075-.44-.032-.11-.079-.223-.147-.362-.092a.026.026 0 0 0-.015.016.027.027 0 0 0-.002.01c0 .004.002.008.004.011.043.074.18.112.254.114l.115.009h.001v.004a.592.592 0 0 1-.274 0c-.06-.02-.139-.056-.16-.116-.043-.123.153-.149.229-.148ZM13.27 6.553l.349.082c.005.002.007.005.005.01l-.005.015c-.002.005-.005.008-.011.006l-.35-.083.013-.03ZM13.193 6.81l.003-.013a.054.054 0 0 1 .01-.009c.003-.001.007-.002.012 0l.35.083c.005.001.007.004.005.01l-.006.018c-.001.006-.005.008-.01.006l-.356-.083c-.004-.001-.006-.004-.006-.007a.33.33 0 0 0-.002-.005ZM13.144 6.98l.376.09c.006.002.008.006.006.012l-.006.018c-.002.005-.006.007-.011.006l-.378-.09.013-.035ZM9.025 7.206c.897.1 1.808.12 2.71.079.163-.008.327-.02.49-.037.026-.003.061-.008.08.01.041.04 0 .139-.022.18-.274.491-.853.744-1.393.765-.515.02-1-.091-1.457-.333a2.396 2.396 0 0 1-.383-.264c-.064-.054-.317-.288-.252-.389.033-.051.173-.017.227-.011Zm-.052.228c.018.02.02.017.008-.006a.542.542 0 0 1-.053-.153c-.001-.005-.005-.009-.01-.01l-.049-.006a.009.009 0 0 0-.009.004.01.01 0 0 0 0 .01c.03.058.067.112.113.16Zm1.117.248c.347.03.704.021 1.051.006.233-.01.457-.03.692-.085a.69.69 0 0 0 .201-.078.02.02 0 0 0 .008-.01.501.501 0 0 0 .04-.173c0-.005-.002-.007-.007-.006a19.22 19.22 0 0 1-2.314.006l-.77-.068c-.005 0-.007.002-.006.007.02.083.063.211.152.244.216.08.465.112.692.134.063.006.171.029.261.023Zm1.28.369c.353-.109.73-.365.882-.72a.011.011 0 0 0 0-.005.012.012 0 0 0-.002-.005.01.01 0 0 0-.01-.004l-.093.01c-.005.001-.008.004-.008.009-.01.076-.023.178-.06.218-.084.093-.357.134-.48.15a8.264 8.264 0 0 1-1.274.045 6.193 6.193 0 0 1-.944-.1 1.706 1.706 0 0 1-.24-.062.002.002 0 0 0 0 .003c.158.123.328.225.51.307.004.002.01.003.014.002.549-.1 1.177-.091 1.692.15a.017.017 0 0 0 .013.002Zm-1.277-.15-.335.034a.004.004 0 0 0-.004.004.004.004 0 0 0 .003.004 3.025 3.025 0 0 0 .643.167c.29.038.593.04.878-.032.005-.001.005-.003 0-.005-.368-.164-.787-.2-1.185-.172ZM8.466 10.868a.016.016 0 0 1-.008-.009 9.506 9.506 0 0 1-.532-2.64c-.001-.02.008-.033.028-.036a.025.025 0 0 1 .03.023l.024.306c.069.796.243 1.569.503 2.324a.025.025 0 0 1 0 .015.025.025 0 0 1-.009.013.034.034 0 0 1-.036.004ZM8.547 11.018l-.005.002a.027.027 0 0 0-.016.034l.037.098c.005.014.02.02.035.015l.005-.002a.027.027 0 0 0 .015-.034l-.037-.098a.027.027 0 0 0-.034-.015ZM12.806 15.111c-1.971-.535-3.458-1.926-4.19-3.822a.024.024 0 0 1 .023-.033h.021a.01.01 0 0 1 .01.007c.743 1.897 2.177 3.24 4.147 3.791a.026.026 0 0 1 .02.022c.002.015-.004.026-.018.034a.017.017 0 0 1-.013.001ZM11.778 14.865c.026.134-.165.092-.17-.018-.001-.034.03-.043.056-.03a.39.39 0 0 0 .106.04.01.01 0 0 1 .008.008ZM11.87 15.178c-.036-.003-.145-.004-.146-.065a.027.027 0 0 1 .023-.027l.063-.01a.01.01 0 0 0 .004-.001c.036-.023.08-.062.124-.06.131.005.184.145.299.151.037.002.064.022.046.06-.03.064-.172.054-.225.04-.076-.02-.094-.081-.188-.088ZM13.03 15.168c-.04-.01-.025-.065.021-.054a6.412 6.412 0 0 0 1.14.165c.006.001.01.004.011.009.008.018.006.032-.007.043a.016.016 0 0 1-.011.004 6.023 6.023 0 0 1-1.154-.167ZM12.648 15.197c.03.137-.17.093-.17-.027l.002-.007c0-.002.002-.004.004-.006.03-.029.114.025.156.032a.01.01 0 0 1 .008.008ZM14.343 15.28h-.053a.026.026 0 0 0-.026.026v.005c0 .015.011.027.026.027h.053a.026.026 0 0 0 .026-.026v-.006a.026.026 0 0 0-.026-.026Z" fill="#030304"/><path d="M10.45 1.658a.068.068 0 0 1 .021.025.768.768 0 0 1-.122-.07l-.063-.006a.012.012 0 0 1-.011-.008c-.017-.05-.053-.073-.109-.07l-.002-.001-.001-.001-.002-.002v-.002c0-.005.003-.007.008-.007a.249.249 0 0 0 .087-.012.038.038 0 0 1 .037.009l.157.145ZM10.302 1.987c-.012-.095.036-.198.128-.234h.005l.004.002a.008.008 0 0 1 .002.005l-.001.005-.13.223-.003.002h-.002l-.002-.001-.002-.002ZM10.09 2.674c.004-.106.013-.328.108-.376a.008.008 0 0 1 .008 0l.003.004v.005a4.248 4.248 0 0 0-.007 1.047.005.005 0 0 1-.003.002h-.004a1.82 1.82 0 0 1-.105-.68ZM9.917 3.587c.01.003.013.01.009.02a.01.01 0 0 1-.007.005.01.01 0 0 1-.009-.003l-.004-.004a.011.011 0 0 1 .01-.018ZM9.93 3.645c.012-.013.028-.015.049-.005.073.034.142.164.159.23.02.077.03.156.03.237v.002l-.002.001h-.003l-.001-.001v-.001a.959.959 0 0 0-.231-.432.024.024 0 0 1 0-.031ZM10.341 3.788c-.008 0-.012-.005-.012-.013l.003-.006a.008.008 0 0 1 .014.006v.011l-.002.001h-.001l-.002.001ZM10.374 3.804c.082.04.158.169.193.25.014.032.01.034-.01.005a1.469 1.469 0 0 0-.2-.223.014.014 0 0 1-.005-.01v-.009a.015.015 0 0 1 .022-.013ZM9.458 4.057c-.026-.004-.026-.008 0-.01.154-.016.3-.065.387-.199.007-.012.01-.01.007.003-.043.199-.22.232-.394.206ZM10.713 4.107a.025.025 0 1 0 0-.05.025.025 0 0 0 0 .05ZM10.795 4.146a.028.028 0 0 1-.02-.022l.008-.016c.012-.024.032-.03.06-.02a3.54 3.54 0 0 1 .715.367v.004c-.002.002-.003.002-.005.001a5.78 5.78 0 0 0-.758-.314ZM11.438 4.794c-.145-.117-.32-.117-.493-.08h-.003l-.001-.002V4.71l.002-.002c.113-.05.232-.083.358-.098.157-.019.254.04.367.154.094.094.175.196.245.307v.005h-.005c-.12-.118-.277-.278-.457-.277a.018.018 0 0 1-.013-.004ZM6.848 5.585a.008.008 0 0 1-.006-.006.008.008 0 0 1 .003-.008c.066-.042.137-.044.215-.021.294.083.446.34.55.608a.005.005 0 0 1-.002.006h-.004a.005.005 0 0 1-.002-.002c-.175-.282-.425-.507-.754-.577ZM12.547 5.708c0 .008.001.014.004.017a.513.513 0 0 0-.004.071c0 .005 0 .008-.003.01a.01.01 0 0 1-.005.002c-.004.001-.006 0-.007-.005-.032-.15-.085-.175-.22-.212-.006-.002-.007-.005-.003-.01a.066.066 0 0 1 .046-.023c.107-.007.17.042.186.147 0 .002.002.003.006.003ZM11.972 6.62c-.088-.06-.022-.272.02-.355.001-.002.002-.003.004-.003H12l.003.002v.005c-.027.108-.044.21.028.306a3.907 3.907 0 0 1 .192.28.01.01 0 0 1-.001.004.01.01 0 0 1-.003.004.01.01 0 0 1-.004.002.034.034 0 0 1-.025-.006.997.997 0 0 0-.224-.094V6.76l.003-.001a.23.23 0 0 1 .1-.002h.005a.011.011 0 0 0 .008-.01c0-.002 0-.004-.002-.006a.343.343 0 0 0-.108-.12ZM10.809 6.282l.047-.001c.09.006.18.015.269.026a.25.25 0 0 1 .137.06.013.013 0 0 1 .004.005v.008a.013.013 0 0 1-.012.008c-.026 0-.052 0-.078-.002-.293-.023-.476-.04-.71-.028a.01.01 0 0 1-.012-.01.01.01 0 0 1 .008-.01c.118-.031.23-.037.347-.056ZM11.705 6.784a.01.01 0 0 1-.007-.006v-.005l.003-.001h.002c.181.053.36.12.509.238.051.042.122.116.118.186a.01.01 0 0 1-.001.005.01.01 0 0 1-.004.003.009.009 0 0 1-.01-.001c-.08-.07-.163-.146-.244-.204a2.483 2.483 0 0 0-.366-.215ZM10.09 7.682a3.39 3.39 0 0 0-.136-.027 1.306 1.306 0 0 1-.299-.089c-.078-.033-.22-.118-.055-.185.047-.02.107-.027.16-.039.773.04 1.544.047 2.316-.006.004 0 .006.001.006.006a.506.506 0 0 1-.04.173.02.02 0 0 1-.008.01.69.69 0 0 1-.2.078 3.73 3.73 0 0 1-.693.085 8.098 8.098 0 0 1-1.05-.006ZM10.42 7.936a.012.012 0 0 1-.01-.006v-.001l.002-.001a1.731 1.731 0 0 1 .693.105v.006a7.907 7.907 0 0 0-.685-.103ZM11.954 8.073a1.182 1.182 0 0 1-.835.585.1.1 0 0 1-.039 0 .01.01 0 0 1-.007-.008.01.01 0 0 1 .001-.006 1.851 1.851 0 0 0 .249-.163c.091-.069.212-.083.31-.136a.887.887 0 0 0 .314-.279h.004c.004.002.005.004.003.007ZM12.831 10.734a.577.577 0 0 1-.024-.51.266.266 0 0 1 .114-.134.034.034 0 0 1 .038.002.926.926 0 0 0 .24.135c.005.003.007 0 .004-.005a.805.805 0 0 1-.074-.403 2.75 2.75 0 0 1 .025-.262c.023-.117-.252-.168-.162-.38.023-.055.07-.145.14-.268a.71.71 0 0 0 .153-.379c0-.004.001-.008.004-.011a.027.027 0 0 1 .031-.011c.077.029.122.149.118.225-.004.076-.023.187-.112.2a.009.009 0 0 0-.006.002.01.01 0 0 0-.002.006c-.002.099-.003.204-.045.295-.002.004-.001.007.002.01a.54.54 0 0 1 .203.527l.003.002a.007.007 0 0 0 .008-.002.602.602 0 0 0 .087-.158h.003l.002.002c.052.07.108.138.166.205.02.023.014.03.005.055a.537.537 0 0 1-.32.344.014.014 0 0 0 .003.02.152.152 0 0 0 .072.028c.004 0 .006.003.005.008-.05.207-.122.401-.214.584-.017.033-.045.04-.082.035a.78.78 0 0 1-.385-.162ZM13.494 8.564c.135-.105.237.231.037.252-.018.002-.026-.006-.024-.024a.474.474 0 0 0-.02-.204.02.02 0 0 1 .007-.024Z" fill="#fff"/><path d="M13.57 9.201a.47.47 0 0 1 .032-.248c.01-.026.034-.07.073-.135.071-.073.18-.094.177.045-.003.123-.176.277-.282.338ZM13.67 9.414a.518.518 0 0 1 .088-.27.596.596 0 0 0 .14-.193c.016-.033.034-.043.07-.036.095.018.09.125.046.192a.84.84 0 0 1-.344.307ZM7.768 9.082c.186.18.262.43.264.686 0 .032-.005.033-.016.003-.096-.26-.239-.557-.445-.754-.013-.013-.017-.026-.01-.039a.012.012 0 0 1 .004-.005.011.011 0 0 1 .007-.002c.067.006.15.068.196.111ZM13.823 9.559a.294.294 0 0 1 .059-.197l.147-.15a.011.011 0 0 1 .006-.002.01.01 0 0 1 .006 0c.073.032.066.093.028.151a.513.513 0 0 1-.246.198ZM10.945 9.474a.048.048 0 1 0 0-.097.048.048 0 0 0 0 .097ZM10.09 9.778c-.11-.022-.3-.07-.363-.163a.005.005 0 0 1 .002-.007h.003c.377.128.734.09 1.07-.118a.025.025 0 0 1 .03.002c.048.04-.036.128-.068.153-.19.148-.438.179-.674.133ZM7.794 10.343a2.698 2.698 0 0 0-.045-.618l.001-.001a.003.003 0 0 1 .004.002c.065.15.194.49.045.62h-.003l-.002-.001v-.002ZM11.119 9.769c.094.07.135.251.141.361v.001h-.002a2.23 2.23 0 0 0-.158-.339.115.115 0 0 1-.001-.013.013.013 0 0 1 .006-.011.013.013 0 0 1 .014 0ZM6.154 10.827h-.003l-.001-.003v-.003l.002-.002c.129-.063.25-.141.362-.236.223-.187.407-.37.68-.441a.15.15 0 0 1 .065.001.011.011 0 0 1 .007.009v.006a.614.614 0 0 1-1.112.669ZM11.291 10.29c.044.045.058.082.086.153a19.062 19.062 0 0 1 .191.512l-.001.002h-.003l-.002-.001a3.077 3.077 0 0 1-.25-.485.885.885 0 0 1-.05-.165l.001-.011a.018.018 0 0 1 .008-.008c.003-.002.007-.002.01-.002.004 0 .008.003.01.005ZM10.708 10.439c0 .073.04.133.088.133.047 0 .086-.06.086-.134 0-.073-.04-.133-.088-.133-.048 0-.086.06-.086.134ZM12.225 13.788c-.553-.597-1.02-1.348-1.272-2.116a2.217 2.217 0 0 1-.11-.736.525.525 0 0 1 .042-.192.025.025 0 0 1 .019-.007c.004 0 .007.001.01.003.015.008.026.023.032.046.171.63.434 1.245.72 1.829.331.673.827 1.301 1.37 1.814.002 0 .002.002.003.003l-.001.003a.004.004 0 0 1-.006 0 3.552 3.552 0 0 1-.807-.647ZM12.824 10.919c.09.03-.03.252-.06.298a3.648 3.648 0 0 1-.23.328h-.001v-.001c.102-.203.185-.41.275-.618a.012.012 0 0 1 .007-.007.012.012 0 0 1 .01 0ZM6.254 11.007l.006.002a.538.538 0 0 1 .038.103 2.604 2.604 0 0 0 .205.548v.002h-.005c-.149-.159-.31-.424-.276-.651.001-.007.005-.01.012-.008l.02.004ZM8.302 13.126a.693.693 0 0 1-.511-.113 1.12 1.12 0 0 1-.51-.703c-.002-.005-.005-.006-.01-.004-.068.044-.152.102-.232.117-.098.019-.305-.122-.38-.184-.142-.119-.118-.25-.093-.415.083-.15.314-.418.528-.359a.055.055 0 0 1 .03.025 316.454 316.454 0 0 0 .295.499.398.398 0 0 0-.074.14.015.015 0 0 0 .013.02c.003 0 .006 0 .009-.002.268-.133.561-.302.837-.38.089-.026.154.223.164.28.001.004 0 .006-.005.006-.041 0-.22-.01-.265.028-.005.004-.004.007.001.01.021.011.043.02.065.026.16.041.389.107.519.209a.032.032 0 0 1 .005.044c-.088.116-.202.18-.157.352.002.006 0 .01-.003.014a.416.416 0 0 0-.119.205.02.02 0 0 1-.007.01.23.23 0 0 0-.1.175ZM8.626 12.81a.331.331 0 0 1 .24-.103l.003.003a.007.007 0 0 1-.003.008 1.104 1.104 0 0 0-.337.39.357.357 0 0 1 .097-.297ZM9.193 14.63a.344.344 0 0 1 .128-.09l.004.002a.007.007 0 0 1 .001.008c-.146.258-.291.517-.436.777-.1.178-.19.375-.29.56a.688.688 0 0 1-.224.27l-.004-.002a.005.005 0 0 1 0-.007c.106-.138.164-.26.233-.446.139-.37.337-.782.588-1.071ZM11.75 16.213a.012.012 0 0 1 .01.005.014.014 0 0 1 .002.005v.005c-.057.27-.117.544-.158.819-.014.088-.02.088-.018-.002.003-.152.015-.312.036-.48.006-.051.057-.358.129-.352ZM8.52 17.098c.002.002.002.004 0 .006l-.002.001h-.002l-.001-.001-.001-.002c-.007-.036-.001-.08 0-.107 0-.156.002-.306-.015-.46-.006-.048-.022-.13-.025-.198 0-.005 0-.01.004-.015.01-.016.02-.015.03.001.075.118.082.216.066.364-.015.135-.033.27-.056.404 0 .002 0 .005.002.007ZM6.75 17.635c-.153-.039-.342-.07-.499-.035a.006.006 0 0 1-.006-.003v-.004l.001-.003c.182-.165.352-.153.51.034a.007.007 0 0 1 .001.008.007.007 0 0 1-.008.003ZM13.174 17.523l-.002-.002-.001-.002v-.003l.003-.002c.148-.06.314-.04.412.104a1.459 1.459 0 0 1 .178.363.006.006 0 0 1-.003.004h-.004a.007.007 0 0 1-.004-.002c-.134-.191-.343-.402-.579-.46ZM14.004 17.618a.061.061 0 0 1 .017.026l.072.182v.005a.006.006 0 0 1-.003.003h-.005a.007.007 0 0 1-.003-.002c-.081-.13-.17-.25-.312-.319l-.002-.002v-.005c.002 0 .002-.001.003-.002.068-.013.122.008.174.053.019.016.033.044.059.061ZM7.483 17.978c-.144-.122-.357-.265-.548-.254a.005.005 0 0 1-.005-.003.005.005 0 0 1 0-.006.185.185 0 0 1 .094-.066c.226-.062.38.155.465.325v.005h-.006ZM12.754 17.776a.465.465 0 0 0-.315.054h-.003l-.003-.001v-.005c.068-.073.177-.164.279-.179.17-.024.309.246.35.377v.005a.006.006 0 0 1-.003.003h-.005a.006.006 0 0 1-.004-.002c-.062-.095-.18-.222-.296-.252ZM8.638 17.662c.107.084.244.266.158.406a.008.008 0 0 1-.008.003.008.008 0 0 1-.005-.002.89.89 0 0 0-.153-.403c0-.001 0-.003.002-.003l.003-.002.003.001ZM7.737 17.703c.274 0 .566-.014.808.14l.002.003v.004a.006.006 0 0 1-.006.003 10.408 10.408 0 0 0-.962-.14l-.002-.004.001-.003.003-.002c.053-.013.118-.002.156-.001ZM11.6 17.753c-.01-.002-.01-.006-.001-.012.009-.006.021-.007.037-.003.048.012.143 0 .19 0a7.977 7.977 0 0 0 .426-.02l.003.003v.004a.007.007 0 0 1-.003.003c-.194.126-.44.08-.651.025Z" fill="#fff"/><path d="m10.2 3.973.002.136v.004l.004.003.005.001.004-.001c.136-.109.104-.297.03-.426a.021.021 0 0 1-.005-.017c0-.005.003-.006.008-.003.155.12.292.25.37.435l.003.003.005.002a.008.008 0 0 0 .007-.004.156.156 0 0 0 .025-.104v-.004l.002-.002a.007.007 0 0 1 .007-.002c.326.114.637.26.918.459a.877.877 0 0 1 .326.377.005.005 0 0 1-.002.003h-.003l-.002-.001a1.185 1.185 0 0 0-.336-.286c-.285-.164-.612.004-.888.097a.496.496 0 0 1-.338.009c-.422-.124-.968-.341-1.373-.074-.026.017-.046.043-.075.058a1.7 1.7 0 0 0-.532.598c-.187.35-.29.781-.142 1.166a.7.7 0 0 0 .675.471.004.004 0 0 1 0 .007l-.151.105a.021.021 0 0 1-.012.004c-.11.005-.249.05-.308.145-.087.139.024.345.131.443a.133.133 0 0 1 .033.046c.165.39.514.7.89.884h.01c.291.17.605.275.943.312.321.035.619.024.921-.1h.002l.001.002a1.68 1.68 0 0 1-.316.2c-.21.103-.453.104-.677.066-.687-.14-1.362-.516-1.894-.96-.338-.283-.49-.56-.484-1.011a.875.875 0 0 0-.101-.432.007.007 0 0 1 .007-.006c.002 0 .004 0 .005.002l.135.127c.005.005.007.004.005-.003a23.86 23.86 0 0 0-.175-.764c-.123-.498-.08-.992.316-1.357a3.2 3.2 0 0 1 .768-.507.013.013 0 0 0 .002-.007l.01-.003c.004-.002.007 0 .009.004.014.044-.002.086.039.118l.005.07a.006.006 0 0 0 .01.005.006.006 0 0 0 .002-.003c.19-.423.909-.128.821-.74-.002-.01-.002-.017 0-.022.002-.005.005-.006.01-.003a.808.808 0 0 1 .348.48Zm-.283-.386a.011.011 0 0 0-.013.004.011.011 0 0 0 .001.014l.005.004a.01.01 0 0 0 .013.001.01.01 0 0 0 .003-.004c.004-.01 0-.016-.01-.02Zm.014.058a.024.024 0 0 0 0 .031.96.96 0 0 1 .233.434h.003v-.003c.001-.08-.009-.16-.03-.238-.016-.065-.085-.195-.158-.229-.021-.01-.037-.008-.048.005Zm.41.143h.002a.004.004 0 0 0 .002-.002v-.011c0-.002 0-.004-.002-.005a.008.008 0 0 0-.014.005c0 .008.003.013.012.013Zm.226.265c-.035-.08-.111-.21-.194-.25a.015.015 0 0 0-.02.014v.008c0 .004 0 .008.004.01.074.068.14.143.2.224.02.03.024.027.01-.006Zm-1.11.004c.174.026.351-.007.394-.206.003-.014 0-.015-.007-.003-.087.134-.232.184-.387.199-.026.002-.026.006 0 .01Zm1.28.025a.025.025 0 1 0-.05 0 .025.025 0 0 0 .05 0Zm.057.064c.258.091.515.187.758.314h.005v-.005a3.537 3.537 0 0 0-.716-.368c-.027-.01-.046-.003-.058.021l-.008.016a.028.028 0 0 0 .02.022Z" fill="#C98916"/><path d="M9.822 5.16a1.098 1.098 0 0 1-.09.025.576.576 0 0 0-.41.348.014.014 0 0 0 0 .012c.016.026.074.038.101.039.178.009.405.05.547.163-.406-.17-.782.033-.971.402-.003.006-.005.006-.007 0a.418.418 0 0 1 .031-.32h-.001l-.001.001a.416.416 0 0 0-.105.303.987.987 0 0 1 .247-.854c.204-.088.424-.127.659-.118Z" fill="#C98916"/><path d="M8.57 5.17a.593.593 0 0 1-.027.085c-.125.31-.137.837.217 1.008-.105.008-.169.062-.191.162-.002.008 0 .009.005.003.078-.08.126-.114.242-.115-.335.204.056.395.222.443.06.018.1.03.12.038 0 .002-.004.003-.01.004a1.37 1.37 0 0 1-.55-.177c-.142-.09-.209-.229-.236-.393a1.671 1.671 0 0 1 .208-1.059ZM11.73 5.322a.59.59 0 0 0-.389.149.094.094 0 0 0-.029.07c0 .004.002.008.004.01.019.02.037.03.054.03a.565.565 0 0 1 .277.081v.004a.006.006 0 0 1-.002.004.006.006 0 0 1-.004 0h-.005c-.245-.063-.455.05-.6.244-.003.006-.006.005-.008-.002a.298.298 0 0 1 .018-.193c.005-.012.003-.013-.006-.003a.326.326 0 0 0-.065.107.57.57 0 0 1 .189-.414c.172-.07.36-.1.566-.087ZM6.887 5.73a.265.265 0 0 1 .173.053.669.669 0 0 1 .222.287c.01.022.004.027-.017.016-.239-.131-.435.132-.43.346 0 .004.002.007.007.007.002 0 .004 0 .005-.004l.032-.085c.07-.087.229-.134.228.035 0 .09.002.18.005.271.005.152.11.2.229.276.046.03.09.072.13.126.032.08.041.164.027.252-.011.066-.04.117-.114.106-.101-.015-.136-.264-.157-.35-.018-.077-.051-.092-.13-.092-.227 0-.484.031-.53-.271-.009-.06 0-.14 0-.21V6.49l-.003-.001a.004.004 0 0 0-.005.002.491.491 0 0 0-.044.28l-.003-.023c0-.003-.001-.004-.003 0a.03.03 0 0 0-.001.002h-.001c-.005-.025-.014-.05-.017-.074-.026-.27.035-.581.204-.8a.487.487 0 0 1 .193-.146Z" fill="#C98916"/><path d="M11.273 5.781a.368.368 0 0 0-.098.121.011.011 0 0 0 0 .007c0 .002 0 .004.002.006a.012.012 0 0 0 .012.004.157.157 0 0 1 .107.012c.006.003.006.006 0 .009a2.42 2.42 0 0 0-.093.047c-.058.03-.12.078-.183.113-.006.003-.008 0-.007-.005a.075.075 0 0 1 .021-.043c.003-.002.005-.002.008 0l.006.009.166-.108a.006.006 0 0 0 .003-.003v-.005a.007.007 0 0 0-.003-.003.007.007 0 0 0-.005 0 .264.264 0 0 0-.162.103c0-.014-.003-.018-.011-.014a.665.665 0 0 1 .237-.25ZM12.35 5.82c.03.004.054.011.07.022a.017.017 0 0 1 .008.012c.018.124-.069.322-.119.442a.63.63 0 0 0-.116.255c-.002.005-.003.006-.006.002a.51.51 0 0 1-.061-.113c-.032-.1.053-.233.135-.284a.01.01 0 0 0 .004-.005.01.01 0 0 0 0-.006.01.01 0 0 0-.01-.006l-.068.012c-.004 0-.005 0-.004-.004l.058-.16a.55.55 0 0 1 .109-.166ZM9.219 5.964a.79.79 0 0 0-.087.154.016.016 0 0 0 .02.02.818.818 0 0 1 .223-.05.004.004 0 0 1 0 .006.849.849 0 0 0-.377.324c-.004.006-.006.005-.006-.002a.476.476 0 0 1 .02-.127.007.007 0 0 0-.005-.006l-.017-.002c.019 0 .03-.006.034-.016a.943.943 0 0 1 .195-.301Zm.007.178a.248.248 0 0 0-.188.167.006.006 0 0 0 .01.006.953.953 0 0 1 .183-.168v-.003a.004.004 0 0 0-.005-.002ZM10.925 6.273l-.07.008-.046.001-.011-.01.127.001ZM10.211 6.303a.387.387 0 0 0-.123.104c-.097.129-.031.28.102.341.023.01.067.027.132.05a.558.558 0 0 1-.302-.06c-.146-.079-.112-.244.003-.332a.587.587 0 0 1 .188-.103Z" fill="#C98916"/><path d="M10.49 6.428c-.075 0-.272.025-.228.148.02.06.1.096.16.115a.32.32 0 0 1-.164-.05c-.106-.068-.095-.194.036-.224a.331.331 0 0 1 .196.011ZM9.451 6.791c-.152.08-.425.183-.092.336a.002.002 0 0 1 0 .002v.001h-.001c-.114-.01-.267-.014-.375.03a.009.009 0 0 0-.005.007.008.008 0 0 0 .003.007l.044.032c-.054-.006-.194-.04-.227.011-.065.1.188.335.252.389.118.1.246.188.383.264-.036-.01-.115-.044-.147-.032-.006.002-.007.006-.005.012.032.079.138.147.212.185a.003.003 0 0 1 0 .004H9.49l-.246-.027a.007.007 0 0 0-.007.004.007.007 0 0 0 0 .007c.088.116.21.208.33.285.44.283.923.419 1.45.408.015 0 .018-.004.035.006a1.098 1.098 0 0 1-.16.023c-.814.056-1.613-.288-2.054-.985a.006.006 0 0 1 .001-.007.006.006 0 0 1 .008 0c.033.02.189.1.224.074v-.002l.001-.001v-.002L9.07 7.82c-.17-.111-.438-.353-.478-.557-.037-.187.505-.155.594-.161l.005-.002a.008.008 0 0 0-.002-.013.735.735 0 0 0-.216-.06c-.012 0-.013-.005-.003-.012.15-.098.31-.173.48-.224ZM9.464 8.88c.45.161.948.282 1.422.215.005 0 .007.001.005.006-.076.18-.31.316-.49.355a1.18 1.18 0 0 1-.584-.02c-.193-.104-.347-.19-.49-.362-.025-.031-.093-.123-.042-.154a.29.29 0 0 1 .18-.04ZM7.728 9.566c.106.215.168.441.187.679 0 .06-.01.11-.027.155-.014.036-.046.067-.085.056-.08-.021-.137-.114-.162-.188a.012.012 0 0 1 .009-.014h.006l.074.027a.041.041 0 0 0 .017.015h.003a.006.006 0 0 0 .005-.003v-.003c-.018-.123-.109-.268-.247-.245a.542.542 0 0 0-.17.086c-.362.24-.718.495-1.092.715-.05.03-.11.053-.148-.001-.052-.107.05-.217.127-.289.249-.233.51-.452.784-.656.056-.042.114-.078.173-.11.01-.005.018-.004.026.004l.09.085a.005.005 0 0 0 .008 0v-.003a2.59 2.59 0 0 1 .08-.334c.022-.072.079-.232.189-.141.05.042.102.097.153.165Zm.066.777v.002l.002.001H7.8c.149-.13.02-.47-.044-.62a.003.003 0 0 0-.004-.002l-.002.001v.003c.038.203.054.408.045.615Zm-1.64.484a.613.613 0 0 0 .235-.089 37.365 37.365 0 0 0 .877-.58.011.011 0 0 0-.002-.011.012.012 0 0 0-.005-.004.15.15 0 0 0-.066-.001c-.272.07-.456.254-.68.441a1.747 1.747 0 0 1-.363.238v.003l.001.002.003.001ZM11.47 11.25a1.374 1.374 0 0 1-.11-.192 4.343 4.343 0 0 1-.26-.779 3.443 3.443 0 0 1-.039-.592.006.006 0 0 1 .005-.003h.003c.108.05.223.336.223.46 0 .005-.002.009-.007.011a.193.193 0 0 0-.07.06c-.012.015-.008.025.01.029.063.015.098.004.125.078.075.206.157.409.246.61a.062.062 0 0 1 0 .052l-.126.266Zm-.352-1.481a.013.013 0 0 0-.018.003.013.013 0 0 0-.002.007l.001.013a2.23 2.23 0 0 1 .16.34v-.001c-.006-.11-.047-.292-.141-.362Zm.172.521a.017.017 0 0 0-.01-.005.017.017 0 0 0-.019.02c.01.055.027.11.05.166a3.077 3.077 0 0 0 .252.486h.003l.002-.002v-.003a18.85 18.85 0 0 0-.192-.51c-.027-.07-.041-.107-.086-.152ZM12.632 10.678a1.157 1.157 0 0 0 .294.233.477.477 0 0 1-.02.07c-.094.242-.233.505-.416.692l-.002.002h-.003l-.003-.002-.001-.002-.057-.21a1.94 1.94 0 0 1 .208-.783Zm.191.24a.013.013 0 0 0-.016.008c-.09.207-.173.415-.276.618h.001c.084-.104.16-.213.232-.327.029-.046.15-.267.06-.298ZM6.062 10.9c.05.047.116.066.199.056.022-.002.025.023.03.04.06.23.14.452.243.666.005.01.004.02-.002.03a1.294 1.294 0 0 0-.137.256c-.23-.269-.422-.588-.462-.95a.383.383 0 0 1 .01-.134.027.027 0 0 1 .016-.018.028.028 0 0 1 .012-.002c.005 0 .009.002.012.004l.079.052Zm.192.107-.02-.004c-.007-.002-.01.001-.012.008-.033.227.127.492.276.65l.002.002h.002l.001-.002v-.003a2.604 2.604 0 0 1-.205-.546.538.538 0 0 0-.038-.103.014.014 0 0 0-.006-.002ZM9.335 14.345l.086.093a.02.02 0 0 1 .003.024c-.26.443-.506.892-.74 1.348-.1.19-.172.307-.342.402a.01.01 0 0 0-.003.016.011.011 0 0 0 .005.004.328.328 0 0 0 .146.007c.005-.001.01 0 .012.005.091.145.11.268.09.444l-.071.563c-.006 0-.01 0-.014-.002a.005.005 0 0 1-.003-.005v-.005H8.5v.002a.157.157 0 0 0 .001.075.45.45 0 0 0 .081.22c.004.006.003.008-.004.007-.07-.015-.112-.104-.134-.164a.024.024 0 0 0-.013-.014c-.022-.008-.033.006-.036.025a.267.267 0 0 1-.079.167c-.004.004-.006.003-.006-.003.001-.024.014-.108-.017-.115a.016.016 0 0 0-.014.002l-.071.047c-.009.006-.01.004-.007-.005l.07-.188c-.003-.362-.059-.73-.109-1.09a.148.148 0 0 1 .004-.056.02.02 0 0 1 .007-.011.372.372 0 0 1 .115-.066c.007-.002.007-.004 0-.008-.128-.07-.138-.178-.105-.315.05-.209.432-1.65.596-1.683.05-.01.16.042.205.066.117.064.234.135.35.213Zm-.142.286c-.251.289-.45.7-.588 1.071a1.557 1.557 0 0 1-.234.45l.001.003.004.002.003-.001a.688.688 0 0 0 .222-.269c.1-.185.19-.382.289-.56a129.104 129.104 0 0 1 .436-.78.007.007 0 0 0-.005-.007h-.005a.344.344 0 0 0-.123.09Zm-.675 2.46c.023-.134.041-.269.056-.404.016-.148.009-.246-.066-.364-.01-.016-.02-.017-.03 0a.026.026 0 0 0-.005.014c.003.068.02.15.026.198.017.154.015.304.014.46 0 .027-.007.071 0 .107l.001.002h.002l.002.001h.001c.002-.003.003-.005 0-.007a.01.01 0 0 1 0-.007ZM11.565 15.766l.263.043.006.003a.014.014 0 0 1 .004.005c.039.084.043.193-.081.2a.015.015 0 0 0-.012.024l.06.094a.013.013 0 0 1 .002.01c-.098.38-.172.764-.22 1.154a.046.046 0 0 0-.021-.003.008.008 0 0 0-.006.003.009.009 0 0 0-.002.007l.013.08.028.11v.005a.006.006 0 0 1-.006.004l-.004-.001-.067-.048a.023.023 0 0 0-.012-.004c-.004 0-.008.001-.011.003a.022.022 0 0 0-.012.02v.099l-.002.002h-.006c-.053-.04-.05-.072-.072-.13a.025.025 0 0 0-.008-.01.025.025 0 0 0-.012-.006c-.005 0-.01 0-.014.003a.025.025 0 0 0-.01.009.299.299 0 0 1-.122.115h-.005a.007.007 0 0 1-.004-.002.007.007 0 0 1-.002-.004l.002-.004c.074-.089.137-.168.153-.293-.032-.192-.135-.777.032-.916a.179.179 0 0 1 .063-.027.305.305 0 0 0 .135-.079c.003-.003.003-.006-.002-.008-.15-.072-.24-.248-.296-.402a.017.017 0 0 1 0-.01.02.02 0 0 1 .004-.008c.043-.046.185-.04.244-.038Zm.186.447c-.071-.006-.123.301-.129.352-.02.168-.033.328-.036.48-.001.09.005.09.018.002.041-.275.101-.548.158-.819v-.005a.014.014 0 0 0-.002-.005.012.012 0 0 0-.009-.005Z" fill="#C98916"/><path d="M8.42 17.462a.2.2 0 0 1-.013.114c-.027.065.102.144.114.22 0 .005-.002.008-.008.006-.018-.006-.03-.014-.036-.023a.256.256 0 0 0-.223-.162c-.006 0-.01-.004-.01-.01l-.009-.083a.01.01 0 0 1 .006-.01l.027-.018h.006a.006.006 0 0 1 .003.006l-.01.085a.012.012 0 0 0 .008.013c.067.03.128-.085.146-.138Z" fill="#C98916"/><path d="M9.842 3.517c.088.613-.631.318-.82.741a.006.006 0 0 1-.013-.002l-.005-.07c.01-.023.025-.057.043-.105.036-.098.128-.15.234-.212a.803.803 0 0 0 .285-.254.01.01 0 0 1 .014.006l.026.071a.01.01 0 0 1-.002.012c-.056.06-.117.112-.184.158-.01.008-.01.015.001.02.012.007.027.007.048 0 .199-.06.3-.182.373-.365ZM10.245 3.69c.074.13.106.317-.03.426a.008.008 0 0 1-.009 0 .008.008 0 0 1-.003-.003.008.008 0 0 1-.001-.004l-.002-.136c.05-.036.045-.219.045-.283ZM8.946 4.067c0 .002 0 .005-.002.007a3.2 3.2 0 0 0-.769.507c-.395.365-.439.86-.316 1.357.063.254.122.509.176.764.001.007 0 .008-.006.003l-.135-.127a.007.007 0 0 0-.011.004v.005c.07.13.103.273.1.427-.006.451.147.728.484 1.01.533.445 1.207.82 1.895.961a.415.415 0 0 1-.099-.006 5.407 5.407 0 0 1-1.436-.495c-.396-.2-1.09-.584-1.012-1.117.019-.126.06-.408-.035-.508-.005-.006-.007-.005-.008.003l-.026.232a1.571 1.571 0 0 0-.105-.457.008.008 0 0 1 .007-.006l.005.001a.472.472 0 0 1 .138.137c.005.009.008.008.007-.002-.008-.153-.124-.345-.2-.472-.003-.005-.002-.006.003-.004a.562.562 0 0 1 .21.148c.005.004.006.004.005-.003a2.866 2.866 0 0 0-.14-.457.014.014 0 0 0-.006-.002l-.002.006a1.027 1.027 0 0 0-.159-.308.018.018 0 0 1-.003-.013c.02-.263.065-.535.17-.767.077-.169.26-.304.432-.414.243-.155.51-.29.803-.404a.114.114 0 0 1 .035-.01Z" fill="#6F3D00"/><path d="M8.893 4.636a1.887 1.887 0 0 0-.597 1.037c-.06.287-.067.7.149.932.138.15.398.23.597.259a.004.004 0 0 1 .003.003.004.004 0 0 1-.002.004 2.811 2.811 0 0 0-.23.147.145.145 0 0 1-.053.023.742.742 0 0 0-.164.063c-.185.092-.035.305.035.416a.476.476 0 0 1 .045.092c.132.364.483.692.812.893h-.01c-.376-.183-.726-.495-.89-.884a.132.132 0 0 0-.033-.046c-.107-.098-.218-.304-.132-.443.06-.096.199-.14.309-.145a.021.021 0 0 0 .011-.004l.151-.105a.004.004 0 0 0 .002-.005.004.004 0 0 0-.004-.003.7.7 0 0 1-.673-.47c-.147-.385-.044-.817.143-1.166a1.7 1.7 0 0 1 .531-.598ZM7.47 7.058a.497.497 0 0 0-.13-.126c-.119-.077-.223-.124-.229-.276a7.289 7.289 0 0 1-.004-.271c0-.17-.159-.122-.23-.035.053-.16.268-.33.411-.143.169.221-.116.463.029.631.059.069.123.132.152.22ZM11.29 6.647c-.058.009-.09.026-.15.005.072-.065.133-.137.234-.163a.024.024 0 0 1 .028.012.024.024 0 0 1 .002.011c0 .052-.074.114-.115.135ZM10.7 6.62c-.02.034-.06.054-.12.059-.075-.002-.212-.04-.255-.114a.025.025 0 0 1 .004-.03.025.025 0 0 1 .009-.007c.139-.055.253.013.361.092Z" fill="#6F3D00"/><path d="m9.158 6.794.045.006a.121.121 0 0 1-.056-.002c.007 0 .01-.002.01-.004ZM10.35 8.095l.05.015a.163.163 0 0 1-.065-.009c.006 0 .01-.002.014-.006ZM9.464 8.88a.29.29 0 0 0-.179.04c-.05.03.017.123.043.154.142.172.296.258.489.362-.438-.13-.794-.456-1.041-.843v-.004a.004.004 0 0 1 .004-.001c.221.11.45.207.684.291ZM8.851 8.897l.038.046-.05-.042c.008 0 .012-.001.012-.004ZM7.728 9.566a1.011 1.011 0 0 0-.154-.165c-.11-.091-.167.069-.189.14a2.588 2.588 0 0 0-.08.338.005.005 0 0 1-.005.001h-.002l-.09-.086c-.008-.008-.017-.009-.026-.004-.06.032-.118.068-.174.11a9.155 9.155 0 0 0-.784.656c-.076.072-.178.182-.126.289-.018-.005-.029-.018-.035-.04a.012.012 0 0 0-.011-.01c-.003 0-.005.001-.007.003a.012.012 0 0 0-.005.006c-.009.028-.002.06.021.096l-.078-.052a.028.028 0 0 0-.012-.004c-.004 0-.009 0-.012.002a.027.027 0 0 0-.016.018.383.383 0 0 0-.01.133c.04.363.232.682.462.951l-.023.054a.009.009 0 0 1-.002.003.008.008 0 0 1-.004.002.01.01 0 0 1-.004 0 .01.01 0 0 1-.004-.001c-.307-.234-.569-.616-.574-1.008 0-.07-.097-.147-.008-.194a.226.226 0 0 0 .063-.044c.1-.11.182-.193.244-.25a19.97 19.97 0 0 1 1.057-.915c.006-.004.01-.003.012.003a.14.14 0 0 0 .078.077.017.017 0 0 0 .022-.012.863.863 0 0 1 .224-.468.01.01 0 0 1 .012 0 .168.168 0 0 1 .027.027c.09.113.161.227.213.344ZM7.73 10.28l-.074-.026a.011.011 0 0 0-.012.003.012.012 0 0 0-.003.011c.024.074.083.166.162.188.039.011.07-.02.085-.056a.434.434 0 0 0 .027-.155.652.652 0 0 1-.016.32c-.02.063-.1.032-.136.01a.844.844 0 0 1-.298-.373c-.005-.01-.002-.019.008-.025.106-.06.204.02.257.104ZM11.105 10.301c.066.272.151.524.255.757.026.056.062.12.11.192l-.07.15a.008.008 0 0 1-.003.003.01.01 0 0 1-.005.002l-.004-.001a.009.009 0 0 1-.004-.003c-.027-.041-.039-.082-.054-.128a5.68 5.68 0 0 1-.225-.972ZM12.632 10.678a1.94 1.94 0 0 0-.208.783c-.02-.068-.05-.147-.044-.218.01-.133.024-.266.042-.399 0-.003.002-.007.005-.01l.177-.173c.004-.003.007-.003.01 0l.018.017ZM11.649 11.686c.184.061.366.126.551.206.005.003.007.006.004.011a.247.247 0 0 1-.115.104.018.018 0 0 1-.013 0 .182.182 0 0 1-.09-.063.41.41 0 0 0-.134-.11 1.36 1.36 0 0 1-.207-.144v-.002c0-.001 0-.002.002-.002h.002ZM9.335 14.345a4.513 4.513 0 0 0-.35-.213c-.045-.024-.156-.076-.205-.066-.165.033-.546 1.474-.597 1.683-.033.137-.022.244.107.315.005.004.005.006-.001.009a.372.372 0 0 0-.115.065.02.02 0 0 0-.007.011.148.148 0 0 0-.004.056c.05.36.105.728.109 1.09l-.044.076a.005.005 0 0 1-.005.002l-.003-.001v-.003a9.66 9.66 0 0 0-.233-1.244c0-.005 0-.008.004-.01a.22.22 0 0 0 .073-.067.011.011 0 0 0 .001-.01.011.011 0 0 0-.007-.007c-.074-.025-.146-.044-.118-.147.193-.699.36-1.405.538-2.109 0-.005.004-.006.009-.005.129.045.255.105.377.182.176.111.333.242.471.393ZM11.565 15.766c-.06-.002-.202-.008-.245.038a.017.017 0 0 0-.004.018c.056.154.147.33.297.402.004.002.005.005.001.008a.307.307 0 0 1-.134.079.18.18 0 0 0-.063.027c-.168.14-.065.724-.032.916l-.067.122c-.006.011-.01.01-.011-.002-.023-.22-.05-.44-.08-.663-.024-.18-.011-.309.083-.456a.01.01 0 0 1 .01-.004c.051.004.102 0 .152-.013.022-.006.023-.014.004-.026-.034-.021-.075-.037-.106-.065-.146-.132-.226-.31-.31-.484a.008.008 0 0 1 .005-.011c.002-.002.003-.002.005-.001l.495.115ZM8.52 17.25a.156.156 0 0 1-.018.066.157.157 0 0 1-.001-.077h.002v.005c0 .002.002.004.003.005a.021.021 0 0 0 .014.002ZM11.586 17.299l-.016.087-.012-.08v-.004a.009.009 0 0 1 .004-.005.008.008 0 0 1 .003-.001c.006-.001.013 0 .021.003Z" fill="#6F3D00"/><path d="M11.053 8.722c-.017-.01-.02-.006-.036-.006a2.525 2.525 0 0 1-1.449-.408 1.266 1.266 0 0 1-.331-.288.007.007 0 0 1 .008-.008l.246.028a.003.003 0 0 0 .001-.005c-.074-.038-.18-.106-.212-.185-.002-.006 0-.01.006-.012.032-.012.11.022.147.032a2.82 2.82 0 0 0 1.456.333c.54-.02 1.12-.274 1.394-.766.022-.04.063-.14.022-.178-.02-.02-.054-.014-.08-.011-.163.017-.327.03-.491.037-.901.04-1.813.021-2.71-.08l-.043-.03a.008.008 0 0 1-.003-.008.008.008 0 0 1 .005-.007c.108-.044.26-.04.374-.03h.002a.002.002 0 0 0 0-.003c-.333-.153-.06-.256.092-.336a3.362 3.362 0 0 1 .386-.093.006.006 0 0 0 0-.008.006.006 0 0 0-.004-.002c-.199-.028-.445.039-.63.112l-.046-.006c-.02-.008-.06-.02-.12-.038-.166-.048-.557-.24-.222-.443l.113.007c.008 0 .008-.002.002-.006a.292.292 0 0 0-.17-.05c-.355-.172-.342-.7-.217-1.009a.592.592 0 0 0 .027-.086c.122-.216.344-.498.581-.59.332-.128.78.036 1.125.143.151.046.256.053.4.007.196-.063.401-.152.606-.171.338-.031.672.434.792.697.027.058.05.13.073.217.042.165.072.26.02.404a7.622 7.622 0 0 0-.14.417.296.296 0 0 0 .031.247c.076.126.149.253.22.38.003.009.002.01-.006.006a1.11 1.11 0 0 0-.52-.17l-.002.003v.003l.003.003c.204.069.44.164.57.329.09.117.072.249.016.388a2.905 2.905 0 0 1-.434.697 1.456 1.456 0 0 1-.852.543Zm-.109-4.008c.173-.037.348-.037.494.08a.018.018 0 0 0 .012.004c.18-.001.337.16.457.277h.005l.001-.002V5.07a1.789 1.789 0 0 0-.245-.307c-.113-.114-.21-.173-.367-.154a1.225 1.225 0 0 0-.36.1l-.001.003c0 .001 0 .002.002.002h.002Zm-1.782.565a.987.987 0 0 0-.247.854c.003.042.026.135.074.148l.017.002a.007.007 0 0 1 .005.01.476.476 0 0 0-.02.123c0 .007.002.008.006.002a.849.849 0 0 1 .378-.326.004.004 0 0 0-.001-.005H9.37a.818.818 0 0 0-.22.052.016.016 0 0 1-.02-.021.789.789 0 0 1 .087-.154c.259-.272.68-.284.923.016l.063.08c.018.023.046.012.056-.013a.205.205 0 0 0-.038-.233c-.006-.007-.007-.006-.003.002a.237.237 0 0 1 .017.152.007.007 0 0 1-.004.002h-.004a.72.72 0 0 0-.259-.222c-.141-.113-.368-.155-.546-.164-.028-.001-.086-.013-.1-.039a.014.014 0 0 1-.002-.012.576.576 0 0 1 .41-.348c.046-.01.076-.019.09-.024l.157.012a.028.028 0 0 0 .03-.017c.033-.066.05-.21-.013-.266a.412.412 0 0 0-.27-.1c-.384-.014-.819.214-.92.61-.013.05.01.087.064.078a.022.022 0 0 0 .011-.006c.08-.078.174-.142.282-.193Zm2.001.13a.57.57 0 0 0-.19.414c-.015.059-.017.193.062.208.008-.004.012 0 .012.014-.002.003-.001.008 0 .016l-.006-.008c-.002-.003-.005-.003-.007 0a.075.075 0 0 0-.021.042c-.001.006 0 .008.006.005.064-.035.126-.082.183-.113.03-.017.062-.032.093-.047.006-.003.006-.006 0-.01a.158.158 0 0 0-.106-.011.012.012 0 0 1-.012-.004.013.013 0 0 1-.003-.006l.001-.007a.37.37 0 0 1 .098-.12c.257-.154.514-.026.634.225a.028.028 0 0 0 .029.015.028.028 0 0 0 .01-.004c.064-.041.038-.17.003-.221l-.001-.001h-.002l-.002.001V5.8a.208.208 0 0 1-.004.125l-.003.001h-.003l-.002-.002a.555.555 0 0 0-.297-.253H11.644a.007.007 0 0 0 .003-.004v-.004a.565.565 0 0 0-.277-.08c-.018 0-.036-.01-.054-.03a.014.014 0 0 1-.004-.011c0-.03.01-.053.029-.07a.59.59 0 0 1 .388-.15c.096.012.19.037.28.076.056.024.097-.021.062-.072-.187-.272-.522-.351-.833-.287a.534.534 0 0 0-.264.137c-.09.086-.054.21.024.288a.01.01 0 0 0 .012.003l.153-.057Zm.545.539a.64.64 0 0 1 .183.094l.002-.001.002-.002v-.003c-.026-.075-.115-.111-.187-.097l-.002.001-.002.003.001.003.003.002Zm-1.673.047.162.111h.001c.003-.004.003-.01.001-.016a.068.068 0 0 0-.011-.02.265.265 0 0 0-.052-.047l-.002-.002a.225.225 0 0 0-.062-.03c-.019-.006-.032-.005-.037.002v.002Zm-1.35.19a.491.491 0 0 1 .203.081c.006.005.008.003.005-.004-.033-.078-.13-.124-.209-.08v.002Zm1.525.118a.587.587 0 0 0-.188.103c-.115.088-.149.253-.003.333a.558.558 0 0 0 .302.059.145.145 0 0 0 .053.005c.012-.001.012-.003.001-.006-.125-.037-.339-.152-.265-.304.093-.193.51-.216.687-.22l.011.01c-.117.018-.228.024-.346.054a.01.01 0 0 0 .003.02c.235-.01.417.006.71.029a.848.848 0 0 0 .085 0 .013.013 0 0 0 .001-.02.25.25 0 0 0-.137-.059 5.426 5.426 0 0 0-.269-.026l.07-.008c.147.001.69.057.612.321-.022.075-.094.136-.16.177h-.001v.002h.002c.106-.035.216-.129.212-.248-.008-.213-.326-.301-.49-.321-.285-.036-.625-.03-.89.099Zm1.761.318a.342.342 0 0 1 .108.12.01.01 0 0 1 .002.006l-.002.006a.011.011 0 0 1-.011.004.23.23 0 0 0-.102.003l-.001.003v.002l.003.002a1 1 0 0 1 .221.092.034.034 0 0 0 .026.006l.004-.002a.008.008 0 0 0 .002-.004v-.008a3.943 3.943 0 0 0-.19-.276c-.072-.096-.055-.198-.028-.306v-.005a.006.006 0 0 0-.007-.003.006.006 0 0 0-.004.004c-.043.083-.108.295-.02.356Zm-1.55.07a.592.592 0 0 0 .274 0v-.003h-.001l-.115-.009c.061-.005.101-.024.12-.059.131.107.306.184.44.032.061.02.093.004.15-.005a.307.307 0 0 1-.086.034.01.01 0 0 0-.007.006c-.001.003 0 .004.003.004.097-.018.181-.04.238-.128.022-.035.028-.081-.003-.111-.101-.096-.31.105-.391.175-.092.08-.258-.053-.351-.116a.52.52 0 0 0-.203-.083.33.33 0 0 0-.196-.01c-.13.029-.141.155-.036.223a.32.32 0 0 0 .164.05Zm1.292.095c.125.061.245.132.357.213.081.058.165.135.245.204a.009.009 0 0 0 .004.002.009.009 0 0 0 .01-.009c.004-.07-.066-.144-.118-.186a1.466 1.466 0 0 0-.513-.237l-.001.002v.003a.01.01 0 0 0 .008.006l.008.002Zm-.595 1.872c.353-.06.66-.274.835-.585.002-.003 0-.005-.003-.007h-.004a.888.888 0 0 1-.314.279c-.098.053-.219.067-.31.137a1.838 1.838 0 0 1-.249.163.01.01 0 0 0 0 .005.01.01 0 0 0 .006.008.1.1 0 0 0 .039 0ZM7.669 5.983l.001-.006.006.002a2.868 2.868 0 0 1 .14.457c.002.007 0 .007-.004.003a.562.562 0 0 0-.21-.148c-.006-.002-.007 0-.004.004.076.127.192.319.2.472 0 .01-.002.01-.007.002a.473.473 0 0 0-.143-.138.008.008 0 0 0-.007.01c.058.147.093.298.105.453-.018.273-.151.55-.484.444-.141-.044-.181-.167-.245-.287-.02-.038-.059-.073-.097-.075-.248-.014-.565-.138-.645-.393a.784.784 0 0 1-.024-.255c.015-.404.248-1.13.799-1.006.33.074.533.43.642.72a.011.011 0 0 0 .016.007.011.011 0 0 0 .004-.005c.027-.044-.026-.21-.043-.26Zm-.822-.398c.33.07.58.295.754.577a.005.005 0 0 0 .006.002.005.005 0 0 0 .003-.006c-.105-.267-.257-.525-.55-.608-.079-.022-.15-.021-.215.02a.008.008 0 0 0 .002.015Zm.04.145a.487.487 0 0 0-.194.145c-.168.22-.23.531-.203.8.002.025.012.05.016.075h.001l.001-.003c.002-.003.003-.002.003 0l.003.025c.036.15.132.238.29.264.118.02.21.004.316.007a.038.038 0 0 1 .036.03c.02.08.037.154.05.22.019.093.069.192.173.2.076.006.154-.039.175-.114a.543.543 0 0 0-.078-.467c-.024-.036-.146-.14-.13-.2.033-.121.092-.29.079-.405-.031-.276-.237-.66-.567-.647-.34.012-.467.415-.438.696 0 .002 0 .003.002.004a.006.006 0 0 0 .007 0 .006.006 0 0 0 .002-.004c.03-.252.136-.623.455-.626Z" fill="#FBD284"/><path d="M12.547 5.708c-.004 0-.007-.001-.007-.003-.016-.105-.078-.154-.185-.147a.066.066 0 0 0-.046.023c-.004.005-.003.008.002.01.135.037.188.061.22.212.001.004.004.006.008.005a.01.01 0 0 0 .005-.002c.002-.002.003-.005.003-.01 0-.024 0-.048.003-.071.008.253-.087.53-.193.755a.505.505 0 0 0-.031.3.003.003 0 0 1-.005.002l-.002-.002-.08-.134a.018.018 0 0 1-.003-.013c.014-.121.056-.255.072-.337.05-.12.137-.318.119-.442a.017.017 0 0 0-.007-.012.15.15 0 0 0-.071-.021.304.304 0 0 1 .13-.094v-.004s0-.002-.002-.003h-.003a.234.234 0 0 0-.166.064c-.004.004-.006.003-.006-.002a.696.696 0 0 0-.027-.215.01.01 0 0 1 0-.007.01.01 0 0 1 .006-.004c.14-.052.258-.01.266.152ZM6.587 18.157c-.082.015-.185.044-.26.035-.237-.029-.256-.309-.182-.48a.488.488 0 0 0 .029-.085c.128-.175.314-.243.514-.13a.781.781 0 0 1 .138.116c.003.003.003.006 0 .009a.894.894 0 0 0-.239.535Zm-.336-.557c.157-.035.345-.004.498.035h.004a.008.008 0 0 0 .004-.003.007.007 0 0 0 0-.009c-.159-.186-.33-.198-.511-.033l-.002.003v.004l.003.003h.004ZM8.773 18.1c-.13.016-.257.032-.388.034a8.755 8.755 0 0 1-.656-.015.421.421 0 0 0-.179.018c-.197.078-.62.29-.714-.032a.534.534 0 0 1 .042-.394c.26-.3.559.09.7.277a.007.007 0 0 0 .01.002.007.007 0 0 0 .003-.003l.001-.005a.458.458 0 0 0-.158-.314v-.005l.003-.003a1.071 1.071 0 0 1 1.039.118c.006.01.018.018.036.024.006.002.009 0 .008-.007-.011-.075-.14-.154-.113-.219a.2.2 0 0 0 .013-.114l.002-.012.002-.004a.006.006 0 0 1 .004-.002l.004.001c.002.001.003.002.003.004.022.06.06.102.114.127.037.017.06.03.069.036.12.088.24.257.232.413-.003.05-.031.07-.077.075Zm-1.839-.376c.19-.01.403.132.548.254l.002.001h.003l.001-.003v-.002c-.085-.17-.24-.387-.465-.325a.185.185 0 0 0-.095.069v.003l.003.002.003.001Zm1.86.344c.087-.14-.05-.322-.156-.406a.005.005 0 0 0-.007 0 .006.006 0 0 0-.001.008.89.89 0 0 1 .153.4.008.008 0 0 0 .009.002.007.007 0 0 0 .003-.004Zm-.25-.225c-.241-.154-.534-.14-.808-.14-.038 0-.103-.012-.156.001l-.003.002a.005.005 0 0 0 0 .003v.003l.004.002a10.408 10.408 0 0 1 .963.139.005.005 0 0 0 .003-.003v-.004a.006.006 0 0 0-.003-.003ZM13.827 18.223a.632.632 0 0 1-.64-.277.941.941 0 0 0-.193-.323c-.003-.003-.002-.006 0-.01.151-.156.339-.227.533-.09.166.117.33.502.3.7Zm-.653-.7c.235.058.444.269.578.46l.004.002h.005a.007.007 0 0 0 .003-.004v-.004a1.455 1.455 0 0 0-.178-.359c-.099-.143-.265-.163-.413-.104l-.002.002v.005l.003.002ZM5.878 18.09c-.113-.01-.169-.081-.169-.211 0-.044.014-.092.02-.14.038-.092.11-.22.206-.26a.175.175 0 0 1 .2.033c.004.003.004.006 0 .01a1.16 1.16 0 0 0-.257.568ZM14.002 17.618c-.025-.017-.04-.045-.059-.061-.051-.044-.105-.066-.173-.053l-.002.002-.002.002v.003l.003.002c.142.069.23.19.312.319l.003.002h.005a.006.006 0 0 0 .003-.003v-.005l-.072-.182a.98.98 0 0 1 .14.437c-.094.023-.165-.005-.214-.081a.296.296 0 0 0-.039-.052 1.379 1.379 0 0 0-.222-.43v-.005c0-.002 0-.004.002-.006a.012.012 0 0 1 .004-.004c.125-.077.248.002.311.115ZM11.358 17.74c-.11-.006-.036-.158-.004-.215a.049.049 0 0 1 .019-.024c.005-.004.008-.003.01.003a.171.171 0 0 0 .112.12c.005.002.006.004 0 .007a.488.488 0 0 0-.137.11ZM11.53 17.597l-.008-.077v-.003a.006.006 0 0 1 .006-.004h.003l.025.015a.012.012 0 0 1 .006.012l-.005.06a.016.016 0 0 1-.004.01.016.016 0 0 1-.009.005c-.003 0-.007 0-.01-.002a.013.013 0 0 1-.006-.008s0-.002.002-.003a.006.006 0 0 0 0-.005ZM13.12 18.218c-.22.259-1.03-.09-1.285-.193-.104-.042-.226-.02-.336-.02-.343.004-.093-.23.025-.279.077-.012.125-.018.146-.02.292-.009.514-.02.663-.032.006 0 .008.002.003.006a.514.514 0 0 0-.129.306.01.01 0 0 0 .005.004.01.01 0 0 0 .006.001.011.011 0 0 0 .006-.003c.158-.163.436-.573.702-.271a.768.768 0 0 1 .194.501Zm-.366-.442c.115.03.234.157.296.252l.004.002h.004a.006.006 0 0 0 .003-.003v-.005c-.04-.131-.18-.401-.35-.377-.101.015-.21.106-.277.179l-.002.002.001.003.003.002.002-.001a.466.466 0 0 1 .316-.054Zm-1.154-.023c.212.055.458.1.652-.025a.006.006 0 0 0 .002-.003v-.004a.005.005 0 0 0-.002-.003 7.985 7.985 0 0 1-.426.019c-.048.001-.143.013-.191.001-.016-.004-.028-.003-.037.003-.009.006-.008.01.002.012Z" fill="#FBD284"/><path d="m14.079 3.974.055-.21c.001-.003.003-.005.007-.003l.043.015c.006.002.008.006.006.012l-.031.114c-.013.043-.039.057-.075.075-.005.003-.007.002-.005-.003ZM13.69 5.553l.394-1.455a.01.01 0 0 1 .004-.006.01.01 0 0 1 .007-.001c.01.001.013.008.01.02a164.491 164.491 0 0 1-.396 1.45.01.01 0 0 1-.013.004.01.01 0 0 1-.005-.005.01.01 0 0 1 0-.007ZM13.413 5.83a.026.026 0 0 1 .02.003l.014.028c.025.036.008.073-.009.117l-.007.03-.045.154a.027.027 0 0 1-.007.018l-.05.165v.005c-.011.012-.016.024-.014.036V6.4l-.045.154-.012.03-.062.214-.003.013-.05.17-.012.036-.021.073c-.001.004-.004.006-.008.006l-.061.005h-.004a.007.007 0 0 1-.004-.005V7.09l.353-1.148a.651.651 0 0 0 .027-.113ZM13.4 7.324h.002c0 .02-.006.028-.02.025a9.839 9.839 0 0 1-.249-.06.012.012 0 0 0-.005.003.012.012 0 0 0-.005.009c-.002.019-.012.031-.03.037a.004.004 0 0 1-.004 0l-.001-.003v-.002l.018-.062.002-.005a.012.012 0 0 1 .013-.004c.091.028.184.048.28.062ZM9.76 7.342c-.054.012-.114.02-.161.04-.165.066-.023.15.055.185.096.041.196.07.3.088l.136.027c-.09.006-.199-.017-.261-.023a2.873 2.873 0 0 1-.693-.134c-.088-.033-.132-.161-.151-.244-.001-.005 0-.007.005-.007l.77.068ZM12.723 7.344l.301.083c.007.008.006.014-.004.02a.016.016 0 0 1-.011 0 27.977 27.977 0 0 0-.248-.067c-.03-.009-.043-.02-.038-.036ZM12.661 7.352c.033.025.011.044 0 .07-.213.531-.384.947-.51 1.248-.005.012-.014.018-.026.017-.005 0-.007-.003-.005-.008l.338-.82c.028-.06.046-.126.075-.186a.7.7 0 0 0 .027-.06c.02-.053.054-.12.065-.184.002-.006.005-.01.008-.013a.1.1 0 0 0 .026-.056c0 .004.001.001.002-.008ZM12.431 9.024c-.006-.004-.008-.01-.005-.02.152-.482.305-.964.46-1.445.001-.004.004-.006.008-.005l.437.116c.006.002.007.004.002.008-.02.015-.039.021-.057.018l-.322-.06c-.007 0-.012.002-.014.009l-.476 1.39c-.002.005-.005.006-.01.004a.058.058 0 0 1-.012-.007l-.004-.003a.243.243 0 0 0-.007-.005ZM13.5 7.81l-.19.57a.006.006 0 0 1-.001.003l-.003.001-.016.002h-.003l-.002-.002-.002-.003V8.38l.153-.585a.006.006 0 0 1 .007-.005l.053.014h.002l.001.003.001.002v.002ZM13.842 8.036a.012.012 0 0 1-.009-.01c0-.014.004-.022.014-.026a.048.048 0 0 1 .023 0c.31.06.623.104.937.131.006.001.01.005.008.011l-.002.018c-.001.005-.005.008-.01.007a7.995 7.995 0 0 1-.96-.13ZM13.815 8.158a.01.01 0 0 1-.004-.002.01.01 0 0 1-.004-.008.01.01 0 0 1 0-.005l.007-.018c.002-.006.005-.008.01-.007.318.061.636.107.957.135.005 0 .007.003.007.008v.02c0 .005-.003.008-.01.008a7.8 7.8 0 0 1-.963-.131ZM13.796 8.265a.011.011 0 0 1-.004-.002.01.01 0 0 1-.003-.004.012.012 0 0 1-.002-.005V8.25l.008-.018c.002-.005.005-.006.01-.005.317.06.635.106.956.134.006 0 .009.004.008.01v.02c-.001.004-.004.007-.008.006a7.839 7.839 0 0 1-.964-.131ZM13.78 8.375l.005-.02c0-.002.002-.004.004-.005a9.37 9.37 0 0 0 .96.133c.006 0 .01.004.01.01l.002.018c0 .006-.003.01-.01.009a7.76 7.76 0 0 1-.963-.132c-.007-.001-.01-.006-.008-.013ZM13.109 8.551c-.07.169-.117.292-.143.371-.007.02-.017.033-.03.039a.007.007 0 0 1-.007-.001.007.007 0 0 1-.002-.004v-.004l.144-.477c.003-.009.008-.01.015-.004l.1.091a.01.01 0 0 1 .003.007.01.01 0 0 1-.016.01l-.055-.031c-.004-.003-.007-.002-.01.003ZM13.674 8.818c-.038.064-.063.11-.073.135a.47.47 0 0 0-.031.248c-.008.006-.02.008-.038.006a.064.064 0 0 1-.034-.014c-.075-.06-.024-.116.021-.183.046-.068.098-.132.155-.192ZM13.13 8.909c-.07.123-.116.213-.14.268-.089.212.186.263.163.38a2.75 2.75 0 0 0-.026.262.804.804 0 0 0 .075.403c.003.006.001.008-.005.005a.923.923 0 0 1-.24-.135.034.034 0 0 0-.038-.003.266.266 0 0 0-.113.135.577.577 0 0 0 .024.51.712.712 0 0 1-.284-.437c-.006-.047.01-.072.046-.102.125-.102.22-.218.33-.322.004-.004.007-.003.01.002.019.059.068.164.125.193.008.004.01.002.009-.006a6.058 6.058 0 0 0-.223-.766c-.03-.084.226-.323.287-.387ZM13.758 9.144a.518.518 0 0 0-.088.27c-.087.024-.102-.07-.095-.13 0-.005.003-.009.007-.011a.755.755 0 0 0 .176-.129ZM12.425 9.392l.003-.065.009-.067.005-.045c.025-.025.037-.018.034.022a.338.338 0 0 1-.051.155ZM13.88 9.362a.294.294 0 0 0-.058.197c-.067.012-.106-.013-.12-.076 0-.004.001-.007.005-.01.057-.029.115-.066.174-.111ZM12.373 9.535c0-.013.008-.01.024.01a.018.018 0 0 1 .003.018l-.739 1.832a.015.015 0 0 1-.008.009l-.125.051h-.005l-.001-.003v-.003a1144.975 1144.975 0 0 1 .85-1.914ZM12.357 10.264c.008-.009.011-.007.01.004-.024.263-.05.529-.077.798-.005.054-.024.05-.052.09a.006.006 0 0 1-.003.002h-.004a.006.006 0 0 1-.003-.002v-.004c.03-.274.06-.548.092-.823.004-.03.02-.043.037-.065ZM12.253 11.774l.042.027a.009.009 0 0 1 .004.005l-.001.006a.008.008 0 0 1-.004.004h-.006l-.08-.03h-.002l-.002-.003v-.006l.078-.221c0-.002.001-.003.003-.004a.007.007 0 0 1 .004-.001l.005.002a.007.007 0 0 1 .001.005c.004.07-.03.135-.047.204-.001.006 0 .01.005.012ZM6.565 11.824c-.024.165-.049.296.094.415.075.062.282.203.38.184.08-.015.163-.073.232-.116.004-.003.007-.002.009.003.076.304.246.538.51.703.155.097.333.151.511.113-.034.193-.42.084-.537.043-.109-.038-.22-.151-.3-.234a8.113 8.113 0 0 1-.358-.405c-.004-.004-.008-.004-.012 0a.1.1 0 0 0-.028.064c0 .006-.004.008-.009.005-.243-.106-.41-.175-.581-.278-.022-.013-.032-.039-.032-.078a.807.807 0 0 1 .121-.419Z" fill="#878786"/><path d="M13.401 7.324a1.925 1.925 0 0 1-.284-.062.012.012 0 0 0-.01.008l-.018.063v.002l.001.002.002.001h.002c.018-.006.028-.018.03-.037 0-.002 0-.004.002-.005 0-.002.002-.003.003-.004a.012.012 0 0 1 .01-.002l.243.059c.015.003.022-.005.02-.024.01-.002.017 0 .022.01a.014.014 0 0 1 .002.011l-.025.09c-.002.008-.007.011-.015.01l-.307-.086c-.007-.002-.009-.006-.007-.013l.025-.085c.004-.012.012-.017.024-.015.1.016.193.042.28.077ZM12.66 7.36a.098.098 0 0 1-.027.056.117.117 0 0 1 .026-.056ZM12.625 7.43c-.01.064-.046.13-.065.182a.731.731 0 0 1-.026.061c-.03.06-.048.126-.076.187-.002-.006-.004-.008-.006-.009l.173-.422ZM13.287 7.498l-.148-.04a.009.009 0 0 0-.01.006l-.01.034a.009.009 0 0 0 .006.01l.148.041a.009.009 0 0 0 .01-.006l.01-.034a.009.009 0 0 0-.006-.01ZM13.044 8.268a.007.007 0 0 0-.004-.003.008.008 0 0 0-.007.002.008.008 0 0 0-.002.004l-.306.976a.014.014 0 0 1-.003.006.013.013 0 0 1-.011.004.012.012 0 0 1-.006-.003l-.306-.208a.02.02 0 0 1-.007-.022l.469-1.488a.025.025 0 0 1 .03-.017l.46.133a.026.026 0 0 1 .018.032l-.194.705a.01.01 0 0 1-.008.007.01.01 0 0 1-.01-.003l-.113-.125Zm-.601.764a.055.055 0 0 0 .011.007c.005.002.008 0 .01-.005l.476-1.39c.003-.006.007-.009.014-.007l.322.059c.019.003.038-.003.057-.018.005-.004.004-.006-.002-.008l-.437-.116c-.004-.001-.007 0-.008.005-.154.481-.308.963-.46 1.445-.002.01 0 .016.006.02a.221.221 0 0 1 .01.008ZM13.361 8.397a.01.01 0 0 0-.005 0 .01.01 0 0 0-.005.003.102.102 0 0 1-.104.031c-.002 0-.003-.001-.003-.003l.177-.648a.018.018 0 0 1 .009-.01.017.017 0 0 1 .013-.002l.31.083a.016.016 0 0 1 .012.019l-.128.552a.043.043 0 0 1-.02.026.043.043 0 0 1-.032.005l-.224-.056Zm.139-.587v-.004l-.002-.002-.002-.001-.053-.014a.006.006 0 0 0-.007.004l-.153.586v.002a.006.006 0 0 0 .007.005l.016-.002h.003l.002-.004.189-.57Z" fill="#3C3C3B"/><path d="M13.064 8.424c0-.001 0-.002.002-.003a.008.008 0 0 1 .008-.002l.004.002.12.13a.015.015 0 0 1 .003.006v.006c-.034.228-.18.354-.328.506l-.003.001h-.003a.005.005 0 0 1-.003-.006l.2-.64Zm.054.124.055.031a.01.01 0 0 0 .016-.01.01.01 0 0 0-.004-.007l-.1-.091c-.006-.006-.011-.005-.014.004l-.144.477v.004l.002.004.004.001h.004c.012-.006.022-.019.029-.039.026-.079.074-.202.143-.37.002-.006.005-.007.01-.004ZM13.454 9.324c-.033-.045-.059-.071-.081-.096a.015.015 0 0 1-.004-.012c.007-.059.01-.213.062-.246.014-.01.033-.038.057-.087a.012.012 0 0 1 .014-.006l.015.003c.006.001.007.004.004.009-.036.049-.07.1-.101.151-.067.109-.012.168.072.232a.017.017 0 0 1 .006.011l.023.13v.002l-.002.001a.004.004 0 0 1-.005 0c-.024-.028-.045-.071-.06-.092ZM12.425 9.392a.338.338 0 0 0 .051-.155c.003-.04-.009-.047-.034-.022a.045.045 0 0 1 .007-.033c.003-.005.007-.006.011-.002l.122.086a.01.01 0 0 1 .004.005.01.01 0 0 1 0 .007l-.073.146c-.002.004-.006.006-.01.005a.159.159 0 0 1-.078-.037ZM11.441 11.521a.009.009 0 0 1-.006-.009.01.01 0 0 1 .001-.003l.944-2.034c.003-.006.008-.008.014-.005l.077.033a.012.012 0 0 1 .008.01.277.277 0 0 1 0 .051 632.71 632.71 0 0 1-.177 1.66.287.287 0 0 1-.02.07l-.183.46a.013.013 0 0 1-.008.007.013.013 0 0 1-.01 0l-.64-.24Zm.93-1.977a1089.035 1089.035 0 0 0-.849 1.908l.002.002.002.002h.003l.124-.052a.015.015 0 0 0 .01-.01l.737-1.831a.018.018 0 0 0-.003-.018c-.016-.02-.024-.023-.024-.01l-.001.009Zm-.014.72c-.017.022-.033.036-.037.065a86.422 86.422 0 0 0-.092.826.006.006 0 0 0 .007.003.006.006 0 0 0 .003-.002c.028-.04.047-.036.052-.09.027-.27.053-.535.077-.798.001-.012-.002-.013-.01-.004ZM13.709 9.609c.103.059.215-.014.295-.075.005-.003.01-.003.013.002l.018.025c.003.005.002.01-.002.013l-.227.19a.009.009 0 0 1-.006.003l-.003-.001a.008.008 0 0 1-.003-.003l-.217-.278c-.007-.009-.005-.012.006-.01.064.009.065.099.126.134Z" fill="#3C3C3B"/><path d="M7.53 4.961a2.854 2.854 0 0 0-.125.608.01.01 0 0 1-.01.004 1.132 1.132 0 0 0-.239-.139c-.003-.002-.005-.005-.003-.01.064-.155.135-.307.212-.456-.027.096-.066.19-.063.292a.012.012 0 0 0 .006.01.011.011 0 0 0 .012 0c.084-.06.163-.216.21-.309ZM7.335 7.672a.325.325 0 0 0-.01.14.015.015 0 0 1-.017.017c-.216-.037-.313-.17-.427-.339a.026.026 0 0 0-.023-.011c-.028.002-.037.019-.03.052a.538.538 0 0 0 .08.184.003.003 0 0 1-.004.001.53.53 0 0 1-.158-.096.01.01 0 0 0-.01.005c-.062.154-.076.363-.09.54-.04.48-.034.963.077 1.418.021.086.11.065.182.049l-.409.347a.007.007 0 0 1-.012-.005 8.996 8.996 0 0 1 .129-2.732.009.009 0 0 1 .009-.004c.058.013.113.032.17.04.039.006.077.012.115.02a.014.014 0 0 1 .01.008l.058.116a.424.424 0 0 0 .36.25ZM10.093 7.9l-.048.033a.017.017 0 0 0-.005.006.017.017 0 0 0-.002.007.017.017 0 0 0 .006.014c.088.07.199.107.305.135a.018.018 0 0 1-.014.006 3.025 3.025 0 0 1-.58-.16.004.004 0 0 1 0-.005h.003l.335-.035ZM8.851 8.897c0 .003-.003.004-.011.004a6.328 6.328 0 0 1-.228-.244.183.183 0 0 0-.107-.061.02.02 0 0 0-.013.002c-.028.014-.043.035-.045.062a.6.6 0 0 0 .043.246 1.448 1.448 0 0 1-.146-.558h.003c.072.046.148.087.218.136a.034.034 0 0 1 .01.012c.08.142.172.276.276.4ZM7.07 10.454c-.093.09-.17.178-.166.32.007.198.053.387.137.568a.01.01 0 0 0 .01.006c.015 0 .028.001.04.006a.435.435 0 0 0-.288.063.011.011 0 0 1-.009-.003 7.054 7.054 0 0 1-.175-.64.02.02 0 0 1 .01-.022l.44-.298ZM8.392 13.211a.284.284 0 0 1-.098.169c-.076.065-.025.083.029.122a.26.26 0 0 0 .045.026c.233.104.457.232.673.384.017.013.03.027.038.044a2.37 2.37 0 0 0-.451-.26c-.087-.038-.276-.098-.359-.045-.107.069-.013.232.043.302.01.013.013.04.001.05-.004.004-.009.003-.013-.001a6.631 6.631 0 0 1-.58-.721c-.004-.007-.003-.009.005-.006.188.06.54.152.667-.064ZM9.7 14.722c.855.547 1.85.927 2.864 1.019a19.063 19.063 0 0 0 .205.019v.002l-.003.003v.001l.184.002a4.902 4.902 0 0 1-.498-.011 7.18 7.18 0 0 1-3.103-.94c-.004-.003-.006-.007-.003-.011l.008-.014a.01.01 0 0 1 .006-.005h.007c.1.046.315.106.334-.065ZM11.354 17.525c-.032.057-.106.209.005.216a.088.088 0 0 0-.015.036v.003l.002.003h.006a.689.689 0 0 1 .172-.057c-.117.05-.367.283-.025.28.11-.001.232-.023.336.019.256.103 1.066.452 1.285.193-.018.255-.54.164-.69.13-.241-.056-.483-.107-.725-.154-.185-.035-.381-.053-.572-.078-.049-.006-.165-.02-.167-.087-.005-.162.13-.38.286-.439.045-.017.066-.037.102-.065ZM6.175 17.627a.49.49 0 0 1-.03.086c-.074.17-.054.45.183.48.075.008.177-.02.26-.036l.01.145c0 .003 0 .006-.003.009a.013.013 0 0 1-.007.005 1.27 1.27 0 0 1-.489.02c-.118-.021-.14-.088-.128-.2.02-.189.089-.358.204-.51ZM6.88 17.711a.534.534 0 0 0-.043.394c.094.323.518.11.715.032a.421.421 0 0 1 .179-.018c.218.013.437.018.656.015.13-.002.257-.018.387-.034a.84.84 0 0 1-.158.037 4.279 4.279 0 0 0-.448.053c-.31.06-.502.1-.578.12-.185.05-.774.19-.89-.022a.2.2 0 0 1-.017-.104.72.72 0 0 1 .196-.473ZM5.73 17.74c-.007.047-.02.095-.02.139 0 .13.056.2.169.211l-.003.107a.015.015 0 0 1-.013.015c-.054.006-.175.005-.21-.04-.058-.07.038-.353.076-.433ZM13.908 17.948c.01.01.024.027.039.052.05.076.12.104.213.08l-.008.084a.012.012 0 0 1-.007.01.359.359 0 0 1-.188.032c-.008 0-.012-.005-.012-.013a1.37 1.37 0 0 0-.037-.245ZM13.187 17.946c.15.216.404.328.64.277-.008.063-.038.09-.1.1-.167.03-.332.025-.497-.017-.005-.001-.007-.004-.006-.01a.826.826 0 0 0-.037-.35Z" fill="#B05B00"/><path d="M9.338 2.5h.004c.002.002.003.004 0 .007-.45.457-.83.981-1.141 1.573a3.113 3.113 0 0 0-.142.3 1.755 1.755 0 0 0-.372.3.783.783 0 0 0-.157.281c-.046.093-.126.248-.21.308a.011.011 0 0 1-.012.001.012.012 0 0 1-.006-.01c-.002-.102.036-.196.064-.292A8.109 8.109 0 0 1 9.338 2.5ZM7.335 7.672c.144.011.253-.005.353-.108a.008.008 0 0 1 .008-.002.008.008 0 0 1 .006.006c.052.265.243.488.455.645.025.018.029.04.026.068l-.01-.03a.018.018 0 0 0-.01-.01 1.233 1.233 0 0 1-.517-.47.015.015 0 0 0-.02-.005.546.546 0 0 1-.298.066.013.013 0 0 0-.008.007 11.27 11.27 0 0 0 .048 1.125c-.275-.066-.265.28-.25.447a.169.169 0 0 1 0 .041.017.017 0 0 1-.007.011l-.206.169c-.072.016-.16.037-.182-.049-.112-.455-.117-.939-.078-1.418.015-.177.03-.386.09-.54a.01.01 0 0 1 .006-.005.01.01 0 0 1 .008.002.53.53 0 0 0 .158.093.003.003 0 0 0 0-.003.538.538 0 0 1-.08-.181c-.007-.033.003-.05.03-.052a.026.026 0 0 1 .023.011c.115.168.212.302.428.339a.015.015 0 0 0 .017-.017.325.325 0 0 1 .01-.14ZM7.71 10.683c.002.016.01.042.021.08.106.331.223.64.353.926a4.54 4.54 0 0 0-.549.253.014.014 0 0 1-.018-.005 52.073 52.073 0 0 1-.301-.506.159.159 0 0 0-.125-.077.095.095 0 0 0-.04-.006.01.01 0 0 1-.01-.006c-.085-.18-.13-.37-.137-.569-.005-.14.073-.23.165-.319l.282-.192h.003a.008.008 0 0 1 .006 0c0 .002.001.002.002.003.081.164.188.322.348.418ZM14.477 15.49a4.455 4.455 0 0 1-1.527.278l-.183-.001h-.001v-.002l.002-.003v-.004h-.001a17.108 17.108 0 0 1-.203-.017c-1.013-.092-2.01-.472-2.863-1.019-.014-.264-.433-.627-.622-.766a.115.115 0 0 0-.039-.044 3.948 3.948 0 0 0-.672-.384.26.26 0 0 1-.046-.026c-.054-.04-.105-.057-.028-.122a.283.283 0 0 0 .098-.169l.018-.077c.002-.007.004-.007.006 0a.536.536 0 0 0 .09.172l.222-.448a.01.01 0 0 1 .009-.006.01.01 0 0 1 .01.005c.669.97 1.597 1.776 2.687 2.24a5.56 5.56 0 0 0 2.9.404c.045-.005.092-.017.143-.011Z" fill="#E89500"/><path d="m10.45 1.658-.156-.145a.038.038 0 0 0-.037-.009.249.249 0 0 1-.087.012c-.006 0-.008.002-.009.007v.002l.002.002.002.001h.002c.055-.002.091.022.108.071a.011.011 0 0 0 .01.008l.064.006.002.001c.038.027.078.05.12.069a.02.02 0 0 1 .017.017c0 .006 0 .012-.005.02-.075.132-.147.262-.214.391l-.087.031a.013.013 0 0 1-.012-.001l-.07-.051-.105-.119a.017.017 0 0 1-.005-.012l.016-.38c0-.006.003-.007.008-.003l.187.137a.016.016 0 0 0 .01.003l.203-.01.004-.001a.006.006 0 0 0 .002-.004c0-.001 0-.003-.002-.004a.007.007 0 0 0-.003-.003l-.18-.036a.029.029 0 0 1-.013-.006l-.154-.129v-.004h.001l.205-.03c.017-.002.028.012.04.023.05.044.095.092.136.146Zm-.02.095c-.091.036-.14.139-.128.234v.002a.004.004 0 0 0 .006 0h.002l.13-.224.001-.005c0-.002 0-.003-.002-.005a.008.008 0 0 0-.009-.002ZM14.56 15.355a.315.315 0 0 0-.034-.168.622.622 0 0 0 .177-.057.01.01 0 0 1 .006.004l.094.133a.01.01 0 0 1 .002.006.01.01 0 0 1-.001.005l-.08.168a.013.013 0 0 1-.012.007h-.097a.01.01 0 0 1-.006-.002.011.011 0 0 1-.005-.004l-.044-.092Z" fill="#87C300"/><path d="M8.972 7.434a.717.717 0 0 1-.114-.167.01.01 0 0 1 .006-.008.01.01 0 0 1 .005 0l.049.007c.005 0 .008.004.01.009.01.054.027.105.053.153.012.023.01.025-.009.006ZM12.251 7.332c-.151.354-.528.61-.881.719a.017.017 0 0 1-.013-.001c-.516-.242-1.144-.25-1.692-.151-.005 0-.01 0-.015-.002a2.514 2.514 0 0 1-.51-.31l.001-.001h.002c.078.026.155.048.238.063.325.059.64.092.944.1.46.011.851.007 1.274-.046.123-.015.396-.056.48-.149.037-.04.05-.142.06-.218 0-.005.003-.008.008-.008l.094-.011a.01.01 0 0 1 .01.015Z" fill="#33210F"/><path d="m10.4 8.11-.05-.015a.835.835 0 0 1-.31-.141.017.017 0 0 1 .006-.021l.048-.032c.397-.028.817.008 1.184.171.006.003.005.005 0 .006a2.33 2.33 0 0 1-.878.032Zm.02-.174a7.907 7.907 0 0 1 .685.103v-.006a1.731 1.731 0 0 0-.695-.103.012.012 0 0 0 .01.006Z" fill="#FF7646"/><path d="M14.066 3.996a.013.013 0 0 1-.005-.003.014.014 0 0 1-.005-.015l.053-.194c.003-.01.01-.02.018-.026a.03.03 0 0 1 .026-.005l.083.023a.028.028 0 0 1 .012.006.034.034 0 0 1 .008.012l.004.015c0 .005 0 .01-.002.016l-.053.194a.014.014 0 0 1-.017.01l-.122-.033Zm.068-.232-.055.21c-.002.004 0 .006.005.003.037-.018.062-.032.075-.075a2.51 2.51 0 0 0 .032-.114c.001-.006-.001-.01-.007-.012l-.043-.015c-.004-.002-.006 0-.007.003ZM13.668 5.627c-.007-.001-.01-.006-.01-.014a92.85 92.85 0 0 1 .278-1.023c.042-.15.088-.348.14-.52l.002-.004a.011.011 0 0 1 .008-.004h.005l.04.015a.01.01 0 0 1 .005.004 75.834 75.834 0 0 1-.406 1.513.216.216 0 0 1-.013.034c-.002.005-.007.007-.012.006l-.037-.007Zm.416-1.53-.394 1.456a.01.01 0 0 0 0 .007.01.01 0 0 0 .018.002 168.003 168.003 0 0 0 .396-1.451c.003-.012 0-.019-.01-.02a.01.01 0 0 0-.006.001.01.01 0 0 0-.004.006ZM13.41 5.844a.65.65 0 0 1-.024.1 740.054 740.054 0 0 0-.352 1.15v.004l.004.002h.003l.062-.005c.004 0 .006-.002.007-.006l.02-.073.379.09c.005.001.009 0 .01-.006l.007-.018c.002-.006 0-.01-.006-.011l-.376-.09.049-.171.001.005c0 .003.003.006.007.007l.355.083c.006.002.01 0 .011-.006l.006-.019c.002-.005 0-.008-.006-.01a76.054 76.054 0 0 0-.35-.082c-.005-.002-.008-.001-.011 0a.05.05 0 0 0-.01.009l.062-.214.35.083c.005.002.009 0 .01-.006l.006-.014c.002-.006 0-.01-.006-.01l-.348-.083.045-.154a.027.027 0 0 0 0-.013c-.002-.012.003-.024.015-.036a.039.039 0 0 0-.002.023.011.011 0 0 0 .008.008l.318.074c.006.002.01 0 .013-.006l.006-.011.001-.004a.01.01 0 0 0 0-.003.008.008 0 0 0-.003-.003l-.003-.002-.338-.08.05-.166.002.012c.002.003.005.005.01.006l.306.07a.033.033 0 0 0 .019 0 .014.014 0 0 0 .007-.006.014.014 0 0 0 .002-.009.015.015 0 0 0-.011-.013l-.329-.078.045-.155c.137.036.24.062.311.075.014.003.021-.004.02-.02 0-.005-.002-.007-.006-.008l-.318-.076c.017-.044.034-.082.009-.117l.344.08c.005.001.009 0 .01-.006l.005-.013c.003-.005 0-.01-.005-.01l-.356-.086a.01.01 0 0 0-.01.003.01.01 0 0 0-.003.004.026.026 0 0 0-.02-.003.05.05 0 0 1 .01-.036.012.012 0 0 1 .006-.004h.007l.375.089c.016.004.022.014.019.03l-.302 1.348a.013.013 0 0 1-.002.005.013.013 0 0 1-.014.005 79.652 79.652 0 0 1-.45-.12.151.151 0 0 1-.042-.017c-.01-.005-.012-.013-.009-.023.13-.414.258-.826.384-1.235.004-.013.002-.018.015-.028ZM12.722 7.343c-.005.016.008.028.039.037.082.021.164.044.248.067h.01c.01-.006.012-.012.005-.02.004 0 .008 0 .013.002a.016.016 0 0 1 .01.007c.006.01.004.021-.006.034-.005.008-.012.01-.021.007l-.306-.086c-.015-.004-.025.001-.03.016l-.392 1.066c-.002.004 0 .008.004.01l.153.07c.004.003.005.006.004.01l-.013.047c-.003.01-.008.012-.017.008l-.183-.084a.014.014 0 0 0-.011 0 .014.014 0 0 0-.005.003.016.016 0 0 0-.003.004l-.07.157a.013.013 0 0 0 .003.015l.191.162a.014.014 0 0 1 .005.015l-.007.03a.01.01 0 0 1-.002.005.011.011 0 0 1-.01.003.011.011 0 0 1-.006-.002l-.232-.202a.013.013 0 0 1-.003-.014l.361-.859c.002 0 .004.003.007.009l-.339.82c-.002.004 0 .007.005.007.012 0 .021-.005.026-.017.127-.3.297-.717.511-1.249.01-.025.033-.044 0-.069.004-.021.025-.024.061-.009ZM13.727 8.452c-.011-.002-.016-.009-.013-.02l.093-.418a.288.288 0 0 1 .018-.054c.002-.004.005-.006.009-.005.328.06.658.11.989.146a.029.029 0 0 1 .025.032l-.045.413c-.006.052-.06.038-.094.036a8.304 8.304 0 0 1-.982-.13Zm.114-.416c.318.064.638.107.96.131.006 0 .01-.002.01-.007l.003-.018c.001-.007-.002-.01-.008-.01A9.301 9.301 0 0 1 13.869 8a.048.048 0 0 0-.023 0c-.01.004-.015.012-.014.026a.012.012 0 0 0 .01.01Zm-.027.122a7.8 7.8 0 0 0 .964.13c.006.001.009-.002.009-.008v-.02c0-.004-.002-.006-.007-.007a9.487 9.487 0 0 1-.956-.135c-.006-.001-.01.001-.011.007l-.007.018a.01.01 0 0 0 0 .005l.001.004a.01.01 0 0 0 .007.006Zm-.018.107c.318.063.64.107.964.131.005 0 .007-.002.007-.006l.001-.02c0-.006-.002-.01-.008-.01a9.285 9.285 0 0 1-.955-.134c-.006-.001-.01 0-.01.005l-.008.018a.012.012 0 0 0 .004.014.012.012 0 0 0 .005.002Zm-.009.123c.319.064.64.108.964.132.006 0 .01-.003.009-.01l-.002-.017c0-.006-.003-.01-.01-.01a9.367 9.367 0 0 1-.96-.133.008.008 0 0 0-.004.005l-.005.02c-.002.007.001.012.008.013ZM12.436 9.26l-.008.067a.084.084 0 0 1 .008-.067ZM12.176 11.8a.007.007 0 0 1-.004-.004v-.005c.042-.123.09-.244.142-.362.005-.012.011-.012.017-.001a.21.21 0 0 1 .018.048c.02.075.04.149.058.223a.258.258 0 0 1-.015.17c-.002.006-.006.008-.011.005l-.205-.075Zm.072-.038c.017-.069.05-.133.047-.204 0-.002 0-.003-.002-.005a.007.007 0 0 0-.004-.002h-.005a.007.007 0 0 0-.002.005l-.079.221v.006l.002.002.003.002.08.029h.006a.008.008 0 0 0 .004-.004.008.008 0 0 0 0-.006.008.008 0 0 0-.003-.005l-.042-.027a.01.01 0 0 1-.005-.012Z" fill="#575656"/></svg>