<svg width="20" height="20" fill="none" xmlns="http://www.w3.org/2000/svg"><g clip-path="url(#a)"><path d="M10 20c5.523 0 10-4.477 10-10S15.523 0 10 0 0 4.477 0 10s4.477 10 10 10Z" fill="#814625"/><path d="M9.627 9.494a.703.703 0 0 1-.025-.102 2.304 2.304 0 0 0-.035-.15c.156-.227.901-1.413.053-2.174-.941-.845-2.041.262-2.041.262l.003.005A2.72 2.72 0 0 0 6.03 7.33c-.007-.006-1.103-1.105-2.042-.262-.939.842.075 2.206.08 2.213a.661.661 0 0 0-.025.098c-.101.583-.793.763-.793 1.78 0 1.015.723 1.851 2.2 1.851h.606a.967.967 0 0 0 .765.344c.475 0 .79-.341.792-.344h.578c1.477 0 2.2-.816 2.2-1.852 0-.946-.6-1.167-.764-1.664ZM16.684 8.333s.11-.98-.725-1.19V6.75h-.646v.383c-.881.188-.768 1.2-.768 1.2V8.5s-.113 1.012.768 1.2v.84c-.929.163-.811 1.208-.811 1.208v.168s-.114 1.012.767 1.2v.382h.646v-.392c.835-.21.725-1.19.725-1.19a.065.065 0 0 0 .066-.064v-.04a.065.065 0 0 0-.066-.064s.11-.97-.714-1.187V9.7h-.01c.881-.187.768-1.2.768-1.2a.065.065 0 0 0 .066-.063v-.04a.065.065 0 0 0-.066-.064Zm-.527 3.416h-.06a.065.065 0 0 0-.065.064v.04c0 .035.03.064.066.064h.06c0 .607-.21.71-.28.727-.012.003-.024-.006-.024-.017v-.194c0-.107-.07-.165-.141-.197a.346.346 0 0 0-.284 0c-.07.032-.141.09-.141.197v.194c0 .011-.011.02-.023.017-.07-.017-.28-.118-.28-.727v-.168c0-.607.21-.71.28-.727.011-.003.023.005.023.017v.194c0 .107.07.165.141.197.09.04.194.04.284 0 .07-.032.141-.09.141-.197v-.194c0-.011.011-.02.023-.017.07.017.28.118.28.727Zm-.015-3.248h.059c0 .608-.21.71-.28.727a.018.018 0 0 1-.023-.017v-.194c0-.107-.07-.166-.142-.198a.347.347 0 0 0-.283 0c-.07.032-.142.09-.142.198v.194c0 .011-.01.02-.022.016-.071-.017-.28-.119-.28-.726v-.168c0-.609.21-.71.28-.727a.018.018 0 0 1 .022.017v.193c0 .107.071.166.142.198.09.04.194.04.283 0 .071-.032.142-.09.142-.198v-.193c0-.012.011-.02.023-.017.07.017.28.12.28.727h-.06a.065.065 0 0 0-.066.063v.04c0 .036.03.065.067.065ZM13.449 10.062s.114-1.018-.775-1.201v-.914c.865-.196.753-1.197.753-1.197h-.483c0 .609-.21.71-.28.727a.018.018 0 0 1-.023-.017v-.194c0-.107-.07-.165-.142-.197a.347.347 0 0 0-.283 0c-.07.032-.142.09-.142.197v.194c0 .012-.01.02-.022.017-.07-.017-.28-.12-.28-.727h-.484s-.116 1.039.803 1.207v.903c-.896.18-.78 1.202-.78 1.202v.168s-.116 1.022.78 1.202v.861c-.92.168-.803 1.207-.803 1.207h.484c0-.609.21-.71.28-.727a.018.018 0 0 1 .022.017v.194c0 .107.071.165.142.197.09.04.194.04.283 0 .071-.032.142-.09.142-.197v-.194c0-.011.011-.02.023-.017.07.017.28.12.28.727h.483s.112-1.001-.753-1.196v-.873c.889-.183.775-1.201.775-1.201a.065.065 0 0 0 .066-.064v-.04a.065.065 0 0 0-.066-.064Zm-.543.168h.06c0 .609-.21.71-.28.727a.018.018 0 0 1-.023-.017v-.194c0-.107-.071-.165-.142-.197a.347.347 0 0 0-.283 0c-.071.032-.142.09-.142.197v.194c0 .011-.011.02-.023.017-.07-.017-.28-.12-.28-.727v-.168c0-.609.21-.71.28-.727a.018.018 0 0 1 .023.017v.194c0 .107.071.165.142.197.09.04.194.04.283 0 .07-.032.142-.09.142-.197v-.194c0-.011.011-.02.023-.017.07.017.28.12.28.727h-.06a.065.065 0 0 0-.066.064v.04c0 .036.03.064.066.064Z" fill="#fff"/></g><defs><clipPath id="a"><path fill="#fff" d="M0 0h20v20H0z"/></clipPath></defs></svg>