<svg xmlns="http://www.w3.org/2000/svg" width="20" height="20" fill="none"><g clip-path="url(#a)"><path fill="#F72C6A" d="M10 0 1.34 5v10.002L10 20l8.662-4.998V5.001L10 0Z"/><path fill="#fff" d="M10 1.793 3.048 5.809v8.027L10 17.85l6.955-4.014V5.81L10 1.793Z"/><path fill="#FB8DAE" d="M3.048 5.81 10 10.026l6.955-4.218L10 1.793 3.048 5.809Z"/><path fill="#FED6E2" d="M3.048 5.81 10 10.026v7.823l-6.952-4.014V5.81Z"/><path fill="#FCA4BE" d="M16.955 5.81 10 10.026v7.823l6.955-4.014V5.81Z"/><path fill="#F72C6A" d="M10.028 5.16h-.054L7.191 6.666l.003-3.33-1.279.717v8.167L10 14.576h.056l4.057-2.383V7.488L10.027 5.16Zm2.771 6.248L10 13.025l-2.8-1.617V8.175L10 6.558l2.8 1.617v3.233Z"/><path fill="#821635" d="m10 13.025-2.8-1.617v-3.08l-1.285-.78v4.671L10 14.578v-1.552Z"/><path fill="#DD275E" d="M12.8 8.328v3.08L10 13.025v1.552h.06l4.056-2.383V7.531l-1.316.797Z"/></g><defs><clipPath id="a"><path fill="#fff" d="M0 0h20v20H0z"/></clipPath></defs></svg>