<svg xmlns="http://www.w3.org/2000/svg" width="20" height="20" fill="none"><path fill="url(#a)" d="M10 19.85c5.44 0 9.85-4.41 9.85-9.85 0-5.44-4.41-9.85-9.85-9.85C4.56.15.15 4.56.15 10c0 5.44 4.41 9.85 9.85 9.85Z"/><path fill="#000" d="M10 20C4.486 20 0 15.514 0 10S4.486 0 10 0s10 4.486 10 10-4.486 10-10 10ZM10 .3C4.651.3.3 4.651.3 10c0 5.349 4.351 9.7 9.7 9.7 5.349 0 9.7-4.351 9.7-9.7 0-5.349-4.351-9.7-9.7-9.7Z"/><path fill="#ECEDED" d="m11.778 12.91 1.981 1.917a1.13 1.13 0 1 0 1.805.74 1.13 1.13 0 1 0-.73-1.818l-1.998-1.932c-.758-.028-1.093.354-1.058 1.094Z"/><path fill="#fff" d="M16.703 13.891a1.13 1.13 0 0 0-1.87-.142l-1.997-1.932c-.446-.016-.745.11-.908.367l1.754 1.697c-.169.13-.3.305-.375.508l.453.438a1.13 1.13 0 0 0-.375.507 1.13 1.13 0 0 0 2.101-.713 1.13 1.13 0 0 0 1.217-.73Z"/><path fill="#000" d="M14.446 17.006a1.284 1.284 0 0 1-.912-2.184l-1.862-1.802a.153.153 0 0 1-.046-.102c-.02-.425.076-.749.287-.961.207-.21.519-.307.929-.293a.153.153 0 0 1 .1.043l1.884 1.823a1.284 1.284 0 0 1 2.177.919c0 .704-.57 1.278-1.274 1.283a1.284 1.284 0 0 1-1.283 1.274Zm-2.517-4.162 1.937 1.873a.153.153 0 0 1-.014.231.979.979 0 1 0 1.571.775.988.988 0 0 0-.01-.135.152.152 0 0 1 .172-.172.979.979 0 1 0 .135-1.945c-.3 0-.58.136-.767.373a.152.152 0 0 1-.226.015l-1.954-1.89c-.294-.005-.508.066-.643.203-.14.14-.207.366-.201.672Z"/><path fill="#6C1C00" d="m15.117 9.1.007-.006-.045-.046a1.59 1.59 0 0 0-.322-.32l-4.006-3.987-5.772 6.085c.375.804 2.297 1.495 3.42 3.2.074.278.205.526.398.73.976 1.03 3.148.556 4.85-1.058 1.605-1.521 2.22-3.512 1.47-4.598Z"/><path fill="#CA3900" d="m15.117 9.1.007-.006-.045-.046a1.572 1.572 0 0 0-.322-.32l-3.875-3.857-4.298 4.778c.374.804 2.281 2.973 2.724 3.642.443.668 1.365 1.16 1.902 1.286.519.123.893.139 1.248.025.408-.242.81-.545 1.19-.904 1.604-1.521 2.22-3.512 1.47-4.598Z"/><path fill="#000" d="M10.223 15.5c-.647 0-1.19-.207-1.57-.608a1.856 1.856 0 0 1-.437-.784c-.612-.917-1.478-1.54-2.175-2.042-.59-.424-1.316-.989-1.5-1.386-.035-.074.239.068.295.01l5.771-6.086c.037-.038.061-.045.114-.045.053 0 .312.175.35.212l3.816 3.807a1.792 1.792 0 0 1 .341.34l.036.035a.198.198 0 0 1 .051.088c.763 1.192.115 3.24-1.531 4.8-.85.805-1.841 1.363-2.792 1.57a3.615 3.615 0 0 1-.769.088Zm-4.999-4.645c.188.271.59.56 1.048.89.73.525 1.639 1.18 2.292 2.172a.2.2 0 0 1 .026.058c.068.254.186.47.35.645.423.446 1.122.59 1.967.405.882-.193 1.806-.715 2.604-1.471 1.506-1.427 2.14-3.334 1.443-4.341a.176.176 0 0 1-.014-.023l-.001-.002a.191.191 0 0 1-.019-.02 1.381 1.381 0 0 0-.303-.3l-3.862-3.844-5.53 5.83Z"/><path fill="#CB3C00" d="M9.706 9.756C11.41 8.142 12 5.999 11.023 4.969c-.976-1.03-3.148-.556-4.85 1.059-1.704 1.614-2.293 3.757-1.317 4.786.976 1.03 3.147.556 4.85-1.058Z"/><path fill="#FD7121" d="M11.023 4.97c-.976-1.03-3.148-.557-4.85 1.058-.73.69-1.255 1.48-1.54 2.236-.082.663.057 1.254.448 1.666.976 1.03 3.147.556 4.85-1.058.73-.691 1.254-1.48 1.54-2.236.081-.664-.058-1.255-.448-1.667Z"/><path fill="#000" d="M6.282 11.534c-.641 0-1.178-.204-1.553-.6-1.041-1.097-.447-3.355 1.323-5.033 1.77-1.678 4.057-2.15 5.097-1.052 1.04 1.098.447 3.356-1.323 5.034-.846.802-1.834 1.358-2.78 1.564a3.587 3.587 0 0 1-.764.087Zm3.307-6.939c-.99 0-2.236.554-3.297 1.56-1.63 1.545-2.218 3.581-1.31 4.54.429.451 1.134.597 1.989.41.885-.192 1.814-.717 2.615-1.476 1.63-1.545 2.217-3.582 1.31-4.54-.317-.334-.776-.494-1.307-.494Z"/><path fill="#ECEAEE" d="m8.036 6.887-1.819-1.76c.277-.211.452-.55.435-.929a1.118 1.118 0 0 0-1.054-1.06 1.11 1.11 0 0 0-1.153 1.263 1.11 1.11 0 1 0 .717 1.785l1.839 1.779c.085.082.2.125.318.117.541-.038.813-.336.844-.868a.422.422 0 0 0-.127-.327Z"/><path fill="#fff" d="M6.218 5.128a1.11 1.11 0 0 0 .34-.43l.026-.385c.166-.127-.071-.244.002-.443a1.12 1.12 0 0 0-.987-.732 1.11 1.11 0 0 0-1.153 1.263 1.11 1.11 0 0 0-1.197.72c.142.387.503.641.92.723.387.076.946.072 1.173-.215l2.442 2.207a.42.42 0 0 0 .08.06c.183-.146.282-.374.3-.682a.422.422 0 0 0-.127-.327l-1.819-1.76Z"/><path fill="#000" d="M7.291 8.233a.568.568 0 0 1-.394-.16L5.17 6.401a1.256 1.256 0 0 1-1.019.35 1.263 1.263 0 0 1-1.112-1.11A1.262 1.262 0 0 1 4.283 4.24a1.26 1.26 0 0 1 1.323-1.251 1.27 1.27 0 0 1 1.197 1.204c.015.352-.12.693-.365.94L8.141 6.78a.57.57 0 0 1 .172.444c-.036.618-.376.966-.983 1.008a.563.563 0 0 1-.039.002ZM5.162 6.036a.15.15 0 0 1 .105.042l1.838 1.779c.055.053.129.08.204.075.454-.031.678-.262.705-.726a.271.271 0 0 0-.082-.211l-1.819-1.76a.15.15 0 0 1 .013-.226.963.963 0 0 0 .377-.805.966.966 0 0 0-.912-.916.953.953 0 0 0-.71.264.952.952 0 0 0-.287.828.15.15 0 0 1-.17.17.962.962 0 0 0-1.087 1.06.961.961 0 0 0 1.708.483.15.15 0 0 1 .117-.057Z"/><defs><radialGradient id="a" cx="0" cy="0" r="1" gradientTransform="translate(10 10) scale(9.85001)" gradientUnits="userSpaceOnUse"><stop stop-color="#FFA1A1"/><stop offset=".183" stop-color="#FF7E7E"/><stop offset=".573" stop-color="#FF3A3A"/><stop offset=".856" stop-color="#FF1010"/><stop offset="1" stop-color="red"/></radialGradient></defs></svg>