<svg width="20" height="20" fill="none" xmlns="http://www.w3.org/2000/svg"><path d="m13.194 10.694-1.527 1.112.972 1.25-5.694 4.305v-1.667l-1.667 1.112v2.083c0 .556.833 1.111 1.25 1.111.333 0 .694-.232.833-.417 0 0 6.945-5.277 7.222-5.555.278-.278.278-1.806 0-2.084-.277-.277-1.389-1.25-1.389-1.25Z" fill="url(#a)"/><path d="m5.278 3.194 1.667 1.25V2.64l5.833 4.444-5.834 4.584V8.472l.973.695 1.666-1.111-4.305-3.473v10.695s9.028-6.945 9.305-7.222c.278-.278.278-1.806 0-2.084C14.306 5.694 7.917.694 7.917.694 7.777.556 7.222 0 6.527 0c-.694 0-1.25.556-1.25.833v2.361Z" fill="url(#b)"/><defs><linearGradient id="a" x1="5.556" y1="18.056" x2="14.722" y2="18.056" gradientUnits="userSpaceOnUse"><stop stop-color="#8F0EF1"/><stop offset=".067" stop-color="#8E10F1"/><stop offset=".133" stop-color="#8B14EF"/><stop offset=".2" stop-color="#871CED"/><stop offset=".267" stop-color="#8028E9"/><stop offset=".333" stop-color="#7736E4"/><stop offset=".4" stop-color="#6D48DF"/><stop offset=".467" stop-color="#615BD9"/><stop offset=".533" stop-color="#566FD2"/><stop offset=".6" stop-color="#4A82CC"/><stop offset=".667" stop-color="#4094C7"/><stop offset=".733" stop-color="#37A2C2"/><stop offset=".8" stop-color="#30AEBE"/><stop offset=".867" stop-color="#2CB6BC"/><stop offset=".933" stop-color="#29BABA"/><stop offset="1" stop-color="#28BCBA"/></linearGradient><linearGradient id="b" x1="5.278" y1="7.222" x2="14.722" y2="7.222" gradientUnits="userSpaceOnUse"><stop stop-color="#9200F6"/><stop offset=".067" stop-color="#9100F6"/><stop offset=".133" stop-color="#9000F6"/><stop offset=".2" stop-color="#8C00F7"/><stop offset=".267" stop-color="#8800F7"/><stop offset=".333" stop-color="#8200F8"/><stop offset=".4" stop-color="#7B00F8"/><stop offset=".467" stop-color="#7300F9"/><stop offset=".533" stop-color="#6B00FA"/><stop offset=".6" stop-color="#6300FB"/><stop offset=".667" stop-color="#5C00FB"/><stop offset=".733" stop-color="#5600FC"/><stop offset=".8" stop-color="#5200FC"/><stop offset=".867" stop-color="#4E00FD"/><stop offset=".933" stop-color="#4D00FD"/><stop offset="1" stop-color="#4C00FD"/></linearGradient></defs></svg>