<svg xmlns="http://www.w3.org/2000/svg" width="20" height="20" fill="none"><path d="M10 20c5.523 0 10-4.477 10-10S15.523 0 10 0 0 4.477 0 10s4.477 10 10 10Z" fill="#000"/><path d="M17.34 8.462a7.43 7.43 0 0 0-1.126-2.671 7.414 7.414 0 0 0-.91-1.102 7.413 7.413 0 0 0-2.373-1.6 7.428 7.428 0 0 0-5.801 0 7.415 7.415 0 0 0-2.373 1.6 7.415 7.415 0 0 0-1.599 2.372 7.429 7.429 0 0 0 .689 7.072c.267.396.572.765.91 1.102a7.41 7.41 0 0 0 2.373 1.6 7.43 7.43 0 0 0 7.071-.69 7.41 7.41 0 0 0 1.103-.91 7.41 7.41 0 0 0 1.6-2.372 7.43 7.43 0 0 0 .435-4.401Zm-7.303 8.028a6.52 6.52 0 0 1 0-13.041 6.526 6.526 0 0 1 6.521 6.52 6.526 6.526 0 0 1-6.52 6.521Z" fill="#fff"/><path d="M10.153 15.924h.176c.031 0 .061 0 .092-.008h.008c.03 0 .053 0 .083-.008h.024c.023 0 .046 0 .068-.007h.024c.023 0 .046-.008.076-.008h.015c.031 0 .062-.008.092-.008s.054-.008.085-.015h.015c.023 0 .046-.007.068-.007h.016c.03-.009.054-.009.084-.016a1.3 1.3 0 0 0 .176-.038h.016c.022-.008.053-.008.076-.016h.007l.177-.045a6.843 6.843 0 0 1-1.707-.161c-.842-.184-1.645-.513-2.326-1.08a4.715 4.715 0 0 1-1.7-3.665 4.454 4.454 0 0 1 1.049-2.847 4.546 4.546 0 0 1 3.382-1.607h.177V5.37h-.2a5.518 5.518 0 0 0-2.25.513 5.64 5.64 0 0 0-1.01.612c-.324.246-.62.529-.88.842-.245.29-.458.605-.635.941a5.382 5.382 0 0 0-.627 2.082l-.023.336v.199a5.525 5.525 0 0 0 .513 2.25c.191.421.535 1.041 1.048 1.508a5.919 5.919 0 0 0 3.673 1.27h.138Z" fill="#fff"/><path d="M11.821 14.944a7.799 7.799 0 0 1-1.125-.123c-1.576-.283-2.931-1.247-3.428-2.701-.605-1.768.321-3.681 2.081-4.262.336-.113.687-.17 1.041-.17.452 0 .903.093 1.317.26l.428-.91a8.23 8.23 0 0 0-.39-.145 4.508 4.508 0 0 0-1.355-.207c-.46.001-.918.076-1.354.222a4.26 4.26 0 0 0-1.508.873c-.21.187-.403.395-.574.62a4.315 4.315 0 0 0-.865 2.327 4.352 4.352 0 0 0 .23 1.713c.195.567.508 1.086.918 1.523.375.406.812.712 1.34.995.55.291 1.232.444 1.943.544.46.06 1.072.076 1.431.076.314-.115.444-.168.613-.237.145-.069.29-.138.436-.222.146-.084.169-.1.413-.26a.424.424 0 0 0 .061-.046c-.841.145-1.056.137-1.653.13Z" fill="#fff"/><path d="M13.704 13.804c-.237.015-.574.037-.957.037-.68 0-1.515-.06-2.226-.298-1.103-.367-2.143-1.308-2.143-2.472a2.095 2.095 0 0 1 3.926-1.025l.91-.452a2.958 2.958 0 0 0-.543-.726 3.103 3.103 0 0 0-4.393 0 3.104 3.104 0 0 0-.911 2.196c.002.427.093.85.269 1.24.16.352.382.681.665.987a4.68 4.68 0 0 0 1.906 1.209c.696.23 1.722.314 2.717.245a5.71 5.71 0 0 0 .834-.122c.34-.268.647-.574.918-.911-.237.023-.674.069-.972.092Z" fill="#fff"/></svg>