<svg width="20" height="20" fill="none" xmlns="http://www.w3.org/2000/svg"><circle cx="10" cy="10" r="10" fill="#fff"/><path fill-rule="evenodd" clip-rule="evenodd" d="M7 6 4 9v.465c0 .256.013.9.03 1.432l.029.967 2.97-2.97L10 5.922l2.967 2.966c1.631 1.632 2.981 2.967 3 2.967.018 0 .033-.643.033-1.428V9l-3-3-3-3-3 3Zm.697 4.97-2.302 2.303 2.303 2.303L10 17.878l2.303-2.302 2.302-2.303-.72-.72-.719-.719-1.583 1.583L9.999 15l-.862-.864-.863-.863 1.56-1.561c.859-.859 1.56-1.581 1.56-1.606 0-.024-.313-.358-.697-.741L10 8.668l-2.302 2.303Z" fill="#000"/></svg>