<svg width="1033" height="1033" fill="none" xmlns="http://www.w3.org/2000/svg"><path d="M516.501 946.917c237.712 0 430.416-192.705 430.416-430.417 0-237.713-192.704-430.417-430.416-430.417-237.713 0-430.417 192.704-430.417 430.417 0 237.712 192.704 430.417 430.417 430.417Z" fill="#BA272D"/><path fill-rule="evenodd" clip-rule="evenodd" d="M293.717 344.032c2.883 0 5.767-.258 8.522-.732l68.867 162.612a50.356 50.356 0 0 0-15.168 59.163 50.356 50.356 0 0 0 53.044 30.277l76.227 180.087a50.36 50.36 0 0 0-12.318 55.24 50.356 50.356 0 0 0 75.115 23.102 50.362 50.362 0 0 0 6.199-78.342l76.184-180.044a50.354 50.354 0 0 0 52.268-30.378 50.361 50.361 0 0 0-14.564-58.675l68.781-162.396 2.41.086a50.364 50.364 0 0 0 44.112-26.038 50.357 50.357 0 0 0-21.101-69.122 50.351 50.351 0 0 0-51.133 3.037 50.357 50.357 0 0 0-17.33 20.114H339.169a50.365 50.365 0 0 0-42.482-28.62 50.349 50.349 0 0 0-25.981 5.469 50.354 50.354 0 0 0-21.101 69.122 50.353 50.353 0 0 0 44.112 26.038Zm124.433 153.53a49.37 49.37 0 0 0-2.152-.689L358.107 360.13l124.649 90.861-64.563 46.614-.043-.043Zm28.494 71.664a50.134 50.134 0 0 0 3.572-39.469l70.718-51.004 68.005 49.584a50.186 50.186 0 0 0 3.444 41.707L519.728 741.78l-73.084-172.554Zm232.855-204.792-56.04 132.267-1.377.344-62.927-45.839 120.258-86.729.086-.043Zm-304.52-47.518h293.674L521.02 423.401 374.979 316.916Z" fill="#fff"/></svg>