<svg xmlns="http://www.w3.org/2000/svg" width="20" height="20" fill="none"><circle cx="10" cy="10" r="10" fill="#09B709"/><path fill="#fff" d="M13.416 3.31c.684.327 1.398.915 1.611 1.327.173.334.21 1.243.05 1.243-.058 0-.104-.117-.104-.26 0-.333-.625-.96-1.275-1.28-1.154-.567-2.79-.537-3.87.071-.879.496-1.135 1.516-.564 2.242.264.336.93.681 2.206 1.142 1.162.421 1.965.816 2.477 1.22.209.164.413.298.455.298.042 0 .055-.29.029-.643-.044-.612-.07-.665-.536-1.086-.447-.405-1.456-.976-1.725-.976-.06 0-.11.117-.11.26 0 .143-.028.26-.062.26s-.28-.19-.545-.425a9.65 9.65 0 0 0-1.082-.795c-.33-.203-.6-.405-.6-.448 0-.133 1.655-.532 2.46-.592.786-.06.942.02.537.272-.219.137-.199.157.494.488 1.432.685 1.963 1.373 1.962 2.54 0 .482-.07.835-.243 1.223-.17.384-.21.585-.136.676.178.218.44 1.233.44 1.704 0 1.286-.495 2.41-1.507 3.423-.841.844-1.663 1.292-2.98 1.625-1.104.279-2.724.23-3.677-.11-.76-.273-.878-.375-.67-.584.14-.14.224-.134.767.052.655.226.993.265.993.117 0-.107-.251-.218-.503-.222-.216-.003-1.285-.438-1.628-.662-.156-.103-.232-.228-.196-.324.084-.218.28-.195.861.1.655.332 1.447.533 1.58.4.064-.064-.125-.162-.528-.274-.49-.136-.627-.218-.627-.376 0-.11.043-.227.095-.26.052-.032.548.018 1.102.112.838.141 1.13.15 1.745.048 1.89-.312 2.69-1.564 1.713-2.677-.408-.464-.739-.624-2.571-1.24-.829-.28-1.725-.655-1.993-.835l-.486-.327-.057.286c-.16.8.402 1.528 1.649 2.135l.728.354.033-.312.032-.31.546.465c.3.256.82.631 1.154.833l.61.367-.356.148c-.8.335-2.903.624-2.903.4 0-.043.097-.14.216-.214.202-.126.161-.161-.598-.529-1.007-.488-1.412-.822-1.69-1.398-.29-.595-.291-1.611-.005-2.242l.208-.458-.236-.479c-.35-.714-.33-2.122.045-2.936.838-1.826 3.016-2.94 5.597-2.863.924.027 1.18.074 1.668.307Z"/><path fill="#fff" d="M5.806 15.471c.443.27.532.38.46.568-.082.214-.408.168-.866-.122-.444-.28-.484-.355-.29-.55.173-.172.263-.158.696.104Zm-.399-1.243c.644.535.456 1.075-.21.601-.422-.3-.576-.594-.414-.79.164-.197.155-.2.624.19Zm1.338.052c.338.193.426.513.168.612-.187.072-.887-.343-.887-.525 0-.315.262-.347.72-.087Z"/></svg>