<svg width="20" height="20" fill="none" xmlns="http://www.w3.org/2000/svg"><g clip-path="url(#a)"><path d="M10 20c5.523 0 10-4.477 10-10S15.523 0 10 0 0 4.477 0 10s4.477 10 10 10Z" fill="#FEFEFE"/><path d="M10 19a9 9 0 1 0 0-18 9 9 0 0 0 0 18Z" fill="url(#b)"/><path d="M17.427 16.271c.777-1.23-.1-2.694-1.317-3.205a2.393 2.393 0 0 0-.327-.153c-.183-.486-.549-.928-1-1.162.56-1.925-.567-3.538-1.53-5.056 1.607-3.461-1.175-8.178-5.094-5.633-.706.484-1.319 1.233-1.375 2.117-.301.743-.606 1.233-.232 2.34C5.55 6.768 4.225 8.044 4.274 9.816c.126 1.054-.076 2.146.295 3.166.366.873.182 2.16.783 2.847-.681.813-.442 1.437-.292 2.388 2.827 1.769 6.95 1.85 9.85.185-.009-.193-.157 0-.175-.19.513-.175.85-.56 1.246-.885a2.132 2.132 0 0 0 1.446-1.056Z" fill="url(#c)"/><path d="m6.913 17.196.092-.24.025.152.08-.061c-.011-.032-.02-.057-.03-.08l.154-.108.042-.171c.097-.116.196-.23.29-.349.038-.049.064-.107.096-.162h.27c.054.085.097.086.15 0l.3-.03c.018.02.034.053.054.056.166.027.332.048.492.07l.123.094c.006.083-.047.189.081.2.002.07.045.086.105.09.055.004.11.018.164.028l.132.272-.023.006-.02.204v.06l-.059.3c.03.216-.1.402-.115.607-.017.234-.224.337-.335.506l.027.023.162-.09c.05.139-.043.199-.098.247l-.03.296H7.392l.038-.184c.155.025.243-.033.283-.154.211-.076.361-.191.373-.433.011-.227.044-.453.053-.68.005-.15.01-.296.063-.439.015-.042.002-.094.002-.15-.289 0-.547 0-.805.002-.033 0-.066.02-.098.03-.104.036-.208.075-.313.108-.021.006-.05-.013-.076-.02Zm1.646 1.627.001.008h.377l-.001-.039-.377.031Zm.56-1.857c.02.06.032.102.045.143l.038-.004.047-.14h-.13Zm-.199.613v-.015h-.363v.015h.363ZM11.288 19.116H9.28c0-.195.002-.389.09-.57l.03-.09.088-.212.15-.39c.001.054.015.112 0 .163-.063.233-.092.47-.071.714l.13-.306c.095-.016.089-.09.093-.16.01-.174.016-.347.032-.52.005-.044.04-.086.06-.13l.058.001-.017.345h.04l.038-.373c.02-.018.04-.037.09-.08-.011.108-.03.183-.024.257.013.2.036.4.055.6.011.052-.04.131.086.15v-.149l.032-.145c.042-.213.065-.433.131-.639.053-.16.104-.31.048-.475l.064.029.088.331c.02.298-.042.579-.138.86-.046.136-.038.294-.04.442-.002.046.043.093.067.14l.04-.015c.042-.281.078-.565.132-.844.037-.197.06-.39-.004-.583l-.059-.33h.03c.13.442.23.89.29 1.351.048-.17.088-.341.13-.512.008-.033.023-.065.036-.096l.024.006c.012.111-.04.234.058.33.02.012.052.022.055.037.017.072.02.146.038.216s-.007.16.086.197l-.028.45Z" fill="#260802"/><path d="M11.588 19.116h-.21c-.02-.402-.03-.804-.064-1.204-.015-.168-.04-.346-.176-.476l-.15-.538.26.036.22.112.031.031-.001-.001.03.03c.11.162.293.214.453.3l.111.03.006.45h-.06v-.214l-.452.084.034.104c.059.178.127.354.175.535.04.151.054.31.085.465.017.086.045.17.068.256h-.24c-.046-.199.004-.415-.12-.631v.63Zm-.324-1.838c.047.044.072.082.107.097.122.054.246.103.372.147.08.028.165.043.248.064l.013-.039a.959.959 0 0 0-.74-.269Z" fill="#260802"/><path d="M7.301 17.107c.033-.01.066-.029.099-.029.258-.002.516-.001.805-.001 0 .055.013.107-.003.15a1.394 1.394 0 0 0-.063.438c-.008.227-.041.453-.053.68-.012.242-.161.357-.372.433-.04.121-.128.18-.284.154l-.037.184h-.33l-.036-.268c.111-.026.06-.107.056-.169-.004-.06-.012-.12-.019-.18l.043-.023.176.19.119-.145.142-.009.263-.15.01-.156.117-.139-.033-.119.095-.17c-.008 0-.016-.002-.023-.003v-.335l-.155.03-.16-.09h-.18l-.13.095c-.057-.033-.113-.064-.17-.095-.126-.02-.23.032-.321.116l-.038-.114c.04-.022.079-.056.122-.063.115-.019.232-.026.36-.04v-.172Z" fill="#200603"/><path d="M11.948 19.116c-.023-.086-.051-.17-.068-.256-.03-.155-.045-.314-.085-.465-.048-.181-.116-.357-.175-.535l-.034-.104.452-.084v.214l.042.394c.035-.012.06-.018.06-.02-.013-.125-.028-.25-.042-.374l-.005-.45-.023-.448.093-.039v.931c.006.067-.036.143.06.22l.024-.215c-.012-.158.002-.31.091-.448l.095-.156.096.062-.001-.005.022.163-.003.655-.117-.016-.091.075-.021-.142a.6.6 0 0 0-.159.413c-.004.21 0 .42-.001.63h-.21Z" fill="#5C250E"/><path d="M12.157 19.116c0-.21-.003-.42.002-.63a.6.6 0 0 1 .158-.413l.021.142c.005.106-.017.215.037.316.022-.064.016-.127.025-.187.005-.035.037-.066.057-.098.007.033.016.066.02.099l.04.441.005.07h.019l.006-.07c.006-.057.018-.115.017-.172-.003-.123-.012-.245-.018-.368v-.09l.004-.655a.258.258 0 0 0 .019-.003c.032.107.074.212.093.322.036.21.066.42.085.633.021.22.027.442.04.663h-.63Z" fill="#200603"/><path d="M9.37 18.546c-.088.18-.09.375-.089.57h-.24c.01-.091.02-.182.03-.296.056-.048.15-.108.1-.248l-.163.09-.028-.022c.111-.169.319-.272.336-.506.015-.205.145-.391.115-.607l.118-.06-.029.246.031.005c.078-.278.115-.564.15-.85h.058c-.015.16-.023.324-.048.484-.024.15-.065.297-.099.446l-.152.417-.06.241-.03.09Z" fill="#120302"/><path d="M11.139 17.436c.135.13.16.308.175.476.034.4.045.802.065 1.204h-.09l.028-.45c-.024-.261-.042-.523-.076-.783-.02-.15-.067-.298-.102-.447ZM11.588 19.116v-.631c.124.216.074.432.12.63h-.12Z" fill="#5C250E"/><path d="M12.853 11.147c-.113.166-.216.34-.341.495-.081.1-.155.193-.14.329-.01.02-.018.041-.032.076-.048-.044-.086-.075-.119-.111a.585.585 0 0 0-.494-.197c-.124.008-.247.02-.37.034-.09.01-.18.029-.269.044l-.007.032.259.127a3.9 3.9 0 0 1-.008.033H10.39l-.15.095c0 .093-.007.168.002.241.01.09.024.183.118.234a.22.22 0 0 0 .115.204c.24.035.39-.084.505-.272.046-.077.106-.145.17-.232.034.048.055.065.06.086.038.153.074.307.107.461a.155.155 0 0 1-.011.102c-.089.15-.02.287.026.426.067.198.224.326.37.459.14.127.296.241.502.117.01-.007.029-.002.044-.002l-.026.143.127.3-.134.107-.177.049-.296-.063-.216-.052-.057-.034c-.055-.036-.093-.137-.18-.046l-.09-.015-.123-.038-.009.004-.105-.034.002.003-.267-.1.017-.014-.486-.324-.018.053-.035.003-.027-.026-.032-.034.002.003-.033-.033.003.003-.034-.032.004.003-.045-.034c-.055-.048-.112-.094-.164-.145a1.584 1.584 0 0 0-.72-.42l-.056-.012-.21-.035c.027-.045.063-.094.086-.147.02-.044.024-.094.035-.14a.065.065 0 0 0 .007-.021l.117-.148c.032-.054.078-.105.094-.163.054-.189.098-.38.145-.57l.057-.066c0-.029-.002-.057-.003-.086l.002.002.004-.06c.003-.052.006-.104.007-.155v-.304l.315.153-.052.045.262.176.047-.023c-.006-.04-.005-.083-.02-.119-.02-.044-.06-.08-.08-.124-.13-.29-.257-.58-.39-.881l-.09-.074c.112-.22.193-.451.384-.614.021.036.048.07.061.109.07.199.134.4.207.599.014.04.06.069.091.102l.21.27.18.18.15.15c.127.12.27.203.453.179.195-.025.39-.063.585-.08.215-.017.429-.077.649-.017.058.016.133-.012.197-.032.095-.029.187-.067.28-.102Zm-3.212 1.731c.008.01.004.005 0 0 .005.004.009.008 0 0l-.03-.03c-.008-.009-.005-.005 0 0-.005-.004-.01-.008 0 0l.03.03Zm-.12-.09-.034-.049a4.648 4.648 0 0 0-.02.023l.054.026Zm.536-.088.03-.026-.242-.444h-.107v.159c.106.103.204.216.319.31Zm.583.607-.462-.255c.068.223.221.256.462.255ZM6.281 9.7l.036-.27.049.14c.012-.002.023-.003.035-.003l.026-.293h.007V9.04l.007-.03c.096-.045.107-.07.056-.128l.011-.026.053-.024-.023-.023.03-.011.021-.012-.002-.004-.02.01c.005-.032.003-.067.016-.094.202-.39.471-.723.835-.976a.594.594 0 0 0 .158-.192c.203-.35.44-.675.727-.961.035-.035.074-.066.112-.098l.082.07c-.043.135-.117.253-.066.399.05-.01.092-.02.145-.032l.135.153a1.39 1.39 0 0 0-.51.322c.07.25.116.294.349.38.059.021.108.07.16.107l-.738-.117-.03.081c-.136.06-.254.11-.372.16l.012.035c.103.01.206.02.322.033-.014.218-.016.426-.044.63-.032.237-.025.462.098.674a.37.37 0 0 1 .058.152c.016.27.025.54.037.81l-.179-.046c-.02-.028-.047-.062-.058-.075l-.213-.088c-.036-.027-.074-.078-.108-.076-.117.009-.232.035-.347.058-.011.002-.017.032-.025.049-.236.063-.47.163-.72.06-.013-.167.037-.34-.047-.503L6.28 9.7Zm.847-1.261c-.27.19-.44.854-.29 1.109.031-.388.124-.746.29-1.11Z" fill="#1A1312"/><path d="m10.539 11.049-.18-.18.135-.074c.18.213.44.37.595.367l.213-.184.852-.084-.001-.01.23-.014c.056-.09.097-.16.138-.227.036-.076.081-.159.08-.24-.002-.09-.047-.177-.075-.272h-.116l-.03.148a73.5 73.5 0 0 0-.116.021l-.03-.137c-.086-.03-.169-.057-.268-.09l.042-.224.067.055c.022-.145.006-.18-.115-.247l-.012.042-.097-.025.067-.173-.137-.166c-.106-.027-.23.06-.326-.077l.11-.055a12.82 12.82 0 0 0-.037-.016v-.298h.06l.009.041.017-.009-.026-.031v-.03c.033-.12.01-.153-.119-.18l-.065-.025.034.085-.207.025-.219-.229.02-.02-.1-.041.018-.12c-.071-.019-.133-.026-.185-.052-.055-.028-.101-.073-.16-.117l.022-.12-.11-.035-.308.079c-.01-.114-.133-.06-.18-.12l.01-.098.11-.052c.047.017.103.072.12-.03l.24-.03h.15c.012.01.025.018.045.032.007-.028.01-.045.015-.061.047-.026.095-.05.152-.08v-.378l.023-.007.183.29.033-.096.197-.005a.025.025 0 0 1 .01.027c-.1.074-.022.158-.001.228.012.042.082.067.128.097l.033-.042c.008 0 .014.003.018.01l.069.04-.003-.002.038.02.005.003c0 .02-.002.04-.004.07l.061-.016.007.007-.018.092.095.008.024.03c.02.053.047.106.06.161.012.053.01.109.015.173l.118-.054.007.011c-.063.092.046.128.067.2l-.035.14.135.216.08-.034.071.056.02.034-.03.06c-.033.113-.013.158.09.21l.18.33-.03.102.032.015.061-.065.088.241.123.425.06.27c-.063.078-.045.128.053.151.075.152.016.287-.056.42a8.84 8.84 0 0 1-.026.038c-.094.035-.185.073-.28.102-.064.02-.138.048-.197.032-.22-.06-.434 0-.649.018-.195.016-.39.054-.585.08-.183.023-.326-.06-.452-.18.002-.103-.048-.152-.15-.15Zm.702-2.675-.04.031.17.214.04-.03-.17-.215Zm-.854-.417.033-.04a37.99 37.99 0 0 0-.066-.04l-.02.03.053.05Zm2.47 2.923.05-.049-.063-.047-.024.029.038.067Zm-2-2.667-.001-.028-.066.006.002.027.066-.005Zm1.18 1.347c-.007.005-.018.01-.019.016-.001.007.006.015.01.023l.028-.022c-.006-.005-.013-.01-.019-.017Z" fill="#2F2725"/><path d="M6.5 12.46c-.01-.006-.012-.013-.008-.024l-.03-.217-.084-.331.025-.39.082-.489v-.17c.063-.053.129-.135.213-.173.28-.125.58-.12.877-.078.143.021.28.084.42.128l-.063.015-.18-.014c-.148-.058-.294-.023-.451-.018.02.094.039.165.05.238.025.177.052.285-.207.37l-.122-.216c-.074.166-.14.307-.139.468-.024.133-.096.264-.036.418l.097-.388c.05-.037.103-.071.153-.11.073-.056.144-.115.228-.183l.038.083c-.016.07-.027.142-.047.211-.03.102-.068.2-.102.3h.001l-.031.031.002-.001a4.918 4.918 0 0 0-.02.01l.014.017c.009.152.009.301-.106.42a57.37 57.37 0 0 1-.147-.055l-.02.061c.002.04-.006.084.01.117.054.121.117.239.176.358l.034.029h-.002l.058.42.163.238.074-.118.066.003-.013.415-.048.422a29.87 29.87 0 0 1-.067.015l.067.044.043.06.186.248.04-.097.118.21c.118.019.097-.1.148-.149l.082.153.25.084c.03.01.06.022.09.034l-.09.058v.24l-.12-.001h-.09l-.21-.059-.15-.088-.03-.122c0-.01 0-.019.002-.028l.113-.045-.022-.038-.094.08-.058.033-.06.029-.338-.02-.006.002.008-.056-.065.016c-.12-.053-.173-.164-.23-.27l.002-.063v-.059h-.001l-.029-.21-.005-.152v-.09L6.98 14l-.067-.102-.03-.09-.022-.024-.056-.276-.043-.36.006-.002-.004-.087-.03-.09-.03-.09-.028-.031-.002-.059-.03-.09-.03-.06-.03-.09-.082-.09Zm.66 1.916.168.1c-.005-.098-.042-.144-.167-.1Zm.159-.128-.002-.046-.123.01.003.036h.122Z" fill="#813B31"/><path d="M12.248 13.928c-.015 0-.034-.005-.045.002-.205.124-.36.01-.5-.117-.147-.133-.304-.261-.371-.46-.047-.138-.115-.275-.027-.425a.155.155 0 0 0 .012-.102 13.268 13.268 0 0 0-.107-.46c-.006-.022-.026-.04-.06-.087-.065.087-.124.155-.17.232-.115.189-.264.307-.505.272a.219.219 0 0 1-.116-.204l.031-.57H11.332l.007-.033-.259-.127.008-.032c.09-.015.179-.034.269-.044.123-.015.246-.025.37-.034a.585.585 0 0 1 .494.197c.033.036.071.067.119.111.014-.035.023-.055.03-.076.049.134.103.266.142.403.015.053-.003.116-.005.175-.088.026-.034.1-.05.149l-.192.18.199.143-.028.017.081.26.007.057-.034.28a.043.043 0 0 1-.003.023l-.03.03-.1-.022-.029.157-.08.105Zm-.596-.958c.183.121.452.042.594-.158.012-.237-.033-.468-.075-.7l-.049.005.034.657c-.116.234-.312.19-.504.196Z" fill="#2F2725"/><path d="m11.5 3.247.026.039-.004.053.014.265-.005.444c-.001.049.006.103-.066.109l-.09-.033c-.056-.022-.117-.069-.17-.062-.124.017-.245.059-.368.09h-.379l-.02-.18-.03.004-.047.179h-.096a1.577 1.577 0 0 0-.621-.054l-.038.002-.054-.005v-.133l.03.004c.02-.099.047-.197.057-.297.01-.109.006-.22.007-.33.008-.057.02-.115.023-.173.019-.316.154-.557.444-.7.092.02.183.038.282.058l.178-.029-.005.029.27.095c.025.04.042.085.074.117.047.048.113.08.156.131.06.072.106.156.158.235h.002l.116.191.126-.05h.03Z" fill="#D69662"/><path d="M12.338 17.437c-.089.137-.103.29-.091.448l-.085-.005v-.93l-.092.038c-.187-.061-.371-.13-.56-.18-.287-.076-.577-.14-.878-.211l.03.123-.062.417h-.03c-.01-.149-.022-.296-.03-.444-.003-.064-.005-.123-.09-.125l-.277-.122-.018.045.295.106.028.179-.12.001-.055-.14-.302-.135-.082-.05.043-.085-.502-.07c-.073-.117-.19-.086-.296-.088-.029-.019-.056-.049-.087-.054-.23-.035-.462-.066-.693-.099-.098-.02-.196-.044-.295-.057-.087-.01-.176-.01-.247.058l-.107.028-.098-.029-.041-.117-.014-.03c.071-.042.083-.083-.003-.122l.116-.21.192-.02-.106.142c.025.086-.05.197.066.264.088-.058.05-.14.054-.21.008-.172.066-.244.237-.233.182.012.362.045.543.073.056.01.11.036.122-.052.063.014.125.03.188.042l.86.176c.005.084.072.1.134.116.13.033.258.068.39.088.325.05.607.21.9.344.246.114.482.254.733.358.129.054.28.056.42.081l.122.066-.036.054-.101-.018-.008.03.094.022-.035.09-.151.053c.01.14-.067.27.025.394Z" fill="#120302"/><path d="M7.995 10.716c-.14-.044-.277-.107-.42-.127-.296-.044-.596-.048-.876.077-.085.038-.15.12-.214.172v.171l-.057.017-.11-.187c.184-.146.367-.295.622-.318l-.026-.132.418-.075a1.38 1.38 0 0 0-.628.075l-.21.195-.147-.105-.012-.056.07-.214c.249.104.482.004.718-.06l.48-.03.214.088.058.075.178.046c.1.016.204.02.3.05.085.028.2.016.24.131-.114-.027-.23-.052-.345-.08-.28-.072-.448-.087-.575-.06l.888.29c.013.026.02.066.04.074.094.04.19.081.289.102.08.017.172.019.205-.09-.133-.172-.274-.273-.413-.297l-.151-.088v-.032l.254.043.014-.018-.185-.13.018-.03.425.214.012-.018-.117-.153.027-.029.248.167.087-.135.027-.027.06-.092c.029-.027.063-.05.084-.082.142-.205.263-.419.304-.669l.034.09-.033.33c-.191.163-.273.394-.384.614l.09.074c.132.3.26.592.39.881.02.044.06.08.079.124.016.036.014.08.02.12l-.046.022-.263-.176.052-.045-.314-.152v.303c-.001.051-.005.103-.007.154l-.038-.061-.032-.06c.018-.13.029-.26-.088-.357-.056-.062-.1-.145-.168-.18-.131-.067-.276-.105-.415-.156l-.165-.059c-.004-.005-.008-.006-.013 0l-.197-.06-.04-.003-.048-.019-.031-.003-.12-.02-.057-.014Z" fill="#150F0E"/><path d="M10.114 2.47c-.29.142-.426.383-.445.699-.004.058-.015.116-.022.174l-.136.498c-.023.031-.07.093-.113.153l.086.112-.113.028-.06.196c-.062-.01-.123-.02-.184-.034-.079-.016-.158-.035-.236-.054l-.124-.089-.019-.54.018-.126c.07-.043.034-.094.01-.144l.035-.152.043-.067-.002.003.295-.308v-.002l.044-.039.004-.009.01.001.045-.032-.003.002.059-.038-.004.002.346-.2.116-.02.42-.068-.07.053Z" fill="#843C32"/><path d="m8.77 5.27-.15-.11-.031-.136.004-.004.294.15c.005-.01.017-.026.023-.045.033-.096-.015-.394-.077-.494l-.035-.17.032-.101c-.003-.005-.003-.01 0-.014l.326.086c.07.018.142.033.213.05.01.058.017.116.03.173.019.089.041.177.058.248l.156.054-.076.021.127.043v-.054c.056-.005.123.008.167-.018.104-.062.2-.139.294-.217.038-.032.058-.085.086-.129l.028-.034.022-.028.007-.004.034.006c.01.043-.031.11.055.118l.087-.003v.3l.126.16.028.082c0 .02.002.039.003.058a.029.029 0 0 1-.027.005l-.091.03c-.053-.091-.126-.068-.192-.027-.159.1-.314.204-.462.301-.037.151.08.293-.014.434-.21-.111-.18-.364-.315-.527l-.04.057-.094-.169-.07.067-.248-.384-.04.127-.085.04c-.046.033-.128-.028-.154.058Zm1.468-.443c-.098-.03-.151.01-.18.103.132.037.155.023.18-.103Z" fill="#7D392F"/><path d="M6.857 17.496c.091-.084.194-.135.322-.116l.169.095.13-.095h.18l.16.09.155-.03v.335l.022.003-.094.17.032.119-.117.14-.01.155-.262.15-.143.01-.118.143-.176-.19-.043.023c.006.06.015.12.019.181.003.063.055.143-.056.169-.127-.442-.213-.889-.17-1.352Zm.546.02h-.03l.017.326h.013v-.326Z" fill="#260802"/><path d="m9.46 5.531.04-.057c.135.163.104.416.315.527.093-.14-.023-.283.014-.434.148-.097.303-.202.462-.3.066-.042.14-.065.192.025l.004.06-.023.087-.343.153-.123.055c-.014.005-.036.006-.04.016-.044.085.013.33.091.4l.108-.02c.1.212.185.252.294.138l-.129-.257.192-.036.197-.001.04.04-.036.079a.16.16 0 0 1-.021.007c-.093-.013-.116.046-.124.12a.484.484 0 0 0-.043.36c.197-.04.384-.081.495-.272l.027-.027.03-.063H11.107l.093.002-.101.212-.194.184c-.092.019-.186.032-.275.059-.316.093-.59-.028-.84-.187-.207-.13-.382-.31-.607-.497l-.098-.553.132.096-.009.013.101.03.139.225.027-.014-.015-.17Z" fill="#150F0E"/><path d="m9.087 5.35.098.554c.224.187.4.366.607.497.25.159.524.28.84.187.09-.027.183-.04.275-.06v.053l-.007.01-.092.048c-.051.016-.102.036-.154.046-.092.018-.189.054-.277.04-.298-.045-.53.095-.77.221l.009.135-.068.012c-.012-.107-.09-.136-.18-.15l-.012-.02-.016.019c-.098-.075-.205-.142-.294-.228-.13-.127-.247-.268-.37-.403l.125-.09.03-.24-.009-.038v.002c.01-.024.022-.048.034-.073l.002-.01.023-.069-.001-.002.04-.024v-.266l.064-.176.103.026Zm.374 1.5-.03-.03-.058-.121-.033-.058-.052-.093-.246-.658-.014-.014-.002.001.014.015.06.329c-.047.123.013.343.127.438.028.023.07.027.106.04l.036.003.062.118.03.03.03.06.002.002-.002-.002-.03-.06Z" fill="#7D392F"/><path d="M8.677 6.31c.122.136.24.277.37.404.088.086.195.153.293.228l.014.003.014-.001.18.15.208.18.124.117-.039.042.07.227-.163-.072-.196-.02-.03-.027.027.03c.118.189.259.35.48.42.048.06.17.005.18.119l-.208-.031-.577-.37-.263.101.161-.242-.22-.208-.15-.15-.001-.059v-.06l.145.017c-.096-.17-.179-.215-.257-.151l.112.133h-.06l-.18-.029-.134-.153-.145.032c-.052-.146.022-.264.066-.4l-.083-.069c.04-.05.078-.1.12-.156l.113-.006.014.002h.015Zm.604.96-.03-.03c-.004-.005-.009-.01.001.002a.043.043 0 0 1-.001-.002l.03.03.03.03.03.03.029.031.03.03.012.017.004-.004-.014-.015-.03-.03-.03-.03-.03-.03-.03-.029Z" fill="#150F0E"/><path d="M8.803 15.541c-.011.088-.066.061-.122.052-.18-.028-.361-.061-.543-.073-.17-.01-.229.061-.237.233-.003.07.034.152-.054.21-.116-.067-.041-.178-.066-.264l.106-.142-.191.02.142-.252v-.169l-.184-.143.011-.005h.057l.15.09c.056.133.182.15.299.181l.332.146.08.012.22.104Z" fill="#1A1312"/><path d="m12.55 16.812-.123-.066.074-.144c-.175.055-.322.01-.467-.099.121-.125.24.035.344-.01v-.261l-.166-.146.082-.082c.155.033.214.01.285-.102l.056.006.033.116c-.1.046-.096.136-.078.218.036.156.084.308.136.496-.016.06-.095.07-.177.074Z" fill="#251D1C"/><path d="M13.532 16.365c-.014-.004-.035-.003-.042-.013-.122-.174-.306-.198-.496-.211v-.02l.005-.008h.132l.023-.077.17.017c.085.058.17.04.263.003l-.01-.088.08-.087.175-.066.035.003.093.034-.19.114c-.027.029-.058.055-.078.088-.004.006.036.039.066.07l.016-.122c.02-.002.04-.002.061-.003l.005.067v.076l.082-.056.033-.03c0-.01 0-.02.003-.03l.013.001h.014l.031.029.081-.007.037.032-.082.045-.152.075.13.013.09.036.02.023c-.11.13-.189-.018-.321-.04l-.035.067-.046-.01.04-.073c-.132-.04-.196-.008-.24.113l-.006.035Z" fill="#612F26"/><path d="M8.534 5.02c-.125-.183-.196-.377-.114-.6l.02-.03.035.005v.37l.039.002c.015-.089.034-.177.043-.266.003-.035-.017-.072-.026-.108l-.001-.02.15.018c.004.028 0 .06.012.083.032.055.072.105.11.157l-.032.061-.12.119c-.005.004-.01.008.006-.004l-.004.005.119-.091c.017.008.048.015.048.024.004.088.003.177.003.288l-.149-.06c-.046-.019-.077-.01-.08.047l-.004.004-.055-.003Z" fill="#7D392F"/><path d="m13.294 13.986.024-.03.128-.058.147-.01.028-.08.066-.059.056-.062.03.001-.024.334-.127.203-.03.03-.028.03-.03.03-.033.027a.552.552 0 0 0-.026.003c-.03-.046-.06-.092-.1-.15h-.205l-.002-.038.066-.113.059-.037a.022.022 0 0 1 0-.021Z" fill="#D6925D"/><path d="m14.829 15.341-.025.177-.134.071-.23.002-.04.002h-.084l.056-.143-.146-.05v-.065l.12-.023.483.03Z" fill="#D18C56"/><path d="m11.514 5.353-.073.493c-.046.052-.099.11-.15.169l-.212-.094-.089-.181.006-.11c.03.059.049.104.077.142.007.01.045-.003.069-.005.03-.005.069 0 .09-.016.13-.102.189-.248.235-.4l.047.002Zm-.145.422c-.004-.008-.005-.02-.012-.023-.006-.002-.016.005-.024.008l.016.03.02-.015Zm-.09.09c-.004-.008-.005-.02-.011-.023-.007-.002-.017.005-.025.008l.016.03.02-.015Z" fill="#251D1C"/><path d="m14.495 14.555.09.011.093.08-.003-.003.09.033.061.03h-.003l.15.067.075.025.108.028-.002-.001.062.03h-.001l.037.088h-.095l-.45-.149-.059-.029-.153-.062h-.055a.024.024 0 0 0 0-.027l-.303-.121.18-.03.178.03Z" fill="#D6925D"/><path d="m6.914 10.39.026.13c-.255.024-.438.173-.623.319l.023-.22c-.002 0-.005 0-.007-.002l.014-.138.146.105.211-.195h.21Z" fill="#1A1312"/><path d="m13.773 13.688-.03-.001.006-.11.005-.008.128-.002c.058.076.05.156.016.238-.005-.002-.01-.005-.014-.005s-.01.003-.01.005l.024.393-.002-.003.025.034.014.106.023.072-.001-.002.004.092-.133.043-.085-.313.035-.178c.08-.132.069-.27.015-.412l-.02.051Z" fill="#D18C56"/><path d="m11.47 3.245-.125.051-.117-.192-.001.001c-.052-.079-.099-.162-.159-.235-.043-.051-.108-.083-.155-.13-.032-.033-.05-.078-.074-.118h.06c.03.01.061.02.092.028l.03.042.057.023.035.055-.002-.002.032.031-.002-.002.122.123-.002-.002.08.066.068.124.061.137Z" fill="#D6925D"/><path d="m9.086 5.35-.102-.025-.064.176h-.022l-.011-.113-.06-.066.13-.057.051-.093.04-.127.248.384.07-.067.095.17.015.17-.027.013-.138-.224-.102-.031.01-.013-.133-.096Z" fill="#612F26"/><path d="m7.596 15.94.041.117.024.12c-.031.055-.057.113-.096.162-.093.119-.193.233-.29.349l-.035-.097a.041.041 0 0 1 .002-.024l.029-.063-.001.001c.063-.006.105-.027.071-.101l.006-.008.043-.046.22-.308c-.004-.027-.01-.065-.014-.103Z" fill="#481C13"/><path d="m15.004 15.332-.15.002a36.464 36.464 0 0 0-.093-.082l.074-.149.02-.005c0 .031.002.063.005.127l.026-.071a.138.138 0 0 0 .025.004l.153.03.507.115c-.03.007-.059.018-.088.019l-.479.01Z" fill="#813B31"/><path d="m12.832 13.237.035.062-.025.058c-.087.01-.104-.05-.115-.115l-.06-.065-.06-.06-.03-.029-.021-.039-.06-.082-.016-.12.093.003.01-.03.05.055c-.047.07.003.083.056.092l.067.119.033.091-.001-.001.044.06ZM10.114 2.47l.071-.054a.188.188 0 0 0 .027-.003l.09-.023.055-.002c.082.02.163.067.25.016l.032.015c.043.08.115.11.203.111l.03.031.004-.008.009.003-.045.066-.271-.095.004-.029c-.062.01-.124.02-.177.03l-.282-.059Z" fill="#D6925D"/><path d="M7.302 17.107v.172c-.129.014-.246.021-.36.04-.043.007-.082.041-.122.063-.055-.105.004-.154.093-.186.026.007.055.026.076.02.106-.033.209-.072.313-.109Z" fill="#481C13"/><path d="M12.338 17.437c-.092-.123-.016-.254-.025-.394l.15-.053-.007.057.01.057c.02.08.042.16.063.239l-.097-.062-.094.156Z" fill="#200603"/><path d="m7.24 16.59.035.098-.042.17-.153.11.03.079-.08.06-.025-.151.235-.366Z" fill="#5C250E"/><path d="m11.15 7.207.08.123-.122.09c-.128-.072-.15-.213-.21-.33l.122-.03.03.028.044.045.003.004.024.031-.004.01.002-.01.03.039Z" fill="#2F2725"/><path d="m13.96 15.851-.093-.033.087-.008.031-.023.338-.042.163.077.098.056h-.002c-.029.09-.11.043-.166.065l-.053-.01.011-.115-.413.034Z" fill="#2C2422"/><path d="m12.216 8.86-.08.034a441.63 441.63 0 0 0-.135-.216l.035-.14c-.02-.072-.13-.108-.066-.2l.187.342c-.063.096.019.108.077.134l.003.005-.02.04Z" fill="#302826"/><path d="m6.282 9.7.074.007c.084.163.035.336.048.502-.02-.022-.04-.044-.059-.068-.021-.026-.04-.054-.06-.082l-.008-.086c.057-.064.06-.127-.004-.188l.009-.085ZM14.761 15.252l.093.082a.095.095 0 0 1-.025.007l-.483-.029-.15.005-.056.01-.001-.044.622-.031Z" fill="#251D1C"/><path d="M15.158 14.943h.094l-.037-.088.413.256-.031.024a45.836 45.836 0 0 1-.052-.01l-.029-.042-.217-.066-.146-.04.005-.034Z" fill="#7D392F"/><path d="M6.434 9.04v.233l-.007.001-.026.293-.035.002-.049-.139.117-.39Z" fill="#251D1C"/><path d="M12.951 16.127a6.685 6.685 0 0 1-.044-.004l-.271-.215a52.987 52.987 0 0 0-.07-.086l.063-.132c.004.115.096.167.166.234.066.064.136.126.204.19l-.006.007-.042.006Z" fill="#612F26"/><path d="m12.277 9.01.03-.06.278.597-.038.002-.18-.33-.09-.21Z" fill="#251D1C"/><path d="m6.501 12.46.082.089.03.09.03.06.03.09.002.059.028.03.03.09v.001l.03.09.004.087-.005.003h-.034l-.227-.69Z" fill="#612F26"/><path d="M11.466 4.157c.072-.006.065-.06.065-.11l.006-.443.026-.147.018.547-.02.167c-.032 0-.063.002-.095.003v-.017Z" fill="#995D42"/><path d="M10.211 2.413a.19.19 0 0 1-.027.003l-.42.068-.115.02-.045-.006.426-.14.187.03a.119.119 0 0 0-.006.025ZM11.732 4.21c.052.166-.005.315-.07.463a.242.242 0 0 1-.013-.011c.014-.067.024-.134.042-.199.033-.12.024-.136-.104-.164l.002-.06.093.003.05-.031ZM11.515 5.353l-.048-.003v-.24l.087-.12.051.003-.09.36Z" fill="#612F26"/><path d="M11.477 7.785c-.011.014-.031.042-.032.041-.046-.03-.116-.054-.129-.096-.02-.07-.099-.154.002-.228.054.094.032.23.16.283Z" fill="#302826"/><path d="m11.079 5.921.21.094-.022.028-.067.016v.075-.001l-.092-.002-.03-.03.001-.18Z" fill="#2C2422"/><path d="m15.005 15.332.478-.01c.03-.001.06-.012.089-.019l.03-.03.09.003c-.047.121-.152.093-.242.09-.149-.006-.297-.022-.445-.034Z" fill="#612F26"/><path d="M11.65 4.725c.007.01.006.018-.002.027l-.056.093-.136.029c-.009-.166.008-.182.162-.179l.032.03Z" fill="#BCBAB7"/><path d="m12.636 15.908.271.215c-.103.024-.175-.029-.239-.099l-.032-.116Z" fill="#813B31"/><path d="m6.428 11.026.057-.017-.082.49H6.38c.015-.096.032-.19.043-.286.007-.062.003-.125.005-.187ZM6.804 13.508l.056.276.023.024.03.09-.029.06c-.102-.133-.091-.296-.115-.45h.035Z" fill="#612F26"/><path d="m12.48 12.847.017.12-.092-.066.05-.203c.018-.05-.036-.123.051-.15l.015.208v.051l-.04.04ZM8.768 4.153l.123.09-.06.103c-.003.004-.004.009 0 .014l-.052-.002-.065-.062-.055-.034.088-.11.02.001Z" fill="#251D1C"/><path d="m6.945 14.527-.002.062c-.12-.153-.092-.317-.034-.483l.006.152.028.21h.001v.06Z" fill="#7D392F"/><path d="m6.284 10.06.06.081.06.068-.07.214-.05-.364Z" fill="#1A1312"/><path d="m11.963 8.327-.118.054c-.005-.064-.003-.12-.016-.173-.012-.055-.039-.108-.06-.161l.194.28Z" fill="#302826"/><path d="M10.907 6.581V6.53l.194-.184-.05.175-.034-.003-.027.035-.083.03Z" fill="#D18C56"/><path d="m11.108 7.42.122-.09.077.146-.197.004c0-.02 0-.04-.002-.06Z" fill="#302826"/><path d="m13.447 13.692.022-.063.068-.033.085-.003.06.117-.147.007a.449.449 0 0 1-.024-.007l-.064-.018Z" fill="#BCBAB7"/><path d="m11.017 6.517.035.003-.125.419h-.03l.094-.388.026-.034Z" fill="#995D42"/><path d="m7.235 14.898.34.02.029.058-.004.004-.119-.05-.005.025-.24-.057ZM6.378 11.888l.085.331H6.43l-.085-.33.033-.001Z" fill="#612F26"/><path d="m9.603 2.498.045.006-.346.2c.1-.07.2-.138.301-.206Z" fill="#481C13"/><path d="m12.82 10.268-.122-.425c.073.133.129.27.122.425Z" fill="#1A1312"/><path d="M8.767 4.153a.243.243 0 0 0-.02 0v-.54l.02.54Z" fill="#481C13"/><path d="M6.804 13.508H6.77l-.04-.36h.033l.042.36Z" fill="#1A1312"/><path d="m13.622 13.593-.085.003-.004-.063.21-.016.01.052-.004.008-.127.016Z" fill="#481C13"/><path d="m6.378 11.888-.033.002-.015-.026.004-.157.046-.209h.023l-.025.39Z" fill="#2C2422"/><path d="m13.96 14.498-.003-.093.3.068-.147.03-.15-.005ZM13.621 13.807l-.028.08-.147.011a41.21 41.21 0 0 0-.005-.111l-.004-.007.039-.002.003.003c.005.016.01.032.013.047l.13-.02Z" fill="#612F26"/><path d="m12.843 13.357.025-.058.088.33-.014.001-.1-.273Z" fill="#995D42"/><path d="m13.738 16.29.047.01c-.064.1-.151.111-.253.065l.006-.035.087.006a3.73 3.73 0 0 1 .031-.009l.082-.038Z" fill="#251D1C"/><path d="M8.957 5.265c-.043.02-.087.038-.13.057l.003.002-.055-.033c-.007-.005-.01-.012-.006-.02.026-.087.108-.026.154-.06l.034.054Z" fill="#D18C56"/><path d="m8.832 5.98-.031.241-.086-.03.089-.21h.028Z" fill="#612F26"/><path d="m14.135 16.08-.037-.03.188-.053-.059.15h-.024l-.009-.081-.06.015Z" fill="#7D392F"/><path d="M14.707 15.642c-.032.084-.01.196-.125.236h.002l.055-.22.062-.028.006.012Z" fill="#995D42"/><path d="m13.897 14.198-.024-.393c0-.002.007-.006.01-.005.005 0 .01.003.014.005v.393Z" fill="#7D392F"/><path d="m12.992 13.716.042.199-.032.042-.054-.242h.044Z" fill="#2C2422"/><path d="M10.841 2.53c-.087 0-.159-.03-.202-.111l.202.111Z" fill="#612F26"/><path d="M10.607 2.404c-.087.05-.168.004-.25-.016l.035-.032.215.048Z" fill="#995D42"/><path d="m10.896 6.94.03-.001.094.121-.122.03a.212.212 0 0 1-.01-.013 20.24 20.24 0 0 1-.007-.078l.015-.06Z" fill="#251D1C"/><path d="M12.934 10.689c-.098-.023-.115-.073-.053-.152l.053.152ZM10.392 2.356l-.035.032-.054.002-.086-.002-.187-.03.362-.002Z" fill="#302826"/><path d="M6.273 9.785c.065.061.061.124.004.188l-.004-.188Z" fill="#1A1312"/><path d="m14.11 14.502.146-.03.123.02-.061.033-.18.03-.029-.053Z" fill="#995D42"/><path d="m8.715 6.191.086.03-.124.09h-.014l-.015-.002.067-.118Z" fill="#481C13"/><path d="m12.547 9.55.038-.003.025.055-.06.065-.032-.015.029-.102Z" fill="#302826"/><path d="m11.47 3.245-.062-.138c.082.013.1.068.092.14l-.03-.002Z" fill="#995D42"/><path d="m13.44 13.787.005.111-.128.058.123-.169Z" fill="#481C13"/><path d="m13.002 13.957.033-.042.082.11-.001.047-.058.01-.027-.032-.029-.093Z" fill="#612F26"/><path d="m11.56 4.17.02-.166.02.119.1.042-.028.022-.112-.016ZM13.116 14.072v-.046l.178-.04a.022.022 0 0 0 0 .02l-.06.04-.118.026Z" fill="#813B31"/><path d="M6.497 8.882c.05.059.04.083-.056.128l.056-.128ZM12.234 8.814c-.058-.026-.14-.038-.077-.134l.077.134Z" fill="#251D1C"/><path d="M8.898 5.501h.022v.266l-.031.005.009-.27ZM6.43 12.22h.033l.03.216-.062-.217Z" fill="#481C13"/><path d="m8.534 5.02.055.004.032.136-.087-.14Z" fill="#612F26"/><path d="m11.563 3.457-.027.147-.013-.265.014.002.015-.002.01.118Z" fill="#7D392F"/><path d="m11.745 8.017-.095-.008.018-.092.077.1Z" fill="#302826"/><path d="M8.475 4.395a41.547 41.547 0 0 1-.035-.004l.11-.102c.005.005.01.01.013.015l-.033.07a.122.122 0 0 1 .002.02l-.057.001Z" fill="#813B31"/><path d="M7.58 15.787c.085.039.073.08.002.122l-.003-.122Z" fill="#481C13"/><path d="m14.317 14.525.062-.034c.045.01.111-.018.116.065l-.178-.031Z" fill="#612F26"/><path d="m15.692 15.276-.09-.004.033-.032.026-.052.006-.032c.024.037.088.065.025.12ZM6.885 13.958l.028-.06.067.102-.07.016-.025-.058Z" fill="#995D42"/><path d="m14.973 14.774-.149-.069.151.038-.002.03Z" fill="#7D392F"/><path d="m11.59 4.845.057-.093-.032.148a.051.051 0 0 0-.02 0l-.004-.055ZM12.57 17.498a.215.215 0 0 1-.02.003l-.023-.163.042.16Z" fill="#302826"/><path d="m14.67 15.589.134-.071-.097.124-.006-.012-.031-.041Z" fill="#7D392F"/><path d="M7.34 16.404c.035.074-.008.095-.07.101l.07-.101Z" fill="#302826"/><path d="M8.777 3.343c.023.05.06.1-.01.144l.01-.144Z" fill="#481C13"/><path d="m12.5 16.9-.095-.021.008-.03.101.017-.015.034Z" fill="#1A1312"/><path d="M14.973 14.774c0-.01 0-.02.002-.03l.122.049-.05.005-.074-.024ZM12.69 12.968c-.054-.01-.104-.022-.058-.093l.057.093Z" fill="#995D42"/><path d="m12.216 8.86.02-.041.051.097-.071-.056Z" fill="#251D1C"/><path d="M11.594 4.9a.052.052 0 0 1 .021 0l-.01.093-.051-.003.01-.089h.03Z" fill="#813B31"/><path d="M14.203 16.148h.024l-.086.125-.022-.023.084-.102Z" fill="#612F26"/><path d="m13.754 13.569-.01-.052c.06-.026.11-.015.138.05l-.128.002Z" fill="#995D42"/><path d="M11.2 6.134v-.075l.067-.016-.067.09Z" fill="#150F0E"/><path d="m8.659 4.262.055.034-.15.008a2.918 2.918 0 0 0-.013-.015l.108-.027Z" fill="#813B31"/><path d="m10.99 2.65-.092-.028v-.058l.093.086ZM13.511 13.71a.369.369 0 0 0 .024.007l-.056.064-.003-.003-.029-.03.003-.035.061-.003Z" fill="#612F26"/><path d="m11.662 7.91-.061.015.003-.069.058.054Z" fill="#302826"/><path d="m13.533 13.533.003.063-.067.033.064-.096Z" fill="#612F26"/><path d="m12.992 13.716-.043-.001-.008-.085.015-.001.036.087Z" fill="#7D392F"/><path d="m15.048 14.798.05-.006.058.034-.108-.028ZM7.173 14.86l.064-.016-.007.056-.057-.04Z" fill="#612F26"/><path d="M10.898 2.564v.058h-.06l.046-.066h.01l.004.008Z" fill="#D69662"/><path d="m11.731 4.21-.05.032-.01-.055c.01-.007.02-.014.028-.022l.032.046Z" fill="#813B31"/><path d="m15.667 15.156-.006.032-.026-.002-.038-.05.032-.025.038.045Z" fill="#7D392F"/><path d="M11.552 3.34H11.523l.003-.054.026.053ZM13.512 13.71l-.062.003a.025.025 0 0 1-.002-.021l.064.018Z" fill="#D59461"/><path d="M7.654 15.013c-.018-.01-.035-.022-.053-.033l.003-.004.061.032-.01.005ZM14.365 15.985l-.079.013.052-.039.027.026Z" fill="#612F26"/><path d="M12.52 12.807v-.051l.046.047-.024.02a.031.031 0 0 1-.021-.016Z" fill="#995D42"/><path d="m14.363 15.934.053.009-.051.042a6.585 6.585 0 0 0-.027-.026l.025-.025Z" fill="#612F26"/><path d="m6.538 8.809.024.023-.053.024.03-.047Z" fill="#251D1C"/><path d="m11.65 4.725-.033-.03.031-.033a.19.19 0 0 0 .014.01l-.013.053Z" fill="#612F26"/><path d="m12.951 16.127.042-.006a.052.052 0 0 1 .001.02l-.043-.014Z" fill="#813B31"/><path d="m13.447 13.748.029.03-.039.002.01-.032Z" fill="#481C13"/><path d="m6.567 8.791.02-.009.003.004-.023.012V8.79Z" fill="#251D1C"/><path d="M8.831 5.98h-.027l.018-.037.01.037ZM8.888 5.772l.032-.005-.04.024c-.004-.01-.001-.016.008-.019Z" fill="#813B31"/><path d="m12.583 12.82-.009.03-.031-.027.024-.02c.008.003.013.009.016.017Z" fill="#995D42"/><path d="m9.46 16.297.503.07-.043.085.081.05c-.017.028-.048.055-.048.083-.002.063.014.126.018.189.018.285-.031.564-.088.842-.021.043-.056.085-.06.13-.016.172-.023.345-.032.519-.004.07.002.144-.093.16.01-.163.02-.327.034-.49.017-.212.043-.424.054-.637.009-.182.002-.365.002-.548h-.022l-.007.117h-.057v-.214l-.033-.002-.028.21-.032.246-.118.06.02-.204.022-.006-.132-.272.103-.01-.043-.378ZM8.384 16.056c.231.033.463.064.693.1.031.004.058.034.087.053l.016.287-.048.07c-.128-.01-.075-.116-.081-.199l-.123-.095c-.16-.021-.326-.042-.492-.069-.02-.003-.036-.037-.054-.056l-.002-.036.004-.055Z" fill="#200603"/><path d="m9.132 16.567.048-.071-.016-.287c.107.002.223-.029.296.088l.043.377-.102.011c-.055-.01-.109-.024-.164-.028-.06-.004-.104-.02-.105-.09Z" fill="#5C250E"/><path d="m8.38 16.111.002.036-.3.03h-.18l-.029-.063.507-.003Z" fill="#120302"/><path d="m7.873 16.114.029.063h-.24l-.025-.12.097.028.107-.028.032.057ZM9.548 17.467l-.117.06.06-.3h.09l-.004.09c-.067.014-.075.043-.026.09l-.003.06Z" fill="#200603"/><path d="m8.559 18.823.376-.03.001.038H8.56v-.008ZM9.12 16.966h.13c-.02.053-.034.096-.048.139l-.038.004-.045-.143ZM8.92 17.58h-.363v-.016h.363v.015Z" fill="#481C13"/><path d="M9.58 17.226h-.09v-.06l.118-.059-.028.12Z" fill="#120302"/><path d="M7.933 16.177h.15c-.054.085-.097.085-.15 0Z" fill="#200603"/><path d="M9.882 17.616c.057-.278.106-.557.088-.842-.004-.063-.02-.126-.018-.19 0-.027.031-.054.049-.082l.302.136.055.14.027.179.034.15c.056.166.005.315-.048.475-.066.206-.09.425-.131.64l-.032.144h-.086c-.019-.2-.042-.4-.055-.601-.005-.074.013-.149.024-.257-.05.043-.07.062-.09.08l-.061.028h-.058ZM10.6 17.137l.061-.417.196.075c.026.078.047.153.078.224.021.052.055.099.083.148.005.048.007.097.015.145l.102.573-.056.001-.024-.006c-.013.031-.028.063-.036.096-.042.17-.082.342-.13.512-.06-.46-.16-.909-.29-1.351ZM10.628 17.467c.064.194.041.386.004.583-.053.28-.09.562-.133.844l-.039.014c-.023-.046-.068-.093-.067-.14.002-.147-.006-.305.04-.44.096-.282.158-.563.138-.86l.057-.001ZM9.759 16.867l.007-.117h.021c0 .183.008.366-.001.548-.011.213-.037.425-.055.637-.013.163-.022.327-.034.49a939.1 939.1 0 0 0-.13.306 2.02 2.02 0 0 1 .072-.715c.014-.05.001-.108 0-.162l-.027-.056c.034-.149.075-.296.099-.446.025-.16.032-.323.048-.485Z" fill="#5C250E"/><path d="M11.136 17.885c-.035-.191-.07-.382-.103-.573-.008-.048-.01-.097-.014-.145l.12.27c.035.149.081.296.101.446.035.26.052.522.077.783-.094-.037-.069-.128-.087-.197-.018-.07-.02-.145-.037-.216-.004-.015-.036-.025-.055-.037l-.002-.33Z" fill="#200603"/><path d="M10.628 17.467h-.057l-.088-.331-.004-.18-.002-.18-.028-.18v-.028c.086.002.088.061.09.125.008.148.02.295.03.443l.06.33Z" fill="#481C13"/><path d="m9.612 17.798.027.056-.15.39-.029-.029.152-.417Z" fill="#612F26"/><path d="m9.94 17.616.062-.028-.038.374-.04-.002.016-.344ZM11.136 17.885l.002.33c-.099-.095-.046-.218-.06-.329l.058-.001Z" fill="#481C13"/><path d="m10.479 16.957.004.179-.063-.03-.034-.15h.093Z" fill="#120302"/><path d="M10.123 18.366h.086v.15c-.125-.02-.075-.099-.086-.15ZM9.46 18.215l.03.03-.09.211.06-.24Z" fill="#481C13"/><path d="M11.019 17.167c-.029-.05-.063-.096-.084-.148-.03-.071-.051-.146-.078-.224l-.196-.075-.03-.123c.302.072.592.135.878.21.19.051.374.12.56.18l.023.449-.111-.03c-.11-.161-.278-.235-.453-.3l-.03-.03v.001l-.03-.031-.22-.112-.26-.036c-.005.03-.016.06-.012.088.01.061.028.12.043.18Z" fill="#200603"/><path d="M11.265 17.278a.959.959 0 0 1 .74.269 5.897 5.897 0 0 1-.014.039c-.083-.02-.168-.036-.248-.064a5.04 5.04 0 0 1-.372-.147c-.035-.015-.06-.053-.106-.097ZM11.527 17.106c.175.064.343.139.453.3-.16-.086-.343-.138-.453-.3Z" fill="#5C250E"/><path d="M12.097 17.886c.014.125.03.249.042.373 0 .003-.024.009-.06.02l-.042-.393h.06Z" fill="#481C13"/><path d="M11.02 17.166c-.015-.06-.034-.119-.043-.18-.005-.028.006-.059.01-.088l.152.539-.12-.27Z" fill="#5C250E"/><path d="M12.546 18.156v.09h-.089c-.02.032-.051.063-.057.098-.01.06-.002.123-.025.187-.054-.101-.032-.21-.037-.316l.09-.075.118.016ZM12.162 17.88l.085.005-.025.215c-.095-.077-.054-.153-.06-.22Z" fill="#481C13"/><path d="M12.458 18.246h.089c.006.123.015.245.018.368 0 .057-.011.115-.017.172h-.03l-.04-.441c-.004-.033-.013-.066-.02-.099Z" fill="#5C250E"/><path d="M12.518 18.786h.03l-.006.07h-.019a15.314 15.314 0 0 1-.005-.07ZM9.58 17.226l.028-.119.032-.245.029-.211.032.002v.214a5.784 5.784 0 0 1-.15.85c-.01 0-.021-.003-.031-.004l.028-.246.003-.06.025-.09.004-.09Z" fill="#481C13"/><path d="M9.249 11.23c.117.097.106.226.088.357l-.14-.155-.066-.073-.042.045.09.048c.05.158.184.285.168.467-.048.19-.091.381-.145.57-.017.058-.062.109-.095.163l.048-.212a9.242 9.242 0 0 0-.037-.029l-.227.167-.06.002-.03-.03-.032-.03-.032-.064-.145-.324-.006-.216a.296.296 0 0 1 .036-.207l-.01-.113-.038.007.018.106-.121-.03-.062-.05c-.094-.002-.053.056-.042.097.045.166.084.334.138.496.035.105.094.201.141.302l.003-.004a.029.029 0 0 0 .003.029l.027.03.031.037c.06.063.102.152.211.142l-.007.081-.234.012-.253-.121-.02.029.18.152.128.105-.16.182.187-.046v.026c-.01.023-.018.047-.034.09.086 0 .153-.003.22 0 .063.004.131.004.141.092l-.057-.003-.016-.015-.004.004.018.013.225.15c.02.025.042.048.063.072l.09.091.163.229.046.027.014-.061.066-.013-.067-.047v.001l.003-.12c.023.004.053.001.07.014.186.14.374.278.555.425.075.062.134.146.2.22.277.183.602.236.911.331h-.001l.151.06-.002-.001.062.031-.002-.001.062.031-.002-.001.062.031-.002-.001.127.03.023.001.016.06.045-.03.04.004.05.058.006.128-.002.08-.512-.043-.117.204.205.042-.27.013h-.03l.001-.009a11.065 11.065 0 0 1-.012-.06c-.076-.032-.132-.067-.191-.078-.065-.012-.135-.002-.233-.002l.074.15-.085.007-.383-.079.141-.116.108-.014-.013-.043-.127.056c-.16.03-.319.074-.48.084-.18.012-.37.072-.538-.053l.07-.006c-.052-.035-.096-.134-.162-.026h-.026v.001l-.095-.075.004-.041.038-.016-.004-.017H9.28l.001.001a7.087 7.087 0 0 1-.025-.028l-.131-.12.013-.019-.187-.074-.06.001-.119-.059-.123-.09-.058-.002.001.001-.058-.004-.014.082-.16-.02-.068.119c-.086-.03-.172-.058-.25-.084l-.082-.152-.14-.279c-.023-.046-.04-.096-.07-.139-.056-.084-.117-.166-.178-.248-.018-.023-.04-.041-.06-.062l-.039-.026.013-.415.02-.21v-.043a2.056 2.056 0 0 0-.023.006l-.063.244-.073.118-.164-.237c0-.054.008-.109 0-.161-.014-.088-.038-.174-.058-.26h.002c.007-.008.009-.017.003-.026l-.223-.478.02-.061.147.055c.115-.119.115-.268.107-.42a.039.039 0 0 0 .005-.027l-.002.001.032-.032-.001.002a.879.879 0 0 0 .195-.51l-.016-.629.176-.01c.04.054.071.052.093-.014l.089-.01.18.013.03.198-.057.241-.01.269c-.109-.04-.014-.147-.09-.222l-.074-.04-.019-.138h-.03l-.018.105v.714c-.003.133-.041.276-.003.396.056.18.165.344.254.514.003.006.022.004.021.004l-.107-.58.109.201.088.004.028.06-.015.022.028.005.063.022-.113-.346-.04-.392-.042-.567.05-.269.641.023c.134.127.22.282.399.317l.017.086c.016-.03.02-.05.032-.062.016-.015.038-.025.057-.037l.029.091.048-.04.012-.05.029-.03ZM8.05 14.02l-.001-.001.031.031-.001-.001.031.031H8.11l.03.03.096.053c.282.11.561.227.846.33.158.056.324.09.487.133l.49.128c.097.035.192.079.292.101.162.037.327.059.49.087l.147.013.208.034h.113a4.07 4.07 0 0 0-.002-.035h-.109l-.211-.031-.147-.02-.222-.122-.56-.309-.086-.008-.364-.123c-.026-.016-.05-.037-.077-.046-.264-.085-.52-.19-.8-.227-.24-.03-.473-.112-.709-.17-.03-.055-.075-.105-.09-.163-.03-.123-.046-.25-.067-.375l-.03-.163-.026.004.013.16c.007.068.009.138.023.205.032.151.032.318.176.424l-.001-.001.031.031Zm-.03-.331a.863.863 0 0 0-.01-.01l.012.008c.106.14.393.25.574.22-.14-.06-.278-.124-.42-.181-.049-.02-.103-.025-.155-.037Z" fill="#D59461"/><path d="m10 8.079.21.03.308-.078.11.035-.022.12c.058.044.104.09.16.117.052.026.113.033.185.052l-.018.12.1.042-.02.019.219.23.207-.026h.03l.06.149v.298l.036.016-.11.055c.097.137.22.05.327.077l.136.166-.066.173.096.025.06.15-.042.223c.1.034.182.062.27.09l.028.138.117-.021.03-.148h.116c.028.095.073.183.075.271.001.082-.044.165-.08.24l-.138.228-.23.015v.009l-.851.084-.213.184c-.155.003-.415-.154-.595-.367l-.135.074-.21-.27c.088-.049.063-.12.038-.193l-.183-.531.093-.131-.086-.139.08-.146h-.27l-.033-.09-.147-.03c-.053-.215-.1-.433-.161-.646-.042-.142-.102-.28-.23-.373l-.06-.09-.062-.06-.027-.028V8.08l-.033-.15.093-.09.24.176c.05-.038.112-.082.178-.13l.196.25c.078-.007.169.046.225-.057Z" fill="#302826"/><path d="M10.438 14.346c-.066-.073-.125-.157-.2-.219-.18-.147-.369-.285-.555-.425-.017-.013-.047-.01-.07-.015l-.118-.028-.042.002a.035.035 0 0 1-.022-.013l-.01-.137h-.114.002l-.046-.033-.043-.032-.06-.027-.034-.03a.106.106 0 0 1-.025-.003 7.515 7.515 0 0 1-.031-.027v.001c-.01-.088-.08-.088-.142-.091-.067-.004-.134-.001-.22-.001l.033-.09.388-.023c.28.07.514.222.72.42.052.051.109.097.164.145l.045.034-.004-.003.033.032-.002-.003.033.033-.003-.003.033.034.027.026a.098.098 0 0 1 .006.024l.038.026-.003-.001.054.038.03.027.035.031-.003-.003.035.03v-.003c-.004.103.07.06.118.063l-.002-.003.117.038.364.115-.002-.003.105.034.01-.004c.033.036.06.091.122.038l.09.015.162.122.017-.076.057.034a.024.024 0 0 0-.002.017l.065.04h-.001c.087.097.209.121.315.178l.023-.045-.215-.107.031-.031c.1.02.198.042.297.063l.173.1a.023.023 0 0 0 .007.02l-.004.056-.23.374-.006-.127-.05-.058-.04-.004v-.001a35.333 35.333 0 0 1-.014-.062l-.045.032-.002.001h-.023l-.127-.031h.002l-.062-.03.002.001-.062-.031.002.001-.062-.031.002.001-.151-.06h.002c-.055-.03-.107-.066-.165-.087-.194-.071-.391-.138-.588-.206l-.06-.034v.001l-.055-.015-.044.01Z" fill="#D6925D"/><path d="m12.214 14.703.004-.055.054-.028a5.583 5.583 0 0 0-.012-.024l-.049.03-.173-.1.177-.048.134-.108-.127-.299.026-.143.08-.105.028-.158.101.023-.02.134.05.016.001.06c-.017.008-.048.016-.048.024.004.152.011.304.018.456l.09.116-.283-.045c.028.084.053.137.063.193.009.056.002.115.002.178l.063.005.031.021a8.316 8.316 0 0 0-.025.039c-.148.203-.11.383.118.548a.318.318 0 0 0-.001.026l-.03.015-.068.01a8.66 8.66 0 0 0-.05.004v-.029a54.349 54.349 0 0 1-.011-.055c-.019-.039-.032-.083-.059-.115-.014-.016-.053-.011-.081-.016-.004-.046.023-.106-.055-.116l-.004-.034a.035.035 0 0 0-.014-.022l.022-.062.1-.01c.016-.086.096-.165-.016-.23l-.036-.096Z" fill="#251D1C"/><path d="M9.823 9.459h.269l-.08.146.086.139-.093.13c.063.182.122.358.183.532.025.073.05.144-.04.193-.03-.034-.076-.062-.09-.102-.074-.198-.137-.4-.207-.6-.014-.038-.04-.072-.061-.108l.033-.33Z" fill="#2C2422"/><path d="m8.742 13.151-.186.047.16-.182-.128-.105.093-.06.234-.012.07-.019c-.012.047-.016.098-.036.14-.023.054-.06.103-.087.148l.211.035-.331.008Z" fill="#612F26"/><path d="M10.056 12.7c-.114-.095-.213-.208-.319-.311v-.159h.107l.243.444-.03.026ZM10.39 12.009l-.03.57c-.094-.05-.108-.144-.118-.234-.009-.073-.002-.148-.002-.24.047-.03.098-.064.15-.096Z" fill="#251D1C"/><path d="m8.891 12.578.227-.167.037.029-.048.212-.116.148-.07-.042.003-.06.015-.017-.02-.012h.001l-.03-.03.001-.06Z" fill="#D6925D"/><path d="M10.3 13.984a7.207 7.207 0 0 0-.03-.027l-.055-.038.004.001a.04.04 0 0 0-.01-.023v-.03l.018-.053.486.324-.016.014-.098-.015a52.687 52.687 0 0 0-.117-.037l.002.002-.117-.063v.003l-.035-.03.002.003-.034-.031Z" fill="#150F0E"/><path d="M10.64 13.307c-.242 0-.395-.032-.462-.255l.461.255Z" fill="#251D1C"/><path d="m9.197 11.432.14.155.031.06c-.057.06 0 .087.034.122l-.001-.002c0 .029.002.057.003.085l-.058.067c.017-.182-.117-.31-.167-.467a.55.55 0 0 1 .018-.02Z" fill="#5C250E"/><path d="m11.468 14.378-.018.076-.162-.123c.088-.09.126.01.18.047Z" fill="#995D42"/><path d="m10.6 14.137.097.015.267.1-.364-.115Z" fill="#D59461"/><path d="m8.741 13.151.332-.008.056.012-.388.023v-.027Z" fill="#D69662"/><path d="M10.54 11.049c.1-.002.151.047.149.15l-.15-.15Z" fill="#302826"/><path d="M11.523 14.429a.024.024 0 0 1 .002-.017l.216.052-.03.031-.125-.027.002.001-.065-.04Z" fill="#995D42"/><path d="M11.199 14.317c-.062.053-.09-.002-.123-.038l.123.038Z" fill="#D59461"/><path d="M9.402 11.769c-.034-.035-.091-.063-.034-.122l.038.061-.004.061Z" fill="#D18C56"/><path d="m8.921 12.758.07.042a.065.065 0 0 1-.007.02l-.07.02.007-.082Z" fill="#995D42"/><path d="M9.52 12.789c-.017-.01-.035-.018-.052-.027l.019-.023.034.05ZM9.521 12.788Z" fill="#2C2422"/><path d="M10.21 13.867v.03c-.01.001-.02 0-.029-.003a.095.095 0 0 0-.006-.024l.035-.003Z" fill="#120302"/><path d="M9.61 12.848c-.01-.008-.005-.004 0 0-.004-.005-.008-.009 0 0ZM9.64 12.878c.01.008.005.005 0 0 .005.005.009.01 0 0Z" fill="#2C2422"/><path d="m9.314 10.239-.086.135-.248-.167-.027.029.117.153-.013.018-.424-.215-.019.031.185.13-.013.017-.254-.042-.102-.024-.006.04.107.016.151.088-.031.06a3.26 3.26 0 0 1-.057.001c-.04-.115-.155-.103-.24-.13-.096-.031-.2-.035-.3-.05-.012-.27-.02-.54-.038-.81a.37.37 0 0 0-.057-.153c-.123-.212-.13-.437-.098-.674.028-.204.03-.412.044-.63l-.322-.033-.012-.034.372-.16.03-.082.739.117.234.212c.045.187.232.303.353.467.01.014.047.008.071.01l.15.39c-.11.057-.059.135-.03.21v.57l-.149.06-.024-.08a2.553 2.553 0 0 0-.062.452c-.002.024.038.052.06.078Zm-.272-1.45-.118.89c0 .008.006.017.01.026a.02.02 0 0 0 .01.009h.03c.06-.305.108-.612.068-.926Zm-.576.648.046-.001c.056-.279 0-.554-.046-.83v.83Zm-.066.623c.115-.161.127-.248.052-.359l-.052.36Zm.512-.174c-.003-.008-.004-.02-.01-.023-.005-.003-.016.003-.024.005l.012.031.022-.013Z" fill="#2F2725"/><path d="M9.37 8.56c-.025-.003-.062.003-.072-.01-.12-.165-.308-.28-.353-.468l-.234-.212c-.053-.037-.102-.086-.16-.107-.234-.086-.28-.13-.35-.38a1.39 1.39 0 0 1 .51-.322l.18.03.06.06v.06l.032.143-.09.133.038.031.17-.158.22.208-.16.242-.176.077.006.027.078.015.032.15v.063l.028.028.062.06.06.09.119.24Z" fill="#2C2422"/><path d="M7.129 8.439c-.166.363-.259.721-.29 1.109-.15-.255.02-.918.29-1.11ZM7.603 10.12l-.48.03c.008-.017.014-.047.025-.05.115-.022.23-.048.347-.057.034-.002.072.05.108.076Z" fill="#251D1C"/><path d="m11.108 7.42.002.06-.032.096-.183-.29a6.797 6.797 0 0 0-.024.007v.377a1420.385 1420.385 0 0 1-.212.11h-.15l-.342-.09-.02.044.122.076c-.017.102-.073.047-.12.03l-.239-.18-.07-.227.04-.042c.131.07.259.149.394.212a.499.499 0 0 0 .504-.022l.087-.497a.032.032 0 0 0 .023-.007.257.257 0 0 0 .01.013c.06.117.082.258.21.33Z" fill="#1A1312"/><path d="m9.91 7.66.24.18c-.033.015-.066.03-.11.052a61.63 61.63 0 0 0-.01.099c-.222-.07-.363-.231-.481-.42l.003-.002.195.02.163.071Z" fill="#2C2422"/><path d="m10.269 7.81-.121-.076.018-.044.343.09-.24.03Z" fill="#251D1C"/><path d="m12.008 9.849-.06-.15.012-.042c.121.068.137.102.116.247l-.068-.055ZM11.241 8.374l.17.214-.04.031-.17-.214.04-.031Z" fill="#1A1312"/><path d="m12.277 9.01.09.21c-.103-.052-.123-.097-.09-.21ZM11.47 8.68c.129.027.15.06.118.18l-.12-.12.001-.06Z" fill="#302826"/><path d="m11.468 8.74.12.12v.03l-.06-.001-.06-.15Z" fill="#1A1312"/><path d="M10.388 7.956a26.365 26.365 0 0 1-.054-.05l.02-.029.066.04-.032.04Z" fill="#251D1C"/><path d="m12.858 10.88-.038-.067.024-.03c.02.017.042.032.063.048l-.05.049ZM10.858 8.213l-.066.005-.002-.027.066-.006.002.028Z" fill="#302826"/><path d="m11.47 8.68-.002.06h-.03l-.034-.085.066.025Z" fill="#1A1312"/><path d="m10.66 7.78.06-.03a9.211 9.211 0 0 0-.016.062l-.045-.032Z" fill="#2C2422"/><path d="m12.038 9.56.018.017-.027.022c-.004-.008-.012-.017-.01-.024 0-.006.012-.01.019-.015Z" fill="#302826"/><path d="m11.588 8.89.026.031-.017.01-.009-.041Z" fill="#1A1312"/><path d="M8.291 15.158v-.241l.09-.058.627.188.272.14h.122v-.002l.124.111c-.018.11-.14-.012-.155.099h-.062c-.01-.002-.018-.002-.027-.002l-.002.007-.683-.126-.245-.07-.061-.046Z" fill="#843C32"/><path d="m9.248 11.23-.028.03-.09-.001c-.019.012-.04.022-.056.037-.012.012-.017.031-.032.062l-.017-.086c-.18-.036-.265-.19-.4-.317a4530.062 4530.062 0 0 0-.663-.026l-.03-.198.063-.015.057.013c.028.075.072.06.12.02l.03.004.049.019.04.003.197.059c.005-.005.009-.004.013.001l.165.06c.139.05.284.088.414.155.07.035.113.118.168.18Z" fill="#D6925D"/><path d="m7.752 10.717-.089.01-.093.015-.175.01.015.629-.047-.002-.037-.083c-.085.068-.156.127-.229.183-.05.039-.102.073-.153.11l-.06-.03c-.001-.161.065-.302.139-.468l.122.217c.258-.086.231-.194.206-.37-.011-.074-.03-.145-.05-.24.157-.004.304-.039.451.02Z" fill="#7D392F"/><path d="m7.473 13.835.039.026.13.334-.009.063.061.27-.04.096-.186-.248-.043-.06v-.06l.048-.42Z" fill="#D18C56"/><path d="m9.009 15.047-.627-.188-.09-.035.068-.118.16.02.014-.082.058.004-.001-.001.058.001.123.091.057.064-.192-.04.376.241-.004.043Z" fill="#D69662"/><path d="m7.633 14.258.009-.063c.074 0 .12.036.142.108.001.005.023.005.036.007l.14.278c-.051.049-.03.168-.148.15a.851.851 0 0 0-.18-.48Z" fill="#843C32"/><path d="M7.633 14.258a.852.852 0 0 1 .179.48l-.118-.21-.061-.27Z" fill="#481C13"/><path d="m7.363 11.379.047.002a.88.88 0 0 1-.195.51c.034-.1.07-.2.101-.3.02-.07.032-.141.047-.212Z" fill="#612F26"/><path d="m6.907 12.373.224.478-.037-.003c-.06-.119-.123-.237-.177-.358-.016-.033-.007-.078-.01-.117Z" fill="#481C13"/><path d="m6.884 11.559.06.03-.097.388c-.059-.154.012-.285.037-.418ZM8.17 15.28c-.116-.032-.242-.05-.297-.183l.21.059.032.027.058.094-.002.002ZM7.125 12.877c.02.086.044.172.058.26.008.052 0 .107 0 .16l-.058-.42Z" fill="#612F26"/><path d="M7.161 14.376c.126-.044.162.002.167.1l-.167-.1Z" fill="#D18C56"/><path d="m7.665 15.008-.061-.032-.03-.059.059-.028.06-.002.03.121h-.058Z" fill="#843C32"/><path d="m7.507 13.21-.02.21c-.023 0-.045-.002-.067-.003l.063-.244.024.037Z" fill="#481C13"/><path d="m8.292 15.158.06.046.001.041-.18-.057-.001-.032.12.002Z" fill="#995D42"/><path d="M7.318 14.248h-.121l-.003-.036.122-.01.002.046ZM7.691 14.856l.094-.08.023.038-.114.045-.003-.003Z" fill="#612F26"/><path d="M8.172 15.156v.032l-.058-.005-.031-.027h.089Z" fill="#843C32"/><path d="M7.425 14.257v.06l-.068-.045.067-.015ZM7.692 14.887l-.06.002.06-.033.002.003-.002.028ZM7.186 11.92c.002.01 0 .019-.005.027l-.015-.016.02-.011ZM7.094 12.848l.036.003c.006.01.005.018-.003.026l-.033-.03Z" fill="#612F26"/><path d="m12.941 13.63.007.085.054.242.029.093-.158.201c-.028-.02-.066-.035-.08-.062-.022-.042-.028-.092-.04-.139l-.082-.126-.154-.117-.024-.062-.007-.087a.043.043 0 0 0 .003-.023c.095-.083.062-.182.034-.28l-.006-.057.03-.208.03-.003v.001l.03.03.06.06.06.064c.011.065.029.125.115.115l.1.273Zm-.298-.279-.023-.016-.006.008.018.02.029.06.008.054.053.185.036.098.037-.019-.063-.088-.03-.175-.028-.067-.03-.06Z" fill="#D18C56"/><path d="M11.651 12.97c.193-.006.388.038.504-.196l-.033-.657.049-.004c.041.23.087.462.075.699-.142.2-.411.28-.595.158Z" fill="#1A1312"/><path d="m12.548 13.09-.03.208-.082-.26.028-.017-.2-.143.192-.18-.05.203.091.066.06.082-.01.04ZM12.523 13.355c.028.098.06.197-.034.28l.034-.28Z" fill="#2C2422"/><path d="m12.487 13.658.006.087-.006.093-.05-.016.02-.134.03-.03Z" fill="#1A1312"/><path d="m9.31 4.33.061-.196.113-.028-.086-.112.113-.153.136-.498c-.002.11.003.22-.008.329-.01.1-.036.198-.056.297l-.03-.004v.133l.002.08-.16.193-.084-.04Z" fill="#7D392F"/><path d="m9.555 4.177-.003-.079.054.005.038-.002c.211-.03.417.002.621.054a.033.033 0 0 1 .002.024l-.057.008-.578.002-.077-.012Z" fill="#150F0E"/><path d="M10.838 4.152c.122-.031.243-.073.368-.09.053-.007.113.04.17.062v.048h-.057c-.05.002-.101.002-.152.003l-.327.004a.136.136 0 0 1-.002-.027Z" fill="#1A1312"/><path d="M10.838 4.152c0 .01 0 .019.002.027l-.174.006-.126.014-.061-.001-.12-.015.002-.028.047-.178.03-.004.02.18h.38ZM11.376 4.172v-.048l.09.033a.19.19 0 0 0 0 .017l-.09-.002Z" fill="#7D392F"/><path d="M10.361 4.155a.423.423 0 0 0-.002.028l-.092-.004a.032.032 0 0 0-.001-.024h.095Z" fill="#995D42"/><path d="M12.367 15.46v.028l-.04.116-.052.092-.107.083c.111.075.197.129.312.08l.01-.09.01-.008.058.073.021.068c-.07.112-.13.135-.285.102l-.082.082.166.146v.262c-.105.044-.223-.116-.344.01.145.109.292.153.467.098l-.074.144c-.14-.025-.29-.027-.42-.08-.25-.105-.486-.245-.733-.359-.292-.134-.575-.294-.9-.343-.131-.02-.26-.056-.39-.09-.061-.015-.129-.03-.134-.115.094 0 .189-.002.283.001.176.005.353.027.528.017.327-.018.652-.056.978-.082.178-.015.356-.024.565-.038l.049-.193.114-.005Z" fill="#150F0E"/><path d="m12.253 15.464-.049.193c-.21.014-.387.023-.565.037-.326.027-.651.065-.978.083-.175.01-.352-.012-.528-.017-.094-.003-.189-.001-.283-.001l-.859-.176-.189-.042-.219-.104a.13.13 0 0 1 .01-.012c.12.025.239.05.359.073.038.007.077.016.115.014.104-.006.208-.015.31-.026.048-.005.095-.017.142-.026l-.148-.065c.015-.111.137.011.155-.099-.03-.027-.077-.07-.125-.111a.131.131 0 0 0 .027 0l.092.032c.168.125.358.065.538.053.161-.01.32-.054.48-.084l.032.002-.141.115.383.079c.04.015.081.038.123.043.097.01.195.012.293.018.077-.002.158.002.232-.019.092-.025.205.017.276-.08l.03-.01.182-.03.033-.026.007-.034a.519.519 0 0 0-.005-.028l-.002-.059.002-.08.23-.374.036.095-.084.241-.022.062.015.022.004.034.059.18-.002-.003.032.061.002-.004v.073Zm-2.328-.078.007-.04-.122-.012-.003.027.118.025Z" fill="#7D392F"/><path d="m7.873 16.114-.031-.057c.071-.067.16-.069.247-.057.1.012.197.037.295.056a59.2 59.2 0 0 1-.004.055l-.507.003Z" fill="#5C250E"/><path d="M10.48 16.957h-.094l-.028-.18.12-.001.001.18ZM10.45 16.568v.029l-.295-.106.018-.045.277.122Z" fill="#200603"/><path d="m9.34 9.79.15-.06.024.08.036-.007c0-.151.006-.302-.002-.453-.004-.064-.038-.127-.058-.19-.03-.076-.08-.154.03-.21.01.057.016.115.034.17.025.075.058.147.088.22l.147.029c-.041.25-.162.464-.303.668-.022.032-.056.055-.084.082H9.37l-.03-.33Z" fill="#2C2422"/><path d="m8.65 10.508.032-.06c.139.024.28.125.413.297-.033.109-.125.107-.205.09-.1-.02-.195-.062-.29-.102-.02-.008-.026-.048-.038-.074l.089-.12h.03c.065.063.125.136.225.13-.041-.106-.124-.135-.224-.13l-.032-.031Z" fill="#1A1312"/><path d="m8.651 10.54-.09.12-.888-.29c.127-.028.295-.013.576.058.114.03.23.054.345.081h.025l.032.03Z" fill="#2C2422"/><path d="m9.34 9.79.03.329-.03.093c-.008.01-.017.018-.026.027-.021-.026-.061-.053-.06-.078.008-.149.026-.297.063-.452l.024.08Z" fill="#1A1312"/><path d="M6.914 10.39h-.21a1.38 1.38 0 0 1 .628-.076l-.418.075Z" fill="#251D1C"/><path d="M8.172 10.75c-.048.04-.092.054-.12-.021l.12.02Z" fill="#D18C56"/><path d="m8.531 10.36-.107-.015.005-.04.103.023v.032Z" fill="#1A1312"/><path d="m9.34 10.212.03-.093h.032l-.061.093Z" fill="#2F2725"/><path d="m9.31 4.33.085.04c-.01.01-.022.018-.034.029l.014.038-.005.045c-.072-.017-.143-.032-.214-.05l-.325-.086.06-.104c.078.019.157.038.236.054.061.013.122.023.184.034Z" fill="#302826"/><path d="m10.24 4.569-.028.034c-.103.008-.21.036-.307.017-.147-.029-.287-.09-.439-.141 0-.012-.003-.036-.006-.06l.089-.149.03-.013.06-.012.45.005.121-.002.388-.01.07-.01.046-.007.385.016.187-.014.063.001h.028l.12-.003c-.098.093-.206.177-.294.28-.14.162-.306.154-.485.1a.022.022 0 0 1-.006-.021l-.019-.16-.184-.004h-.064l-.128-.067-.05.188-.005.004-.022.028Zm.388-.222.065-.004c.058-.038.02-.052-.017-.066h-.16l-.067.022.062.05.117-.002Z" fill="#120302"/><path d="m11.564 4.901-.01.089-.087.12v.24c-.046.153-.106.299-.235.401-.021.017-.06.011-.09.016.006-.16-.073-.263-.212-.33-.066-.052-.128-.11-.2-.154-.034-.022-.087-.014-.131-.02l.002-.005L10.6 5.2l.29-.145h-.077a.386.386 0 0 1-.01-.013l.008-.081h-.001.42l.335-.06Z" fill="#D6925D"/><path d="m9.46 4.419.007.06c.152.05.292.112.439.141.097.019.204-.01.306-.017-.028.044-.048.097-.086.129-.093.078-.19.155-.294.217-.044.026-.111.013-.168.018l-.05-.01-.156-.054c-.017-.07-.04-.159-.058-.248-.013-.057-.02-.115-.03-.173l.005-.045.085-.018Z" fill="#1A1312"/><path d="m10.51 4.416.183.004.019.16a.022.022 0 0 0 .005.021l.062.27.03.09-.239.157-.126-.16v-.3l.065-.242Z" fill="#D18C56"/><path d="M10.93 5.438c.139.066.218.17.212.329-.024.002-.061.015-.069.005-.028-.038-.047-.083-.077-.141l-.006.109-.001.001-.063.027-.175.159a14.93 14.93 0 0 1-.04-.04l.157-.171-.065-.038.09-.02.061.013.014-.033-.098-.05.002.002c-.031-.105-.127-.101-.207-.125-.1-.036-.108-.113-.09-.202.01.002.019 0 .027-.005l-.003.005.27.256.061-.081Z" fill="#1A1312"/><path d="M8.594 5.02c.002-.057.033-.066.08-.047l.148.06c0-.111.002-.2-.002-.288 0-.009-.032-.016-.049-.024v-.029l.03-.06h.032c.063.1.11.397.078.493-.006.019-.018.035-.024.045l-.293-.15Z" fill="#612F26"/><path d="m10.51 4.416-.066.242-.087.003.025-.176.003-.05a2.538 2.538 0 0 0-.015-.003l-.016.043-.052.068-.034-.006.05-.188.127.067h.064Z" fill="#302826"/><path d="m10.57 5.118.239-.157-.008.081-.037.02.01.016.037-.024h.077l-.29.146-.028-.082Z" fill="#612F26"/><path d="M10.239 4.827c-.025.126-.049.14-.18.103.028-.094.082-.133.18-.103Z" fill="#BCBAB7"/><path d="M10.575 5.263c-.019.089-.01.166.09.202l-.07.038-.09-.06-.018-.092-.004-.059.092-.03Z" fill="#995D42"/><path d="M8.833 4.631H8.8c-.037-.052-.077-.103-.109-.158-.012-.022-.008-.054-.011-.082h.03l.087.07.035.17Z" fill="#481C13"/><path d="m10.383 4.484-.025.177c-.086-.008-.045-.075-.055-.118l.052-.068a.08.08 0 0 0 .028.01Z" fill="#D59461"/><path d="m8.798 4.462-.087-.07.067-.034.052.002c-.01.034-.02.068-.032.102Z" fill="#D6925D"/><path d="m8.958 5.265-.035-.053.085-.04-.05.093ZM9.614 4.957l.05.01v.054l-.126-.043.076-.021Z" fill="#D69662"/><path d="M7.404 17.516v.326h-.013l-.018-.325h.031Z" fill="#5C250E"/><path d="m10.322 5.924.13.257c-.11.114-.195.074-.295-.139l-.108.02c-.078-.069-.135-.314-.092-.4.005-.009.027-.01.041-.015l.324.277Z" fill="#7D392F"/><path d="m10.322 5.924-.324-.277.123-.055c.06.065.104-.01.156-.018.046-.008.094-.01.142-.014l-.03.067.126.048-.075.016v.026l.166.031c-.056.03-.11.06-.092.14l-.191.036Z" fill="#481C13"/><path d="m11.08 5.921-.001.18v.03l-.03.063-.027.027-.37.184-.082-.273c.01-.073.032-.132.124-.12l-.038.237c.209-.003.365-.138.32-.333l.005-.142.008-.033.001-.001.09.181Z" fill="#1A1312"/><path d="m10.57 6.132.082.273.37-.184c-.11.191-.297.233-.495.272a.485.485 0 0 1 .043-.36Z" fill="#2C2422"/><path d="m10.98 5.774-.006.142c-.026.044-.057.086-.078.131-.027.058-.053.107-.143.07l-.038-.111.036-.08.175-.158.055.006Z" fill="#D18C56"/><path d="m10.715 6.006.039.111c.09.037.115-.012.142-.07.021-.045.052-.087.079-.13.046.194-.11.329-.32.332l.039-.236a.162.162 0 0 0 .02-.007ZM10.514 5.888c-.018-.08.037-.11.092-.14l.084-.013.014.001.014-.004.065-.008.034-.01.05.002-.156.17-.197.002Z" fill="#995D42"/><path d="M10.42 5.56c-.048.004-.096.006-.143.014-.052.008-.095.083-.156.018l.343-.153.041.004.09.06.153.032-.329.025Z" fill="#612F26"/><path d="M10.506 5.443a56.61 56.61 0 0 0-.041-.004l.023-.088.018.092Z" fill="#7D392F"/><path d="M11.08 6.13c-.002-.01-.002-.02-.002-.029l.03.03H11.08Z" fill="#251D1C"/><path d="m10.865 7.084-.087.497a.499.499 0 0 1-.504.022c-.135-.063-.263-.141-.394-.212l-.124-.116-.115-.186a.023.023 0 0 0-.027-.003l.001-.005-.009-.135c.24-.126.473-.266.77-.22.089.013.186-.023.277-.041.053-.01.104-.03.155-.046l.08.036.012-.085.007-.009.084-.03-.095.389-.015.06-.016.084Zm-.391-.02.188-.113-.017-.029h-.197l.026.142Z" fill="#D6925D"/><path d="M9.333 6.7c-.036-.014-.078-.018-.106-.041-.114-.095-.174-.315-.126-.438l.15.33.089.09-.007.059Z" fill="#995D42"/><path d="M9.252 6.55 9.1 6.22l-.061-.328.002-.002.246.658-.036.003Z" fill="#481C13"/><path d="m9.64 7.089.116.186-.208-.182.067-.011-.001.004.011.021.016-.018ZM9.547 7.094l-.18-.15c.09.013.168.042.18.15Z" fill="#843C32"/><path d="m9.251 6.55.036-.002.052.093-.088-.09Z" fill="#5C250E"/><path d="m10.9 6.59-.012.085-.08-.035.092-.05Z" fill="#D18C56"/><path d="m9.372 6.699.059.121-.062-.118.003-.003Z" fill="#5C250E"/><path d="m9.333 6.7.007-.059c.01.02.022.039.033.058l-.004.003-.036-.002Z" fill="#5C250E"/><path d="m9.04 5.892-.014-.015.002-.001.014.014-.002.002Z" fill="#481C13"/><path d="m9.368 6.944-.014.001-.014-.003.015-.018.013.02Z" fill="#843C32"/><path d="M9.49 6.91Z" fill="#5C250E"/><path d="M10 8.079c-.055.103-.146.05-.225.057l-.195-.25-.178.13-.24-.176v-.03l.262-.1.577.369Z" fill="#2C2422"/><path d="m9.101 7.36-.17.158-.037-.03.09-.134-.032-.144.149.15ZM8.951 7.09l-.112-.133c.078-.064.16-.019.257.151l-.145-.018ZM8.95 7.151l-.06-.06h.06v.06Z" fill="#1A1312"/><path d="m9.401 7.39.014.014c0 .002-.002.003-.003.004l-.013-.017.002-.002ZM9.25 7.24c-.004-.004-.01-.008.002.002a.043.043 0 0 0-.002-.002ZM9.55 7.571l-.028-.03.03.028-.003.002Z" fill="#2C2422"/><path d="m9.4 7.391-.03-.03.002-.002.03.03-.002.002ZM9.341 7.33l.03.03-.001.001-.03-.03.001-.001ZM9.312 7.3l.03.03H9.34l-.03-.03h.002ZM9.31 7.3l-.03-.03.03.03Z" fill="#2C2422"/><path d="m8.503 15.425-.332-.146.002-.002.33.091v.057Z" fill="#612F26"/><path d="M8.502 15.425v-.057l.089.002.002.056a.127.127 0 0 0-.01.011l-.08-.012Z" fill="#7D392F"/><path d="m12.58 15.902-.021-.068.007-.012.07.086-.056-.006Z" fill="#813B31"/><path d="m13.325 16.053-.17-.017c-.038-.082-.062-.176-.117-.244-.063-.079-.119-.186-.248-.18l.025-.097v.001l.03-.038-.002-.048a.125.125 0 0 0 .006-.026l.003-.006.026-.03.04-.034h.007l.16.094.17.068a.093.093 0 0 0 .01.024l.091.056.001.001c.046.042.092.085.14.124.002.002.026-.022.04-.034l.029-.142.057-.037.144-.174.072.125-.04.075c-.05.059-.098.118-.14.17l.174.131-.176.066h-.134l-.198.172Zm-.124-.38.029.03.06.06c.023.02.046.037.07.056l.015-.025a27.915 27.915 0 0 1-.064-.05l-.063-.058-.031-.03-.029-.016a.324.324 0 0 0-.007.01l.02.023Zm-.083-.097-.036-.022-.007.014.038.014.016.038.019-.012-.03-.032Zm.159.428.027-.049-.142-.069-.02.038.135.08Z" fill="#D18C56"/><path d="M12.79 15.611c.13-.005.184.102.248.181.055.068.079.162.116.244l-.023.077H13c-.069-.063-.138-.125-.205-.19-.07-.066-.162-.118-.165-.233l.003.005.032-.06.03-.03-.004-.006.034.008.064.004Z" fill="#813B31"/><path d="m14.363 15.934-.025.025-.052.038-.189.052-.08.007a.091.091 0 0 0 .002-.027l.02-.032-.024-.027-.09-.004-.09.033-.061.002-.003-.035.19-.114.412-.034-.01.116Z" fill="#D18C56"/><path d="m13.833 15.815-.175-.131.14-.17.135.21c.01 0 .03.003.049-.001.013-.003.023-.017.034-.026l.21-.002.097.05-.338.042-.03.023-.088.008a46.544 46.544 0 0 1-.034-.003ZM13.324 16.053l.198-.172h.135l-.08.087.01.088c-.093.038-.178.055-.263-.003Z" fill="#7D392F"/><path d="m13.625 16.336-.087-.006c.044-.121.108-.153.24-.113l-.04.072-.082.038-.031.01Z" fill="#D18C56"/><path d="m14.202 16.148-.083.102-.09-.036.023-.088.082-.045c.017-.005.035-.01.06-.015l.008.082Z" fill="#D69662"/><path d="m13.77 15.966.004.036-.016.121c-.03-.03-.07-.063-.065-.07.02-.032.05-.058.078-.087Z" fill="#7D392F"/><path d="m13.923 16.086-.082.056v-.076l.117-.04a.147.147 0 0 0-.003.03l-.032.03Z" fill="#BCBAB7"/><path d="m14.052 16.126-.022.088-.13-.013.152-.075Z" fill="#995D42"/><path d="m13.957 16.027-.117.039-.005-.067.09-.033.06.06-.014.001h-.014ZM14.02 16.03c0 .008-.001.017-.004.026l-.03-.029.033.003Z" fill="#7D392F"/><path d="m8.476 4.395.056-.002c.01.036.029.073.025.108-.009.089-.028.177-.043.266l-.038-.002v-.37Z" fill="#612F26"/><path d="m8.778 4.358-.067.034h-.03l-.15-.019.032-.07.15-.007.065.062Z" fill="#D69662"/><path d="M8.77 4.692v.029l-.118.09H8.65l.12-.119Z" fill="#5C250E"/><path d="m8.652 4.812.004-.005-.005.004.001.001Z" fill="#5C250E"/><path d="M13.17 14.195h.206l.1.15c0 .02.002.04.004.06l.113.126h.031v-.002l.03.03.06.061v-.001c.16.152.331.284.572.264l.029.01v.024l-.201.017c-.113.018-.2-.114-.289.042l.327.102-.056.08-.173-.03-.33.003-.03.005-.476.03-.15.028-.004-.036c0-.072.046-.151-.03-.214l-.029-.063-.024-.023-.003-.004-.032-.057.002.002-.091-.061-.06-.059-.053-.15.053-.031.184-.176-.002-.002.03-.03.005.002.164-.109.123.012Z" fill="#D59461"/><path d="m13.17 14.195-.122-.012-.164.109-.011-.04.158-.202.028.031v.058l.11.018.001.038Z" fill="#481C13"/><path d="m13.773 13.688.02-.05c.053.142.065.279-.015.41l-.029-.026.024-.334Z" fill="#995D42"/><path d="m13.48 13.78.055-.063.147-.007.005.04-.065.057-.13.02-.013-.046Z" fill="#7D392F"/><path d="m13.749 14.022.028.027-.034.178h-.118l-.003-.002.127-.203Z" fill="#5C250E"/><path d="m13.687 13.75-.006-.04-.059-.117.127-.016-.006.11-.056.062Z" fill="#995D42"/><path d="m13.168 14.157-.11-.018v-.058l.058-.008c.04-.01.079-.02.119-.028l-.066.112Z" fill="#D69662"/><path d="m13.48 14.404-.004-.059a.533.533 0 0 1 .025-.003l.005.005-.026.057Z" fill="#5C250E"/><path d="m13.501 14.342.033-.027.002.003-.03.03-.005-.006ZM13.534 14.315l.03-.03.002.002-.03.03-.002-.002Z" fill="#5C250E"/><path d="m13.563 14.285.03-.03.002.002-.03.03-.002-.002Z" fill="#5C250E"/><path d="m13.593 14.255.03-.03.002.002-.03.03-.002-.002Z" fill="#5C250E"/><path d="m14.14 15.326.056-.008.03.018-.001.064-.181.011v.222c-.12-.02-.13-.037-.118-.206l.03-.03h.029l.155-.07Z" fill="#D59461"/><path d="M14.044 15.633v-.222l.181-.01.146.049-.056.143c.003.006.003.011.001.017l-.094-.005.039-.15-.18.01v.167l-.035.013-.002-.012Z" fill="#7D392F"/><path d="m14.67 15.589.03.041c-.02.01-.04.018-.061.027l-.054-.003-.084-.011-.124.012-.06.003v-.048a.022.022 0 0 0-.002-.017h.085l.04-.002.23-.002Z" fill="#150F0E"/><path d="m14.226 15.335-.03-.018.15-.005-.12.024Z" fill="#7D392F"/><path d="m11.37 5.775-.021.015-.016-.03c.008-.003.018-.01.024-.008.007.003.009.015.012.023ZM11.28 5.865l-.021.015-.016-.03c.008-.003.018-.01.025-.008.006.003.007.015.011.023Z" fill="#2C2422"/><path d="m13.596 14.258.03-.03.117-.001.085.313.133-.042.149.005.028.052.302.121-.021.015.021.012-.018.125h-.196c-.105-.04-.21-.078-.313-.12-.068-.027-.133-.06-.2-.09l.002.002-.061-.06-.03-.031.001.001-.015-.02-.016.02a68.233 68.233 0 0 1-.114-.126c.01-.019.018-.038.026-.056l.03-.03.03-.03.03-.03Z" fill="#813B31"/><path d="m14.315 14.893-.028-.01v-.024h.303l.118-.065.45.149-.004.033-.15-.028a.05.05 0 0 0-.027-.01l-.062-.018-.1-.014-.29-.012h-.21Z" fill="#481C13"/><path d="m14.708 14.794-.118.065h-.303l-.061-.032h.196l.019-.125.055.001.059.095.034.024.009-.016-.042-.01.093-.03.06.028Z" fill="#7D392F"/><path d="m14.649 14.765-.094.032-.06-.094.154.062Z" fill="#843C32"/><path d="M14.44 14.703a3.742 3.742 0 0 1-.021-.012l.021-.015a.024.024 0 0 1 0 .027Z" fill="#7D392F"/><path d="m14.524 14.894.291.012-.249.024.004.04.147-.008.118.141-.073.149-.623.031-.183.084v.03l-.03.03-.087.012c-.02-.037-.042-.073-.072-.125l-.144.174-.145.002-.12.087h-.002l-.044-.06-.015-.031-.03-.027-.148-.065-.153-.056-.031-.03v.001l.002-.094-.002.002c.05-.01.101-.018.152-.027h.481l.014.002.013-.003.028.025.039.004.14.002.122-.092.173.03c.092.054.088-.032.126-.056l-.014-.027c-.019 0-.037.002-.056.003l-.327-.102c.09-.157.176-.024.289-.043l.2-.016a.116.116 0 0 0 .18 0l.03-.023Z" fill="#D6925D"/><path d="m14.914 14.92.062.019.027.039c.013.019.026.054.038.054.086-.001.172-.01.258-.015l.217.066.03.043.088.06v.054l-.033.032-.03.031-.507-.115-.153-.03a.145.145 0 0 1-.025-.004l-.031-.086.06-.148Z" fill="#D18C56"/><path d="m14.914 14.92-.06.148v.03a1.429 1.429 0 0 1-.02.005l-.118-.141-.146.008-.005-.04.25-.024.1.014Z" fill="#D59461"/><path d="M14.854 15.098v-.03l.032.086-.025.07-.007-.126Z" fill="#5C250E"/><path d="m12.542 12.823.031.027-.093-.003.04-.04a.031.031 0 0 0 .022.016Z" fill="#D69662"/><path d="m12.547 13.09.009-.04.02.037-.03.003Z" fill="#7D392F"/><path d="m10.217 2.388.086.002-.091.023c0-.008.002-.017.005-.025Z" fill="#995D42"/><path d="m14.585 15.654.053.003-.055.221-.097-.056.04-.035-.073-.047.012-.069a.065.065 0 0 1 .028-.006l.092-.01Z" fill="#D6925D"/><path d="m14.466 15.671-.013.069.073.047-.04.035-.163-.076-.096-.05.09-.038.06-.003.089.016Z" fill="#D18C56"/><path d="m13.956 15.367.183-.084.002.043-.155.07-.03-.029Z" fill="#7D392F"/><path d="M15.3 15.017c-.086.006-.172.014-.258.015-.013 0-.025-.035-.038-.054v-.03l.15.028.145.041Z" fill="#D6925D"/><path d="m15.634 15.185-.09-.06.052.01.038.05Z" fill="#D59461"/><path d="m12.933 15.158.004.036a.298.298 0 0 1-.003.022h.002l-.001.093-.001-.001a.024.024 0 0 0 0 .027l-.01-.001h-.007l-.039.034c-.01.01-.018.02-.026.03l-.004.006-.019.025-.073.086-.066.084.005.005-.032.03-.03.061-.004-.005-.064.132-.007.012-.057-.073.04-.054-.201-.012h-.001l.003-.06.12-.054.104.029-.148-.126.067-.01.03.007c.08.003.175.045.21-.077l.033-.108.062-.057-.009.101.122-.182ZM10.714 4.221l-.046.008-.002-.044.174-.006.327-.004.151-.002h.148l.094-.002.112.016.009.055-.093-.003-.091-.018-.12.003a.022.022 0 0 0-.028 0l-.063-.001-.172-.009-.4.007Z" fill="#BCBAB7"/><path d="m11.497 4.221.092.018-.002.06-.001.001c-.113.002-.066.118-.117.164-.167.156-.308.352-.573.351-.039 0-.078.036-.116.056l-.062-.27c.18.054.345.062.485-.1.088-.103.196-.187.294-.28Z" fill="#1A1312"/><path d="m11.565 4.9-.336.06c.038-.183.195-.292.28-.445.035-.066.052-.143.077-.215h.001c.129.027.137.043.104.163-.018.065-.028.132-.042.199l-.031.033c-.154-.003-.17.013-.162.179l.136-.03c0 .02.002.038.003.056h-.03ZM10.865 7.084l.017-.085.007.078a.032.032 0 0 1-.024.007Z" fill="#995D42"/><path d="M15.635 15.24v-.054a.73.73 0 0 0 .026.002l-.026.052Z" fill="#D59461"/><path d="m9.577 17.318-.026.089c-.05-.047-.04-.076.026-.09Z" fill="#120302"/><path d="M8.022 13.897c.236.06.468.14.708.171.28.037.537.142.8.227.028.009.052.03.077.046.093.127.231.117.365.124l.086.007.56.31c.074.04.148.08.222.122l.001.038c-.163-.028-.329-.05-.49-.087-.1-.022-.195-.066-.293-.1-.13-.105-.288-.12-.445-.138-.016-.01-.031-.024-.05-.03a182.5 182.5 0 0 0-1.222-.424c-.031-.01-.07 0-.106 0l-.095-.054.014-.025-.045-.005.002.001-.032-.031.002.001a9.413 9.413 0 0 1-.032-.031l.002.001-.031-.031v.001l.002-.093Z" fill="#813B31"/><path d="m8.026 12.397-.088-.004-.109-.2-.093-.339-.02-.235-.02-.304-.032-.171.017-.105h.03l.02.138.073.04c.077.075-.018.183.09.222l.008.06c-.01.026-.03.053-.028.078.007.157.017.314.032.47.002.02.038.035.059.052l.022.063.039.235Z" fill="#D6925D"/><path d="M7.736 11.854c.03.113.062.226.093.338l.107.58c.001 0-.018.002-.022-.004-.088-.17-.197-.334-.254-.514-.038-.12 0-.263.004-.396.024 0 .048-.002.072-.004Z" fill="#843C32"/><path d="m11.949 15.304-.182.03c-.02 0-.04.002-.059.003l-.15.024a161.4 161.4 0 0 1-.204-.042l.116-.204.512.042.001.059a3.668 3.668 0 0 1-.02.018l.025.01-.007.034-.032.026Z" fill="#D6925D"/><path d="M8.235 14.163c.036 0 .075-.01.106 0 .409.14.816.282 1.223.424.018.006.033.02.05.03l-.046.009c-.162-.044-.328-.077-.486-.133-.285-.103-.565-.22-.847-.33Z" fill="#481C13"/><path d="M8.646 12.524c-.048-.1-.106-.197-.141-.302-.054-.162-.093-.33-.138-.496-.01-.041-.052-.099.042-.096v.008l.147.56.034.051.03.09.034.146-.008.039Z" fill="#612F26"/><path d="m10.897 15.375-.075-.15c.099 0 .168-.01.233.002.06.011.115.046.191.078l.013.06-.061.001-.122.006-.18.003Z" fill="#D6925D"/><path d="M11.199 15.366h.06l-.001.008h.03l.27-.013.15-.024.03.007c-.072.097-.185.055-.278.08-.074.02-.155.017-.232.019-.097-.006-.195-.007-.292-.018-.042-.005-.082-.028-.123-.043l.084-.007.18-.003.122-.006Z" fill="#612F26"/><path d="M10.597 14.385c.196.068.393.135.588.206.057.022.11.058.164.087-.31-.095-.634-.148-.912-.332l.045-.009.054.015.06.033Z" fill="#5C250E"/><path d="m7.736 11.854-.072.004v-.714l.033.171.02.304.019.235ZM8.021 13.689c.053.012.107.017.156.037.142.057.28.12.42.18-.181.03-.468-.078-.574-.219l-.002.002Z" fill="#7D392F"/><path d="m8.952 14.797.186.074a3.363 3.363 0 0 1-.013.02l.131.119.026.028-.002-.001.03.033-.003.04-.087-.04-.059-.034.001.001a459.65 459.65 0 0 1-.275-.206l.065-.034Z" fill="#D69662"/><path d="m8.022 13.897-.001.093c-.144-.106-.144-.273-.176-.424-.014-.067-.015-.137-.023-.206h.043c.022.125.037.252.068.375.015.058.059.108.09.162ZM7.82 14.31c-.013-.002-.035-.002-.036-.007-.021-.072-.068-.107-.142-.108l-.13-.334c.02.02.042.04.06.062.06.082.122.164.178.248.029.043.047.093.07.14ZM7.902 11.499l-.007-.06.01-.27.03.032c.013.19.028.378.042.567h-.042l-.033-.27Z" fill="#612F26"/><path d="m8.924 12.697-.003.061c-.11.01-.151-.08-.211-.143l.002-.035.001-.002.027-.03h.026l.034.002.03.03.06.058.03.032c0 .009.001.018.004.027Z" fill="#995D42"/><path d="m8.026 12.397-.039-.235a.115.115 0 0 1 .03-.002l.113.346-.063-.022a.124.124 0 0 0-.013-.026l-.028-.06Z" fill="#612F26"/><path d="M8.767 12.548H8.74l-.027.001h-.001l-.063-.029-.002.004.007-.039c.06-.064.008-.104-.033-.145v-.002l-.03-.09.002-.092a.076.076 0 0 0 0-.024l.144.324c.01.022.022.043.033.064 0 .01-.002.019-.003.028Z" fill="#843C32"/><path d="M8.016 12.16c-.01 0-.02 0-.029.002l-.022-.063-.03-.331h.042l.04.392Z" fill="#7D392F"/><path d="m9.568 14.626.045-.01c.158.018.315.034.446.138l-.49-.128Z" fill="#612F26"/><path d="m8.68 12.85-.092.06-.182-.151.021-.03.253.122Z" fill="#481C13"/><path d="M9.972 14.465c-.133-.007-.272.002-.365-.124l.365.124Z" fill="#7D392F"/><path d="M8.622 11.709a.296.296 0 0 0-.036.207h-.021l-.093-.238-.001.002.12.029h.031Z" fill="#843C32"/><path d="m7.935 11.201-.03-.031.058-.24a.088.088 0 0 0 .022.002l-.05.27Z" fill="#7D392F"/><path d="m9.611 13.867-.014.061-.046-.027-.062-.212.122.12v-.002.06Z" fill="#D69662"/><path d="M9.22 13.446c.015.01.03.021.043.032l-.005.008-.023.024-.225-.15.002-.003.057.003v-.001l.032.027a.106.106 0 0 0 .025.004l.034.03.06.026Z" fill="#995D42"/><path d="m9.49 13.689.061.212-.162-.229.02-.024.011.001h.011a.035.035 0 0 0 .022.012l.036.028ZM9.22 15.07l.087.04.096.076-.122.001-.062-.075v-.041Z" fill="#612F26"/><path d="m9.52 15.217-.091-.032c.065-.108.109-.01.161.026l-.07.006ZM9.611 13.808l-.122-.12.006-.029.118.028-.002.121Z" fill="#995D42"/><path d="m10.986 14.923.212.031-.002.035-.208-.034-.002-.032Z" fill="#7D392F"/><path d="M8.622 11.709h-.03l-.019-.106.038-.007.01.113ZM8.564 11.917l.022-.001.006.216a.076.076 0 0 1 0 .024.162.162 0 0 1-.027-.004v-.235Z" fill="#995D42"/><path d="m11.196 14.989.002-.035h.109l.002.035h-.113ZM7.865 13.36h-.043l-.012-.159.025-.004.03.163Z" fill="#843C32"/><path d="m10.57 15.188-.032-.002.127-.056.013.043-.108.014Z" fill="#995D42"/><path d="M9.13 11.259h.09l-.012.05-.048.042-.03-.092Z" fill="#D18C56"/><path d="m9.18 11.452-.091-.048.042-.045.067.073a.55.55 0 0 0-.019.02Z" fill="#5C250E"/><path d="m7.57 10.742.093-.015c-.021.067-.053.069-.093.014Z" fill="#D18C56"/><path d="m10.986 14.923.002.032-.147-.013-.001-.038.146.019Z" fill="#481C13"/><path d="m9.389 13.672-.091-.09.023-.023.088.089-.02.024Z" fill="#612F26"/><path d="m8.829 14.803-.057-.064.119.059v-.001l-.061.002-.001.004Z" fill="#995D42"/><path d="m9.298 13.581-.063-.071.023-.024.051.025h-.001l.013.048-.023.022Z" fill="#612F26"/><path d="m8.89 12.638-.06-.058.06-.002v.06Z" fill="#D69662"/><path d="m11.888 14.888-.045.031-.016-.06.002-.002.058.03h.001Z" fill="#D6925D"/><path d="M9.611 13.867v-.06l.067.047-.067.013Z" fill="#995D42"/><path d="M8.409 11.637v-.007l.061.05.002-.002-.063-.04Z" fill="#843C32"/><path d="m9.31 15.07-.03-.033h.066c0 .006.002.011.003.017l-.038.016Z" fill="#995D42"/><path d="M8.11 14.08c.014 0 .028.002.044.004l-.014.025-.03-.03Z" fill="#612F26"/><path d="m7.506 13.21-.024-.037.024-.006v.043Z" fill="#813B31"/><path d="m8.952 14.797-.065.034.003-.002.002-.032-.001.001h.06Z" fill="#995D42"/><path d="m8.649 12.52.062.028h-.059a.029.029 0 0 1-.003-.028Z" fill="#612F26"/><path d="M8.652 12.549h.06l.001.03h-.034l-.027-.03Z" fill="#843C32"/><path d="M8.679 12.58h.033l-.002.036-.031-.036ZM8.023 13.687l-.012-.007.01.009.002-.002Z" fill="#7D392F"/><path d="M8.766 12.548a.116.116 0 0 0 .002-.028l.031.03-.033-.002Z" fill="#D69662"/><path d="M8.054 12.458c.005.008.01.017.013.026a4.639 4.639 0 0 1-.028-.005l.015-.021Z" fill="#D6925D"/><path d="m8.08 14.049.032.031-.032-.031Z" fill="#612F26"/><path d="m9.01 13.36-.018-.014.004-.004.016.015-.002.002Z" fill="#995D42"/><path d="M9.642 9.34c-.03-.073-.063-.145-.088-.22-.018-.054-.024-.113-.035-.17l-.15-.39-.118-.24c.128.093.188.231.23.374.061.212.108.43.16.646Z" fill="#1A1312"/><path d="m9.16 7.81.002.03-.093.09-.078-.016-.006-.027.176-.077Z" fill="#150F0E"/><path d="M11.587 14.468c.041.01.082.018.124.027l.214.107-.022.044c-.107-.056-.23-.08-.316-.178Z" fill="#612F26"/><path d="m9.321 13.56-.013-.049h.113l.01.137-.01.001-.012-.001-.088-.089ZM10.367 14.039c.04.02.079.042.118.063-.048-.004-.122.04-.118-.063Z" fill="#D59461"/><path d="m12.211 14.626.049-.03.012.024-.054.028a.023.023 0 0 1-.007-.022Z" fill="#1A1312"/><path d="m11.887 14.887-.058-.03.044-.032.014.062ZM9.309 13.51l-.051-.024.005-.008.046.033Z" fill="#D59461"/><path d="m9.494 13.66-.005.03-.036-.03h.041Z" fill="#D69662"/><path d="M10.18 13.894a.06.06 0 0 0 .03.003.041.041 0 0 1 .009.023l-.038-.026Z" fill="#D59461"/><path d="m12.875 14.88.03.064v.1l-.079-.069-.099-.13c-.03-.024-.062-.048-.093-.07a.24.24 0 0 0-.24.05l-.064-.005c0-.063.007-.122-.002-.178-.01-.056-.035-.109-.062-.193l.281.045.023.035v.13l.098.02.059.06.09.06-.002-.002.032.057.004.004.024.022Z" fill="#BCBAB7"/><path d="m12.57 14.53-.023-.036-.09-.116.03-.48v-.06l.006-.093.024.062.002.036.03.055.035.084c-.062.08.003.115.053.155.009.048.012.1.031.142.006.013.058.006.089.008l.058.028-.149.183-.053.031h-.043Z" fill="#7D392F"/><path d="m12.758 15.296-.033.109-.208.028c-.228-.165-.267-.345-.118-.548l.018.213h.13l-.001-.002.032.032-.002-.002v.227l.182-.057Z" fill="#FEFEFE"/><path d="M12.548 15.098h-.13a647.45 647.45 0 0 1-.019-.213l.025-.039.152-.045.057.025a.341.341 0 0 0-.085.272Z" fill="#D69662"/><path d="m12.488 13.898-.031.48c-.007-.152-.014-.304-.018-.456 0-.008.032-.016.049-.024Z" fill="#1A1312"/><path d="m12.166 15.04.083-.242c.113.066.033.146.016.23l-.099.011Z" fill="#302826"/><path d="m12.418 15.484.149.126a46.525 46.525 0 0 1-.104-.029l-.12.055-.016-.032.04-.116.051-.004Z" fill="#995D42"/><path d="M12.217 15.273c.028.005.067 0 .08.016.028.032.04.076.06.115l-.103-.013-.002.004-.032-.061.001.003-.004-.064Z" fill="#BCBAB7"/><path d="m12.517 15.433.209-.029c-.036.122-.13.08-.21.077a.32.32 0 0 1 .001-.047ZM12.575 14.801l-.152.045-.03-.02a.24.24 0 0 1 .24-.052l-.057.027ZM12.217 15.273l.004.064-.059-.18c.078.01.051.07.055.116Z" fill="#302826"/><path d="m12.253 15.392.103.012.011.055-.114.005v-.072Z" fill="#612F26"/><path d="M12.515 15.46a.073.073 0 0 0 0 .02l-.03-.006.03-.015Z" fill="#995D42"/><path d="m12.158 15.123-.014-.022a.035.035 0 0 1 .014.022Z" fill="#302826"/><path d="M8.924 12.697a.14.14 0 0 1-.004-.028l.02.012-.016.016Z" fill="#D69662"/><path d="M9.042 8.788c.04.314-.009.621-.068.926h-.03a.02.02 0 0 1-.01-.01c-.004-.008-.011-.017-.01-.026l.118-.89Z" fill="#251D1C"/><path d="M8.465 9.437v-.83c.046.275.103.55.046.829h-.046ZM9.49 9.16c.02.063.053.126.057.19.009.15.003.302.003.453l-.036.007-.025-.08v-.57Z" fill="#1A1312"/><path d="m8.4 10.06.051-.359c.075.112.064.198-.052.36ZM8.912 9.887l-.023.012-.012-.031c.008-.002.019-.008.024-.005.006.004.007.015.01.024Z" fill="#251D1C"/><path d="m8.651 10.54-.032-.031.031-.001.032.031h-.03Z" fill="#150F0E"/><path d="m8.598 15.274.682.126-.003.05c-.07-.003-.14 0-.207-.013-.16-.03-.32-.066-.478-.1l-.06-.037.066-.026Z" fill="#D69662"/><path d="m9.219 15.112.062.075-.272-.14.004-.043.15.033H9.16c.02.024.038.05.058.075Z" fill="#D18C56"/><path d="m9.276 15.45.004-.05.002-.008.014.003.013-.001h.062l.148.066-.243-.01Z" fill="#995D42"/><path d="m8.597 15.274-.065.026-.18-.055v-.04l.245.069Z" fill="#D18C56"/><path d="M9.31 15.394h-.014l-.014-.002.027.002Z" fill="#7D392F"/><path d="M9.162 15.037c-.05-.01-.1-.022-.149-.033l-.376-.24.192.039v-.004l.061.03-.003.002.275.206ZM8.353 15.245l.18.055.059.037-.001.033-.089-.002-.33-.091c-.019-.031-.038-.063-.058-.093.02 0 .039.002.058.004l.181.057Z" fill="#481C13"/><path d="m12.67 13.924.082.127.004.237-.119-.15v-.121l.021-.08.013-.013Z" fill="#813B31"/><path d="m12.756 14.288-.004-.238c.013.047.019.097.04.139.015.027.053.042.08.062l.01.04-.004-.002-.03.03.002.003-.036-.007-.058-.027Z" fill="#612F26"/><path d="m12.52 13.842-.002-.035.153.117a.502.502 0 0 0-.013.012l-.077-.04-.062-.054Z" fill="#813B31"/><path d="m12.701 13.478.03.175-.009.009-.053-.185h.032Z" fill="#995D42"/><path d="m12.732 13.653.063.088-.037.02-.035-.1.01-.008Z" fill="#995D42"/><path d="m12.661 13.423-.03-.06a.32.32 0 0 0 .012-.012l.031.06-.013.012ZM12.701 13.478l-.032-.001-.008-.054.013-.012c.01.022.018.045.027.067Z" fill="#612F26"/><path d="m12.631 13.363-.017-.02.006-.008.023.016a.254.254 0 0 1-.012.012Z" fill="#612F26"/><path d="m9.46 4.419-.086.018L9.36 4.4l.035-.028.16-.194.077.012a.033.033 0 0 0 .01.018l-.003.038-.06.012-.03.013-.09.149Z" fill="#BCBAB7"/><path d="M9.639 4.245c0-.013.002-.025.003-.038l.568-.02.056-.008.092.004.12.015h.061l.058.04-.387.01-.12.002-.451-.005Z" fill="#D69662"/><path d="m10.21 4.187-.568.02a.033.033 0 0 1-.01-.018l.578-.002ZM10.598 4.238l-.058-.04.127-.013.002.044-.07.009Z" fill="#995D42"/><path d="m12.49 15.77-.01.089c-.114.049-.2-.005-.312-.08l.107-.083.064-.002.001.001.038.094.112-.02Z" fill="#302826"/><path d="M12.49 15.77c-.032.005-.063.01-.112.02a62.402 62.402 0 0 1-.038-.095l.202.011-.041.055-.011.008ZM12.34 15.694l-.065.002.052-.092.016.032-.004.058Z" fill="#612F26"/><path d="m8.59 15.37.002-.033c.159.034.318.07.478.1.067.012.138.01.207.014l.243.009c-.047.009-.094.021-.142.026-.103.011-.206.02-.31.025-.038.003-.078-.006-.116-.013l-.359-.073-.002-.055Z" fill="#5C250E"/><path d="m9.926 15.386-.118-.025.003-.027.121.012-.006.04Z" fill="#BCBAB7"/><path d="M11.737 15.344a.757.757 0 0 0-.029-.007l.059-.004-.03.01ZM11.988 15.244l-.025-.01.02-.018.005.028Z" fill="#D59461"/><path d="M8.682 10.539c.1-.005.183.024.224.13-.1.006-.16-.067-.224-.13Z" fill="#150F0E"/><path d="m10.693 4.343-.064.004-.118.002-.062-.05.068-.023.16.001.016.066Z" fill="#D59461"/><path d="m10.714 4.221.4-.007a.535.535 0 0 0-.015.023l-.385-.016Z" fill="#995D42"/><path d="M11.099 4.237a.639.639 0 0 1 .015-.023l.172.009-.187.014Z" fill="#1A1312"/><path d="m10.692 4.343-.016-.066c.037.014.075.028.016.066Z" fill="#302826"/><path d="M11.35 4.224a.023.023 0 0 1 .027 0h-.027Z" fill="#1A1312"/><path d="M11.586 4.3c-.026.072-.042.149-.078.215-.085.153-.241.262-.28.446h-.42l-.029-.09c.04-.02.078-.056.117-.056.265.001.405-.195.573-.35.05-.047.004-.163.117-.165Z" fill="#612F26"/><path d="m10.93 5.438-.061.08-.27-.255c.044.006.097-.002.132.02.071.043.133.102.199.155Z" fill="#302826"/><path d="m10.419 5.56.329-.025.123.055-.002-.001.024.069-.091.02-.287-.003-.125-.047.029-.068Z" fill="#995D42"/><path d="m10.516 5.675.287.003.065.038-.05-.002-.034.01-.066.008-.028.003-.083.013-.167-.032.001-.025.075-.016Z" fill="#150F0E"/><path d="m10.871 5.59-.123-.055-.152-.032.07-.038c.079.024.175.02.205.125Z" fill="#D18C56"/><path d="m10.893 5.658-.023-.07.098.05-.014.033-.06-.013Z" fill="#D18C56"/><path d="m10.98 5.774-.054-.006.062-.027-.007.033ZM10.383 4.484a.079.079 0 0 1-.028-.009l.015-.043.015.003-.002.05Z" fill="#995D42"/><path d="m10.812 5.055-.038.023-.01-.016.038-.02a.592.592 0 0 0 .01.013Z" fill="#D6925D"/><path d="m10.69 5.735.027-.003-.013.004h-.014Z" fill="#1A1312"/><path d="m10.473 7.064-.026-.142h.198l.016.029-.188.113Z" fill="#813B31"/><path d="M9.641 7.089a8.44 8.44 0 0 1-.015.018l-.012-.02a.023.023 0 0 1 .027.002Z" fill="#7D392F"/><path d="m13.839 15.439.087-.012c-.012.169-.002.186.118.206l.003.012-.031.052c-.011.01-.022.023-.034.026-.019.004-.04.001-.05.001l-.134-.21.04-.075Z" fill="#612F26"/><path d="M13.356 15.577c.04-.03.081-.058.121-.087a.296.296 0 0 0-.001.03l.06.147c-.014.012-.038.036-.04.034-.048-.04-.094-.082-.14-.124Z" fill="#995D42"/><path d="m13.537 15.667-.06-.148.089.006-.029.142Z" fill="#D59461"/><path d="m13.276 16.004-.134-.08.02-.038.141.069-.027.05Z" fill="#7D392F"/><path d="M13.118 15.394c.05.021.098.043.147.065l.001.028a.117.117 0 0 1-.012.01l-.169-.069.033-.034Z" fill="#612F26"/><path d="m13.118 15.394-.033.034a325.37 325.37 0 0 1-.161-.094h.01l.031.004.153.056Z" fill="#843C32"/><path d="m12.757 15.515.073-.086h.013l.002.049-.03.038v-.001l-.053.037a4.558 4.558 0 0 0-.005-.037Z" fill="#813B31"/><path d="m13.311 15.516.045.06-.091-.057.046-.003Z" fill="#995D42"/><path d="m13.566 15.525-.09-.006.002-.03h.145l-.057.036Z" fill="#612F26"/><path d="m12.762 15.552.053-.037-.025.096h-.002l-.033-.036a.631.631 0 0 1 .007-.023Z" fill="#D69662"/><path d="m13.31 15.745.065.05-.015.024a33.676 33.676 0 0 0-.07-.055l.02-.02Z" fill="#612F26"/><path d="m13.289 15.764-.06-.06.019-.019.062.06-.021.019Z" fill="#612F26"/><path d="m13.117 15.576.03.031-.018.013-.017-.039.005-.005ZM13.112 15.581l-.038-.013.008-.014.035.022-.005.005Z" fill="#843C32"/><path d="m13.311 15.516-.046.003a.093.093 0 0 1-.011-.023.119.119 0 0 0 .013-.01H13.296l.015.03ZM13.201 15.673l-.02-.024a.7.7 0 0 0 .007-.009l.028.017-.015.016Z" fill="#612F26"/><path d="M12.843 15.43h-.013c.006-.01.012-.018.019-.026a.125.125 0 0 1-.006.026Z" fill="#995D42"/><path d="m13.216 15.657.032.028-.018.019-.029-.032.015-.015ZM12.762 15.552a.45.45 0 0 0-.007.023l-.03.032a4.215 4.215 0 0 0-.035-.008l.067-.084.005.037Z" fill="#612F26"/><path d="m12.725 15.607.03-.032.033.036-.063-.004Z" fill="#D18C56"/><path d="m14.02 16.03-.034-.003-.061-.06.09.003.024.027-.02.033Z" fill="#612F26"/><path d="m14.016 15.697.03-.052.035-.013.141-.027.094.005v.048l-.09.037-.21.002Z" fill="#302826"/><path d="m14.226 14.828.06.03v.025c-.24.02-.41-.112-.572-.264.066.03.131.062.199.09.103.041.208.079.313.119ZM13.567 15.19h-.481l.001-.024.477-.03.003.054Z" fill="#612F26"/><path d="m13.66 15.218-.037-.004a6.516 6.516 0 0 1-.029-.026v-.057l.33-.003-.124.092-.14-.002ZM12.826 14.975l.078.07v-.101c.075.063.029.142.029.214l-.121.182.008-.1.023-.11-.017-.155Z" fill="#995D42"/><path d="m12.815 14.315.035.007-.183.176.148-.183Z" fill="#481C13"/><path d="m14.152 15.078.056-.003.015.027c-.038.024-.034.11-.126.055l.055-.08Z" fill="#843C32"/><path d="M12.57 14.53h.043l.054.149-.098-.02v-.13Z" fill="#612F26"/><path d="M13.088 15.166a.33.33 0 0 1-.001.024l-.152.026a.289.289 0 0 0 .003-.022l.15-.028Z" fill="#813B31"/><path d="m14.315 14.893.18.001v.023h-.181v-.024Z" fill="#D6925D"/><path d="m12.727 14.738-.06-.059.06.06Z" fill="#995D42"/><path d="m13.594 15.131.001.058-.013.003-.014-.002-.003-.054.03-.005Z" fill="#843C32"/><path d="m13.594 14.53.015-.02.016.02h-.031ZM13.955 15.367l.03.03h-.03v-.03Z" fill="#612F26"/><path d="m14.222 15.605-.14.027v-.166l.179-.012-.039.15Z" fill="#D59461"/><path d="m14.465 15.671-.089-.016.124-.012a.163.163 0 0 0-.008.022.065.065 0 0 0-.027.006Z" fill="#302826"/><path d="M14.493 15.665a.177.177 0 0 1 .008-.022l.085.011-.093.011Z" fill="#995D42"/><path d="m15.005 14.948-.001.03a9.303 9.303 0 0 1-.027-.04c.01.001.02.004.027.01ZM14.495 14.917v-.023h.029l-.03.023Z" fill="#D59461"/><path d="m14.556 14.797.042.01-.009.014a7.078 7.078 0 0 0-.034-.023v-.001Z" fill="#843C32"/><path d="M14.315 14.918h.18a.116.116 0 0 1-.18 0Z" fill="#D59461"/><path d="M13.296 15.486H13.267l-.001-.027.03.027ZM12.965 15.338l-.031-.003a.024.024 0 0 1 0-.027l.031.03Z" fill="#995D42"/><path d="m12.843 15.13-.022.11-.063.056-.182.057v-.226c.09 0 .178.002.267.004Z" fill="#D69662"/><path d="m7.935 11.768.03.33c-.02-.016-.056-.032-.058-.05a9.771 9.771 0 0 1-.033-.47c-.001-.026.018-.053.028-.08l.033.27ZM8.41 11.637l.062.041.092.239v.235l-.008.046-.147-.56Z" fill="#D59461"/><path d="M8.621 12.34c.04.041.092.08.033.145l-.033-.145ZM8.556 12.198l.009-.046c.01.002.018.004.028.004l-.003.093-.034-.05Z" fill="#D69662"/><path d="m9.219 15.112-.058-.076.059.035-.001.04Z" fill="#481C13"/><path d="M8.713 12.578a.148.148 0 0 1 0-.029h.027l-.027.03Z" fill="#7D392F"/><path d="m8.89 14.83-.06-.031.062-.002-.002.032Z" fill="#D69662"/><path d="M12.843 15.13c-.09 0-.178-.002-.267-.004l.002.002-.032-.032.001.002a.34.34 0 0 1 .085-.272l.094.018.1.131.017.156Z" fill="#FEFEFE"/><path d="m12.727 14.845-.094-.02c-.02-.007-.038-.016-.057-.024l.058-.027.093.07Z" fill="#995D42"/><path d="m12.638 14.138.12.15c-.031-.003-.083.004-.09-.01-.019-.042-.021-.093-.03-.14Z" fill="#612F26"/><path d="m12.581 13.895.077.041-.02.08a25.352 25.352 0 0 0-.054-.034l-.034-.084.031-.003Z" fill="#D59461"/><path d="m12.584 13.982.054.035-.001.12c-.05-.04-.115-.076-.053-.155Z" fill="#612F26"/><path d="m12.582 13.895-.032.003-.03-.056c.02.018.04.036.062.053Z" fill="#D18C56"/><path d="M10 0C4.477 0 0 4.477 0 10s4.477 10 10 10 10-4.477 10-10S15.523 0 10 0Zm0 19a9 9 0 0 1-9-9 9 9 0 1 1 18 0 9 9 0 0 1-9 9Z" fill="#FEFEFE"/></g><defs><radialGradient id="c" cx="0" cy="0" r="1" gradientUnits="userSpaceOnUse" gradientTransform="matrix(5 0 0 10.6392 10 11.5)"><stop offset=".259" stop-color="#fff"/><stop offset=".33" stop-color="#fff" stop-opacity=".957"/><stop offset=".422" stop-color="#fff" stop-opacity=".838"/><stop offset=".525" stop-color="#fff" stop-opacity=".66"/><stop offset=".637" stop-color="#fff" stop-opacity=".446"/><stop offset=".754" stop-color="#fff" stop-opacity=".233"/><stop offset=".877" stop-color="#fff" stop-opacity=".066"/><stop offset="1" stop-color="#fff" stop-opacity="0"/></radialGradient><linearGradient id="b" x1="10" y1="19" x2="10" y2="1" gradientUnits="userSpaceOnUse"><stop stop-color="#fff"/><stop offset=".496" stop-color="#06B4EA"/><stop offset="1" stop-color="#0493D1"/></linearGradient><clipPath id="a"><path fill="#fff" d="M0 0h20v20H0z"/></clipPath></defs></svg>