<svg xmlns="http://www.w3.org/2000/svg" width="20" height="20" fill="none"><g clip-path="url(#a)"><path fill="#F5AC37" d="M10 0c5.523 0 10 4.478 10 10 0 5.523-4.477 10-10 10-5.522 0-10-4.477-10-10C0 4.478 4.478 0 10 0Z"/><path fill="#FEFEFD" d="M10.365 10.701h3.8c.081 0 .12 0 .125-.106a7.252 7.252 0 0 0 0-1.162c0-.075-.037-.106-.118-.106H6.609c-.093 0-.119.03-.119.119v1.112c0 .143 0 .143.15.143h3.725Zm3.5-2.674a.122.122 0 0 0 0-.088 2.468 2.468 0 0 0-.225-.393 3.188 3.188 0 0 0-.463-.582c-.083-.106-.18-.2-.287-.281a4.493 4.493 0 0 0-1.875-.95 4.66 4.66 0 0 0-1.063-.112H6.596c-.093 0-.106.037-.106.118v2.219c0 .093 0 .119.119.119h7.212s.063-.013.075-.05h-.03Zm0 3.975a1.459 1.459 0 0 0-.319 0h-6.93c-.094 0-.126 0-.126.125v2.169c0 .1 0 .125.125.125h3.2c.153.011.306 0 .456-.031a4.766 4.766 0 0 0 1.357-.3c.159-.055.312-.127.456-.213h.044a4.06 4.06 0 0 0 1.743-1.755s.044-.095-.005-.12Zm-8.63 3.543V12.09c0-.081 0-.093-.1-.093H3.778c-.075 0-.106 0-.106-.1v-1.188h1.45c.08 0 .112 0 .112-.106V9.427c0-.075 0-.094-.1-.094H3.779c-.075 0-.106 0-.106-.1v-1.1c0-.068 0-.087.1-.087h1.344c.093 0 .118 0 .118-.118v-3.37c0-.099 0-.124.126-.124h4.687c.34.013.678.05 1.012.112a6.11 6.11 0 0 1 1.956.725c.402.237.771.522 1.1.85.248.257.471.535.669.832.197.3.36.62.488.956.016.087.1.146.187.131h1.119c.143 0 .143 0 .15.138v1.025c0 .1-.038.125-.138.125h-.863c-.087 0-.112 0-.106.113.034.38.034.762 0 1.143 0 .106 0 .119.12.119h.986c.044.056 0 .112 0 .169.006.072.006.146 0 .218v.757c0 .106-.031.138-.125.138h-1.181a.156.156 0 0 0-.182.118 4.999 4.999 0 0 1-1.312 1.913 7.546 7.546 0 0 1-.669.537c-.25.144-.494.294-.75.413a6.759 6.759 0 0 1-1.475.468 7.694 7.694 0 0 1-1.463.119H5.233v-.006l.001-.002Z"/><path fill="#2D374B" d="m16.08 14.582.735-1.246 1.98 3.083v.591l-.006-4.071a.306.306 0 0 0-.142-.245l-3.564-2.05a.315.315 0 0 0-.304.02l-.012.008-3.46 2.005-.013.006a.306.306 0 0 0-.179.26l.005 3.318 1.844-2.858c.232-.379.738-.5 1.208-.494l.55.014-3.246 5.207.383.22 3.285-5.422 1.452-.005-3.277 5.559 1.366.786.163.094c.07.028.149.03.22.004l3.614-2.094-.691.4-1.91-3.09Zm.28 4.035-1.379-2.165.842-1.429 1.812 2.856-1.274.738Z"/><path fill="#28A0F0" d="m14.981 16.452 1.38 2.165 1.274-.738-1.812-2.856-.842 1.43Zm3.814.558v-.591l-1.98-3.083-.735 1.246 1.91 3.09.692-.4a.308.308 0 0 0 .113-.223v-.039Z"/><path fill="#fff" d="m10.5 17.568.976.562 3.247-5.206-.551-.015c-.47-.006-.976.116-1.208.495l-1.843 2.857-.62.953v.355Zm6.097-4.644-1.453.005-3.285 5.422 1.148.661.312-.53 3.278-5.558Z"/><path fill="#96BEDC" d="M19.407 12.916a.926.926 0 0 0-.434-.744l-3.61-2.076a.938.938 0 0 0-.829 0c-.03.015-3.51 2.034-3.51 2.034a.93.93 0 0 0-.524.784v4.3l.62-.953-.005-3.317a.31.31 0 0 1 .128-.231c.016-.012 3.556-2.061 3.568-2.067a.314.314 0 0 1 .272 0l3.564 2.049a.308.308 0 0 1 .142.244v4.11a.3.3 0 0 1-.107.223l-.691.4-.357.207-1.274.738-1.292.75a.313.313 0 0 1-.22-.005l-1.529-.88-.312.53 1.374.791c.045.026.086.05.12.068l.098.054a.92.92 0 0 0 .701.012l3.753-2.174a.918.918 0 0 0 .354-.691v-4.156Z"/></g><defs><clipPath id="a"><path fill="#fff" d="M0 0h20v20H0z"/></clipPath></defs></svg>