<svg xmlns="http://www.w3.org/2000/svg" width="20" height="20" fill="none"><path fill="#080C0F" d="M18.9 8.372a10.645 10.645 0 0 0-.34-1.152l.37-.877c.28-.604-.495-1.152-1.083-.74l-.062.054a5.196 5.196 0 0 0-.495-.63l.495-.933c.31-.576-.433-1.152-1.021-.768l-.681.439a9.354 9.354 0 0 0-.898-.659l.371-1.206c.217-.686-.588-1.29-1.857.137l-.495.027a1.155 1.155 0 0 1-.279-.11c.093-.932-.835-1.618-1.393-.85-.526-.247-.897.22-.897.22-.248-1.509-1.145-.22-1.145-.22C9.397-.102 8.22.912 8.22.912c-.588-1.261-1.516 0-1.516 0-.496 0-.96.028-1.362.055-.743.028-1.455.11-2.043.22-.588.11-1.981.383-2.57 1.645C.39 3.518.452 4.258.76 4.89c.836.165 2.26.082 4.334-1.015 0 0-1.826 1.564-3.993 1.509.279.301.588.52.99.685a2.918 2.918 0 0 0 2.043.055v11.245c0 1.152.867 2.139 2.105 2.386.217.055 1.3.247 2.755.247 1.889 0 4.396-.33 6.5-1.783 1.486-1.015 3.344-3.017 3.622-6.692.031-.686.031-1.316-.03-1.92l.309-.576c.186-.356-.155-.685-.495-.658ZM.884 4.066c-.34-.164 0-.439 0-.439.34-.274.34.631 0 .44Zm.588 0c-.34-.055 0-.493 0-.493.34-.44.34.548 0 .493Zm2.446-.823c-.186.083-.372-.082-.279-.219.031-.082.124-.11.34-.11.217.055.094.22-.061.33Zm.433.083c.434-.275.31-.905-.371-.823-.62.082-.527.521-.34.74-.775-.274-.496-1.124-.248-1.316a.517.517 0 0 1 .216-.11c1.579-.685 2.043 1.344.743 1.509Zm.743 0s.093.027.155.11c0 0 .402.822-.588 1.343-.093.028-.124 0-.124 0 .99-.713.557-1.453.557-1.453Zm.093 13.164s.217.055.402.165h.031c.248.192.403.493-.402.905-.805.439-.774-1.07-.031-1.07Zm.495 2.414c-.743-.33 0-.905 0-.905.712-.247.743 1.234 0 .905Zm1.61.74c-.62-.356 0-.74 0-.74.774-.22.588 1.097 0 .74Zm-.403-2.084c-.773-.384 0-1.207 0-1.207 1.579-.987 1.362 1.947 0 1.207Zm1.455 1.07c-.65-.193 0-.631 0-.631.557-.165.65.795 0 .63Zm.465-1.18c-.434-.137 0-.548 0-.548.557-.22.402.658 0 .548Zm2.816-14.673c1.579-.877.898 1.536 0 1.097-.866-.466 0-1.097 0-1.097Zm2.136 8.392c-.093 1.481-.588 2.496-1.455 3.127-.804.521-1.857.74-2.816.796V6.095c.96.22 1.98.548 2.754 1.124.743.549 1.703 1.536 1.517 3.95Zm.031-6.883c-.836-.275 0-.823 0-.823 1.548-.274.836 1.097 0 .823Zm2.848 1.7c-.217 0 0-.384 0-.384.279-.082.217.384 0 .384Zm-.279-1.18c.403-.136.31.412.031.33-.31-.082-.03-.33-.03-.33Zm-.866-.74c.588-.274.402.905 0 .713-.403-.192 0-.713 0-.713Zm.743 10.367c-1.734-1.124 0-2.605 0-2.605 2.29-1.865 1.733 3.702 0 2.605Z"/><path fill="#FCA11D" d="M18.9 8.02a10.645 10.645 0 0 0-.34-1.151l.37-.878c.28-.603-.495-1.152-1.083-.74l-.062.054a5.196 5.196 0 0 0-.495-.63l.495-.933c.31-.576-.433-1.152-1.021-.768l-.681.439a9.354 9.354 0 0 0-.898-.658l.371-1.207c.217-.686-.588-1.289-1.857.137l-.495.028c-.093-.028-.186-.055-.279-.11.093-.933-.835-1.618-1.393-.85-.526-.247-.897.22-.897.22-.248-1.51-1.145-.22-1.145-.22C9.397-.454 8.22.56 8.22.56c-.588-1.262-1.516 0-1.516 0-.496 0-.96.027-1.362.055a14.29 14.29 0 0 0-2.043.219c-.588.11-1.981.384-2.57 1.646-.34.685-.278 1.426.031 2.056.836.165 2.26.083 4.334-1.014 0 0-1.826 1.563-3.993 1.508.279.302.588.521.99.686a2.918 2.918 0 0 0 2.043.055v11.244c0 1.152.867 2.14 2.105 2.386.217.055 1.3.247 2.755.247 1.889 0 4.396-.329 6.5-1.783 1.486-1.014 3.344-3.016 3.622-6.691a13.18 13.18 0 0 0-.03-1.92l.309-.576c.186-.357-.155-.686-.495-.658ZM.884 3.716c-.34-.165 0-.44 0-.44.34-.273.34.632 0 .44Zm.588 0c-.34-.055 0-.494 0-.494.34-.439.34.549 0 .494Zm2.446-.823c-.186.082-.372-.082-.279-.22.031-.082.124-.11.34-.11.217.056.094.22-.061.33Zm.433.082c.434-.274.31-.905-.371-.823-.62.083-.527.522-.34.74-.775-.273-.496-1.124-.248-1.316a.517.517 0 0 1 .216-.11c1.579-.685 2.043 1.345.743 1.51Zm.743 0s.093.028.155.11c0 0 .402.823-.588 1.344-.093.027-.124 0-.124 0 .99-.713.557-1.454.557-1.454Zm.093 13.165s.217.055.402.164h.031c.248.192.403.494-.402.905-.805.439-.774-1.07-.031-1.07Zm.495 2.413c-.743-.329 0-.905 0-.905.712-.247.743 1.234 0 .905Zm1.61.74c-.62-.356 0-.74 0-.74.774-.22.588 1.097 0 .74Zm-.403-2.084c-.773-.384 0-1.206 0-1.206 1.579-.988 1.362 1.947 0 1.206Zm1.455 1.07c-.65-.192 0-.631 0-.631.557-.164.65.795 0 .63Zm.465-1.18c-.434-.137 0-.548 0-.548.557-.22.402.658 0 .549Zm2.816-14.672c1.579-.878.898 1.536 0 1.097-.866-.467 0-1.097 0-1.097Zm2.136 8.392c-.093 1.481-.588 2.496-1.455 3.127-.804.52-1.857.74-2.816.795V5.744c.96.22 1.98.549 2.754 1.125.743.548 1.703 1.536 1.517 3.949Zm.031-6.884c-.836-.274 0-.823 0-.823 1.548-.274.836 1.097 0 .823Zm2.848 1.7c-.217 0 0-.383 0-.383.279-.083.217.383 0 .383Zm-.279-1.179c.403-.137.31.412.031.33-.31-.083-.03-.33-.03-.33Zm-.866-.74c.588-.275.402.905 0 .713-.403-.192 0-.713 0-.713Zm.743 10.367c-1.734-1.125 0-2.606 0-2.606 2.29-1.865 1.733 3.703 0 2.606Z"/></svg>