<svg width="20" height="20" fill="none" xmlns="http://www.w3.org/2000/svg"><circle cx="10" cy="10" r="10" fill="#010101"/><path d="m10.605 10 5.02-2.726-.844-1.649-4.597 1.89a.48.48 0 0 1-.368 0L5.22 5.625l-.844 1.649L9.395 10l-5.02 2.726.844 1.649 4.597-1.89a.48.48 0 0 1 .368 0l4.597 1.89.844-1.649L10.605 10Z" fill="#23F7DD"/><circle cx="15" cy="15" r="5" fill="#131419"/><path fill-rule="evenodd" clip-rule="evenodd" d="m13.41 14.348 1.59-1.59 1.59 1.59.925-.924L15 10.909l-2.515 2.515.925.924Zm-1.577-.27-.924.924.924.923.923-.923-.923-.924ZM15 17.244l-1.59-1.59-.925.925L15 19.093l2.515-2.514-.925-.925-1.59 1.59Zm3.167-3.166-.923.924.923.923.924-.923-.924-.924ZM15 14.064l.938.937-.938.938-.937-.938.162-.168.084-.077.691-.692Z" fill="#F0B90B"/></svg>