<svg id="svg8" xmlns="http://www.w3.org/2000/svg" viewBox="0 0 365.5 592" width="60" height="60"><style>.st1{fill:#0b8311}</style><g id="layer5"><g id="g1627"><path id="path1599" d="M0 322.4c64.4 34.2 131.6 70 183.5 97.7l182-97.7c-65.9 97.9-120.8 179.4-182 269.6C122.2 502 54.5 402.7 0 322.4zm7-27 176.7-94.3 174.4 93.6-174.3 94.4L7 295.4zm176.5-124.5L0 267.5 182.7 0l182.8 268.1-182-97.2z" style="fill:#3ab83a"/><path id="path1593" class="st1" d="m183.5 420.1 182-97.7c-65.9 97.9-182 269.6-182 269.6V420.1zm.2-219 174.4 93.6-174.3 94.4-.1-188zm-.2-30.2L182.7 0l182.8 268.1-182-97.2z"/><path id="path1603" class="st1" d="m7 295.4 176.7 14.5 174.4-15.1-174.3 94.4L7 295.4z"/><path id="path1606" d="m183.7 309.9 174.4-15.1-174.3 94.4-.1-79.3z" style="fill:#146714"/></g></g></svg>