<svg xmlns="http://www.w3.org/2000/svg" width="20" height="20" fill="none"><path fill="#E68F7B" d="m10 0 6.079 10.046-6.057-2.589L9.999 0Z"/><path fill="#F8EC7C" d="M3.936 10.046 10 0l.023 7.457-6.086 2.59Z"/><path fill="#6EB87D" d="m10 13.75-6.064-3.704 6.086-2.589-.023 6.293Z"/><path fill="#946BA7" d="m16.079 10.046-6.057-2.589-.023 6.293 6.08-3.704Z"/><path fill="#697CB9" d="m10 15.025 6.079-3.604-6.08 8.567v-4.963Z"/><path fill="#4FADD0" d="m10 15.025-6.064-3.604L10 19.989v-4.963Z"/><path fill="#2D374B" d="m16.08 14.582.735-1.246 1.98 3.083v.591l-.007-4.071a.307.307 0 0 0-.141-.245l-3.564-2.05a.314.314 0 0 0-.304.02l-.013.008-3.459 2.005-.013.006a.306.306 0 0 0-.179.26l.005 3.318 1.844-2.858c.232-.379.738-.5 1.207-.494l.552.014-3.247 5.207.382.22 3.286-5.422 1.452-.005-3.277 5.559 1.366.786.163.094c.07.028.149.03.22.004l3.614-2.094-.691.4-1.91-3.09Zm.28 4.035-1.379-2.165.842-1.429 1.812 2.856-1.275.738Z"/><path fill="#28A0F0" d="m14.981 16.452 1.38 2.165 1.274-.738-1.812-2.856-.842 1.43Zm3.814.558v-.591l-1.98-3.083-.735 1.246 1.91 3.09.692-.4a.307.307 0 0 0 .113-.223v-.039Z"/><path fill="#fff" d="m10.5 17.568.976.562 3.247-5.206-.551-.015c-.47-.006-.976.116-1.208.495l-1.843 2.857-.62.953v.355Zm6.097-4.644-1.453.005-3.285 5.422 1.148.661.312-.53 3.278-5.558Z"/><path fill="#96BEDC" d="M19.407 12.916a.926.926 0 0 0-.434-.744l-3.61-2.076a.938.938 0 0 0-.829 0c-.03.015-3.51 2.034-3.51 2.034a.93.93 0 0 0-.524.784v4.3l.62-.953-.005-3.317a.31.31 0 0 1 .128-.231c.016-.012 3.556-2.061 3.568-2.067a.314.314 0 0 1 .272 0l3.564 2.049a.308.308 0 0 1 .142.244v4.11a.3.3 0 0 1-.107.223l-.691.4-.357.207-1.274.738-1.292.75a.313.313 0 0 1-.22-.005l-1.529-.88-.312.53 1.374.791c.045.026.086.05.12.068l.098.054a.92.92 0 0 0 .701.012l3.753-2.174a.918.918 0 0 0 .354-.691v-4.156Z"/></svg>