<svg width="20" height="20" fill="none" xmlns="http://www.w3.org/2000/svg"><path d="m10 0 6.079 10.046-6.057-2.589L9.999 0Z" fill="#E68F7B"/><path d="M3.936 10.046 10 0l.023 7.457-6.086 2.59Z" fill="#F8EC7C"/><path d="m9.999 13.75-6.063-3.704 6.086-2.589-.023 6.293Z" fill="#6EB87D"/><path d="m16.079 10.046-6.057-2.589-.023 6.293 6.08-3.704Z" fill="#946BA7"/><path d="m10 15.025 6.079-3.604-6.08 8.567v-4.963Z" fill="#697CB9"/><path d="m9.999 15.025-6.063-3.604L10 19.989v-4.963Z" fill="#4FADD0"/><g clip-path="url(#a)"><circle cx="15" cy="15" r="5" fill="#fff"/><path d="M14.992 19.706A4.71 4.71 0 0 0 19.706 15a4.71 4.71 0 0 0-4.714-4.706 4.711 4.711 0 0 0-4.698 4.31h6.231v.792h-6.23a4.711 4.711 0 0 0 4.697 4.31Z" fill="#2151F5"/></g><defs><clipPath id="a"><path fill="#fff" transform="translate(10 10)" d="M0 0h10v10H0z"/></clipPath></defs></svg>