<svg xmlns="http://www.w3.org/2000/svg" width="20" height="20" fill="none"><path fill="#E68F7B" d="m10 0 6.079 10.046-6.057-2.589L9.999 0Z"/><path fill="#F8EC7C" d="M3.936 10.046 10 0l.023 7.457-6.086 2.59Z"/><path fill="#6EB87D" d="m10 13.75-6.064-3.704 6.086-2.589-.023 6.293Z"/><path fill="#946BA7" d="m16.079 10.046-6.057-2.589-.023 6.293 6.08-3.704Z"/><path fill="#697CB9" d="m10 15.025 6.079-3.604-6.08 8.567v-4.963Z"/><path fill="#4FADD0" d="m10 15.025-6.064-3.604L10 19.989v-4.963Z"/><circle cx="15" cy="15" r="5" fill="#131419"/><path fill="#F0B90B" fill-rule="evenodd" d="m13.41 14.348 1.59-1.59 1.59 1.59.925-.924L15 10.909l-2.515 2.515.925.924Zm-1.577-.27-.924.924.924.923.923-.923-.923-.924ZM15 17.244l-1.59-1.59-.925.925L15 19.093l2.515-2.514-.925-.925-1.59 1.59Zm3.168-3.166-.924.924.924.923.923-.923-.924-.924ZM15 14.064l.937.937-.938.938-.937-.938.162-.168.084-.078.692-.691Z" clip-rule="evenodd"/></svg>