<svg xmlns="http://www.w3.org/2000/svg" width="20" height="20" fill="none"><path fill="#E68F7B" d="m10 0 6.079 10.046-6.057-2.589L9.999 0Z"/><path fill="#F8EC7C" d="M3.936 10.046 10 0l.023 7.457-6.086 2.59Z"/><path fill="#6EB87D" d="m9.999 13.75-6.063-3.704 6.086-2.589-.023 6.293Z"/><path fill="#946BA7" d="m16.079 10.046-6.057-2.589-.023 6.293 6.08-3.704Z"/><path fill="#697CB9" d="m10 15.025 6.079-3.604-6.08 8.567v-4.963Z"/><path fill="#4FADD0" d="m9.999 15.025-6.063-3.604L10 19.989v-4.963Z"/><circle cx="15" cy="15" r="5" fill="#121212"/><path fill="#fff" d="M16.19 16.905h-3.095v-3.572h.708v2.88h2.387v.692Zm.239-2.857a.714.714 0 1 0 0-1.429.714.714 0 0 0 0 1.429Z"/></svg>