<svg xmlns="http://www.w3.org/2000/svg" width="21" height="20" fill="none"><circle cx="10" cy="10" r="10" fill="#fff"/><path fill="#0B0E11" d="M15.7 4v2.766h-3.956V8.46H15.7v2.766H8.956V4h6.745Z"/><path fill="#00E98D" d="M11.744 16v-3.078H5V16h6.744Z"/><path fill="#E68F7B" d="m17.031 10 3.04 5.023-3.029-1.294-.01-3.729Z"/><path fill="#F8EC7C" d="M14 15.023 17.031 10l.012 3.729L14 15.023Z"/><path fill="#6EB87D" d="M17.031 16.875 14 15.023l3.043-1.294-.012 3.146Z"/><path fill="#946BA7" d="m20.071 15.023-3.029-1.294-.01 3.146 3.039-1.852Z"/><path fill="#697CB9" d="m17.031 17.513 3.04-1.802-3.04 4.283v-2.481Z"/><path fill="#4FADD0" d="M17.031 17.513 14 15.71l3.031 4.283v-2.481Z"/></svg>