<svg xmlns="http://www.w3.org/2000/svg" width="20" height="20" fill="none"><circle cx="10" cy="10" r="10" fill="#fff"/><path fill="#0B0E11" d="M15.7 4v2.766h-3.956V8.46H15.7v2.766H8.956V4h6.745Z"/><path fill="#00E98D" d="M11.744 16v-3.078H5V16h6.744Z"/><circle cx="15" cy="15" r="5" fill="#131419"/><path fill="#F0B90B" fill-rule="evenodd" d="m13.41 14.348 1.59-1.59 1.59 1.59.925-.924L15 10.909l-2.515 2.515.925.924Zm-1.577-.27-.924.924.924.923.923-.923-.923-.924ZM15 17.244l-1.59-1.59-.925.925L15 19.093l2.515-2.514-.925-.925-1.59 1.59Zm3.167-3.166-.923.924.923.923.924-.923-.924-.924ZM15 14.064l.938.937-.938.938-.937-.938.162-.168.084-.077.691-.692Z" clip-rule="evenodd"/></svg>