<svg xmlns="http://www.w3.org/2000/svg" width="20" height="20" fill="none"><path fill="#F9D549" d="M0 0h20v20H0z"/><path fill="#000" d="M6.766 3.907c-.906.646-1.306 1.013-1.52 1.386-.14.24-.193.267-.88.487-.786.247-1.033.42-1.033.733 0 .487.4 1.527.833 2.18.134.207.8.894 1.52 1.567.707.653 2.034 1.92 2.947 2.807 2.9 2.806 3.92 3.413 5.713 3.406 1.227 0 1.854-.286 2.187-.98.12-.246.147-.38.12-.72-.053-.62-.28-1-.987-1.646-.333-.307-.62-.627-.633-.707-.02-.087-.047-.227-.067-.32-.046-.213-.3-.34-.78-.387-1.386-.133-2.646-1.826-2.493-3.333.073-.72.427-1.16 1.08-1.353.513-.147.56-.24.56-1.134 0-.66-.013-.766-.147-.96-.246-.36-.473-.486-.9-.513-.72-.047-1.153.38-1.153 1.133v.394l-.28-.047c-.753-.127-1.22-.487-1.42-1.113-.207-.62-.607-1.054-1.22-1.327-.473-.207-.58-.173-1.447.447zm1.38.806c.067.067.16.26.22.42.267.754.707 1.22 1.474 1.574.533.24.693.44.693.853a.412.412 0 0 1-.18.373c-.253.2-.573.147-1.02-.16-.407-.28-.613-.3-.833-.073-.347.34-.147.773.76 1.653.533.52.686.774.56.967-.154.253-.247.247-.847-.04-.1-.047.213.44.7 1.087.893 1.193 2.58 2.893 3.64 3.68.233.173.407.32.4.333-.053.053-.787-.213-1.147-.413-.713-.407-1.566-1.134-3.766-3.26a202.332 202.332 0 0 0-2.787-2.64C5.306 8.433 4.98 8.02 4.76 7.48c-.24-.573-.22-.633.193-.767.2-.06.373-.113.4-.113.02 0 .233.24.473.527.487.586.74.726 1.027.586.227-.106.38-.38.327-.586-.027-.087-.254-.407-.514-.714L6.2 5.86l.12-.18c.06-.093.426-.407.813-.687.727-.533.773-.546 1.013-.28zm5.92 8.3c.04.087.38.44.747.794l.673.64.034.386.033.387-.24-.04c-.333-.053-.927-.347-1.32-.66-.373-.293-.66-.8-.66-1.167 0-.393.58-.66.733-.34z"/><path fill="#000" d="M13.5 7.7c-.094.087-.167.207-.167.267 0 .053-.04.1-.094.1-.053 0-.18.073-.28.153-.246.22-.246.54 0 .76.48.407 1.367-.073 1.487-.807.033-.2.007-.266-.167-.44-.26-.253-.553-.266-.78-.033zm.626 1.5a.573.573 0 0 0-.186.247.644.644 0 0 1-.294.286c-.413.194-.42.734-.006.907.593.247 1.36-.307 1.36-.973 0-.4-.514-.674-.874-.467z"/></svg>