<svg width="20" height="20" fill="none" xmlns="http://www.w3.org/2000/svg"><path fill-rule="evenodd" clip-rule="evenodd" d="M10.091 1.407c.142.142.312.149.518.02.207-.13.403-.005.5.317l.075.247.474-.049c.38-.038.5-.023.6.078.158.157.425.16.792.006.316-.132.433-.1.433.12 0 .206.14.267.352.154.261-.14.393-.058.618.386.182.359.222.392.472.392.323 0 .424.183.424.77 0 .393.128.586.427.643.161.03.179.152.109.758-.028.245-.011.272.209.318.132.028.28.077.33.107.16.1.097.519-.148.978l-.238.447.136.613c.176.791.177 2.56.003 3.669-.142.902-.182 1.01-.311.836-.06-.08-.126-.097-.202-.049-.094.06-.059.186.21.757.528 1.122.654 1.508.698 2.143.043.607-.01.73-.213.485-.194-.234-.433-.131-.395.17.008.065-.075.08-.268.048-.239-.039-.285-.022-.322.121-.049.187-.178.215-.328.07-.081-.079-.124-.063-.22.077-.144.213-.667.243-.937.054-.186-.13-.328-.093-.328.085 0 .092-.056.088-.33-.024-.877-.357-1.357-.692-2.212-1.542-1-.994-.822-.976-1.733-.181a27.914 27.914 0 0 1-2.396 1.791c-.453.288-.91.31-.99.05-.08-.254-.19-.295-.446-.162-.241.125-.332.084-.379-.168-.024-.133-.09-.155-.445-.155-.44 0-.47-.024-.604-.467-.052-.17-.117-.231-.243-.227-.094.004-.171-.015-.171-.042 0-.245.292-1.051.513-1.414.28-.462.288-.61.035-.61-.196 0-.22-.086-.394-1.452-.237-1.843-.198-3.163.118-3.996.097-.257.087-.34-.122-1.007-.325-1.038-.3-1.33.122-1.407.11-.02.167-.108.194-.3.035-.24.068-.274.297-.296.142-.013.305.015.364.064.113.093.236-.043.43-.476.052-.117.228-.267.41-.35.279-.128.33-.192.413-.522.116-.46.14-.485.36-.387.235.106.369.048.369-.16 0-.292.137-.355.659-.306.456.042.488.034.65-.171l.17-.216.309.14.31.139.487-.517c.267-.284.528-.517.578-.517.05 0 .143.053.207.117Zm2.498 9.438c0-.48.203-.84.614-1.09.303-.185.696-.186 1.096-.002.373.171.536.344.701.74.14.336.101.645-.118.923l-.145.185.271.098c.25.09.27.12.248.383-.027.318-.24.405-.281.115-.019-.129-.12-.197-.428-.29a4.19 4.19 0 0 0-.636-.141c-.202-.018-.231-.05-.219-.235.018-.26-.056-.267-.681-.056-.258.087-.502.137-.542.112-.106-.065-.091-.251.022-.289.061-.02.097-.188.098-.453Zm-7.192.54c-.172-.637.153-1.336.74-1.592.554-.241 1.16-.063 1.542.452.187.253.267.973.134 1.22-.083.155-.13.165-.543.119-.391-.045-.475-.03-.61.105-.085.086-.297.18-.47.21-.23.038-.321.094-.339.205-.015.098-.225.261-.59.459-.484.262-.574.288-.615.181-.033-.086.051-.208.265-.385.496-.412.588-.596.486-.974Zm3.773.323c-.074-.334.048-.446.583-.537.854-.146 1.632.058 1.632.427 0 .282-.883 1.196-1.155 1.196-.262 0-.984-.74-1.06-1.086Z" fill="#fff"/><path d="M7.343 10.348c0 .124-.207.245-.285.166-.025-.025-.025-.099 0-.165.06-.155.285-.156.285 0ZM14.65 10.341c0 .152-.152.235-.25.137-.043-.044-.056-.118-.027-.164.076-.124.276-.104.276.027ZM17.239 8.206c.582.63 1.37 1.77 1.756 2.543.408.818.742 1.947.62 2.095-.139.167-.39.124-.636-.108l-.226-.214-.118.175c-.125.184-.434.232-.643.1-.078-.05-.173-.037-.291.041-.157.103-.197.101-.37-.012-.149-.097-.22-.107-.302-.04-.113.095-.2-.002-.461-.508-.115-.223-.116-.31-.007-1.01.136-.87.154-2.58.034-3.206a10.14 10.14 0 0 1-.08-.45c0-.098.345.185.724.594ZM9.52 16.045c.23.156.345.178.77.152.47-.029.515-.05.779-.347l.28-.316.26.218c.643.536 1.835.96 2.181.775.08-.043.255-.039.449.01.249.063.372.056.577-.037.262-.118.766-.213.766-.145 0 .02-.158.206-.35.411-.192.206-.35.447-.35.536 0 .189-.25.707-.428.884-.08.08-.197.107-.345.077-.18-.036-.241-.01-.32.139-.188.358-.387.388-.655.098-.203-.218-.221-.214-.672.144-.188.15-.358.22-.505.207-.394-.031-.471.001-.66.277-.235.345-.367.393-.546.2-.165-.177-.343-.142-.4.078-.058.217-.4.192-.72-.053-.193-.147-.32-.19-.461-.155l-.383.094c-.163.04-.228-.013-.479-.39-.291-.44-.417-.512-.841-.486-.206.012-.237-.02-.35-.375-.131-.41-.233-.457-.678-.313-.139.045-.23-.031-.564-.475-.425-.565-.544-.892-.209-.578.17.16.236.172.656.123.491-.057 1.042-.37 2.148-1.22l.466-.359.156.322c.085.177.278.404.427.504ZM3.29 8.586c-.1.754-.019 2.109.202 3.353.127.717.109.753-.688 1.367-.626.481-1.017.593-1.105.316-.035-.11-.093-.132-.252-.095-.387.092-.437.083-.515-.092-.043-.096-.135-.175-.205-.175-.07 0-.185.08-.256.175-.124.168-.127.156-.081-.291.094-.927.797-2.635 1.536-3.731.307-.455 1.373-1.622 1.43-1.565.015.016-.014.348-.066.738Z" fill="#fff"/><path d="M4.275 6.77c-.031.311-.401.467-.583.505l-.427-1.243v-.855l.427-.233.35-.622.66.155.273-.7.621-.31.234-.816h.505l.427-.428.739.117.583-.505.544.194.194-.194.35-.311.31-.234.39-.155.388.155.272-.155.466.155.214.545.72-.117.505.233.466-.116.427-.117.233.505.195-.194h.31l.234.194.35.66h.388l.311.273v.505c.065.246.14.723-.078.66-.271-.077-.388-.97-.621-1.048-.233-.078-.233.038-.505-.117-.273-.156.116-.389-.195-.505-.31-.117-.66.039-.894-.078-.233-.117-.31-.194-.544-.233-.233-.04-.427.272-.505.233-.078-.039-.35-.078-.738-.078-.39 0-.234-.388-.739-.466-.505-.078-1.282.738-1.593.738-.311 0-.778-.272-1.01-.272-.234 0-.273.389-.428.389-.156 0-.35-.194-.544-.117-.195.078-.389.583-.544.7-.156.116-.428.078-.583.194-.156.117 0 .505-.117.66-.117.156-.272 0-.427.156-.156.156 0 .389-.195.467-.194.077-.505.039-.7.233-.194.194-.077 1.205-.116 1.593ZM4.391 15.398c-.194 0-.35-.272-.544-.272l-.35.117.195.155.155.389.389.233.466-.078.117.35.31.194.35-.233.35.35.855-.078.778-.583 1.166-.855.738-.622c.22-.155.637-.49.544-.583-.117-.116-.31-.077-.427-.077-.117 0-1.555 1.088-2.021 1.282-.467.194-1.166.272-1.322.311-.155.039-.388-.155-.505-.155-.117 0-.233.272-.389.272-.155 0-.233-.273-.35-.273-.116 0-.31.156-.505.156ZM8.86 19.051c-.349 0-.893-.544-1.165-.544l.388.622.583.427.428-.233.894.467.466-.35.389.194.388-.272.195-.31h.466l.389-.156.427-.311.622.31.544-.427.622-.155.117-.195.155-.31.078-.428c-.013-.039-.171-.117-.7-.117-.66 0-.816.855-1.05.855-.232 0-.193-.155-.504-.194-.311-.039-.35.389-.467.389-.116 0 0-.117-.233-.117s-.505.622-.7.622c-.194 0-.155-.117-.505-.078-.35.04-.621.506-.816.506-.194 0-.272-.428-.544-.428s-.116.233-.466.233Z" fill="#D5D5D5"/><path d="M9.017 15.515c-1.275 1.337-2.63 1.412-3.148 1.282l.971-.427.66-.39.623-.582.544-.389h.31l.04.506ZM10.92 15.709c.685.84 1.892.868 2.41.777l-.855-.31-.738-.39-.389-.582-.31.155-.117.35Z" fill="#D5D5D5"/><path d="M13.253 15.98c-.218.032-.816-.142-1.088-.232v.233l1.204.427.233-.233.35.156.544.077.35-.31.428.077.155-.194h.466l.156-.311.427.31.156-.232v-.7l-.078-.7-.31-.816-.35-.699.077-.35.272-1.67.117-.895.039-.7-.156-.66-.194-1.283c-.181-.142-.52-.396-.428-.272.117.156.234 2.216.195 2.76-.04.544-.428 1.865-.428 2.137s.117.311.233.7c.117.388.35 2.487.156 2.643-.194.155-.933-.156-1.088 0-.156.155 0 .31-.195.35-.194.038-.272-.04-.427-.04-.156 0 .039.195-.039.272-.078.078-.272-.077-.466-.077-.195 0-.04.194-.311.233ZM2.448 13.066c.218-.062.583-2.358.739-3.498l.116.661.078.7.078.66.078.661.038.466-.155.195-.233.155-.428.35-.31.31-.35.156-.272.04-.272.077-.117-.194-.117-.195-.116.117-.233.078H.777l-.116-.195-.117-.194-.155.194-.234.117H.04L0 13.533l.039-.545c.026-.051.1-.14.194-.077.117.077.195.077.311.077.117 0 .272-.233.428-.233.155 0 .116.311.233.311.116 0 .194-.155.35-.155.155 0 .194.272.272.272.077 0 .233-.272.31-.272.063 0 .234.103.311.155Z" fill="#D5D5D5"/><path d="M16.905 12.289c.032-.342-.272-2.578-.427-3.653l-.389 3.575.7.777.194-.077.389.233.35-.233.388.155.311-.116.195-.156.155.039.272.272h.389l.272-.194-.078-.505-.117-.428-.155-.505-.233-.506-.195-.466-.31-.388c.246.816.691 2.463.505 2.526-.233.077-.622-.467-.816-.467-.195 0-.428.389-.544.389-.117 0-.311-.233-.428-.272-.093-.031-.324-.013-.427 0Z" fill="#D5D5D5"/><path fill-rule="evenodd" clip-rule="evenodd" d="M9.405 1.13a2.892 2.892 0 0 0-.476.447c-.227.27-.26.285-.449.199a.518.518 0 0 0-.674.22c-.078.146-.13.16-.412.11-.5-.09-.698-.056-.876.147a.893.893 0 0 1-.41.24c-.267.059-.475.361-.475.692 0 .144-.072.227-.29.334-.16.078-.372.264-.47.412-.157.234-.217.267-.453.246-.35-.03-.625.152-.692.458-.031.143-.126.274-.231.322-.4.182-.455.788-.152 1.664l.199.577-.775.758a9.648 9.648 0 0 0-2.418 3.893c-.286.877-.43 1.778-.307 1.926.108.13.394.14.516.019.066-.066.122-.054.223.047.096.095.21.123.39.094.169-.028.284-.004.347.072.07.085.186.102.452.065.383-.054.759-.263 1.347-.751.345-.287.526-.326.526-.115 0 .05-.127.35-.282.664-.29.584-.398 1.092-.309 1.446.04.157.098.199.282.199.18 0 .231.034.231.155 0 .257.276.466.615.466.267 0 .313.028.384.234.045.128.12.233.167.233.047 0 .122.102.166.228a.802.802 0 0 0 .267.35c.103.068.255.256.338.42.206.403.352.506.701.492.28-.01.302.004.348.249.075.403.284.546.71.488.34-.047.36-.038.486.2.33.62.739.823 1.136.563.17-.112.198-.106.436.093.26.219.267.22 1.164.156.514-.036.663-.106.866-.404.158-.231.216-.263.417-.227.174.032.325-.016.597-.19.301-.192.379-.213.452-.125.224.27.762.2.995-.13.057-.08.197-.142.316-.142.352 0 .675-.437.824-1.116.027-.123.222-.406.434-.63.211-.224.384-.447.384-.497 0-.049.07-.16.156-.245.127-.127.183-.14.301-.065.372.232.585-.177.532-1.023-.038-.62-.169-1.076-.524-1.824-.12-.255-.202-.493-.18-.529.023-.036.165.062.316.218.192.198.321.27.43.242a.483.483 0 0 1 .329.073c.175.115.428.08.428-.06 0-.046.12-.056.295-.027.162.028.393.013.514-.033.18-.069.264-.055.479.078.207.128.293.144.42.076.11-.06.203-.06.308-.004.105.056.167.056.202 0 .078-.128-.04-.83-.254-1.513-.537-1.716-2.084-3.913-3.198-4.543-.086-.049-.057-.162.147-.577.225-.457.246-.554.185-.844-.064-.3-.18-.424-.515-.545-.032-.011-.017-.151.032-.311.128-.417.004-.65-.407-.76-.313-.084-.32-.094-.272-.352.065-.347-.078-.866-.265-.967a.942.942 0 0 0-.37-.079c-.194 0-.245-.05-.387-.388-.16-.377-.469-.614-.653-.5-.04.024-.18-.046-.31-.155-.281-.237-.394-.244-.813-.054-.308.14-.32.14-.5-.006-.139-.112-.285-.145-.572-.13-.333.018-.394-.002-.447-.146-.098-.263-.419-.434-.711-.377-.294.057-.309.057-.72.003-.231-.03-.369-.001-.541.115Zm.686.277c.142.142.312.149.518.02.207-.13.403-.005.5.317l.075.247.474-.049c.38-.038.5-.023.6.078.158.157.425.16.792.006.316-.132.433-.1.433.12 0 .206.14.267.352.154.261-.14.393-.058.618.386.182.359.222.392.472.392.323 0 .424.183.424.77 0 .393.128.586.427.643.161.03.179.152.109.758-.028.245-.011.272.209.318.132.028.28.077.33.107.16.1.097.519-.148.978l-.238.447.136.613c.176.791.177 2.56.003 3.669-.142.902-.182 1.01-.311.836-.06-.08-.126-.097-.202-.049-.094.06-.059.186.21.757.528 1.122.654 1.508.698 2.143.043.607-.01.73-.213.485-.194-.234-.433-.131-.395.17.008.065-.075.08-.268.048-.239-.039-.285-.022-.322.121-.049.187-.178.215-.328.07-.081-.079-.124-.063-.22.077-.144.213-.667.243-.937.054-.186-.13-.328-.093-.328.085 0 .092-.056.088-.33-.024-.877-.357-1.357-.692-2.212-1.542-1-.994-.822-.976-1.733-.181a27.914 27.914 0 0 1-2.396 1.791c-.453.288-.91.31-.99.05-.08-.254-.19-.295-.446-.162-.241.125-.332.084-.379-.168-.024-.133-.09-.155-.445-.155-.44 0-.47-.024-.604-.467-.052-.17-.117-.231-.243-.227-.094.004-.171-.015-.171-.042 0-.245.292-1.051.513-1.414.28-.462.288-.61.035-.61-.196 0-.22-.086-.394-1.452-.237-1.843-.198-3.163.118-3.996.097-.257.087-.34-.122-1.007-.325-1.038-.3-1.33.122-1.407.11-.02.167-.108.194-.3.035-.24.068-.274.297-.296.142-.013.305.015.364.064.113.093.236-.043.43-.476.052-.117.228-.267.41-.35.279-.128.33-.192.413-.522.116-.46.14-.485.36-.387.235.106.369.048.369-.16 0-.292.137-.355.659-.306.456.042.488.034.65-.171l.17-.216.309.14.31.139.487-.517c.267-.284.528-.517.578-.517.05 0 .143.053.207.117Zm7.148 6.8c.582.629 1.37 1.768 1.756 2.542.408.818.742 1.947.62 2.095-.139.167-.39.124-.636-.108l-.226-.214-.118.175c-.125.184-.434.232-.643.1-.078-.05-.173-.037-.291.041-.157.103-.197.101-.37-.012-.149-.097-.22-.107-.302-.04-.113.095-.2-.002-.461-.508-.115-.223-.116-.31-.007-1.01.136-.87.154-2.58.034-3.206a10.14 10.14 0 0 1-.08-.45c0-.098.345.185.724.594Zm-13.95.38c-.1.753-.018 2.108.203 3.352.127.717.109.753-.688 1.367-.626.481-1.017.593-1.105.316-.035-.11-.093-.132-.252-.095-.387.092-.437.083-.515-.092-.043-.096-.135-.175-.205-.175-.07 0-.185.08-.256.175-.124.168-.127.156-.081-.291.094-.927.797-2.635 1.536-3.731.307-.455 1.373-1.622 1.43-1.565.015.016-.014.348-.066.738Zm9.914 1.168c-.41.25-.614.61-.614 1.09 0 .265-.037.433-.098.453-.113.038-.128.224-.022.289.04.025.284-.025.542-.112.625-.21.7-.205.681.056-.012.185.017.217.219.235.128.011.415.075.636.142.309.092.41.16.428.29.041.29.254.202.28-.116.023-.263.004-.293-.247-.383l-.27-.098.144-.185c.22-.278.259-.587.118-.923-.165-.396-.328-.569-.7-.74-.402-.184-.794-.183-1.097.002Zm-7.066.038c-.587.256-.912.955-.74 1.592.102.378.01.562-.486.974-.214.177-.298.3-.265.385.041.107.131.08.615-.181.365-.198.575-.36.59-.46.018-.11.11-.166.339-.205.173-.03.385-.123.47-.21.135-.134.219-.149.61-.104.413.046.46.036.543-.119.133-.247.053-.967-.134-1.22-.382-.515-.989-.693-1.542-.452Zm1.206.555c0 .124-.207.245-.285.166-.025-.025-.025-.099 0-.165.06-.155.285-.156.285 0Zm7.306-.007c0 .152-.15.235-.249.137-.043-.044-.056-.118-.027-.164.076-.124.276-.104.276.027Zm-4.896.83c-.535.091-.657.203-.583.537.076.347.798 1.086 1.06 1.086.272 0 1.155-.914 1.155-1.196 0-.37-.778-.573-1.632-.427Zm.215 3.916c.048.395.08.466.212.466.135 0 .16-.065.194-.494l.039-.495.26.323c.247.31.253.332.135.512-.324.495-1.278.318-1.391-.258-.032-.162.014-.268.205-.467.152-.159.255-.218.268-.155.01.056.046.312.078.568Zm-.449.958c.232.156.346.178.77.152.47-.029.516-.05.78-.347l.28-.316.26.218c.643.536 1.835.96 2.181.775.08-.043.255-.039.449.01.249.063.372.056.577-.037.262-.118.766-.213.766-.145 0 .02-.158.206-.35.411-.192.206-.35.447-.35.536 0 .189-.25.707-.428.884-.08.08-.197.107-.345.077-.18-.036-.241-.01-.32.139-.188.358-.387.388-.655.098-.203-.218-.221-.214-.672.144-.188.15-.358.22-.505.207-.394-.031-.471.001-.66.277-.235.345-.367.393-.546.2-.165-.177-.343-.142-.4.078-.058.217-.4.192-.72-.053-.193-.147-.32-.19-.461-.155l-.383.094c-.163.04-.228-.013-.479-.39-.291-.44-.417-.512-.841-.486-.206.012-.237-.02-.35-.375-.131-.41-.233-.457-.678-.313-.139.045-.23-.031-.564-.475-.425-.565-.544-.892-.209-.578.17.16.236.172.656.123.491-.057 1.042-.37 2.148-1.22l.466-.359.156.322c.085.177.278.404.427.504Z" fill="#000"/><path d="M9.967 15.087c.05.395.082.466.213.466.135 0 .16-.065.194-.494l.039-.495.26.323c.247.31.253.332.135.512-.325.495-1.278.318-1.392-.258-.031-.162.015-.268.206-.467.152-.159.255-.218.267-.155.012.056.047.312.078.568Z" fill="#FF8C8D"/><ellipse rx=".311" ry=".7" transform="rotate(28.585 -7.627 15.604)" fill="#F0F0F0"/><ellipse cx="5.684" cy="8.685" rx=".311" ry="1.018" transform="rotate(56.524 5.684 8.685)" fill="#F0F0F0"/><ellipse rx=".311" ry="1.018" transform="rotate(106.415 -2.306 9.436)" fill="#F0F0F0"/><ellipse cx="13.056" cy="14.08" rx=".311" ry="1.018" transform="rotate(106.415 13.056 14.08)" fill="#F0F0F0"/><ellipse rx=".396" ry=".91" transform="rotate(106.415 3.954 9.514)" fill="#F0F0F0"/><ellipse rx=".396" ry=".763" transform="rotate(149.869 6.464 4.726)" fill="#F0F0F0"/><ellipse cx="11.601" cy="3.81" rx=".396" ry=".763" transform="rotate(91.857 11.6 3.81)" fill="#F0F0F0"/><ellipse cx="9.813" cy="4.276" rx=".396" ry=".763" transform="rotate(91.857 9.813 4.276)" fill="#F0F0F0"/><ellipse rx=".266" ry=".513" transform="rotate(91.857 -1.305 9.746)" fill="#F0F0F0"/></svg>