<svg xmlns="http://www.w3.org/2000/svg" width="20" height="20" fill="none"><path fill="#EC1966" d="m19.257 4.531-.085-.044a.671.671 0 0 0-.081-.051L10.946.26a1.927 1.927 0 0 0-.258-.106A1.594 1.594 0 0 0 9.983 0a1.588 1.588 0 0 0-.7.17L4.115 2.81.9 4.441a.717.717 0 0 0-.098.062l-.053.028c-.22.113-.403.275-.53.47a1.173 1.173 0 0 0-.194.642v8.565c0 .27.08.536.233.77.153.235.372.43.636.564l8.388 4.286a1.59 1.59 0 0 0 1.442 0l8.533-4.36c.22-.112.403-.274.53-.469.127-.195.194-.417.194-.642V5.643c0-.225-.067-.447-.195-.642a1.378 1.378 0 0 0-.53-.47Z"/><g opacity=".1"><path fill="#000" d="m.002 5.835.091 8.35c.003.278.087.55.244.791.157.24.382.44.653.58l8.132 4.167a.67.67 0 0 0 .612 0 .579.579 0 0 0 .223-.201.494.494 0 0 0 .08-.273l-.098-8.94a.495.495 0 0 0-.083-.269.58.58 0 0 0-.222-.196L.897 5.367a.647.647 0 0 0-.721.084.534.534 0 0 0-.13.173A.482.482 0 0 0 0 5.83v.005"/><mask id="a" width="11" height="15" x="0" y="5" maskUnits="userSpaceOnUse" style="mask-type:luminance"><path fill="#fff" d="m.002 5.835.091 8.35c.003.278.087.55.244.791.157.24.382.44.653.58l8.132 4.167a.67.67 0 0 0 .612 0 .579.579 0 0 0 .223-.201.494.494 0 0 0 .08-.273l-.098-8.94a.495.495 0 0 0-.083-.269.58.58 0 0 0-.222-.196L.897 5.367a.647.647 0 0 0-.721.084.534.534 0 0 0-.13.173A.482.482 0 0 0 0 5.83v.005"/></mask><g mask="url(#a)"><path fill="#000" d="m7.498 1.407-14.675 7.6 9.728 14.807 14.675-7.6L7.498 1.407Z"/></g></g><g opacity=".2"><path fill="#000" d="M19.098 5.357 10.25 9.843a.582.582 0 0 0-.227.2.496.496 0 0 0-.081.276l.098 8.952c0 .095.03.188.084.27.053.081.13.149.223.196a.671.671 0 0 0 .608-.002l8.144-4.173c.274-.14.502-.342.66-.585.158-.243.24-.519.24-.8V5.82a.473.473 0 0 0-.039-.203.523.523 0 0 0-.124-.173.598.598 0 0 0-.19-.117.656.656 0 0 0-.543.03"/><mask id="b" width="11" height="15" x="9" y="5" maskUnits="userSpaceOnUse" style="mask-type:luminance"><path fill="#fff" d="M19.098 5.357 10.25 9.843a.582.582 0 0 0-.227.2.496.496 0 0 0-.081.276l.098 8.952c0 .095.03.188.084.27.053.081.13.149.223.196a.671.671 0 0 0 .608-.002l8.144-4.173c.274-.14.502-.342.66-.585.158-.243.24-.519.24-.8V5.82a.473.473 0 0 0-.039-.203.523.523 0 0 0-.124-.173.598.598 0 0 0-.19-.117.656.656 0 0 0-.543.03"/></mask><g mask="url(#b)"><path fill="#000" d="M18.634 2.219 4.29 7.263l7.015 15.725 14.344-5.044-7.016-15.725Z"/></g></g><path fill="#fff" d="M14.293 15.278a.448.448 0 0 1-.296-.108.354.354 0 0 1-.124-.262l-.022-3.583c0-.076.025-.15.074-.213a.415.415 0 0 1 .197-.137.47.47 0 0 1 .25-.013c.084.019.158.06.214.117l1.608 1.64-.01-2.465a.35.35 0 0 1 .123-.263.448.448 0 0 1 .296-.11h.001c.111 0 .218.039.296.108.08.07.123.164.124.263l.012 3.464a.344.344 0 0 1-.073.213.415.415 0 0 1-.198.137.47.47 0 0 1-.25.013.43.43 0 0 1-.213-.117l-1.606-1.638.016 2.58a.352.352 0 0 1-.121.264.447.447 0 0 1-.296.11h-.002Zm-3.777-8.951a2.87 2.87 0 0 1-.986-.174.338.338 0 0 1-.047-.02L6.671 4.71a.374.374 0 0 1-.192-.22.328.328 0 0 1 .039-.276.406.406 0 0 1 .247-.17.455.455 0 0 1 .311.034l2.789 1.41c.212.076.44.114.669.11.663 0 1.16-.287 1.17-.547a.4.4 0 0 0-.068-.189.464.464 0 0 0-.155-.142.426.426 0 0 1-.045-.021l-.125-.064-2.255-1.157a.399.399 0 0 1-.12-.093.35.35 0 0 1-.071-.128.324.324 0 0 1 .04-.276.381.381 0 0 1 .106-.106.433.433 0 0 1 .303-.072.446.446 0 0 1 .152.045l2.342 1.202.04.016c.194.095.36.233.478.4s.186.359.198.556v.02c0 .72-.873 1.285-1.987 1.285h-.021Zm-7.25 8.923a.493.493 0 0 1-.326-.12.389.389 0 0 1-.136-.29l-.016-4.653a.38.38 0 0 1 .061-.205.439.439 0 0 1 .168-.15.507.507 0 0 1 .46-.003l3.548 1.78c.054.025.1.06.139.103a.396.396 0 0 1 .082.143.366.366 0 0 1-.042.313.43.43 0 0 1-.119.122.488.488 0 0 1-.342.083.5.5 0 0 1-.172-.051L3.714 10.89l.006 1.527 2.652 1.296c.09.044.16.114.202.197.04.084.048.177.023.265a.41.41 0 0 1-.165.222.5.5 0 0 1-.505.035l-2.204-1.077.006 1.483a.388.388 0 0 1-.135.29.493.493 0 0 1-.326.121h-.002Z"/></svg>