<svg xmlns="http://www.w3.org/2000/svg" width="20" height="20" fill="none"><circle cx="10" cy="10" r="10" fill="url(#a)"/><ellipse cx="9.956" cy="9.912" fill="url(#b)" rx="8.289" ry="8.246"/><path fill="url(#c)" fill-rule="evenodd" d="M10 17.105A7.193 7.193 0 1 0 10 2.72a7.193 7.193 0 0 0 0 14.386Zm0 .263a7.456 7.456 0 1 0 0-14.912 7.456 7.456 0 0 0 0 14.912Z" clip-rule="evenodd" opacity=".5"/><path fill="url(#d)" d="M17.193 9.912a7.193 7.193 0 1 1-14.386 0 7.193 7.193 0 0 1 14.386 0Z" opacity=".5"/><circle cx="10" cy="9.912" r="5.64" stroke="#000" opacity=".5"/><circle cx="10" cy="9.912" r="6.14" fill="url(#e)"/><path fill="#601F62" fill-rule="evenodd" d="m16.135 10.18-.263-.01a5.918 5.918 0 0 0 0-.515l.263-.01a6.277 6.277 0 0 1 0 .535Zm-.046-1.07-.261.034a5.902 5.902 0 0 0-.089-.505l.257-.056c.039.173.07.349.093.527Zm-.231-1.045a6.07 6.07 0 0 0-.183-.503l-.244.1c.066.158.124.319.176.482l.25-.079Zm-.41-.989-.233.122c-.08-.152-.165-.3-.257-.444l.222-.141c.095.15.185.305.268.463Zm-.576-.902-.209.16a5.917 5.917 0 0 0-.33-.392l.194-.178c.121.131.236.268.345.41Zm-.723-.789-.178.194a5.89 5.89 0 0 0-.393-.33l.16-.208c.142.108.279.223.41.344Zm-.85-.652-.14.222a5.88 5.88 0 0 0-.445-.257l.122-.233c.159.082.314.172.464.268Zm-.948-.495-.101.243a5.836 5.836 0 0 0-.482-.175l.08-.251c.17.053.338.115.503.183Zm-1.021-.322-.057.257a5.86 5.86 0 0 0-.505-.088l.034-.261c.179.023.355.054.528.092Zm-1.062-.138-.011.263a5.976 5.976 0 0 0-.514 0l-.01-.263a6.244 6.244 0 0 1 .535 0Zm-1.07.046.034.26c-.17.023-.339.053-.505.09l-.056-.258c.173-.038.349-.069.527-.092Zm-1.045.23.08.252c-.165.051-.325.11-.482.175l-.101-.243c.164-.068.332-.13.503-.183Zm-.989.41.122.234c-.152.08-.3.165-.444.257l-.141-.222a5.92 5.92 0 0 1 .463-.268Zm-.902.577a6.175 6.175 0 0 0-.41.344l.178.194a5.91 5.91 0 0 1 .392-.33l-.16-.208Zm-.789.723.194.178a5.907 5.907 0 0 0-.33.392l-.209-.16c.11-.142.224-.279.345-.41Zm-.652.849.222.141a5.874 5.874 0 0 0-.257.444l-.233-.122a5.92 5.92 0 0 1 .268-.463Zm-.495.949.243.1a5.83 5.83 0 0 0-.175.482l-.251-.079c.053-.17.115-.339.183-.503Zm-.322 1.02.257.057a5.856 5.856 0 0 0-.088.505l-.261-.034a6.12 6.12 0 0 1 .092-.527Zm-.138 1.062a6.244 6.244 0 0 0 0 .536l.263-.01a5.982 5.982 0 0 1 0-.515l-.263-.01Zm.046 1.07.26-.034c.023.171.053.34.09.505l-.258.057a6.126 6.126 0 0 1-.092-.528Zm.23 1.045.252-.079c.051.164.11.325.175.482l-.243.1a6.097 6.097 0 0 1-.183-.503Zm.41.99.234-.123c.08.152.165.3.257.444l-.222.142a6.117 6.117 0 0 1-.268-.464Zm.576.901.21-.16c.103.136.213.267.329.393l-.194.178a6.167 6.167 0 0 1-.345-.41Zm.724.79.178-.194c.126.115.257.225.392.33l-.16.208a6.174 6.174 0 0 1-.41-.345Zm.849.652.141-.222c.144.092.292.177.444.257l-.122.233a6.132 6.132 0 0 1-.463-.268Zm.949.495.1-.243c.158.065.319.123.482.175l-.079.251a6.142 6.142 0 0 1-.503-.183Zm1.02.321.057-.257c.166.037.335.066.505.089l-.034.26a6.147 6.147 0 0 1-.527-.092Zm1.062.139.011-.263a6.078 6.078 0 0 0 .514 0l.011.263a6.278 6.278 0 0 1-.536 0Zm1.07-.046-.034-.261c.17-.023.34-.052.505-.089l.057.257c-.173.039-.35.07-.528.093Zm1.045-.231-.079-.251c.164-.052.325-.11.482-.175l.1.243a6.144 6.144 0 0 1-.503.183Zm.99-.41-.123-.233c.152-.08.3-.165.444-.257l.142.222c-.15.096-.305.185-.464.268Zm.901-.576-.16-.209c.136-.104.267-.214.393-.33l.178.195c-.132.12-.269.235-.41.344Zm.79-.723-.195-.178c.116-.126.226-.257.33-.393l.209.16a6.198 6.198 0 0 1-.345.41Zm.652-.85-.222-.14c.092-.145.177-.293.257-.445l.233.122a6.118 6.118 0 0 1-.268.464Zm.495-.948-.244-.101c.066-.157.124-.318.176-.482l.25.08c-.053.17-.114.338-.182.503Zm.321-1.021-.257-.057c.037-.166.066-.334.089-.505l.26.034a6.114 6.114 0 0 1-.092.528Z" clip-rule="evenodd"/><path fill="#000" fill-rule="evenodd" d="M10.035 4.986c-.267.114-.62.464-.771.768-.144.286-.25.777-.25 1.159 0 .12-.025.232-.056.25-.03.018-.137-.028-.238-.103-.16-.12-.188-.126-.217-.053-.05.129.023.682.113.852.044.083.08.161.08.173 0 .011-.14.105-.311.209-.601.362-1.11 1.03-1.328 1.741-.083.273-.095.286-.282.301-.194.016-.196.018-.196.248 0 .222.006.23.146.217.129-.013.147.004.162.153.015.157.005.168-.146.168-.156 0-.162.008-.162.23 0 .227.002.23.195.246.183.015.2.03.257.249.138.522.373.913.8 1.332.722.708 1.472.997 2.587.997.974 0 1.85-.261 2.346-.7l.219-.192v-2.938h-2.647v1.239l.622.014.622.015.015.472c.015.454.01.474-.118.556-.235.151-.812.253-1.273.225-.725-.044-1.284-.34-1.617-.859-.223-.346-.208-.411.096-.43l.251-.016.016-.217.016-.218-.333-.015c-.317-.015-.334-.022-.334-.145 0-.12.021-.131.318-.155l.317-.026.016-.22.017-.22h-.268c-.155 0-.268-.023-.268-.056 0-.124.29-.526.537-.743.353-.31.73-.443 1.26-.443.537 0 .98.134 1.355.411l.29.215.476-.429c.261-.235.475-.456.475-.49 0-.106-.486-.473-.86-.65-.324-.155-.354-.182-.326-.3.017-.07.043-.228.058-.348l.027-.22-.16.031-.159.031.029-.408c.025-.354.013-.44-.088-.633l-.117-.224-.17.161c-.46.435-.878-.02-.81-.883.018-.222.015-.404-.006-.403a1.244 1.244 0 0 0-.207.074Z" clip-rule="evenodd"/><path fill="url(#f)" fill-rule="evenodd" d="M9.86 4.81c-.268.114-.62.465-.772.768-.143.287-.25.777-.25 1.16 0 .119-.025.231-.055.25-.03.018-.138-.029-.24-.104-.158-.119-.187-.126-.216-.052-.05.128.023.681.113.852.044.083.08.16.08.172 0 .012-.14.106-.311.21-.601.362-1.11 1.03-1.327 1.74-.084.274-.096.286-.283.302-.194.015-.196.018-.196.247 0 .222.007.231.146.217.13-.013.147.004.162.154.015.156.005.168-.146.168-.156 0-.162.008-.162.23 0 .227.002.23.196.245.183.015.199.031.256.25.138.522.373.913.8 1.332.722.707 1.472.996 2.587.996.974 0 1.851-.261 2.346-.699l.219-.193v-2.938H10.16v1.24l.622.014.621.014.015.472c.015.454.01.475-.117.557-.236.15-.813.252-1.274.225-.725-.044-1.284-.341-1.617-.86-.222-.346-.208-.41.096-.43l.251-.015.016-.218.017-.217-.334-.016c-.316-.014-.334-.022-.334-.144 0-.121.021-.132.318-.156l.317-.026.017-.22.016-.22h-.268c-.155 0-.267-.023-.267-.055 0-.125.29-.527.536-.743.353-.311.73-.444 1.26-.444.537 0 .98.135 1.355.412l.29.214.476-.428c.261-.236.475-.457.475-.49 0-.106-.486-.474-.86-.651-.324-.154-.354-.181-.326-.299a4.13 4.13 0 0 0 .058-.349l.027-.22-.16.032-.159.03.03-.408c.024-.354.012-.439-.09-.633l-.116-.224-.17.162c-.46.435-.877-.02-.81-.883.018-.223.015-.404-.005-.403a1.244 1.244 0 0 0-.208.074Z" clip-rule="evenodd"/><defs><linearGradient id="a" x1="10" x2="10" y1="0" y2="20" gradientUnits="userSpaceOnUse"><stop stop-color="#CDA74F"/><stop offset=".471" stop-color="#E3CA7C"/><stop offset=".804" stop-color="#CEAA54"/><stop offset="1" stop-color="#815320"/></linearGradient><linearGradient id="b" x1="4.079" x2="15.614" y1="4.298" y2="15.921" gradientUnits="userSpaceOnUse"><stop stop-color="#642565"/><stop offset=".146" stop-color="#D9D4DC"/><stop offset=".321" stop-color="#C95E7D"/><stop offset=".455" stop-color="#632062"/><stop offset=".709" stop-color="#BD4E7D"/><stop offset="1" stop-color="#601F61"/></linearGradient><linearGradient id="c" x1="6.14" x2="10" y1="3.553" y2="17.368" gradientUnits="userSpaceOnUse"><stop stop-color="#FBF9F7"/><stop offset=".114" stop-color="#F0C812"/><stop offset="1" stop-color="#B27523"/></linearGradient><linearGradient id="d" x1="6.14" x2="14.211" y1="3.553" y2="16.096" gradientUnits="userSpaceOnUse"><stop stop-color="#601F62"/><stop offset=".227" stop-color="#C25278"/><stop offset=".414" stop-color="#6F2765"/><stop offset=".694" stop-color="#C15179"/><stop offset="1" stop-color="#601F62"/></linearGradient><linearGradient id="e" x1="6.579" x2="13.991" y1="4.825" y2="14.079" gradientUnits="userSpaceOnUse"><stop stop-color="#C85677"/><stop offset="1" stop-color="#692565"/></linearGradient><linearGradient id="f" x1="8.64" x2="12.017" y1="6.096" y2="12.939" gradientUnits="userSpaceOnUse"><stop stop-color="#DEAE0A"/><stop offset="1" stop-color="#F0C80F"/></linearGradient></defs></svg>