<svg xmlns="http://www.w3.org/2000/svg" fill="#34B8BB" viewBox="0 0 319.4 319.9"><path d="M288.3.3c17.6.3 31.3 14.6 31.1 32.6-.2 17.6-14.4 31.4-32.4 31.2-17.8-.2-31.6-14.3-31.5-32.2C255.7 13.8 270 0 288.3.3zm-26.3 82c16.4 21.6 26.1 48.5 26.1 77.6 0 70.9-57.5 128.4-128.4 128.4-29.2 0-56.1-9.7-77.6-26.1l34.7-34.7c12.4 7.9 27.1 12.5 42.9 12.5 44.2 0 80-35.8 80-80 0-15.8-4.6-30.5-12.5-42.9L262 82.3zm-102.3-2.4c-44.2 0-80 35.8-80 80 0 15.2 4.2 29.4 11.5 41.4l-34.8 34.8c-15.8-21.3-25.1-47.7-25.1-76.3C31.3 89 88.8 31.6 159.7 31.6c28.5 0 54.9 9.3 76.3 25.1l-34.8 34.8c-12.1-7.3-26.3-11.6-41.5-11.6zM32.2 255.8c17.8.1 31.7 14.1 31.6 32-.1 17.9-14 31.8-31.9 31.8-18.1 0-32.2-14.2-32-32.4.3-17.7 14.4-31.5 32.3-31.4z" class="st0"/></svg>