<svg xmlns="http://www.w3.org/2000/svg" width="21" height="20" fill="none"><circle cx="10" cy="10" r="10" fill="#1EEFA4"/><path fill="#000" d="M10.828 12.044a.89.89 0 0 1 .89-.889h.357a.89.89 0 0 1 .89.89v.355a.89.89 0 0 1-.89.889h-.357a.89.89 0 0 1-.89-.89v-.355Zm.89-4.088a.89.89 0 0 0-.89.889V9.2a.89.89 0 0 0 .89.889h.357a.89.89 0 0 0 .89-.89v-.354a.89.89 0 0 0-.89-.89h-.357Z"/><path fill="#000" fill-rule="evenodd" d="M7.623 4.223a3.558 3.558 0 0 0-3.56 3.555v4.444a3.558 3.558 0 0 0 3.56 3.555h4.452a3.558 3.558 0 0 0 3.56-3.555V7.778a3.558 3.558 0 0 0-3.56-3.555H7.622Zm4.452 1.422H7.623c-1.18 0-2.136.955-2.136 2.133v4.444c0 1.178.956 2.133 2.136 2.133h4.452c1.18 0 2.136-.955 2.136-2.133V7.778a2.135 2.135 0 0 0-2.136-2.133Z" clip-rule="evenodd"/><path fill="#E68F7B" d="m17.031 10 3.04 5.023-3.029-1.294-.01-3.729Z"/><path fill="#F8EC7C" d="M14 15.023 17.031 10l.012 3.729L14 15.023Z"/><path fill="#6EB87D" d="M17.031 16.875 14 15.023l3.043-1.294-.012 3.146Z"/><path fill="#946BA7" d="m20.071 15.023-3.029-1.294-.01 3.146 3.039-1.852Z"/><path fill="#697CB9" d="m17.031 17.513 3.04-1.802-3.04 4.283v-2.481Z"/><path fill="#4FADD0" d="M17.031 17.513 14 15.71l3.031 4.283v-2.481Z"/></svg>