<svg xmlns="http://www.w3.org/2000/svg" width="20" height="20" fill="none"><circle cx="10" cy="10" r="10" fill="#1EEFA4"/><path fill="#000" d="M10.828 12.044a.89.89 0 0 1 .89-.889h.357a.89.89 0 0 1 .89.89v.355a.89.89 0 0 1-.89.889h-.357a.89.89 0 0 1-.89-.89v-.355Zm.89-4.088a.89.89 0 0 0-.89.889V9.2a.89.89 0 0 0 .89.889h.357a.89.89 0 0 0 .89-.89v-.354a.89.89 0 0 0-.89-.89h-.357Z"/><path fill="#000" fill-rule="evenodd" d="M7.623 4.223a3.558 3.558 0 0 0-3.56 3.555v4.444a3.558 3.558 0 0 0 3.56 3.555h4.452a3.558 3.558 0 0 0 3.56-3.555V7.778a3.558 3.558 0 0 0-3.56-3.555H7.622Zm4.452 1.422H7.623c-1.18 0-2.136.955-2.136 2.133v4.444c0 1.178.956 2.133 2.136 2.133h4.452c1.18 0 2.136-.955 2.136-2.133V7.778a2.135 2.135 0 0 0-2.136-2.133Z" clip-rule="evenodd"/><circle cx="15" cy="15" r="5" fill="#131419"/><path fill="#F0B90B" fill-rule="evenodd" d="m13.41 14.348 1.59-1.59 1.59 1.59.925-.924L15 10.909l-2.515 2.515.925.924Zm-1.577-.27-.924.924.924.923.923-.923-.923-.924ZM15 17.244l-1.59-1.59-.925.925L15 19.093l2.515-2.514-.925-.925-1.59 1.59Zm3.167-3.166-.923.924.923.923.924-.923-.924-.924ZM15 14.064l.938.937-.938.938-.937-.938.162-.168.084-.077.691-.692Z" clip-rule="evenodd"/></svg>