<svg width="20" height="20" fill="none" xmlns="http://www.w3.org/2000/svg"><g clip-path="url(#a)" fill-rule="evenodd" clip-rule="evenodd"><path d="M20 10c0 5.523-4.477 10-10 10S0 15.523 0 10 4.477 0 10 0s10 4.477 10 10Z" fill="url(#b)"/><path d="M7.817 19.047c.052-.06.073-.147.114-.32l.055-.227c.041-.175.062-.262.046-.334a.308.308 0 0 0-.094-.165c-.054-.05-.145-.078-.328-.134a8.256 8.256 0 0 1-1.446-.597c-.168-.089-.252-.133-.325-.136a.309.309 0 0 0-.184.05c-.062.04-.108.116-.202.269l-.122.198c-.094.153-.14.229-.146.308a.33.33 0 0 0 .053.198c.045.066.12.107.269.187a9.539 9.539 0 0 0 1.811.748c.162.049.244.073.322.057a.331.331 0 0 0 .177-.102Zm6.997-16.894c-.005.08-.052.156-.145.308l-.122.198c-.094.153-.14.23-.203.269a.308.308 0 0 1-.183.05c-.074-.003-.158-.048-.326-.137a8.261 8.261 0 0 0-1.445-.6c-.182-.056-.273-.084-.327-.135a.308.308 0 0 1-.094-.164c-.016-.072.005-.16.047-.333l.054-.227c.041-.174.062-.261.115-.32a.33.33 0 0 1 .177-.103c.078-.016.16.009.322.057a9.537 9.537 0 0 1 1.81.752c.149.081.223.121.268.188a.33.33 0 0 1 .052.197Zm0 15.804c-.005-.08-.051-.155-.145-.308l-.122-.198c-.094-.153-.14-.23-.203-.269a.308.308 0 0 0-.183-.05c-.074.003-.158.048-.326.137a8.253 8.253 0 0 1-1.445.6c-.182.056-.273.084-.327.135a.307.307 0 0 0-.094.165c-.016.071.005.158.047.332l.054.227c.041.174.062.261.115.321.044.05.11.089.177.102.078.016.16-.009.322-.057a9.533 9.533 0 0 0 1.81-.752c.149-.08.223-.121.268-.188a.33.33 0 0 0 .052-.197ZM7.817 1.063c.052.06.073.147.115.32l.054.227c.041.175.062.262.046.334a.307.307 0 0 1-.094.165c-.054.05-.145.078-.327.134a8.27 8.27 0 0 0-1.447.597c-.168.089-.252.133-.325.136a.308.308 0 0 1-.184-.05c-.062-.04-.108-.116-.202-.269L5.33 2.46c-.094-.153-.14-.229-.146-.308a.33.33 0 0 1 .053-.198c.045-.066.12-.107.269-.187a9.533 9.533 0 0 1 1.811-.748C7.481.97 7.562.945 7.64.96a.33.33 0 0 1 .177.102Zm-5.411 13.66c-.152.094-.228.141-.308.146a.33.33 0 0 1-.197-.053c-.066-.044-.107-.118-.188-.267a9.534 9.534 0 0 1-.751-1.81c-.05-.163-.074-.244-.058-.322a.33.33 0 0 1 .102-.178c.06-.052.147-.073.321-.115l.227-.054c.174-.041.26-.062.333-.046a.308.308 0 0 1 .165.094c.05.054.078.145.134.326a8.278 8.278 0 0 0 .6 1.445c.09.169.134.253.137.326a.308.308 0 0 1-.05.184c-.04.062-.116.109-.269.203l-.198.122Zm16.266-6.737c.173-.041.26-.062.32-.114a.33.33 0 0 0 .102-.177c.016-.078-.008-.16-.057-.322a9.512 9.512 0 0 0-.748-1.811c-.08-.15-.12-.225-.187-.269a.33.33 0 0 0-.197-.053c-.08.005-.156.052-.308.145l-.2.123c-.152.093-.228.14-.267.202a.308.308 0 0 0-.05.183c.002.074.047.158.135.326a8.295 8.295 0 0 1 .598 1.446c.055.182.083.273.133.327.046.05.1.08.165.095.072.016.16-.005.334-.047l.227-.054ZM1.009 7.872c.06.052.146.073.32.114l.226.054c.175.042.262.063.334.047a.308.308 0 0 0 .165-.095c.05-.054.078-.145.134-.327a8.263 8.263 0 0 1 .597-1.446c.089-.168.133-.252.136-.326a.308.308 0 0 0-.05-.183c-.04-.062-.116-.109-.268-.202l-.2-.123c-.151-.093-.228-.14-.307-.145a.33.33 0 0 0-.198.053c-.066.044-.106.119-.187.269a9.537 9.537 0 0 0-.748 1.81c-.048.163-.072.245-.057.323a.33.33 0 0 0 .103.177Zm16.893 6.997c-.08-.005-.155-.052-.307-.145l-.199-.122c-.153-.094-.229-.141-.269-.203a.308.308 0 0 1-.05-.184c.003-.073.048-.157.137-.326a8.267 8.267 0 0 0 .6-1.445c.057-.181.085-.272.135-.326a.308.308 0 0 1 .165-.094c.072-.016.159.005.333.046l.227.054c.173.042.26.063.32.115.05.045.09.111.102.178.016.078-.008.16-.057.322a9.562 9.562 0 0 1-.752 1.81c-.08.149-.121.223-.187.267a.33.33 0 0 1-.198.053ZM3.76 9.82c-.32-1.394-.479-2.09-.11-2.335.37-.245.95.174 2.108 1.011l1.147.83c.067.048.101.073.136.065.035-.007.056-.044.097-.116l1.75-3.076c.493-.868.74-1.302 1.112-1.302.372 0 .62.434 1.113 1.302l1.75 3.076c.04.072.061.109.096.116.035.008.069-.017.136-.065l1.147-.83c1.159-.837 1.738-1.256 2.108-1.011.369.244.21.941-.11 2.334l-.631 2.755c-.074.32-.11.48-.23.55-.12.07-.282.022-.606-.074A16.806 16.806 0 0 0 10 12.363c-1.613 0-3.226.23-4.773.688-.324.095-.487.143-.606.073-.12-.07-.156-.23-.23-.55l-.63-2.755ZM5.3 12.197c-.077.02-.115.031-.144.014-.03-.018-.039-.056-.056-.133l-.75-3.267c-.039-.175-.059-.262-.013-.292.046-.03.119.021.264.126l1.935 1.4c.056.04.083.06.09.09.006.03-.01.059-.044.118l-1.04 1.829a.172.172 0 0 1-.038.053.172.172 0 0 1-.06.023c-.049.012-.096.025-.144.039Zm2.15-1.492c-.068-.05-.102-.074-.137-.066-.035.008-.055.044-.096.116l-.476.836c-.074.13-.11.195-.082.237.03.041.104.028.253.002.407-.072.86-.137 1.348-.186.183-.019.274-.028.289-.081.014-.054-.06-.107-.208-.214l-.891-.644Zm4.211.644c-.148.107-.222.16-.207.214.014.053.105.062.288.08.488.05.941.115 1.348.187.15.026.223.04.253-.002.029-.042-.008-.107-.082-.237l-.476-.836c-.04-.072-.061-.108-.096-.116-.035-.008-.069.017-.136.066l-.892.644Zm.567-1.573c.034.06.051.089.044.119-.006.03-.034.05-.089.09l-1.528 1.104c-.111.08-.167.12-.21.098-.044-.022-.044-.09-.044-.227V7.169c0-.243 0-.364.06-.38.06-.015.12.09.24.301l1.527 2.687Zm1.238.269c-.056.04-.083.06-.09.09-.006.03.01.059.044.118l1.04 1.829c.017.029.025.043.038.053.012.01.029.014.06.023.049.012.096.025.144.039.077.02.115.031.145.014.029-.018.038-.056.056-.133l.748-3.267c.04-.175.06-.262.014-.292-.046-.03-.119.021-.263.126l-1.936 1.4ZM9.6 10.96c0 .137 0 .205-.044.227-.043.023-.099-.018-.21-.098L7.818 9.986c-.055-.04-.083-.06-.09-.09-.006-.03.011-.06.045-.12L9.3 7.09c.12-.211.18-.316.24-.3.06.015.06.136.06.379v3.792Zm.4 1.802c1.701 0 3.342.259 4.884.74.188.058.282.087.342.156.026.03.047.068.06.106.03.086.008.185-.038.382-.055.24-.082.36-.157.428a.313.313 0 0 1-.116.067c-.097.031-.218-.006-.461-.082A15.276 15.276 0 0 0 10 13.883c-1.571 0-3.087.237-4.514.678-.243.075-.364.112-.46.081a.312.312 0 0 1-.117-.067c-.075-.068-.102-.188-.157-.428-.045-.197-.068-.296-.038-.382a.327.327 0 0 1 .06-.106c.06-.069.154-.098.342-.157 1.543-.48 3.183-.74 4.884-.74Z" fill="#fff"/></g><defs><linearGradient id="b" x1="10" y1=".071" x2="10" y2="19.977" gradientUnits="userSpaceOnUse"><stop offset=".002" stop-color="#00A2F7"/><stop offset="1" stop-color="#008DD9"/></linearGradient><clipPath id="a"><path fill="#fff" d="M0 0h20v20H0z"/></clipPath></defs></svg>