<svg xmlns="http://www.w3.org/2000/svg" width="20" height="20" fill="none"><path fill="#E93117" d="M10 20c5.523 0 10-4.477 10-10S15.523 0 10 0 0 4.477 0 10s4.477 10 10 10Z"/><path fill="url(#a)" d="M10 18.612a8.612 8.612 0 1 0 0-17.224 8.612 8.612 0 0 0 0 17.224Z"/><path fill="#E93117" d="M15.774 11.391c.195.091.396.17.6.235a7.71 7.71 0 0 0-1.092-1.771l-.118-.369c.278.158.57.29.87.398-.268-.37-.545-.725-.828-1.063a7.244 7.244 0 0 0 .873-4.19 6.809 6.809 0 0 0-3.014 1.502l1.285-1.547c-.982.206-1.944.495-2.877.864l.454-1.387A8.302 8.302 0 0 0 9.05 5.689l.148-1.33-1.164 1.724A4.07 4.07 0 0 0 5.4 4.723 5.743 5.743 0 0 0 6 8.947c-.311.386-.6.79-.862 1.212.239-.045 2.207-1.08 2.207-1.08a5.875 5.875 0 0 0-2.32 3.48l.69-.387c.001.012 0 .023.003.034.039.175.106.343.198.497-.185.122-.4.293-.329.385.12.154 3.84 4.658 3.873 5.016.956-.375 2.235-2.218 2.628-2.27.49-.028.97-.15 1.416-.358.12-.17 1.47-2.164 1.332-2.54.371-.448.697-.933.971-1.446l-.032-.099Z"/><path fill="#000" stroke="#fff" stroke-linecap="round" stroke-linejoin="round" stroke-width=".242" d="M15.226 10.732c.194.09.395.17.6.235a7.714 7.714 0 0 0-1.093-1.772l-.118-.368c.278.157.57.29.87.397-.268-.37-.544-.724-.828-1.062a7.245 7.245 0 0 0 .873-4.19 6.81 6.81 0 0 0-3.014 1.501l1.285-1.547c-.982.206-1.944.495-2.877.865l.455-1.388A8.301 8.301 0 0 0 8.5 5.029L8.65 3.7 7.486 5.424a4.07 4.07 0 0 0-2.636-1.36 5.743 5.743 0 0 0 .601 4.224c-.312.386-.6.791-.863 1.212.24-.045 2.207-1.08 2.207-1.08a5.875 5.875 0 0 0-2.32 3.48l.69-.386c.001.01.001.023.003.034.039.175.106.342.198.496-.185.123-.4.293-.328.385.12.154 3.838 4.658 3.872 5.016.956-.375 2.236-2.218 2.628-2.269.49-.029.97-.15 1.416-.359.12-.17 1.47-2.163 1.332-2.54h0c.372-.448.697-.932.971-1.446l-.031-.098Z"/><path fill="#E7301B" stroke="#000" stroke-linecap="round" stroke-linejoin="round" stroke-width=".121" d="M5.6 11.9s-.682.375-.563.528c.12.154 3.84 4.658 3.873 5.016.956-.375 2.235-2.218 2.628-2.269.49-.029.97-.15 1.416-.359.12-.17 1.47-2.163 1.332-2.54-.138-.377-1.315-.564-1.315-.564l-7.37.187Z"/><path fill="#A11703" d="m9.371 15.618-1.588-.614 1.145 1.655-.8-.366c.302.353.565.74.782 1.151.956-.375 2.235-2.218 2.628-2.27.49-.028.97-.15 1.416-.358.12-.17 1.47-2.164 1.332-2.54-.138-.377-1.315-.565-1.315-.565l-2.218.057-4.656 1.035 3.274 2.815Z"/><path stroke="#000" stroke-linecap="round" stroke-linejoin="round" stroke-width=".121" d="M5.6 11.9s-.682.375-.563.528c.12.154 3.84 4.658 3.873 5.016.956-.375 2.235-2.218 2.628-2.269.49-.029.97-.15 1.416-.359.12-.17 1.47-2.163 1.332-2.54-.138-.377-1.315-.564-1.315-.564l-7.37.187Z"/><path fill="#E7E7E7" stroke="#000" stroke-linecap="round" stroke-linejoin="round" stroke-width=".121" d="M7.91 5.94a4.21 4.21 0 0 0-3.06-1.877 5.756 5.756 0 0 0 .74 4.458L7.91 5.94Z"/><path fill="#F2A4A2" d="M6.901 6.385a2.309 2.309 0 0 0-1.277-1.547c-.19-.326-.517 2.88.676 2.892.762.008.768-1.098.768-1.098L6.9 6.385Z"/><path stroke="#000" stroke-linecap="round" stroke-linejoin="round" stroke-width=".121" d="m5.114 5.015.04-.387c.566.049 1.384.891 1.902 1.664"/><path fill="#E7E7E7" stroke="#000" stroke-linecap="round" stroke-linejoin="round" stroke-width=".121" d="M6.795 8.419s-1.968 1.035-2.207 1.08a6.924 6.924 0 0 1 1.877-2.206c-.864-.762-.79-1.229-.79-1.229.295.154.606.276.927.364L6.01 5.063l1.058.979L8.648 3.7l-.147 1.33a8.301 8.301 0 0 1 2.878-1.627l-.455 1.387a17.704 17.704 0 0 1 2.877-.864l-1.285 1.547a6.81 6.81 0 0 1 3.014-1.501 7.253 7.253 0 0 1-1.035 4.48l.762 2.378s-1.75 3.519-5.06 3.963a2.59 2.59 0 0 1-2.515-1.244s-2.206-.58-2.514-2.002c-.307-1.422 1.627-3.128 1.627-3.128Z"/><path fill="#A4A8A5" d="M7.421 13.402a.264.264 0 0 1-.059.044c.193.069.32.103.32.103a2.59 2.59 0 0 0 2.514 1.244 5.825 5.825 0 0 0 2.929-1.343 7.196 7.196 0 0 1-5.704-.048Z"/><path stroke="#000" stroke-linecap="round" stroke-linejoin="round" stroke-width=".121" d="M6.795 8.419s-1.968 1.035-2.207 1.08a6.924 6.924 0 0 1 1.877-2.206c-.864-.762-.79-1.229-.79-1.229.295.154.606.276.927.364L6.01 5.063l1.058.979L8.648 3.7l-.147 1.33a8.301 8.301 0 0 1 2.878-1.627l-.455 1.387a17.704 17.704 0 0 1 2.877-.864l-1.285 1.547a6.81 6.81 0 0 1 3.014-1.501 7.253 7.253 0 0 1-1.035 4.48l.762 2.378s-1.75 3.519-5.06 3.963a2.59 2.59 0 0 1-2.515-1.244s-2.206-.58-2.514-2.002c-.307-1.422 1.627-3.128 1.627-3.128Z"/><path fill="#F2A4A2" d="M13.562 5.826a2.309 2.309 0 0 1 1.559-1.263s-.272 3.531-1.212 3.045c-.676-.35-.559-1.574-.559-1.574l.212-.208Z"/><path stroke="#000" stroke-linecap="round" stroke-linejoin="round" stroke-width=".121" d="M13.563 5.826a2.309 2.309 0 0 1 1.558-1.263"/><path fill="#E7E7E7" d="m13.096 6.053.944-1-.364 1.114h.91l-.91.944a15.255 15.255 0 0 1 1.81 2.113 4.82 4.82 0 0 1-1.719-1.021 7.814 7.814 0 0 1 2.059 2.764 3.726 3.726 0 0 1-1.627-.956"/><path stroke="#000" stroke-linecap="round" stroke-linejoin="round" stroke-width=".121" d="m13.096 6.053.944-1-.364 1.114h.91l-.91.944a15.255 15.255 0 0 1 1.81 2.113 4.82 4.82 0 0 1-1.719-1.021 7.814 7.814 0 0 1 2.059 2.764 3.726 3.726 0 0 1-1.627-.956"/><path fill="#E7E7E7" d="M6.909 10.534 4.475 11.9a5.875 5.875 0 0 1 2.32-3.48"/><path stroke="#000" stroke-linecap="round" stroke-linejoin="round" stroke-width=".121" d="M6.909 10.534 4.475 11.9a5.875 5.875 0 0 1 2.32-3.48"/><path fill="#000" stroke="#000" stroke-linecap="round" stroke-linejoin="round" stroke-width=".121" d="M11.425 8.038c.203.173.388.21.83-.525.44-.735-1.114.283-.83.525Zm-1.406.11c-.204.174-.389.21-.83-.525-.44-.734 1.113.284.83.525Z"/><path fill="#A4A8A5" d="m8.478 8.01 1.652 1.27s-1.059.594-1.254.649c-.153.043.397-.545.188-.593a.451.451 0 0 1-.32-.171c-.393-.357-.266-1.156-.266-1.156Z"/><path fill="#E7E7E7" stroke="#000" stroke-linecap="round" stroke-linejoin="round" stroke-width=".121" d="m8.16 7.696 1.552 1.26a1.203 1.203 0 0 1-1.296-.094c-.367-.29-.256-1.166-.256-1.166Z"/><path fill="#0E0E0E" d="M9.25 8.63c0 .136-.063.247-.14.247-.078 0-.14-.111-.14-.248a.31.31 0 0 1 .072-.217c.02-.02.188.122.207.181a.12.12 0 0 1 .001.036Z"/><path fill="#E7E7E7" stroke="#000" stroke-linecap="round" stroke-linejoin="round" stroke-width=".121" d="m12.903 7.548-1.553 1.26a1.203 1.203 0 0 0 1.297-.094c.367-.29.256-1.166.256-1.166Z"/><path fill="#0E0E0E" d="M11.812 8.48c0 .137.063.248.14.248.078 0 .141-.11.141-.247a.31.31 0 0 0-.073-.217c-.02-.02-.187.122-.206.18a.12.12 0 0 0-.002.037Z"/><path fill="#E7E7E7" d="M8.876 9.929s1.604-1.434 2.099-1.434c.494 0 1.902 1.28 1.902 1.28"/><path stroke="#000" stroke-linecap="round" stroke-linejoin="round" stroke-width=".121" d="M8.876 9.929s1.604-1.434 2.099-1.434c.494 0 1.902 1.28 1.902 1.28"/><path fill="#000" d="M11.774 9.123c.01.152-.256 1.027-.738 1.06-.482.033-.876-.786-.887-.938-.012-.153.343-.304.791-.338.449-.033.822.063.834.216Z"/><path fill="#E7E7E7" d="M9.024 10.946s-.099.54 0 .624c.099.085.497-.653.497-.653"/><path stroke="#000" stroke-linecap="round" stroke-linejoin="round" stroke-width=".093" d="M9.024 10.946s-.099.54 0 .624c.099.085.497-.653.497-.653"/><path fill="#A4A8A5" d="m12.58 10.581-.321-.015-1.114 1.202c1.492-.088 1.433-1.02 1.434-1.168"/><path fill="#E7E7E7" d="M8.876 10.367c-.094.076-.623.352-.341.492.281.139 1.996.301 2.5-.62a2.758 2.758 0 0 0 2.175.256c.06-.137-.163-.495-.163-.495"/><path stroke="#000" stroke-linecap="round" stroke-linejoin="round" stroke-width=".121" d="M8.876 10.367c-.094.076-.623.352-.341.492.281.139 1.996.301 2.5-.62a2.758 2.758 0 0 0 2.175.256c.06-.137-.163-.495-.163-.495"/><path fill="#E7E7E7" d="M12.188 10.6c-.002.148.058 1.08-1.435 1.168l1.435-1.168Z"/><path stroke="#000" stroke-linecap="round" stroke-linejoin="round" stroke-width=".121" d="M12.188 10.6c-.002.148.058 1.08-1.435 1.168"/><path fill="#F03015" d="M12.962 11.149a2.404 2.404 0 0 0 1.229-.802 2.258 2.258 0 0 1 .095 1.929c-.318-.5-.78-.893-1.324-1.127Zm-4.327.221a3.018 3.018 0 0 1-1.533-.733 4.154 4.154 0 0 0 .11 2.657c.334-.513.874-1.685 1.423-1.924Z"/><defs><radialGradient id="a" cx="0" cy="0" r="1" gradientTransform="translate(22.732 10.343) scale(16.1325)" gradientUnits="userSpaceOnUse"><stop stop-color="#EC3118"/><stop offset=".14" stop-color="#B82613"/><stop offset=".306" stop-color="#801B0D"/><stop offset=".469" stop-color="#521108"/><stop offset=".623" stop-color="#2F0A05"/><stop offset=".767" stop-color="#150402"/><stop offset=".897" stop-color="#050101"/><stop offset="1"/></radialGradient></defs></svg>