<svg xmlns="http://www.w3.org/2000/svg" width="20" height="20" fill="none"><path fill="#fff" d="M19 16.641A2.358 2.358 0 0 1 16.641 19H3.36A2.358 2.358 0 0 1 1 16.641V3.36A2.358 2.358 0 0 1 3.359 1H16.64A2.358 2.358 0 0 1 19 3.359V16.64z"/><path fill="url(#a)" d="M16.207 16.145H10L16.207 10v6.145z"/><path fill="url(#b)" d="M16.207 16.145H3.855V3.793l12.352 12.352z"/><path fill="url(#c)" d="m16.207 16.207-3.104-3.104.56-.496 2.544 3.6z" opacity=".14"/><defs><linearGradient id="a" x1="13.103" x2="13.103" y1="9.972" y2="16.157" gradientUnits="userSpaceOnUse"><stop stop-color="#FF4681"/><stop offset="1" stop-color="#9B44F6"/></linearGradient><linearGradient id="b" x1=".913" x2="13.284" y1="7.027" y2="19.398" gradientUnits="userSpaceOnUse"><stop stop-color="#FF4681"/><stop offset=".739" stop-color="#9B44F6"/></linearGradient><linearGradient id="c" x1="14.601" x2="13.73" y1="13.042" y2="15.341" gradientUnits="userSpaceOnUse"><stop/><stop offset="1"/></linearGradient></defs></svg>