<svg width="20" height="20" fill="none" xmlns="http://www.w3.org/2000/svg"><g clip-path="url(#a)"><path d="m19.051 6.06.146.33-.234-.154c-.103.389-.169.77-.29 1.156l-.048-.053a14.789 14.789 0 0 0-.039-.042l-.008-.01a14.288 14.288 0 0 1-.039-.039l-.008-.007-.038-.038-.386-.434-.332-.332-.049-.05-.62-.565a.301.301 0 0 0-.006-.041c-.04-.183-.104-.364-.116-.548-.024-.336-.123-.693.167-.978l.148.047c.368.102.627.374.87.632.325.346.59.749.882 1.127Z" fill="#FC57F7"/><path d="M4.234 17.927c-.626-.319-1.214-.687-1.687-1.217-.05-.057-.089-.124-.133-.187.053-.015.123-.013.156-.047.084-.088.15-.192.225-.29.091.022.183.04.274.064l1.106.307 1.72.367.047.016.221.03a4.473 4.473 0 0 0-.854.092v.915l.198.179.376.067c-.573.028-1.118-.097-1.65-.296Z" fill="#25F4F5"/><path d="M17.296 16.616c-.852 1.053-1.771 1.888-3.088 2.308.1-.089.208-.17.298-.269.27-.294.535-.594.801-.891.14-.19.281-.378.422-.567l.153-.2.093-.134.273-.44.032-.046.017-.048c.01-.016.022-.031.033-.047l.262-.428.126.166.028-.064h.73v.036l.247-.138c-.054.11-.103.222-.163.327-.084.148-.175.29-.264.435Z" fill="#7CE5E9"/><path d="M6.788 19.421c-.277-.085-.555-.166-.83-.258-.14-.046-.274-.111-.41-.168l.414.079c.248-.031.402-.263.626-.494a5.145 5.145 0 0 0-.988-.254c.119.002.238.011.356.003.392-.028.783-.062 1.175-.094l.178-.012.108-.03 1.084-.25.095.002-.348.393c.4.783.196.608 1.02.655-.116.047-.227.11-.347.138-.425.102-.853.193-1.28.288-.083.015-.166.046-.249.044-.201-.006-.402-.027-.604-.042Z" fill="#40EFF2"/><path d="M19.813 9.725c.032.495.066.99.093 1.485.004.074-.027.15-.042.225l-.013-.708-.077-.017c-.136.3-.357.524-.665.675l-.477-1.148-.106-.276c.243-.495.423-1.006.382-1.57l-.01-.515.532.82.383 1.029Z" fill="#FABEF5"/><path d="M14.101 18.931c-.984.483-2.647 1.354-3.832.977.455-.074.86-.26 1.228-.533l.143-.096.236-.145.154-.082.993-.816.131-.059.09.24c.567.183 1.077.143 1.58-.186-.059.063-.113.13-.175.189-.181.172-.365.341-.548.511Z" fill="#70E9EE"/><path d="M.651 6.895c.037-.464.192-.891.416-1.294.03-.054.104-.083.157-.124l.125.036-.033.5a4.107 4.107 0 0 0 .096 1.67l.01.09.035.152a.037.037 0 0 0 .008.037l.335.9.034.054.013-.003a.125.125 0 0 0-.002.047l-.247.109-.155.572-.066-.063-.01-.047-.038-.096-.379-.811-.245-.757c-.037-.323-.157-.641-.054-.972Z" fill="#09145C"/><path d="M6.075.737c.182-.09.357-.207.549-.267.426-.133.862-.238 1.294-.355a.983.983 0 0 1 .825.2L8.692.5l-.095.051-1.003.658A2.618 2.618 0 0 1 5.957.983l.118-.246Z" fill="#E238FA"/><path d="m.62 12.577-.394-.993c.062-.337.165-.38.767-.332l.198.126.18.193.002.003.036.059.393.552.048.25-.442.652H1.12l-.278-.223-.221-.287Z" fill="#13E8F9"/><path d="M1.604 15.188a3.828 3.828 0 0 1-.761-1.17c.08-.26.294-.359.522-.443h.002l.045.046.002.003.045.045.676.56.324.249.2.178c-.005.134.028.285-.022.4-.099.222-.229.437-.46.56-.104-.08-.207-.161-.312-.24-.086-.064-.174-.125-.261-.188Z" fill="#0FF4F3"/><path d="M2.613 3.548c.247-.323.479-.66.748-.965.14-.16.346-.26.523-.387.104.213.226.041.342.015l-.376.858a.137.137 0 0 0-.008.045l-.04.048-.346 1.09c-.106.154-.208.339-.432.28-.212-.055-.445-.098-.563-.326.02-.1.037-.201.06-.3.028-.12.06-.239.092-.358Z" fill="#2C42DB"/><path d="M6.788 19.421c.201.015.403.036.604.042.083.002.166-.029.25-.044.132-.01.27.003.397-.03.536-.142 1.069-.297 1.603-.447l-.153.22.737.446.601.048-.142.05a.054.054 0 0 0-.038.023l-.43.124-.096.028c-.42.034-.845.112-1.263.091-.723-.035-1.428-.19-2.07-.55Z" fill="#75EEF3"/><path d="M17.297 16.616c.088-.145.18-.287.263-.435.06-.106.11-.218.163-.327l.283-.857.044-.288.04-.418.009-.428c.051-.034.098-.08.154-.1.367-.128.723-.272.992-.57-.048.642-.295 1.22-.59 1.776-.34.637-.81 1.176-1.358 1.647Z" fill="#9AE3F6"/><path d="M18.674 7.392c.121-.387.187-.767.29-1.156l.234.154.002.004.042.092.003.007.042.087.006.01c.014.03.029.058.044.087.36.766.57 1.564.53 2.418l-.147.057-.281-.53-.765-1.23Z" fill="#FA48F3"/><path d="m.95 8.624.379.811v.086l-.018.209c-.15.287-.384.476-.705.566l-.001-.003-.041-.048-.004-.005-.037-.043-.185-.436c-.06-.313-.123-.626-.179-.94-.011-.066.006-.138.01-.207.176-.17.395-.172.608-.171l.173.18Z" fill="#11D8F7"/><path d="M9.888.127c.96-.187 3.046-.185 3.887.608-.164-.01-.328-.025-.492-.026-.137-.001-.275.014-.413.022l-.572.047-.281.05-.227.008c-.327-.28-.576-.669-1.055-.74l-.85.07c-.002-.013 0-.026.003-.04Z" fill="#FB98F8"/><path d="M14.915 1.128c.858.323 1.519.896 2.055 1.626.035.048.052.11.077.166-.035-.015-.074-.025-.106-.044-.497-.304-1.01-.57-1.593-.672a6 6 0 0 1-.7-.973c.126-.05.196-.076.267-.103Z" fill="#E24EF8"/><path d="m14.914 1.128-.267.102c.201.349.434.673.7.974l-.525-.09-.237-.048A24.93 24.93 0 0 0 13.164.731h-.295c.138-.008.276-.023.414-.022.164.001.328.017.492.026l.003.002.093.038 1.043.353Z" fill="#CE47FC"/><path d="M19.052 6.061c-.291-.378-.557-.781-.883-1.127-.242-.258-.5-.53-.869-.632l-.194-.15.487-.42-.106-.287c.76.518 1.455 1.706 1.565 2.616Z" fill="#F7A6F5"/><path d="m1.316 6.013.033-.5-.125-.036c.124-.018.164-.102.198-.215.064-.212.15-.419.227-.627a.755.755 0 0 1 .626-.081v.321l-.003.804a1474.6 1474.6 0 0 0-.135-.092c-.301.094-.575.236-.821.426Z" fill="#1A8FF7"/><path d="M19.11 11.385c.307-.151.528-.376.664-.675l.077.017.013.708c-.022.546-.19 1.05-.437 1.531-.016.033-.054.055-.082.081l-.14-1.195-.096-.467Z" fill="#F8A6F2"/><path d="M5.6 18.326c.338.052.667.137.988.255-.224.23-.378.462-.626.493l-.414-.079-.752-.435.139-.334.665.1Z" fill="#30EBEF"/><path d="M19.245 13.194c-.27.296-.626.44-.992.568-.056.02-.103.067-.154.101a.78.78 0 0 0-.033-.01l-.016-.417.02-.316 1.166-.59.051.573-.042.09Z" fill="#90D2FA"/><path d="m6.075.737-.117.246c.534.254 1.08.33 1.637.227l-.059.09a1.72 1.72 0 0 0-.032.006l-.055.041-.32.25-.06.037c-.423-.043-.847-.094-1.272-.125a.572.572 0 0 1-.472-.296l.75-.476Z" fill="#C536FB"/><path d="m17.486 3.445.106.287-.486.42-.475-.236v-.982l-.145-.215.146.071.041.037.447.241.269.285.048.044h.001l.048.048Z" fill="#F988FA"/><path d="M5.325 1.213c.11.175.253.28.472.296.425.03.849.082 1.273.125l.008.01a.167.167 0 0 0-.005.04v.002l-.05.045-.09.056-.056.038a.17.17 0 0 0-.04.004l-.857.19c-.151-.031-.3-.075-.453-.092-.265-.03-.508-.088-.643-.352l.388-.32.04-.034.013-.008Z" fill="#9C33F8"/><path d="m.95 8.624-.172-.181c-.214 0-.432.001-.61.171-.057-.36.04-.696.15-1.03l.24.141.01-.016.138.158.244.757Z" fill="#19A6EB"/><path d="m2.135 14.23-.676-.56-.045-.046-.002-.003-.045-.045-.002-.001-.333-.372-.36.415-.068-.225.171-.333.216.035.663.622.346.32c.33.004.544-.203.605-.56.103.146.211.29.186.447-.177.25-.389.345-.656.306Z" fill="#1292C0"/><path d="m1.191 11.378-.198-.125c-.602-.05-.704-.006-.767.331l-.132-.672c.062-.043.126-.083.187-.127.126-.092.248-.19.419-.11H.7l.04.047.2.284.25.372Z" fill="#15D0F0"/><path d="M4.884 1.575c.134.264.377.322.643.352.152.017.302.06.452.092l-.568.287c-.31-.08-.634-.126-.862-.388l.335-.343Z" fill="#6C30EE"/><path d="M4.175 16.557c-.369-.102-.737-.205-1.106-.306-.09-.025-.183-.043-.274-.064l-.33-.148a18.318 18.318 0 0 0-.052-.04l-.146-.097-.185.142-.047-.093a.032.032 0 0 1-.008-.039l.001-.109.022-.066.07-.05.106.042.429.269.52.19.6.18.159-.511.375.388-.134.312Z" fill="#0E77A4"/><path d="M4.55 1.918c.227.262.552.307.861.388l-.096.138a.597.597 0 0 1-.045.006l-.049.046-.049.045v.001C4.87 2.51 4.56 2.5 4.366 2.21v-.183l-.048.041-.092.143c-.116.026-.238.198-.342-.015.18-.072.362-.143.542-.217.043-.017.082-.04.123-.06Z" fill="#4D2DDC"/><path d="M2.276 4.875v-.321a.755.755 0 0 0-.627.08l.025-.057a.037.037 0 0 0 .022-.038l.024-.057.022-.04.023-.053a.038.038 0 0 0 .027-.034l.011-.011.036-.039c.157-.31.381-.56.669-.755-.054.25-.115.5-.16.752-.034.19-.05.382-.072.573Z" fill="#2465DB"/><path d="m8.692.5.051-.186a.983.983 0 0 0-.825-.199A4.316 4.316 0 0 1 9.68.07c-.025.028-.044.07-.075.082-.303.119-.608.234-.913.35Z" fill="#CB39F0"/><path d="M.7 10.674c-.17-.08-.293.019-.419.11-.06.045-.125.085-.187.128l.034-.853.033.184.255-.05.284.481Z" fill="#18AADB"/><path d="m5.6 18.326-.666-.1c-.19-.07-.382-.125-.582-.031l-.04-.032c-.001-.013-.01-.021-.023-.023l-.056-.213c.532.199 1.077.324 1.65.297l.193.004.471-.004.385-.04.199.051c-.392.032-.784.066-1.176.094-.118.008-.237-.002-.356-.003Z" fill="#20829D"/><path d="m.673 13.617.36-.414.332.372c-.227.084-.442.184-.522.442l-.17-.4Z" fill="#13BFE1"/><path d="M8.692.5c.305-.115.61-.23.913-.35.031-.012.05-.053.075-.08l.115.019.008.013h.016l.068.025a.127.127 0 0 0-.003.04l-.33.109-.67.236-.623.366-.335.234-.182.102-.051.046-.157.04.059-.09L8.598.552l.094-.051Z" fill="#8A21C0"/><path d="m.7 10.674-.284-.481-.255.05-.033-.184c-.011-.156.081-.24.21-.298l.185.436.036.043.004.005.041.048.002.003.24.424.137.24-.043.046-.2-.284-.04-.046v-.002Z" fill="#1770A8"/><path d="m16.632 2.79-.145-.07-.43-.226-.044-.035-.097-.02-.567-.137-.525-.093-.004-.043.003-.051.525.089c.582.101 1.095.368 1.593.672.032.02.07.03.106.044l.073.148-.446-.241-.042-.037Z" fill="#9538C8"/><path d="m.705 7.867-.137-.158-.01.016-.24-.142.334-.688c-.104.33.016.65.053.972Z" fill="#1F7CD2"/><path d="m2.465 16.04.33.147c-.074.097-.141.201-.225.29-.033.033-.103.031-.156.046l-.003-.004c-.01-.013-.018-.026-.027-.04l-.168-.236.197-.243v-.002l.052.041Z" fill="#15C4DE"/><path d="M2.275 4.875c.024-.191.039-.384.073-.573.045-.252.106-.502.16-.752l.104-.002c-.03.12-.063.238-.091.358-.023.099-.04.2-.06.3l-.094.81c-.016.074-.041.148-.044.222-.007.245-.006.49-.008.735l-.043-.294.003-.804Z" fill="#132C8E"/><path d="m.99 13.095-.215-.035-.17.333c-.095-.274-.147-.547.015-.816l.222.287.149.231Z" fill="#2277AE"/><path d="M4.352 18.195c.2-.095.391-.039.582.03l-.139.335-.443-.365Z" fill="#27B5D5"/><path d="m19.439 8.622.28.53.148-.057-.01.53-.039.094-.004.006-.383-1.028.008-.075Z" fill="#B43FC8"/><path d="M14.1 18.931c.183-.17.367-.339.548-.511.062-.06.117-.126.175-.19l.348-.378.117-.105.02.017c-.267.297-.531.598-.802.891-.09.098-.198.18-.298.27l-.107.006Z" fill="#2F838E"/><path d="m19.288 13.103-.051-.573-.051-.479a71.827 71.827 0 0 1-.027-.143l.046-.056.141 1.195-.058.056Z" fill="#6F62B1"/><path d="m10.217 19.853.43-.124.037-.023.143-.05.665-.287.005.006c-.368.272-.774.46-1.228.533l-.067-.024a.085.085 0 0 0 .015-.03Z" fill="#3A8D9B"/><path d="m2.413 16-.197.243-.134-.199.184-.142.147.098Z" fill="#1996C0"/><path d="m2.225 15.729-.107-.042a56.65 56.65 0 0 0-.069.05c-.08-.108-.16-.22-.244-.325-.063-.078-.134-.15-.201-.224.087.063.175.124.26.188.106.079.209.16.313.24l.048.113Z" fill="#48D8E5"/><path d="M10.217 19.853a.085.085 0 0 1-.015.031c-.027 0-.054-.002-.08-.003l.095-.028Z" fill="#70E9EE"/><path d="M1.695 4.539a.037.037 0 0 1-.021.038l.021-.038ZM1.792 4.355a.038.038 0 0 1-.027.034l.027-.034Z" fill="#1A8FF7"/><path d="M4.29 18.14c.013.002.02.01.023.023l-.02-.004-.004-.02Z" fill="#27B5D5"/><path d="M9.819.101h-.016L9.795.09 9.81.086 9.82.1Z" fill="#CB39F0"/><path d="M17.151 4.255c-.29.285-.19.642-.167.978.013.184.076.365.116.548l-.047.002-.087-.061-.385-.329.002.003-.002-.049-.234-1.16c.054-.086.097-.152.14-.218l.665.286Z" fill="#DC49FD"/><path d="m18.108 6.769.386.434.038.038.008.007a.11.11 0 0 0-.001.035l-.007.062-.166-.098-.688.143-.086-.333c.102-.053.206-.103.307-.16.071-.039.14-.085.209-.128Z" fill="#8141EF"/><path d="m16.967 5.722.086.06.053.04.621.565.048.05-.327.24a.072.072 0 0 1-.012-.044l-.042-.096-.386-.665-.043-.052-.042-.05a.427.427 0 0 1-.014-.042l.058-.006Z" fill="#4C24C8"/><path d="m17.448 6.677.328-.24.332.332c-.07.043-.138.09-.21.129-.1.055-.204.106-.306.16l-.144-.381Z" fill="#6633E2"/><path d="m18.531 7.345.007-.062.02.005h.02l.009.009.038.042.048.053.765 1.23-.008.075-.53-.821-.038-.056-.193-.283-.138-.192Z" fill="#9535B9"/><path d="m17.152 4.255-.666-.286-.289-.14.05-.049.384.136.475.236.194.15-.148-.047Z" fill="#AE4ADC"/><path d="M18.578 7.288h-.02l-.02-.005a.107.107 0 0 1 .001-.035l.039.04Z" fill="#FA48F3"/><path d="m17.105 5.822-.052-.04.047-.001a.302.302 0 0 1 .005.04Z" fill="#9333D7"/><path d="M4.174 16.557c.04-.09.079-.182.134-.312l-.375-.388v-.002l-.046-.048-.375-.388-.386-.415-.468-.348-.199-.178.215-.025.03.03.326-.387a.139.139 0 0 0 .041.013c.11.14.212.288.331.42.246.276.519.519.867.66l.093.055.054.036a.11.11 0 0 1 .041.013c.02.01.038.022.057.033.013-.001.025.002.036.008l-.515.03.329.299.421.342.67.422c.425.252.897.357 1.38.43-.023.097-.041.196-.07.29-.01.034-.048.058-.074.087a.167.167 0 0 1-.044-.011l-.053-.035-.278-.149-.002-.001-.094-.045-.057-.023-.222-.03-.047-.016-1.72-.367Z" fill="#08467D"/><path d="m6.163 16.97.057.023.094.045.002.001c.015.077.038.152.043.23.02.353-.124.659-.283.96l-.194-.006-.375-.067-.198-.179v-.915a4.48 4.48 0 0 1 .854-.092Z" fill="#0EEFF1"/><path d="m18.006 14.997-.283.857-.246.138v-.036h-.73l-.028.064-.126-.166.377-.76.135-.144c.025.035.046.098.076.103.278.046.56.1.825-.056Z" fill="#53DDE9"/><path d="m16.97 15.095-.378.759-.262.428-.033.047-.017.048-.032.046-.383-.454.053-.063.428-.324.095-.073.038-.035.296-.28.154-.15.04.05Z" fill="#0A3C6A"/><path d="m15.918 15.905-.052.064.382.455-.273.44.033-.233a.794.794 0 0 0-.525-.45l.347-.562.28-.571.095-.238h.041a.144.144 0 0 0 .013.046l-.062.28-.37.745.091.024Z" fill="#0C618F"/><path d="M15.484 16.18a.794.794 0 0 1 .524.451c-.01.08-.022.156-.032.232l-.094.134-.06-.002.022-.244-.385-.427-.255.29-.19.19-.42.336-.482.281-.05-.049.155-.104c.38-.242.752-.49 1.033-.852l.234-.235Z" fill="#1085A8"/><path d="m15.73 17.197-.422.567a1.023 1.023 0 0 0-.02-.017l.016-.087.243-.333.13-.147.05-.001.002.018Z" fill="#2F838E"/><path d="m15.821 16.995.061.002-.153.2-.002-.018.094-.184Z" fill="#0C618F"/><path d="M9.267 18.993c-.823-.047-.62.128-1.019-.655l.347-.393.47-.053.243.005-.052.289.253.59.23-.022-.472.239Z" fill="#1EEFF2"/><path d="m9.065 17.892-.47.053-.095-.002v-.088l1.092-.151.668-.28.34-.25-.086-.33-.206-.083.147-.047.374-.046-.014.264h-.026v.26l-.049.047c-.187.093-.365.197-.52.442l.704.075.003.431-.098.077-.71.397-.045-.048.231-.147.047-.045.001-.002.305-.207-.073-.352-.566-.052-.621.038-.09.006-.243.04Z" fill="#0C6194"/><path d="M6.691 17.233c.026-.028.064-.052.074-.085.029-.095.047-.194.07-.291l.095-.002.19.09-.092.005-.173.017c-.044.153-.001.25.122.313l.429.286.29.138c-.205.04-.004.186-.057.28l-.329.2c0 .013 0 .026-.002.039l-.178.012-.198-.05.139-.004.144-.047.048-.091.076-.412-.549-.306-.099-.091Z" fill="#0B6C9D"/><path d="m7.31 18.184.33-.2c.052-.094-.149-.24.056-.28l.091.016.056.03.413.058.244.047v.088l-1.083.25-.106-.009Z" fill="#155983"/><path d="m10.074 18.613.046.048-.479.281c-.534.15-1.066.305-1.603.446-.126.034-.265.022-.397.03.427-.094.854-.185 1.28-.287.12-.029.23-.091.346-.138l.472-.239.14-.052.046-.041.003-.002.146-.046Z" fill="#35A2AA"/><path d="m7.31 18.184.107.008-.108.03a.373.373 0 0 0 .002-.038Z" fill="#20829D"/><path d="M18.909 8.39c.04.565-.14 1.076-.382 1.571l-.186-.337L18 8.581c.259-.212.536-.172.814-.044l.095-.147Z" fill="#F582DE"/><path d="m18.909 8.39-.095.147c-.278-.128-.555-.168-.814.044l-.182-.287-.185-.194-.193-.236-.005-.091.287.141.067.215a5.772 5.772 0 0 1 1.073-.31l.037.057.01.514Z" fill="#E26FE7"/><path d="m19.205 11.852-.046.056-.07-.281-.134-.382-.189-.453c-.248-.065-.363.02-.407.24l-.028-.082.018-.657.058.197.225-.253.477 1.148.096.467Z" fill="#2C3CAC"/><path d="m18.632 10.237-.225.253-.058-.197-.066-.526a.068.068 0 0 0 .003-.042l.055-.1.185.336.106.276Z" fill="#292482"/><path d="m15.171 17.852-.348.378c-.503.33-1.013.37-1.58.188l-.09-.24v.003l.052-.05-.003.003.051-.048-.002.002.048-.056.478-.426c.018-.01.036-.022.053-.033a.11.11 0 0 0 .042-.016l.05-.034a.149.149 0 0 0 .044-.016l.048-.035.046-.017.023.004.022-.004-.11.314.458.37c.352.062.518-.148.718-.287Z" fill="#56EFF1"/><path d="m13.778 17.606-.478.426-.048.056.002-.002a22.69 22.69 0 0 0-.052.048l.003-.003-.051.05v-.004l-.131.06-.052-.05.306-.323-.036-.084a2.06 2.06 0 0 0-.656.015l.1-.065-.153-.504.296-.188.043-.035.095-.064.046.052-.046.048-.047.047-.002.002c-.182.094-.144.253-.123.42l.183.17c.136-.02.278-.04.42-.062l.146-.047.226-.06.057-.033a.12.12 0 0 1 .042-.01l.054-.032a.138.138 0 0 1 .045-.014c.017-.01.033-.022.05-.033a.139.139 0 0 1 .044-.015l.05.05-.004.002-.046.031-.046.018c-.016.01-.032.022-.048.034a.148.148 0 0 1-.044.016l-.05.034a.108.108 0 0 1-.042.017l-.053.032Z" fill="#0D5080"/><path d="m12.971 18.186.052.05-.993.816a.978.978 0 0 1-.021-.025l.438-.418.101-.086c.11-.097.22-.193.328-.29l.047-.048h.001l.047.001ZM11.876 19.134l-.236.145-.004-.005.15-.14c.03 0 .058-.002.087-.003l.003.003Z" fill="#29848E"/><path d="m11.64 19.28-.144.095-.004-.006.143-.095.005.005ZM12.03 19.052l-.155.082-.002-.003.135-.104a.978.978 0 0 0 .022.025Z" fill="#29848E"/><path d="M1.465 7.962a.037.037 0 0 1-.009-.037l-.035-.153-.01-.088-.03-.676c.299-.105.486-.45.848-.42l.144.374.143.897v.347c-.298.283-.567.337-.815.194l-.236-.438Z" fill="#0CD3FB"/><path d="m2.373 6.962-.143-.374c-.362-.03-.55.315-.849.42l.031.676a4.107 4.107 0 0 1-.096-1.671c.247-.19.52-.332.821-.426l.136.092.043.294.057.989Z" fill="#18B5FC"/><path d="M1.465 7.962 1.7 8.4c.249.143.518.09.815-.194v-.347l.05.105.035.147.01.09.037.102.01.088.002.132-.021.266c-.255.169-.512.222-.792.124l-.013.003-.034-.054-.335-.9Z" fill="#10B4E5"/><path d="m.845 10.72-.24-.424c.321-.09.557-.28.706-.566l.017-.209a.342.342 0 0 0 .04.01c.002.016.006.031.009.047l.138.57.004.095c-.06.07-.126.136-.18.21-.125.166-.279.272-.494.267Z" fill="#11C4E9"/><path d="M1.847 8.913c.28.098.536.045.792-.124l.02-.266a.297.297 0 0 0 .04.011c-.002.015 0 .03.005.044l.004.097.037.097v.001l.05.377c-.05.063-.093.17-.152.179-.17.026-.345.014-.519.016l-.279-.385a.125.125 0 0 1 .002-.047Z" fill="#0C9AD0"/><path d="m1.845 8.96.28.385.148.328h-.048l-.223-.323-.463.342.065.317.005.187-.094-.047-.138-.571.066.063.155-.572.247-.11ZM1.368 9.531a.342.342 0 0 1-.039-.01v-.086l.04.096Z" fill="#094481"/><path d="m.99 13.095-.148-.23.278.222h.288l.442-.652-.048-.25.553.637.011.086c-.052.104-.096.213-.157.312-.136.218-.29.421-.555.497l-.663-.622Z" fill="#10CBEB"/><path d="m2.355 12.822-.553-.637-.393-.552-.036-.059-.002-.003c.166-.132.33-.266.498-.396.01-.008.043.014.065.021.007.011.011.023.012.036l.04.058.46.769.108.132.004.006a.087.087 0 0 0 .003.038l.037.058c-.08.177-.162.353-.243.529Z" fill="#06346C"/><path d="M1.934 11.196c-.022-.008-.054-.029-.064-.021-.168.13-.333.263-.498.396l-.18-.193-.252-.372.044-.046.097.095.231.26.44-.379-.096-.264-.136-.43-.005-.093.094.047a.57.57 0 0 1 .043.002l.048.19.093.335.141.473Z" fill="#0A5A93"/><path d="m2.659 14.656.468.348c-.024.204-.022.416-.08.61-.053.185-.155.366-.392.384l-.43-.27-.047-.113c.23-.122.361-.337.46-.56.05-.114.017-.265.021-.4Z" fill="#0BD5E7"/><path d="m3.03 14.096-.327.387-.029-.03-.215.025a649.11 649.11 0 0 0-.324-.248c.267.04.478-.056.656-.306.025-.157-.083-.301-.186-.448l-.096-.285.056.001.13.192.285.569.002.003.05.087.004.006a3.103 3.103 0 0 1-.006.047Z" fill="#0D72A7"/><path d="m2.366 5.016.094-.81c.118.228.351.271.563.326.225.059.327-.126.432-.28l.052.05-.002.047c-.031.043-.07.082-.092.13-.083.176-.16.355-.238.534a.07.07 0 0 0-.032-.06l-.182.317-.593-.113-.002-.141Z" fill="#1C37B4"/><path d="m4.366 2.027-.001.183-.236.404.57.295.472-.367v-.001l.049-.045.05-.046a.597.597 0 0 0 .044-.006l.048.051-.047.048-.048.046-.048.046-.239.24-.053.044a.083.083 0 0 0-.042.016l-.04.036-.006.004-.05.04-.094.059-.044.038-.002.003-.233.148-.32-.041-.246-.153.375-.858.092-.143.049-.041Z" fill="#1C1D96"/><path d="m3.85 3.069.246.153.32.041c-.038.04-.079.076-.114.117l-.747.874-.037.05-.011-.003-.052-.05.346-1.09.04-.047c0-.016.003-.03.009-.045Z" fill="#121977"/><path d="m11.635 19.274-.143.095-.665.287-.601-.048-.738-.446.153-.22.479-.28.709-.398-.209.386c.16.348.794.567 1.166.485l-.15.14ZM10.685 19.706l-.037.023a.055.055 0 0 1 .037-.023Z" fill="#55EFF2"/><path d="M18.006 14.997c-.266.155-.547.102-.825.056-.03-.005-.051-.068-.077-.104v.002c.015-.02.03-.041.047-.061l.106-.224c.138-.016.276-.027.413-.049.141-.022.276-.035.38.092l-.044.288Z" fill="#34D0E7"/><path d="M18.05 14.709c-.103-.127-.239-.114-.38-.092-.136.022-.275.033-.412.05l-.011-.052-.002.003.24-.381c.157.03.314.066.473.09.04.007.087-.023.132-.036l-.04.418Z" fill="#1EB7DD"/><path d="M18.09 14.29c-.045.014-.091.044-.133.037-.158-.024-.315-.06-.473-.09l.23-.376.34.266v-.178l.012-.095a.778.778 0 0 1 .033.01l-.01.427Z" fill="#1995CB"/><path d="m9.554.276.33-.11.85-.07c.48.071.728.46 1.056.74l-.206.082-.565.147-.238.048c-.218-.248-.92-.821-1.227-.837Z" fill="#FB80F9"/><path d="M12.87.73h.294c.492.428.965.873 1.421 1.336l-.29.006-.139-.008-.332-.043V2.02A6.998 6.998 0 0 0 12.452.831l.033-.04-.188-.013.572-.047Z" fill="#A63FFD"/><path d="m12.297.778.188.012-.033.041c.512.34.969.736 1.371 1.189-.862.001-1.38-.49-1.806-1.192l.28-.05Z" fill="#7D39FC"/><path d="M12.017.828c.427.702.944 1.193 1.806 1.192h.001l.001.042-1.093.003c-.48-.23-.821-.632-1.22-.943l.072-.204.206-.082.227-.008Z" fill="#5431EA"/><path d="m14.294 2.071.29-.005.239.049-.003.051h-.688c.124.327.323.6.597.817-.404-.273-.81-.54-1.289-.67l.119-.127.735-.115Z" fill="#7237E6"/><path d="m19.186 12.051.05.48-1.166.59-.02.315a.142.142 0 0 0-.034-.008l-.059-.95c.355 0 .883-.338 1.229-.427Z" fill="#74BCFC"/><path d="M18.016 13.428a.143.143 0 0 1 .034.008l.016.418-.013.095-.077-.273-.132-.05-.229.128.103-.33.019.104.152-.197.127.098Z" fill="#15488A"/><path d="m7.536 1.3.157-.04c.06.086.102.197.182.254.355.255.766.35 1.197.367l-.43.142c-.542.097-.983-.05-1.325-.441l.185-.23.001-.046.033-.007Z" fill="#672FEC"/><path d="m7.502 1.352-.184.23c.34.39.783.538 1.325.44 0 .016-.002.031-.003.046l-.663.13a1.857 1.857 0 0 1-.89-.302l.038-.254.004-.045.32-.25.053.005Z" fill="#3E24CA"/><path d="m7.502 1.352-.053-.005.055-.041a.563.563 0 0 0-.002.046Z" fill="#8A21C0"/><path d="M7.129 1.597a.81.81 0 0 0-.004.045l-.004.002a.173.173 0 0 0-.044 0l-.008-.01.06-.037Z" fill="#9C33F8"/><path d="m16.632 3.916-.386-.136-.093-.049c-.148-.417-.348-.826-.237-1.291l.097.02.044.034.43.225.145.215v.982Z" fill="#F573FB"/><path d="m7.126 1.642-.039.254c.275.178.572.279.89.301l-.474.156a8.863 8.863 0 0 1-.735-.155l-.024-.178.043-.095.05-.096a.17.17 0 0 1 .04-.004l.055-.038.09-.056.05-.045v-.001l.05-.041.004-.002Z" fill="#271FA9"/><path d="m6.836 1.829-.049.096c-.13.013-.273 0-.39.046-.288.116-.564.26-.845.391l-.046.038-.052.043-.091.052-.049-.05.097-.14.568-.286.857-.19Z" fill="#4E28B7"/><path d="m7.121 1.644-.049.04c0-.013.002-.027.005-.04a.173.173 0 0 1 .044 0Z" fill="#3E24CA"/><path d="m2.51 13.191.095.285c-.061.358-.275.565-.604.56l-.347-.319c.266-.076.42-.279.555-.498.061-.098.106-.207.158-.31l.143.282Z" fill="#0CB2DB"/><path d="M2.654 15.998c.237-.018.34-.2.393-.384.057-.194.055-.406.08-.61l.386.415c-.04.202-.063.41-.126.605-.022.07-.139.11-.213.165l-.52-.191Z" fill="#09BEDB"/><path d="M3.175 16.189c.074-.054.19-.094.213-.165.063-.195.086-.403.125-.605l.375.388.046.048v.002l-.158.512-.601-.18Z" fill="#0BA0C8"/><path d="m5.172 2.542-.473.367-.57-.295.236-.404c.196.289.506.3.807.332Z" fill="#3126C2"/><path d="m6.692 17.233.099.092c.122.289-.009.555-.066.825l-.177.074-.472.004c.16-.3.304-.606.283-.96-.004-.076-.027-.152-.042-.229l.278.149.053.035c.014.005.029.009.044.01Z" fill="#0CC9E0"/><path d="m6.548 18.224.177-.074c.057-.27.188-.536.066-.825l.548.306-.075.412-.049.091-.143.047-.14.004-.384.039Z" fill="#0B98C0"/><path d="M9.554.276c.307.016 1.01.589 1.228.837l-.56.2c-.248-.093-.502-.175-.744-.284C9.23.92 8.957.828 8.884.512l.67-.236Z" fill="#F562FA"/><path d="M8.883.512c.073.316.348.407.594.517.242.109.496.19.745.284l-.432.188-.054.033a.072.072 0 0 1-.043.013c-.336-.11-.674-.216-1.008-.333-.177-.062-.361-.125-.424-.336l.622-.366Z" fill="#DF50FC"/><path d="M8.26.878c.064.21.248.274.425.336.334.117.671.223 1.008.333l-.285.143c-.366-.096-.737-.176-1.095-.296-.144-.049-.259-.185-.387-.282L8.26.878Z" fill="#B740FD"/><path d="M7.926 1.112c.128.097.243.233.387.282.358.12.73.2 1.095.297-.08.048-.158.097-.237.146-.018.01-.035.022-.053.033a.204.204 0 0 1-.046.01c-.431-.016-.841-.111-1.197-.366-.08-.057-.122-.168-.182-.254l.05-.046.183-.102Z" fill="#9A39FB"/><path d="m1.52 10.243.136.429c-.065.056-.125.121-.196.167-.123.079-.253.145-.38.216l-.096-.095-.138-.24c.215.005.369-.101.493-.268.055-.073.12-.14.18-.21Z" fill="#11A1D2"/><path d="M15.916 2.44c-.111.465.088.874.236 1.291l-.472-.148a3.294 3.294 0 0 1-.504-1.254l.172-.027.568.138Z" fill="#E35CFC"/><path d="m15.349 2.302-.173.026c.08.451.25.87.505 1.255l-.24-.041-.098-.043a10.49 10.49 0 0 1-.682-1.279l.163-.01.525.092Z" fill="#C14DFD"/><path d="m14.823 2.21-.163.01c.198.443.426.87.682 1.28l-.235-.052c-.013-.037-.017-.082-.041-.109-.11-.121-.225-.238-.337-.356a1.87 1.87 0 0 1-.597-.817h.688l.003.043Z" fill="#9E44FB"/><path d="M2.367 5.016v.14c.03.3-.093.628.16.898l.413-.089-.001.665.094.666.047.238a.688.688 0 0 0-.353.733c.017.1-.014.207-.023.31a.099.099 0 0 1-.005-.043l-.041-.143-.01-.088-.036-.102-.01-.09-.037-.147-.048-.105-.144-.897-.058-.99c.002-.244.001-.489.008-.734.002-.074.028-.148.044-.222Z" fill="#0B216D"/><path d="M15.172 17.852c-.2.139-.366.35-.719.287l-.457-.37.11-.314.002-.031.004-.003.482-.28c.04.21.056.432.277.565l.433-.046-.016.087-.116.105Z" fill="#36EFF3"/><path d="M19.186 12.051c-.346.09-.874.427-1.229.426l.007-.238.235-.394.89-.219.07.282.027.143Z" fill="#5FA5F9"/><path d="m16.197 3.83.29.139-.14.217.235 1.161-.028.025.03.024-.003-.003.24.286-.308-.054c-.31.385-.4.772-.271 1.16l-.422-.247c-.017-.496.041-.974.279-1.43l.254.13c-.266-.46-.407-.936-.389-1.458l.094.005.049.04.09.005Z" fill="#C143FD"/><path d="m16.82 5.679-.239-.286.386.329-.058.006-.088-.049Z" fill="#9333D7"/><path d="m16.584 5.396-.03-.024.028-.025.002.049Z" fill="#9333D7"/><path d="m17.723 7.914-.287-.141-.05.001-.142-.134-.459-.394-.104-.096a.405.405 0 0 0-.005-.042l-.096-.167c.169-.365.446-.483.806-.357l.05.049c0 .016.003.03.012.044l.144.38.086.333.047.333-.002.191Z" fill="#F75CF5"/><path d="m17.725 7.723-.047-.333.688-.143.166.098.138.192c-.063.007-.126.01-.187.022-.253.053-.505.109-.758.164Z" fill="#A853F4"/><path d="M17.386 6.584c-.361-.126-.638-.008-.807.357l.097.167a.613.613 0 0 0-.045.004l-.39-.327c-.129-.388-.038-.775.272-1.16l.307.054c.03.016.06.032.088.049a.426.426 0 0 0 .014.042l.042.05.043.052.387.665a1.8 1.8 0 0 1-.008.047Z" fill="#E84BF8"/><path d="m17.386 6.584.008-.047.041.096-.05-.05Z" fill="#6633E2"/><path d="M17.725 7.723c.253-.055.505-.111.758-.164.061-.013.124-.015.186-.022l.194.283a5.77 5.77 0 0 0-1.073.309l-.067-.215.002-.191Z" fill="#C361EE"/><path d="m16.058 3.785-.094-.005c-.144-.052-.283-.15-.468-.04.003.376.164.706.325 1.036l-.058.003-.652-.573-.087-.242.037-.422h.379l.24.04.472.15.094.048-.049.05-.09-.006-.049-.04Z" fill="#8339F6"/><path d="m6.93 16.855-.095.002c-.482-.073-.954-.178-1.38-.43l-.135-.19c-.004-.203-.05-.415.182-.571.32.005.638-.008.956-.04l.526-.052.137-.008.52-.002h.192l.006.002c.147.411.079.812-.203 1.201l-.229.082-.476.006Z" fill="#0FF9F5"/><path d="M4.27 15.19c-.349-.142-.622-.385-.868-.66-.118-.133-.22-.28-.33-.42l-.036-.061-.004-.006-.05-.087-.002-.003c.034-.162.154-.24.299-.262.253-.038.51-.056.765-.082l.357.215.44.363c.108.341-.082.807-.427 1.044l-.145-.041Z" fill="#12F5F3"/><path d="M4.414 15.231c.345-.237.536-.703.428-1.044l.234.15.38.377-.185.702c-.116.006-.18.01-.242.012l-.478-.094a.068.068 0 0 0-.036-.008l-.057-.033a.107.107 0 0 0-.041-.013 12.909 12.909 0 0 1-.01-.039l.007-.01Z" fill="#0DDAE8"/><path d="M6.458 15.626a8.038 8.038 0 0 1-.956.04c-.232.155-.186.368-.182.571l.136.19-.67-.422v-.41l.245-.03 1.046.047.285-.004.096.018Z" fill="#0EC7DA"/><path d="m6.076 15.612-1.046-.047c-.2-.08-.4-.152-.643-.119l-.023.217-.329-.298.515-.031.478.095.713.09.333.001.002.092Z" fill="#116793"/><path d="m4.364 15.663.023-.217c.242-.033.443.04.643.12l-.244.029v.41l-.422-.342Z" fill="#0B97BD"/><path d="m4.27 15.19.144.042-.008.01a.123.123 0 0 0-.044.002l-.092-.054Z" fill="#0DDAE8"/><path d="m3.036 14.049.036.06a.138.138 0 0 1-.042-.013l.006-.047Z" fill="#0ED4EB"/><path d="M4.362 15.244a.121.121 0 0 1 .044-.003l.01.04-.054-.037Z" fill="#116793"/><path d="m17.246 14.615.011.051c-.035.075-.07.15-.107.224l-.046.06-.134.144-.041-.05.317-.43Z" fill="#1970A7"/><path d="m17.246 14.615-.318.429-.153.15a.743.743 0 0 0-.472-.434l.08-.521.065-.897.035-.344.133.113a2.763 2.763 0 0 0 1.21-.776v.436l-.062.463-.037.145a.054.054 0 0 0-.01.045l-.102.33-.37.864.001-.003Z" fill="#9DEAF3"/><path d="M16.303 14.76c.226.07.377.221.473.433l-.297.28-.038.036-.095.073-.149-.446.061-.28.02-.047.025-.049Z" fill="#78ECF2"/><path d="m16.197 15.136.15.446-.43.323-.09-.024.37-.745Z" fill="#4EDDEA"/><path d="m15.484 16.18-.235.236c-.077-.302-.146-.606-.239-.904-.023-.073-.122-.122-.186-.182l.476-.426c.155-.02.183.098.237.204.088.175.195.34.293.51l-.346.562Z" fill="#0BD3E4"/><path d="M15.83 15.618c-.098-.17-.204-.335-.293-.51-.053-.106-.082-.223-.236-.204l.239-.285.232-.071.338.5-.28.57Z" fill="#09BCD7"/><path d="m16.11 15.048-.338-.5-.233.071-.062-.005a.207.207 0 0 1 .018-.044l.042-.046.187-.235.199-.05.339.179-.057.392-.095.238Z" fill="#0996BD"/><path d="m16.205 14.81.057-.392-.34-.178-.197.05.239-.333h.312l.038.343.07-.062-.08.522-.026.049a.107.107 0 0 0-.031.001h-.041Z" fill="#0C71A0"/><path d="M16.246 14.81a.107.107 0 0 1 .032-.001l-.02.047a.146.146 0 0 1-.012-.046Z" fill="#0996BD"/><path d="M14.824 15.33c.064.06.163.11.185.182.093.298.162.602.24.904-.28.362-.654.61-1.033.852l-.155.104a.136.136 0 0 0-.045.015l-.05.033a.137.137 0 0 0-.045.014l-.054.031a.124.124 0 0 0-.042.011l-.05-.005a1.436 1.436 0 0 1-.286-.905l.194-.232.38-.481-.002.002.145-.193-.003.003.62-.335Z" fill="#0FF6F0"/><path d="M15.304 17.66c-.146.015-.292.03-.433.046-.22-.133-.237-.355-.277-.566l.42-.337c.074.087.178.163.215.263.06.16.158.24.318.261l-.243.333Z" fill="#1AE9EF"/><path d="M15.547 17.327c-.16-.021-.258-.1-.318-.26-.038-.101-.141-.177-.215-.264l.19-.189c.244.117.41.298.473.566l-.13.147Z" fill="#0ACBDD"/><path d="M15.677 17.18c-.062-.268-.229-.45-.473-.566l.254-.29.385.426-.022.245-.094.184-.05.001Z" fill="#09A6C6"/><path d="m9.879 18.702-.14.052-.23.021-.252-.59.051-.288v-.045l.09-.006h.299c.186.24.263.511.231.813l-.002.002a17.37 17.37 0 0 1-.047.04Z" fill="#0DD9EB"/><path d="M9.308 17.852v.045l-.243-.005.243-.04Z" fill="#0ACBE5"/><path d="m10.829 16.668-.374.046h-.47a.568.568 0 0 1-.107-.53l.757-.576.05-.039.002-.001.996-.716c.34.227.44.597.766.812l-.345.375-1.275.629Z" fill="#0FF6F2"/><path d="M11.787 19.135c-.373.082-1.006-.137-1.166-.485l.209-.386.098-.077.478-.289c-.112.36.08.718.474.894l.321-.05.246-.133-.438.418-.136.104-.086.004Z" fill="#34F0F3"/><path d="m8.5 17.855-.243-.047.407-.018.187-.783-.212-.253a.64.64 0 0 1 .006-.042l.092-.006.382-.003.094.006.52.1c.128.326-.003.61-.14.895l-1.093.151Z" fill="#0ACBE5"/><path d="m11.405 17.898-.478.289-.002-.431.099-.043.48-.092.33-.098.601-.25c.02-.01.038-.022.058-.033a.055.055 0 0 1 .04-.014l.153.504-.1.065-.95.013-.23.09Z" fill="#083269"/><path d="m11.503 17.62-.48.092-.245-.03-.038-.443.049-.048a.08.08 0 0 0 .04-.014l.05-.038.31-.197c.209.068.318.23.407.42l-.093.259Z" fill="#14E6EF"/><path d="M9.593 17.704c.137-.284.268-.57.14-.895h.455c.184.205.089.414.073.615l-.668.28Z" fill="#08A7CF"/><path d="m11.19 16.942-.31.197-.051.038a.08.08 0 0 1-.04.014v-.259h.026l.014-.264 1.274-.629.06.054-.72.629-.038.035-.003.004-.212.18Z" fill="#0C4776"/><path d="M9.928 18.659a1.094 1.094 0 0 0-.231-.813h-.299l.621-.038.238.08c.03.169.063.35.097.53l-.002.003-.046.045-.232.147-.146.046Z" fill="#0BBADA"/><path d="M10.26 17.424c.017-.2.112-.41-.072-.615h-.456l-.52-.1c.135-.03-.008-.07-.115-.138l.256-.1c-.047.117-.001.179.12.193l.835.097.206.083c.024.091.05.194.087.33l-.34.25Z" fill="#1289B2"/><path d="m10.308 16.761-.835-.097c-.121-.015-.167-.076-.12-.194l.282-.192.004-.002.057-.038a.086.086 0 0 0 .04-.012l.057-.034.084-.008a.568.568 0 0 0 .107.53h.471l-.147.047Z" fill="#14D4E4"/><path d="m10.74 17.24.039.443.245.03-.099.043-.704-.075c.155-.245.333-.349.52-.442Z" fill="#0AA3C4"/><path d="m10.354 18.419-.097-.53-.237-.081.566.052.073.352-.305.207Z" fill="#0B8ABA"/><path d="M8.64 16.754c.06.072.12.143.21.253l-.186.783-.407.018-.413-.058-.056-.03-.091-.016-.29-.138c-.118-.19-.249-.376-.142-.617l1.375-.195Z" fill="#0FE1F0"/><path d="m8.64 16.754-1.375.195-.146-.004-.188-.09.476-.006c.364.022.71-.051 1.047-.186l.14-.001.051.05a.658.658 0 0 0-.006.042Z" fill="#1289B2"/><path d="m7.12 16.945.145.004c-.107.241.024.427.142.617l-.43-.286.052-.33.09-.005Z" fill="#11B3DA"/><path d="m7.029 16.95-.051.33c-.123-.063-.166-.16-.122-.313l.173-.017Z" fill="#1289B2"/><path d="m18.341 9.624-.054.1a.433.433 0 0 0-.038-.013l-.02-.23-.03-.047-.006-.091-.238-.617-.193-.378-.002-.054h.058l.182.287.341 1.043Z" fill="#A06ABE"/><path d="m17.44 7.864.194.236-.01.007-.188-.188v-.051l.005-.004ZM17.819 8.294h-.059l-.136-.186.01-.008.185.194ZM17.386 7.774l.05-.001.004.09-.004.005-.05-.094Z" fill="#C361EE"/><path d="m18.193 9.343.006.09.03.048.02.23.035.056.066.526-.018.657-.045.292-.142.525a9.548 9.548 0 0 1-.026.042l-.161.296c-.01-.008-.02-.007-.027.004l-.025-.153c-.007-.078-.008-.156-.02-.233-.088-.551-.33-1.043-.591-1.527.132-.33.403-.457.751-.498l.147-.355Z" fill="#D8D4F9"/><path d="m17.957 12.105.161-.296.027-.042.142-.525.668.003.134.382-.89.218-.236.394-.005-.098a.136.136 0 0 0-.001-.036Z" fill="#488AF6"/><path d="m18.956 11.245-.669-.003.045-.292.028.082c.043-.22.158-.305.407-.24l.189.453Z" fill="#305FDE"/><path d="m18.284 9.767-.035-.056a.435.435 0 0 1 .038.014.068.068 0 0 1-.003.042Z" fill="#C5CEF9"/><path d="m14.107 17.424-.002.031-.022.004-.023-.004.047-.031Z" fill="#1085A8"/><path d="m11.443 16.722.72-.629.425-.524.144-.143c.455.12 1.077.198 1.522.094l-.05.146.002-.004-.145.193.001-.002-.383.41-.714.676-.095.064-.042.035-.296.188a.056.056 0 0 0-.04.014l-.057.034-.6.25c-.003-.082.025-.184-.014-.24-.127-.184-.278-.35-.42-.523l.004-.003.038-.036Z" fill="#5EF0F3"/><path d="M13.49 16.566c-.002.332.082.638.286.905a.159.159 0 0 1-.007.038l-.226.06-.197-.026-.189-.645.333-.332Z" fill="#10DAE5"/><path d="m11.636 17.808.95-.013c.217-.04.436-.045.655-.015l.036.084-.306.322h-.047l-.142-.328h-.528l-.618-.05Z" fill="#148FC0"/><path d="m13.157 16.898.188.645.197.026-.144.047-.28-.012-.201-.516.002-.002.046-.046.001-.001.046-.047.145-.094Z" fill="#0CB5D2"/><path d="m12.917 17.088.2.516.28.012-.42.062-.183-.17c-.022-.167-.06-.326.123-.42ZM13.157 16.898l-.144.094-.047-.053.713-.677.005.072-.194.232-.333.332Z" fill="#0D7EA6"/><path d="M13.769 17.51a.163.163 0 0 0 .007-.039l.05.005-.057.033Z" fill="#1085A8"/><path d="m11.636 17.808.618.05c.041.046.088.088.122.14.106.158.218.316.172.525l-.101.086-.246.133-.322.05c-.394-.176-.585-.534-.474-.894l.231-.09Z" fill="#10E1F2"/><path d="M12.548 18.523c.046-.209-.066-.367-.172-.526-.034-.05-.08-.093-.122-.139h.528l.142.328h-.001l-.047.047-.328.29Z" fill="#10BEE2"/><path d="m2.657 8.391.041.143a.297.297 0 0 1-.039-.011l-.002-.132ZM2.565 7.964l.036.147-.036-.147ZM2.704 8.578c.01-.104.04-.211.023-.31a.688.688 0 0 1 .353-.734c.162.316.468.23.733.26l.066.12.1.523-.394-.019-.032.166-.347-.49c-.16.118-.293.216-.41.3v.327l-.051.052-.037-.098-.004-.097Z" fill="#0B2D7E"/><path d="m2.745 8.773.052-.052.09.241.095.43.15.61-.486.249-.141-.147a306.8 306.8 0 0 0-.092-.145l-.044-.05a.31.31 0 0 0-.006-.044l.004-.05c.226.063.395-.051.585-.17l-.157-.495-.05-.377Z" fill="#094B88"/><path d="m2.795 9.15.157.494c-.19.12-.36.234-.586.172l.002.001-.096-.145.001.001-.149-.328c.173-.002.35.01.519-.016.058-.01.102-.116.152-.179Z" fill="#0B73AE"/><path d="m1.603 10.009-.065-.318.464-.34.222.322c-.274-.06-.5.062-.62.336Z" fill="#0B619B"/><path d="M1.604 10.009c.12-.274.346-.395.62-.336l.047.049.097.095-.001-.001-.004.05c-.092-.017-.183-.047-.275-.047-.262 0-.416.14-.436.38a.569.569 0 0 0-.043-.003l-.005-.187Z" fill="#0B73AE"/><path d="m2.27 9.722-.045-.049h.048v-.001l-.002.05Z" fill="#0B619B"/><path d="m2.51 13.191-.143-.283-.012-.086.244-.529.014-.013.018.004h.019l.007.006.19.232-.393.35.104.224.008.096H2.51Z" fill="#08548D"/><path d="m2.447 12.059-.46-.77v-.05c.002-.623.49-.506 1.011-.48l.566.802a1.388 1.388 0 0 1-.354.863h-.303l-.25-.134-.007-.007-.04-.04-.008-.007-.043-.04-.005-.005-.107-.132Z" fill="#0DF3F1"/><path d="M2.998 10.76c-.522-.027-1.009-.144-1.01.478a.515.515 0 0 1-.041-.006.068.068 0 0 0-.013-.035l-.141-.474c.122-.339.376-.493.762-.463l.01.043.193.125.24.332Z" fill="#0DD4E4"/><path d="m2.598 12.293-.036-.058.02.001h.02l.008.008a.113.113 0 0 0 .002.036l-.014.013Z" fill="#08548D"/><path d="M2.602 12.236h-.04a.086.086 0 0 1-.003-.04l.043.04Z" fill="#0EDBE7"/><path d="M1.946 11.232a.515.515 0 0 0 .041.006v.052l-.04-.058Z" fill="#0A5A93"/><path d="m2.757 10.428-.192-.125-.01-.043c-.387-.03-.64.124-.762.463l-.093-.336c.057-.083.096-.197.175-.244.195-.118.414-.12.63-.039l.141.147.111.177Z" fill="#0EAFD2"/><path d="M2.505 10.104c-.216-.081-.434-.08-.63.039-.079.047-.117.16-.174.244l-.049-.189c.02-.24.175-.38.437-.38.091 0 .183.03.274.047l.006.044.045.05.09.145Z" fill="#0C89BA"/><path d="M1.08 11.055c.127-.071.257-.137.379-.216.072-.046.131-.11.196-.167l.096.264-.44.378-.23-.259Z" fill="#0E81B8"/><path d="M4.044 13.61c-.255.025-.511.043-.765.081-.145.022-.264.1-.298.262l-.286-.57c.181-.193.426-.236.669-.284l.528.373.003.003.043.036.106.098Z" fill="#0ED4EB"/><path d="M3.363 13.099c-.243.049-.488.09-.668.285l-.13-.192-.007-.096.411-.321.394.324Z" fill="#109DCE"/><path d="M3.555 4.254c.249-.291.497-.583.747-.873.035-.042.076-.079.114-.118l.233-.148.314-.038.699.281-.338.616c-.79-.148-1.162.443-1.721.376l-.098-.001.002-.048.011.003.037-.05Z" fill="#6367FB"/><path d="M3.505 4.349h.098c-.052.201-.259.392-.052.611l.241-.04-.047.38-.05.616c-.22.049-.44.101-.65-.064l-.016-.223.007-.183.04-.099a.407.407 0 0 0 .006-.046l.041-.096.052-.192c.079-.178.155-.358.238-.535.022-.047.06-.086.092-.129Z" fill="#4465F0"/><path d="m3.175 5.013-.052.192-.041.096-.006.046-.04.098-.007.184-.089.336-.414.089c-.253-.27-.13-.598-.158-.897l.593.113.182-.317a.07.07 0 0 1 .032.06Z" fill="#132C8E"/><path d="m5.662 3.358-.698-.28-.315.037.003-.003.043-.038.094-.058.05-.041.006-.004.04-.036a.083.083 0 0 1 .042-.016l.054-.043.238-.24.048-.046.049-.047.047-.048.091-.052.714.241v.048l-.506.626Z" fill="#8173FC"/><path d="m17.245 14.618.37-.864.23-.128.131.05.078.273v.178l-.34-.266-.23.376-.239.381Z" fill="#1970A7"/><path d="m9.171 1.837.238-.147.284-.143c.016 0 .03-.004.044-.013L9.79 1.5l.432-.188.56-.2.238-.048.012.173.408.328-.285.034c-.432-.009-.864-.02-1.28.127l-.188.052-.14.05h-.002l-.669.375-.28.197-.192.186-.19.239-.189.192-.192.19h-.046l.062-.098.034-.038a3.408 3.408 0 0 1 1.028-.99l-.27-.014.003-.045.429-.142a.203.203 0 0 0 .046-.01l.052-.034Z" fill="#2C1896"/><path d="M11.155 1.6c.074-.01.149-.018.284-.034l-.407-.328-.012-.173.564-.147-.071.203c.398.312.74.714 1.22.944l-.101.05a.21.21 0 0 0-.044-.001l-.136-.1c-.16-.077-.313-.177-.48-.227-.268-.08-.544-.127-.817-.187Z" fill="#3A26C5"/><path d="m12.632 2.115.1-.05c.365 0 .73-.002 1.094-.003l.33.002.138.008-.735.114-.118.126-.705-.108-.104-.089Z" fill="#391AB0"/><path d="m14.156 2.064-.33-.002a.825.825 0 0 1-.002-.041l.332.043Z" fill="#7D39FC"/><path d="m12.736 2.204.704.108c.478.131.885.398 1.29.671.112.118.227.235.336.356.024.027.028.072.042.109l-1.237-.103a14.875 14.875 0 0 1-1.663-1.065l.022-.076h.506Z" fill="#CC5FFB"/><path d="m17.959 12.141.005.098-.007.238.06.951a59.712 59.712 0 0 1-.128-.097l-.152.197-.019-.104a.055.055 0 0 1 .01-.045l.037-.145.062-.463c.01-.239.022-.477.033-.715l.046-.1.025.153.028.032Z" fill="#142765"/><path d="m8.64 2.068.271.015a3.408 3.408 0 0 0-1.028.989l-.035.038-.061.098a.156.156 0 0 0-.04.007c-.142-.018-.295-.01-.425-.06-.186-.07-.356-.183-.533-.278l.001-.001.045-.038.141-.108.05-.04.43-.307.045-.03h.001l.475-.155.663-.13Z" fill="#B181FB"/><path d="m6.167 2.684-.713-.241.052-.043.046-.038c.28-.132.557-.275.845-.39.117-.048.26-.034.39-.047l-.043.095-.577.664Z" fill="#9C80FA"/><path d="m6.167 2.684.577-.664.024.178c.242.062.487.114.734.155h-.001l-.045.03-.43.307-.05.04-.141.108a.11.11 0 0 0-.042 0c-.058-.034-.114-.09-.175-.096-.149-.015-.3-.008-.45-.01l-.001-.048Z" fill="#1B1C87"/><path d="m13.87 3.345 1.238.103.235.051.097.043h-.38c-.222-.063-.443-.112-.653.052l.178.28-.048-.011-.049-.035a35.78 35.78 0 0 0-.047-.01l-.049-.037-1.04-.29-.096-.033-.191-.01a.09.09 0 0 0-.042-.008l.278-.084.57-.011Z" fill="#3828B6"/><path d="m3.879 7.915-.066-.12c-.265-.031-.57.055-.734-.261l-.046-.238h.784l-.07-.808-.005-.234V5.73h.528c-.034.08-.073.156-.1.238-.08.251-.155.505-.232.757l-.06 1.19Z" fill="#143195"/><path d="m3.741 6.254.005.234c-.05.046-.097.127-.15.13-.218.017-.438.01-.658.012l.002-.665.09-.336.014.223c.212.165.431.113.65.064l.047.338Z" fill="#2E57DC"/><path d="M2.938 6.63c.22-.001.44.006.658-.011.053-.004.1-.085.15-.131l.07.808h-.783l-.095-.666Z" fill="#2047B8"/><path d="M15.821 4.776c-.16-.33-.321-.66-.324-1.036.185-.11.324-.013.467.04-.018.522.123.999.39 1.458l-.255-.13c-.237.456-.296.934-.279 1.43l-.383-.233c.001-.253-.02-.508.011-.757.027-.215-.034-.467.183-.63l.352.043-.159-.139c0-.015 0-.03-.003-.046Z" fill="#A63FFD"/><path d="m15.437 6.305.384.233.421.247.39.327.049.038.104.096-.344.05h-.002l-.046-.046-.372-.39-.535-.372-.044-.035-.047-.013-.049-.034a18.208 18.208 0 0 0-.047-.017l-.001-.139.139.055Z" fill="#3B34B8"/><path d="m17.386 7.774.05.094v.051c-.092.045-.18.097-.274.132-.11.04-.226.067-.34.1l-.156-.427h.02l.386-.167.171.082.143.135Z" fill="#778AF5"/><path d="m17.244 7.64-.172-.082-.386.166-.246-.427.345-.051.459.394ZM16.68 7.15l-.05-.039a.618.618 0 0 1 .046-.003.38.38 0 0 1 .005.042Z" fill="#5666E4"/><path d="m14.537 3.863.048.012.526.33.652.574.011.047a1.048 1.048 0 0 1-.006.039l-.477-.079-1.325-.106c-.14-.504-.558-.845-.901-1.231l.19.01.097.031 1.04.291.05.037.046.01.049.035Z" fill="#A574FA"/><path d="m15.111 4.206-.526-.331c-.055-.088-.11-.176-.178-.281.21-.164.432-.115.654-.052l-.036.421.086.243Z" fill="#512FDB"/><path d="m15.775 4.826-.011-.047.057-.003c.003.015.004.03.003.046l-.004.003h-.045Z" fill="#5E33E7"/><path d="M8.454 16.662a2.387 2.387 0 0 1-1.047.187l.229-.082c.282-.39.35-.79.203-1.201l.235.05.454.194c.012.287-.013.57-.074.852Z" fill="#0CD2E3"/><path d="m8.074 15.616-.235-.05-.006-.001H7.122l-.145-.136c.533.11.93-.113 1.192-.671l-.336-.138a76.787 76.787 0 0 1-.14-.047.266.266 0 0 0-.047-.004l-.046-.037-.194-.008-1.279-.148-.1-.038-.094-.006-.05-.05v-.085l.472.093.145.046c.074.015.147.044.22.041.23-.01.46-.03.69-.048l.429.187.428.144.233.174a.739.739 0 0 0-.044.476l-.483.176.144.086-.043.044Z" fill="#0E5C94"/><path d="m6.976 15.429.145.136-.137.009-.623.034-.285.004-.002-.092c.18.01.249-.128.335-.244l.022.003.023-.002.047.015.053.036.232.052.19.049Z" fill="#144873"/><path d="m6.361 15.608.623-.034-.526.052-.097-.018Z" fill="#116793"/><path d="m5.882 14.197.001.084-.09-.004a40.347 40.347 0 0 0-.102-.036l-.667-.084.052.18-.234-.15-.44-.363c.102-.227.33-.265.528-.347l.004.004.042.044.759.577.053.05.053.035a.14.14 0 0 1 .041.01Z" fill="#09396D"/><path d="M4.93 13.477c-.199.082-.426.12-.529.347l-.358-.215-.106-.098-.043-.036-.002-.002.359.05.396-.38.283.334Z" fill="#0A5087"/><path d="m5.792 14.277.091.004.05.051c-.405 1.362 1.977.552 1.473.192l.194.008.046.037c.016 0 .031.001.047.004-.009.049-.005.105-.027.145-.246.438-.655.558-1.119.567a.171.171 0 0 0-.046.007l-.047-.015-.046-.041-.237-.096c-.131-.1-.229-.261-.428-.237l-.287-.19-.38-.376-.052-.18.667.084.101.036Z" fill="#0C9ACF"/><path d="m5.456 14.714.287.189c.058.05.115.1.175.15l-.177.466-.713-.09.243-.012.185-.703Z" fill="#0BB5D5"/><path d="m5.741 15.52.177-.467-.175-.15c.2-.024.296.137.428.237l-.096.38H5.74Z" fill="#0D86B7"/><path d="m17.86 12.056-.033.715v-.436a2.764 2.764 0 0 1-1.21.776l-.133-.113.091-.763c.41-.036.775-.2 1.123-.415l.054-.287.108.523Z" fill="#74E2F1"/><path d="m16.383 14.239-.07.061c-.01-.103-.02-.196-.037-.343h-.312l.434-1.143.05.528-.065.896Z" fill="#0E3D71"/><path d="m16.448 13.342-.05-.528c.09-.505.146-1.01.028-1.519l-.126-.392-.021-.133-.218-.48.001-.048.046-.047.094.096c.195.522.355 1.052.385 1.614l-.012.33-.091.763-.036.344Z" fill="#307AA0"/><path d="m14.204 15.665.05-.145.094-.144c.058.01.134.048.172.024.17-.105.331-.228.495-.345l.378-.39.084-.051.063.005-.24.285-.476.426-.62.335Z" fill="#1D9FB5"/><path d="m15.476 14.614-.084.052c.068-.26-.008-.398-.235-.426-.062-.008-.125-.002-.188-.002v-.092c.01-.017.02-.035.032-.052l.061-.379a.042.042 0 0 0 .004-.039l.038-.198.105-1.236.056-.524.057.216c.373.211.896.179 1.104-.064v-.575c.118.509.061 1.014-.029 1.52-.144.38-.29.76-.434 1.142l-.24.332-.187.235-.041.046a.208.208 0 0 0-.019.044Z" fill="#5EEFF2"/><path d="m13.684 16.334-.005-.072.383-.41-.378.482Z" fill="#1D9FB5"/><path d="m12.732 15.427-.144.142-.14.095c-.325-.215-.425-.585-.765-.812l.454-.395-.21.059.322-.476.197.243-.082.064c.284.22.525.459.51.846l-.142.234Z" fill="#0BDCE8"/><path d="m12.25 14.04-.324.476.211-.059-.454.395-.996.716a21.275 21.275 0 0 0-.047-.048l.48-.325.474-.434c.115-.124.23-.25.316-.341l-.081-.514.279-.199c.01.105-.018.234.148.245l-.006.088Z" fill="#1293B8"/><path d="m10.64 15.52.047.048-.001.001-.051.039-.757.576-.085.008-.057.034a.087.087 0 0 1-.04.012l-.057.038-.003.002c-.02-.009-.056-.023-.055-.026.05-.15.102-.299.154-.448l.71-.199.055-.027a.473.473 0 0 1 .043-.014l.054-.03a.22.22 0 0 1 .043-.014Z" fill="#114C77"/><path d="m12.449 15.664.14-.095-.426.524-.06-.054.346-.375Z" fill="#2C97A3"/><path d="M9.735 15.804c-.052.15-.105.298-.154.448-.001.003.035.017.054.026l-.282.192-.256.1c.107.069.25.109.116.14a29.603 29.603 0 0 0-.094-.007l-.383.003-.09.006a23.892 23.892 0 0 0-.051-.05l.097-.045.237-.096.439-.23-.055-.055.138-.424.284-.008Z" fill="#0D6292"/><path d="M11.401 16.761c.142.173.293.34.42.523.039.056.01.158.013.24l-.33.097.092-.258c-.089-.19-.198-.353-.406-.421l.211-.18Z" fill="#37EEF1"/><path d="m8.929 16.521-.238.096-.096.045h-.141c.06-.281.086-.565.074-.852l-.455-.194.044-.044.288.09.235.051.05.044.333.05-.094.714Z" fill="#07A9CA"/><path d="m18.193 9.343-.147.355c-.348.04-.619.168-.751.498l-.39-.565a.11.11 0 0 0 .001-.041c.224-.388.636-.496 1.002-.66l.048-.204.237.617Z" fill="#C5CEF9"/><path d="m17.955 8.726-.047.204c-.367.164-.779.272-1.003.66l-.086-.06.002.001-.004-.141c.033-.076.085-.149.093-.227.016-.146.006-.295.007-.442l.845-.373.193.378Z" fill="#AEBDFC"/><path d="m17.762 8.348-.845.373-.095-.57c.114-.033.23-.06.34-.1.094-.035.182-.087.273-.132l.188.189.136.186.003.054Z" fill="#94A7F9"/><path d="m16.905 9.63.39.566c.26.484.503.976.59 1.527.012.077.014.155.02.233l-.045.1-.108-.523-.088-.294-.037-.09v-.001l-.092-.24-.108-.28a16.323 16.323 0 0 0-.038-.05c-.07-.157-.11-.34-.324-.382l-.1.095-.04-.238-.026-.185-.037-.19.043-.047Z" fill="#204184"/><path d="m17.958 12.141-.027-.032c.007-.01.016-.012.026-.004a.14.14 0 0 1 .001.036Z" fill="#5FA5F9"/><path d="m12.732 15.427.142-.234.43-.476a.195.195 0 0 1 .046-.005l.044-.037.05-.011.045-.037.098-.054-.057.24c.1.09.928.377.818.563l-.094.144c-.444.104-1.066.026-1.522-.093Z" fill="#39F2F4"/><path d="m3.553 8.584.032-.166.394.02.05.098.416.86c.183.298.475.458.775.608l.093.055.05.042.093.049-.155.095-.123.467-.047-.04-.006-.007-.035-.04a.036.036 0 0 1-.02-.034l-.052-.057-.401-.442-.486-.659-.19-.238-.047-.05h.002l-.336-.474-.007-.087Z" fill="#082669"/><path d="m4.028 8.536-.049-.099-.1-.522.059-1.19c.033-.068.062-.139.101-.204.177-.293.5-.333.652-.081l.159.809c-.098-.118-.148-.316-.41-.2l-.53.49.128.987-.01.01Z" fill="#30A2F9"/><path d="m3.553 8.584.008.087c-.27-.007-.502.073-.674.291l-.09-.241v-.326c.116-.085.248-.183.41-.3l.346.489Z" fill="#105DB2"/><path d="m2.758 10.428-.112-.177.486-.25v.001l.035.052.193.341c.036.087.054.187.109.26.198.263.407.517.612.775l.046.047.002.002.046.046.001.001.047.046.002.002-.205.094-.086.386-.04-.052-.33-.44-.566-.802-.24-.332Z" fill="#08346C"/><path d="m3.941 9.195.19.238c-.045-.011-.09-.024-.136-.034-.472-.095-.815.159-.822.61a.224.224 0 0 0-.042-.007h.001l-.15-.61c.096-.233.34-.21.523-.279.114-.043.27-.086.39.032h-.001l.047.05Z" fill="#17AEE8"/><path d="M3.895 9.145c-.12-.118-.277-.075-.39-.032-.183.07-.427.045-.524.28l-.094-.431c.172-.218.404-.298.673-.291l.335.474Z" fill="#1A8BD7"/><path d="m2.27 9.722.002-.05.096.145-.097-.095Z" fill="#094481"/><path d="m3.563 11.561.33.44.04.052.01.082c-.055.372-.312.601-.58.824l-.516-.437-.19-.232.25.134h.303c.209-.24.337-.526.353-.863Z" fill="#0EDBE7"/><path d="m2.847 12.522.516.437c.095.078.19.157.287.235l.29.194c.42-.18.525-.315.474-.582l.234.338-.397.38c-.13-.02-.245-.035-.359-.051l-.528-.374-.394-.324-.412.321-.104-.223.393-.35Z" fill="#0C74A9"/><path d="M2.613 12.28a.114.114 0 0 1-.003-.036l.04.04H2.63l-.018-.004Z" fill="#0EDBE7"/><path d="m4.85 7.249-.159-.81c0-.408 0-.816-.002-1.225l.003-.106.157-.233.22-.385.256-.516.337-.616.507-.626c.15.002.301-.005.45.01.06.007.117.062.175.095a.188.188 0 0 0-.004.039c-.015 0-.03 0-.043.002l-.052.047-.528.658-.038.054-.004.007-.033.038-.023.048-.422.809-.19.57-.141.666-.086.385c.139.263.413.223.606.323l.24-.042-.181.349.207.266.216-.09-.05.189-.21.552-.114-.304c-.337.088-.467.306-.39.654l.045.76.006.14-.022.077-.074-.028-.147-.33L4.85 7.25Z" fill="#111971"/><path d="m5.325 3.974-.257.516-1.103-.103-.17.439-.002.093-.242.041c-.207-.22 0-.41.052-.61.56.067.93-.524 1.722-.376Z" fill="#485FFA"/><path d="m3.793 4.92.002-.094c.069.01.137.025.206.027.282.01.565.015.848.022l-.157.233-.228.191h-.719l.048-.38Z" fill="#2A46D5"/><path d="M3.745 5.3h.72l.227-.192c0 .036-.002.07-.003.106l-.42.516h-.527v.524l-.048-.338.051-.617Z" fill="#1C38B3"/><path d="M11.155 1.6c.273.06.55.107.817.187.167.05.32.15.48.228l-.007.094-.142.011-.092.038-.194.01-.092.036-.24.012-.045.037-.145.01-.045.038-.143.01-.047.037-.281.057c-.209.027-1.682-.087-1.434-.575l.003-.001.138-.05.188-.052c.417-.147.849-.136 1.28-.127Z" fill="#F84EF8"/><path d="M7.787 3.208h.046c-.041.28.255.328.356.491l-.233.333c.402.188.805.373 1.21.554l-.332.337-.145.139-.14-.001h-.543l.02-.047-.83-.492-.463.441a.127.127 0 0 0-.003-.046l.45-.799.42-.673.04-.054.112-.137.035-.046Z" fill="#141B7E"/><path d="M9.166 4.586a76.39 76.39 0 0 1-1.21-.554l.233-.333c-.101-.163-.398-.21-.356-.49l.192-.19c.045.374.38.365.661.463l-.358.208c.242.38.624.502.969.673l.439-.157.004.062-.441.269-.133.049Z" fill="#1D25A5"/><path d="m9.735 4.206-.439.157c-.345-.171-.727-.294-.968-.673l.357-.208c-.28-.098-.616-.09-.66-.464l.189-.192c.023.047.037.103.07.141.221.252.504.353.834.336l-.409.182c.297.31.654.534 1.072.672l-.046.049Z" fill="#2B2BC5"/><path d="M9.544 1.83c-.248.488 1.226.602 1.434.575a.293.293 0 0 0-.003.044l-.051.007-.05.034-.137.053-.051.01-.053.032-.233.094-.046.015-.05.037a.528.528 0 0 1-.046.001c-.411-.05-.83-.076-1.188-.313-.078-.051-.13-.142-.194-.215l.668-.374Z" fill="#D63EFB"/><path d="M8.876 2.204c.064.073.116.164.194.215.359.237.777.264 1.188.313l-.475.239c-.412-.01-.766-.184-1.106-.393-.046-.029-.055-.117-.081-.177l.28-.197Z" fill="#AB36FB"/><path d="M9.118 3.303c-.33.017-.613-.084-.833-.336-.034-.038-.048-.093-.071-.14l.19-.24c.053.075.09.176.162.218.301.177.616.323.979.31-.047.03-.094.062-.14.094l-.289.094h.002Z" fill="#632FEB"/><path d="M9.546 3.114c-.363.014-.678-.132-.98-.309-.071-.042-.108-.143-.162-.218l.192-.186c.026.06.036.148.082.176.339.21.694.383 1.105.394l-.237.143Z" fill="#8432F5"/><path d="m12.017 2.167.194-.009.092-.038.142-.01c.048 0 .095.002.143.004a.21.21 0 0 1 .044.001l.104.089h-.505l-.023.076c.53.391 1.085.746 1.663 1.065l-.57.011-.384-.001a.279.279 0 0 1-.044-.004c-.357-.413-1.062-.793-1.567-1v-.04l.144-.01.045-.038.145-.01.046-.037.24-.012.091-.037Z" fill="#A551FC"/><path d="m12.588 2.114-.143-.005.007-.094.136.099Z" fill="#CC5FFB"/><path d="m7.752 3.254-.113.137-.04.054-.418.673c-.394-.064-.775-.162-1.112-.388l.023-.048.033-.038.004-.007.038-.054.528-.658.052-.047a.275.275 0 0 1 .042-.001c.177.095.347.208.533.278.13.05.283.042.426.06 0 .013 0 .026.004.04Z" fill="#8371FC"/><path d="M7.751 3.254a.121.121 0 0 1-.004-.04.156.156 0 0 1 .04-.006l-.036.046Z" fill="#1D25A5"/><path d="M6.79 2.876c0-.013.001-.026.004-.039a.11.11 0 0 1 .041 0l-.045.039Z" fill="#8371FC"/><path d="M13.065 3.449c.343.386.761.727.901 1.23h-.617c-.278-.456-.69-.782-1.044-1.178l.023-.061h.696a.09.09 0 0 1 .04.009Z" fill="#8C63FC"/><path d="M13.024 3.44h-.696l-.023.061c.354.396.767.722 1.045 1.177-.195-.008-.401.064-.573-.09-.329-.399-.81-.649-1.087-1.089.39-.036.78-.07 1.168-.108.02-.002.04-.023.058-.036l.386.002-.278.083Z" fill="#6751F5"/><path d="m4.27 5.73.419-.516.002 1.226c-.152-.252-.476-.212-.652.081-.04.065-.068.136-.101.204.077-.252.152-.506.232-.757.026-.082.066-.159.1-.238Z" fill="#3789F4"/><path d="m15.436 6.305-.139-.055.002.002-.05-.098.001.002-.239-.38c-.034-.29-.086-.582-.005-.919l.625.06c-.218.164-.156.416-.183.63-.032.25-.01.505-.012.758Z" fill="#813BF7"/><path d="m15.63 4.918-.624-.06c-.08.336-.03.627.005.918l-.594-.545.043-.034.03-.37.802-.04c.159.025.318.052.476.078l.052-.04.004-.003.16.14-.353-.044Z" fill="#5E33E7"/><path d="m16.44 7.296.246.428h-.02c-.225-.033-.417.053-.6.168-.1.062-.193.133-.29.2a1.041 1.041 0 0 1-.034.01l-.06-.048-.475-.472a.566.566 0 0 1-.006-.047c.124-.256.336-.41.587-.524.083-.038.155-.1.233-.15l.372.389.046.045.001.001Z" fill="#A7BBFA"/><path d="M16.02 6.86c-.077.051-.15.113-.232.151-.251.115-.464.268-.587.524l-.055-.053-.042-.012-.043-.029-.184-.339-.013-.217.421-.351.015-.134-.002-.011.047.017.05.034.046.014.045.035.534.371Z" fill="#8EA5FA"/><path d="M15.297 6.25v.139l.003.011-.52-.162-.228.333.22.359-.336-.299a15.071 15.071 0 0 1-.04-.037l-.094-.06-.192-.168-.046-.193c.25.01.499.007.748-.013l.223.066.076-.172.14.102-.002-.002.05.098-.002-.002Z" fill="#577BEB"/><path d="M15.776 8.092c.097-.067.19-.138.29-.2.183-.115.375-.201.6-.168l.157.426.094.57c0 .148.01.297-.006.443-.009.078-.06.151-.093.227l-.235-.376-.07-.1-.215-.241.001.001-.523-.582Z" fill="#C5CEF9"/><path d="m15.291 4.786-.801.04-.095-.002-.36.017c-.01.113-.015.192-.021.27a33.386 33.386 0 0 0-.049-.012l-.046-.036-.048-.01-.05-.037a.196.196 0 0 1-.046-.008l-.051-.036-.564-.15-.143-.038-.147-.012-.189-.046-.283-.084.242-.024-.207-.173.344.144c.171.153.378.081.572.09l.617.001 1.325.106Z" fill="#29219F"/><path d="m15.82 4.825-.051.04.006-.04h.045Z" fill="#8339F6"/><path d="m8.266 14.66-.428-.144.46-.49.344-.117.57-.145.62-.225-.132.314.186.477c.105.014.24.033.376.05l-.29.139c-.448.121-.901.214-1.37.186l-.244-.034-.092-.011Z" fill="#58E6ED"/><path d="M7.407 14.524c.503.36-1.878 1.17-1.474-.192l.095.006.1.038 1.279.148Z" fill="#05B3E0"/><path d="M5.883 14.197a.142.142 0 0 0-.041-.01.194.194 0 0 0-.009-.04l.009-.01c.32-.138.536-.641.428-.993l.52.38c.032.294-.113.521-.276.75l-.159.016-.472-.093Z" fill="#0ACEE3"/><path d="M8.602 14.705c.47.028.922-.065 1.37-.186l.04.042-.337.172-.986.51a.1.1 0 0 0-.045-.005l-.098.042.002.014-.06.03a.041.041 0 0 0-.036.008c.009-.006.01-.014.004-.022a.739.739 0 0 1 .044-.476l-.233-.174.091.011.244.034Z" fill="#0B376C"/><path d="m6.788 13.524-.52-.38-.004-.004-.045-.04a.157.157 0 0 1-.011-.039l.03-.344h.266l-.167.352c.097.063.18.116.261.17l.048.045.002.002.048.043.67.422.126.224.013.268-.096.086c-.23.017-.46.039-.69.048-.072.003-.146-.026-.22-.041h.55c.05-.21.094-.402.14-.605l-.4-.207Z" fill="#0E8FB8"/><path d="m6.789 13.524.401.207-.14.605H6.5l-.146-.046.159-.015c.163-.23.308-.457.276-.75Z" fill="#0AB3D2"/><path d="m6.977 15.429-.19-.05c.11 0 .22.008.33-.002.38-.035.772-.273.716-.757l.336.138c-.261.558-.659.782-1.192.67Z" fill="#0779B7"/><path d="M7.832 14.62c.057.484-.336.722-.716.757-.109.01-.22.002-.33.003l-.232-.052a8.03 8.03 0 0 1-.007-.043c.464-.009.873-.129 1.118-.567.023-.04.019-.096.027-.145l.14.047Z" fill="#0695CF"/><path d="M7.41 14.33c.031-.03.063-.058.095-.087l.664-.273-.392-.108a391.109 391.109 0 0 1 .866-.006v.053l-.344.117-.461.49-.429-.187Z" fill="#30C3D9"/><path d="m8.406 15.662-.288-.09-.145-.086.483-.176c.007.008.005.015-.003.021l-.047.331Z" fill="#0CD2E3"/><path d="m6.074 15.52.096-.38.237.096a.17.17 0 0 1 .002.04c-.086.116-.156.255-.335.244Z" fill="#116793"/><path d="M6.41 15.276a.17.17 0 0 0-.002-.04l.047.04-.023.003-.022-.003Z" fill="#0695CF"/><path d="m6.547 15.285.008.043-.054-.036a.171.171 0 0 1 .046-.007Z" fill="#116793"/><path d="M6.208 13.061a.157.157 0 0 0 .011.04l.045.04.005.003c.108.352-.108.855-.428.993l-.106-.035-.76-.577-.041-.044-.004-.004-.283-.333-.233-.338v.004a.134.134 0 0 0-.004-.046l-.05-.188c.084-.049.165-.106.255-.143.135-.056.275-.097.413-.144h.001l.096.045.133.055.004-.001.053.038.005.003.086.056-.002-.002.053.04.71.494.041.044Z" fill="#0EF0F2"/><path d="m5.734 14.102.107.035-.009.011a.126.126 0 0 0-.044.005l-.054-.05Z" fill="#0ACEE3"/><path d="M5.788 14.153a.126.126 0 0 1 .044-.005.194.194 0 0 1 .009.039l-.053-.034Z" fill="#0E5C94"/><path d="m17.665 11.239.087.294-.054.287c-.348.215-.714.38-1.123.415l.013-.33.184-.52c.249.13.502.104.758-.073l.096-.164.002.001.037.09Z" fill="#48D9F2"/><path d="m16.772 11.386-.184.519c-.03-.561-.19-1.092-.386-1.614.18-.143.338-.333.614-.252l.084-.17.026.184-.016.808-.033.093-.007.144-.098.288Z" fill="#80CBF7"/><path d="M16.427 11.295v.575c-.208.243-.73.275-1.104.064l-.057-.216-.004-.523.069.227h.857c.053-.06.11-.121.154-.17l-.042-.35.127.393Z" fill="#43F1F4"/><path d="m16.3 10.903.042.348-.155.17h-.856l-.07-.226-.062-.524.073.1h1.007l.021.132Z" fill="#25EBF5"/><path d="m16.9 9.868-.084.171c-.276-.081-.435.109-.614.252l-.094-.096-.193-.333-.037-.043-.07-.096.542-.35-.014-.021.232-.033.015-.174.238.386-.001-.002.043.148.037.191Z" fill="#67C1FB"/><path d="M16.279 10.77H15.27l-.072-.099-.03-.052c.156-.135.051-.314.08-.47l.005-.431.046.24v.331h.762l.217.481Z" fill="#12CEEC"/><path d="M16.062 10.29H15.3v-.332l.52-.046.242.33v.047Z" fill="#0EAAD7"/><path d="m16.062 10.242-.242-.33c-.17-.181-.294-.418-.566-.478l-.113-.29.16.095.005.006.036.035.465.443.071.096.037.043.193.333-.046.047Z" fill="#12518F"/><path d="M14.348 15.376c.11-.186-.719-.472-.818-.564l.057-.239.096-.1-.32.11.139-.382a.137.137 0 0 1 .04-.01l.18.197.14-.057.273-.104.514.684.171-.245c.271.027.168.241.195.39-.164.116-.324.24-.495.345-.038.023-.114-.015-.172-.025Z" fill="#19EBF0"/><path d="M15.015 15.056c-.028-.149.076-.363-.195-.39 0-.018-.002-.035-.003-.052l.05-.19.102-.186c.063 0 .127-.006.188.002.227.028.303.167.236.426l-.378.39Z" fill="#3CEDF2"/><path d="m15.21 12.242-.106 1.236-.037.199a.042.042 0 0 1-.004.038l-.387-.34c.251-.441.412-.914.488-1.416l.045.283Z" fill="#0C3261"/><path d="m15.209 12.242-.045-.284-.023-.996-.134-.573-.241-.494-.267.063-.067-.336a31.2 31.2 0 0 1-.037-.085l-.011-.05-.069-.208.363.318.324.555.167.467.03.052.062.524.004.523-.056.524Z" fill="#1C80A8"/><path d="m14.97 14.238-.103.187c-.077-.271-.198-.508-.482-.617l.136-.19c.263.08.362.3.448.53v.09Z" fill="#0A81AB"/><path d="M14.969 14.148c-.087-.23-.185-.45-.448-.53l.154-.243.387.34-.062.379-.031.052v.002Z" fill="#0C5285"/><path d="m12.25 14.04.006-.087.037-.05c.06-.162.124-.324.18-.488.16-.465.29-.935.26-1.434l.048-.12c.335-.33.698-.41 1.096-.228v.37l-.091.529-.492.983-.229.297-.344.33-.274.14-.197-.242Z" fill="#11F8F5"/><path d="m12.447 14.283.274-.142c.102.043.232.061.299.135.115.129.191.292.284.441l-.43.476c.015-.387-.225-.625-.51-.846l.083-.064Z" fill="#0ABAD6"/><path d="m8.405 15.662.048-.33a.042.042 0 0 1 .036-.008l.06-.03-.002-.014.09-.002.052-.034.986-.51.336-.173.437-.136.412.054.26.716-.48.325a.22.22 0 0 0-.043.013l-.054.031a.462.462 0 0 0-.043.014l-.056.027-.709.199-.284.008-.428-.005-.332-.05-.05-.044-.236-.05Z" fill="#14F4F5"/><path d="m11.12 15.195-.26-.716-.412-.053c.556-.296 1.446-.796 1.52-1.508l.328-.261.15.487-.338.563-.279.2-.516.216.281.638-.474.434Z" fill="#14E4EC"/><path d="m11.594 14.761-.281-.637.516-.218.081.514-.316.341Z" fill="#0CB6D7"/><path d="m12.108 13.707.338-.563c.112-.233.14-.471.04-.717l.248-.447c.03.5-.102.97-.26 1.435-.056.164-.12.326-.18.489l-.038.049c-.165-.012-.137-.14-.148-.246Z" fill="#12769F"/><path d="m9.023 15.807.428.005-.137.424.054.055-.438.23.093-.714Z" fill="#0A89B4"/><path d="m16.862 9.677-.043-.148.086.06a.11.11 0 0 1 0 .042l-.043.046Z" fill="#4C73B2"/><path d="m16.821 9.531-.238-.386v-.13l.235.375.003.141Z" fill="#4C73B2"/><path d="m16.771 11.386.098-.288c.205-.125.401-.279.666-.19l.091.24-.096.163c-.257.178-.51.203-.759.075Z" fill="#2AC7EE"/><path d="M17.535 10.908c-.265-.089-.461.065-.666.19l.007-.144.034-.093.015-.808.039.238v.286h.425l.037.05.11.281Z" fill="#20A1DE"/><path d="M17.389 10.577h-.425v-.286l.1-.095c.214.043.254.225.325.381Z" fill="#1478C4"/><path d="M13.304 14.717c-.092-.149-.169-.312-.284-.44-.067-.075-.197-.093-.298-.136l.344-.33c.14.126.282.25.423.376l.013.014-.14.382.32-.11-.095.1-.098.054-.045.037-.05.01-.044.038a.195.195 0 0 0-.046.005Z" fill="#0B91BB"/><path d="M4.082 11.43c-.206-.258-.415-.512-.613-.776-.054-.072-.073-.171-.109-.258.149-.513.617-.413.965-.52l.292.217.402.441.052.057c0 .015.006.027.02.034.01.013.023.026.035.04l.005.006a.135.135 0 0 0 0 .041l.041.218c-.102.453-.369.7-.801.74l-.146-.096-.001-.002-.048-.046-.047-.047-.001-.001-.046-.048Z" fill="#0EF5F4"/><path d="m4.617 10.092-.293-.216c-.347.107-.815.007-.964.52l-.193-.342a.138.138 0 0 0 .006-.045c.007-.451.35-.705.822-.61.046.01.091.023.136.034l.486.66Z" fill="#11D6F3"/><path d="m5.362 8.676.147.33.096.283c-.285.232-.617.266-.954.235l-.206-.128-.417-.86.01-.01c.325.566.687.455 1.308.365l.016-.215Z" fill="#11A7E7"/><path d="m4.445 9.396.205.128c.337.03.67-.003.955-.235.08.13.162.259.258.413a1.352 1.352 0 0 1-.644.302c-.3-.15-.59-.31-.774-.608Z" fill="#1087C8"/><path d="m5.178 10.712.123-.467.156-.095.452.05.16-.233.04.04.53.67a14.54 14.54 0 0 1-.04.04l-.335-.186-.284-.143-.446-.154a1.45 1.45 0 0 0-.173.726v-.002c-.015-.016-.03-.032-.043-.049l-.146-.19.006-.007Z" fill="#0C397A"/><path d="m6.068 9.967-.16.233-.451-.05-.095-.049-.049-.042-.093-.055c.241-.043.456-.144.644-.302l-.259-.413-.096-.283.073.028.023-.076.132.248.19.428.15.322-.01.011Z" fill="#0F559D"/><path d="M5.13 10.712a.135.135 0 0 1 0-.04l.048.04-.007.008a.21.21 0 0 0-.04-.008Z" fill="#0C397A"/><path d="m5.362 8.676-.016.215c-.62.09-.983.2-1.308-.365L3.91 7.54l.53-.492c.262-.115.312.083.41.2l.512 1.428Z" fill="#13BFF9"/><path d="m4.225 11.574.146.097.749.528.054.036.046.008.102.087-.063.059-.133-.055-.096-.045H5.03l-.38-.239-.308-.21-.227.15-.08.246-.09-.101-.01-.08.086-.387.205-.094Z" fill="#0D5990"/><path d="M3.172 10.01c0 .014-.001.03-.005.044l-.036-.052a.217.217 0 0 1 .041.007Z" fill="#094B88"/><path d="m3.944 12.135.09.101c.08.14.162.278.24.412-.147.27-.339.463-.625.546l-.287-.235c.268-.223.525-.452.582-.824Z" fill="#0BBFDA"/><path d="M3.65 13.194c.285-.083.477-.275.625-.546-.08-.134-.16-.273-.242-.412l.08-.247.227-.15.309.211-.467.268.178.257.05.19-.028.022.033.023v-.004c.05.267-.056.402-.476.582l-.29-.194Z" fill="#0A99C3"/><path d="M6.733 4.963c.14-.133.28-.267.461-.442l.831.493-.02.047h.543a.044.044 0 0 1-.04.006l-.101.032-.184.063-.054.031-.048.014-.047.03-.052.015-.044.031-.526.306-.051.039-.228.205-.432.467-.24.329-.034.048-.017.047-.132.241-.217.091-.206-.266.18-.349.047-.048.048-.095.093-.38.138-.43.332-.525Z" fill="#100F69"/><path d="M6.07 3.73c.336.226.717.324 1.11.388l-.45.799c-.394-.03-.789-.059-1.083-.378l.422-.81Z" fill="#5963F9"/><path d="M5.553 8.057c-.076-.348.054-.566.39-.654l.114.304.21-.553c.33.263.697.397 1.13.317l.149-.176.051.053-.376.476-.218.078c-.354-.197-.648-.161-.881.108-.103-.128-.228-.118-.36-.056-.07.033-.14.068-.209.103Z" fill="#144FBA"/><path d="M5.647 4.539c.293.32.688.348 1.083.378.004.015.005.03.003.046L6.4 5.49c-.392.05-.727-.042-.945-.38l.191-.57Z" fill="#3852E8"/><path d="m7.546 7.295-.15.176c-.433.08-.798-.054-1.128-.317l.05-.189.133-.241c.032.022.062.048.097.065.332.161.655.36 1.05.223l-.005.094-.041.145c0 .015-.002.03-.006.044Z" fill="#1E62DC"/><path d="M4.848 4.875c-.282-.007-.565-.012-.847-.022-.07-.002-.138-.018-.206-.027l.17-.439 1.103.103-.22.385Z" fill="#3552EC"/><path d="M5.456 5.109c.218.338.554.43.945.38l-.137.428c-.095.016-.196.061-.283.043-.225-.047-.444-.121-.666-.185l.141-.666Z" fill="#2340C0"/><path d="M5.315 5.775c.222.064.44.138.666.185.087.018.188-.027.283-.043l-.094.38-.048.096-.046.048-.24.042c-.194-.1-.468-.06-.607-.323l.086-.385Z" fill="#1933A0"/><path d="m5.737 9.206-.131-.248-.006-.141V8.46l.57-.165.143.332.003.093c-.255.087-.519.165-.579.485Z" fill="#1875F4"/><path d="m6.17 8.296-.571.165v.356l-.046-.76c.07-.035.138-.07.209-.103.132-.062.257-.072.36.057l.003.093.043.097.002.095Z" fill="#165AE1"/><path d="M11.306 2.35c.505.208 1.21.588 1.567 1h-.522c-.078-.063-.152-.134-.236-.187-.378-.24-.76-.477-1.14-.714 0-.015.001-.03.004-.044.093-.02.187-.038.28-.057l.024.003h.023Z" fill="#8747FB"/><path d="m11.306 2.35-.023.001-.023-.003.047-.037a.52.52 0 0 0-.001.04ZM11.495 2.263l-.046.038.046-.038Z" fill="#CC5FFB"/><path d="m9.166 4.586.133-.05c.057.03.142.046.166.093.155.292.397.495.661.678l-.432.236-.054.039a.174.174 0 0 1-.042.01l-.052-.008c-.068-.034-.138-.065-.203-.104-.227-.133-.486-.238-.509-.557l.332-.337Z" fill="#1D7CF2"/><path d="m8.223 5.162.184-.063.102-.032a.044.044 0 0 0 .04-.006h.14l-.322.386-.285.474a.358.358 0 0 1-.022.041l-.886-.13.227-.204.051-.04.527-.305.043-.031.052-.016.048-.03.047-.013.054-.031Z" fill="#7391F7"/><path d="m8.367 5.447.322-.385.145-.139c.023.32.282.424.509.557.065.039.135.07.203.104v.047a.116.116 0 0 1-.036.007c-.413.184-.83.115-1.143-.19Z" fill="#186AE2"/><path d="M10.126 5.307c-.264-.183-.506-.386-.66-.678-.025-.047-.11-.062-.167-.092l.441-.269h.05c.494-.01.564.114.913.53l-.252.318.003-.002-.058.041-.27.152Z" fill="#268FF8"/><path d="M9.79 4.268h-.05l-.005-.062.046-.05.618-.33.43-.143.096-.043a.187.187 0 0 1 .044-.006l.042.213.307.203-.16.017a.08.08 0 0 0-.037.015h-.427l-.393.043-.095.03-.143.022-.05.025-.09.018-.05.03-.084.018Z" fill="#172091"/><path d="m10.399 3.825-.617.332a2.565 2.565 0 0 1-1.072-.672l.408-.182h-.002l.24-.047c.257.356.61.534 1.043.57Z" fill="#443BE6"/><path d="M10.976 2.449c.38.237.761.473 1.14.714.083.054.157.124.236.187h-.334l-1.258-.654-.023-.152.138-.053.05-.034.05-.008Z" fill="#663BEF"/><path d="m10.737 2.543.023.153 1.258.654-.248.003-.943-.236.16-.025a1.042 1.042 0 0 1-.587-.413l.234-.094.052-.032.051-.01Z" fill="#492FD5"/><path d="M10.4 2.68c.143.204.339.341.587.412l-.16.025-.709.005-.62.092-.096-.006.002.001.14-.095.238-.143.476-.239.046-.001.05-.037.046-.015Z" fill="#2F21AA"/><path d="m9.356 3.256-.24.047.288-.094-.001-.001c0 .015 0 .03-.002.046-.015 0-.03 0-.045.002Z" fill="#2F21AA"/><path d="m11.77 3.353.248-.003h.855a.279.279 0 0 0 .043.005c-.019.013-.037.034-.058.036-.389.037-.778.072-1.168.108-.14.037-.328.01-.332.23.216.12.388.28.516.48l-.372-.053-.05-.03-.28-.019a.232.232 0 0 1-.013-.04l.159-.017-.307-.203-.042-.213.711-.196.096-.045a.118.118 0 0 0-.007-.04Z" fill="#3828B6"/><path d="M11.874 4.21c-.128-.2-.3-.36-.517-.482.005-.219.192-.192.333-.229.278.44.758.69 1.087 1.09l-.343-.144-.136-.056-.038-.034-.386-.146Z" fill="#4139DC"/><path d="m14.396 4.824.095.002-.03.371c-.015.011-.03.022-.043.034l.594.545.239.38-.139-.102c-.049-.07-.09-.147-.149-.206-.17-.168-.347-.328-.522-.49l-.069-.161.024-.373Z" fill="#3C3AC9"/><path d="m15.062 7.441.043.03a.066.066 0 0 0 .041.01l.055.054a.527.527 0 0 0 .006.047 8.467 8.467 0 0 0-.004.05 450.84 450.84 0 0 1-.236-.101c-.171-.136-.37-.155-.577-.133-.19.09-.348.218-.472.386l-.046-.021-.05-.036-.092-.05-.253-.134c.293-.173.602-.29.95-.271.005 0 .011-.01.017-.016l.618.185Z" fill="#123699"/><path d="m15.776 8.092.523.582-.287-.238-.292-.33.022-.005.034-.01Z" fill="#427BC7"/><path d="m15.203 7.632.005-.05.474.472-.005.005-.38-.287-.094-.14Z" fill="#1951C0"/><path d="m15.682 8.054.06.047-.022.005h-.044l.001-.047.005-.005Z" fill="#1951C0"/><path d="m15.062 7.44-.618-.184-.289-.067-.106-.028-.082-.01.335-.617.094.06.04.037.336.299.105.172.185.339Z" fill="#C8E2ED"/><path d="m14.877 7.102-.106-.172-.22-.359.23-.333.519.162-.015.134-.42.35.012.218Z" fill="#7292F8"/><path d="M15.146 7.482a.066.066 0 0 1-.042-.012l.042.012Z" fill="#1951C0"/><path d="m14.302 6.534-.336.617-.666-.044c-.087-.46-.205-.729-.426-1.151l.899.25.337.16.192.168Z" fill="#A7DFEA"/><path d="M14.441 5.357c.175.163.352.323.522.491.06.059.1.137.149.206l-.077.172-.223-.065-.511-.101-.193-.042-.133-.011a.187.187 0 0 1-.01-.039c.04-.291.122-.585-.042-.867l.022.002.021-.004.048.012.427.246Z" fill="#4C94F7"/><path d="m14.3 6.06.512.1c-.249.02-.498.024-.748.013l.046.193-.337-.16.045-.091.483-.055Z" fill="#2C4AAC"/><path d="m16.012 8.436.286.238-.001-.001.215.24.07.101v.131l-.015.174-.232.033.014.021-.542.35-.465-.443-.037-.035-.004-.006.754-.607-.043-.196Z" fill="#4AB4FB"/><path d="m10.126 5.307.27-.152.058-.041-.003.002.853-.339.103-.023.045-.022.946-.09.283.085-.804.053c-.216-.001-.404.04-.467.285a.67.67 0 0 0 .37.473l-.06.054c-.061-.012-.123-.024-.184-.038a3.128 3.128 0 0 0-1.467-.01l-.285.057-.045.021-.058.013-.04.027-.096.024-.036-.048a.116.116 0 0 0 .036-.007l.053-.04a.174.174 0 0 0 .041-.01l.055-.038.432-.236Z" fill="#0B226B"/><path d="M13.923 5.101c.165.282.082.576.041.867h-.188l-.097-.014-.225-.106a5.814 5.814 0 0 0-.575-1.065l-.008-.01.146.01.144.04.564.15.051.035c.015.004.03.007.046.008l.05.037.048.01a.708.708 0 0 1 .003.038Z" fill="#2E8AF4"/><path d="m11.878 4.78.804-.054.189.046.008.01h-.577c.12.459.431.75.665 1.089l-.52-.05c-.12-.144-.248-.282-.36-.432-.134-.179-.298-.352-.209-.61Z" fill="#1352B9"/><path d="m12.398 4.642-.945.09-.045.021-.103.024c.09-.118.27-.182.217-.445a1.664 1.664 0 0 0-.828-.25h.427l.052.025.279.02.05.03.373.052.385.146.039.034.135.056.206.173-.242.024Z" fill="#509DF3"/><path d="m14.44 5.357-.426-.246.021-.27.36-.017-.024.373.07.16ZM13.923 5.101a.709.709 0 0 0-.003-.038l.046.036-.021.004-.022-.002Z" fill="#3429C4"/><path d="m10.263 14.38-.376-.05-.186-.477c.04-.098.086-.206.132-.314l.14-.07c-.094-.06-.185-.115-.276-.171l.294-.102.547-.293c.362-.082.405-.06.521.279l.249.013c-.3.05-.59.137-.87.264.096.253-.14.506.01.76l.25-.026-.435.188Z" fill="#3DEFF4"/><path d="M8.643 13.91v-.054c.235-.202.253-.51.046-.803l.52.145c.04.127.082.255.121.374l-.2.162.081.03-.568.145Z" fill="#0AA9CF"/><path d="m9.211 13.764-.081-.03.2-.162-.122-.374.054-.008.434.108.276.17-.14.07-.62.226Z" fill="#1184AF"/><path d="m10.262 14.38.435-.187c.595-.212.945-.664 1.184-1.222l.086-.053c-.074.712-.963 1.212-1.52 1.508l-.436.135a48.93 48.93 0 0 0-.038-.042l.29-.138Z" fill="#1C95AA"/><path d="m8.637 15.278-.09.002.098-.042a1.28 1.28 0 0 0-.008.04Z" fill="#0E5C94"/><path d="M8.637 15.278a1.23 1.23 0 0 1 .008-.04c.015-.002.03 0 .044.006l-.052.034Z" fill="#0CD2E3"/><path d="m8.12 13.86-.343.002-.41-.111-.67-.422-.049-.043-.001-.002-.048-.045c.013-.233.187-.346.356-.482h.51l.704.158c.05.045.099.09.144.133-.013.294-.023.571-.193.811Z" fill="#12ECF3"/><path d="m8.17 12.915-.706-.158-.96-.04h-.266l-.03.345-.041-.045c-.03-.102-.058-.205-.099-.35.414.004.828-.008 1.24-.034a.117.117 0 0 1 .047-.008l.86.187.71.208.048-.602.106-.045.482.192-.205.054c.01.21.127.425-.093.57l-.055.009-.519-.145-.52-.138Z" fill="#096192"/><path d="m6.505 12.717.96.04h-.51c-.169.136-.343.249-.356.481l-.261-.169.167-.352Z" fill="#1CC7E2"/><path d="m7.366 13.75.41.112.393.108-.664.273c-.005-.1-.01-.2-.012-.268l-.127-.224Z" fill="#116393"/><path d="m8.169 12.915.52.138c.207.292.189.6-.046.803l-.524.003c.17-.24.18-.517.194-.811l-.144-.133Z" fill="#08C9E2"/><path d="M7.309 12.633c-.413.026-.827.038-1.24.034l.098.35-.71-.493-.053-.041.002.002-.086-.056-.005-.003-.053-.038H5.26l.062-.058a.427.427 0 0 1 .04.01l.053.04a.235.235 0 0 1 .042.009l.054.039.232.052.507.123.251-.408.003.002.052.04.52.292.091.04.003.012.052.035.088.017Z" fill="#0C4277"/><path d="m4.36 12.575-.177-.257.466-.268.38.238c-.138.048-.279.09-.413.145-.09.037-.171.094-.256.142Z" fill="#0DC4E1"/><path d="m4.415 12.81-.033-.023.028-.023c.004.015.006.03.005.046Z" fill="#0C74A9"/><path d="m13.477 7.543.253.135.092.05v-.001l.05.036.046.021.333.24.239.225.282.286.368.608.114.291v.284l-.005.43-.247.004-.324-.555c-.046-.076-.082-.162-.14-.227-.087-.097-.19-.179-.286-.267-.124-.377-.315-.69-.757-.757a3.39 3.39 0 0 1-1.626-.047l-.271-.192c.398-.137.795-.277 1.194-.41.183-.062.37-.11.556-.164l.095.002c.01.007.022.01.034.008Z" fill="#15F2F7"/><path d="m15.255 9.718-.001-.284c.272.06.396.297.566.478l-.52.046-.046-.24Z" fill="#1089C0"/><path d="m15.002 10.152.247-.004c-.029.157.077.336-.08.47l-.167-.466Z" fill="#25EBF5"/><path d="m15.14 9.143-.367-.608.902-.43h.044l.293.33.043.197-.754.607-.16-.096ZM15.306 9.245l.036.035-.036-.035Z" fill="#21A1FB"/><path d="m14.675 13.375-.155.243-.136.19-.087.096-.436.427-.139.057-.181-.197-.001-.096.044-.144c.172-.442.236-.904.249-1.374l.15-.903c.033-.016.083-.024.097-.05.108-.206.209-.415.312-.623l.055.194.484-.044.21-.19.022.998a4.077 4.077 0 0 1-.488 1.416Z" fill="#51F2F5"/><path d="M13.862 14.33c.146-.141.291-.284.436-.426.18.219.418.398.476.7.001.006.029.007.044.01l.003.052-.172.245-.514-.684-.273.104Z" fill="#0BCFE0"/><path d="m13.54 14.095.002.096a.137.137 0 0 0-.04.01l-.013-.014.052-.092Z" fill="#0B91BB"/><path d="M14.818 14.614c-.016-.003-.043-.005-.044-.01-.059-.302-.297-.481-.476-.7l.086-.096c.284.109.406.346.483.617l-.05.189Z" fill="#0AA7C6"/><path d="M14.392 11.001c-.103.208-.204.417-.312.623-.014.026-.063.034-.096.05l-.199-.868-.024-.09-.028-.047-.013-.047-.03-.053-.098-.188-.186-.295a.037.037 0 0 0-.018-.033 16.432 16.432 0 0 1-.036-.053l-.002-.045c.468-.092.803.053 1.034-.468l.01.05.038.085.067.336-.008.666-.099.377Z" fill="#9BE9EC"/><path d="M14.252 9.103c.096.088.199.17.285.267.059.065.095.15.141.227l-.363-.318c-.057.002-.123-.014-.171.009-.549.26-1.138.134-1.51-.327.2-.027.4-.066.601-.08.359-.024.752-.186 1.017.222Z" fill="#56EFF1"/><path d="M12.635 8.961c.371.461.96.586 1.509.327.047-.023.114-.007.171-.009l.069.208c-.232.521-.566.376-1.035.468-.03-.044-.056-.092-.091-.132-.172-.197-.347-.392-.52-.588-.05-.069-.095-.14-.148-.206-.08-.102-.166-.201-.25-.301l.295.233Z" fill="#76EBEF"/><path d="m14.392 11.001.098-.376c.126-.18.326-.198.517-.236l.133.573-.21.19-.483.043-.055-.194Z" fill="#2FEBF2"/><path d="M15.007 10.39c-.19.037-.39.055-.516.234l.008-.666.267-.063.241.494Z" fill="#21C5E0"/><path d="m11.967 12.918-.086.053-.482.173-.319-.076c.189-.29.376-.581.56-.874l.205-.288-.035-.055-.365.197c.299-.406.617-.769.814-1.235l.226.245.38-.242.017.047v.377l-.016.24-.085.381-.047.12-.247.446-.191.23-.329.26Z" fill="#B3E8F4"/><path d="m12.781 11.861.085-.38c.26-.275.585-.364.953-.33.071.281.155.56.058.852v-.37c-.398-.182-.761-.103-1.096.228Z" fill="#0CD5E3"/><path d="M13.834 12.577c-.013.47-.077.932-.25 1.374l-.29-.436.492-.983.048.045Z" fill="#0D4573"/><path d="m13.294 13.515.29.436-.043.144-.052.092-.424-.375.229-.297Z" fill="#096A9E"/><path d="m13.833 12.577-.047-.045.09-.529c.098-.292.014-.57-.057-.851l-.09-.289.056-.057.199.868-.15.903Z" fill="#117DA9"/><path d="m12.296 12.657.19-.23c.1.246.071.484-.04.717l-.15-.487Z" fill="#0FBFD6"/><path d="M5.219 12.243a.77.77 0 0 1-.045-.008 16.993 16.993 0 0 1-.055-.036l-.749-.528c.432-.04.7-.288.801-.741l-.04-.218a.21.21 0 0 1 .04.008l.146.19.043.049.239.332c-.012.134.01.282-.042.397-.089.196-.223.371-.338.555Z" fill="#0BD5E6"/><path d="m6.64 10.677-.532-.669a.126.126 0 0 0 .005-.043c.296.237.63.415 1 .532l-.04-.252c.09.117.174.237.27.348.049.057.116.099.175.148l.118.262-.372.144-.625-.47Z" fill="#18A3EB"/><path d="m6.263 10.531.336.185.144.143-.256-.053c-.232.24-.442.494-.458.86l-.1-.088-.099-.14-.068-.2c.104-.273.234-.539.501-.707Z" fill="#10CBE0"/><path d="M6.263 10.531c-.267.168-.397.434-.501.707l.068.2a.95.95 0 0 1-.04-.006v.001l-.048-.048-.049-.048.002.002-.05-.05.002.002-.141-.332a.77.77 0 0 1 .473-.571l.284.143Z" fill="#0E91BF"/><path d="M5.98 10.388a.77.77 0 0 0-.474.57l.141.333H5.6l-.238-.331a1.45 1.45 0 0 1 .173-.726l.445.154Z" fill="#0B6199"/><path d="m6.744 10.86-.144-.144.04-.039.624.47-.05.053-.47-.34Z" fill="#196FB1"/><path d="M6.112 9.965a.126.126 0 0 1-.004.043l-.04-.041.01-.011a.343.343 0 0 0 .034.009Z" fill="#0F559D"/><path d="M6.112 9.965a.346.346 0 0 1-.034-.009l-.15-.322c0-.256.25-.288.373-.434h.193l.162.282.036.049h.001l.324.578.056.136.04.252a3.064 3.064 0 0 1-1-.532Z" fill="#11BEF9"/><path d="M6.494 9.2h-.193c-.122.146-.373.178-.373.434l-.19-.428c.06-.32.322-.398.578-.485l.04.096.138.383Z" fill="#149CFB"/><path d="M5.599 11.291h.048l-.001-.002.049.05-.002-.002.05.049-.002-.001.049.048h-.001l.14.145.1.088a.08.08 0 0 1 0 .037l.129.271a2.306 2.306 0 0 1-.416.506l-.233-.052-.053-.04a.235.235 0 0 0-.042-.008 240.75 240.75 0 0 0-.053-.04.462.462 0 0 0-.04-.01 77.935 77.935 0 0 0-.102-.087c.115-.184.25-.359.338-.555.051-.115.03-.263.042-.397Z" fill="#0BA0C8"/><path d="M7.597 7.012c-.394.137-.718-.062-1.049-.223-.035-.017-.065-.043-.098-.065l.016-.047.036-.048.239-.329 1.037.232-.18.48Z" fill="#286FEE"/><path d="M7.778 6.532 6.741 6.3l.433-.467.886.13-.271.574-.011-.005Z" fill="#4D7CF8"/><path d="m7.22 7.824.377-.476.004-.004.045-.04.614-.352.522-.134.569.057c0 .03.002.059.004.088l-.046.049-.05.045-.049.046-.049.046-.466.438-.435.707-.103.189c-.291-.048-.583-.092-.873-.146-.09-.016-.176-.06-.264-.09l.149-.338.03-.04.022-.045Z" fill="#0FE8F8"/><path d="m7.22 7.824-.02.045-.031.04-.15.337-.088.097c-.198.066-.396.13-.592.2-.017.006-.019.056-.027.085l-.143-.332-.001-.095-.043-.097-.004-.093c.234-.27.528-.306.882-.11l.217-.077Z" fill="#0F449A"/><path d="m8.26 6.952-.613.353-.046.04-.004.003-.051-.053a.177.177 0 0 0 .006-.044l.042-.145c0-.031.002-.063.004-.094l.18-.48.01.005c.17-.124.271.061.408.094l.125-.057-.06.378Z" fill="#0A2A77"/><path d="M6.313 8.628c.008-.029.01-.079.026-.085.196-.07.395-.134.593-.2l-.01.048-.032.058-.01.128-.095.477-.044.24c-.015.08-.032.159-.048.238V9.53l-.037-.049-.162-.282-.138-.383-.041-.097-.003-.092Z" fill="#0C3680"/><path d="m9.598 5.591-.053.04v-.047l.053.007Z" fill="#1559C0"/><path d="m8.26 6.952.06-.378-.124.057c-.137-.033-.239-.218-.408-.094l.272-.575a.358.358 0 0 0 .021-.041c.178.085.341.192.49.32l.318-.179-.204.233c-.247.149-.3.252-.23.447.108.025.217.05.327.077l-.523.133Z" fill="#1044A1"/><path d="m8.89 6.062-.318.18a2.225 2.225 0 0 0-.49-.321l.285-.473c.313.305.73.374 1.142.19l.037.048-.047.05-.564.333-.046-.007Z" fill="#1559C0"/><path d="M10.694 4.082c.299.01.575.094.828.25.052.263-.127.327-.218.445l-.853.339.252-.317c-.35-.417-.419-.54-.914-.531l.083-.018.05-.03.092-.018.05-.025.142-.023.095-.029.393-.043Z" fill="#359AF9"/><path d="m9.355 3.256.046-.002.097-.04.62-.092c.028.043.047.101.086.127.207.135.42.262.63.391a3.144 3.144 0 0 0-.005.043l-.43.142c-.433-.035-.787-.213-1.044-.57Z" fill="#6E4FF6"/><path d="M10.835 3.64c-.211-.13-.424-.256-.63-.39-.04-.027-.059-.085-.087-.128l.709-.005.942.236a.115.115 0 0 1 .007.04l-.096.045-.711.196a.186.186 0 0 0-.044.006h-.09Z" fill="#945FF8"/><path d="M10.835 3.64h.09l-.096.043.006-.043Z" fill="#3828B6"/><path d="m11.172 4.107-.052-.025a.08.08 0 0 1 .038-.015.232.232 0 0 0 .014.04Z" fill="#359AF9"/><path d="m10.063 4.177-.05.025.05-.025Z" fill="#268FF8"/><path d="m9.498 3.214-.097.04.002-.046.095.006Z" fill="#443BE6"/><path d="m14.49 8.248-.239-.224c-.004-.037-.022-.1-.009-.108.236-.138.418-.381.725-.385l.236.1.095.141c-.168.08-.341.153-.502.245-.11.062-.204.153-.306.231Z" fill="#1D6CE1"/><path d="M14.967 7.53c-.307.005-.489.248-.725.386-.013.008.005.07.01.108l-.334-.24c.124-.168.282-.296.472-.386.208-.022.406-.003.577.133Z" fill="#1951C0"/><path d="M13.478 7.543a.053.053 0 0 1-.034-.008l-.095-.047-.001-.001-.044-.09-.19-.29h.186l.667.044.082.01.106.028.29.067c-.007.006-.013.016-.018.016-.348-.018-.657.098-.95.27Z" fill="#122369"/><path d="M14.49 8.249c.101-.079.195-.17.306-.232.16-.092.334-.164.501-.245l.38.287-.002.046-.902.43-.283-.286Z" fill="#1D88F2"/><path d="M13.3 7.106h-.186l-.811-.662c.076-.221-.032-.377-.186-.516l.758.028c.22.422.34.69.425 1.15Z" fill="#77D4E9"/><path d="m12.874 5.956-.757-.028-.613.14-.098-.045c.24-.075.48-.15.742-.23l-.428-.2.06-.055.667.283.52.05.712.083.096.015.2.038.133.011.192.042-.483.055-.044.092-.899-.251Z" fill="#1D3F74"/><path d="m13.976 6.007-.2-.038h.188a.18.18 0 0 0 .011.038Z" fill="#2C4AAC"/><path d="m11.72 5.592.428.2c-.261.082-.502.156-.742.23l-.814.277-.186.003-.05.028-.096.033.12-.547-.31-.272c.49-.118.978-.104 1.467.01.06.014.122.026.183.038Z" fill="#7ED0EA"/><path d="m10.07 5.544.31.272-.12.547-.475.234c.023-.326-.147-.589-.286-.861l.047-.05.095-.024.04-.027.059-.013.045-.021.285-.057Z" fill="#5BC7E9"/><path d="m12.447 5.821-.667-.283a.67.67 0 0 1-.37-.473c.063-.244.252-.286.467-.285-.089.257.075.43.21.609.112.15.239.289.36.432Z" fill="#0E388E"/><path d="m13.679 5.954-.712-.083c-.234-.339-.545-.63-.665-1.088h.577c.229.336.42.69.575 1.065l.225.106Z" fill="#1E73E4"/><path d="m11.4 13.144.481-.173c-.239.558-.588 1.01-1.184 1.222l-.249.026c-.15-.254.086-.507-.01-.76.28-.127.57-.215.87-.264l.091-.051Z" fill="#1EF0F2"/><path d="m11.4 13.144-.092.051-.25-.013c-.115-.339-.158-.361-.52-.28l.101-.09c.241-.186.484-.369.722-.559.087-.07.159-.167.28-.06-.185.294-.372.585-.56.875l.319.076Z" fill="#5DE4FD"/><path d="M9.56 12.565c.058.05.133.09.17.152.083.146.147.303.22.455l.004.003a.206.206 0 0 0 .036.021l-.293.102-.434-.108c.22-.146.102-.36.093-.572l.205-.053Z" fill="#144C7E"/><path d="m8.215 12.812-.86-.187.01-.013h.196c.226-.37.249-.466.229-.944l.615.386c0 .165.01.33-.004.493-.01.113.001.265-.186.265Z" fill="#0BBAD6"/><path d="M8.215 12.812c.187 0 .175-.152.186-.265.015-.163.003-.329.003-.493l.049-.002.626.32-.105.046-.048.602-.711-.208Z" fill="#0B8FBA"/><path d="m7.31 12.633-.089-.017a.331.331 0 0 1-.005-.038l.149.034-.01.013a.117.117 0 0 0-.046.008Z" fill="#0BBAD6"/><path d="m7.364 12.612-.148-.034a.094.094 0 0 0-.047.003l-.003-.012-.091-.04-.52-.292-.052-.04-.003-.002-.47-.492a.08.08 0 0 0 0-.037c.015-.366.226-.62.457-.86l.256.053.47.34.085.044.06.053.045.044.386.328c.02.478-.002.574-.228.944h-.197Z" fill="#0DEFEF"/><path d="m6.03 11.702.47.493-.251.408-.507-.123c.163-.15.302-.318.416-.506l-.128-.272Z" fill="#086EA0"/><path d="M7.169 12.581a.094.094 0 0 1 .046-.003.333.333 0 0 0 .006.038l-.052-.035Z" fill="#096192"/><path d="M12.341 8.727 11.87 8.3a3.39 3.39 0 0 0 1.626.047c.443.068.633.38.758.757-.266-.408-.659-.246-1.017-.222-.201.014-.4.053-.6.08l-.295-.234Z" fill="#3BEEF2"/><path d="m11.46 8.015-.152-.101c.25-.23.555-.329.883-.383.23-.037.455-.094.682-.142l.047.007.143.041.284.05.002.001a.445.445 0 0 0-.001.045c-.186.054-.373.102-.556.163-.4.134-.796.274-1.194.411l-.013-.009-.043-.034-.06-.032a.025.025 0 0 0-.022-.017Z" fill="#0CC6E8"/><path d="M13.348 7.533v-.045l.095.047-.095-.002Z" fill="#136FA9"/><path d="m12.576 9.453.162-.218c.173.196.348.39.52.588.035.04.061.088.091.132a.99.99 0 0 1 .002.046l.036.052a.036.036 0 0 1 .018.033c-.031.015-.062.031-.094.045l-.483.208a.047.047 0 0 1-.006-.04l-.036-.102-.058-.14-.094-.286-.058-.318Z" fill="#0A2668"/><path d="m13.786 10.806-.057.057-.114-.239c-.249.065-.493.144-.733.239l-.017-.047.01-.143c.078-.071.145-.175.236-.206.152-.053.32-.06.481-.086l.098.188.03.053c.005.015.01.031.013.047l.028.048.025.09Z" fill="#065A96"/><path d="M13.592 10.381c-.161.026-.33.033-.481.086-.092.031-.158.135-.236.206l-.047-.334.483-.208c.032-.014.063-.03.095-.045l.186.295Z" fill="#08407C"/><path d="m12.828 10.339.047.334-.01.143-.38.242-.226-.245a.28.28 0 0 1 .006-.043l.035-.1.09-.716.03.216c.157.072.235-.015.308-.113l.058.14.036.102a.046.046 0 0 0 .006.04Z" fill="#75D9ED"/><path d="m13.728 10.863.09.289c-.367-.035-.691.054-.952.329l.017-.241c.223-.258.501-.391.845-.377Z" fill="#0DA3CB"/><path d="M13.728 10.863a1.016 1.016 0 0 0-.845.377l-.001-.377a6.34 6.34 0 0 1 .733-.239l.113.24Z" fill="#117DA9"/><path d="M11.64 12.194c-.12-.107-.193-.01-.28.06-.237.189-.48.372-.721.557l.76-.714.046-.048.364-.198.036.055-.205.288Z" fill="#8CE1F8"/><path d="m7.743 10.432-.225.309c-.06-.049-.127-.091-.176-.149-.096-.11-.18-.23-.27-.347l-.055-.136h.707l.019.323Z" fill="#0B427C"/><path d="m7.403 11.34-.045-.044-.06-.053-.084-.043.05-.053.372-.144.01.014a.042.042 0 0 0 .023.027l.313.337-.146.16-.433-.201Z" fill="#1885D1"/><path d="m5.929 11.578-.14-.146.041.005.099.14Z" fill="#0B6199"/><path d="m7.744 10.432-.02-.323h-.707l-.324-.577c.016-.08.033-.158.048-.238l.044-.24.007.236v.353l.98.211.023.25-.051.329Z" fill="#07629A"/><path d="m6.88 8.577.01-.128.032-.058.01-.048.088-.097c.088.031.174.075.264.091.29.054.582.098.873.146l-.183.573c-.377.017-.743-.02-1.093-.202v-.277Z" fill="#0EC3E5"/><path d="m8.782 6.819-.327-.077c-.07-.195-.017-.298.23-.447l.12.417a93361.57 93361.57 0 0 0 .691.063l-.137.085-.009.015-.568-.056Z" fill="#2074B9"/><path d="m7.974 9.056.182-.573.104-.189h.058l-.242.805L8 9.162l-.026-.106Z" fill="#215F78"/><path d="M8.318 8.295h-.057l.435-.708.044.043-.422.665Z" fill="#288D9B"/><path d="m8.74 7.63-.045-.043.466-.438.014.014-.398.46a1.272 1.272 0 0 1-.037.007ZM9.355 6.963l-.004-.088.008-.015.05.057-.044.056-.01-.01Z" fill="#2CB8C1"/><path d="m9.161 7.15.049-.047.012.013-.048.048-.013-.015ZM9.21 7.103l.05-.046.01.012-.048.047-.012-.013Z" fill="#2CB8C1"/><path d="m9.26 7.057.05-.045.009.01-.048.047-.011-.012Z" fill="#2CB8C1"/><path d="m9.309 7.012.046-.049.01.01-.047.049-.01-.01Z" fill="#2CB8C1"/><path d="M7.973 9.056 8 9.163l-.158.558-.026-.205-1.023-.226-.008-.236.096-.477v.277c.35.183.716.219 1.093.202Z" fill="#0CA3CD"/><path d="m9.452 6.77-.647-.058-.12-.417.204-.233.045.007c.052.066.106.132.156.2.122.166.241.334.362.5Z" fill="#3197D4"/><path d="M9.452 6.77c-.12-.167-.24-.335-.362-.501-.05-.069-.103-.134-.155-.2l.563-.333c.14.272.31.535.287.86l-.197.129-.044.035-.048.015-.044-.005Z" fill="#45B9E5"/><path d="m9.318 7.021.047-.048.044-.056c.068-.037.136-.075.205-.109l.977-.463.142-.038.286-.06c.439-.009.873.02 1.283.197l.812.663.19.29-.815-.19.086-.035c-1.28-.536-2.592.27-3.799.452l.398-.46.048-.048.049-.047.047-.048Z" fill="#9CF0F5"/><path d="m12.489 7.206.814.191.044.09-.283-.05-.144-.04a30.69 30.69 0 0 0-.047-.008 1.375 1.375 0 0 0-.914-.055c-.339.101-.66.261-.99.396l-.002-.002-.09-.044-.13-.17c.558-.08 1.085-.233 1.649-.3l.093-.008Z" fill="#136FA9"/><path d="M12.302 6.444c-.41-.177-.844-.206-1.283-.197l.485-.178.613-.14c.154.138.261.294.185.515Z" fill="#53BBDE"/><path d="m11.504 6.069-.485.178-.286.06-.143-.01.003.002.813-.276.098.046Z" fill="#2F6989"/><path d="m10.591 6.345-.977.463c-.07.034-.137.072-.206.109-.016-.02-.033-.038-.05-.057l.138-.085.048-.015.044-.035.196-.128.476-.234.096-.033.05-.028.186-.003-.003-.003.002.049Z" fill="#326885"/><path d="m12.489 7.206-.093.007-.096-.022-.326-.002-.326.018-.15.03-.18.02-.057.022-.565.2c-.994.408-1.83.888-2.62 1.62l.241-.804.422-.665.037-.006c1.207-.182 2.52-.988 3.8-.452l-.087.034Z" fill="#B5F1F3"/><path d="M10.97 7.73c.329-.135.65-.295.99-.396.299-.089.614-.065.913.055-.227.048-.453.105-.681.142-.329.054-.634.152-.884.383l-.338-.184Z" fill="#0D9CCF"/><path d="m6.792 9.29 1.023.226.026.205-.046.382-.022-.25c-.323-.068-.634-.135-.981-.21V9.29Z" fill="#0A84B4"/><path d="m7.403 11.34.433.201.146-.16c.226.175.392.392.47.67-.015.002-.031.002-.048.003l-.614-.386-.387-.328Z" fill="#1669B0"/><path d="m10.696 7.478.566-.199.057-.022.18-.02.15-.03.325-.018.326.002.096.022c-.565.068-1.091.222-1.65.302a18.982 18.982 0 0 1-.05-.037Z" fill="#13376B"/><path d="M12.728 10.057c-.073.098-.151.185-.307.113l-.031-.216c.005-.13.005-.26.02-.39.003-.037.046-.072.071-.108l-.04.328.193-.013.094.286Z" fill="#2FB6E9"/><path d="m12.634 9.77-.194.014.04-.328c.033 0 .064-.002.096-.003l.058.318Z" fill="#177FCC"/><path d="m9.954 13.175-.005-.004.008-.004-.003.008Z" fill="#3DEFF4"/><path d="M11.46 8.015c.011.001.019.007.023.017h-.017l-.006-.017Z" fill="#15F2F7"/><path d="M7.669 11.044a.042.042 0 0 1-.024-.027c.017 0 .026.01.024.027Z" fill="#18A3EB"/><path d="m10.592 6.345-.002-.049.143.011-.141.038Z" fill="#7ED0EA"/></g><defs><clipPath id="a"><path fill="#fff" d="M0 0h20v20H0z"/></clipPath></defs></svg>