<svg width="20" height="20" fill="none" xmlns="http://www.w3.org/2000/svg"><g clip-path="url(#a)" fill="#34D399"><path d="M18.686 9.206c-.011-.453-.024-.88-.024-1.306V0H2.313l3.172 1.718h11.46V7.9c0 .45.013.909.025 1.352.046 1.684.093 3.425-.535 4.882a6.856 6.856 0 0 1-6.297 4.149c-3.336 0-6.122-2.144-6.932-5.335-.242-.952-.21-1.936-.175-2.98.011-.367.022-.747.022-1.129V4.742l-1.716-.908v5.005c0 .354-.013.72-.023 1.074-.036 1.115-.073 2.27.228 3.458C2.547 17.336 6.004 20 10.138 20a8.568 8.568 0 0 0 7.873-5.186c.78-1.804.726-3.738.675-5.608Z"/><path d="M4.923 11.606c0 .033.002.065.006.097.183 1.622 1.489 4.693 5.122 4.693 3.688 0 4.744-3.118 4.789-4.767V4.072a.86.86 0 0 0-.859-.859H8.245l3.17 1.718h1.708v6.66c-.015.35-.217 3.087-3.072 3.087-2.838 0-3.342-2.647-3.41-3.128V6.64l-1.701-.9a.88.88 0 0 0-.017.16v5.706Z"/><path d="M4.942 5.723c-.003.006 0 .012-.003.017l1.7.9-1.697-.917Z"/></g><defs><clipPath id="a"><path fill="#fff" d="M0 0h20v20H0z"/></clipPath></defs></svg>