<svg width="20" height="20" fill="none" xmlns="http://www.w3.org/2000/svg"><g clip-path="url(#a)"><path d="M10 19.345a9.119 9.119 0 1 0 0-18.237 9.119 9.119 0 0 0 0 18.237Z" fill="#EC1C24"/><path d="m17.449 10.276.026.02s-.545-6.041-2.558-9.051a.553.553 0 0 0-.849-.084c-.576.58-1.52 2.13-2.461 4.72a9.565 9.565 0 0 0-3.126 0c-.94-2.59-1.885-4.14-2.461-4.72a.553.553 0 0 0-.85.084c-2.012 3.01-2.557 9.05-2.557 9.05l.026-.019a5.008 5.008 0 0 0-.273 1.624c0 2.341 1.635 4.377 4.04 5.415a9.19 9.19 0 0 0 3.638.732 9.184 9.184 0 0 0 3.634-.731c2.407-1.038 4.044-3.074 4.044-5.416 0-.562-.096-1.106-.273-1.624Z" fill="#fff"/><path d="M.224 15.148a.223.223 0 0 1-.126-.408c2.087-1.426 3.533-1.036 3.594-1.018a.224.224 0 0 1-.122.43c-.015-.004-1.323-.338-3.22.957a.222.222 0 0 1-.126.04ZM1.408 16.876a.223.223 0 0 1-.188-.345c1.029-1.594 2.743-1.913 2.816-1.926a.224.224 0 0 1 .078.441c-.022.004-1.6.305-2.518 1.728a.223.223 0 0 1-.188.102ZM19.776 15.148a.222.222 0 0 1-.125-.039c-1.9-1.297-3.208-.96-3.221-.957a.223.223 0 0 1-.122-.43c.061-.018 1.507-.408 3.595 1.018a.223.223 0 0 1-.127.408ZM18.591 16.876a.223.223 0 0 1-.188-.102c-.924-1.432-2.501-1.725-2.517-1.728a.224.224 0 0 1 .078-.44c.072.012 1.786.331 2.815 1.925a.224.224 0 0 1-.188.345Z" fill="#231F20"/><path d="M8.129 11.289a2.122 2.122 0 0 1-2.121 2.08 2.132 2.132 0 0 1-2.123-2.123c0-.338.08-.656.221-.94l4.023.982Z" fill="#A7DFF8"/><path d="M7.439 11.12c.004.046.013.14.013.188a1.382 1.382 0 0 1-2.764 0c0-.28.119-.577.261-.794l2.49.606Z" fill="#231F20"/><path d="M11.723 11.289a2.122 2.122 0 1 0 4.022-.983l-4.022.982Z" fill="#A7DFF8"/><path d="M12.426 11.1c-.005.046-.028.16-.028.208a1.382 1.382 0 0 0 2.765 0c0-.28-.105-.577-.248-.794l-2.489.586ZM10.493 15.314c-.213 0-.44-.064-.66-.236-.597.465-1.244.143-1.52-.111a.224.224 0 0 1 .305-.329c.055.05.557.48 1.03.006a.224.224 0 0 1 .159-.065h.051c.06 0 .117.023.159.065.473.474.975.044 1.031-.006a.224.224 0 0 1 .303.329c-.173.16-.494.347-.858.347Z" fill="#231F20"/><path d="M9.816 14.517c.36 0 .653-.14.653-.311 0-.172-.293-.31-.653-.31-.36 0-.653.138-.653.31 0 .171.292.31.653.31ZM3.783 8.24s.354-3.915 1.658-5.866a.358.358 0 0 1 .55-.054c.375.376 1.074 1.994 1.685 3.68 0 0-.71.16-3.893 2.24ZM16.378 8.24s-.353-3.915-1.658-5.866a.358.358 0 0 0-.55-.054c-.375.376-1.11 1.994-1.722 3.68 0 0 1.113.16 3.93 2.24Z" fill="#F7BAD5"/><path d="M12.284 7.564c.725-2.712-3.328-2.254-3.238-4.96.01 1.15-.204 2.372.578 3.302-1.267.15-1.658-1.548-2.004-2.342-.108 1.48-.383 3.777 1.29 4.411" fill="#D5E9F8"/><path d="M12.613 7.564c.823-3.374-3.63-2.618-3.54-5.324.01 1.15-.15 2.243.633 3.172-1.268.15-1.749-1.409-2.094-2.202-.108 1.479.722 4.19 3.026 4.765" fill="#fff"/></g><defs><clipPath id="a"><path fill="#fff" d="M0 0h20v20H0z"/></clipPath></defs></svg>