<svg xmlns="http://www.w3.org/2000/svg" width="20" height="20" fill="none"><path fill="url(#a)" d="M20 10c0 5.523-4.477 10-10 10S0 15.523 0 10 4.477 0 10 0s10 4.477 10 10Z"/><path fill="#231F20" fill-rule="evenodd" d="M10 19.375a9.375 9.375 0 1 0 0-18.75 9.375 9.375 0 1 0 0 18.75ZM10 20c5.523 0 10-4.477 10-10S15.523 0 10 0 0 4.477 0 10s4.477 10 10 10Z" clip-rule="evenodd"/><path fill="url(#b)" d="M3.404 9.197c.01.2-.04.37-.149.511a1.312 1.312 0 0 0-.152.223c-.03.074-.052.155-.067.242-.006.035.001.038.022.01.128-.182.273-.312.432-.392.073-.036.086-.021.04.046-.128.189-.635.867-.43 1.078.146.15.104.34.072.523a.182.182 0 0 0-.047-.11.024.024 0 0 0-.01-.005.024.024 0 0 0-.01 0 .025.025 0 0 0-.017.01c-.007.01-.014.01-.02.002-.015-.023-.035-.028-.06-.014a.064.064 0 0 1-.051.007.105.105 0 0 0-.05-.004.634.634 0 0 1-.317-.025.77.77 0 0 0-.345-.017c-.019.002-.025-.006-.017-.024l.331-.839c.012-.028.002-.041-.029-.039l-.225.021c-.022.002-.028-.007-.018-.026l.623-1.148c.228.047.393.037.494-.03Z"/><path fill="url(#c)" d="m17.14 9.265.599 1.1c.01.018.005.025-.015.024l-.239-.025c-.025-.003-.033.008-.024.031l.332.854c.01.024.001.034-.024.032l-.301-.032c-.021-.003-.033.007-.034.028 0 .01 0 .02.003.03l-.008-.024c-.008-.02-.017-.021-.03-.004-.033.046-.074.062-.124.049a.078.078 0 0 1-.043-.029.058.058 0 0 0-.023-.018.021.021 0 0 0-.01-.001.02.02 0 0 0-.01.004.02.02 0 0 0-.008.019c.002.015-.006.025-.022.03-.017.004-.028-.002-.034-.02l-.005-.014c-.01-.033-.025-.035-.043-.006l-.022.034a.019.019 0 0 1-.031.001l-.034-.043a.02.02 0 0 0-.035.014.024.024 0 0 1-.006.017.033.033 0 0 1-.034.011c-.03-.007-.053.007-.071.042-.052-.17-.034-.313.052-.43a.323.323 0 0 0 .068-.13c.04-.294-.333-.746-.48-.987-.032-.052-.021-.065.034-.039.165.08.309.208.43.385.031.045.042.04.032-.013a1.068 1.068 0 0 0-.085-.276 1.94 1.94 0 0 0-.148-.197.67.67 0 0 1-.133-.402c.161-.05.337-.055.527-.015Z"/><path fill="url(#d)" d="M13.937 4.863a.212.212 0 0 0-.07.046c-.016.016-.013.027.01.032.146.031.286.068.421.111.054.017.053.026-.004.026h-.186c-.003 0-.006 0-.008.003a.016.016 0 0 0-.006.006.016.016 0 0 0-.002.01c0 .003.002.005.004.008l.383.484a.11.11 0 0 0 .055.037l.704.21c.027.008.039-.002.035-.03a.938.938 0 0 0-.025-.133c-.001-.006 0-.01.007-.013.007-.003.011 0 .014.005l.474 1.064a.074.074 0 0 0-.063.05.05.05 0 0 1-.038.034c-.022.005-.037-.002-.045-.023-.006-.016-.015-.018-.027-.007a.077.077 0 0 1-.027.016c-.018.007-.025 0-.02-.018a.027.027 0 0 0-.003-.02c-.01-.02-.025-.026-.047-.017a.036.036 0 0 0-.024.028c-.006.037-.02.04-.039.008-.014-.024-.032-.037-.053-.039a.017.017 0 0 0-.018.013v.008c.003.015-.003.025-.017.033-.022.011-.032.005-.031-.02 0-.02-.01-.03-.033-.032-.054-.005-.093.012-.115.048-.177-.375-.489-.673-.928-.62-.12-.28-.33-.577-.633-.654a2.988 2.988 0 0 0-.652-.092c-.047-.001-.048-.01-.004-.026.213-.08.43-.102.652-.066.028.005.035-.005.018-.029a.935.935 0 0 0-.205-.215.133.133 0 0 1-.046-.062.125.125 0 0 1-.004-.081c.027-.006.041.004.045.028.001.01.007.014.016.012.008-.002.012-.006.013-.012.001-.016.008-.019.02-.009.022.02.045.022.07.007a.049.049 0 0 1 .044-.005l.03.01a.034.034 0 0 0 .02 0l.154-.04a.063.063 0 0 0 .038-.027c.021-.034.07-.05.146-.047Z"/><path fill="url(#e)" d="M6.682 4.95c.011.055-.008.103-.056.144-.09.077-.158.148-.204.214-.019.027-.012.037.02.03.09-.015.177-.037.267-.024.116.02.233.04.35.066.037.008.038.016 0 .026a.082.082 0 0 0-.03.014.069.069 0 0 1-.04.015c-.403.017-.765.068-1 .411-.074.11-.139.22-.195.332-.45-.064-.74.252-.922.628a5.958 5.958 0 0 0-.15.329l-.162-.046c-.007-.002-.01-.006-.01-.013v-.02c0-.024-.011-.033-.034-.025-.023.008-.035.022-.036.043 0 .016-.009.021-.023.016a.035.035 0 0 1-.025-.029.037.037 0 0 0-.032-.03.544.544 0 0 0-.272.025l.607-1.348c.021-.048.03-.045.025.006l-.01.107a.03.03 0 0 0 .012.025.028.028 0 0 0 .027.005c.206-.07.423-.14.649-.212a.342.342 0 0 0 .166-.115c.112-.14.218-.27.32-.392.02-.026.015-.04-.02-.04h-.166c-.072 0-.073-.01-.004-.03l.418-.114a.03.03 0 0 0 .02-.013c.007-.011.005-.02-.006-.028-.004-.022.011-.034.045-.034a.05.05 0 0 1 .046.024c.013.02.028.028.047.027.028-.003.037.01.028.037a.01.01 0 0 0 .002.01c.012.01.026.013.042.01a1.67 1.67 0 0 1 .306-.03Z"/><path fill="url(#f)" d="M8.102 14.405c.064.501.287.878.667 1.13.087.058.1.045.037-.04a1.216 1.216 0 0 1-.228-.74c0-.037.007-.039.02-.004.115.284.207.53.426.768.013.014.03.02.049.02.08-.007.16.018.24.075.082.057.1.042.052-.047a1.35 1.35 0 0 1-.158-.51c-.013-.127.009-.133.064-.018.077.162.15.328.22.497a.564.564 0 0 0 .1.157c.015.017.031.018.048.004.045-.039.096-.042.153-.011.025.013.036.005.034-.022a1.644 1.644 0 0 0-.028-.22c0-.003 0-.005.004-.006.009-.003.014 0 .016.008a.72.72 0 0 0 .117.222.093.093 0 0 0 .068.036.091.091 0 0 0 .071-.028.426.426 0 0 0 .116-.227c.001-.007.005-.01.013-.01.007.001.01.005.01.012a.78.78 0 0 1-.026.193.032.032 0 0 0 .013.035.054.054 0 0 0 .065-.001.08.08 0 0 1 .056-.014.058.058 0 0 1 .044.03.05.05 0 0 0 .088-.005l.293-.643c.054-.118.076-.112.068.018-.01.16-.064.329-.16.505-.054.096-.036.112.051.046.08-.06.154-.084.223-.073a.06.06 0 0 0 .048-.013c.196-.156.326-.468.42-.708.045-.117.063-.113.052.013a1.249 1.249 0 0 1-.226.647c-.073.1-.06.115.043.046.386-.258.604-.645.654-1.162.111.328.125.628.04.901-.044.14-.024.15.06.03.176-.25.209-.687.177-.983-.015-.146.004-.15.058-.015.126.317.143.608.08.966-.029.16-.036.315-.022.466.007.076.02.077.036.002a.579.579 0 0 1 .138-.263c.186-.2.341-.422.465-.667.022.056.059.08.111.072a.72.72 0 0 1 .113-.013c.05.009.098.03.142.063l-.386.646c-.09.148-.176.256-.261.324a39.199 39.199 0 0 0-.462.378l-.006-.001a.012.012 0 0 1-.006-.005.012.012 0 0 1-.002-.006l-.033-.581c-.002-.031-.016-.04-.044-.026l-.096.05c-.022.011-.039.006-.051-.015l-.159-.274a.016.016 0 0 0-.006-.007.018.018 0 0 0-.01-.002.017.017 0 0 0-.008.003.016.016 0 0 0-.006.008l-.27.604c-.018.04-.034.04-.048-.002l-.055-.165c-.007-.02-.02-.026-.04-.015l-.476.26a.016.016 0 0 1-.017 0 .018.018 0 0 1-.006-.006.017.017 0 0 1-.002-.009l.004-.145c.001-.03-.01-.036-.033-.017-.204.167-.45.298-.5.58-.004.02-.016.028-.037.023a.487.487 0 0 1-.31-.245c-.013-.023-.026-.024-.04-.002l-.122.186c-.01.015-.022.017-.035.004a6.74 6.74 0 0 0-.603-.534c-.025-.02-.038-.013-.037.019v.12c.001.03-.01.037-.035.024l-.46-.24c-.022-.011-.037-.005-.045.02l-.056.17c-.013.035-.027.036-.042 0l-.276-.626a.011.011 0 0 0-.004-.004.01.01 0 0 0-.011 0 .01.01 0 0 0-.004.003l-.169.283c-.013.023-.03.027-.053.015l-.1-.054c-.022-.012-.033-.005-.035.02l-.035.56c-.002.032-.016.038-.04.016a7.177 7.177 0 0 0-.436-.359.834.834 0 0 1-.216-.246 94.71 94.71 0 0 0-.477-.806c-.012-.02-.028-.024-.048-.014l-.04.022c-.026.013-.043.006-.053-.022l-.3-.942c.045.023.078.028.1.013a.068.068 0 0 1 .048-.013.17.17 0 0 1 .082.032.044.044 0 0 0 .05.004l.13-.065c.045.216.123.405.233.566.032.047.047.042.043-.015a1.559 1.559 0 0 1 .24-.947c.003-.005.008-.007.014-.003.007.003.01.01.006.016-.14.321-.28.857-.145 1.2a2.4 2.4 0 0 0 .492.76.578.578 0 0 1 .156.316c.005.034.013.034.024.003a.55.55 0 0 0 .023-.265c-.066-.431-.118-.804.066-1.22.045-.1.059-.097.043.013-.036.241-.01.51.08.802a.655.655 0 0 0 .122.243c.055.065.07.056.045-.026a1.358 1.358 0 0 1 .031-.901Z"/><path fill="url(#g)" d="M15.743 6.729c.077.167.154.325.259.478.344.497.68 1 1.005 1.505.002.004.002.007-.002.01-.004.004-.009.004-.013 0a21.797 21.797 0 0 1-.292-.324.023.023 0 0 0-.016-.007.015.015 0 0 0-.013.007.006.006 0 0 0 0 .006l.47.86a1.024 1.024 0 0 0-.527.016.362.362 0 0 0-.06-.146.254.254 0 0 0-.12-.09 1.57 1.57 0 0 1-.528-.343c-.023-.022-.02-.026.01-.012.166.083.313.146.44.188.03.01.035.004.012-.02l-.557-.59a.141.141 0 0 0-.046-.066l-.2-.372-.422-1.038c.022-.036.06-.053.115-.048.022.002.033.012.033.032-.001.025.01.031.031.02.014-.008.02-.018.016-.033v-.008a.017.017 0 0 1 .019-.013c.02.002.039.015.053.039.02.031.033.029.04-.008a.036.036 0 0 1 .023-.028c.022-.01.037-.003.047.018a.027.027 0 0 1 .002.019c-.004.018.003.025.02.018a.077.077 0 0 0 .028-.016c.012-.011.021-.01.027.007.008.02.023.028.045.023a.05.05 0 0 0 .038-.033.074.074 0 0 1 .063-.051Z"/><path fill="url(#h)" d="m4.722 7.135-.27.7a2.847 2.847 0 0 1-.255.45c-.11.144-.292.334-.548.57-.024.023-.02.03.011.02.153-.042.301-.107.446-.193a.01.01 0 0 1 .01-.001c.009.003.01.008.002.014-.235.179-.473.346-.714.502-.101.067-.266.077-.494.03l.426-.776c.05-.092.039-.1-.034-.025a5.337 5.337 0 0 0-.27.3c-.005.006-.012.007-.018.002h-.001c-.007-.006-.008-.012-.003-.019l1.118-1.653a.544.544 0 0 1 .272-.024.037.037 0 0 1 .032.03c.003.014.011.024.025.028.014.005.022 0 .023-.016 0-.02.013-.035.036-.043.023-.008.034 0 .034.025v.02c0 .007.003.011.01.013l.162.046Z"/><path fill="url(#i)" d="m17.437 11.307.113.536c.005.021-.003.034-.025.036l-.39.045a.04.04 0 0 0-.023.011.044.044 0 0 0-.012.023l-.056.325a.139.139 0 0 1-.063.094c-.503.313-.996.62-1.478.925-.106.067-.22.117-.344.152-.44.125-.877.257-1.307.398a.074.074 0 0 0-.05.048l-.298.932c-.007.02-.02.026-.04.017-.072-.033-.121-.008-.147.075a.325.325 0 0 0-.142-.063.72.72 0 0 0-.113.013c-.052.008-.09-.016-.11-.072.168-.41.075-.856-.073-1.261-.037-.102-.027-.106.03-.015.151.245.218.537.2.878-.003.064.014.07.052.018.158-.221.216-.492.267-.761.3-.028.574-.117.822-.266.093-.056.187-.107.285-.156.272-.133.402-.392.543-.656.027-.049.042-.046.047.01a.528.528 0 0 1-.16.444c-.019.019-.015.025.01.02.545-.124.67-.47.89-.923.057-.117.077-.11.06.018a.96.96 0 0 1-.139.396c-.017.027-.01.035.02.024a1.08 1.08 0 0 0 .646-.632.488.488 0 0 1 .24-.277.04.04 0 0 0 .021-.05 1.862 1.862 0 0 1-.062-.244c-.017-.09.001-.097.055-.023.054.077.104.163.15.26a.016.016 0 0 0 .02.008l.013-.005v-.002a.648.648 0 0 1-.045-.238c.018-.035.041-.049.07-.042.014.003.026 0 .035-.011a.024.024 0 0 0 .006-.017.02.02 0 0 1 .013-.02.02.02 0 0 1 .023.006l.033.043a.02.02 0 0 0 .016.008.019.019 0 0 0 .015-.009l.022-.034c.018-.03.032-.027.043.006l.005.014c.006.018.017.024.034.02.016-.005.024-.015.022-.03l.001-.01a.02.02 0 0 1 .007-.01.02.02 0 0 1 .01-.003l.01.001c.01.004.018.01.023.018a.078.078 0 0 0 .043.029c.05.013.091-.003.124-.049.012-.017.022-.016.03.005l.008.023Z"/><path fill="url(#j)" d="m6.592 13.659.038.204-.132.065a.044.044 0 0 1-.05-.004.17.17 0 0 0-.08-.032.068.068 0 0 0-.05.013c-.02.015-.054.01-.1-.013l-.016-.02a.08.08 0 0 0-.04-.026c-.414-.116-.841-.24-1.283-.372a1.432 1.432 0 0 1-.37-.17 53.882 53.882 0 0 0-1.456-.91.164.164 0 0 1-.079-.116l-.049-.302a.052.052 0 0 0-.045-.043l-.379-.038c-.026-.003-.036-.017-.03-.042l.12-.554a.636.636 0 0 0 .317.025.105.105 0 0 1 .049.004.064.064 0 0 0 .052-.007c.024-.014.044-.01.06.014.005.008.012.007.019-.002a.025.025 0 0 1 .018-.01h.01a.024.024 0 0 1 .009.006c.024.023.04.06.047.109a.864.864 0 0 1-.037.168c-.003.006 0 .01.005.013h.001c.006.003.01.001.014-.005.048-.09.104-.182.167-.273.05-.072.067-.064.051.023a1.448 1.448 0 0 1-.07.25c-.01.023-.002.04.022.047.143.045.237.254.296.383.116.25.336.433.592.526.028.01.034.002.018-.023a.907.907 0 0 1-.133-.385c-.014-.15.007-.157.065-.017.057.14.123.277.198.414.142.26.37.424.683.495.034.008.038 0 .012-.023-.121-.104-.174-.255-.158-.451.003-.037.015-.04.035-.01a1.3 1.3 0 0 1 .097.174c.11.235.27.405.481.51.109.055.214.112.316.17.229.135.484.213.765.235Z"/><path fill="url(#k)" d="M13.937 4.863c-.076-.002-.125.013-.146.047a.063.063 0 0 1-.038.027l-.154.04a.034.034 0 0 1-.02 0l-.03-.01a.049.049 0 0 0-.045.005c-.024.015-.047.013-.069-.007-.012-.01-.019-.007-.02.009-.001.006-.005.01-.013.012-.01.002-.015-.002-.016-.012-.004-.024-.018-.034-.044-.028.028-.107.007-.166-.065-.176a2.912 2.912 0 0 0-.76-.004.036.036 0 0 1-.038-.022.037.037 0 0 1 .008-.043l.11-.105c.023-.022.018-.034-.013-.036a1.77 1.77 0 0 0-.954.184.046.046 0 0 1-.06-.019.046.046 0 0 1-.005-.022.734.734 0 0 1 .164-.45c.02-.026.015-.033-.015-.02a1.4 1.4 0 0 0-.453.292c-.13.13-.208.31-.31.463a.025.025 0 0 1-.023.01.025.025 0 0 1-.011-.003.025.025 0 0 1-.009-.01c-.104-.204-.056-.394.031-.597.032-.075.014-.09-.053-.045a1.667 1.667 0 0 0-.482.515c-.017.03-.033.028-.046-.003-.065-.157-.186-.382-.333-.478-.09-.06-.112-.04-.064.057a.711.711 0 0 1 .077.282c.004.073-.01.077-.045.013a1.757 1.757 0 0 1-.09-.206.108.108 0 0 0-.075-.066 1.955 1.955 0 0 1-.462-.17.016.016 0 0 0-.012-.001.017.017 0 0 0-.01.008l-.008.012v.001l.001.001c.222.127.33.313.322.555-.001.056-.015.06-.042.01a1.457 1.457 0 0 0-.505-.548c-.037-.024-.05-.014-.037.029.065.23.145.383.05.617a.038.038 0 0 1-.03.023.036.036 0 0 1-.034-.016c-.108-.169-.19-.354-.34-.492a1.461 1.461 0 0 0-.38-.242c-.059-.027-.069-.014-.03.038a.71.71 0 0 1 .144.424.044.044 0 0 1-.064.04 1.771 1.771 0 0 0-.92-.19c-.057.002-.065.023-.023.063l.091.084a.034.034 0 0 1-.025.06c-.251-.016-.54-.049-.784.015-.062.017-.078.074-.048.173a1.673 1.673 0 0 0-.306.03.049.049 0 0 1-.042-.01.01.01 0 0 1-.002-.01c.01-.027 0-.04-.028-.037-.019.001-.034-.008-.047-.027a.05.05 0 0 0-.046-.024c-.034 0-.049.012-.045.034l-.275-.12c-.032-.014-.032-.026.002-.038l.312-.103a.056.056 0 0 0 .029-.022.058.058 0 0 0 .01-.035l-.015-.282a.026.026 0 0 1 .015-.025.025.025 0 0 1 .01-.002h.648c.021 0 .031-.011.029-.033l-.026-.259c-.002-.018.006-.025.023-.023l.817.109c.02.002.03-.006.03-.026v-.514a.026.026 0 0 1 .011-.022.026.026 0 0 1 .025-.001l.826.372c.01.005.022.006.033.002a.05.05 0 0 0 .028-.02l.146-.207c.013-.019.03-.022.048-.01l.528.329c.111.07.16.173.203.29.002.005.006.007.012.006.006-.003.008-.007.006-.014l-.22-.75c-.009-.028-.002-.032.02-.012l.657.633c.017.017.03.014.036-.01l.107-.363c.01-.035.021-.035.032 0l.121.379c.02.064.042.064.064 0a.302.302 0 0 1 .137-.165c.182-.108.357-.219.527-.333.027-.017.048-.012.065.014l.115.181a.074.074 0 0 0 .092.028l.83-.37a.018.018 0 0 1 .017.002.017.017 0 0 1 .006.007.018.018 0 0 1 .002.008l-.002.533c0 .022.01.03.03.028l.805-.12c.025-.004.037.008.035.034l-.025.268c-.002.02.006.029.025.029h.648a.029.029 0 0 1 .028.02.03.03 0 0 1 .002.011l-.015.236a.107.107 0 0 0 .074.11l.268.087c.02.007.022.016.004.03a.594.594 0 0 1-.189.09Z"/><path fill="#3C3C3B" d="M13.341 4.946a.125.125 0 0 0 .004.081.133.133 0 0 0 .045.062.933.933 0 0 1 .206.215c.016.024.01.034-.019.03a1.263 1.263 0 0 0-.652.065c-.044.016-.042.025.005.026.224.007.441.038.651.092.304.077.513.374.633.654.001.047.021.09.06.127a.05.05 0 0 1 .016.036c0 .007 0 .013-.003.018-.006.02-.016.02-.029.004a.983.983 0 0 0-.322-.266l-.163-.017c-.02-.002-.023.003-.007.017a.17.17 0 0 0 .123.036l.005.018c.001.005.004.01.008.014a.037.037 0 0 0 .013.01c.134.06.243.148.329.267.085.118.148.24.19.365l.014.329a.304.304 0 0 1-.027.288.316.316 0 0 0-.054.115.079.079 0 0 0 .007.057c.08.155.147.324.2.508.006.02-.001.032-.02.038a.04.04 0 0 1-.04-.01 1.38 1.38 0 0 0-.259-.186c-.073-.04-.084-.027-.033.039a.62.62 0 0 0 .093.097c.138.116.271.374.178.563a.078.078 0 0 0-.007.047 3.8 3.8 0 0 0 .072.326.726.726 0 0 1-.131.598c-.055.073-.077.064-.065-.027a.297.297 0 0 0-.03-.182.135.135 0 0 1-.016-.054.388.388 0 0 0-.038-.175c-.031-.055-.027-.114-.055-.172a2.038 2.038 0 0 0-.127-.223.226.226 0 0 0-.045-.05.085.085 0 0 1-.033-.06.09.09 0 0 0-.026-.057.17.17 0 0 1-.04-.061.482.482 0 0 0-.165-.172c-.018-.011-.023-.007-.014.014.027.067.075.12.145.155a.047.047 0 0 0-.007.025c0 .015.007.027.02.034.03.014.044.037.04.07a.049.049 0 0 0 .018.047c.024.02.044.044.06.073.117.21.202.449.255.716.053.262-.03.52-.143.758a.31.31 0 0 1-.214.184.194.194 0 0 0-.104.072c-.04.047-.061.04-.062-.022a.74.74 0 0 0-.031-.254c-.085-.178-.11-.17-.076.025.033.187.107.386.056.591-.034.134-.184.206-.294.27a.541.541 0 0 0-.112.126c.002-.012-.013-.021-.045-.027a.05.05 0 0 1-.04-.03.77.77 0 0 0-.283-.341c.024-.005.036-.038.036-.1a.54.54 0 0 1 .012-.107 1.54 1.54 0 0 0 .035-.514 7.64 7.64 0 0 0-.155-.86c-.021-.091-.007-.097.042-.018.063.101.116.21.16.328.026.07.01.134.004.207-.001.012.004.018.015.018l.029.001c.002 0 .004-.001.004-.003.037-.179.044-.35.02-.51a5.653 5.653 0 0 0-.222-.939c-.193-.59-.618-.921-1.275-.992a.99.99 0 0 0-.743.224.246.246 0 0 0-.101.254.055.055 0 0 0 .03.04c.075.038.087.093.037.166a.044.044 0 0 0-.002.05c.029.052.024.104-.014.157-.194.263-.29.474-.34.817-.027.188-.055.365-.083.531a.708.708 0 0 0-.388.397c-.034.092-.068.092-.102 0a.705.705 0 0 0-.326-.368.057.057 0 0 1-.03-.052c0-.085-.007-.174-.018-.267-.003-.029-.014-.032-.033-.01-.001.001-.002.008 0 .018-.047-.214-.058-.446-.144-.636a2.862 2.862 0 0 0-.297-.504c-.011-.016-.01-.031.002-.046a.026.026 0 0 1 .022-.011c.03 0 .039-.014.028-.042l-.057-.143c-.009-.022-.001-.033.023-.032a.117.117 0 0 0 .095-.04.046.046 0 0 0 .01-.045c-.13-.385-.592-.51-.942-.459-.612.09-1.012.423-1.2.997a4.76 4.76 0 0 0-.242 1.281.61.61 0 0 0 .017.18c.001.004.004.005.008.004l.015-.005c.01-.004.013-.01.01-.02-.016-.066-.002-.117.042-.154a.053.053 0 0 0 .02-.039.622.622 0 0 1 .132-.349c.062-.075.08-.066.052.028a4.6 4.6 0 0 0-.17.94c-.007.103 0 .206.021.31.021.103.044.205.069.307a.432.432 0 0 0-.198.203 1.83 1.83 0 0 1-.14.253c-.102-.178-.194-.2-.335-.296-.126-.086-.15-.25-.121-.388.027-.126.049-.253.064-.381.001-.007-.002-.01-.008-.011l-.017-.003c-.015-.003-.024.003-.028.018l-.066.28c-.006.026-.02.031-.042.016-.124-.086-.262-.156-.326-.304a3.129 3.129 0 0 1-.173-.514.1.1 0 0 0-.026-.048.594.594 0 0 1-.172-.316 1.919 1.919 0 0 1 .024-.564.905.905 0 0 0 .005-.254c-.024-.239.095-.357.225-.527.022-.03.016-.037-.017-.023l-.141.057c-.045-.022-.056-.068-.031-.14a4.7 4.7 0 0 1 .129-.33.108.108 0 0 0-.002-.093c-.044-.09-.092-.148-.093-.257a24.084 24.084 0 0 0-.008-.36.777.777 0 0 1 .195-.406.13.13 0 0 0 .028-.047.104.104 0 0 1 .04-.054c.084-.06.167-.123.25-.188.063-.053.055-.069-.024-.048a.44.44 0 0 0-.178.095.045.045 0 0 1-.042.01l-.037-.005a.108.108 0 0 1-.003-.05c.056-.11.121-.221.195-.33.235-.344.597-.395 1-.412a.069.069 0 0 0 .04-.015.081.081 0 0 1 .03-.014c.037-.01.037-.018-.001-.026a6.915 6.915 0 0 0-.35-.066c-.09-.013-.177.009-.266.025-.033.006-.04-.004-.02-.031.045-.066.113-.137.204-.214.048-.041.067-.089.056-.143-.03-.099-.014-.156.048-.173.244-.064.532-.03.783-.015a.034.034 0 0 0 .034-.02.035.035 0 0 0-.008-.04l-.091-.084c-.042-.04-.035-.06.023-.064a1.78 1.78 0 0 1 .92.19.044.044 0 0 0 .059-.017.044.044 0 0 0 .005-.022.71.71 0 0 0-.144-.424c-.039-.052-.029-.065.03-.038.15.068.276.149.379.242.151.138.232.323.34.492a.036.036 0 0 0 .052.009.038.038 0 0 0 .013-.016c.094-.234.015-.387-.05-.617-.013-.043 0-.053.037-.03.207.13.376.314.505.55.026.048.04.045.042-.01.007-.244-.1-.429-.322-.556h-.001v-.001l.008-.013a.017.017 0 0 1 .01-.008.016.016 0 0 1 .011.001c.15.077.304.134.462.17a.105.105 0 0 1 .075.066c.027.074.058.143.09.206.035.064.05.06.046-.013a.712.712 0 0 0-.077-.282c-.048-.097-.027-.116.063-.057.148.096.27.32.334.478.013.03.028.032.046.003.123-.203.294-.39.481-.515.068-.045.086-.03.054.045-.088.203-.136.393-.031.598a.024.024 0 0 0 .02.013.025.025 0 0 0 .022-.01c.103-.155.18-.333.311-.464.119-.118.27-.216.453-.292.03-.013.034-.006.014.02a.733.733 0 0 0-.164.45.045.045 0 0 0 .043.046.046.046 0 0 0 .022-.005c.3-.15.618-.211.955-.184.031.002.035.014.013.036l-.11.106a.038.038 0 0 0-.01.02.037.037 0 0 0 .04.044c.266-.032.52-.03.76.004.071.01.093.069.064.176ZM5.878 7.855c-.038.005-.062.025-.072.06-.009.025 0 .034.026.026a.108.108 0 0 0 .068-.054c.013-.026.006-.037-.022-.032Zm6.04 6.51c-.05.517-.267.904-.653 1.162-.103.069-.117.053-.043-.046.127-.17.202-.386.225-.647.011-.126-.006-.13-.052-.013-.094.24-.224.552-.419.708a.06.06 0 0 1-.048.013c-.07-.01-.143.014-.223.073-.088.066-.105.05-.052-.046.096-.176.15-.345.16-.505.009-.13-.014-.136-.067-.018l-.293.643a.05.05 0 0 1-.043.03.05.05 0 0 1-.045-.025.058.058 0 0 0-.044-.03.08.08 0 0 0-.056.014.054.054 0 0 1-.066 0 .032.032 0 0 1-.012-.034.779.779 0 0 0 .026-.193c0-.007-.003-.01-.01-.012-.008 0-.012.003-.013.01a.426.426 0 0 1-.116.227.092.092 0 0 1-.14-.008.69.69 0 0 1-.116-.222c-.002-.008-.008-.01-.016-.008-.004 0-.005.003-.004.006.015.078.024.151.028.22.002.027-.01.035-.034.022-.057-.031-.108-.028-.153.01-.017.015-.034.014-.048-.003a.566.566 0 0 1-.1-.157 9.817 9.817 0 0 0-.22-.497c-.056-.115-.077-.11-.065.018.017.173.07.343.159.51.047.089.03.104-.052.046a.367.367 0 0 0-.24-.075.057.057 0 0 1-.05-.02c-.219-.237-.31-.483-.425-.768-.013-.034-.02-.032-.02.005 0 .289.077.536.228.74.062.085.05.098-.037.04-.38-.252-.603-.629-.667-1.13l.116-.273c.028-.065.05-.064.069.005a.315.315 0 0 1-.004.144c0 .003 0 .004.002.005l.016.005c.017.005.029-.001.035-.018.032-.091.033-.183.072-.271.056-.13.13-.246.218-.347.028-.032.043-.027.047.015l.02.286c.004.039.024.055.062.048L8.773 14a.025.025 0 0 0 .017-.01.027.027 0 0 0 .004-.02c-.02-.098-.014-.151.02-.16a.028.028 0 0 0 .02-.02.6.6 0 0 1 .121-.235.07.07 0 0 1 .063-.027l.02-.001a.046.046 0 0 0 .036-.034.279.279 0 0 1 .137-.173c.024-.015.04-.009.047.02l.019.077c.014.058.039.063.073.014a.073.073 0 0 0 .001-.089c-.01-.014-.006-.023.011-.025.038-.005.061-.029.07-.072.01-.06.042-.089.095-.087.03 0 .032.009.008.026-.046.031-.063.073-.05.125.01.045.027.048.052.009.055-.086.12-.169.193-.248.336-.357.589.007.765.268.024.034.036.03.037-.011a.356.356 0 0 0-.02-.122.02.02 0 0 1 .005-.02l.017-.018c.004-.003.007-.003.01.002l.072.127a.181.181 0 0 1 .018.045c.011.04.03.078.059.112.027.034.044.029.048-.015l.012-.113c.002-.028.016-.036.041-.025.03.013.053.032.07.06a.663.663 0 0 0 .173.186c.114.08.169.269.192.397a.07.07 0 0 0 .052.059.026.026 0 0 0 .023-.004.027.027 0 0 0 .011-.022l.006-.3c.002-.077.027-.086.077-.028a1.27 1.27 0 0 1 .287.659.01.01 0 0 0 .011.002.01.01 0 0 0 .005-.005l.064-.126a.032.032 0 0 1 .029-.017.03.03 0 0 1 .028.017l.096.187Z"/><path fill="#2B2A2A" d="M5.566 6.87c-.07.234-.05.435.06.605a.122.122 0 0 1 .01.116c-.064.14-.178.357-.165.512.002.023.013.03.034.021.025-.01.047-.035.066-.074l.14-.057c.034-.014.04-.006.018.023-.13.17-.25.288-.225.527a.905.905 0 0 1-.005.254 1.918 1.918 0 0 0-.024.564c.013.1.07.206.172.316a.1.1 0 0 1 .026.048c.042.175.1.347.172.514.065.148.203.217.327.304.022.015.036.01.042-.016l.066-.28c.004-.015.013-.02.028-.018l.016.003c.007 0 .01.004.009.01a4.286 4.286 0 0 1-.064.382c-.03.138-.005.302.12.388.142.096.234.118.335.296a.99.99 0 0 1-.027.258c-.05.171-.022.186.084.045a.476.476 0 0 1 .17-.133c.057-.029.064-.02.023.03a2.557 2.557 0 0 1-.176.185c-.305.29-.393 1.282-.208 1.625.019.036.015.098-.012.184a.54.54 0 0 1-.283-.187.071.071 0 0 0-.055-.027l-.072-.002a.1.1 0 0 1-.061-.023c-.34-.292-.462-.65-.369-1.075.006-.026-.004-.04-.03-.042l-.077-.008c-.024-.003-.03-.014-.018-.036a.08.08 0 0 1 .062-.042c.023-.003.033-.016.03-.04a.055.055 0 0 0-.04-.05.093.093 0 0 0-.087.014.134.134 0 0 1-.06.026.676.676 0 0 1-.347-.015c-.114-.04-.209-.017-.323-.05-.273-.077-.613-.19-.71-.508a.785.785 0 0 1 .034-.388.074.074 0 0 0 0-.053.071.071 0 0 0-.037-.038.214.214 0 0 1-.1-.096.512.512 0 0 1-.025-.13.211.211 0 0 0-.09-.15 1.578 1.578 0 0 1 .461-.839l.245-.247a.052.052 0 0 0 .012-.057.053.053 0 0 0-.048-.033L4.207 9.4a.091.091 0 0 1-.08-.05.094.094 0 0 1 .005-.095.582.582 0 0 1 .17-.17 1.15 1.15 0 0 0 .226-.194c.017-.02.013-.034-.012-.042-.023-.007-.04 0-.053.02-.018.03-.033.028-.045-.005a.378.378 0 0 1-.02-.153.08.08 0 0 1 .026-.052.739.739 0 0 0 .195-.31.075.075 0 0 0-.018-.076.073.073 0 0 0-.076-.017.81.81 0 0 1-.227.046c-.025.002-.03-.008-.016-.029a.219.219 0 0 1 .084-.073.405.405 0 0 0 .18-.182c.055-.065.115-.133.18-.201a1.6 1.6 0 0 0 .308-.44c.061-.146.039-.161-.068-.044a6.408 6.408 0 0 1-.514.5l.27-.7c.026-.064.076-.174.15-.328.182-.376.472-.692.923-.629a.108.108 0 0 0 .003.05l-.026.069c-.01.026-.004.03.018.013a.14.14 0 0 0 .045-.078c.016.004.03.001.042-.009a.441.441 0 0 1 .177-.095c.08-.02.088-.005.024.048a4.981 4.981 0 0 1-.25.188.104.104 0 0 0-.04.054.13.13 0 0 1-.027.047.777.777 0 0 0-.195.406Zm8.371-.78a.983.983 0 0 1 .322.266c.013.017.023.015.03-.004a.039.039 0 0 0 .002-.018.048.048 0 0 0-.016-.036.177.177 0 0 1-.06-.127c.44-.053.752.245.929.62l.421 1.038-.577-.554c-.012-.012-.025-.012-.038-.002a.031.031 0 0 0-.01.017.03.03 0 0 0 .001.025 2.86 2.86 0 0 0 .717.88.06.06 0 0 0 .051.015l.056-.01a.141.141 0 0 1 .047.067c-.073.048-.145.053-.215.015a.293.293 0 0 0-.171-.043c-.026 0-.037.014-.033.04a.154.154 0 0 1-.012.091.032.032 0 0 0 .007.04c.082.087.155.182.216.284a.07.07 0 0 1 .008.053.179.179 0 0 0-.002.071.058.058 0 0 1-.006.04.055.055 0 0 1-.039.026c-.016.003-.025-.003-.027-.02-.002-.027-.018-.043-.046-.048a.04.04 0 0 0-.042.021.041.041 0 0 0 .007.047c.082.085.188.129.263.202.063.062.121.126.175.193.014.018.015.036.003.054-.038.058-.091.078-.162.06a.351.351 0 0 0-.205.008.131.131 0 0 1-.095-.004.03.03 0 0 0-.042.023c-.011.06.002.106.04.139.218.185.39.387.514.604.07.121.126.25.168.389a.06.06 0 0 1-.016.063.278.278 0 0 0-.09.26c.003.02-.005.033-.025.037a.18.18 0 0 0-.11.082.046.046 0 0 0-.002.052c.052.095.024.18.032.283a.267.267 0 0 1-.034.15.854.854 0 0 1-.42.377 1.169 1.169 0 0 1-.437.107.385.385 0 0 0-.124.024.857.857 0 0 1-.366.03.089.089 0 0 1-.058-.024.105.105 0 0 0-.102-.029c-.067.017-.074.047-.02.09l.046.037c.037.03.031.046-.016.046a.083.083 0 0 0-.05.016.054.054 0 0 0-.023.054.346.346 0 0 1-.008.132.396.396 0 0 0-.01.131.854.854 0 0 1-.36.79.113.113 0 0 1-.048.021.07.07 0 0 1-.049-.008c-.02-.012-.038-.009-.053.009a.674.674 0 0 1-.322.209c.008-.073-.065-.122-.012-.197.039-.055.046-.063.051-.12.04-.37.028-.709-.036-1.018a1.038 1.038 0 0 0-.073-.222c-.074-.163-.207-.28-.316-.413-.003-.004-.003-.008 0-.011l.014-.013c.01-.01.02-.01.03 0l.194.191c.019.018.029.014.03-.012a.824.824 0 0 0-.032-.276c-.017-.057 0-.091.024-.14a.54.54 0 0 1 .112-.125c.11-.065.26-.137.293-.27.052-.206-.023-.405-.055-.592-.035-.195-.01-.203.076-.025a.72.72 0 0 1 .031.254c0 .062.021.07.062.022a.194.194 0 0 1 .104-.072.31.31 0 0 0 .214-.184c.114-.238.196-.496.143-.758a2.44 2.44 0 0 0-.256-.716.261.261 0 0 0-.06-.073.049.049 0 0 1-.017-.046c.004-.034-.01-.057-.04-.071a.034.034 0 0 1-.02-.034c0-.01.003-.019.007-.025.005.013.016.014.034.003a.17.17 0 0 0 .04.06.09.09 0 0 1 .026.059.085.085 0 0 0 .033.06.223.223 0 0 1 .045.05 2 2 0 0 1 .127.222c.028.058.024.117.055.172.03.055.035.114.039.175a.135.135 0 0 0 .014.054c.03.055.04.116.03.182-.01.091.011.1.066.027a.726.726 0 0 0 .131-.598 3.747 3.747 0 0 1-.072-.326.078.078 0 0 1 .007-.047c.093-.189-.04-.447-.178-.563a.62.62 0 0 1-.093-.097c-.051-.066-.04-.079.033-.04.092.052.178.114.26.187a.04.04 0 0 0 .038.01c.02-.006.027-.018.02-.038a2.699 2.699 0 0 0-.199-.508.079.079 0 0 1-.007-.057.316.316 0 0 1 .053-.115.304.304 0 0 0 .028-.288.45.45 0 0 0-.015-.329 1.337 1.337 0 0 0-.19-.365.793.793 0 0 0-.328-.267.037.037 0 0 1-.021-.024.595.595 0 0 0-.005-.018c.035-.013.05-.024.047-.036ZM9.548 9.33l.004.513c0 .054-.016.06-.047.015a.81.81 0 0 0-.186-.187c-.096-.07-.124-.048-.085.064a.58.58 0 0 1 .026.1.041.041 0 0 1-.06.044.769.769 0 0 0-.809.008c-.077.045-.16.088-.246.127a.027.027 0 0 0-.004.047l.112.077c.035.024.031.036-.011.036a1.132 1.132 0 0 0-.934.45.074.074 0 0 0-.015.057c.006.037-.003.064-.027.08a1.01 1.01 0 0 1-.204.091 7.986 7.986 0 0 1-.068-.306 1.12 1.12 0 0 1-.02-.31c.026-.337.082-.65.168-.941.028-.094.011-.103-.051-.028a.622.622 0 0 0-.132.35.053.053 0 0 1-.02.038c-.044.037-.058.088-.042.153.003.01 0 .017-.01.02l-.015.006c-.004.001-.007 0-.008-.004a.61.61 0 0 1-.018-.18c.02-.425.1-.852.242-1.281.189-.574.589-.906 1.2-.997.35-.052.813.074.942.459a.046.046 0 0 1-.01.045.117.117 0 0 1-.095.04c-.023-.001-.03.01-.022.032l.057.143c.01.028.001.042-.028.042a.026.026 0 0 0-.023.01c-.012.016-.012.031 0 .047.122.17.22.338.296.504.086.19.097.422.143.636ZM7.775 8.305a3.72 3.72 0 0 0-.326.315.115.115 0 0 0-.022.122l.192.485a.119.119 0 0 0 .097.074c.455.05.94.056 1.231-.372a.114.114 0 0 0 .014-.103c-.04-.116-.078-.232-.115-.346a1.017 1.017 0 0 0-.257-.413.432.432 0 0 0-.233-.124.461.461 0 0 0-.259.042c-.158.067-.26.166-.306.295a.056.056 0 0 1-.016.025Zm5.182 2.557-.21-.11c-.015-.007-.021-.019-.019-.035a.13.13 0 0 0-.035-.109c-.255-.288-.549-.438-.882-.45-.036 0-.04-.013-.013-.036l.089-.073a.023.023 0 0 0 .007-.02.021.021 0 0 0-.013-.017 6.557 6.557 0 0 1-.324-.16.741.741 0 0 0-.713.012c-.07.037-.093.018-.067-.058a.554.554 0 0 0 .027-.146.036.036 0 0 0-.02-.034.035.035 0 0 0-.037.004c-.077.062-.147.13-.21.205-.06.07-.09.059-.09-.034l-.002-.189c.028-.166.056-.343.084-.53a1.63 1.63 0 0 1 .34-.818c.038-.053.043-.105.014-.156a.044.044 0 0 1 .001-.05c.05-.074.038-.13-.037-.167a.056.056 0 0 1-.03-.04c-.019-.1.015-.186.102-.254a.99.99 0 0 1 .743-.224c.656.07 1.081.401 1.274.992.098.301.177.617.223.938.023.162.017.332-.02.51 0 .003-.002.004-.005.004l-.028-.001c-.011 0-.017-.006-.015-.018.006-.073.022-.137-.005-.207a1.844 1.844 0 0 0-.16-.328c-.049-.079-.063-.073-.042.018.073.307.124.594.155.86.019.158.007.33-.034.514a.517.517 0 0 0-.012.107c0 .062-.012.095-.036.1ZM11.942 7.99a.442.442 0 0 0-.456.038.604.604 0 0 0-.222.267c-.068.165-.137.342-.207.53a.143.143 0 0 0 .024.14c.09.108.201.195.334.261a.847.847 0 0 0 .395.09c.162-.003.323-.01.482-.018a.107.107 0 0 0 .092-.066l.19-.454a.16.16 0 0 0-.03-.183c-.092-.1-.188-.184-.262-.303a.747.747 0 0 0-.34-.302Z"/><path fill="#2B2A2A" d="M13.056 12.405c.171.193.276.426.315.699.013.098.004.1-.03.007a4.36 4.36 0 0 0-.311-.686c-.053-.092-.044-.098.026-.02Zm-6.369.654c-.002.005-.005.006-.01.005l-.016-.006c-.003 0-.004-.002-.004-.005a1.336 1.336 0 0 1 .333-.682.015.015 0 0 1 .007 0c.003 0 .005 0 .007.002a.015.015 0 0 1 .005.006l.005.015c0 .004 0 .007-.002.01a3.99 3.99 0 0 0-.325.655Z"/><path fill="#474747" d="M13.936 6.09c.004.012-.012.023-.046.036a.17.17 0 0 1-.124-.036c-.016-.014-.013-.02.008-.017l.162.017Zm.498.71a.45.45 0 0 1 .014.329l-.014-.329Zm-8.868.07c.004.123.006.243.008.36 0 .109.048.168.093.257a.108.108 0 0 1 .001.093 4.33 4.33 0 0 0-.128.33c-.025.072-.014.118.03.14-.018.039-.04.063-.065.074-.02.01-.032.002-.034-.02-.013-.156.101-.372.165-.513a.122.122 0 0 0-.01-.116c-.11-.17-.13-.371-.06-.605Zm.313.985c.028-.005.035.006.022.032a.108.108 0 0 1-.068.054c-.026.008-.034 0-.026-.026.01-.035.034-.054.072-.06Zm-1.333.165a.41.41 0 0 1-.18.181.666.666 0 0 1 .18-.182Zm9.407.528c-.018.011-.03.01-.034-.003a.296.296 0 0 1-.146-.155c-.008-.02-.003-.025.015-.014.068.042.123.1.165.172Zm-3.507 1.064.001.19c0 .092.03.103.09.033.064-.075.134-.143.21-.205a.035.035 0 0 1 .057.03.554.554 0 0 1-.027.146c-.025.076-.003.095.068.058a.741.741 0 0 1 .713-.012 6.51 6.51 0 0 0 .332.167.021.021 0 0 1 .005.01c0 .003 0 .007-.002.01a.023.023 0 0 1-.006.01l-.088.073c-.028.023-.024.035.012.037.334.01.628.16.883.45a.13.13 0 0 1 .035.108.034.034 0 0 0 .018.036l.21.109a.77.77 0 0 1 .283.34.051.051 0 0 0 .04.03c.032.007.047.016.045.028-.025.049-.04.083-.023.14a.827.827 0 0 1 .032.276c-.002.026-.012.03-.03.012l-.194-.19c-.01-.01-.021-.01-.031 0l-.014.012c-.003.003-.003.007 0 .011.11.133.242.25.316.413a.996.996 0 0 1 .073.222c.064.31.076.649.037 1.018-.006.057-.013.065-.052.12-.053.075.02.124.012.197a.464.464 0 0 0-.022.17c-.052.27-.11.54-.268.761-.037.052-.054.046-.05-.018.017-.34-.05-.633-.202-.878-.057-.091-.066-.087-.03.015.15.405.242.851.073 1.26a2.855 2.855 0 0 1-.465.668.58.58 0 0 0-.138.263c-.017.075-.03.074-.036-.002a1.725 1.725 0 0 1 .021-.466c.063-.358.047-.65-.08-.966-.053-.135-.072-.13-.057.015.031.296-.001.733-.178.983-.083.12-.103.11-.06-.03.085-.273.072-.573-.04-.901l-.096-.187a.032.032 0 0 0-.028-.017.032.032 0 0 0-.028.017l-.065.126a.01.01 0 0 1-.005.004c-.001.001-.003.002-.006.001a.01.01 0 0 1-.008-.008 1.27 1.27 0 0 0-.284-.653c-.05-.058-.075-.049-.076.028l-.007.3a.028.028 0 0 1-.011.021.027.027 0 0 1-.023.005.069.069 0 0 1-.052-.059c-.023-.128-.078-.316-.192-.397a.665.665 0 0 1-.172-.186.153.153 0 0 0-.07-.06c-.026-.011-.04-.003-.042.025l-.012.113c-.004.044-.02.049-.048.015a.3.3 0 0 1-.059-.112.183.183 0 0 0-.018-.045l-.072-.127c-.003-.005-.006-.005-.01-.002l-.017.017a.02.02 0 0 0-.005.02c.014.042.02.083.02.123-.001.042-.013.045-.037.01-.176-.26-.429-.624-.765-.267a1.657 1.657 0 0 0-.193.248c-.025.04-.042.036-.053-.01-.012-.051.005-.093.051-.124.024-.017.021-.026-.008-.026-.053-.002-.084.028-.095.087-.008.043-.031.067-.07.072-.017.002-.02.01-.01.025.019.03.019.06-.001.088-.035.05-.06.045-.074-.013l-.019-.078c-.007-.027-.022-.034-.047-.02a.28.28 0 0 0-.138.174.046.046 0 0 1-.035.034.077.077 0 0 1-.02.001.07.07 0 0 0-.063.027.6.6 0 0 0-.12.236.028.028 0 0 1-.02.02c-.035.008-.042.06-.021.158a.027.027 0 0 1-.004.02.026.026 0 0 1-.017.011l-.018.004c-.037.007-.058-.01-.061-.048l-.021-.286c-.003-.042-.019-.047-.047-.015a1.314 1.314 0 0 0-.218.347c-.039.088-.04.18-.072.27-.006.018-.018.024-.035.019l-.015-.005c-.003 0-.004-.002-.003-.005a.315.315 0 0 0 .004-.144c-.018-.069-.041-.07-.07-.005l-.115.273a1.358 1.358 0 0 0-.031.901c.025.082.01.09-.046.027a.655.655 0 0 1-.121-.244 1.841 1.841 0 0 1-.08-.803c.016-.109.002-.113-.043-.012-.184.416-.132.789-.066 1.22a.55.55 0 0 1-.023.265c-.01.031-.019.03-.024-.003a.583.583 0 0 0-.156-.317 2.399 2.399 0 0 1-.492-.758c-.134-.344.005-.88.145-1.2.003-.008.001-.014-.006-.017-.006-.004-.01-.002-.014.003-.181.29-.261.605-.24.947.004.057-.01.062-.043.015a1.544 1.544 0 0 1-.233-.566l-.037-.204-.014-.157c.027-.086.03-.148.011-.184-.184-.343-.097-1.334.208-1.625.062-.06.12-.121.176-.185.042-.05.034-.059-.023-.03a.476.476 0 0 0-.17.133c-.106.141-.134.126-.084-.045a.99.99 0 0 0 .028-.258c.054-.08.1-.165.14-.253a.431.431 0 0 1 .198-.202 1.1 1.1 0 0 0 .203-.092c.024-.016.033-.043.027-.08a.076.076 0 0 1 .016-.058c.24-.301.552-.45.933-.449.043 0 .047-.012.012-.036l-.112-.077a.027.027 0 0 1 .004-.046c.086-.04.168-.083.246-.128a.769.769 0 0 1 .809-.008.041.041 0 0 0 .058-.021.041.041 0 0 0 .002-.023.579.579 0 0 0-.026-.1c-.04-.112-.011-.134.084-.064a.81.81 0 0 1 .187.187c.03.044.046.04.046-.015L9.55 9.33a.037.037 0 0 1 0-.019c.019-.021.03-.018.034.01.01.094.017.183.017.268 0 .023.01.04.03.052a.705.705 0 0 1 .326.368c.034.092.068.092.102 0a.708.708 0 0 1 .388-.397Zm-.117 1.498c-.44-.084-.895-.009-1.224.318-.284.282.089.475.313.563a.495.495 0 0 1 .24.226c.053.117.12.307.255.343.268.071.35-.105.432-.309.13-.324.597-.293.689-.596a.086.086 0 0 0-.004-.06c-.113-.26-.444-.436-.7-.485Zm2.728 1.295c-.07-.078-.079-.072-.027.02.124.218.228.447.312.686.034.093.043.09.03-.008a1.296 1.296 0 0 0-.315-.698Zm-6.37.654a3.99 3.99 0 0 1 .325-.654.014.014 0 0 0 .003-.011.062.062 0 0 0-.005-.015.015.015 0 0 0-.012-.008h-.007a1.336 1.336 0 0 0-.333.682c0 .003 0 .004.003.005l.017.005c.005.002.008 0 .01-.004ZM3.92 10.582c.053.04.083.09.09.15a.512.512 0 0 0 .024.13.214.214 0 0 0 .1.096c.017.007.03.02.037.038a.074.074 0 0 1 0 .053.785.785 0 0 0-.034.388.358.358 0 0 1 .006-.336.115.115 0 0 0-.036-.147l-.087-.06a.062.062 0 0 1-.028-.052.696.696 0 0 0-.071-.26Z"/><path fill="#1D1D1B" d="m15.565 7.83.2.37-.056.01a.06.06 0 0 1-.05-.014 2.858 2.858 0 0 1-.718-.88.03.03 0 0 1-.003-.026.031.031 0 0 1 .011-.017c.013-.01.026-.01.038.002l.578.554Zm-11.02.19a.666.666 0 0 0-.18.181.22.22 0 0 0-.084.073c-.014.02-.009.03.016.03a.81.81 0 0 0 .227-.047.073.073 0 0 1 .076.017.075.075 0 0 1 .018.077.739.739 0 0 1-.195.309.08.08 0 0 0-.026.052.378.378 0 0 0 .02.153c.012.033.027.034.045.004.013-.02.03-.026.053-.019.025.008.03.022.012.042a1.15 1.15 0 0 1-.226.194.582.582 0 0 0-.17.17.094.094 0 0 0 .028.131c.014.009.03.013.047.014l.383.005a.052.052 0 0 1 .048.033.053.053 0 0 1-.012.057l-.245.247c-.096.099-.17.187-.22.265-.124.188-.204.38-.24.575.046.1.07.187.071.26.001.02.01.038.028.05l.087.061a.115.115 0 0 1 .036.146.358.358 0 0 0-.005.337c.097.319.437.431.71.508.114.033.21.01.324.05a.67.67 0 0 0 .346.015.135.135 0 0 0 .06-.026.092.092 0 0 1 .088-.014.055.055 0 0 1 .04.05c.002.024-.008.037-.031.04a.08.08 0 0 0-.062.042c-.012.022-.006.033.018.036l.078.008c.025.002.035.016.03.042-.094.425.028.783.368 1.075a.1.1 0 0 0 .061.024l.072.001c.022.001.04.01.055.027a.54.54 0 0 0 .283.188l.015.156a1.771 1.771 0 0 1-.766-.234 5.639 5.639 0 0 0-.315-.171 1.038 1.038 0 0 1-.481-.51 1.313 1.313 0 0 0-.097-.174c-.02-.03-.032-.027-.035.01-.016.196.036.347.157.451.026.023.023.03-.011.023-.314-.07-.542-.236-.683-.495a4.242 4.242 0 0 1-.199-.414c-.057-.14-.08-.134-.065.017.013.132.058.26.134.385.015.025.01.033-.019.023a1.029 1.029 0 0 1-.591-.526c-.06-.129-.153-.338-.296-.383-.024-.008-.032-.024-.023-.048.032-.083.055-.166.07-.25.017-.086 0-.094-.05-.021a2.682 2.682 0 0 0-.168.272c-.003.006-.007.008-.014.005-.006-.003-.008-.007-.006-.013a.865.865 0 0 0 .037-.168c.033-.184.075-.373-.07-.523-.207-.211.3-.89.429-1.078.046-.067.032-.082-.04-.046a1.2 1.2 0 0 0-.433.391c-.02.03-.028.026-.022-.009.015-.087.037-.168.067-.242.014-.036.065-.11.153-.223.11-.14.159-.31.148-.51.242-.157.48-.324.714-.503.008-.006.007-.01-.002-.014a.01.01 0 0 0-.01 0 1.848 1.848 0 0 1-.445.195c-.032.009-.035.002-.011-.02.255-.237.438-.427.547-.57.068-.089.153-.24.255-.452.205-.181.377-.348.514-.5.107-.117.13-.102.068.044a1.58 1.58 0 0 1-.308.44 5.71 5.71 0 0 0-.18.201Zm3.246.26c.046-.13.148-.228.306-.295a.461.461 0 0 1 .259-.042.432.432 0 0 1 .233.124c.12.118.205.256.256.413.038.114.076.23.116.346a.116.116 0 0 1-.014.103c-.292.428-.776.421-1.231.372a.117.117 0 0 1-.097-.074l-.193-.485a.118.118 0 0 1 .023-.122 3.72 3.72 0 0 1 .325-.315.056.056 0 0 0 .017-.025Zm.774.145a.136.136 0 0 0-.04-.096.133.133 0 0 0-.228.096.137.137 0 0 0 .083.125.133.133 0 0 0 .146-.03.136.136 0 0 0 .039-.095Z"/><path fill="#fff" d="M8.565 8.425a.136.136 0 0 0-.04-.096.133.133 0 0 0-.228.096.137.137 0 0 0 .082.125.133.133 0 0 0 .146-.03.136.136 0 0 0 .04-.095Z"/><path fill="#1D1D1B" d="M11.941 7.99c.14.061.253.162.341.303.073.119.17.202.26.303a.16.16 0 0 1 .032.183l-.19.454a.108.108 0 0 1-.092.066c-.16.009-.32.015-.482.017a.847.847 0 0 1-.395-.089 1.014 1.014 0 0 1-.334-.26.142.142 0 0 1-.024-.141c.07-.188.139-.365.207-.53a.604.604 0 0 1 .221-.267.442.442 0 0 1 .456-.038Zm.199.434a.135.135 0 0 0-.04-.095.133.133 0 0 0-.227.095c0 .036.014.07.039.096a.133.133 0 0 0 .228-.096Z"/><path fill="#fff" d="M12.14 8.424a.136.136 0 0 0-.04-.095.133.133 0 0 0-.227.095c0 .036.014.07.04.096a.133.133 0 0 0 .227-.096Z"/><path fill="#1D1D1B" d="m15.81 8.267.558.59c.023.024.018.03-.013.02a3.377 3.377 0 0 1-.44-.188c-.029-.014-.032-.01-.009.012.152.15.329.265.528.344.052.02.092.05.119.09a.361.361 0 0 1 .06.145.67.67 0 0 0 .134.402c.088.11.137.176.147.197.04.081.068.174.086.276.01.054-.001.058-.032.013a1.113 1.113 0 0 0-.43-.385c-.056-.026-.067-.013-.035.04.148.24.52.692.48.985a.324.324 0 0 1-.067.132c-.087.116-.104.26-.052.429a.648.648 0 0 0 .045.24l-.014.005a.016.016 0 0 1-.02-.008 1.684 1.684 0 0 0-.15-.26c-.053-.074-.071-.066-.054.023.015.085.036.166.062.245.003.01.003.02-.001.029a.04.04 0 0 1-.02.02.488.488 0 0 0-.24.277 1.08 1.08 0 0 1-.646.632c-.031.011-.038.003-.02-.024a.96.96 0 0 0 .14-.396c.015-.128-.005-.134-.061-.018-.22.454-.345.8-.89.922-.026.006-.03 0-.01-.019a.528.528 0 0 0 .16-.445c-.005-.055-.02-.058-.047-.009-.141.264-.271.524-.544.656-.097.048-.192.1-.284.155a1.91 1.91 0 0 1-.822.267.464.464 0 0 1 .022-.17.673.673 0 0 0 .322-.21c.015-.017.033-.02.053-.008a.069.069 0 0 0 .049.008.113.113 0 0 0 .048-.02.854.854 0 0 0 .36-.79.396.396 0 0 1 .01-.132.344.344 0 0 0 .008-.132.054.054 0 0 1 .023-.054.083.083 0 0 1 .05-.016c.047 0 .053-.016.016-.046l-.046-.037c-.054-.043-.047-.073.02-.09.037-.01.071 0 .102.029a.088.088 0 0 0 .058.024.858.858 0 0 0 .366-.03.384.384 0 0 1 .124-.024c.142-.004.288-.04.437-.107a.854.854 0 0 0 .42-.376.267.267 0 0 0 .034-.151c-.008-.102.02-.188-.032-.283a.046.046 0 0 1 .001-.052.18.18 0 0 1 .11-.082c.02-.005.03-.017.025-.037a.281.281 0 0 1 .091-.26.06.06 0 0 0 .016-.063 1.9 1.9 0 0 0-.167-.389 2.31 2.31 0 0 0-.514-.604c-.039-.033-.052-.08-.04-.139a.032.032 0 0 1 .015-.021.03.03 0 0 1 .026-.002.131.131 0 0 0 .095.004.351.351 0 0 1 .206-.008c.07.018.123-.002.16-.06.013-.018.012-.036-.001-.054a2.12 2.12 0 0 0-.176-.193c-.075-.073-.181-.117-.263-.202a.041.041 0 0 1-.007-.047.04.04 0 0 1 .042-.021c.028.005.044.021.046.048.002.017.01.023.027.02a.055.055 0 0 0 .039-.027.058.058 0 0 0 .006-.039.18.18 0 0 1 .002-.071.068.068 0 0 0-.008-.053 1.675 1.675 0 0 0-.216-.285.032.032 0 0 1-.007-.039.155.155 0 0 0 .012-.091c-.004-.026.007-.04.033-.04a.293.293 0 0 1 .171.043c.07.038.142.033.215-.015Zm-5.482 2.843c.256.05.588.225.7.484.01.02.01.04.004.061-.091.303-.558.272-.688.596-.081.204-.164.38-.432.31-.135-.037-.203-.227-.256-.344a.495.495 0 0 0-.24-.226c-.224-.088-.596-.281-.313-.563.33-.327.785-.402 1.225-.318Z"/><path fill="#40ABAF" d="m5.798 6.227.037.005a.14.14 0 0 1-.045.077c-.021.017-.028.013-.018-.013l.026-.069Z"/><defs><linearGradient id="f" x1="10.011" x2="10.011" y1="3.484" y2="16.526" gradientUnits="userSpaceOnUse"><stop stop-color="#32E3A2"/><stop offset="1" stop-color="#5C40C8"/></linearGradient><linearGradient id="a" x1="18.281" x2="1.406" y1="4.688" y2="15.938" gradientUnits="userSpaceOnUse"><stop stop-color="#31E3A2"/><stop offset="1" stop-color="#5C40C8"/></linearGradient><linearGradient id="c" x1="10.011" x2="10.011" y1="3.484" y2="16.526" gradientUnits="userSpaceOnUse"><stop stop-color="#32E3A2"/><stop offset="1" stop-color="#5C40C8"/></linearGradient><linearGradient id="d" x1="10.011" x2="10.011" y1="3.484" y2="16.526" gradientUnits="userSpaceOnUse"><stop stop-color="#32E3A2"/><stop offset="1" stop-color="#5C40C8"/></linearGradient><linearGradient id="e" x1="10.011" x2="10.011" y1="3.484" y2="16.526" gradientUnits="userSpaceOnUse"><stop stop-color="#32E3A2"/><stop offset="1" stop-color="#5C40C8"/></linearGradient><linearGradient id="b" x1="10.011" x2="10.011" y1="3.484" y2="16.526" gradientUnits="userSpaceOnUse"><stop stop-color="#32E3A2"/><stop offset="1" stop-color="#5C40C8"/></linearGradient><linearGradient id="g" x1="10.011" x2="10.011" y1="3.484" y2="16.526" gradientUnits="userSpaceOnUse"><stop stop-color="#32E3A2"/><stop offset="1" stop-color="#5C40C8"/></linearGradient><linearGradient id="h" x1="10.011" x2="10.011" y1="3.484" y2="16.526" gradientUnits="userSpaceOnUse"><stop stop-color="#32E3A2"/><stop offset="1" stop-color="#5C40C8"/></linearGradient><linearGradient id="i" x1="10.011" x2="10.011" y1="3.484" y2="16.526" gradientUnits="userSpaceOnUse"><stop stop-color="#32E3A2"/><stop offset="1" stop-color="#5C40C8"/></linearGradient><linearGradient id="j" x1="10.011" x2="10.011" y1="3.484" y2="16.526" gradientUnits="userSpaceOnUse"><stop stop-color="#32E3A2"/><stop offset="1" stop-color="#5C40C8"/></linearGradient><linearGradient id="k" x1="10.011" x2="10.011" y1="3.484" y2="16.526" gradientUnits="userSpaceOnUse"><stop stop-color="#32E3A2"/><stop offset="1" stop-color="#5C40C8"/></linearGradient></defs></svg>