<svg width="20" height="20" fill="none" xmlns="http://www.w3.org/2000/svg"><g clip-path="url(#a)"><circle cx="10" cy="10" r="10" fill="#000"/><mask id="b" style="mask-type:luminance" maskUnits="userSpaceOnUse" x="0" y="0" width="20" height="20"><path d="M20 0H0v20h20V0Z" fill="#fff"/></mask><g mask="url(#b)"><mask id="c" style="mask-type:luminance" maskUnits="userSpaceOnUse" x="4" y="4" width="12" height="13"><path d="M16 4H4v12.05h12V4Z" fill="#fff"/></mask><g mask="url(#c)"><path d="M15.737 13.138 10.693 4.4a.8.8 0 0 0-1.386 0l-5.044 8.738c-.747 1.294.187 2.912 1.681 2.912h8.112c1.494 0 2.428-1.618 1.681-2.912ZM9.21 14.522H5.98a.465.465 0 0 1-.409-.689l3.639-6.648v7.337Zm4.809 0h-3.231V7.185l3.639 6.648a.465.465 0 0 1-.408.689Z" fill="#fff"/></g></g></g><defs><clipPath id="a"><path fill="#fff" d="M0 0h20v20H0z"/></clipPath></defs></svg>