<svg width="267" height="267" fill="none" xmlns="http://www.w3.org/2000/svg"><path d="M133.042 266.395c73.477 0 133.042-59.634 133.042-133.197S206.519 0 133.042 0 0 59.635 0 133.198c0 73.563 59.565 133.197 133.042 133.197Z" fill="#28E179"/><path d="M62.59 99.034a11.384 11.384 0 0 0-4.039-3.1 12.104 12.104 0 0 0-4.711-1.069 13.35 13.35 0 0 0-5.266.898 11.715 11.715 0 0 0-4.018 2.64 11.287 11.287 0 0 0-2.537 3.998 15.123 15.123 0 0 0 0 10.112 11.298 11.298 0 0 0 2.537 4.029 11.649 11.649 0 0 0 4.018 2.64 13.36 13.36 0 0 0 5.266.898c1.626-.036 3.228-.4 4.711-1.069a11.373 11.373 0 0 0 4.04-3.1l-2.761-2.138a7.22 7.22 0 0 1-2.43 2.256 6.851 6.851 0 0 1-3.56.919 8.833 8.833 0 0 1-3.763-.663 8.21 8.21 0 0 1-2.857-1.913 8.626 8.626 0 0 1-1.79-3.057 12.204 12.204 0 0 1 0-7.642 8.643 8.643 0 0 1 1.79-3.047 8.25 8.25 0 0 1 2.835-1.999 8.853 8.853 0 0 1 3.763-.662 6.851 6.851 0 0 1 3.56.92 7.24 7.24 0 0 1 2.43 2.255l2.762-2.138.02.032Zm8.08 20.469h3.38v-12.314a10.706 10.706 0 0 1 1.065-5.13 8.145 8.145 0 0 1 2.324-2.769 6.232 6.232 0 0 1 2.44-1.165c.48-.084.964-.14 1.45-.17 2.488 0 4.193.712 5.117 2.137 1.034 1.872 1.514 4 1.385 6.135v13.276h3.38v-15.242c.163-2.51-.62-4.99-2.197-6.948-1.484-1.596-3.762-2.394-6.832-2.394a8.86 8.86 0 0 0-2.377.331c-.793.217-1.558.525-2.28.92a9.418 9.418 0 0 0-1.94 1.41 7.87 7.87 0 0 0-1.43 1.796h-.106V80.713H70.67v38.79Zm47.433-11.95v1.742a10.158 10.158 0 0 1-.436 3.004 6.561 6.561 0 0 1-1.363 2.465 6.507 6.507 0 0 1-2.272 1.66c-1.01.434-2.1.645-3.198.62a8.979 8.979 0 0 1-2.026-.235 5.55 5.55 0 0 1-1.811-.769 4.038 4.038 0 0 1-1.301-1.39 3.996 3.996 0 0 1-.49-2.031 3.444 3.444 0 0 1 1.258-2.822 8.103 8.103 0 0 1 3.016-1.517 18.451 18.451 0 0 1 3.688-.621 49.796 49.796 0 0 1 3.198-.128l1.737.022Zm-1.684-2.769c-1.421 0-2.999.068-4.732.204a18.627 18.627 0 0 0-4.861 1.068 9.23 9.23 0 0 0-3.784 2.491 6.583 6.583 0 0 0-1.513 4.596 6.42 6.42 0 0 0 .693 3.057 6.766 6.766 0 0 0 1.843 2.202 7.815 7.815 0 0 0 2.633 1.336c.997.292 2.031.44 3.07.438a10.629 10.629 0 0 0 4.935-1.069 9.164 9.164 0 0 0 3.507-3.463h.107c0 .649.024 1.315.074 1.999.05.684.131 1.304.245 1.86h3.198c-.1-.649-.192-1.479-.277-2.491-.085-1.012-.114-1.963-.085-2.853V103.47a9.213 9.213 0 0 0-.715-3.795 7.764 7.764 0 0 0-1.897-2.64 7.576 7.576 0 0 0-2.793-1.56 11.005 11.005 0 0 0-3.346-.514c-4.505 0-7.881 1.162-10.127 3.485l2.047 2.415a10.558 10.558 0 0 1 7.312-2.821c4.093 0 6.14 2.07 6.14 6.21v.62l-1.674-.086Zm16.266-9.288c.071.89.131 1.831.182 2.822.049.99.074 1.81.074 2.458v18.727h3.379v-12.314a10.703 10.703 0 0 1 1.066-5.13 8.141 8.141 0 0 1 2.324-2.769 6.225 6.225 0 0 1 2.44-1.165c.472-.094.949-.162 1.428-.203 2.488 0 4.193.713 5.117 2.138 1.034 1.872 1.514 4 1.386 6.135v13.308h3.379v-15.242c.164-2.51-.62-4.99-2.196-6.948-1.471-1.596-3.742-2.394-6.811-2.394a8.852 8.852 0 0 0-2.377.331c-.793.217-1.559.525-2.281.92a9.454 9.454 0 0 0-1.972 1.378 7.875 7.875 0 0 0-1.429 1.796h-.106V97.42c0-.634-.043-1.276-.128-1.924h-3.475Zm35.484 8.134a9.394 9.394 0 0 1 1.898-2.929 9.175 9.175 0 0 1 2.813-1.998 8.265 8.265 0 0 1 3.507-.749 9.305 9.305 0 0 1 3.784.749 8.661 8.661 0 0 1 2.868 1.998 8.556 8.556 0 0 1 1.79 2.929c.417 1.144.626 2.352.619 3.57a9.364 9.364 0 0 1-.64 3.794 8.16 8.16 0 0 1-1.972 2.897 9.363 9.363 0 0 1-6.395 2.544 8.253 8.253 0 0 1-3.507-.748 9.142 9.142 0 0 1-2.814-1.999 9.371 9.371 0 0 1-1.898-2.929 9.552 9.552 0 0 1 0-7.129h-.053Zm-3.816 23.355a14.85 14.85 0 0 0 5.117 3.644 16.378 16.378 0 0 0 6.395 1.176 14.88 14.88 0 0 0 6.545-1.229 10.782 10.782 0 0 0 3.912-3.078 10.294 10.294 0 0 0 1.897-4.051c.313-1.364.478-2.758.49-4.158V95.496h-3.378v3.997h-.107a11.094 11.094 0 0 0-4.584-3.698 10.774 10.774 0 0 0-2.409-.716 13.64 13.64 0 0 0-2.28-.203 12.336 12.336 0 0 0-4.882.951 11.42 11.42 0 0 0-3.838 2.64 12.527 12.527 0 0 0-2.536 3.955 12.77 12.77 0 0 0-.917 4.874 12.193 12.193 0 0 0 .969 4.874 11.693 11.693 0 0 0 2.666 3.87 12.414 12.414 0 0 0 3.965 2.544c1.552.62 3.21.932 4.882.919a12.28 12.28 0 0 0 4.967-1.069 9.236 9.236 0 0 0 3.986-3.485h.107v4.276a13.438 13.438 0 0 1-.491 3.666 7.81 7.81 0 0 1-1.577 3.025 7.556 7.556 0 0 1-2.889 2.031 11.349 11.349 0 0 1-4.348.748 11.56 11.56 0 0 1-5.33-1.208 10.773 10.773 0 0 1-3.859-3.207l-2.473 2.705Zm38.011-21.378a6.36 6.36 0 0 1 .692-2.875 8.616 8.616 0 0 1 1.845-2.458 8.938 8.938 0 0 1 2.685-1.721 8.161 8.161 0 0 1 3.199-.641 7.57 7.57 0 0 1 5.734 2.138 7.681 7.681 0 0 1 2.014 5.557h-16.169Zm19.847 2.769v-1.497a13.914 13.914 0 0 0-.768-4.638 11.101 11.101 0 0 0-2.227-3.795 10.789 10.789 0 0 0-3.582-2.597c-1.532-.668-3.19-1-4.861-.973-1.632-.013-3.25.31-4.753.951a11.723 11.723 0 0 0-3.837 2.64 12.17 12.17 0 0 0-2.559 3.998 13.44 13.44 0 0 0-.916 5.024 13.1 13.1 0 0 0 .948 5.024 12.505 12.505 0 0 0 2.58 3.997 11.557 11.557 0 0 0 3.912 2.64c1.566.641 3.243.965 4.935.951a13.222 13.222 0 0 0 5.553-1.175 12.993 12.993 0 0 0 4.733-3.902l-2.612-2.137a9.371 9.371 0 0 1-2.995 2.896 8.504 8.504 0 0 1-4.679 1.261 8.244 8.244 0 0 1-3.326-.663 8.835 8.835 0 0 1-4.605-4.564 10.303 10.303 0 0 1-.874-3.388l19.933-.053ZM44.082 183.635h8.591v-37.143h.139l23.876 37.143h10.915v-48.43h-8.602v35.978h-.128l-23.45-35.978H44.082v48.43Zm57.24-13.681a23.06 23.06 0 0 0 5.282 7.969 22.996 22.996 0 0 0 8.052 5.135 28.154 28.154 0 0 0 10.265 1.817 28.725 28.725 0 0 0 10.371-1.945 24.277 24.277 0 0 0 8.122-5.238 23.683 23.683 0 0 0 5.33-8.005 26.962 26.962 0 0 0 1.865-10.336 27.837 27.837 0 0 0-1.908-10.539 23.527 23.527 0 0 0-5.329-8.071 22.677 22.677 0 0 0-8.123-5.098 28.639 28.639 0 0 0-10.371-1.678 28.158 28.158 0 0 0-10.265 1.817 23.178 23.178 0 0 0-8.047 5.162 23.71 23.71 0 0 0-5.33 8.103 28.124 28.124 0 0 0-1.79 10.582c-.048 3.533.6 7.042 1.907 10.325h-.031Zm8.292-17.648a16.78 16.78 0 0 1 3.379-5.504 15.52 15.52 0 0 1 5.223-3.698 16.69 16.69 0 0 1 6.811-1.336 16.929 16.929 0 0 1 6.822 1.336c1.991.85 3.781 2.11 5.255 3.698a16.806 16.806 0 0 1 3.379 5.504c.79 2.16 1.18 4.446 1.151 6.745a20.909 20.909 0 0 1-1.193 7.183 16.9 16.9 0 0 1-3.38 5.676 15.617 15.617 0 0 1-5.255 3.762 16.545 16.545 0 0 1-6.821 1.368 16.317 16.317 0 0 1-6.79-1.368 15.695 15.695 0 0 1-5.223-3.762 16.855 16.855 0 0 1-3.379-5.676 20.86 20.86 0 0 1-1.183-7.183c-.02-2.313.385-4.61 1.193-6.776l.011.031Zm61.684 31.329h7.909l11.193-36.876h.138l11.235 36.876h8.186l14.049-48.43h-8.73l-9.487 34.888h-.138l-10.659-34.888h-8.463l-10.862 34.888h-.139l-9.071-34.888h-9.454l14.293 48.43Z" fill="#fff"/></svg>