<svg width="20" height="20" fill="none" xmlns="http://www.w3.org/2000/svg"><path fill-rule="evenodd" clip-rule="evenodd" d="m9.48.988 4.914 2.84.428-.74L9.481 0 4.135 3.087l.428.74L9.48.989zM3.417 13.96l4.313 2.492v2.067l-5.874-3.392V5.39l1.164-.67-.428-.741L1 4.899v10.72L8.583 20v-4.041l-4.738-2.74-.428.741zm10.977-7.065L9.48 4.054 4.564 6.892l-.428-.741L9.48 3.066l5.342 3.087-.428.74zm1.968-2.915-.427.741 1.163.672v9.734l-5.874 3.392v-2.066l4.36-2.519-.428-.74-4.787 2.765V20l7.584-4.38V4.898l-1.59-.919zm-4.456 7.005c.038.232.027.47-.032.698a1.596 1.596 0 0 1-1.416 1.226 3.691 3.691 0 0 0-.114.012h-.004a.063.063 0 0 0-.054.056c-.002.045-.004.09-.004.136v.11l-.001.093c-.002.048-.024.067-.076.069-.023.002-.046.002-.068.002H9.34c-.1-.002-.11-.011-.111-.104v-.237c0-.106-.008-.127-.126-.127l-.169.001a.114.114 0 0 0-.05.01.068.068 0 0 0-.03.03.237.237 0 0 0-.008.067v.22c0 .029-.003.057-.005.085a.056.056 0 0 1-.043.046h-.007a.678.678 0 0 1-.077.005h-.797a.859.859 0 0 1-.085-.005.051.051 0 0 1-.045-.042l-.001-.029a2.487 2.487 0 0 1-.004-.124l-.001-.096c0-.036 0-.071-.002-.107a.061.061 0 0 0-.066-.061c-.045-.004-.09-.004-.135-.004h-.39c-.032 0-.064-.003-.095-.005h-.006a.06.06 0 0 1-.047-.043v-.008a1.478 1.478 0 0 1-.004-.094v-.763l.002-.074v-.01a.056.056 0 0 1 .053-.056c.05-.002.102-.003.153-.003l.091-.001c.049 0 .097 0 .146-.002a.062.062 0 0 0 .045-.02.062.062 0 0 0 .016-.046c.002-.022.002-.045.002-.067v-.39l-.003-.062-.002-.023.004-.218V8.706c0-.046-.003-.09-.008-.135a.051.051 0 0 0-.03-.035.35.35 0 0 0-.085-.009h-.144l-.144-.001a.277.277 0 0 1-.067-.01.042.042 0 0 1-.022-.023.16.16 0 0 1-.008-.05V7.56a.115.115 0 0 1 .007-.05.062.062 0 0 1 .036-.031.473.473 0 0 1 .1-.01h.407c.045 0 .09-.001.135-.004a.06.06 0 0 0 .057-.052 4.113 4.113 0 0 0 .004-.217l.003-.24a.057.057 0 0 1 .05-.058h.016a.647.647 0 0 1 .053-.004h.814a.786.786 0 0 1 .067.004.06.06 0 0 1 .057.052 10.787 10.787 0 0 0 .005.136 21.147 21.147 0 0 1 .002.305c0 .05.024.077.07.077h.237a.06.06 0 0 0 .033-.007c.013-.009.03-.02.033-.034a.328.328 0 0 0 .009-.085l.001-.322a.355.355 0 0 1 .007-.084.059.059 0 0 1 .033-.033.21.21 0 0 1 .067-.009h.848c.023 0 .045.004.067.01a.038.038 0 0 1 .022.023.28.28 0 0 1 .009.067v.322c0 .079 0 .116.018.136.017.02.052.025.121.037a1.558 1.558 0 0 1 1.29 1.31 1.79 1.79 0 0 1-.015.623 1.45 1.45 0 0 1-.192.486 1.959 1.959 0 0 0-.068.117.035.035 0 0 0 .002.031.477.477 0 0 0 .052.066l.135.167.011.017.016.025c.129.197.215.42.252.652zM8.612 8.57a.634.634 0 0 0-.008.1 24.3 24.3 0 0 0 0 .52v.294a.481.481 0 0 0 .01.085.036.036 0 0 0 .023.023c.033.006.067.01.1.01h1.357c.017 0 .033 0 .05-.002.04-.001.08-.002.12-.008a.482.482 0 0 0 .403-.437 2.81 2.81 0 0 0 0-.17.45.45 0 0 0-.133-.303.5.5 0 0 0-.381-.154H8.73a.75.75 0 0 0-.085.007.04.04 0 0 0-.033.035zm1.468 3.289.254-.001a.55.55 0 0 0 .502-.39.72.72 0 0 0 .023-.284.543.543 0 0 0-.363-.487.602.602 0 0 0-.233-.034H8.754l-.091.003h-.01a.061.061 0 0 0-.044.046l-.002.012-.003.055v.95a.503.503 0 0 0 .013.099.034.034 0 0 0 .022.021c.033.006.067.01.1.01h1.34z" fill="url(#a)"/><defs><linearGradient id="a" x1="2.763" y1="32.3" x2="25.771" y2="-12.021" gradientUnits="userSpaceOnUse"><stop offset=".13" stop-color="#13AAE6"/><stop offset="1" stop-color="#023B90"/></linearGradient></defs></svg>