<svg width="20" height="20" fill="none" xmlns="http://www.w3.org/2000/svg"><circle cx="10" cy="10" r="10" fill="#EF1621"/><mask id="a" style="mask-type:alpha" maskUnits="userSpaceOnUse" x="0" y="0" width="20" height="20"><circle cx="10" cy="10" r="10" fill="#EF1621"/></mask><g mask="url(#a)"><path fill-rule="evenodd" clip-rule="evenodd" d="M12.296 18.262c.014 0 .023-.002.026-.006l-.026.006Z" fill="#151515"/><path fill-rule="evenodd" clip-rule="evenodd" d="M10.133 1.019c.093-.017.21-.043.26-.06a.513.513 0 0 1 .184-.02 7.836 7.836 0 0 1 .967.161c.27.067.835.212.978.25.21.06.98.329 1.12.392.12.055.583.244.595.244a20.05 20.05 0 0 1 1.697.856c.084.049.194.11.244.138.051.029.194.119.32.2.125.083.235.15.243.15.008 0 .032.015.053.035a.47.47 0 0 0 .075.055c.035.02.078.05.318.21.167.112.313.22.373.275.03.029.083.067.118.084.034.018.069.047.075.063.006.016.049.049.094.071a.366.366 0 0 1 .087.057c.002.01.045.04.092.071.047.031.106.084.13.119.027.032.058.06.07.06.026 0 .256.202.334.292a.25.25 0 0 0 .085.071c.092.035.94.909 1.062 1.096.124.19.283.511.35.707l.055.16-.047.07c-.026.039-.063.076-.083.082a.11.11 0 0 0-.055.05c-.013.021-.033.04-.047.04a.284.284 0 0 0-.084.03.427.427 0 0 1-.102.039.955.955 0 0 0-.21.077.581.581 0 0 1-.136.045.16.16 0 0 0-.067.018c-.006.008-.035.014-.06.014-.026 0-.05.008-.056.017a.405.405 0 0 1-.129.05c-.065.019-.228.068-.364.106a2.407 2.407 0 0 1-.291.072.241.241 0 0 0-.09.022.282.282 0 0 1-.094.03c-.081.01-.228.05-.269.072a.553.553 0 0 1-.134.03.486.486 0 0 0-.149.041 3.727 3.727 0 0 1-.395.11c-.19.047-.36.092-.381.102-.03.016-.037.051-.037.21 0 .102-.01.236-.022.297-.024.127-.112.34-.167.402a.152.152 0 0 0-.037.085c0 .025-.016.112-.038.194-.02.08-.05.203-.064.273l-.026.126.106.126c.11.133.163.222.204.349.014.04.046.087.073.105.073.05.291.276.358.373a.62.62 0 0 1 .12.332c0 .176-.138.442-.323.622a.568.568 0 0 0-.116.142.577.577 0 0 1-.114.145l-.1.104.071.108c.163.246.145.588-.04.786-.033.035-.1.116-.15.18a.56.56 0 0 1-.103.113c-.008 0-.03.033-.053.072-.033.063-.035.083-.013.189a.683.683 0 0 1-.026.426c-.059.19-.128.305-.32.53-.2.236-.2.262.015.417.09.065.25.167.356.228.377.216.668.436.99.75.34.334.473.503.688.888.082.142.235.39.343.554.466.707.58 1.002.497 1.29-.066.223-.347.462-.762.643-.923.405-1.754.528-2.622.387-.515-.084-.939-.2-1.11-.305a.747.747 0 0 0-.081-.041 2.924 2.924 0 0 1-.145-.072.5.5 0 0 0-.124-.049c-.014 0-.039-.02-.055-.042-.025-.043-.025-.045.032-.033.03.006.123.047.2.09.08.043.175.09.214.104.244.093.397.136.727.207 1.051.229 2 .117 3.005-.352.287-.134.531-.316.594-.44.051-.102.053-.379.006-.521-.048-.145-.25-.502-.466-.825-.102-.151-.253-.396-.338-.54a3.14 3.14 0 0 0-.593-.793c-.348-.354-.6-.543-1.265-.939-.236-.142-.375-.264-.444-.39a.718.718 0 0 0-.36-.337.523.523 0 0 0-.306-.065c-.19.002-.403.067-.636.191-.211.114-.352.225-.607.471-.122.122-.25.24-.28.265l-.06.045.129.067a.54.54 0 0 1 .273.277c.063.12.063.175.004.263-.055.081-.23.201-.294.201-.085 0-.05-.067.078-.146a.5.5 0 0 0 .132-.108c.04-.106-.12-.343-.275-.406-.122-.049-.255-.002-.375.13-.305.34-.059.797.402.744.201-.022.405-.132.739-.4.287-.227.436-.325.587-.386.23-.092.52-.047.8.124.074.045.084.114.014.108-.05-.004-.07.027-.07.112 0 .092-.027.137-.16.273a.517.517 0 0 0-.104.124c.01.01.106-.032.206-.093.07-.041.188-.143.48-.412.062-.057.131-.114.158-.13.053-.033.116-.018.1.024-.013.03-.445.428-.585.534-.051.039-.23.147-.395.236-.672.369-.85.508-.913.717-.049.161-.039.237.043.373a.96.96 0 0 0 .303.328c.157.12.306.19.404.19.067 0 .093-.015.183-.107.06-.059.185-.232.28-.382a2.47 2.47 0 0 1 .315-.42c.159-.159.324-.277.369-.259.06.023.024.086-.108.186-.204.15-.267.224-.503.592l-.216.335v.136c0 .167.024.198.234.291a.703.703 0 0 0 .56.012c.118-.044.145-.065.265-.211.273-.332.621-.693.678-.7.1-.011.061.056-.163.298-.348.371-.515.583-.515.652 0 .159.13.29.289.29.185 0 .66-.373.872-.685.094-.134.255-.281.295-.265.055.02.033.09-.05.161-.046.039-.12.124-.166.19-.157.228-.489.53-.69.631a.49.49 0 0 1-.477-.012c-.108-.061-.195-.165-.195-.233 0-.04-.005-.04-.143.009a.84.84 0 0 1-.587-.025.985.985 0 0 1-.228-.118.41.41 0 0 1-.102-.259c0-.044-.002-.044-.085-.014-.108.039-.206.025-.357-.045a1.707 1.707 0 0 1-.485-.393.608.608 0 0 0-.201-.17c-.326-.174-.501-.44-.54-.822a.608.608 0 0 0-.053-.218c-.033-.05-.047-.055-.173-.055a.547.547 0 0 1-.391-.14.531.531 0 0 1-.149-.532l.033-.092-.057-.046c-.153-.125-.442-.22-.583-.194-.316.06-.43.322-.27.625.075.145.209.328.368.502.301.327.411.56.448.937.039.403.092.696.147.802.11.214.328.385.929.723a.782.782 0 0 1 .116.075c0 .007-.019 0-.041-.012a.326.326 0 0 0-.112-.024.18.18 0 0 1-.124-.055c-.03-.029-.063-.055-.078-.055l-.045-.006c-.014 0-.05-.029-.081-.06a2.957 2.957 0 0 0-.444-.289c-.082-.04-.206-.22-.247-.354-.046-.157-.063-.175-.11-.114-.028.035-.034.059-.02.085.01.019.018.076.018.125 0 .108-.055.19-.154.23-.094.039-.114.034-.029-.008.09-.045.163-.153.163-.24 0-.04-.006-.07-.012-.07a.628.628 0 0 0-.1.051l-.088.053-.43-.214a9.835 9.835 0 0 1-1.643-1.012c-1.271-.956-2.447-2.225-3.374-3.644-1.042-1.597-1.72-3.323-1.88-4.781a8.203 8.203 0 0 1-.008-1.302c.012-.106.019-.197.012-.206a.505.505 0 0 0-.152.015c-.118.018-.145.03-.155.067-.035.116-.035.678-.004 1.104.1 1.332.244 2.039.637 3.127.373 1.032.946 2.149 1.5 2.929.478.674 1.334 1.625 1.845 2.055.304.253.927.732 1.151.882.527.355 1.611.94 2.07 1.12.152.06.23.103.217.117l-.026.006a.277.277 0 0 0-.118.05c-.092.064-.098.064-.126 0-.02-.042-.019-.05.014-.06.077-.025.034-.066-.139-.133-.293-.114-1.149-.55-1.57-.802-.615-.367-1.526-1.064-1.97-1.51a16.464 16.464 0 0 1-1.31-1.513C6.183 13.1 5.32 11.169 5.028 9.706c-.07-.34-.128-.733-.153-1.008a21.825 21.825 0 0 1-.081-1.44c.002-.128-.006-.21-.02-.228C4.756 7.01 4.707 7 4.623 7c-.077.002-.128-.006-.138-.022-.02-.033-.375.03-.43.077-.075.066-.523.935-.755 1.469-.281.644-.373.866-.556 1.355-.11.29-.22.576-.245.631-.102.232-.191.654-.254 1.202-.01.1-.04.297-.062.438l-.101.652-.092.566c-.016.092-.049.395-.071.672-.023.277-.055.64-.072.809-.032.312-.024.53.033.988.07.572.234.902.654 1.32.515.509 1.098.853 1.91 1.128.371.124 1.127.312 1.39.345.21.026 4.14.024 4.823-.003.575-.022.854-.067 1.15-.185.11-.043.207-.08.217-.08.045 0-.016.068-.102.11-.169.086-.352.135-.692.186-.332.049-.334.049-2.18.053-1.014 0-1.955.008-2.09.016-.346.025-1.092-.01-1.344-.06-1.037-.207-1.864-.512-2.463-.913-.485-.324-.796-.607-1.004-.92a1.538 1.538 0 0 1-.23-.457c-.119-.337-.194-1.117-.145-1.498a7.32 7.32 0 0 0 .043-.489c.034-.568.057-.822.09-1.008l.083-.52c.03-.185.071-.445.094-.58.022-.134.057-.383.08-.55.02-.169.056-.42.08-.56.025-.14.051-.314.062-.387.008-.073.05-.21.091-.306.041-.095.147-.37.237-.61s.24-.622.334-.846c.095-.224.173-.422.173-.44 0-.039-.265-.077-.55-.08-.106 0-.271-.014-.367-.03a5.273 5.273 0 0 1-.61-.132.676.676 0 0 1-.351-.19c-.133-.124-.147-.191-.13-.595.01-.29.036-.448.079-.49.008-.009.014-.031.014-.05 0-.018.018-.07.04-.117a.402.402 0 0 0 .042-.113.1.1 0 0 1 .016-.046c.01-.01.03-.051.045-.09.036-.092.24-.403.336-.515a.579.579 0 0 0 .093-.133c.02-.053.161-.22.363-.434.071-.075.145-.165.165-.195a.995.995 0 0 1 .145-.157l.211-.194c.058-.053.18-.165.275-.248l.265-.234c.267-.247 1.365-1.088 1.418-1.088.016 0 .029-.008.029-.02 0-.033.548-.39.967-.632.33-.191.742-.407.907-.479.05-.022.124-.059.163-.081.122-.07.495-.234.531-.234.02 0 .04-.008.05-.019.013-.026.215-.116.294-.134a.54.54 0 0 0 .13-.051c.103-.061.502-.214.706-.273.05-.014.169-.053.264-.088.33-.116.785-.248 1.074-.311a.668.668 0 0 0 .149-.051c.032-.016.136-.045.228-.061Zm3.897.961a14.025 14.025 0 0 0-2.854-.88c-.61-.114-.61-.114-1.16.027-1.075.277-2.16.643-2.256.764-.03.038-.033.038-.02.006.01-.03.005-.037-.017-.027l-.228.096c-.843.35-1.91.92-2.548 1.36-.123.084-.347.243-.5.353l-.274.202-.196.364a6.204 6.204 0 0 1-.212.383c-.01.008.061-.136.159-.326.098-.187.17-.34.159-.34-.02 0-.505.385-.737.585-.178.153-.75.75-.968 1.006a2.47 2.47 0 0 0-.316.505c-.201.391-.275.481-.165.2.03-.082.029-.11-.006-.076-.067.068-.328.491-.42.683-.091.187-.195.495-.175.515.006.004.041-.014.078-.04.2-.15.456-.26.925-.396.468-.136 1.364-.35 1.385-.33.004.004-.173.051-.396.106-.743.18-.971.253-1.328.432-.421.21-.713.47-.713.642 0 .08.027.106.047.05.037-.091.495-.344.817-.45.09-.028.171-.059.183-.069.045-.036 1.078-.27 1.952-.442l.177-.034.063-.206c.035-.112.07-.224.076-.247a.517.517 0 0 1 .1-.132.557.557 0 0 0 .14-.257c.028-.091.073-.216.102-.275l.049-.11v.08c.002.043-.017.16-.041.258-.037.155-.051.186-.096.21-.134.072-.19.161-.252.41-.033.13-.055.242-.05.248.005.006.109-.008.23-.032.57-.108 1.64-.263 2.462-.359.289-.032.336-.05.336-.128 0-.104.24-.95.244-.858 0 .017-.092.454-.142.67a1.68 1.68 0 0 0-.041.222c0 .047.004.047.1.035.541-.071 2.45-.232 3.302-.277a78.81 78.81 0 0 1 2.731-.094l.868-.014-.13-.375c-.104-.305-.123-.375-.094-.368.034.006.118.203.248.576.053.153.062.163.127.177.038.006.077.006.085-.002.008-.008-.002-.065-.026-.124-.023-.06-.039-.112-.033-.116.004-.004.029.045.053.11a.456.456 0 0 0 .067.132c.015.008.127.017.249.017.446-.003 1.534.063 1.955.116.237.028.45.055.479.059.029.002.167.024.312.047.142.024.264.042.27.042.01 0-.008-.026-.117-.173l-.047-.06.065.046a.86.86 0 0 1 .134.128c.07.08.08.084.302.129.128.026.236.044.24.04a.779.779 0 0 0-.077-.154c-.092-.161-.253-.385-.727-1.009-.46-.605-.43-.59.111.055.487.579.667.825.764 1.045.043.1.06.116.106.116.03 0 .188.025.347.055.16.03.297.05.303.043.008-.006-.002-.047-.02-.088-.047-.116-.02-.11.038.007.05.095.06.103.157.124a1.1 1.1 0 0 1 .196.063l.09.039-.015-.045c-.053-.173-.34-.652-.507-.845-.084-.096-.104-.1-.071-.015.045.116 0 .07-.125-.134-.116-.19-.338-.46-.358-.438-.004.004.012.043.039.087.06.098.19.337.154.284-.014-.02-.1-.15-.187-.286-.177-.268-.26-.356-.705-.741a16.42 16.42 0 0 0-2.027-1.454c-.503-.304-1.09-.624-1.09-.593 0 .008.104.12.23.25.227.233.148.165-.189-.16a1.256 1.256 0 0 0-.403-.282 1.383 1.383 0 0 0-.24-.104c-.004.007.102.139.238.294.265.303.438.513.37.446-.022-.023-.168-.183-.323-.357-.44-.488-.381-.442-.792-.617Zm2.495 4.539c.034-.041-.291-.227-.49-.277-.15-.04-.237-.045-.692-.051-.417-.006-.541-.002-.631.024-.112.03-.194.077-.1.057.039-.01.043-.006.018.01-.042.029-.012.051.04.025.026-.015.044-.017.052-.002.006.01-.004.02-.024.02a.097.097 0 0 0-.06.02c-.012.013-.052.025-.091.027-.039.002-.075.01-.082.02-.016.023-.142-.008-.128-.03.008-.015 0-.015-.024 0a.64.64 0 0 1-.125.034c-.083.013-.087.013-.087-.038 0-.07-.039-.088-.08-.039-.03.039-.144.077-.144.049a1.53 1.53 0 0 0-.27.002 23.24 23.24 0 0 1-.572.022c-.26.008-.303.004-.32-.024-.016-.029-.018-.029-.02.006 0 .02.027.067.06.106.11.124.305.485.39.721.041.112.05.171.05.393 0 .21-.007.263-.031.28-.053.032-.07-.017-.063-.2a1.12 1.12 0 0 0-.094-.514c-.088-.22-.21-.41-.373-.572l-.153-.157-.328.004c-.317.002-.328.004-.348.047-.02.043-.004.061.206.238.452.383.884.87 1.014 1.147.076.159.129.444.098.524-.026.07-.094.065-.088-.009.015-.203-.138-.566-.348-.827-.279-.346-.9-.894-1.191-1.05-.096-.052-.115-.054-.32-.045l-.271.008c-.047 0-.041.008.049.067.091.061.49.287.82.466.329.18.447.308.618.679.045.1.132.287.193.413.061.129.116.255.122.281.009.03.057.08.12.122.115.076.153.143.153.263 0 .173-.122.296-.448.452-.218.106-.338.214-.637.583-.098.12-.23.26-.296.31-.148.118-.468.275-.717.352a4.69 4.69 0 0 0-.427.163c-.34.15-.546.19-.591.106-.016-.03-.012-.043.018-.061a.289.289 0 0 1 .1-.02c.08 0 .259-.056.38-.119a5.36 5.36 0 0 1 .45-.17c.555-.194.71-.294 1.011-.657.114-.134.23-.267.26-.291.028-.022.046-.049.04-.057a1.089 1.089 0 0 0-.224.01 2.381 2.381 0 0 1-.375.01 31.937 31.937 0 0 1-1.355-.13l-.58-.063c-.403-.04-.558-.122-.927-.485-.27-.269-.301-.291-.51-.36-.101-.035-.132-.053-.132-.084 0-.061.161-.047.324.033.104.048.184.112.345.273.299.301.448.409.635.464.075.02 1.139.145 1.742.202.521.049.833.042 1.13-.023.212-.047.33-.098.514-.22.158-.106.21-.224.136-.326-.055-.08-.094-.087-.228-.044-.07.022-.206.052-.304.07-.254.046-.47.105-.68.186-.16.063-.2.07-.383.07-.32 0-.79-.104-1.489-.33a2.3 2.3 0 0 1-.625-.308c-.734-.475-.827-.526-1.104-.615a1.28 1.28 0 0 1-.263-.12l-.175-.12c-.09-.064-.16-.07-.263-.025-.104.043-.145.039-.218-.025-.063-.053-.065-.059-.057-.179a.862.862 0 0 1 .094-.301c.083-.182.081-.21-.017-.157a1 1 0 0 1-.228.028c-.104.006-.344.029-.536.051-.189.023-.46.051-.6.063-.141.013-.284.031-.318.043a.435.435 0 0 1-.094.019c-.049 0-.059.048-.08.366-.016.296.003.805.041 1.1.233 1.748 1.104 3.71 2.435 5.476.472.625.755.953 1.344 1.55.847.857 1.711 1.542 2.654 2.098.255.148.697.369.746.369.016 0 .059-.043.095-.098.037-.053.096-.125.129-.161l.06-.065-.024-.25c-.057-.55-.13-.722-.47-1.087a2.935 2.935 0 0 1-.377-.52c-.14-.278-.063-.588.181-.718.07-.037.116-.045.277-.045.218 0 .294.024.493.157.063.043.12.077.125.077.004 0 .06-.053.128-.116.065-.065.19-.169.273-.23a4.81 4.81 0 0 0 .401-.356c.139-.135.308-.28.379-.324a2.93 2.93 0 0 1 .617-.285.978.978 0 0 1 .727.095c.086.051.229.19.275.271.025.039.025.039.055-.002l.15-.183c.25-.302.345-.526.333-.78-.004-.07-.016-.127-.026-.127-.01 0-.084.051-.163.112-.275.214-.192.2-1.332.216-.548.008-1.09.025-1.202.037-.112.01-.487.033-.831.045-.722.03-.962.016-1.44-.082a14.74 14.74 0 0 0-.438-.083 6.988 6.988 0 0 1-1.545-.467c-.397-.183-.939-.474-1.7-.912-.506-.292-.552-.326-.856-.658-.18-.196-.216-.353-.12-.514.11-.189.208-.24.458-.24.165 0 .275.02.564.102.112.033.383.106.601.16l.846.227c1.352.37 1.886.479 2.892.589 1.38.152 2.498.203 2.984.134.57-.081.974-.236 1.223-.473.495-.464.652-1.116.379-1.552-.094-.146-.316-.43-.339-.43a.393.393 0 0 0-.091.07c-.218.2-.695.326-.825.22-.074-.06-.035-.092.081-.076.14.019.31-.022.495-.118.16-.083.259-.173.259-.23 0-.037.002-.037-.114.016-.08.037-.139.045-.283.047-.224 0-.342-.034-.332-.098.004-.024.02-.042.034-.038.13.028.332.038.418.022.126-.024.354-.157.495-.287.112-.108.22-.293.29-.5.042-.13.054-.23.026-.23-.009 0-.08.066-.157.145-.283.288-.512.436-.778.51-.133.036-.212.044-.465.042-.167 0-.393-.012-.499-.024a30.198 30.198 0 0 0-.733-.061c-.485-.033-.552-.04-.652-.088a.724.724 0 0 1-.161-.095c-.045-.045-.047-.058-.037-.216.008-.151.019-.186.108-.353.108-.208.239-.35.605-.674.247-.216.481-.377.703-.485.124-.059.19-.075.397-.098.675-.075 1.147-.006 1.322.194.037.043.123.15.19.242a1.8 1.8 0 0 0 .134.167c.03.002.037-.203.008-.334-.06-.289-.116-.334-.489-.41a6.105 6.105 0 0 0-1.008-.103c-.297-.012-.356-.008-.51.028-.303.074-.49.176-.883.477-.1.078-.192.137-.204.133-.049-.017-.033-.078.037-.139.358-.314.607-.47.918-.58.155-.056.182-.06.52-.06.405 0 .774.015.774.033a.81.81 0 0 0 .181.037c.098.014.247.042.326.063.082.02.143.032.137.026-.006-.008-.004-.022.008-.036Zm-2.587-.257c0-.012-.017-.018-.039-.012-.02.004-.05 0-.07-.008-.04-.023-.056.002-.04.059.01.04.014.042.035.014.014-.018.032-.033.043-.03.042.007.07 0 .07-.023Zm-2.165.89c-.017-.05-.852-.48-1.12-.578-.162-.06-.306-.092-.325-.076-.004.002-.16.012-.352.02a5.8 5.8 0 0 0-.359.021 2.11 2.11 0 0 1-.244.012 6.424 6.424 0 0 0-.395.02c-.09.009-.232.02-.316.03-.375.026-.572.12-.88.415-.12.116-.22.222-.22.236 0 .043.196.153.271.153.035 0 .134-.019.218-.041.226-.061.652-.14.884-.165a6.85 6.85 0 0 1 .796-.008c1.239.032 2.06.016 2.042-.039Zm-3.891-.436c.03-.03.039-.049.02-.055-.03-.008-.093-.006-.104.006a.507.507 0 0 1-.108.01c-.053 0-.101.009-.108.017-.006.008-.04.018-.077.024a.242.242 0 0 0-.073.019l-.068.087c-.134.175-.224.408-.18.475.05.083.211-.035.51-.373l.188-.21ZM19 7.207c.511-.15.827-.269.916-.342.074-.06.045-.061-.122-.008a5.76 5.76 0 0 1-.847.169c-.377.057-1.216.165-1.44.187-.082.008-.145.019-.143.027.035.071.23.348.248.348.041 0 .176-.043.176-.055 0-.006-.033-.071-.072-.143-.04-.069-.065-.128-.055-.128.01 0 .061.06.114.13l.096.13.082-.018A27.7 27.7 0 0 0 19 7.207Zm-2.555.037c-.2-.265-.268-.312-.521-.349-.302-.042-.953-.008-1.14.064-.06.022-.194.095-.3.16-.104.068-.204.13-.22.141-.063.039 0 .045.124.01.17-.047.462-.045.955.01.316.033.4.05.52.1.232.098.727.33.772.363.06.043.073.036.073-.039 0-.09-.055-.187-.263-.46Zm1.062.366c.008-.008-.029-.091-.084-.185l-.098-.173-.224-.006-.222-.006-.034.191c-.035.202-.029.34.02.34.04 0 .625-.146.642-.16Zm-5.325-.09c-.067-.115-.098-.146-.173-.18-.12-.053-.33-.062-.648-.027l-.285.029c-.035.002-.033.01.024.059.129.118.139.16.139.543 0 .335-.002.35-.057.48-.03.072-.088.18-.127.238a.654.654 0 0 0-.07.126c0 .01.075.024.168.032.188.017.253.002.587-.118.108-.04.301-.091.428-.116.393-.073.436-.087.432-.145 0-.026-.06-.169-.129-.313-.07-.147-.144-.31-.167-.365a1.928 1.928 0 0 0-.122-.242Zm-3.349.329a1.19 1.19 0 0 1 .214-.47l.067-.076-.067.002c-.218.01-1.053.171-1.094.21-.006.006.002.014.018.02.253.075.555.218.764.36l.086.058.012-.104Zm7.83.057c-.08-.06-.334-.188-.698-.349a2.078 2.078 0 0 0-.347-.128l-.081-.01.045.049c.059.065.16.314.191.466.033.165.014.395-.039.514a.842.842 0 0 1-.134.195.667.667 0 0 0-.094.114c0 .043.393-.069.534-.153.218-.13.507-.393.65-.59l.038-.057-.065-.051ZM9.64 7.74c.106-.025.142-.184.057-.243-.06-.04-.118-.04-.175 0-.068.047-.086.11-.053.176.032.063.087.085.17.067Zm4.143.242a.787.787 0 0 1 .135-.326c.032-.049.052-.091.044-.098-.018-.01-.246.182-.334.284-.159.185-.28.442-.28.592 0 .082.064.139.209.182.128.038.267.04.25.004-.081-.196-.09-.373-.024-.638Zm.648-.112c.102-.026.14-.12.083-.197-.049-.068-.128-.082-.173-.031-.124.143-.073.275.09.228Zm-3.62.078c.02-.135-.028-.21-.16-.249-.131-.039-.13-.039-.255.022-.172.086-.243.24-.168.363.068.108.135.14.276.137.201-.009.279-.076.307-.273Zm4.65.079c.009-.12.005-.132-.038-.16a.5.5 0 0 0-.181-.044c-.172-.016-.214.015-.245.167-.033.176.04.273.218.296.075.008.094.002.16-.06.072-.063.078-.077.086-.199Zm-12.39-.124a5.697 5.697 0 0 1-1.04.01 13.69 13.69 0 0 1-.397-.033l-.132-.012-.09.092c-.103.108-.101.157.015.216.118.059.814.203.857.177.01-.006.149.01.31.037.16.028.36.057.44.065l.149.014.093-.202c.051-.112.106-.232.12-.266l.029-.066-.096.008-.096.01.088-.032c.049-.018.084-.037.08-.04a3.589 3.589 0 0 0-.33.022Zm6.732.157c0-.043-.01-.088-.025-.102-.04-.041-.124-.029-.185.026-.065.063-.07.108-.012.182.083.105.222.04.222-.106Zm4.738.27c.036-.087.036-.101-.004-.14-.05-.049-.163-.04-.2.012-.045.063-.04.106.014.171.065.076.147.057.19-.042Zm1.888 1.105c.014-.005.04-.072.06-.15a.771.771 0 0 0 .03-.2l-.004-.064-.084.057c-.11.073-.13.161-.07.281.025.047.054.082.068.076Zm.758 1.513c.077-.153.065-.297-.039-.452-.118-.173-.253-.316-.265-.281-.004.016-.014.1-.018.183a1.344 1.344 0 0 1-.2.601c-.31.542-.676.776-1.446.92-.163.031-.307.037-.986.037-.86-.002-1.198-.022-2.198-.134-1.04-.116-1.617-.232-2.874-.579a110.5 110.5 0 0 0-1.7-.45c-.341-.085-.557-.06-.653.074-.108.15-.093.232.072.413.063.07.128.149.146.177.072.118.367.304 1.432.897.579.32 1.06.552 1.314.631.045.014.1.035.122.047a.258.258 0 0 0 .072.026.822.822 0 0 1 .122.035c.232.082 1.342.316 1.711.36.269.033.809.025 1.497-.024.48-.032.844-.045 1.528-.047.96-.002.96-.002 1.14-.116l.007-.004c.124-.077.468-.415.6-.589.223-.289.261-.474.145-.7-.032-.066-.073-.12-.09-.125-.016-.002-.107.066-.203.151-.2.18-.387.308-.597.405-.312.15-.572.176-1.495.161-1.436-.022-2.742-.124-3.775-.295a30.938 30.938 0 0 1-1.7-.367c-.693-.191-1.123-.366-1.357-.552-.098-.077-.145-.163-.106-.201.024-.025.088-.002.088.03 0 .033.203.16.448.275.262.125.812.3 1.263.4.185.042.448.101.586.134.742.175 1.618.293 2.836.385.662.05 2.192.085 2.566.059.518-.037.768-.16 1.312-.654.365-.33.558-.56.695-.831Zm-2.927 5.319c.35-.286.825-.813.892-.99.01-.025-.004-.03-.065-.03-.171.001-.436.146-.701.382-.13.116-.365.273-.54.36a1.735 1.735 0 0 0-.13.068c-.006.002.002.037.014.073.014.039.039.155.057.26a.879.879 0 0 0 .049.209c.012.012.057-.017.116-.072.055-.049.194-.167.308-.26Zm1.267-.799c0-.108-.01-.124-.096-.169-.132-.067-.18-.04-.275.15-.06.115-.124.196-.373.457-.218.232-.336.34-.698.646-.184.152-.2.187-.129.28.061.082.239.227.277.227.016 0 .029-.045.035-.13a.833.833 0 0 1 .06-.24c.088-.19.37-.461.753-.722.35-.24.446-.346.446-.499Z" fill="#151515"/><path d="M13.9 6.25c.021-.006.038 0 .038.012 0 .022-.029.03-.072.022-.01-.002-.028.013-.042.03-.02.03-.025.027-.035-.013-.016-.057 0-.082.04-.06a.133.133 0 0 0 .07.009Z" fill="#151515"/><path d="M12.008 7.34c.075.034.106.065.173.18.047.08.102.188.122.243.023.055.098.218.167.365.07.144.129.287.129.314.004.057-.04.07-.432.144-.127.025-.32.076-.428.116-.334.12-.4.135-.587.118-.093-.008-.169-.022-.169-.032 0-.01.033-.067.072-.126.038-.058.095-.165.126-.239.055-.128.057-.144.057-.479 0-.382-.01-.425-.139-.543-.057-.05-.059-.057-.024-.06.022-.001.15-.014.285-.028.318-.035.528-.026.648.027ZM10.65 7.7c.132.039.18.114.16.249-.028.197-.106.264-.308.273-.14.004-.207-.029-.275-.137-.075-.122-.004-.277.168-.363.126-.06.124-.06.254-.022ZM9.777 7.959c.015.014.025.059.025.102 0 .146-.139.211-.222.106-.057-.074-.053-.119.012-.182.061-.055.145-.067.185-.026ZM9.696 7.498c.085.06.049.218-.057.243-.084.018-.139-.004-.171-.067-.033-.066-.015-.129.053-.176.057-.04.116-.04.175 0ZM9.046 7.378a1.19 1.19 0 0 0-.214.47l-.012.105-.086-.057a3.023 3.023 0 0 0-.763-.36c-.017-.007-.025-.015-.019-.021.041-.039.876-.2 1.094-.21l.067-.002-.067.075ZM13.916 7.657a.786.786 0 0 0-.134.326c-.065.265-.057.442.024.638.017.036-.122.034-.25-.004-.145-.043-.21-.1-.21-.182 0-.15.122-.407.281-.592.088-.102.316-.294.334-.283.008.006-.012.048-.045.097ZM14.536 8.191c.04.039.04.053.004.14-.043.1-.124.119-.19.043-.055-.065-.059-.108-.014-.17.037-.054.15-.062.2-.013ZM14.513 7.674c.057.077.019.17-.083.197-.163.047-.214-.085-.09-.228.045-.05.124-.037.173.03ZM15.422 7.867c.043.029.047.04.038.161-.008.122-.014.136-.085.2-.067.06-.086.067-.16.059-.178-.023-.252-.12-.219-.296.03-.152.073-.183.245-.167a.5.5 0 0 1 .18.043ZM15.964 7.557c.364.161.619.29.698.349l.066.05-.04.058c-.142.197-.431.46-.649.59-.14.084-.534.196-.534.153 0-.008.043-.059.094-.114a.842.842 0 0 0 .134-.195c.053-.119.072-.349.04-.514-.031-.152-.133-.401-.192-.466l-.045-.049.081.01c.045.006.202.063.347.128Z" fill="#fff"/><path d="M12.025 18.364c-.01 0-.108.036-.218.08-.295.117-.575.162-1.149.184-.682.027-4.614.029-4.823.003-.263-.033-1.019-.22-1.39-.345-.812-.275-1.395-.619-1.91-1.128-.42-.418-.585-.748-.654-1.32-.057-.458-.065-.676-.033-.988.016-.17.049-.532.071-.809.023-.277.055-.58.072-.672.016-.094.057-.348.091-.566l.102-.652c.023-.14.051-.338.061-.438.064-.548.153-.97.255-1.202.024-.055.134-.34.244-.631.184-.49.275-.711.557-1.355.232-.534.68-1.403.755-1.469.055-.046.41-.11.43-.077.01.016.061.024.139.022.083 0 .132.009.148.029.015.018.023.1.02.228-.003.202.043 1.039.082 1.44.025.275.084.668.153 1.008.291 1.463 1.155 3.394 2.05 4.588.337.452.92 1.126 1.309 1.513.444.446 1.354 1.143 1.97 1.51.421.252 1.277.688 1.57.802.173.067.216.108.139.133-.033.01-.035.018-.015.06l-.026.052Z" fill="url(#b)"/><path d="M16.036 6.242c.197.05.523.236.489.277-.013.014-.015.028-.008.036a.528.528 0 0 1-.137-.026 3.863 3.863 0 0 0-.326-.063.813.813 0 0 1-.181-.037c0-.018-.369-.033-.774-.033-.338 0-.365.004-.52.06-.311.11-.56.266-.918.58-.07.061-.086.122-.037.139.012.004.104-.055.204-.133.393-.301.58-.403.884-.477.152-.036.212-.04.509-.028.448.018.725.047 1.008.104.373.075.428.12.49.41.028.13.022.335-.009.333a1.809 1.809 0 0 1-.134-.167 5.156 5.156 0 0 0-.19-.242c-.175-.2-.648-.269-1.322-.194-.208.023-.273.04-.397.098a3.24 3.24 0 0 0-.703.485c-.367.324-.497.466-.605.674-.09.167-.1.202-.108.353-.01.158-.008.17.037.216.026.024.1.069.16.095.1.047.168.055.653.088.297.022.627.049.733.061.106.012.332.024.499.024.253.002.332-.006.464-.042.267-.074.495-.222.779-.51.077-.08.148-.144.156-.144.029 0 .017.1-.026.23-.07.206-.177.391-.29.499-.14.13-.368.263-.494.287a1.375 1.375 0 0 1-.418-.022c-.014-.004-.03.014-.034.038-.01.064.107.098.332.098.144-.002.203-.01.283-.047.116-.053.114-.053.114-.016 0 .057-.1.147-.259.23-.185.096-.354.137-.495.118-.116-.016-.155.017-.081.076.13.106.607-.02.825-.22a.393.393 0 0 1 .091-.07c.023 0 .245.284.338.43.273.436.116 1.088-.378 1.553-.25.236-.652.39-1.223.472-.487.07-1.605.018-2.984-.134-1.006-.11-1.54-.218-2.892-.589-.247-.067-.628-.17-.846-.226a22.012 22.012 0 0 1-.6-.161c-.29-.082-.4-.102-.565-.102-.25 0-.348.051-.458.24-.096.161-.06.318.12.514.303.332.35.366.855.658.762.438 1.304.729 1.701.912.398.186 1.047.381 1.544.467.08.012.275.05.438.083.479.098.72.112 1.44.082.345-.012.72-.035.832-.045.112-.012.653-.029 1.201-.037 1.141-.016 1.058-.002 1.333-.216a1.03 1.03 0 0 1 .163-.112c.01 0 .022.057.026.127.012.254-.084.478-.334.78l-.149.183c-.03.04-.03.04-.055.002a1.023 1.023 0 0 0-.275-.27.978.978 0 0 0-.727-.096c-.14.036-.43.169-.617.285-.071.045-.24.19-.379.324a4.825 4.825 0 0 1-.401.356 2.863 2.863 0 0 0-.273.23 1.878 1.878 0 0 1-.129.116 1.21 1.21 0 0 1-.124-.077c-.2-.133-.275-.157-.493-.157-.16 0-.208.008-.277.045-.244.13-.322.44-.181.719.067.132.244.377.377.52.34.364.413.535.47 1.085l.025.25-.061.066a2.005 2.005 0 0 0-.129.16c-.036.056-.08.099-.095.099-.05 0-.491-.22-.746-.37-.943-.555-1.807-1.24-2.654-2.097a13.206 13.206 0 0 1-1.345-1.55c-1.33-1.766-2.202-3.728-2.434-5.476a7.36 7.36 0 0 1-.04-1.1c.02-.318.03-.366.079-.366a2.283 2.283 0 0 1 .411-.061c.14-.013.412-.041.601-.064.192-.022.432-.045.536-.05a.999.999 0 0 0 .228-.03c.098-.052.1-.024.016.158a.862.862 0 0 0-.093.301c-.008.12-.006.126.057.18.073.063.114.067.218.024.104-.045.173-.039.263.024l.175.12c.053.037.17.09.262.12.277.09.371.141 1.104.616.26.167.39.23.626.307.698.227 1.17.33 1.489.33a.775.775 0 0 0 .383-.069c.21-.081.426-.14.68-.185.098-.019.234-.05.304-.071.134-.043.173-.035.228.044.073.102.022.22-.137.326a1.307 1.307 0 0 1-.513.22c-.297.065-.609.072-1.13.023a40.083 40.083 0 0 1-1.742-.202c-.188-.055-.336-.163-.636-.464-.16-.161-.24-.225-.344-.273-.163-.08-.324-.094-.324-.033 0 .03.03.049.133.084.207.069.238.091.509.36.369.363.523.444.927.485.124.012.385.04.58.063.679.075.858.092 1.355.13.09.009.259.002.375-.01.116-.012.216-.016.224-.01.006.008-.012.035-.041.057a5.158 5.158 0 0 0-.259.291c-.301.363-.456.463-1.012.656a5.34 5.34 0 0 0-.448.171 1.108 1.108 0 0 1-.381.118.289.289 0 0 0-.1.02c-.03.02-.035.031-.018.062.045.084.25.045.59-.106.129-.057.322-.13.428-.163.249-.077.569-.234.717-.352.065-.05.198-.19.296-.31.299-.369.42-.477.637-.583.326-.156.448-.279.448-.452 0-.12-.038-.187-.152-.262-.064-.043-.112-.092-.12-.123a2.933 2.933 0 0 0-.123-.28 19.575 19.575 0 0 1-.193-.414c-.171-.371-.29-.5-.618-.679-.33-.179-.729-.405-.82-.466-.09-.06-.096-.067-.05-.067l.271-.008c.206-.009.225-.007.32.044.292.157.913.705 1.192 1.051.21.261.363.624.348.827-.006.074.061.08.088.009.03-.08-.022-.365-.098-.524-.13-.277-.562-.764-1.014-1.147-.21-.177-.226-.195-.206-.238.02-.043.03-.045.348-.047l.328-.004.153.157c.163.163.285.352.373.572.077.198.1.316.094.514-.007.183.01.232.063.2.024-.017.03-.07.03-.28 0-.222-.008-.281-.049-.393-.085-.236-.28-.597-.39-.721-.033-.039-.06-.086-.06-.106.002-.035.004-.035.02-.006.017.028.06.032.32.024.165-.004.424-.014.573-.022a1.53 1.53 0 0 1 .269-.002c0 .028.114-.01.144-.049.04-.049.08-.03.08.039 0 .05.004.05.087.038a.64.64 0 0 0 .124-.034c.025-.015.033-.015.025 0-.014.022.112.053.128.03.006-.01.043-.018.082-.02.038-.002.08-.014.091-.027.01-.01.037-.02.06-.02.02 0 .03-.01.024-.02-.008-.015-.027-.012-.053.002-.051.026-.082.004-.039-.025.025-.016.02-.02-.018-.01-.094.02-.012-.026.1-.057.09-.026.214-.03.631-.024.454.006.542.012.693.05Z" fill="url(#c)"/><path d="M14.04 18.742a.775.775 0 0 0-.117-.075c-.6-.338-.819-.51-.928-.723-.055-.106-.108-.4-.147-.802-.037-.377-.147-.61-.448-.938a2.559 2.559 0 0 1-.369-.5c-.159-.304-.045-.567.271-.626.14-.026.43.07.582.194l.058.046-.033.092c-.06.17.006.407.149.532.11.098.23.14.39.14.127 0 .141.004.174.055a.608.608 0 0 1 .053.218c.039.381.214.648.54.821.081.043.146.1.201.171.1.13.336.322.485.393.15.07.249.084.357.045.083-.03.085-.03.085.014 0 .09.047.206.102.26.03.028.134.08.228.117a.84.84 0 0 0 .587.025c.138-.05.142-.05.142-.008 0 .067.088.17.196.232a.49.49 0 0 0 .477.012c.201-.102.533-.403.69-.632.045-.065.12-.15.165-.189.084-.071.106-.14.051-.16-.04-.017-.202.13-.295.264-.212.312-.687.684-.872.684a.29.29 0 0 1-.29-.289c0-.07.168-.281.516-.652.224-.242.263-.31.163-.297-.057.006-.405.367-.678.699-.12.146-.147.167-.265.211a.703.703 0 0 1-.56-.012c-.21-.093-.235-.124-.235-.291v-.136l.216-.335c.237-.368.3-.442.504-.592.132-.1.169-.163.107-.186-.044-.018-.21.1-.368.259a2.47 2.47 0 0 0-.316.42c-.094.15-.22.323-.28.383-.089.091-.115.106-.182.106-.098 0-.247-.07-.404-.19a.958.958 0 0 1-.303-.328c-.082-.136-.092-.212-.043-.373.063-.21.24-.348.913-.717.165-.09.344-.197.395-.236.14-.106.572-.503.584-.534.017-.043-.047-.057-.1-.024a1.441 1.441 0 0 0-.156.13c-.294.27-.412.371-.481.412-.1.06-.196.104-.206.093a.52.52 0 0 1 .104-.124c.133-.136.159-.181.159-.273 0-.085.02-.116.071-.112.07.006.06-.063-.014-.108-.281-.17-.57-.216-.8-.124-.151.061-.3.159-.587.387-.334.267-.538.377-.74.4-.46.052-.706-.404-.4-.744.12-.133.252-.18.374-.13.155.063.316.299.275.405a.5.5 0 0 1-.133.108c-.128.08-.162.146-.077.146.063 0 .238-.12.293-.201.06-.088.06-.143-.004-.263a.54.54 0 0 0-.273-.277l-.128-.067.06-.045c.03-.025.158-.143.28-.265.255-.246.395-.357.607-.47.232-.125.446-.19.636-.192a.524.524 0 0 1 .305.065c.174.082.277.18.36.336.07.127.209.249.445.391.664.396.917.585 1.265.94.287.297.377.415.593.792.085.144.236.389.338.54.216.323.417.68.466.825.047.142.045.42-.006.521-.063.124-.307.306-.595.44-1.004.469-1.953.58-3.004.352a4.22 4.22 0 0 1-.727-.207 2.345 2.345 0 0 1-.214-.104 1.074 1.074 0 0 0-.2-.09l-.034-.035Z" fill="url(#d)"/><path d="M15.152 15.278c-.067.177-.542.704-.893.99-.114.093-.252.212-.307.26-.06.055-.104.084-.116.072a.879.879 0 0 1-.05-.208 2.214 2.214 0 0 0-.056-.26c-.012-.038-.02-.072-.014-.074.004-.004.063-.035.13-.067.175-.088.41-.245.54-.361.265-.236.53-.38.7-.383.062 0 .076.006.066.03Z" fill="url(#e)"/><path d="M15.924 6.895c.252.037.322.084.521.349.208.273.263.37.263.46 0 .075-.012.082-.073.039-.045-.033-.54-.265-.772-.363-.12-.05-.204-.067-.52-.1-.493-.055-.786-.057-.955-.01-.124.035-.188.029-.124-.01l.22-.14a2.44 2.44 0 0 1 .299-.161c.187-.072.84-.106 1.14-.064Z" fill="url(#f)"/><path d="M7.902 6.661c.018.006.01.025-.02.055l-.188.21c-.3.338-.46.456-.511.373-.043-.067.047-.3.181-.475l.068-.087a.242.242 0 0 1 .073-.019c.037-.006.071-.016.077-.024.006-.008.055-.017.108-.017a.507.507 0 0 0 .108-.01c.01-.012.074-.014.104-.006Z" fill="url(#g)"/><path d="M10.652 6.574c.269.097 1.104.527 1.12.578.019.055-.802.071-2.04.039a6.85 6.85 0 0 0-.797.008 7.262 7.262 0 0 0-.884.165 1.22 1.22 0 0 1-.218.04c-.076 0-.271-.11-.271-.152 0-.014.1-.12.22-.236.307-.296.505-.39.88-.416l.316-.028c.09-.009.266-.019.395-.02a2.11 2.11 0 0 0 .244-.013 5.8 5.8 0 0 1 .359-.02c.191-.009.348-.019.352-.02.019-.017.163.016.324.075Z" fill="url(#h)"/><path d="M17.148 10.497c.104.155.116.3.039.452-.137.271-.33.501-.695.831-.544.493-.794.617-1.312.654-.374.027-1.904-.008-2.566-.059-1.218-.092-2.094-.21-2.836-.385-.138-.033-.4-.092-.586-.135-.45-.1-1-.274-1.263-.399-.245-.116-.448-.242-.448-.275 0-.032-.063-.055-.088-.03-.039.038.008.124.106.201.234.186.664.36 1.357.552a30.84 30.84 0 0 0 1.7.367c1.033.171 2.339.273 3.775.295.923.015 1.184-.012 1.495-.16.21-.098.397-.227.597-.406.096-.085.188-.153.204-.15.016.004.057.059.09.124.116.226.077.411-.145.7-.133.174-.477.512-.601.59l-.007.004c-.18.113-.18.113-1.14.115-.684.002-1.047.015-1.528.047-.688.049-1.228.057-1.497.025-.369-.045-1.479-.28-1.711-.361a.818.818 0 0 0-.122-.035.259.259 0 0 1-.071-.026.916.916 0 0 0-.123-.047c-.254-.08-.735-.312-1.314-.631-1.065-.593-1.36-.779-1.432-.897a1.994 1.994 0 0 0-.146-.177c-.165-.181-.18-.263-.071-.413.095-.135.311-.16.651-.074.393.1 1.306.34 1.701.45 1.257.347 1.834.463 2.874.579 1 .112 1.339.132 2.198.134.679 0 .823-.006.986-.036.77-.145 1.137-.38 1.447-.921.126-.222.185-.397.2-.6a1.57 1.57 0 0 1 .017-.184c.013-.035.147.108.265.28Z" fill="#9B280E"/><path d="M11.175 1.1c.93.175 1.887.47 2.854.88.412.175.353.129.793.617.154.174.301.335.323.357.068.067-.105-.143-.37-.446a2.594 2.594 0 0 1-.239-.293c.007-.005.114.04.24.103.194.096.26.14.404.281.336.326.416.394.19.161a3.186 3.186 0 0 1-.23-.25c0-.03.586.29 1.09.593.688.415 1.486.99 2.026 1.454.444.385.527.473.705.741.087.137.173.265.187.286.035.053-.094-.186-.155-.283-.026-.045-.042-.084-.038-.088.02-.022.242.248.358.438.124.204.17.25.124.134-.032-.085-.012-.081.072.015.167.193.454.672.507.845l.014.045-.09-.039a1.1 1.1 0 0 0-.195-.063c-.098-.02-.108-.029-.157-.124-.059-.116-.085-.123-.039-.006.019.04.029.081.02.087a1.815 1.815 0 0 1-.303-.043 3.755 3.755 0 0 0-.346-.055c-.047 0-.063-.016-.106-.116-.098-.22-.277-.466-.764-1.045-.542-.645-.572-.66-.112-.055.475.624.636.848.727 1.009.047.081.082.15.078.154a1.79 1.79 0 0 1-.24-.04c-.223-.045-.233-.05-.302-.129a.862.862 0 0 0-.135-.128l-.065-.047.047.061c.11.147.128.173.118.173-.006 0-.128-.018-.27-.042-.145-.023-.284-.045-.312-.047a58.62 58.62 0 0 0-.479-.06 22.71 22.71 0 0 0-1.956-.115c-.122 0-.234-.009-.248-.017a.455.455 0 0 1-.067-.132c-.025-.065-.05-.114-.053-.11-.006.004.01.057.032.116.025.06.035.116.027.124-.008.008-.047.008-.086.002-.065-.014-.073-.024-.126-.177-.13-.373-.214-.57-.248-.576-.029-.006-.01.063.093.368l.13.375-.867.014c-.83.013-1.874.05-2.732.094a69.68 69.68 0 0 0-3.302.277c-.095.012-.1.012-.1-.035 0-.026.019-.126.041-.222.051-.215.143-.653.143-.67-.004-.091-.245.754-.245.858 0 .077-.046.096-.336.128-.82.096-1.892.25-2.46.359a1.118 1.118 0 0 1-.23.032 1.308 1.308 0 0 1 .048-.248c.063-.249.118-.338.253-.41.045-.024.059-.055.096-.21.024-.097.042-.215.04-.258v-.08l-.049.11a2.52 2.52 0 0 0-.101.275.558.558 0 0 1-.14.257.517.517 0 0 0-.1.132l-.076.247-.063.206-.177.034c-.874.171-1.907.406-1.952.442-.012.01-.094.041-.183.07-.322.105-.78.358-.817.45-.02.055-.047.028-.047-.051 0-.171.291-.432.713-.642.356-.18.585-.252 1.328-.432.222-.055.4-.102.395-.106-.02-.02-.916.194-1.385.33-.468.137-.725.247-.925.396-.036.026-.07.044-.077.04-.02-.02.083-.328.175-.515.092-.192.353-.615.42-.682.034-.035.036-.007.006.075-.11.281-.037.191.165-.2.124-.244.206-.372.316-.505.218-.257.79-.853.967-1.006.232-.2.717-.585.738-.585.01 0-.062.153-.16.34-.097.19-.168.334-.158.326.01-.01.106-.181.212-.383l.195-.364.275-.202c.153-.11.377-.269.5-.352.637-.44 1.704-1.01 2.548-1.361.11-.047.211-.09.228-.096.022-.01.026-.004.016.027-.012.032-.01.032.02-.006.096-.12 1.182-.487 2.257-.764.55-.14.55-.14 1.16-.027Z" fill="#F3C744"/><path d="M12.322 18.256c.013-.014-.065-.057-.218-.116-.458-.182-1.542-.766-2.07-1.12a21.45 21.45 0 0 1-1.15-.883c-.512-.43-1.367-1.38-1.846-2.055-.554-.78-1.126-1.897-1.499-2.93-.393-1.087-.538-1.794-.638-3.126-.03-.426-.03-.988.004-1.104.01-.037.037-.049.155-.067.078-.015.147-.02.153-.015a.99.99 0 0 1-.012.206c-.033.277-.029.962.008 1.302.159 1.458.837 3.184 1.88 4.78.927 1.42 2.102 2.69 3.373 3.645.546.411.992.684 1.644 1.012l.43.214.088-.053a.623.623 0 0 1 .1-.05c.006 0 .012.03.012.069 0 .087-.074.195-.163.24l-.251.052ZM16.488 9.287c-.018.077-.045.145-.06.149-.014.006-.042-.029-.067-.076-.06-.12-.04-.208.07-.28l.083-.058.004.063a.77.77 0 0 1-.03.202ZM17.423 7.425c.055.094.091.177.083.185-.016.015-.6.161-.641.161-.05 0-.055-.138-.02-.34l.034-.191.222.006.224.006.098.173ZM19.916 6.865c-.09.073-.405.191-.917.342-.527.157-.93.271-1.047.298l-.081.018-.096-.13a.597.597 0 0 0-.114-.13c-.01 0 .014.058.055.127.039.072.071.137.071.143a.466.466 0 0 1-.175.055c-.018 0-.214-.277-.248-.348-.002-.008.06-.019.142-.027.224-.022 1.064-.13 1.44-.187.406-.06.685-.116.848-.17.167-.052.195-.05.122.009ZM2.031 7.914c.381.029.673.024 1.04-.01.176-.016.325-.027.33-.023.003.004-.031.023-.08.041l-.088.033.096-.01.096-.009-.029.066c-.014.034-.07.154-.12.266l-.094.202-.148-.014a7.873 7.873 0 0 1-.44-.065c-.161-.027-.3-.043-.31-.037-.043.026-.74-.118-.858-.177-.116-.06-.118-.108-.014-.216l.09-.092.132.012c.073.009.253.023.397.033Z" fill="#F3C744"/><path d="M8.137 5.103c-.039.216-.078.511-.053.417.032-.126.112-.586.106-.617-.004-.018-.029.072-.053.2ZM17.197 6a.32.32 0 0 0 .053.06c.006 0-.008-.028-.032-.06a.261.261 0 0 0-.053-.062c-.007 0 .008.027.032.061ZM17.531 6.087c.033.04.061.075.067.075.015 0-.073-.118-.1-.134-.014-.008.002.018.033.059ZM13.564 9.108c-.006.018-.012.036-.012.04a.58.58 0 0 0 .138.072c.239.106.316.148.434.236.173.13.52.501.63.676.136.214.173.257.2.239.038-.023.028-.113-.021-.194a3.413 3.413 0 0 0-.452-.552 2.112 2.112 0 0 1-.176-.183c0-.006.108-.008.24-.004.25.008.449-.023.549-.09.11-.071.024-.11-.135-.06-.144.05-.499.05-.709.003a3.23 3.23 0 0 1-.38-.124c-.257-.1-.288-.106-.306-.06ZM7.04 9.668a.758.758 0 0 0-.358.157c-.098.091-.06.189.04.108.135-.11.267-.151.514-.163.201-.01.234-.017.24-.047.014-.072-.185-.098-.436-.055ZM7.016 10.238c-.283.047-.627.243-.725.412-.067.114-.074.258-.012.258.026 0 .044-.018.053-.057.046-.214.226-.352.613-.472.102-.03.19-.041.372-.041.133 0 .255-.006.273-.012.05-.019.04-.068-.02-.09-.061-.024-.403-.022-.554.002Z" fill="#151515"/></g><defs><linearGradient id="b" x1="10.341" y1="19.293" x2="10.341" y2="6.188" gradientUnits="userSpaceOnUse"><stop offset=".867" stop-color="#F4111B"/><stop offset=".978" stop-color="#260107"/></linearGradient><linearGradient id="c" x1="10.341" y1="19.293" x2="10.341" y2="6.188" gradientUnits="userSpaceOnUse"><stop offset=".867" stop-color="#F4111B"/><stop offset=".978" stop-color="#260107"/></linearGradient><linearGradient id="d" x1="10.341" y1="19.293" x2="10.341" y2="6.188" gradientUnits="userSpaceOnUse"><stop offset=".867" stop-color="#F4111B"/><stop offset=".978" stop-color="#260107"/></linearGradient><linearGradient id="e" x1="10.341" y1="19.293" x2="10.341" y2="6.188" gradientUnits="userSpaceOnUse"><stop offset=".867" stop-color="#F4111B"/><stop offset=".978" stop-color="#260107"/></linearGradient><linearGradient id="f" x1="10.341" y1="19.293" x2="10.341" y2="6.188" gradientUnits="userSpaceOnUse"><stop offset=".867" stop-color="#F4111B"/><stop offset=".978" stop-color="#260107"/></linearGradient><linearGradient id="g" x1="10.341" y1="19.293" x2="10.341" y2="6.188" gradientUnits="userSpaceOnUse"><stop offset=".867" stop-color="#F4111B"/><stop offset=".978" stop-color="#260107"/></linearGradient><linearGradient id="h" x1="10.341" y1="19.293" x2="10.341" y2="6.188" gradientUnits="userSpaceOnUse"><stop offset=".867" stop-color="#F4111B"/><stop offset=".978" stop-color="#260107"/></linearGradient></defs></svg>