<svg xmlns="http://www.w3.org/2000/svg" viewBox="0.333 0 87 100"><linearGradient id="a" x1="1398.95" x2="1746.561" y1="1099.212" y2="1099.212" gradientTransform="matrix(.2 0 0 .2 -270.59 -166.8)" gradientUnits="userSpaceOnUse"><stop offset="0" style="stop-color:#2a1b42"/><stop offset="1" style="stop-color:#4d3077"/></linearGradient><linearGradient id="b" x1="1401.05" x2="1746.45" y1="1034.598" y2="1034.598" gradientTransform="matrix(.2 0 0 .2 -270.59 -166.8)" gradientUnits="userSpaceOnUse"><stop offset="0" style="stop-color:#4d3077"/><stop offset="1" style="stop-color:#662d91"/></linearGradient><linearGradient id="c" x1="1572.649" x2="1780.95" y1="1084.051" y2="1084.051" gradientTransform="matrix(.2 0 0 .2 -270.59 -166.8)" gradientUnits="userSpaceOnUse"><stop offset="0" style="stop-color:#4d3077"/><stop offset="1" style="stop-color:#662d91"/></linearGradient><linearGradient id="d" x1="1364.349" x2="1572.749" y1="1083.949" y2="1083.949" gradientTransform="matrix(.2 0 0 .2 -270.59 -166.8)" gradientUnits="userSpaceOnUse"><stop offset="0" style="stop-color:#2a1b42"/><stop offset="1" style="stop-color:#4d3077"/></linearGradient><path fill="url(#a)" d="M9.64 14.96c-.28.38-.44.84-.44 1.32v47.48c0 11.12 23.3 22.9 33.94 27.2.52.22 1.12.22 1.64 0 6.08-2.44 16.26-7.319 23.86-13.12.6-.46 1.22-.92 1.78-1.4 2-1.64 3.76-3.34 5.14-5.08-31.54-3.98-57.28-26.56-65.92-56.4z"/><path fill="url(#b)" d="M77.26 68.84c.36-.66.68-1.34.9-2 .26-.76.44-1.5.5-2.26.02-.26.04-.5.04-.76V16.28c0-.14-.02-.26-.04-.4-.04-.26-.14-.5-.26-.72-.06-.12-.14-.22-.22-.32-.34-.38-.8-.66-1.34-.74l-1.9-.3-30.62-4.9c-.12-.02-.24-.02-.34-.02-.12 0-.24 0-.34.02L14.2 13.6l-3.16.5c-.58.1-1.08.42-1.42.86C18.26 44.8 44 67.359 75.54 71.359c.1-.119.2-.239.3-.379.44-.541 1.24-1.78 1.42-2.14z"/><path fill="url(#c)" d="M80.22 7.16 44.98 1.54c-.34-.06-.68-.08-1.02-.08h-.02v4.02h.02c.12 0 .26 0 .38.04l35.22 5.64c1.16.18 2.02 1.18 2.02 2.36v51.46c0 1.1-.2 2.18-.58 3.279-.26.721-.58 1.44-.98 2.16-.22.38-1.08 1.74-1.54 2.34-1.54 2.02-3.56 4-5.88 5.9-.6.5-1.28 1-1.92 1.5-8.24 6.279-19.26 11.561-25.84 14.199-.28.121-.58.181-.88.181v4.021c.82 0 1.62-.16 2.38-.461 7.62-3.08 18.66-8.56 26.78-14.74.02-.02.04-.02.04-.039.2-.16.4-.32.62-.48.46-.359.92-.72 1.38-1.1 2.68-2.18 4.86-4.4 6.52-6.58.58-.76 1.56-2.28 1.86-2.82.52-.92.94-1.859 1.26-2.779.54-1.541.8-3.08.8-4.601V13.5c0-3.18-2.26-5.82-5.38-6.34z"/><path fill="url(#d)" d="M43.72 94.52c-.22-.02-.44-.08-.66-.16C31.54 89.7 6.3 76.96 6.3 64.9V13.5c0-1.18.86-2.18 2.02-2.36l3.42-.54L43.6 5.5c.04 0 .26-.02.36-.02V1.46c-.14 0-.76.04-.98.08L11.1 6.62l-3.42.54c-3.12.5-5.4 3.16-5.4 6.32V64.9c0 3.8 1.72 7.72 5.1 11.64 2.58 3 6.18 6.08 10.72 9.16 9.64 6.56 20.38 11.12 23.44 12.36.7.279 1.42.439 2.16.459h.22V94.5c-.04.04-.12.04-.2.02z"/><path fill="#FFF" d="M81.6 13.5c0-1.18-.86-2.18-2.02-2.36L44.36 5.5a2.45 2.45 0 0 0-.38-.04h-.02c-.1 0-.32.02-.36.02l-31.86 5.1-3.42.54a2.387 2.387 0 0 0-2.02 2.36V64.9c0 12.039 25.24 24.8 36.76 29.459.22.08.44.141.66.16.08 0 .16.021.22.021.3 0 .6-.06.88-.181 6.58-2.639 17.6-7.92 25.84-14.199.64-.5 1.32-1 1.92-1.5 2.32-1.9 4.34-3.881 5.88-5.9.46-.619 1.32-1.96 1.54-2.34.4-.72.72-1.439.98-2.16.38-1.08.58-2.18.58-3.279V13.5h.04zm-2.88 50.3c0 .261-.02.5-.04.761-.08.76-.24 1.52-.5 2.26-.24.68-.54 1.34-.9 2-.2.359-1 1.6-1.42 2.16-1.42 1.859-3.28 3.699-5.44 5.459-.54.461-1.18.92-1.78 1.4-7.6 5.801-17.8 10.68-23.86 13.12-.26.101-.54.16-.82.16a2.3 2.3 0 0 1-.82-.16C32.5 86.66 9.2 74.9 9.2 63.76V16.28c0-1.08.78-2 1.86-2.18l3.14-.5 29.42-4.7c.12-.02.24-.02.34-.02.12 0 .24 0 .34.02l30.66 4.9 1.9.3c.54.08 1 .36 1.34.74.08.1.16.2.22.32.12.22.22.46.26.72.02.12.04.26.04.4V63.8z"/><path fill="#FFF" d="M46.56 39.84c1.36 0 2.46-1.1 2.46-2.46s-1.1-2.46-2.46-2.46h-19c-.2 0-.34.16-.34.34v2.12c0 1.32 1.04 2.4 2.34 2.48l17-.02z"/><path fill="#FFF" d="M51.24 20.54H31.12c-.2 0-.34.16-.34.34V23c0 1.32 1.04 2.4 2.34 2.48l17.1-.04c.64 0 1.22.02 1.22.02 6.3.3 11.32 5.54 11.32 11.92 0 6.44-5.12 11.66-11.5 11.86h-18c-.12 0-.24 0-.36.021-1.12.16-2 1.1-2.08 2.259v24.3c0 .199.16.34.34.34h2.12c1.32 0 2.4-1.04 2.48-2.34V54.48c0-.16.16-.301.32-.301l15.54-.02a17.72 17.72 0 0 0 3.88-.62c7.06-2.021 12.22-8.48 12.22-16.18-.04-9.159-7.36-16.599-16.48-16.819z"/></svg>