<svg width="20" height="20" fill="none" xmlns="http://www.w3.org/2000/svg"><g clip-path="url(#a)"><circle cx="10" cy="10" r="10" fill="#FFB000"/><mask id="b" style="mask-type:alpha" maskUnits="userSpaceOnUse" x="0" y="0" width="20" height="20"><circle cx="10" cy="10" r="10" fill="#FFB000"/></mask><g mask="url(#b)"><path d="M-4.419-4.424 9.993 9.993l.005-.002L24.406-4.42v7.654L9.998 9.99l-.003.003 14.41 6.762v7.654L9.996 9.994-4.42 24.41V16.75L9.993 9.993-4.419 3.23v-7.654Z" fill="url(#c)"/><path d="m24.415 12.658-14.41-2.666H10l.001.007L17.794 24.4h-5.78L10 9.999 10 9.996 7.843 24.401H2.245L9.998 9.993l-14.417 2.536V7.323L9.997 9.99 2.202-4.415h5.785L10 9.99l.001-.002 2.157-14.402h5.593L10 9.987v.004h.004l14.41-2.534v5.201Z" fill="url(#d)"/></g><path d="M5.191 7.936c-.481.35-1.562.702-1.971 1.465-.41.763.507 1.543.507 1.543s-.3.702-.196 1.73c.12 1.185.802 2.615 1.682 2.912.796.269 2.811.382 2.811.382s1.771.122 3.388-.264c1.185-.283 3.143-1.231 3.662-1.668.52-.437 1.357-1.2 1.618-1.989.17-.516.038-1.267-.221-1.682-.156-.25-.451-.613-.692-.757a2.91 2.91 0 0 0 .728-.706c.084-.126.41-.757.332-1.206-.121-.707-.917-1.494-1.61-1.883-.302-.17-.82-.303-.82-.303s-.456-.826-1.214-1.243c-.58-.32-1.792-.583-3.058.83 0 0-1.13-1.03-2.477-.522-.544.206-1.062.662-1.66 1.494-.598.832-.68 1.47-.819 1.868" fill="#FFB000"/><path fill-rule="evenodd" clip-rule="evenodd" d="M12.64 7.319a1.97 1.97 0 0 1-.294.009c-.286-.006-.403.046-.327.146.01.013.013.052.014.195 0 .098.008.25.016.34.019.22.032 1.188.021 1.637-.004.187-.01.535-.013.773-.003.238-.01.622-.017.853-.02.749-.013.77.253.716.147-.03.249-.04.497-.05.398-.016.42-.045.362-.485-.113-.875-.114-.913-.004-.684.19.395.296.594.477.893.167.275.175.28.39.227.113-.028.28-.055.444-.07.238-.024.287-.03.448-.059.275-.047.346-.093.316-.204-.016-.058-.13-.2-.55-.685-.164-.191-.339-.396-.388-.457-.077-.095-.394-.476-.647-.779-.095-.114-.121-.066.218-.407.3-.301.368-.365.74-.688.774-.67.899-.838.692-.925-.066-.028-.793.066-1.077.14a6.78 6.78 0 0 1-.196.046c-.114.024-.151.045-.19.106l-.071.112a5.67 5.67 0 0 1-.482.632 10.592 10.592 0 0 0-.263.32c-.001 0-.01-.211-.018-.468-.044-1.299-.022-1.227-.35-1.184Zm-8.238.66c-.667.043-1.434.254-1.63.447-.085.085-.09.113-.045.297.02.08.047.208.062.285.06.3.223 1.088.289 1.39.116.53.197.932.243 1.2.024.14.06.349.083.463.035.187.038.216.034.292-.005.105.005.146.05.194.06.065.07.067.3.067.2 0 .206.001.31.027.268.068.338-.002.363-.37.014-.2.01-.958-.006-1.133-.015-.157-.016-.153.047-.154.624-.006 1.826-.839 2.017-1.398.331-.964-.639-1.7-2.117-1.606Zm11.525.585a5.45 5.45 0 0 0-.474.065 8.27 8.27 0 0 1-.348.053c-.245.026-.296.087-.252.303.022.113.041.28.058.518.019.254.033.373.075.6.019.104.045.253.057.332.132.812.16.915.263.966.155.078.808.058 1.429-.042.135-.022.29-.046.346-.053.195-.024.236-.072.216-.258a9.417 9.417 0 0 1-.03-.693c-.002-.301-.036-.345-.222-.28-.035.013-.168.056-.296.096-.128.04-.34.11-.473.158-.333.118-.3.119-.293-.002.007-.12-.01-.102.111-.127.055-.011.171-.042.257-.068.426-.13.444-.145.418-.37a6.508 6.508 0 0 1-.02-.194c-.013-.165-.06-.2-.217-.165-.044.01-.15.028-.236.04a4.877 4.877 0 0 0-.419.08c-.011.005-.013-.016-.014-.162 0-.14.001-.166.011-.162.118.044.745.009.829-.047.108-.072.068-.462-.054-.528-.088-.048-.482-.08-.722-.06Zm-6.248.124c-.515.037-.575.048-.651.126-.076.077-.08.128-.019.31.091.274.098.348.104 1.167.006.74.015 1.188.029 1.331.007.075.006.1-.004.135-.06.205.067.294.404.282.558-.02.567-.024.599-.34.009-.092.019-.181.022-.2.002-.019.006-.16.008-.312.004-.279.004-.279.09-.137.135.22.197.351.24.51.05.185.127.233.335.207.166-.021.334-.032.555-.038.34-.009.362-.028.375-.324.017-.368 0-1.142-.034-1.583a12.01 12.01 0 0 1-.038-.742c-.002-.278-.046-.303-.523-.302-.47 0-.495.03-.4.485.046.226.12.71.113.735a1.01 1.01 0 0 1-.097-.142 33.962 33.962 0 0 0-.21-.334c-.065-.101-.156-.25-.203-.33-.322-.554-.292-.532-.695-.504Zm-1.886.103a.313.313 0 0 1-.107.021c-.84.06-1.616 1.753-1.208 2.638.594 1.287 2.506.373 2.432-1.162-.038-.806-.71-1.707-1.117-1.497Zm-3.376.2c.24.065.505.201.559.287.22.352-.022.6-.589.607-.241.002-.25 0-.258-.086a8.236 8.236 0 0 0-.12-.742c0-.01.122-.065.176-.078a.484.484 0 0 1 .232.012Zm3.534 1.118c.152.178.092.546-.12.741-.282.26-.398.121-.292-.346.026-.114.305-.422.383-.422.003 0 .016.012.03.027Z" fill="#000"/></g><defs><radialGradient id="c" cx="0" cy="0" r="1" gradientUnits="userSpaceOnUse" gradientTransform="matrix(0 14.417 -14.4124 0 9.993 9.993)"><stop offset=".535" stop-color="#FBCB4F"/><stop offset=".69" stop-color="#FDBD27"/><stop offset="1" stop-opacity="0"/></radialGradient><radialGradient id="d" cx="0" cy="0" r="1" gradientUnits="userSpaceOnUse" gradientTransform="matrix(0 14.4077 -14.417 0 9.998 9.993)"><stop offset=".535" stop-color="#FBCB4F"/><stop offset=".69" stop-color="#FDBD27"/><stop offset="1" stop-opacity="0"/></radialGradient><clipPath id="a"><path fill="#fff" d="M0 0h20v20H0z"/></clipPath></defs></svg>