<svg xmlns="http://www.w3.org/2000/svg" width="20" height="20" fill="none"><circle cx="10" cy="10" r="10" fill="#007CE3"/><path fill="#fff" d="M7.488 2.841c-.351.101-.579.352-.68.756-.034.127-.115.602-.184 1.054-.07.453-.14.86-.155.906-.03.086-.038.086-.864.086-.93 0-1.003.015-1.204.235a.721.721 0 0 0-.15.606c.035.176.27.412.467.464.085.022.451.041.818.041.362 0 .67.011.682.03a3.62 3.62 0 0 1-.054.494c-.12.774-.15.946-.185.98-.019.019-.416.037-.883.041l-.849.008-.166.112a.707.707 0 0 0-.258.306c-.081.173-.09.214-.05.356.073.262.192.426.366.501.131.056.266.071.86.071.386.004.718.019.737.041.02.019.012.157-.02.333-.026.165-.123.737-.207 1.272a432.1 432.1 0 0 1-.232 1.44L5.1 14.077c-.054.348-.116.73-.135.842-.02.112-.058.378-.09.584-.03.209-.076.482-.1.61-.096.508-.015.848.259 1.114.274.265.351.273 2.435.273h1.817l.204-.09c.452-.194.563-.415.706-1.369.054-.381.116-.778.135-.879.02-.105.089-.516.155-.916.127-.786.258-1.459.285-1.489a19.63 19.63 0 0 1 1.046-.03c.83-.011 1.11-.026 1.458-.09.432-.078.783-.172.857-.228.023-.015.127-.056.231-.09.32-.104.783-.362 1.235-.692.123-.09.69-.64.752-.729.03-.049.131-.176.22-.288.61-.774.991-2.05.922-3.075-.039-.613-.197-1.298-.37-1.63a3.833 3.833 0 0 1-.14-.3c-.15-.344-.597-.946-.983-1.309a8.603 8.603 0 0 0-.486-.438c-.236-.168-.575-.374-.656-.4-.05-.015-.089-.045-.089-.063 0-.02-.023-.034-.05-.034a.667.667 0 0 1-.2-.079c-.263-.13-.525-.22-1.004-.34l-.463-.12-2.72-.007c-1.663-.008-2.77.004-2.843.026Zm5.733 1.395c.139.034.27.075.29.094a.519.519 0 0 0 .158.056c.366.086.895.422 1.33.845.29.28.695.793.695.88 0 .014.03.096.073.182.255.543.278.651.301 1.37.02.59-.038.942-.224 1.402-.308.76-.925 1.429-1.701 1.848-.193.105-.374.19-.401.19-.027 0-.14.034-.247.076-.382.145-.833.187-2.064.187-1.12 0-1.381.018-1.493.104-.417.322-.486.445-.567 1.018-.024.153-.093.565-.155.916-.061.348-.123.73-.139.842a7.512 7.512 0 0 1-.096.58c-.039.205-.1.568-.135.804-.039.235-.085.449-.104.471-.043.056-2.288.071-2.43.019-.124-.045-.128.011.065-1.107.058-.337.266-1.665.308-1.945.02-.143.116-.756.29-1.796.038-.247.1-.643.139-.879.038-.236.077-.441.092-.46.012-.015 1.22-.034 2.685-.041 1.463-.004 2.701-.019 2.755-.03.432-.082.857-.3 1.157-.591.14-.135.278-.296.31-.355a.906.906 0 0 1 .1-.169 2.44 2.44 0 0 0 .146-.344c.124-.348.143-.909.039-1.144a3.3 3.3 0 0 1-.112-.292c-.15-.475-.722-.995-1.331-1.216l-.251-.09-2.373-.01c-1.304-.008-2.388-.027-2.407-.046-.02-.018-.016-.134.007-.27.024-.13.074-.41.109-.628a4.1 4.1 0 0 1 .096-.478l.035-.086 2.403.015c2.1.01 2.43.022 2.647.078Zm-.675 2.832c.32.116.524.4.524.733 0 .18-.177.479-.354.595l-.159.108-2.473.019a116.47 116.47 0 0 1-2.558.004c-.1-.015-.108-.064-.05-.374.02-.116.074-.412.116-.655a5.45 5.45 0 0 1 .1-.479c.012-.015 1.061-.03 2.33-.03 2.242 0 2.32.004 2.524.079Z"/></svg>