<svg xmlns="http://www.w3.org/2000/svg" width="20" height="20" fill="none"><circle cx="10" cy="10" r="10" fill="#000"/><path fill="#F3C659" d="M15.13 10.888c0-.021.003-.043.005-.064a2.908 2.908 0 0 0-3.9.274 3.009 3.009 0 0 0-.175 3.964c2.19-.669 3.865-2.284 4.07-4.174Z"/><path fill="#F3C659" fill-rule="evenodd" d="M7.891 11.379c0 .632.122 1.258.361 1.841a4.78 4.78 0 0 0 1.033 1.557c.308.071.622.11.937.115a3.574 3.574 0 0 1 .343-4.672 3.453 3.453 0 0 1 4.611-.231c-.009-1.22-.321-2.117-.614-2.696a4.992 4.992 0 0 0-.213-.378 4.672 4.672 0 0 0-4.389.505 4.781 4.781 0 0 0-1.517 1.72 4.86 4.86 0 0 0-.552 2.239Z" clip-rule="evenodd"/><path fill="#F3C659" fill-rule="evenodd" d="M4.98 6.068a5.832 5.832 0 0 0-2.26 2.897c-.096.28-.17.568-.22.86v.167a8.026 8.026 0 0 0 1.282 4.373c.541.32 2.06 1.016 5.052 1.026a7.566 7.566 0 0 0 2.34-.363 4.99 4.99 0 0 1-4.234-1.313 5.133 5.133 0 0 1-1.582-3.37A5.153 5.153 0 0 1 6.46 6.783a5.013 5.013 0 0 1 3.198-1.846c-.087 0-.18-.003-.274-.003-1.237 0-3.002.197-4.406 1.134Z" clip-rule="evenodd"/><path fill="#F3C659" fill-rule="evenodd" d="M5.757 3.509C3.031 5.55 2.592 8.293 2.523 9.24c.08-.261.176-.517.29-.765.17-.397.39-.77.652-1.11A5.864 5.864 0 0 1 5.58 5.61c1.149-.591 2.416-.755 3.482-.77.524-.016 1.049.005 1.57.061.385.031.668.059.793.04.765-.111 1.4-.636 1.4-1.42 0-.751-.685-1.338-1.307-1.444A6.827 6.827 0 0 0 10.456 2c-1.164 0-3.013.246-4.699 1.509Zm9.762 7.421c-.142 1.307-.91 2.53-2.161 3.443-1.252.913-2.844 1.41-4.503 1.41h-.027c-2.269-.007-3.72-.395-4.564-.741 1.592 2.073 4.78 3.493 7.736 2.761 5.497-1.361 6.13-6.65 4.612-8.992a5.152 5.152 0 0 0-1.647-1.596c.402.833.733 2.057.554 3.714Z" clip-rule="evenodd"/></svg>