<svg width="20" height="20" fill="none" xmlns="http://www.w3.org/2000/svg"><g clip-path="url(#a)"><circle cx="10" cy="10" r="10" fill="#141416"/><path d="M11.796 12.135c-3.326.998-6.078 2.453-7.8 4.159l-.076.075c.458.433.96.82 1.503 1.15l.117-.143a22.106 22.106 0 0 1 6.258-5.243l-.002.002Z" fill="#fff"/><path d="M11.796 12.135c-3.326.998-6.078 2.453-7.8 4.159l-.076.075c.458.433.96.82 1.503 1.15l.117-.143a22.106 22.106 0 0 1 6.258-5.243l-.002.002ZM1.2 10.656a8.724 8.724 0 0 0 1.832 4.738l.048-.047c1.066-1.05 2.454-2.006 4.129-2.839 1.468-.73 3.153-1.357 4.969-1.851H1.2Z" fill="#fff"/><path d="M1.2 10.656a8.724 8.724 0 0 0 1.832 4.738l.048-.047c1.066-1.05 2.454-2.006 4.129-2.839 1.468-.73 3.153-1.357 4.969-1.851H1.2ZM7.969 3.344a20.45 20.45 0 0 0 10.829 5.663c-.495-4.39-4.237-7.807-8.783-7.807-1.2 0-2.345.24-3.39.67.424.511.877 1.007 1.344 1.474Z" fill="#fff"/><path d="M7.969 3.344a20.45 20.45 0 0 0 10.829 5.663c-.495-4.39-4.237-7.807-8.783-7.807-1.2 0-2.345.24-3.39.67.424.511.877 1.007 1.344 1.474ZM3.996 3.706c1.722 1.707 4.474 3.161 7.8 4.16a22.165 22.165 0 0 1-4.759-3.591 22.235 22.235 0 0 1-1.5-1.651l-.116-.143a8.843 8.843 0 0 0-1.501 1.15l.076.075Z" fill="#fff"/><path d="M3.996 3.706c1.722 1.707 4.474 3.161 7.8 4.16a22.165 22.165 0 0 1-4.759-3.591 22.235 22.235 0 0 1-1.5-1.651l-.116-.143a8.843 8.843 0 0 0-1.501 1.15l.076.075ZM7.969 16.656c-.469.467-.921.963-1.344 1.474 1.043.43 2.19.67 3.39.67 4.546 0 8.288-3.416 8.785-7.809a20.451 20.451 0 0 0-10.83 5.664l-.001.001Z" fill="#fff"/><path d="M7.969 16.656c-.469.467-.921.963-1.344 1.474 1.043.43 2.19.67 3.39.67 4.546 0 8.288-3.416 8.785-7.809a20.451 20.451 0 0 0-10.83 5.664l-.001.001ZM7.209 7.492c-1.675-.832-3.063-1.788-4.13-2.839l-.047-.047A8.724 8.724 0 0 0 1.2 9.344h10.976c-1.816-.495-3.5-1.122-4.969-1.854l.002.002Z" fill="#fff"/><path d="M7.209 7.492c-1.675-.832-3.063-1.788-4.13-2.839l-.047-.047A8.724 8.724 0 0 0 1.2 9.344h10.976c-1.816-.495-3.5-1.122-4.969-1.854l.002.002Z" fill="#fff"/></g><defs><clipPath id="a"><path fill="#fff" d="M0 0h20v20H0z"/></clipPath></defs></svg>