<svg xmlns="http://www.w3.org/2000/svg" width="20" height="20" fill="none"><g clip-path="url(#a)"><circle cx="10" cy="10" r="10" fill="#F3E3CC"/><path fill="url(#b)" fill-rule="evenodd" d="M9.977 19.048a9.058 9.058 0 0 0 6.763-3.02 2.155 2.155 0 0 0-2.76-.047l-.157.126a3.638 3.638 0 0 1-4.989-.407 1.942 1.942 0 0 0-2.708-.18l-1.811 1.549a9.047 9.047 0 0 0 5.662 1.979Zm2.94-4.381a3.852 3.852 0 0 1 4.831.001 8.988 8.988 0 0 0 1.3-4.668 8.99 8.99 0 0 0-1.588-5.114 2.152 2.152 0 0 0-1.876.492l-.15.134a3.638 3.638 0 0 1-5.003-.177 1.942 1.942 0 0 0-2.714-.055L5.61 7.258l-1.16-1.23L6.557 4.05a3.638 3.638 0 0 1 5.083.104 1.942 1.942 0 0 0 2.67.094l.152-.133a3.83 3.83 0 0 1 1.58-.842A9.05 9.05 0 0 0 9.978.953C5.372.952 1.569 4.374.984 8.807a3.723 3.723 0 0 1 4.264.753c.72.736 1.88.813 2.691.18l1.18-.918a3.932 3.932 0 0 1 4.993.133l2.295 1.995-1.112 1.273L13 10.229a2.236 2.236 0 0 0-2.84-.076l-1.179.92a3.721 3.721 0 0 1-4.944-.332 2.025 2.025 0 0 0-2.83-.062l-.255.24a8.998 8.998 0 0 0 2.14 4.972l1.933-1.653a3.637 3.637 0 0 1 5.072.338c.688.768 1.86.864 2.664.217l.157-.127Z" clip-rule="evenodd"/></g><defs><linearGradient id="b" x1="10" x2="10" y1=".952" y2="19.048" gradientUnits="userSpaceOnUse"><stop stop-color="#893455"/><stop offset="1" stop-color="#E23E40"/></linearGradient><clipPath id="a"><path fill="#fff" d="M0 0h20v20H0z"/></clipPath></defs></svg>