<svg xmlns="http://www.w3.org/2000/svg" width="20" height="20" fill="none"><path fill="url(#a)" fill-rule="evenodd" d="M7.242 12.915c-.014.044-.027.075-.046.09a.41.41 0 0 1 .046-.09Z" clip-rule="evenodd"/><path fill="url(#b)" d="M10.046.15c-.15.172-.352.388-1.602 1.703a259.604 259.604 0 0 0-1.179 1.25c-.426.458-.314.342-1.309 1.356-1.55 1.58-2.106 2.427-2.437 3.715-.155.605-.16 1.733-.008 2.45.31 1.47 1.085 2.7 2.301 3.65.224.176.582.385.54.315.174.113.57.354.754.411-.037-.28.002-.599-.018-1.028-.021-.445.004-.755 0-.639.022-.082.067-.229.108-.328-.045.035-.118-.014-.289-.163-1.068-.932-1.574-1.884-1.655-3.11-.099-1.503.279-2.254 2.04-4.057 1.662-1.701 2.122-2.196 2.101-2.262-.006-.023.019-.041.057-.041.037 0 .185-.132.329-.294.144-.162.277-.294.297-.294.02 0 .08.06.133.135.33.466.703 1.484.827 2.26.076.473.08.61.029 1a4.288 4.288 0 0 1-.13.654c-.096.27-.438.978-.58 1.2-.152.238-.541.796-.576.827-.046.04-.505.591-.714.857a4.218 4.218 0 0 1-.246.294c-.056.052-.45.616-.678.97a9.727 9.727 0 0 0-.899 1.934c-.014.044-.027.075-.046.09-.04.1-.086.246-.108.328v.639c.02.43-.019.749.018 1.028.03.22.065.405.11.573.103.39.36 1.209.414 1.323.323.673.723 1.394.767 1.383.031-.008.044.006.03.03-.033.051.38.61.75 1.017.145.159.285.333.311.387.026.054.105.14.176.193l.128.094.139-.165c.104-.125.123-.177.077-.21-.042-.03-.034-.035.025-.016.108.034.357-.185.305-.268-.021-.035-.016-.047.013-.029.06.037.276-.18.228-.227-.018-.018-.005-.033.029-.033.056 0 .586-.52 1.125-1.103.076-.083.382-.4.784-.813l.833-.855c1.431-1.465 1.886-1.979 2.321-2.624.75-1.114 1.067-2.513.857-3.793l-.084-.514c-.046-.293-.274-.946-.482-1.374-.383-.79-1.215-1.736-1.48-1.864-.444-.359-1.389-1.077-1.615-1.077.048.398.063.8.044 1.205-.028.604-.04.715-.084.758a1.11 1.11 0 0 0-.079.165c.359.028.968.657 1.228.968.733.964.986 2.527.599 3.696-.093.281-.233.56-.28.56-.022 0-.04.024-.04.053 0 .09-.398.646-.734 1.023-.178.201-.63.675-1.005 1.054-.734.744-2.052 2.113-2.394 2.489a2.236 2.236 0 0 1-.114.116c-.073.07-.135.117-.156.117-.134 0-.73-1.39-.882-2.058-.184-.803-.156-1.308.113-2.034.049-.132.522-1.09.63-1.275a15.6 15.6 0 0 1 .809-1.105c.037-.038.188-.213.337-.388.148-.175.282-.33.297-.343a2.3 2.3 0 0 0 .145-.196c.065-.094.131-.183.147-.196.066-.056.544-.835.721-1.176.198-.382.32-.651.517-1.152a6.69 6.69 0 0 1 .062-.153c.039-.09.07-.156.079-.165.044-.043.056-.154.084-.758a7.192 7.192 0 0 0-.044-1.205c-.2-1.644-.972-3.208-2.296-4.641A3.124 3.124 0 0 1 10.329.1c-.095-.144-.118-.14-.283.05Z"/><path fill="url(#c)" fill-rule="evenodd" d="M7.242 12.915c-.014.044-.027.075-.046.09a.41.41 0 0 1 .046-.09Z" clip-rule="evenodd"/><path fill="url(#d)" fill-rule="evenodd" d="m7.265 3.102.172-.183c1.318-.827 2.169-.401 2.64-.135-.02 0-.154.132-.298.294-.144.162-.292.294-.33.294-.037 0-.062.018-.056.04.02.067-.439.562-2.1 2.263-1.762 1.803-2.14 2.554-2.04 4.058.065.989.407 1.8 1.098 2.566l-1.143 1.445a6.073 6.073 0 0 1-1.697-3.12c-.151-.717-.147-1.845.008-2.45.33-1.288.886-2.135 2.437-3.715l.202-.206c.5-.509.651-.663.8-.82l.22-.238.087-.093Z" clip-rule="evenodd"/><path fill="url(#e)" d="M5.812 14.274c.224.176.582.385.54.315.174.113.57.354.754.411a3.528 3.528 0 0 1-.014-.51c.002-.155.005-.326-.004-.518-.021-.445.004-.755 0-.639.022-.082.067-.229.108-.328-.045.035-.118-.014-.289-.163a6.529 6.529 0 0 1-.556-.543l-1.143 1.445c.188.186.389.362.604.53Z"/><path fill="url(#f)" d="M5.812 14.274c.225.176.582.385.54.315.174.113.57.354.754.411-.02-.154-.017-.32-.014-.51a7.794 7.794 0 0 0-.004-.518c-.021-.445.004-.755 0-.639a3.46 3.46 0 0 1 .108-.328c-.045.035-.118-.014-.288-.163a6.544 6.544 0 0 1-.557-.543l-1.143 1.446c.188.185.39.361.604.53Z"/><path fill="url(#g)" fill-rule="evenodd" d="M7.242 12.915c-.014.044-.027.075-.046.09a.41.41 0 0 1 .046-.09Z" clip-rule="evenodd"/><path fill="url(#h)" fill-rule="evenodd" d="M15.671 13.657c-.435.645-.89 1.16-2.32 2.624-.295.3-.584.597-.835.855-1.33.745-2.226.301-2.508-.014a1.8 1.8 0 0 0 .114-.116c.342-.376 1.66-1.745 2.395-2.49.373-.378.826-.852 1.004-1.053.336-.377.734-.933.734-1.023 0-.029.018-.052.04-.052.047 0 .187-.28.28-.561.387-1.169.134-2.732-.599-3.696a5 5 0 0 0-.15-.172l.656-1.847c.265.128 1.098 1.074 1.48 1.864.208.428.436 1.08.482 1.374l.084.514c.21 1.28-.106 2.679-.857 3.793Z" clip-rule="evenodd"/><path fill="url(#i)" d="M12.911 6.24c-.028.604-.04.715-.084.758a1.11 1.11 0 0 0-.079.165c.3.024.778.47 1.077.796l.657-1.847c-.444-.359-1.389-1.077-1.615-1.077.048.398.063.8.044 1.205Z"/><path fill="url(#j)" d="M12.911 6.24c-.028.604-.04.715-.084.758a1.11 1.11 0 0 0-.079.165c.3.024.778.47 1.078.796l.656-1.847c-.444-.359-1.389-1.077-1.615-1.077.048.397.063.8.044 1.205Z"/><defs><linearGradient id="a" x1="9.996" x2="9.996" y1="0" y2="20" gradientUnits="userSpaceOnUse"><stop stop-color="#54DEF4"/><stop offset="1" stop-color="#A56CFA"/></linearGradient><linearGradient id="b" x1="9.996" x2="9.996" y1="0" y2="20" gradientUnits="userSpaceOnUse"><stop stop-color="#54DEF4"/><stop offset="1" stop-color="#A56CFA"/></linearGradient><linearGradient id="c" x1="9.286" x2="6.911" y1="2.518" y2="13.972" gradientUnits="userSpaceOnUse"><stop stop-color="#A56CFA"/><stop offset="1" stop-color="#54DEF4"/></linearGradient><linearGradient id="d" x1="9.286" x2="6.911" y1="2.518" y2="13.972" gradientUnits="userSpaceOnUse"><stop stop-color="#A56CFA"/><stop offset="1" stop-color="#54DEF4"/></linearGradient><linearGradient id="e" x1="9.286" x2="6.911" y1="2.518" y2="13.972" gradientUnits="userSpaceOnUse"><stop stop-color="#A56CFA"/><stop offset="1" stop-color="#54DEF4"/></linearGradient><linearGradient id="f" x1="5.669" x2="7.123" y1="13.156" y2="14.149" gradientUnits="userSpaceOnUse"><stop stop-color="#58DAF5" stop-opacity="0"/><stop offset="1" stop-color="#507AE0"/></linearGradient><linearGradient id="g" x1="9.286" x2="6.911" y1="2.518" y2="13.972" gradientUnits="userSpaceOnUse"><stop stop-color="#A56CFA"/><stop offset="1" stop-color="#54DEF4"/></linearGradient><linearGradient id="h" x1="9.286" x2="6.911" y1="2.518" y2="13.972" gradientUnits="userSpaceOnUse"><stop stop-color="#A56CFA"/><stop offset="1" stop-color="#54DEF4"/></linearGradient><linearGradient id="i" x1="9.286" x2="6.911" y1="2.518" y2="13.972" gradientUnits="userSpaceOnUse"><stop stop-color="#A56CFA"/><stop offset="1" stop-color="#54DEF4"/></linearGradient><linearGradient id="j" x1="12.939" x2="14.18" y1="6.099" y2="7.021" gradientUnits="userSpaceOnUse"><stop stop-color="#5658C9"/><stop offset="1" stop-color="#8E8DF9" stop-opacity="0"/></linearGradient></defs></svg>