<svg width="20" height="20" fill="none" xmlns="http://www.w3.org/2000/svg"><g clip-path="url(#a)"><path d="M10 20c5.523 0 10-4.477 10-10S15.523 0 10 0 0 4.477 0 10s4.477 10 10 10Z" fill="#63A1F8"/><path fill-rule="evenodd" clip-rule="evenodd" d="M13.001 8.793c.522.648.833 1.469.833 2.361 0 .906-.32 1.738-.856 2.39l-.046.057-.013-.072a3.415 3.415 0 0 0-.037-.184c-.268-1.167-1.14-2.167-2.578-2.977-.97-.546-1.526-1.203-1.672-1.95-.094-.482-.024-.967.112-1.382.135-.415.336-.763.507-.973l.56-.677a.247.247 0 0 1 .379 0L13 8.793Zm.885-.677-3.747-4.541a.18.18 0 0 0-.278 0l-3.747 4.54-.012.016A4.894 4.894 0 0 0 5 11.229c0 2.733 2.239 4.948 5 4.948s5-2.215 5-4.947c0-1.174-.413-2.251-1.102-3.1l-.012-.014Zm-6.875.662.335-.406.01.075c.008.059.018.119.03.179.216 1.127.991 2.068 2.286 2.796 1.126.635 1.782 1.365 1.97 2.166.08.334.094.663.06.95l-.003.018-.016.008a3.852 3.852 0 0 1-1.683.384c-2.118 0-3.834-1.698-3.834-3.794 0-.9.316-1.726.845-2.376Z" fill="#fff"/></g><defs><clipPath id="a"><path fill="#fff" d="M0 0h20v20H0z"/></clipPath></defs></svg>