<svg xmlns="http://www.w3.org/2000/svg" width="20" height="20" fill="none"><circle cx="10" cy="10" r="10" fill="#008DD0"/><path fill="#fff" fill-rule="evenodd" d="M11.707 2.476a9.746 9.746 0 0 0-4.988.633 8.328 8.328 0 0 0-2.334 1.405c-3.15 2.74-2.409 7.048 2.664 8.433.279.077.563.136.85.174 2.583.334 3.317-1.496.93-2.69-.902-.451-1.791-1.108-2.296-1.987-.937-1.63-.191-3.432 1.962-4.313l.026-.01c1.743-.702 4.4-.796 7.826.293a9.746 9.746 0 0 0-4.64-1.938Zm1.243 3.677c1.363.372 2.413.958 3.156 1.662 2.036 1.921 1.816 4.766-.49 6.774-2.29 1.99-5.744 2.57-8.605 1.782a9.652 9.652 0 0 1-3.356-1.682c1.835.583 4.092 1.015 6.126.733 1.28-.175 2.673-.902 3.102-1.29 1.682-1.527 1.268-3.969-1.712-5.46-2.625-1.315-1.47-3.4 1.772-2.519h.007Z" clip-rule="evenodd"/></svg>