<svg xmlns="http://www.w3.org/2000/svg" width="20" height="20" fill="none"><path d="M17.651 12.572c.67-.128.35-1.722.128-2.161-.233-.456-.698-.211-.578-.846.206-1.36.236-2.763.113-4.125-.088-1.39-.566-2.997-2.255-2.049-.823.432-1.571.983-2.317 1.536-.284.175-.636-.032-.922-.112-.776-.335-1.809-.255-2.22-.264-.412-.01-1.43.165-1.987.428-.27.127-.358.097-.604-.096A14.198 14.198 0 0 0 4.96 3.537c-1.938-1.27-2.434.536-2.512 2.17-.013 1.24-.08 2.489.145 3.718.05.243.14.55-.169.744-.586.448-.458 1.251-.478 1.899-.013.25.289.56.565.642-.003.044-.02.106-.043.198-.047.177-.081.358-.12.537-.038.11-.076.222-.109.333-.662 2.79 1.009 4.748 3.626 5.47 2.08.556 4.265.767 6.396.396 2.198-.402 5.067-1.228 5.526-3.76.45-1.938-.845-3.396-.137-3.312Z" fill="#fff"/><path d="M3.81 18.046c-1.122-.868-1.067-2.305-1.037-2.744.355.673.843 1.22 1.513 1.587 3.222 2.054 10.617 1.852 12.965-1.463.02.013.13 1.822-1.66 2.957-2.583 1.638-8.343 2.326-11.781-.337Z" fill="#CDCBE1"/><path d="M16.861 12.066s.07-1.536-.113-1.705c-.182-.168-1.068-.494-1.068-.494l-3.956.188s-.717.148-.801.465c-.085.316.21 2.615.295 2.663.085.047 1.044.86 1.16.896.116.037 1.52.607 2.31.428.791-.18 1.43-.524 1.528-.668.097-.144.566-.63.658-.946.093-.317-.013-.827-.013-.827Zm-13.744 0s-.07-1.536.113-1.705c.183-.168 1.069-.494 1.069-.494l3.955.188s.718.148.802.465c.084.316-.211 2.615-.295 2.663-.085.047-1.045.86-1.16.896-.117.037-1.52.607-2.31.428-.792-.18-1.43-.524-1.528-.668-.097-.144-.566-.63-.659-.946-.092-.317.013-.827.013-.827Z" fill="#3E3669"/><path d="M16.135 10.9s.319 1.54 0 1.972c-.318.432-.92 1.449-2.628.967-1.709-.482-1.793-1.718-1.793-1.718s-.237-1 .092-1.222c.33-.221 3.093-.327 3.093-.327s1.002.072 1.097.189c.095.117.14.138.14.138Zm-12.324 0s-.318 1.54 0 1.972c.319.432.92 1.449 2.629.967 1.709-.482 1.793-1.718 1.793-1.718s.237-1-.093-1.222c-.329-.221-3.093-.327-3.093-.327s-1.002.072-1.097.189c-.095.117-.139.138-.139.138Z" fill="#40334E"/><path d="M4.613 13.571c-.285-.132-.488-.355-.639-.623.04-.185.08-.432.144-.608.202-.548.42-1.196.775-1.669.34 0 .68.106 1.02.105-.044.101-.076.21-.133.303-.442.721-.83 1.464-1.007 2.302-.012.053-.11.145-.16.19Z" fill="#6F6C7B"/><path d="M7.248 10.834c-.018.06-.019.136-.056.18-.371.434-.598.95-.862 1.447-.206.388-.367.964-.486 1.378-.257.143-.46-.14-.717-.165.164-.45.296-.917.5-1.348.245-.514.552-.998.832-1.495l.789.003Z" fill="#6F6A7B"/><path d="M12.61 13.365c-.242-.178-.49-.381-.609-.662.007-.1.038-.247.078-.332.218-.466.453-.923.676-1.385.056-.117.179-.24.303-.242.126-.003.208.052.333.036.19 0 .565-.096.754-.097.004.035-.161.176-.176.2-.182.285-.386.557-.551.852-.265.47-.59 1.172-.69 1.71-.073.035-.044-.116-.118-.08Z" fill="#706C7A"/><path d="M13.834 13.803c-.308.117-.644.005-.71-.233.094-.261.271-.695.38-.95.272-.646.663-1.339 1.058-1.918.162-.003.326-.035.486-.019.087.009.28-.015.364.023-.088.129-.347.438-.423.574-.242.434-.494.864-.706 1.312-.155.33-.325.866-.45 1.21Z" fill="#706C7B"/><path d="m14.063 5.931 1.978 2.2c.326-1.328.364-3.329.087-3.458-.467-.332-1.268.47-2.065 1.258Z" fill="#D54B74"/><path d="m14.605 6.46 1.502 1.67c.247-1.007.276-2.527.066-2.624-.355-.252-.963.356-1.568.955Z" fill="#ED7684"/><path d="m5.762 5.987-1.977 2.2c-.326-1.328-.364-3.329-.087-3.458.467-.332 1.267.47 2.064 1.258Z" fill="#D54B74"/><path d="m5.22 6.517-1.5 1.67c-.248-1.008-.277-2.528-.067-2.625.355-.252.963.356 1.568.955Z" fill="#ED7684"/><path d="M17.76 12.588c.68-.13.355-1.747.13-2.192-.236-.462-.708-.215-.586-.858.209-1.379.24-2.802.115-4.184-.09-1.41-.574-3.04-2.287-2.078-.836.438-1.594.997-2.35 1.557-.288.178-.645-.032-.936-.113-.787-.34-1.834-.259-2.252-.268-.418-.01-1.45.168-2.014.434-.275.13-.364.098-.614-.098A14.402 14.402 0 0 0 4.89 3.424c-1.965-1.288-2.469.543-2.547 2.2-.013 1.258.066 2.514.147 3.772.016.25.142.558-.172.754-.594.455-.465 1.27-.485 1.926-.013.254.293.569.573.651-.003.046-.02.108-.044.201-.047.18-.082.363-.121.545a8.107 8.107 0 0 0-.11.338c-.672 2.83 1.023 4.816 3.677 5.547 2.11.565 4.326.78 6.487.403 2.23-.408 5.14-1.246 5.606-3.813.456-1.967-.858-3.445-.14-3.36Zm-.565-2.931Zm-4.028-4.641c.218-.248.487-.416.757-.598.58-.394 1.177-.758 1.814-1.045 1.896-.712 1.34 5.288 1.177 6.299-.256-.31-.307-.628-.494-1.052-.107-.204-.114-.395-.095-.613.138-2.19.833-5.32-2.153-2.441-.319.256-.748-.145-1-.331-.109-.067-.048-.169-.006-.22ZM8.89 12.929c.143-.356.218-1.779.571-1.786.329-.09 1.192-.183 1.28.247.09.474.194.945.299 1.416.13.494-.616-.356-2.145.25-.002-.045-.014-.088-.005-.127Zm-.326-.048c-.447 1.147-1.894 1.463-3.002 1.462-1.59-.007-2.498-1.06-2.381-2.633.098-.49-.02-1.187.432-1.497.647-.117 1.292-.183 1.955-.123.94.046 1.894-.038 2.823.171 1.017.21.357 1.956.173 2.62Zm2.488-1.874c-.026-.455.207-.728.65-.784a26.31 26.31 0 0 1 2.575-.168c2.517.035 2.447-.161 2.473 2.397-.193 2.111-2.996 2.272-4.467 1.381-1.121-.68-1.087-1.635-1.23-2.826Zm5.021-3.347c-.004.033-.03.063-.047.094-.048-.016-.116-.017-.142-.05-.245-.375-.534-.715-.824-1.055l-.643-.595c-.179-.145.042-.28.145-.385.37-.317.743-.649 1.157-.905.828-.318.379 2.448.354 2.896Zm-8.58-2.429c3.933-1.518 7.59.784 9.03 4.537l-.166.118c-1.303-.244-2.65-.06-3.971-.083-.482.012-.969.056-1.38.367-.046.035-.146.034-.206.01a2.227 2.227 0 0 0-1.61.003c-.296.063-.64-.37-1.163-.343-1.531-.118-3.077-.17-4.595.035.442-1.4 1.343-2.543 2.37-3.565.442-.524 1.112-.74 1.691-1.079Zm-3.738 2.53c-.004-.04-.012-.08-.017-.148-.04-.942-.428-3.342.444-2.789 2.161 1.677 1.401.643-.183 3.038-.123.053-.229.07-.244-.101Zm-.75-3.803c.337-.591.55-.787 1.21-.491.996.42 1.761 1.106 2.684 1.669-.214.15-.389.257-.555.374-.034.022-.07.053-.117.075-.247.166-.336.274-.579-.01-3.086-3.067-2.288.65-2.139 2.761.006.523-.295.997-.453 1.485-.1.068-.165.075-.177-.078-.164-1.928-.419-3.89.127-5.785Zm-.528 8.785Zm14.695 4.133c-2.354 3.545-10.656 3.415-13.712.84-1.491-1.341-1.232-3.484-.587-5.19.33 2.286 3.025 2.55 4.764 1.713.191-.077.185.12.165.23.49-.538.986-1.19 1.783-1.297.48-.042.902-.001 1.344.123.454.157.745.363 1.076.637 1.004.9 2.523.855 3.732.464.846-.416 1.113-.96 1.356-1.835.504 1.406.819 2.927.079 4.315ZM5.768 10.423c1.76.076 3.311-.31 2.502 2.166-.358 1.386-2.086 1.65-3.295 1.413-1.454-.283-1.583-1.669-1.368-2.909.239-.905 1.86-.647 2.161-.67Zm.691.408c-.482-.017-2.513-.294-2.511.384-.058.808-.227 1.906.678 2.302 1.543.588 3.49-.022 3.508-1.916.159-.94-1.077-.738-1.675-.77Zm9.937.504c.02.82.16 1.891-.696 2.354-1.086.642-2.549.49-3.526-.274-.606-.481-.533-1.406-.674-2.107.01-1.116 1.986-.798 2.745-.868.105.002 2.21-.213 2.151.895Zm-1.888-.563c-.776-.005-1.551.02-2.32.138-.693.18-.254 1.287-.133 1.76.542 1.395 3.87 1.552 4.023-.207.216-1.352-.149-1.92-1.57-1.691Z" fill="#100C54"/><path d="M12.402 14.453c-.246-.116-.446-.046-.556.194.799.145-.4 1.062-.748 1.097-.287.086-.553-.03-.791-.184-.22-.167-.109-.471-.179-.705.194-.115.407-.196.587-.333.751-.569.07-1.064-.128-1.11-.273-.064-.989-.213-1.373.105-.297.247-.36.607-.099.904.191.218.357.19.595.322.154.171.214.718.096.887-.395.427-.949.21-1.362-.106.105.605.723.891 1.204.556.26-.163.505-.305.83-.096.69.348 1.572-.25 1.881-.89.02-.046.062-.082.129-.17l.124.24c.15-.335.063-.582-.21-.71Z" fill="#100C54"/><path d="M9.313 13.681c.067-.223 1.333-.19 1.333.003s-1.4.22-1.333-.002Z" fill="#44449C"/><path d="M8.896 15.798c.273.149.713.065.91-.168.024-.027.06-.063.056-.091-.025-.27.044-.559-.152-.796-.076-.038.07.296.05.568-.017.247-.194.38-.437.402-.286.024-.524-.031-.744-.21-.03-.024-.103-.025-.141-.005a.162.162 0 0 0 .023.036c.17.105.3.19.435.264Zm2.924-.634a1.624 1.624 0 0 1-1.142.417c-.194-.004-.373-.145-.409-.312-.059-.28-.001-.502-.141-.414.01.074.019.147.03.22.025.17-.026.372.149.485.238.153.504.27.791.184a1.62 1.62 0 0 0 .926-.678c.065-.1.098-.176.098-.235-.066.031-.223.263-.302.333Z" fill="#C8C8E7"/><path d="M17.53 12.23c-.274-.496.23-1.115-.505-1.399a.959.959 0 0 1 .003-.568c.477.026.631.168.73.652.065.252.292 1.511-.227 1.315Z" fill="#3F366C"/><path d="M2.83 10.266c.268.046.108.277.121.46-.013.317-.503.164-.457.566-.042.271.19 1.208-.336.883-.043-.59-.152-1.862.671-1.909Z" fill="#3E3669"/><path d="M9.862 2.716c-1.133 0-2.203-.11-3.011-.31-.94-.233-1.416-.558-1.416-.966 0-.407.476-.732 1.416-.966.807-.2 1.877-.31 3.011-.31 1.135 0 2.204.11 3.012.31.94.234 1.416.559 1.416.966 0 .408-.476.733-1.416.967-.809.199-1.879.31-3.012.31Zm0-2.062c-2.514 0-3.886.52-3.886.786 0 .268 1.372.787 3.886.787 2.516 0 3.888-.52 3.888-.787S12.378.654 9.862.654Z" fill="#fff" stroke="#D4D4D4" stroke-width=".25" stroke-miterlimit="10"/></svg>