<svg xmlns="http://www.w3.org/2000/svg" width="20" height="20" fill="none"><path fill="#487BFF" d="m18.393 1.746-3.339 17.07A1.464 1.464 0 0 1 13.617 20H3.014a1.466 1.466 0 0 1-1.437-1.746l3.34-17.07A1.464 1.464 0 0 1 6.353.001L16.956 0a1.464 1.464 0 0 1 1.437 1.746Zm-6.352 4.1c.821.003 1.653.003 2.495 0 .675-.002.868-1 .898-1.518.022-.373-.08-.697-.54-.696-2.505.003-5.028.004-7.569.002-.722 0-.908 1.08-.919 1.6-.006.302.118.61.47.612a375.663 375.663 0 0 0 2.491.003.027.027 0 0 1 .016.03l-1.896 9.717c-.075.382.129.62.49.7.638.14 1.953.179 2.123-.691A13220 13220 0 0 0 12 5.881c.004-.023.018-.034.04-.034Z"/><path fill="#fff" d="M12 5.88c-.6 3.077-1.233 6.319-1.9 9.724-.17.87-1.484.832-2.124.692-.36-.08-.564-.318-.489-.7L9.383 5.88a.027.027 0 0 0-.027-.032c-.86.002-1.686.002-2.48-.001-.351-.002-.476-.31-.47-.612.011-.52.197-1.6.92-1.6 2.54.002 5.063 0 7.567-.002.461 0 .563.323.541.696-.03.518-.223 1.516-.898 1.519-.842.002-1.674.002-2.495 0-.023 0-.037.01-.041.033Z"/></svg>