<svg xmlns="http://www.w3.org/2000/svg" width="20" height="20" fill="none"><g clip-path="url(#a)"><circle cx="9.913" cy="9.913" r="9.913" fill="#A66EF1"/><circle cx="10.957" cy="9.913" r="7.13" fill="#fff"/><path fill="url(#b)" fill-rule="evenodd" d="M8.862.052C7 .31 5.198 1.095 3.78 2.267c-.259.214-.403.395-.374.472.026.068.017.105-.02.082-.038-.023-.06.695-.05 1.596.01.901.026 1.638.035 1.638.01 0 .03.289.042.642.014.352.047.663.074.691.028.028.014.119-.031.202-.045.084-.06.176-.031.203.028.028.047.398.043.823-.01 1.015-.003 1.567.025 2.026.013.207-.014.4-.06.428-.048.029-.033.083.035.127.084.052.087.075.012.076-.058.001-.09.051-.07.111.083.242.116.943.046.943-.042 0-.042.117 0 .264.041.144.05.263.02.263-.03 0-.013.042.04.094.058.059.068.207.027.39-.037.163-.049.314-.027.336.081.081.15 2.156.074 2.232-.02.02 0 .126.041.237.042.11.052.226.022.256-.081.081-.02.942.079 1.128.131.246 1.094.921 1.873 1.313 1.524.769 2.803 1.066 4.56 1.06 1.33-.005 2.152-.14 3.235-.528 1.482-.532 2.478-1.147 3.596-2.22 1.485-1.424 2.372-2.973 2.865-5.005.267-1.099.293-3.008.055-4.118-.437-2.045-1.204-3.495-2.628-4.972C15.832 1.547 14.155.618 12.094.18c-.787-.17-2.46-.235-3.232-.128Zm3.943 4.297c1.665.135 1.77.283 1.214 1.717-.27.697-.299.838-.207 1.014.06.112.452.796.873 1.52.421.723.794 1.408.83 1.522.08.263-.192 1.709-.402 2.127-.189.38-.524.555-1.323.694-.522.09-.609.136-.79.407-.245.367-1.399 1.154-2.155 1.47-.676.282-3.264.928-3.72.928-.24 0-.408-.067-.602-.24-.228-.206-.333-.465-.7-1.719-.66-2.251-.782-3.796-.373-4.72l.17-.384-.205-.608c-.227-.673-.255-1.13-.09-1.429.164-.294 1.28-1.256 1.624-1.4.233-.097.69-.121 2.02-.106l1.718.02.265-.358c.232-.311.491-.52.67-.54.03-.004.562.034 1.183.085Zm-1.192 1.268c-.35.566-.367.57-2.463.57h-1.9l-.536.504-.537.505.278.794.278.794-.236.473c-.2.403-.235.585-.235 1.23 0 .946.096 1.48.543 3.024.195.676.36 1.236.367 1.244.007.009.706-.155 1.553-.363 2.027-.5 3.17-1.075 3.58-1.804.232-.413.339-.465 1.26-.614.478-.077.687-.15.718-.25.024-.078.1-.416.17-.75l.127-.61-.882-1.496c-1.034-1.755-1.087-1.961-.732-2.851.269-.676.246-.704-.58-.706-.574-.001-.588.004-.774.306Z" clip-rule="evenodd"/></g><defs><linearGradient id="b" x1="19.999" x2="2.105" y1="6.842" y2="10" gradientUnits="userSpaceOnUse"><stop stop-color="#412E89"/><stop offset=".836" stop-color="#A56EF0"/></linearGradient><clipPath id="a"><path fill="#fff" d="M0 0h20v20H0z"/></clipPath></defs></svg>