<svg xmlns="http://www.w3.org/2000/svg" width="20" height="20" fill="none"><g clip-path="url(#a)"><circle cx="10" cy="9.572" r="6.921" fill="#fff"/><path fill="#156BEC" d="M8.738.063c-.025.025-.338.075-.675.125-.35.037-.738.1-.876.137C6.65.488 4.75 1.388 4.476 1.613c-.087.075-.512.412-.937.762a8.65 8.65 0 0 0-1.125 1.088c-.463.625-.575.762-.75.962-.238.275-1.15 2.188-1.3 2.738-.413 1.55-.4 4.487.024 5.812.15.475 1.063 2.338 1.238 2.563.063.087.375.474.688.862.312.4.874.963 1.237 1.25.375.3.813.638.975.763.25.212.662.412 1.725.875.175.075.35.137.412.15.05.024.113.05.15.062.038.012.1.038.163.05.05.012.15.05.213.1.425.275 3.5.4 4.687.213 1.037-.175 3.162-1.05 3.7-1.513.088-.088.5-.413.913-.725.412-.313.724-.575.712-.6-.025-.012.137-.225.363-.45.55-.587 1.25-1.675 1.512-2.337.125-.3.262-.575.3-.613.05-.037.188-.425.3-.875.3-1.125.4-3.275.2-4.462-.163-1.075-1-3.213-1.462-3.738-.163-.187-.288-.387-.288-.45 0-.137-2.087-2.225-2.238-2.225-.062 0-.2-.087-.312-.187C15.4 1.5 13.975.75 13.813.75c-.038 0-.313-.112-.6-.237a4.498 4.498 0 0 0-1.088-.325c-.675-.113-3.313-.2-3.387-.125ZM8.3 5.65a3.517 3.517 0 0 1-2.888 2.913l-.537.087V5.125h3.5L8.3 5.65Zm6.825 1.225v1.75H11.75v6.75H8.225l.05-3.85c.037-3.725.05-3.85.325-4.425.363-.725 1.238-1.525 1.938-1.775.374-.125 1.1-.187 2.562-.187l2.025-.013v1.75Z"/></g><defs><clipPath id="a"><path fill="#fff" d="M0 0h20v20H0z"/></clipPath></defs></svg>