<svg xmlns="http://www.w3.org/2000/svg" width="20" height="20" fill="none"><path fill="#2775CA" d="M10 20c5.542 0 10-4.458 10-10S15.542 0 10 0 0 4.458 0 10s4.458 10 10 10Z"/><path fill="#fff" d="M12.75 11.583c0-1.458-.875-1.958-2.625-2.166-1.25-.167-1.5-.5-1.5-1.084 0-.583.417-.958 1.25-.958.75 0 1.167.25 1.375.875a.313.313 0 0 0 .292.208h.666a.285.285 0 0 0 .292-.291v-.042a2.082 2.082 0 0 0-1.875-1.708v-1c0-.167-.125-.292-.333-.334h-.625c-.167 0-.292.125-.334.334v.958c-1.25.167-2.041 1-2.041 2.042 0 1.375.833 1.916 2.583 2.125 1.167.208 1.542.458 1.542 1.125 0 .666-.584 1.125-1.375 1.125-1.084 0-1.459-.459-1.584-1.084-.041-.166-.166-.25-.291-.25h-.709a.285.285 0 0 0-.291.292v.042c.166 1.041.833 1.791 2.208 2v1c0 .166.125.291.333.333h.625c.167 0 .292-.125.334-.333v-1c1.25-.209 2.083-1.084 2.083-2.209Z"/><path fill="#fff" d="M7.875 15.958c-3.25-1.166-4.917-4.791-3.708-8 .625-1.75 2-3.083 3.708-3.708.167-.083.25-.208.25-.417V3.25c0-.167-.083-.292-.25-.333-.042 0-.125 0-.167.041-3.958 1.25-6.125 5.459-4.875 9.417a7.496 7.496 0 0 0 4.875 4.875c.167.083.334 0 .375-.167.042-.041.042-.083.042-.166v-.584c0-.125-.125-.291-.25-.375Zm4.417-13c-.167-.083-.334 0-.375.167-.042.042-.042.083-.042.167v.583c0 .167.125.333.25.417 3.25 1.166 4.917 4.791 3.708 8A6.164 6.164 0 0 1 12.125 16c-.167.083-.25.208-.25.417V17c0 .167.083.292.25.333.042 0 .125 0 .167-.041 3.958-1.25 6.125-5.459 4.875-9.417a7.557 7.557 0 0 0-4.875-4.917Z"/><path fill="#2D374B" d="m16.08 14.582.735-1.246 1.98 3.083v.591l-.007-4.071a.307.307 0 0 0-.141-.245l-3.564-2.05a.314.314 0 0 0-.304.02l-.013.008-3.459 2.005-.013.006a.306.306 0 0 0-.179.26l.005 3.318 1.844-2.858c.232-.379.738-.5 1.207-.494l.552.014-3.247 5.207.382.22 3.286-5.422 1.452-.005-3.277 5.559 1.366.786.163.094c.07.028.149.03.22.004l3.614-2.094-.691.4-1.91-3.09Zm.28 4.035-1.379-2.165.842-1.429 1.812 2.856-1.275.738Z"/><path fill="#28A0F0" d="m14.981 16.452 1.38 2.165 1.274-.738-1.812-2.856-.842 1.43Zm3.814.558v-.591l-1.98-3.083-.735 1.246 1.911 3.09.691-.4a.306.306 0 0 0 .113-.223v-.039Z"/><path fill="#fff" d="m10.5 17.568.976.562 3.247-5.206-.551-.015c-.47-.006-.976.116-1.208.495l-1.843 2.857-.62.953v.355Zm6.097-4.644-1.453.005-3.285 5.422 1.148.661.312-.53 3.278-5.558Z"/><path fill="#96BEDC" d="M19.407 12.916a.926.926 0 0 0-.434-.744l-3.61-2.076a.938.938 0 0 0-.829 0c-.03.015-3.51 2.034-3.51 2.034a.93.93 0 0 0-.524.784v4.3l.62-.953-.005-3.317a.31.31 0 0 1 .128-.231c.016-.012 3.556-2.061 3.568-2.067a.314.314 0 0 1 .272 0l3.564 2.049a.308.308 0 0 1 .142.244v4.11a.3.3 0 0 1-.107.223l-.691.4-.357.207-1.274.738-1.292.75a.313.313 0 0 1-.22-.005l-1.529-.88-.312.53 1.374.791c.045.026.086.05.12.068l.098.054a.92.92 0 0 0 .701.012l3.753-2.174a.918.918 0 0 0 .354-.691v-4.156Z"/></svg>