<svg xmlns="http://www.w3.org/2000/svg" width="20" height="20" fill="none"><path fill="#2775CA" d="M10 20c5.542 0 10-4.458 10-10S15.542 0 10 0 0 4.458 0 10s4.458 10 10 10Z"/><path fill="#fff" d="M12.75 11.583c0-1.458-.875-1.958-2.625-2.166-1.25-.167-1.5-.5-1.5-1.084 0-.583.416-.958 1.25-.958.75 0 1.166.25 1.375.875a.313.313 0 0 0 .291.208h.667a.285.285 0 0 0 .292-.291v-.042a2.082 2.082 0 0 0-1.875-1.708v-1c0-.167-.125-.292-.334-.334h-.625c-.166 0-.291.125-.333.334v.958c-1.25.167-2.042 1-2.042 2.042 0 1.375.834 1.916 2.584 2.125 1.166.208 1.541.458 1.541 1.125 0 .666-.583 1.125-1.375 1.125-1.083 0-1.458-.459-1.583-1.084-.042-.166-.167-.25-.292-.25h-.708a.285.285 0 0 0-.292.292v.042c.167 1.041.834 1.791 2.209 2v1c0 .166.125.291.333.333h.625c.167 0 .292-.125.333-.333v-1c1.25-.209 2.084-1.084 2.084-2.209Z"/><path fill="#fff" d="M7.875 15.958c-3.25-1.166-4.917-4.791-3.708-8 .625-1.75 2-3.083 3.708-3.708.167-.083.25-.208.25-.417V3.25c0-.167-.083-.292-.25-.333-.042 0-.125 0-.167.041-3.958 1.25-6.125 5.459-4.875 9.417a7.496 7.496 0 0 0 4.875 4.875c.167.083.334 0 .375-.167.042-.041.042-.083.042-.166v-.584c0-.125-.125-.291-.25-.375Zm4.416-13c-.166-.083-.333 0-.375.167-.041.042-.041.083-.041.167v.583c0 .167.125.333.25.417 3.25 1.166 4.916 4.791 3.708 8A6.164 6.164 0 0 1 12.125 16c-.167.083-.25.208-.25.417V17c0 .167.083.292.25.333.041 0 .125 0 .166-.041 3.959-1.25 6.125-5.459 4.875-9.417a7.557 7.557 0 0 0-4.875-4.917Z"/><circle cx="15" cy="15" r="5" fill="#FE0420"/><path fill="#fff" fill-rule="evenodd" d="M13.561 13.647a1.8 1.8 0 0 0-.288.102c-.157.08-.383.316-.475.497-.144.285-.317 1.054-.296 1.318.022.284.174.5.435.623.186.088.316.112.604.113.579.001.946-.206 1.17-.663.16-.323.322-1.055.29-1.3-.049-.361-.317-.63-.714-.711a1.882 1.882 0 0 0-.726.021Zm.714.914c.014-.21-.015-.296-.124-.363-.149-.09-.431-.052-.59.079-.065.054-.156.23-.197.384-.08.302-.139.623-.139.766 0 .126.01.158.072.227.062.07.091.081.224.09.261.02.435-.073.546-.292.073-.142.192-.654.208-.89Zm1.393-.893c-.037.032-.072.149-.137.455l-.267 1.248c-.14.652-.172.841-.15.87.04.047.572.05.638.002.032-.023.07-.149.13-.432.048-.22.091-.412.097-.428.008-.02.15-.032.447-.039.486-.011.623-.043.838-.196.235-.168.397-.508.4-.837.001-.28-.114-.45-.39-.575-.191-.087-.453-.114-1.06-.112-.425.002-.503.009-.546.044Zm1.275.77c.012-.122.007-.142-.051-.2-.063-.062-.076-.065-.366-.065h-.3l-.017.065c-.026.103-.115.54-.115.564 0 .012.12.022.266.022.214 0 .284-.01.363-.05.134-.067.203-.173.22-.336Z" clip-rule="evenodd"/></svg>