<svg width="21" height="20" fill="none" xmlns="http://www.w3.org/2000/svg"><g clip-path="url(#a)"><path d="M10.017 20c5.541 0 10-4.458 10-10s-4.459-10-10-10c-5.542 0-10 4.458-10 10s4.458 10 10 10Z" fill="#2775CA"/><path d="M12.767 11.583c0-1.458-.875-1.958-2.625-2.166-1.25-.167-1.5-.5-1.5-1.084 0-.583.416-.958 1.25-.958.75 0 1.166.25 1.375.875a.314.314 0 0 0 .291.208h.667a.285.285 0 0 0 .292-.291v-.042a2.082 2.082 0 0 0-1.875-1.708v-1c0-.167-.125-.292-.334-.334h-.625c-.166 0-.291.125-.333.334v.958c-1.25.167-2.042 1-2.042 2.042 0 1.375.834 1.916 2.584 2.125 1.166.208 1.541.458 1.541 1.125 0 .666-.583 1.125-1.375 1.125-1.083 0-1.458-.459-1.583-1.084-.042-.166-.167-.25-.292-.25h-.708a.285.285 0 0 0-.292.292v.042c.167 1.041.834 1.791 2.209 2v1c0 .166.125.291.333.333h.625c.167 0 .292-.125.333-.333v-1c1.25-.209 2.084-1.084 2.084-2.209Z" fill="#fff"/><path d="M7.892 15.958c-3.25-1.166-4.917-4.791-3.708-8 .625-1.75 2-3.083 3.708-3.708.167-.083.25-.208.25-.417V3.25c0-.167-.083-.292-.25-.333-.042 0-.125 0-.167.041C3.767 4.208 1.6 8.417 2.85 12.375a7.496 7.496 0 0 0 4.875 4.875c.167.083.334 0 .375-.167.042-.041.042-.083.042-.166v-.584c0-.125-.125-.291-.25-.375Zm4.417-13c-.167-.083-.334 0-.375.167-.042.042-.042.083-.042.167v.583c0 .167.125.333.25.417 3.25 1.166 4.916 4.791 3.708 8A6.164 6.164 0 0 1 12.142 16c-.167.083-.25.208-.25.417V17c0 .167.083.292.25.333.042 0 .125 0 .167-.041 3.958-1.25 6.124-5.459 4.874-9.417a7.557 7.557 0 0 0-4.874-4.917Z" fill="#fff"/></g><defs><clipPath id="a"><path fill="#fff" transform="translate(.017)" d="M0 0h20v20H0z"/></clipPath></defs></svg>