<svg width="20" height="20" fill="none" xmlns="http://www.w3.org/2000/svg"><g clip-path="url(#a)"><path d="M10.004.378a9.626 9.626 0 0 1 9.627 9.627 9.626 9.626 0 0 1-9.626 9.626 9.626 9.626 0 0 1-9.627-9.626A9.626 9.626 0 0 1 10.004.378Z" fill="#111"/><path fill-rule="evenodd" clip-rule="evenodd" d="M10.005.556a9.45 9.45 0 0 0-9.45 9.449 9.45 9.45 0 1 0 18.899 0 9.45 9.45 0 0 0-9.449-9.45ZM.2 10.005C.201 4.59 4.591.2 10.005.2c5.415 0 9.804 4.39 9.804 9.804 0 5.415-4.39 9.804-9.804 9.804C4.59 19.809.2 15.419.2 10.005Z" fill="#111"/><path d="M10.005.201C4.59.201.2 4.591.2 10.005c0 5.415 4.39 9.804 9.804 9.804 5.415 0 9.804-4.39 9.804-9.804C19.809 4.59 15.419.2 10.005.2Z" fill="url(#b)" fill-opacity=".7"/><path fill-rule="evenodd" clip-rule="evenodd" d="M.021 10.005C.021 4.49 4.491.02 10.005.02s9.983 4.47 9.983 9.984-4.47 9.983-9.983 9.983c-5.514 0-9.984-4.47-9.984-9.983ZM10.005.38A9.624 9.624 0 0 0 .38 10.005a9.624 9.624 0 1 0 19.249 0c0-5.316-4.31-9.624-9.625-9.624Z" fill="url(#c)"/><path fill-rule="evenodd" clip-rule="evenodd" d="M7.148 2.298a8.21 8.21 0 0 0 0 15.4v-.81a7.456 7.456 0 0 1 0-13.78v-.81Zm5.7.81v-.81a8.211 8.211 0 0 1 0 15.4v-.81a7.456 7.456 0 0 0 0-13.78Z" fill="#fff"/><path fill-rule="evenodd" clip-rule="evenodd" d="m9.998 3.107.43.739 2.632 4.52h1.664v.755H5.276v-.754h1.66l2.632-4.521.43-.739Zm0 1.978 1.91 3.282h-3.82l1.91-3.282Zm3.066 6.498h1.66v-.754H5.276v.754h1.656l2.636 4.529.43.739.43-.74 2.636-4.528Zm-1.15 0h-3.83l1.914 3.29 1.915-3.29Z" fill="#fff"/></g><defs><radialGradient id="b" cx="0" cy="0" r="1" gradientUnits="userSpaceOnUse" gradientTransform="matrix(0 20.671 -14.5503 0 10.026 3.064)"><stop offset=".031" stop-color="#3A3A3A"/><stop offset="1" stop-color="#1C1C1C"/></radialGradient><linearGradient id="c" x1="10.005" y1=".016" x2="10.005" y2="19.994" gradientUnits="userSpaceOnUse"><stop stop-color="#fff"/><stop offset="1" stop-color="#111"/></linearGradient><clipPath id="a"><path fill="#fff" d="M0 0h20v20H0z"/></clipPath></defs></svg>