<svg width="58" height="55" fill="none" xmlns="http://www.w3.org/2000/svg"><g clip-path="url(#a)"><path d="m12.63 47.874.024.024c.023 0 .035 0 .058.011l-.012-.011c-.023-.012-.046-.012-.07-.024zM38.3 8.49c4.14 1.201 8.431 3.686 12.7 7.884 1.796 1.761 3.172 3.452 4.175 5.05 1.201-3.464 1.563-6.601.933-8.899C54.277 5.913 49.11 7.86 40.795 5.61 32.48 3.347 33.028-.618 25.797.082c-2.554.245-5.003 1.69-7.23 3.708 3.242.082 7.405.665 12.852 1.925 2.647.618 4.933 1.574 6.88 2.775z" fill="#ECE638"/><path d="M55.187 21.424c-2.24 6.473-7.371 14.111-14.31 19.791a41.393 41.393 0 0 1-2.648 1.994 25.024 25.024 0 0 1-6.88 3.65c-5.517 2.065-10.625 2.03-15.465 1.47a34.954 34.954 0 0 1-2.717-.361l-.443-.07c4.77 5.82 11.569 7.883 15.44 6.834 6.007-1.621 10.439-7.383 13.47-9.715 2.485-1.913 8.433-4.98 11.115-6.613 2.298-1.388 8.316-7.697 2.438-16.98z" fill="#0093D6"/><path d="M15.873 48.33c4.84.547 9.948.594 15.464-1.47-2.939 1.026-6.321 1.632-10.193 1.679a49.603 49.603 0 0 1-5.271-.21z" fill="#0093D6"/><path d="M51 16.374c-4.269-4.187-8.56-6.683-12.7-7.884 8.466 5.225 10.636 15.103 8.735 21.797-1.248 4.432-4.036 9.319-8.817 12.922a38.38 38.38 0 0 0 2.647-1.994c6.951-5.668 12.082-13.319 14.322-19.791-1.015-1.598-2.38-3.289-4.187-5.05z" fill="#2E8260"/><path d="m12.689 47.886.011.011.444.07c-.14-.023-.304-.046-.455-.081z" fill="#0093D6"/><path d="M9.073 17.027c2.053-3.895 5.412-9.54 9.482-13.237-5.178-.128-7.989 1.038-9.855 2.858-3.032 2.95-3.977 13.505-5.131 16.327C-.385 32.7-.233 36.2.233 39.232c.373 2.403 3.277 6.951 12.397 8.642-.524-.548-12.607-13.645-3.557-30.847z" fill="#BAD047"/><path d="M7.499 34.568c-1.283-13.879 7.114-20.06 10.146-22.16C23.337 8.456 30.567 6.24 38.3 8.49c-1.947-1.2-4.245-2.157-6.892-2.764-5.446-1.26-9.61-1.842-12.852-1.924-4.07 3.685-7.429 9.33-9.482 13.225-9.05 17.19 3.033 30.288 3.557 30.847.024 0 .035.012.059.012-2.648-3.242-4.654-7.639-5.19-13.319z" fill="#79B553"/><path d="M38.23 43.21c-2.368 1.632-4.654 2.81-6.881 3.65a25.366 25.366 0 0 0 6.88-3.65zm-22.357 5.12c-.922-.106-1.82-.234-2.718-.362.852.151 1.761.268 2.718.361z" fill="#BAD047"/><path d="M47.035 30.287c1.9-6.694-.269-16.584-8.736-21.797-7.732-2.25-14.95-.035-20.654 3.919-3.032 2.1-11.429 8.28-10.146 22.159.525 5.68 2.542 10.088 5.19 13.33.151.023.303.058.466.081.898.129 1.808.257 2.718.362a49.56 49.56 0 0 0 5.27.21c3.873-.047 7.255-.653 10.194-1.68 2.227-.84 4.525-2.017 6.88-3.65 4.782-3.615 7.57-8.502 8.818-12.934zM31.174 42.3c-7.546 2.099-17.96-3.266-19.045-12.28-1.085-9.016 4.572-13.914 6.38-15.162 5.282-3.65 15.86-6.764 21.773 4.665 5.913 11.43-1.563 20.677-9.108 22.777z" fill="#075229"/></g><defs><clipPath id="a"><path fill="#fff" d="M0 0h57.682v55H0z"/></clipPath></defs></svg>