<svg width="20" height="20" fill="none" xmlns="http://www.w3.org/2000/svg"><circle cx="10" cy="10" r="10" fill="url(#a)"/><path d="M10.556 8.69c.09-.027.764.197.91.244 1.152.37 3.038 1.185 3.457 2.45.571 1.724-.704 3.08-2.112 3.74-.135.063-.652.221-.694.318l-.024 1.851c-.165.711-1.186.663-1.427.033l-.008-3.776.052-.076c1.081.03 1.9-1.198.855-1.99-.35-.265-.744-.36-1.11-.569l-.017-2.055c-.004-.066.059-.153.118-.17ZM9.563 10.638c-.009.027-.05.046-.08.05-.076.007-.601-.15-.72-.185-1.696-.498-3.369-1.417-3.032-3.458.172-1.042.923-1.615 1.819-2.06.129-.065.523-.177.576-.292.073-.626-.04-1.311.015-1.93.064-.71 1.204-.788 1.387-.092l-.022 3.8c-.174.178-.408.197-.602.393-.336.34-.373.721-.021 1.066.115.113.68.4.68.477v2.231ZM7.002 13.468c.728-.088 1.58.047 2.32-.01.166.02.195.084.209.24.1 1.101-.078 2.356-.001 3.473-.076.667-.948.872-1.322.335-.234-.336-.045-.804-.115-1.17a.322.322 0 0 0-.127-.16c-.16-.068-.717.005-.94-.018-1.606-.161-1.622-2.497-.024-2.69ZM11.076 2.194a.605.605 0 0 1 .419.081c.586.313.294 1.123.366 1.652.014.108.075.155.182.172.41.066.814-.07 1.254.075 1.26.413 1.152 1.978-.13 2.281-.493.116-2.002.134-2.522.074-.08-.01-.145-.031-.194-.097l-.014-3.685c.07-.319.314-.518.64-.553Z" fill="#fff"/><defs><linearGradient id="a" x1="20" y1="10" x2="0" y2="10" gradientUnits="userSpaceOnUse"><stop stop-color="#B898FF"/><stop offset="1" stop-color="#764AF6"/></linearGradient></defs></svg>