<svg xmlns="http://www.w3.org/2000/svg" width="20" height="20" fill="none"><path fill="#009393" fill-rule="evenodd" d="M4.356 2h11.52c.275 0 .528.147.665.386l3.357 5.84a.77.77 0 0 1-.126.931l-9.238 9.14a.767.767 0 0 1-1.08 0L.228 9.169a.77.77 0 0 1-.115-.95l3.588-5.852A.768.768 0 0 1 4.356 2Zm10.032 2.608v1.638h-3.281v1.137c2.304.121 4.034.62 4.046 1.217v1.247c-.013.597-1.742 1.096-4.046 1.217v2.789h-2.18v-2.789c-2.304-.121-4.033-.62-4.046-1.217V8.6c.013-.597 1.742-1.096 4.047-1.217V6.246H5.646V4.608h8.742Zm-4.37 5.6c2.459 0 4.514-.421 5.018-.984-.427-.478-1.97-.854-3.93-.957v1.19a20.745 20.745 0 0 1-2.178 0v-1.19c-1.96.103-3.503.479-3.93.957.504.563 2.56.984 5.02.984Z" clip-rule="evenodd"/><path fill="#fff" fill-rule="evenodd" d="M14.388 4.608v1.638h-3.281v1.137c2.304.121 4.034.62 4.046 1.217v1.247c-.013.597-1.742 1.096-4.046 1.217v2.789h-2.18v-2.789c-2.304-.121-4.033-.62-4.046-1.217V8.6c.013-.597 1.742-1.096 4.047-1.217V6.246H5.646V4.608h8.742Zm.648 4.616c-.503.563-2.56.984-5.019.984-2.46 0-4.515-.421-5.018-.984.426-.478 1.97-.854 3.929-.957v1.19a20.759 20.759 0 0 0 2.179 0v-1.19c1.959.103 3.502.479 3.929.957Z" clip-rule="evenodd"/><circle cx="15" cy="15" r="5" fill="#000"/><path fill="url(#a)" d="M12.975 12.073a.177.177 0 0 1 .139-.073h4.788c.087 0 .13.135.07.214l-.947 1.213a.177.177 0 0 1-.138.073h-4.789c-.087 0-.13-.135-.07-.214l.947-1.213Z"/><path fill="url(#b)" d="M12.975 16.573a.177.177 0 0 1 .139-.073h4.788c.087 0 .13.135.07.214l-.947 1.213a.177.177 0 0 1-.138.073h-4.789c-.087 0-.13-.135-.07-.214l.947-1.213Z"/><path fill="url(#c)" d="M16.887 14.25c.051 0 .101.026.138.073l.946 1.213c.062.079.018.214-.07.214h-4.787a.177.177 0 0 1-.139-.073l-.946-1.213c-.062-.079-.018-.214.07-.214h4.788Z"/><defs><linearGradient id="a" x1="16.056" x2="11.268" y1="10.346" y2="17.499" gradientUnits="userSpaceOnUse"><stop stop-color="#00FFA3"/><stop offset="1" stop-color="#DC1FFF"/></linearGradient><linearGradient id="b" x1="16.056" x2="11.268" y1="10.346" y2="17.499" gradientUnits="userSpaceOnUse"><stop stop-color="#00FFA3"/><stop offset="1" stop-color="#DC1FFF"/></linearGradient><linearGradient id="c" x1="16.056" x2="11.268" y1="10.346" y2="17.499" gradientUnits="userSpaceOnUse"><stop stop-color="#00FFA3"/><stop offset="1" stop-color="#DC1FFF"/></linearGradient></defs></svg>