<svg width="20" height="20" fill="none" xmlns="http://www.w3.org/2000/svg"><path fill-rule="evenodd" clip-rule="evenodd" d="M4.356 2h11.52c.275 0 .528.147.665.386l3.357 5.84a.77.77 0 0 1-.126.931l-9.238 9.14a.767.767 0 0 1-1.08 0L.228 9.169a.77.77 0 0 1-.115-.95l3.588-5.852A.768.768 0 0 1 4.356 2Zm10.032 2.608v1.638h-3.281v1.137c2.304.121 4.034.62 4.046 1.217v1.247c-.013.597-1.742 1.096-4.046 1.217v2.789h-2.18v-2.789c-2.304-.121-4.033-.62-4.046-1.217V8.6c.013-.597 1.742-1.096 4.047-1.217V6.246H5.646V4.608h8.742Zm-4.37 5.6c2.459 0 4.514-.421 5.018-.984-.427-.478-1.97-.854-3.93-.957v1.19a20.745 20.745 0 0 1-2.178 0v-1.19c-1.96.103-3.503.479-3.93.957.504.563 2.56.984 5.02.984Z" fill="#009393"/><path fill-rule="evenodd" clip-rule="evenodd" d="M14.388 4.608v1.638h-3.281v1.137c2.304.121 4.034.62 4.046 1.217v1.247c-.013.597-1.742 1.096-4.046 1.217v2.789h-2.18v-2.789c-2.304-.121-4.033-.62-4.046-1.217V8.6c.013-.597 1.742-1.096 4.047-1.217V6.246H5.646V4.608h8.742Zm.648 4.616c-.503.563-2.56.984-5.019.984-2.46 0-4.515-.421-5.018-.984.426-.478 1.97-.854 3.929-.957v1.19a20.759 20.759 0 0 0 2.179 0v-1.19c1.959.103 3.502.479 3.929.957Z" fill="#fff"/><path d="M15 20a5 5 0 1 0 0-10 5 5 0 0 0 0 10Z" fill="#08C"/><path fill-rule="evenodd" clip-rule="evenodd" d="M13.61 13.304h2.803c.1 0 .199.014.302.062a.576.576 0 0 1 .247.233.63.63 0 0 1 .082.313.67.67 0 0 1-.082.324l-.002.003-1.772 3.043a.217.217 0 0 1-.376 0l-1.74-3.038-.001-.002a.674.674 0 0 1-.112-.298.593.593 0 0 1 .339-.585.713.713 0 0 1 .311-.055Zm1.173.434h-1.174c-.077 0-.107.005-.127.015a.155.155 0 0 0-.09.155c.002.019.01.04.054.113l.002.005 1.335 2.33v-2.618Zm.435 0v2.63l1.365-2.346a.237.237 0 0 0 .026-.11.194.194 0 0 0-.022-.092.352.352 0 0 0-.035-.045.065.065 0 0 0-.02-.014.26.26 0 0 0-.119-.023h-1.195Z" fill="#fff"/></svg>