<svg xmlns="http://www.w3.org/2000/svg" width="20" height="20" fill="none"><path fill="#50AF95" fill-rule="evenodd" d="M3.662 1.386.015 9.046a.149.149 0 0 0 .032.174l9.849 9.437a.15.15 0 0 0 .208 0l9.849-9.437a.149.149 0 0 0 .032-.173l-3.647-7.66a.148.148 0 0 0-.134-.086H3.798a.147.147 0 0 0-.136.085Z" clip-rule="evenodd"/><path fill="#fff" fill-rule="evenodd" d="M11.265 9.833c-.07.005-.436.027-1.25.027-.649 0-1.109-.02-1.27-.027-2.505-.11-4.375-.546-4.375-1.068s1.87-.958 4.375-1.07V9.4c.163.012.632.04 1.28.04.778 0 1.168-.033 1.238-.04V7.696c2.5.112 4.365.548 4.365 1.069 0 .52-1.865.957-4.365 1.067l.002.001Zm0-2.313V5.996h3.489V3.671H5.256v2.325h3.488V7.52c-2.835.13-4.967.691-4.967 1.364 0 .673 2.132 1.234 4.967 1.365v4.885h2.52v-4.887c2.829-.13 4.957-.691 4.957-1.363 0-.673-2.126-1.234-4.956-1.364Z" clip-rule="evenodd"/><g clip-path="url(#a)"><path fill="#FF0420" d="M15 20a5 5 0 1 0 0-10 5 5 0 0 0 0 10Z"/><path fill="#fff" d="M13.541 16.326a1.2 1.2 0 0 1-.731-.21.719.719 0 0 1-.282-.608c.001-.068.008-.135.02-.202.032-.18.078-.397.138-.65.17-.687.609-1.03 1.316-1.03.178-.004.354.03.518.097a.764.764 0 0 1 .491.735 1.324 1.324 0 0 1-.019.199 8.588 8.588 0 0 1-.135.649c-.087.342-.238.599-.453.769-.215.167-.503.251-.863.251Zm.053-.54c.13.003.256-.04.356-.124a.69.69 0 0 0 .214-.379 8.74 8.74 0 0 0 .13-.615.855.855 0 0 0 .016-.161c0-.228-.119-.342-.356-.342a.548.548 0 0 0-.36.124.703.703 0 0 0-.21.379c-.046.168-.09.373-.136.615a.801.801 0 0 0-.014.158c0 .23.12.345.36.345Zm1.59.502a.08.08 0 0 1-.064-.026.09.09 0 0 1-.011-.067l.518-2.438a.107.107 0 0 1 .04-.068.115.115 0 0 1 .072-.026h.998a1.16 1.16 0 0 1 .667.172.566.566 0 0 1 .255.5.895.895 0 0 1-.022.194c-.041.253-.177.48-.379.638-.188.138-.445.206-.773.206h-.506l-.172.822a.107.107 0 0 1-.042.067.115.115 0 0 1-.07.027h-.511Zm1.328-1.432a.447.447 0 0 0 .274-.087.405.405 0 0 0 .157-.247.654.654 0 0 0 .011-.113.208.208 0 0 0-.063-.165.314.314 0 0 0-.218-.06h-.45l-.142.672h.43Z"/></g><defs><clipPath id="a"><path fill="#fff" d="M10 10h10v10H10z"/></clipPath></defs></svg>