<svg width="20" height="20" fill="none" xmlns="http://www.w3.org/2000/svg"><path fill-rule="evenodd" clip-rule="evenodd" d="M3.662 1.386.015 9.046a.148.148 0 0 0 .032.174l9.849 9.437a.15.15 0 0 0 .208 0l9.849-9.437a.149.149 0 0 0 .032-.173l-3.647-7.66a.148.148 0 0 0-.134-.086H3.798a.147.147 0 0 0-.136.085Z" fill="#50AF95"/><path fill-rule="evenodd" clip-rule="evenodd" d="M11.265 9.833c-.07.005-.436.027-1.25.027-.649 0-1.109-.02-1.27-.027-2.505-.11-4.375-.546-4.375-1.068s1.87-.958 4.375-1.07V9.4c.163.012.632.04 1.28.04.778 0 1.168-.033 1.238-.04V7.696c2.5.112 4.365.548 4.365 1.069 0 .52-1.865.957-4.365 1.067l.002.001Zm0-2.313V5.996h3.489V3.671H5.256v2.325h3.488V7.52c-2.835.13-4.967.691-4.967 1.364 0 .673 2.132 1.234 4.967 1.365v4.885h2.52v-4.887c2.829-.13 4.957-.69 4.957-1.363S14.095 7.65 11.265 7.52Z" fill="#fff"/><circle cx="15" cy="15" r="5" fill="#FCFF52"/><path fill-rule="evenodd" clip-rule="evenodd" d="M17.5 12.5h-5v5h5v-1.745h-.83a1.833 1.833 0 0 1-1.667 1.08 1.842 1.842 0 0 1-1.838-1.839c0-1.008.823-1.83 1.839-1.83a1.84 1.84 0 0 1 1.68 1.108h.816V12.5Z" fill="#000"/></svg>