<svg xmlns="http://www.w3.org/2000/svg" width="20" height="20" fill="none"><path fill="#0085FF" d="M9.174.031c-2.446.177-4.63 1.216-6.385 3.031C1.374 4.524.513 6.178.12 8.17c-.161.838-.161 2.546.008 3.508.23 1.338.792 2.738 1.577 3.915.415.623 1.561 1.846 2.161 2.308 3.07 2.346 7.293 2.723 10.685.954 3.592-1.878 5.73-5.685 5.392-9.585-.223-2.516-1.138-4.554-2.83-6.277C15.005.847 12.213-.2 9.174.03Zm.546 6.754.516.885-1.562.038-1.57.039 1.993 3.423 1.992 3.423-.207.346c-.108.192-.346.6-.523.908a40.79 40.79 0 0 1-.362.607c-.046.039-.2-.223-2.054-3.438a1731.6 1731.6 0 0 0-2.592-4.477c-.77-1.338-1.43-2.492-1.454-2.554-.046-.115.216-.123 2.63-.107l2.686.023.507.884Zm6.377-.877c0 .085-4.485 7.8-4.53 7.8-.04 0-2.524-4.23-2.878-4.9l-.13-.254h2.192l.223.408c.123.216.308.53.415.7l.185.292.77-1.33a247.3 247.3 0 0 1 1.192-2.054l.415-.708h1.07c.591 0 1.076.023 1.076.046Z"/><path fill="#fff" d="M4.043 6.185c.1.185.754 1.316 1.454 2.523.7 1.208 1.8 3.108 2.446 4.231 2.054 3.562 2.015 3.508 2.092 3.385.646-1.1.985-1.693.985-1.731 0-.023-.87-1.538-1.93-3.362a275.723 275.723 0 0 1-1.97-3.415c-.03-.092.223-.108 1.508-.108.853 0 1.546-.015 1.546-.038s-.231-.439-.516-.923l-.515-.885H3.85l.192.323Z"/><path fill="#fff" d="M12.789 7.931c-.654 1.139-1.216 2.054-1.246 2.039-.031-.023-.231-.346-.447-.723l-.4-.693h-1.03c-.57 0-1.031.024-1.031.047 0 .084 2.884 5.03 2.93 5.03.024 0 .993-1.638 2.147-3.638C14.873 8 15.88 6.247 15.966 6.108l.146-.246H13.98l-1.192 2.07Z"/></svg>