<svg xmlns="http://www.w3.org/2000/svg" width="20" height="20" fill="none"><path fill="#0E1736" d="M0 0h20v20H0z"/><path fill="#FEFEFF" fill-rule="evenodd" d="M13.221 4.61c.28-.2.991-.685 1.056-.72a.446.446 0 0 1 .34-.007c.08.036.18.148.201.226a.393.393 0 0 1-.099.397c-.055.051-.629.453-.668.468-.012.005-.021.014-.021.02s.15.12.334.254c.362.264.407.304.445.394a.478.478 0 0 1 .003.292.454.454 0 0 1-.195.205.546.546 0 0 1-.305.014 14.93 14.93 0 0 1-.645-.453l-.033-.023c-.5-.362-.62-.449-.649-.56-.009-.035-.009-.073-.009-.122v-.01c0-.12.004-.138.05-.202.027-.039.113-.115.195-.174Zm-5.813.642a.951.951 0 0 1 .679-.982c.126-.037.38-.04.512-.005a.95.95 0 0 1 .611.519c.171.38.088.8-.217 1.087a.892.892 0 0 1-.64.25.87.87 0 0 1-.662-.272.908.908 0 0 1-.283-.597Zm9.997 2.343a.666.666 0 0 1 .248-.149.654.654 0 0 1 .406.034.614.614 0 0 1 .275.274c.041.085.047.113.047.24a.46.46 0 0 1-.034.218c-.019.04-.288.477-.6.971l-.566.899.028.042.551.806.133.194c.405.59.441.642.46.7a.592.592 0 0 1 .01.04.571.571 0 0 1-.943.573c-.029-.03-.251-.342-.494-.696l-.542-.787c-.284-.409-.411-.607-.434-.675a.72.72 0 0 1 .023-.422c.03-.058.238-.39 1.197-1.91.106-.169.212-.327.235-.352ZM7.151 14.657a.385.385 0 0 1 .081-.633.317.317 0 0 1 .187-.034h.002c.029.002.051.003.072.007.064.011.123.047.356.188l.004.003c.836.507 1.737.83 2.648.948 1.36.176 2.857-.138 4.124-.865a5.15 5.15 0 0 0 .281-.174c.14-.095.18-.11.291-.11.107 0 .19.031.262.1a.386.386 0 0 1-.02.583 6.158 6.158 0 0 1-.75.45 7.672 7.672 0 0 1-2.662.8 8.185 8.185 0 0 1-.764.02c-.517 0-.618-.005-.852-.037a7.384 7.384 0 0 1-2.453-.773c-.347-.178-.72-.397-.807-.473Z" clip-rule="evenodd"/><path fill="#CDA810" d="M.732 7.442a.666.666 0 0 0-.168.083.546.546 0 0 0-.25.509c.005.063.048.233.106.42.094.305.174.567.556 1.825a716.41 716.41 0 0 0 .463 1.528c.062.22.17.357.348.439a.427.427 0 0 0 .212.042.547.547 0 0 0 .471-.225c.036-.05.212-.471.527-1.262.26-.654.478-1.189.483-1.19.005 0 .036.07.067.157.558 1.512.806 2.178.828 2.224a.657.657 0 0 0 .289.258c.138.054.32.053.442-.004a.637.637 0 0 0 .278-.254c.02-.04.237-.75.482-1.577l.567-1.911c.117-.393.121-.412.115-.54a.54.54 0 0 0-.332-.49c-.079-.036-.112-.042-.236-.04a.483.483 0 0 0-.354.118c-.138.11-.148.136-.452 1.16-.157.526-.299 1.008-.317 1.072a.714.714 0 0 1-.036.113c-.004-.004-.132-.35-.67-1.798-.136-.369-.19-.47-.287-.547a.504.504 0 0 0-.361-.12c-.124 0-.158.006-.237.043A.642.642 0 0 0 3 7.724c-.017.034-.229.557-.47 1.162l-.44 1.1-.036-.11c-.02-.062-.171-.557-.336-1.101a20.33 20.33 0 0 0-.342-1.067c-.115-.212-.391-.326-.643-.266Zm7.451.004a.586.586 0 0 0-.377.342c-.033.088-.033.101-.03 2.094l.005 2.005.04.08a.7.7 0 0 0 .252.263.583.583 0 0 0 .791-.284l.043-.09v-3.99l-.05-.104a.538.538 0 0 0-.345-.308.572.572 0 0 0-.329-.008Zm3.941-.005a2.274 2.274 0 0 0-1.857 1.539l-.005.015c-.02.064-.037.116-.05.168-.05.197-.05.406-.05 1.408v1.284l.046.1a.62.62 0 0 0 .296.291.423.423 0 0 0 .229.042.426.426 0 0 0 .225-.044.57.57 0 0 0 .274-.255l.056-.102.008-1.19.001-.164c.007-.905.008-1.073.066-1.22.013-.033.03-.065.049-.104l.016-.032c.084-.17.286-.381.442-.463.37-.195.758-.19 1.1.013.225.133.388.33.486.582l.051.133.009 1.199c.006.85.014 1.214.027 1.252.032.09.096.187.164.248a.57.57 0 0 0 .895-.16l.047-.094.005-1.214c.005-1.35.003-1.378-.101-1.698a2.284 2.284 0 0 0-1.677-1.503 3.05 3.05 0 0 0-.752-.03Z"/></svg>