<svg width="20" height="20" fill="none" xmlns="http://www.w3.org/2000/svg"><g clip-path="url(#a)"><path d="M10 20c5.523 0 10-4.477 10-10S15.523 0 10 0 0 4.477 0 10s4.477 10 10 10Z" fill="#000"/><path d="M10 4.3a3.245 3.245 0 0 0-2.301.972 3.28 3.28 0 0 0-.943 2.323v1.088H9.39V7.106a.566.566 0 0 1 .346-.52.558.558 0 0 1 .215-.043h.095a.558.558 0 0 1 .518.348.568.568 0 0 1 .043.215v4.227a2.624 2.624 0 0 0 1.863-.776 2.65 2.65 0 0 0 .772-1.874V7.595a3.31 3.31 0 0 0-.95-2.33A3.216 3.216 0 0 0 9.999 4.3Zm.047 9.172h-.095a.559.559 0 0 1-.56-.564V8.683a2.621 2.621 0 0 0-1.864.775 2.65 2.65 0 0 0-.772 1.874v1.073a3.277 3.277 0 0 0 .938 2.328A3.244 3.244 0 0 0 10 15.7a3.228 3.228 0 0 0 2.305-.967 3.261 3.261 0 0 0 .938-2.328v-1.073h-2.635v1.576a.566.566 0 0 1-.56.564Z" fill="#fff"/><path d="m16.08 14.582.735-1.246 1.98 3.083v.591l-.006-4.071a.307.307 0 0 0-.142-.245l-3.564-2.05a.314.314 0 0 0-.304.02l-.012.008-3.46 2.005-.013.006a.31.31 0 0 0-.179.26l.006 3.318 1.843-2.858c.232-.379.738-.5 1.208-.494l.55.014-3.246 5.207.383.22 3.285-5.422 1.453-.005-3.278 5.559 1.366.786.163.094c.07.028.149.03.22.004l3.614-2.094-.691.4-1.91-3.09Zm.28 4.035-1.379-2.165.842-1.429 1.812 2.856-1.274.738Z" fill="#2D374B"/><path d="m14.981 16.452 1.38 2.165 1.274-.738-1.811-2.856-.843 1.43ZM18.795 17.01v-.591l-1.98-3.083-.735 1.246 1.91 3.09.692-.4a.307.307 0 0 0 .113-.223v-.039Z" fill="#28A0F0"/><path d="m10.5 17.568.976.562 3.246-5.206-.55-.015c-.47-.006-.976.116-1.208.495L11.12 16.26l-.62.953v.355ZM16.596 12.924l-1.452.005-3.286 5.422 1.149.661.312-.53 3.277-5.558Z" fill="#fff"/><path d="M19.407 12.916a.926.926 0 0 0-.434-.744l-3.61-2.076a.938.938 0 0 0-.829 0c-.03.015-3.51 2.034-3.51 2.034a.93.93 0 0 0-.524.784v4.3l.62-.953-.005-3.317a.31.31 0 0 1 .128-.231c.016-.012 3.556-2.061 3.568-2.067a.314.314 0 0 1 .272 0l3.564 2.049a.308.308 0 0 1 .142.244v4.11a.3.3 0 0 1-.107.223l-.691.4-.357.207-1.274.738-1.292.75a.313.313 0 0 1-.22-.005l-1.529-.88-.312.53 1.374.791c.045.026.086.05.12.068l.098.054a.92.92 0 0 0 .701.012l3.753-2.174a.918.918 0 0 0 .354-.691v-4.156Z" fill="#96BEDC"/></g><defs><clipPath id="a"><path fill="#fff" d="M0 0h20v20H0z"/></clipPath></defs></svg>